<?xml version="1.0" encoding="UTF-8" standalone="no"?>
<!-- Created with Inkscape (http://www.inkscape.org/) -->

<svg
   width="14in"
   height="8.5in"
   viewBox="0 0 56 34"
   version="1.1"
   id="svg658"
   xml:space="preserve"
   inkscape:version="1.2.2 (b0a8486541, 2022-12-01)"
   sodipodi:docname="Athletic_Shoe_Regions.svg"
   xmlns:inkscape="http://www.inkscape.org/namespaces/inkscape"
   xmlns:sodipodi="http://sodipodi.sourceforge.net/DTD/sodipodi-0.dtd"
   xmlns="http://www.w3.org/2000/svg"
   xmlns:svg="http://www.w3.org/2000/svg"><sodipodi:namedview
     id="namedview660"
     pagecolor="#ffffff"
     bordercolor="#000000"
     borderopacity="0.25"
     inkscape:showpageshadow="2"
     inkscape:pageopacity="0.0"
     inkscape:pagecheckerboard="0"
     inkscape:deskcolor="#d1d1d1"
     inkscape:document-units="mm"
     showgrid="true"
     inkscape:zoom="1.2938725"
     inkscape:cx="711.0438"
     inkscape:cy="662.73919"
     inkscape:window-width="3800"
     inkscape:window-height="2120"
     inkscape:window-x="3840"
     inkscape:window-y="0"
     inkscape:window-maximized="1"
     inkscape:current-layer="layer1"><inkscape:grid
       type="xygrid"
       id="grid779"
       units="in"
       spacingx="0.8"
       originx="0"
       originy="0"
       spacingy="0.8" /></sodipodi:namedview><defs
     id="defs655" /><g
     inkscape:label="Layer 1"
     inkscape:groupmode="layer"
     id="layer1"><path
       id="rect923"
       style="fill:#fcf400;stroke:none;stroke-width:0.629921;fill-opacity:1"
       d="M -0.078450521 -0.12272135 L -0.078450521 34.014811 L 55.973796 34.014811 L 55.973796 -0.12272135 L -0.078450521 -0.12272135 z M 39.721761 9.2137044 C 41.610703 9.212297 43.502466 9.5949041 45.358968 9.9729004 C 47.665805 10.633826 51.033432 11.068806 51.496338 13.944661 C 51.626379 16.691262 48.319152 18.14454 46.15568 19.094482 C 42.028466 21.14923 37.38862 21.814575 32.819661 21.859945 C 31.826206 21.766584 30.836015 21.641194 29.845052 21.524984 C 27.626846 20.95492 24.067011 21.416162 22.700358 20.127116 C 23.139422 16.865299 25.715775 14.442706 28.604329 13.162516 C 31.376482 12.065217 33.633577 9.7195417 36.76123 9.5878906 C 37.743653 9.3205724 38.732315 9.2144416 39.721761 9.2137044 z M 11.029704 13.297607 C 11.068308 13.297526 11.106672 13.297909 11.144775 13.298747 L 16.164307 13.651774 C 16.075724 15.680288 15.799605 20.231104 15.775065 20.919759 C 15.627566 21.049559 12.556196 21.056461 11.353434 20.978841 C 9.0327283 20.829079 6.8655538 20.321179 6.1822103 17.981608 C 5.214108 15.126085 8.5976348 13.302735 11.029704 13.297607 z " /><path
       id="path947"
       style="fill:#ff7b14;stroke:none;stroke-width:0.629921;fill-opacity:1"
       d="m 11.214815,13.270302 c 1.67318,0.117675 3.34636,0.235351 5.01954,0.353026 -0.106279,2.433842 -0.212559,4.867684 -0.318838,7.301526 -1.68206,0.05362 -3.364121,0.107235 -5.046181,0.160852 0.11516,-2.605135 0.230319,-5.210269 0.345479,-7.815404 z"
       sodipodi:nodetypes="ccccc" /><path
       style="fill:#ff7b14;fill-opacity:1;stroke:none;stroke-width:0.629921"
       d="m 29.900865,21.505604 c 0.03613,-2.927736 0.12951,-6.060166 0.165645,-8.987902 2.104925,-1.324476 3.78571,-2.5642941 6.764777,-2.9582923 3.957635,-0.6858449 5.769275,-0.2000529 8.597763,0.385016 l 0.336196,9.2890663 c -4.223417,2.065562 -8.87328,2.712592 -13.527989,2.525008 -0.708751,-0.102954 -1.635095,-0.108244 -2.336392,-0.252896 z"
       id="path949"
       sodipodi:nodetypes="ccccccc" /><path
       style="fill:#ff14e7;fill-opacity:1;stroke:none;stroke-width:0.629921"
       d="m 11.160279,13.306708 c -2.3313964,-0.06059 -5.546985,1.18539 -5.057822,4.38379 0.3077901,2.041019 2.6426775,3.494173 4.767456,3.245956 0.175627,-1.465847 0.206605,-5.116392 0.290366,-7.629746 z"
       id="path951"
       sodipodi:nodetypes="sccs" /><path
       style="fill:#1439ff;fill-opacity:1;stroke:none;stroke-width:0.629921"
       d="m 25.344628,15.207633 c -1.037096,1.203564 -2.691132,2.835699 -2.706327,5.105487 1.060787,0.283766 1.032702,0.631079 3.50003,0.83276 l 3.816125,0.309062 c 0.05297,-2.989212 0.01602,-6.017261 0.069,-9.006473 -1.676905,0.707566 -3.324882,1.479973 -4.678825,2.759164 z"
       id="path953"
       sodipodi:nodetypes="cccccc" /><path
       style="fill:#14ff44;stroke:none;stroke-width:0.629921;fill-opacity:1"
       d="m 45.306359,9.9819442 c 2.252803,0.6974528 5.500125,0.9014148 6.199886,3.6239478 0.548221,2.963647 -3.155512,4.402764 -5.276081,5.56749 -1.06289,0.593628 -0.401053,-1.611006 -0.650985,-2.335751 -0.09094,-2.285229 -0.18188,-4.570458 -0.27282,-6.8556868 z"
       id="path955" /></g></svg>
