<?xml version="1.0" encoding="UTF-8" standalone="no"?>
<!-- Created with Inkscape (http://www.inkscape.org/) -->

<svg
   width="14in"
   height="8.5in"
   viewBox="0 0 56 34"
   version="1.1"
   id="svg658"
   xml:space="preserve"
   inkscape:version="1.2.2 (b0a8486541, 2022-12-01)"
   sodipodi:docname="Regions_Flat_3.svg"
   xmlns:inkscape="http://www.inkscape.org/namespaces/inkscape"
   xmlns:sodipodi="http://sodipodi.sourceforge.net/DTD/sodipodi-0.dtd"
   xmlns="http://www.w3.org/2000/svg"
   xmlns:svg="http://www.w3.org/2000/svg"><sodipodi:namedview
     id="namedview660"
     pagecolor="#ffffff"
     bordercolor="#000000"
     borderopacity="0.25"
     inkscape:showpageshadow="2"
     inkscape:pageopacity="0.0"
     inkscape:pagecheckerboard="0"
     inkscape:deskcolor="#d1d1d1"
     inkscape:document-units="in"
     showgrid="true"
     inkscape:zoom="1.2938725"
     inkscape:cx="1026.7627"
     inkscape:cy="690.56265"
     inkscape:window-width="3800"
     inkscape:window-height="2120"
     inkscape:window-x="40"
     inkscape:window-y="0"
     inkscape:window-maximized="1"
     inkscape:current-layer="layer1"><inkscape:grid
       type="xygrid"
       id="grid779"
       units="in"
       spacingx="0.2"
       originx="28"
       originy="17"
       spacingy="0.2" /></sodipodi:namedview><defs
     id="defs655" /><g
     inkscape:label="Layer 1"
     inkscape:groupmode="layer"
     id="layer1"><path
       id="rect1247"
       style="fill:#000000;fill-opacity:1;stroke:none;stroke-width:0.314961;stroke-opacity:1"
       d="M 0 0 L 0 34 L 56 34 L 56 0 L 0 0 z M 39.770996 9.0096029 C 40.74257 9.0076417 41.711778 9.033953 42.666016 9.0136719 L 42.669922 9.0136719 L 42.673828 9.0136719 C 44.82507 9.0783069 47.065118 9.4522771 48.957194 10.572266 L 48.965007 10.578125 L 48.972819 10.584066 C 50.123689 11.482405 51.115353 12.828124 51.187663 14.35555 L 51.187663 14.36141 L 51.187663 14.36735 C 51.145661 16.223367 50.284627 18.022272 48.84196 19.199382 C 46.988015 20.735148 45.015831 22.170365 42.865397 23.283366 L 42.863444 23.283366 C 40.106583 24.668079 37.003502 25.183402 33.96696 25.332194 L 33.964925 25.332194 L 33.962891 25.332194 C 31.23937 25.374037 28.577972 24.788081 25.912109 24.535319 L 25.910156 24.535319 L 25.908122 24.535319 C 24.339825 24.354424 22.769366 24.206876 21.195231 24.158366 L 21.205078 23.84196 C 22.792444 23.89088 24.372634 24.041419 25.945312 24.222819 L 25.941406 24.220785 C 28.632934 24.475979 31.282061 25.058758 33.957031 25.01766 C 36.966674 24.869723 40.022379 24.357344 42.720703 23.002035 L 42.720703 23.004069 C 44.842803 21.905733 46.797 20.484413 48.640625 18.957194 L 48.640625 18.95516 L 48.642578 18.95516 C 50.009768 17.839635 50.830094 16.125055 50.871094 14.363363 C 50.801846 12.970912 49.880423 11.696222 48.787109 10.839925 C 46.964511 9.7639823 44.781674 9.3918312 42.664062 9.3282064 C 40.094331 9.3820096 37.480356 9.1153726 35.044922 9.900472 L 35.035156 9.9043783 L 35.025391 9.9063314 C 32.76478 10.348672 30.910918 11.817141 28.958903 13.04891 C 26.620374 14.634601 23.72151 15.014009 20.984294 14.755941 L 21.015544 14.443441 C 23.703265 14.696845 26.523493 14.32001 28.781169 12.789144 L 28.783203 12.787191 L 28.787109 12.785156 C 30.716451 11.568156 32.599277 10.066585 34.951172 9.6015625 C 36.525765 9.0946709 38.151706 9.0128715 39.770996 9.0096029 z M 40.071859 9.8894857 C 41.347576 9.889083 42.599976 9.9404905 43.226562 10.044922 C 43.813967 10.142823 44.869143 10.243332 45.904297 10.445312 C 46.939451 10.647293 47.959753 10.936318 48.511719 11.488281 C 49.004293 11.980857 49.410515 12.282482 49.705078 12.710938 C 49.999641 13.139391 50.158203 13.682114 50.158203 14.599609 C 50.158203 15.505439 50.108366 16.180157 49.845703 16.810547 C 49.58304 17.440936 49.111474 18.011105 48.302734 18.71875 C 46.67617 20.141996 43.088797 22.335607 40.853516 23.148438 C 39.738395 23.553936 38.382179 23.853666 37.201172 24.054688 C 36.020165 24.255709 35.025856 24.357422 34.599609 24.357422 C 34.160242 24.357422 33.598108 24.199249 33.056641 23.941406 C 32.515171 23.683566 31.997765 23.326447 31.673828 22.894531 C 31.351151 22.464297 31.055145 21.761634 30.828125 21.15625 C 30.601105 20.550866 30.449219 20.044922 30.449219 20.044922 L 30.445394 20.03125 L 30.443359 20.017578 C 30.443359 20.017578 30.236751 18.201438 30.646484 16.5625 C 31.051726 14.941536 31.843058 13.135459 32.689453 12.289062 C 33.517289 11.461225 35.308752 10.254721 36.777344 10.044922 C 37.497088 9.942101 38.79614 9.8898883 40.071859 9.8894857 z M 12.17277 14.327555 C 14.248419 14.330502 16.332208 14.554713 18.399984 14.399984 C 18.533318 17.866643 18.666635 21.333308 18.799967 24.799967 C 15.136669 24.918916 11.355316 25.7678 7.7639974 24.692546 C 5.1690771 23.90874 4.2174257 20.78419 4.7266439 18.354736 C 5.0794357 16.208318 7.0891897 14.817313 9.1403809 14.551514 C 10.147386 14.377463 11.159081 14.326116 12.17277 14.327555 z M 20.200033 18.799967 L 29 18.799967 L 29 19.799967 L 20.200033 19.799967 L 20.200033 18.799967 z "
       inkscape:label="Background" /><path
       id="rect304"
       style="fill:#e100e6;stroke-width:0.314961"
       d="m 20.200001,18.800001 h 8.8 v 1 h -8.8 z"
       inkscape:label="Text" /><path
       style="fill:#e100e6;stroke-width:0.314961"
       d="m 18.400001,14.400001 c 0.133334,3.466667 0.266667,6.933334 0.400001,10.400001 -3.663306,0.118949 -7.444668,0.967765 -11.035994,-0.107493 -2.5949255,-0.783806 -3.5465661,-3.908284 -3.0373469,-6.337742 0.3527926,-2.146422 2.3624844,-3.53748 4.4136796,-3.803281 3.0689733,-0.530441 6.1820353,0.07881 9.2596603,-0.151485 z"
       id="path360"
       inkscape:label="Lines" /><path
       style="fill:#e100e6;stroke-width:0.314961"
       d="m 30.600002,20.000002 c 0,0 -0.2,-1.800001 0.2,-3.400001 0.4,-1.6 1.200001,-3.4 2.000001,-4.2 0.8,-0.8 2.6,-2 4,-2.2 1.4,-0.2 5.2,-0.2 6.4,0 1.200001,0.2 4.200001,0.4 5.200001,1.4 1,1 1.6,1.2 1.6,3 0,1.8 -0.2,2.6 -1.8,4 -1.6,1.400001 -5.200001,3.600001 -7.400001,4.400001 -2.2,0.8 -5.4,1.2 -6.2,1.2 -0.8,0 -2.2,-0.6 -2.8,-1.4 -0.600001,-0.8 -1.200001,-2.8 -1.200001,-2.8 z"
       id="path362"
       inkscape:label="Lines" /><path
       style="color:#000000;fill:#54b53f;-inkscape-stroke:none"
       d="m 42.666016,9.0136719 c -2.544639,0.054083 -5.19549,-0.2231375 -7.714844,0.5878906 -2.351899,0.4650225 -4.234717,1.9665915 -6.164063,3.1835935 l -0.0039,0.002 -0.002,0.002 c -2.25768,1.53087 -5.077898,1.9077 -7.765625,1.654296 l -0.03125,0.3125 c 2.737222,0.25807 5.636076,-0.121336 7.974609,-1.707031 1.952019,-1.231771 3.805792,-2.700237 6.066407,-3.142578 l 0.0098,-0.00195 0.0098,-0.00391 c 2.43544,-0.785101 5.049403,-0.5184622 7.61914,-0.5722656 2.117616,0.063625 4.300445,0.4357739 6.123047,1.511719 1.093316,0.856299 2.014737,2.130984 2.083985,3.523437 -0.041,1.761696 -0.861324,3.47627 -2.228516,4.591797 h -0.002 v 0.002 c -1.843629,1.527223 -3.797818,2.948537 -5.919922,4.046875 v -0.002 c -2.69833,1.355313 -5.754023,1.867688 -8.763672,2.015625 -2.674976,0.0411 -5.324093,-0.541679 -8.015625,-0.796875 l 0.0039,0.002 c -1.572682,-0.1814 -3.152866,-0.331939 -4.740234,-0.380859 l -0.0098,0.316406 c 1.574137,0.04851 3.144592,0.196058 4.712891,0.376953 h 0.002 0.002 c 2.665867,0.252762 5.327257,0.838718 8.050782,0.796875 h 0.002 0.002 c 3.036548,-0.148792 6.139617,-0.664113 8.896484,-2.048828 h 0.002 c 2.150438,-1.113003 4.122616,-2.548214 5.976563,-4.083984 1.442671,-1.177112 2.303701,-2.97601 2.345703,-4.832031 v -0.0059 -0.0059 c -0.07231,-1.52743 -1.063972,-2.873144 -2.214844,-3.771485 l -0.0078,-0.0059 -0.0078,-0.0059 C 47.065152,9.4522521 44.825074,9.0783071 42.673828,9.0136719 h -0.0039 z"
       id="path364"
       inkscape:label="Stitching" /><path
       style="color:#000000;fill:#3f77b5;-inkscape-stroke:none"
       d="m 36.777344,10.044922 c -1.468594,0.209799 -3.260053,1.416302 -4.087891,2.244141 -0.846397,0.846397 -1.637727,2.652469 -2.042969,4.273437 -0.409735,1.638942 -0.203125,3.455078 -0.203125,3.455078 l 0.002,0.01367 0.0039,0.01367 c 0,0 0.151886,0.505942 0.378906,1.111328 0.22702,0.605386 0.523026,1.308045 0.845703,1.738281 0.323937,0.431916 0.841343,0.789033 1.382813,1.046875 0.541469,0.257843 1.103599,0.416016 1.542968,0.416016 0.426247,0 1.420554,-0.101712 2.601563,-0.302735 1.181009,-0.201022 2.537221,-0.50075 3.652344,-0.90625 2.235287,-0.812831 5.82265,-3.006439 7.449218,-4.429687 0.80874,-0.707647 1.280306,-1.277812 1.542969,-1.908203 0.262663,-0.630392 0.3125,-1.305106 0.3125,-2.210938 0,-0.917497 -0.158562,-1.460216 -0.453125,-1.888671 -0.294563,-0.428456 -0.700783,-0.730081 -1.193359,-1.222657 -0.551966,-0.551965 -1.572266,-0.840987 -2.607422,-1.042968 -1.035156,-0.201982 -2.09033,-0.30249 -2.677735,-0.400391 -1.253177,-0.208863 -5.009726,-0.2056419 -6.449218,0 z m 0.04492,0.310547 c 1.360504,-0.194358 5.204742,-0.191137 6.351562,0 0.612595,0.102099 1.657033,0.200419 2.671875,0.398437 1.014842,0.198018 1.995326,0.508998 2.443359,0.957032 0.507424,0.507423 0.900814,0.80619 1.15625,1.177734 0.255437,0.371544 0.396485,0.828436 0.396485,1.710937 0,0.894167 -0.04977,1.520237 -0.28711,2.089844 -0.237336,0.569607 -0.667725,1.100617 -1.458984,1.792969 -1.573428,1.376751 -5.184901,3.581974 -7.349609,4.36914 -1.084875,0.3945 -2.428668,0.693602 -3.597657,0.892579 -1.168988,0.198976 -2.175075,0.298828 -2.548828,0.298828 -0.360629,0 -0.89772,-0.142609 -1.40625,-0.384766 -0.508529,-0.242157 -0.991515,-0.585041 -1.267578,-0.953125 -0.277323,-0.369763 -0.579754,-1.065543 -0.802734,-1.660156 -0.219036,-0.584095 -0.362045,-1.05322 -0.367188,-1.070313 -8.97e-4,-0.0083 -0.192089,-1.778517 0.197266,-3.335937 0.394757,-1.579029 1.205383,-3.373352 1.958984,-4.126953 0.772161,-0.772161 2.578753,-1.96605 3.910157,-2.15625 z"
       id="path1079"
       inkscape:label="Outline" /></g></svg>
