<?xml version="1.0" encoding="UTF-8" standalone="no"?>
<!-- Created with Inkscape (http://www.inkscape.org/) -->

<svg
   width="14in"
   height="8.5in"
   viewBox="0 0 56 34"
   version="1.1"
   id="svg658"
   xml:space="preserve"
   inkscape:version="1.2.2 (b0a8486541, 2022-12-01)"
   sodipodi:docname="Work_Shoe_2_Regions.svg"
   xmlns:inkscape="http://www.inkscape.org/namespaces/inkscape"
   xmlns:sodipodi="http://sodipodi.sourceforge.net/DTD/sodipodi-0.dtd"
   xmlns="http://www.w3.org/2000/svg"
   xmlns:svg="http://www.w3.org/2000/svg"><sodipodi:namedview
     id="namedview660"
     pagecolor="#ffffff"
     bordercolor="#000000"
     borderopacity="0.25"
     inkscape:showpageshadow="2"
     inkscape:pageopacity="0.0"
     inkscape:pagecheckerboard="0"
     inkscape:deskcolor="#d1d1d1"
     inkscape:document-units="mm"
     showgrid="true"
     inkscape:zoom="1.829812"
     inkscape:cx="706.62997"
     inkscape:cy="644.05524"
     inkscape:window-width="3800"
     inkscape:window-height="2120"
     inkscape:window-x="3840"
     inkscape:window-y="0"
     inkscape:window-maximized="1"
     inkscape:current-layer="layer1"><inkscape:grid
       type="xygrid"
       id="grid779"
       units="in"
       spacingx="0.8"
       originx="0"
       originy="0"
       spacingy="0.8" /></sodipodi:namedview><defs
     id="defs655"><inkscape:path-effect
       effect="fill_between_many"
       method="originald"
       linkedpaths="#path9781,0,1"
       id="path-effect9788" /></defs><g
     inkscape:label="Layer 1"
     inkscape:groupmode="layer"
     id="layer1"><path
       id="rect9309"
       style="display:inline;fill:#fe04ff;stroke-width:0.629921"
       inkscape:label="Outside"
       d="M -0.16748047,-0.09204102 V 34.056396 H 56.113037 V -0.09204102 Z M 29.788411,10.896077 l 1.747722,4.583497 c 0.504891,-0.145757 5.511068,-1.922526 5.511068,-1.922526 0,0 3.872242,-1.220571 6.009277,-1.203451 0.105101,8.4e-4 0.205962,0.0047 0.302002,0.0118 2.048838,0.151923 5.858851,0.16734 6.595133,0.883789 0.736282,0.716451 1.297287,2.139321 0.516114,3.007324 -0.781174,0.868005 -3.436236,2.504238 -7.624024,3.385498 -4.187792,0.881259 -8.954915,1.163656 -8.954915,1.163656 0,0 -2.154831,-0.167614 -2.79305,-0.305176 -0.16586,-0.03575 -1.445313,-0.604411 -1.445313,-0.604411 0,0 -0.527244,5.617269 -0.593424,5.590739 -0.06618,-0.02654 -4.436353,-1.40746 -6.263591,-1.599934 -1.827237,-0.192475 -3.604818,0.225179 -3.604818,0.225179 -0.108336,-0.801705 -0.465991,-4.018473 -0.459391,-4.033773 l -1.021566,0.317627 -4.882161,-0.03434 c 0,0 -1.798819,-0.282287 -2.541423,-0.858561 -0.7426032,-0.576273 -0.5622554,-2.392578 -0.5622554,-2.392578 0,0 -0.4100609,0.04156 0.7282714,-0.503581 1.138332,-0.545135 4.797607,-0.601806 4.797607,-0.601806 l 3.467937,0.222412 c 0.05057,-0.362351 0.223626,-3.212478 0.334635,-3.918213 l 1.317953,0.0345 c 0,0 3.283505,0.610734 5.369954,0.41862 2.08645,-0.192114 4.048258,-1.866293 4.048258,-1.866293 z" /><path
       style="fill:#ffab04;stroke-width:0.629921;fill-opacity:1"
       d="m 31.55203,15.518823 c 0.510359,-0.150138 5.539369,-1.962858 5.539369,-1.962858 0,0 4.262457,-1.343574 6.3113,-1.191652 2.048842,0.151923 5.858822,0.167353 6.595105,0.883804 0.736283,0.716452 1.297304,2.139291 0.516129,3.007296 -0.781175,0.868005 -3.436233,2.5043 -7.62403,3.385561 -4.1878,0.88126 -8.954924,1.163666 -8.954924,1.163666 0,0 -2.658861,-0.4091 -2.793035,-0.305249 -0.134174,0.10385 -1.457566,-0.636326 -1.457566,-0.636326 l -0.903306,-1.090486 0.04033,-1.356971 z"
       id="path9253"
       inkscape:label="Ball-Center" /><path
       style="fill:#ffab04;stroke-width:0.629921;fill-opacity:1"
       d="m 17.753705,20.394837 -4.882099,-0.03431 c 0,0 -1.798859,-0.282276 -2.541464,-0.858551 -0.7426046,-0.576275 -0.5622329,-2.392615 -0.5622329,-2.392615 0,0 -0.4100859,0.04161 0.7282489,-0.503535 1.138334,-0.545141 4.797597,-0.601862 4.797597,-0.601862 l 3.467979,0.222403 0.01358,3.850854 z"
       id="path9255"
       inkscape:label="Heel-Center" /><path
       id="path9251"
       style="display:inline;fill:#04dfff;fill-opacity:1;stroke-width:0.629921"
       inkscape:label="Arch"
       d="M 29.832601 10.89502 C 29.832601 10.89502 27.870792 12.569198 25.784342 12.761312 C 23.697894 12.953426 20.414388 12.342692 20.414388 12.342692 L 19.096436 12.308187 C 19.096436 12.308187 18.735282 15.978933 18.715658 18.083089 C 18.696038 20.187244 19.234701 24.111003 19.234701 24.111003 C 19.234701 24.111003 21.012281 23.693349 22.839518 23.885824 C 24.666756 24.078298 29.036927 25.459223 29.103109 25.485758 C 29.169289 25.512288 29.668376 19.90804 29.668376 19.90804 L 28.775065 18.796956 L 28.792318 17.414307 L 31.530599 15.496582 L 29.832601 10.89502 z M 25.937663 15.539469 L 27.319173 15.577148 L 28.273193 17.098226 L 28.237712 19.731283 L 27.195882 21.190186 L 25.875081 21.131348 L 24.912028 19.67277 L 24.927246 16.952393 L 25.937663 15.539469 z M 28.357096 21.065104 A 0.41071597 0.38747492 0 0 1 28.767822 21.452555 A 0.41071597 0.38747492 0 0 1 28.357096 21.840007 A 0.41071597 0.38747492 0 0 1 27.94637 21.452555 A 0.41071597 0.38747492 0 0 1 28.357096 21.065104 z " /><path
       inkscape:original-d="M 0,0"
       inkscape:path-effect="#path-effect9788"
       d="M 0,0"
       id="path9790"
       class="UnoptimicedTransforms"
       style="display:inline" /><path
       id="path10615"
       style="display:inline;fill:#e7ff04;fill-opacity:1;stroke-width:0.629921"
       inkscape:label="Shape"
       d="M 25.937663 15.539469 L 24.927246 16.952393 L 24.912028 19.67277 L 25.875081 21.131348 L 27.195882 21.190186 L 28.237712 19.731283 L 28.273193 17.098226 L 27.319173 15.577148 L 25.937663 15.539469 z M 26.108073 15.892497 L 27.211589 15.950358 L 27.108236 20.837158 L 25.901855 20.732178 L 26.108073 15.892497 z " /><path
       style="fill:#04ff08;fill-opacity:1;stroke-width:0.629921"
       d="m 26.108099,15.892503 1.103493,0.05785 -0.103348,4.886796 -1.206352,-0.104938 z"
       id="path10617"
       inkscape:label="Text" /><ellipse
       style="fill:#ff5504;fill-opacity:1;stroke-width:0.629921"
       id="path10671"
       cx="28.357117"
       cy="21.452549"
       rx="0.41071597"
       ry="0.38747492" /></g></svg>
