<?xml version="1.0" encoding="UTF-8" standalone="no"?>
<!-- Created with Inkscape (http://www.inkscape.org/) -->

<svg
   width="14in"
   height="8.5in"
   viewBox="0 0 56 34"
   version="1.1"
   id="svg658"
   xml:space="preserve"
   inkscape:version="1.2.2 (b0a8486541, 2022-12-01)"
   sodipodi:docname="Work_Shoe_Regions.svg"
   xmlns:inkscape="http://www.inkscape.org/namespaces/inkscape"
   xmlns:sodipodi="http://sodipodi.sourceforge.net/DTD/sodipodi-0.dtd"
   xmlns="http://www.w3.org/2000/svg"
   xmlns:svg="http://www.w3.org/2000/svg"><sodipodi:namedview
     id="namedview660"
     pagecolor="#ffffff"
     bordercolor="#000000"
     borderopacity="0.25"
     inkscape:showpageshadow="2"
     inkscape:pageopacity="0.0"
     inkscape:pagecheckerboard="0"
     inkscape:deskcolor="#d1d1d1"
     inkscape:document-units="mm"
     showgrid="true"
     inkscape:zoom="1.2938725"
     inkscape:cx="610.95666"
     inkscape:cy="423.92122"
     inkscape:window-width="3800"
     inkscape:window-height="2120"
     inkscape:window-x="3840"
     inkscape:window-y="0"
     inkscape:window-maximized="1"
     inkscape:current-layer="layer1"><inkscape:grid
       type="xygrid"
       id="grid779"
       units="in"
       spacingx="0.8"
       originx="0"
       originy="0"
       spacingy="0.8" /></sodipodi:namedview><defs
     id="defs655"><inkscape:path-effect
       effect="fill_between_many"
       method="originald"
       linkedpaths="#path8212,0,1"
       id="path-effect8225" /></defs><g
     inkscape:label="Layer 1"
     inkscape:groupmode="layer"
     id="layer1"><path
       id="rect8248"
       style="fill:#fb6000;fill-opacity:1;stroke-width:0.629921"
       d="M 0.022460938 0.065511068 L 0.022460938 34.024821 L 55.960205 34.024821 L 55.960205 0.065511068 L 0.022460938 0.065511068 z M 30.122965 10.05013 L 32.468669 14.578695 C 32.468669 14.578695 32.491003 14.571536 32.497803 14.569336 L 32.504639 14.55599 C 32.504639 14.55599 36.814873 12.502358 39.169678 12.662923 C 41.524482 12.823489 46.31591 12.584039 47.566732 13.501546 C 48.81756 14.419055 49.129801 16.245036 49.129801 16.245036 C 49.129801 16.245036 49.352949 17.515287 48.230143 18.294108 C 47.107341 19.072931 44.427332 20.454938 42.901286 20.818359 C 41.375243 21.181779 39.152014 21.397858 37.473389 21.327148 C 35.799478 21.256637 29.590239 20.338615 29.555339 20.333415 L 29.553711 20.336589 L 29.495036 20.326009 L 28.005046 25.949707 C 28.933569 26.510705 20.106894 24.56788 20.134684 24.789876 C 17.484234 24.721258 16.050848 24.62049 14.335938 24.466715 C 14.336997 24.466744 14.354329 24.467285 14.354329 24.467285 C 14.537083 23.053426 14.691626 21.648092 14.826579 20.244954 L 9.7178548 19.657633 C 9.7178548 19.657633 7.8027386 19.312353 7.5904948 18.067708 C 7.378251 16.823064 7.9960314 16.052378 8.4353841 15.590413 C 9.3238212 14.65625 10.201579 14.982015 10.201579 14.982015 L 15.251872 15.042643 C 15.333702 13.875585 15.409001 12.704745 15.48234 11.52653 C 18.479795 11.933761 22.395244 12.227847 25.055827 11.914551 C 26.048751 11.781062 28.818635 10.62284 30.122965 10.05013 z " /><path
       id="path8210"
       style="fill:#fe04ff;fill-opacity:1;stroke-width:0.629921"
       inkscape:label="Arch"
       d="m 30.116674,10.063236 c -1.304334,0.57271 -4.074212,1.730932 -5.067138,1.864421 -2.660587,0.313297 -6.576025,0.01921 -9.573486,-0.388021 -0.271008,4.354046 -0.567902,8.607512 -1.128011,12.940755 0,0 -0.01733,-5.4e-4 -0.01839,-5.69e-4 1.714913,0.153775 3.148291,0.254542 5.798747,0.32316 -0.02779,-0.221997 8.798886,1.72083 7.870361,1.159831 l 1.48999,-5.623698 0.05867,0.01058 2.943848,-5.753988 c 0,0 0.03863,-0.01807 0.09342,-0.04346 -0.05108,0.01658 -0.122314,0.03963 -0.122314,0.03963 z m -12.568115,4.584554 1.075521,0.09351 -0.607991,6.998129 -1.075521,-0.09343 z m 4.556397,0.116211 3.940022,0.301433 -0.54541,7.307942 -3.940755,-0.410481 z" /><path
       style="fill:#00fbc4;fill-opacity:1;stroke-width:0.629921"
       d="m 22.112086,14.737417 -0.546148,7.198889 3.940764,0.410456 0.545381,-7.307943 z"
       id="path8082"
       inkscape:label="TextRectangle" /><path
       style="fill:#00fb0b;fill-opacity:1;stroke-width:0.629921"
       d="m 29.543008,20.345649 2.955362,-5.776545 c 0,0 4.310258,-2.053641 6.665068,-1.893075 2.354809,0.160566 7.146228,-0.07887 8.397053,0.838639 1.25083,0.91751 1.563017,2.743467 1.563017,2.743467 0,0 0.223154,1.270273 -0.899654,2.049096 -1.122804,0.778824 -3.80278,2.160809 -5.32883,2.524231 -1.526045,0.363421 -3.749287,0.579462 -5.427915,0.508756 -1.678629,-0.07071 -7.924101,-0.994569 -7.924101,-0.994569 z"
       id="path8142"
       inkscape:label="Center1" /><path
       style="fill:#00fb0b;fill-opacity:1;stroke-width:0.629921"
       d="m 14.840729,20.26041 0.460512,-5.203979 -5.105888,-0.06134 c 0,0 -0.8777929,-0.325722 -1.7662317,0.608443 -0.4393537,0.461966 -1.0571287,1.232668 -0.8448845,2.477315 0.2122442,1.244648 2.1273883,1.589885 2.1273883,1.589885 z"
       id="path8144"
       sodipodi:nodetypes="cccsscc"
       inkscape:label="Center2" /><rect
       style="fill:#006dfb;fill-opacity:1;stroke-width:0.629921"
       id="rect8198"
       width="1.0795995"
       height="7.0245128"
       x="18.75528"
       y="13.046854"
       transform="rotate(4.9652966)"
       inkscape:label="Text" /><path
       inkscape:original-d=""
       inkscape:path-effect="#path-effect8225"
       d=""
       id="path8227"
       class="UnoptimicedTransforms"
       style="display:inline" /></g></svg>
