<?xml version="1.0" encoding="UTF-8" standalone="no"?>
<!-- Created with Inkscape (http://www.inkscape.org/) -->

<svg
   width="14in"
   height="8.5in"
   viewBox="0 0 56 34"
   version="1.1"
   id="svg658"
   xml:space="preserve"
   inkscape:version="1.2.2 (b0a8486541, 2022-12-01)"
   sodipodi:docname="Regions_Flat_2.svg"
   xmlns:inkscape="http://www.inkscape.org/namespaces/inkscape"
   xmlns:sodipodi="http://sodipodi.sourceforge.net/DTD/sodipodi-0.dtd"
   xmlns="http://www.w3.org/2000/svg"
   xmlns:svg="http://www.w3.org/2000/svg"><sodipodi:namedview
     id="namedview660"
     pagecolor="#ffffff"
     bordercolor="#000000"
     borderopacity="0.25"
     inkscape:showpageshadow="2"
     inkscape:pageopacity="0.0"
     inkscape:pagecheckerboard="0"
     inkscape:deskcolor="#d1d1d1"
     inkscape:document-units="in"
     showgrid="true"
     inkscape:zoom="2.587745"
     inkscape:cx="775.77196"
     inkscape:cy="528.83882"
     inkscape:window-width="3800"
     inkscape:window-height="2120"
     inkscape:window-x="3840"
     inkscape:window-y="0"
     inkscape:window-maximized="1"
     inkscape:current-layer="layer1"><inkscape:grid
       type="xygrid"
       id="grid779"
       units="in"
       spacingx="0.2"
       originx="0"
       originy="0"
       spacingy="0.2" /></sodipodi:namedview><defs
     id="defs655" /><g
     inkscape:label="Layer 1"
     inkscape:groupmode="layer"
     id="layer1"><path
       id="rect4232"
       style="fill:#0061e6;fill-opacity:1;stroke-width:0.314961"
       d="M 0 0 L 0 34 L 56 34 L 56 0 L 0 0 z M 44.148112 5.2908529 L 44.148193 5.2908529 C 44.410817 5.2906629 44.663938 5.2941068 44.905111 5.3011068 C 44.906911 5.3070268 44.908649 5.3128249 44.909749 5.3163249 L 44.909749 5.3164062 C 44.914509 5.3390762 44.918105 5.3616798 44.921305 5.3850098 C 44.928305 5.4281807 44.934892 5.4714312 44.940592 5.5148112 C 44.947892 5.5697291 44.950044 5.6252941 44.949544 5.6806641 C 44.949344 5.757952 44.949004 5.8352364 44.948079 5.9125163 C 44.946879 6.0081182 44.945076 6.1036588 44.941976 6.1992188 C 44.938176 6.3280696 44.936168 6.4569402 44.936768 6.5858561 C 44.935968 6.726311 44.935066 6.866817 44.931966 7.0072428 C 44.929066 7.1245577 44.923728 7.2418494 44.923828 7.3592122 L 44.923828 7.6705729 L 44.923828 7.9116211 C 44.923828 8.4751695 45.493083 8.4751695 45.493083 7.9116211 L 45.493164 7.9116211 L 45.493164 7.6705729 L 45.493164 7.3592122 C 45.493264 7.2464974 45.498602 7.1338307 45.501302 7.0211589 C 45.504502 6.877155 45.505366 6.7330628 45.506266 6.5890299 C 45.505666 6.4646101 45.507712 6.3403399 45.511312 6.2159831 C 45.514512 6.1172192 45.516378 6.0184063 45.517578 5.9195964 C 45.518606 5.8405714 45.518824 5.7614843 45.519124 5.6824544 C 45.520424 5.6032015 45.515222 5.5240638 45.506022 5.4453939 C 45.500802 5.4058249 45.495051 5.3663956 45.488851 5.3269857 C 45.912396 5.3531837 46.280107 5.394153 46.568441 5.4518229 C 48.568397 5.8518135 49.968446 6.251857 50.968424 7.0518392 C 51.968402 7.8518214 52.968394 8.6521956 53.368408 10.651774 C 53.768397 12.65173 53.368392 13.65179 52.568359 15.251709 C 51.768376 16.851675 50.168375 18.451713 47.968424 19.651693 C 47.451505 19.93365 46.847396 20.248017 46.22583 20.564128 C 46.225816 20.539368 46.225834 20.514607 46.22583 20.489827 C 46.225818 20.427718 46.22582 20.365577 46.225749 20.303467 C 46.225653 20.223937 46.225497 20.14439 46.225098 20.06486 C 46.224498 19.951336 46.223854 19.837865 46.221354 19.724365 C 46.218254 19.603121 46.21392 19.481766 46.20109 19.361084 C 46.193991 19.295164 46.186178 19.229461 46.175618 19.163981 C 46.166478 19.107491 46.167198 19.125301 46.159098 19.068441 C 46.156298 19.048811 46.154174 19.02912 46.151774 19.00944 C 46.133974 18.874873 46.111584 18.741014 46.091064 18.606852 C 46.070224 18.463065 46.049979 18.319243 46.022949 18.176432 C 45.974634 17.92121 45.829206 17.804196 45.696859 17.806396 C 45.542074 17.808977 45.405134 17.974594 45.461914 18.273031 L 45.461833 18.273031 C 45.488063 18.41087 45.507468 18.549746 45.527588 18.688558 C 45.547498 18.820361 45.569911 18.951728 45.587321 19.083903 C 45.602601 19.196621 45.62311 19.308277 45.63501 19.421468 C 45.64614 19.52685 45.649662 19.63282 45.652262 19.738688 C 45.654662 19.848421 45.655406 19.958198 45.656006 20.067952 C 45.6564 20.146702 45.656559 20.225449 45.656657 20.304199 C 45.656728 20.366108 45.656726 20.427999 45.656738 20.489909 C 45.656748 20.554348 45.656818 20.618747 45.65682 20.683187 L 45.65682 20.851644 C 44.42849 21.46844 43.212647 22.056239 42.532389 22.382406 C 42.533089 22.369436 42.533875 22.356466 42.534749 22.343506 C 42.539649 22.191722 42.536291 22.039778 42.537191 21.887939 L 42.537191 21.318685 L 42.537191 20.73999 L 42.537191 20.270833 L 42.537191 19.986979 C 42.537191 19.705211 42.394842 19.56429 42.252523 19.56429 C 42.110205 19.56429 41.967936 19.705211 41.967936 19.986979 L 41.967855 19.986979 L 41.967855 20.270833 L 41.967855 20.73999 L 41.967855 21.318685 L 41.967855 21.887939 C 41.966132 22.033188 41.971058 22.178626 41.965658 22.323812 C 41.95817 22.434807 41.956915 22.545991 41.958415 22.657145 C 41.907935 22.686127 41.191438 23.081992 39.073161 23.438721 C 39.073106 23.429771 39.073001 23.420765 39.072917 23.411865 C 39.072417 23.359885 39.07168 23.307891 39.06958 23.255941 C 39.06658 23.188431 39.061874 23.120969 39.050944 23.054199 C 39.035884 22.952866 39.017746 22.852065 39.002116 22.750814 C 38.980446 22.61775 38.954889 22.485099 38.942139 22.350749 C 38.928799 22.212884 38.921701 22.074504 38.918701 21.936035 C 38.916201 21.790391 38.918689 21.644671 38.918701 21.499023 C 38.919401 21.362942 38.919863 21.226883 38.922363 21.09082 C 38.927441 20.804696 38.783211 20.660647 38.638672 20.661947 C 38.498581 20.663239 38.35819 20.801121 38.35319 21.078451 C 38.35069 21.217685 38.350147 21.357003 38.349447 21.496257 C 38.349217 21.645994 38.347391 21.795761 38.349691 21.945475 C 38.352591 22.09887 38.3612 22.25213 38.37557 22.404867 C 38.38902 22.551774 38.41685 22.696666 38.44043 22.842122 C 38.45556 22.940792 38.473407 23.039017 38.488037 23.137777 C 38.496057 23.185041 38.499058 23.23287 38.501058 23.28068 C 38.502758 23.326365 38.503406 23.372086 38.503906 23.417806 C 38.504248 23.454629 38.504333 23.491419 38.504395 23.528239 C 38.21462 23.570773 37.903729 23.612273 37.568685 23.651693 C 36.840154 23.737404 36.111734 23.786344 35.395101 23.810384 C 35.394839 23.808984 35.394554 23.807634 35.394287 23.806234 C 35.383977 23.751304 35.371715 23.696534 35.368815 23.640544 C 35.362915 23.565085 35.358246 23.489398 35.347656 23.414388 C 35.338546 23.337968 35.332302 23.261312 35.325602 23.184652 C 35.318722 23.098513 35.319826 23.01188 35.312826 22.9257 C 35.307126 22.83313 35.299825 22.740535 35.301025 22.647705 C 35.300825 22.561255 35.300579 22.474786 35.299479 22.388346 C 35.298079 22.28248 35.296113 22.176625 35.293213 22.070801 C 35.290427 21.967183 35.287965 21.863506 35.290365 21.759847 C 35.291265 21.671027 35.292278 21.582279 35.294678 21.49349 C 35.302468 21.207427 35.159544 21.062644 35.014974 21.063232 C 34.874849 21.063802 34.733186 21.200917 34.725586 21.47819 L 34.725667 21.47819 C 34.723167 21.5702 34.72201 21.662192 34.72111 21.754232 C 34.71871 21.864669 34.721077 21.975136 34.723877 22.085531 C 34.726777 22.188877 34.72858 22.292212 34.72998 22.395589 C 34.730837 22.480089 34.731327 22.564589 34.731527 22.649089 C 34.730227 22.75309 34.737985 22.856824 34.744385 22.960531 C 34.750265 23.049041 34.751468 23.137757 34.757568 23.226237 C 34.764768 23.311287 34.772145 23.39634 34.782145 23.48112 C 34.791845 23.54859 34.795644 23.61668 34.800944 23.68457 C 34.803534 23.731685 34.810322 23.778266 34.818522 23.824626 C 33.666879 23.843246 32.554627 23.804585 31.532308 23.759115 C 31.531208 23.739275 31.529902 23.719436 31.528402 23.699626 C 31.523402 23.635858 31.517333 23.572229 31.509033 23.508789 C 31.501933 23.458349 31.493587 23.407991 31.483887 23.357992 C 31.475547 23.312999 31.470643 23.267268 31.468343 23.221598 C 31.465243 23.145218 31.466298 23.06875 31.463298 22.99235 C 31.460998 22.90917 31.456838 22.825977 31.457438 22.742757 C 31.458138 22.664857 31.459095 22.586883 31.461995 22.509033 C 31.465725 22.417353 31.472032 22.325904 31.477132 22.234294 C 31.480732 22.127227 31.479029 22.020052 31.479329 21.912923 L 31.479329 21.596924 L 31.479329 21.35319 C 31.479329 21.071413 31.336977 20.930501 31.194661 20.930501 C 31.052348 20.930501 30.910075 21.071413 30.910075 21.35319 L 30.909993 21.35319 L 30.909993 21.596924 L 30.909993 21.912923 C 30.908993 22.013091 30.91214 22.113353 30.90804 22.21346 C 30.90255 22.30427 30.896848 22.395103 30.893148 22.486003 C 30.889848 22.569783 30.888902 22.653638 30.888102 22.737467 C 30.887202 22.827697 30.891706 22.917795 30.894206 23.007975 C 30.896806 23.086355 30.896451 23.164794 30.899251 23.243164 C 30.901951 23.314304 30.911052 23.385091 30.922852 23.455241 C 30.930852 23.498509 30.939143 23.541789 30.944743 23.585449 C 30.951113 23.634417 30.955817 23.683537 30.959717 23.732747 C 30.072785 23.691177 29.256949 23.651693 28.568359 23.651693 C 28.291812 23.651693 28.02877 23.645009 27.773926 23.634359 C 27.773826 23.617839 27.773091 23.600792 27.771891 23.583252 C 27.770491 23.563372 27.769134 23.543522 27.767334 23.523682 C 27.762234 23.470515 27.755226 23.417529 27.750326 23.364339 C 27.742526 23.292629 27.731533 23.221375 27.720703 23.150065 C 27.711413 23.079325 27.707217 23.008372 27.706217 22.937012 C 27.70404 22.854532 27.705828 22.772034 27.705241 22.689535 L 27.705241 22.448079 L 27.705241 22.164062 L 27.705241 21.884847 L 27.705241 21.64738 L 27.705241 21.367839 L 27.705241 21.039876 C 27.705241 20.7581 27.562892 20.617269 27.420573 20.617269 C 27.278263 20.617269 27.135986 20.7581 27.135986 21.039876 L 27.135986 21.367839 L 27.135986 21.64738 L 27.135986 21.884766 L 27.135986 22.164062 L 27.135986 22.448079 L 27.135986 22.689372 C 27.136581 22.776442 27.135144 22.863552 27.137044 22.950602 C 27.138344 23.041541 27.144636 23.132039 27.156006 23.222249 C 27.165606 23.289899 27.177126 23.357232 27.184326 23.425212 C 27.188726 23.475802 27.195839 23.52609 27.200439 23.57666 C 27.201239 23.5855 27.201923 23.594371 27.202555 23.603271 C 26.177973 23.535318 25.265266 23.417647 24.197835 23.398438 C 24.197769 23.396538 24.197567 23.394578 24.19751 23.392578 C 24.19391 23.328118 24.188999 23.263804 24.182699 23.199544 C 24.175199 23.112084 24.16908 23.024411 24.15568 22.937581 C 24.14517 22.855331 24.13776 22.772725 24.125 22.690755 C 24.11482 22.614515 24.105492 22.538081 24.092122 22.462321 C 24.080362 22.389941 24.074046 22.316852 24.064046 22.244222 C 24.051706 22.143027 24.041447 22.041502 24.036947 21.939616 C 24.032736 21.833523 24.035347 21.727328 24.033447 21.621175 C 24.032547 21.541735 24.031707 21.462244 24.027507 21.382894 C 24.024295 21.316914 24.022644 21.250956 24.023844 21.184896 L 24.023844 20.99585 C 24.023844 20.714087 23.881494 20.573161 23.739176 20.573161 C 23.596858 20.573161 23.45459 20.714087 23.45459 20.99585 L 23.45459 21.184814 C 23.45349 21.259273 23.45544 21.33367 23.45874 21.40804 C 23.46264 21.481079 23.463474 21.55424 23.464274 21.62736 C 23.465574 21.738387 23.46428 21.849392 23.46818 21.960368 C 23.47306 22.078266 23.484915 22.195726 23.499105 22.312826 C 23.509315 22.392325 23.517628 22.471978 23.529948 22.551188 C 23.542598 22.622427 23.551191 22.694332 23.560791 22.766032 C 23.573171 22.846552 23.580963 22.927654 23.590983 23.008464 C 23.603423 23.087803 23.60876 23.167863 23.61556 23.247803 C 23.62039 23.297813 23.624586 23.347952 23.627686 23.398112 C 23.294404 23.403872 22.943498 23.42038 22.568197 23.45166 C 21.669357 23.526565 20.990472 23.573375 20.315104 23.613525 L 20.315104 23.606689 L 20.315104 23.536296 C 20.315104 23.510556 20.315099 23.484796 20.315104 23.459066 C 20.315111 23.420441 20.315075 23.3818 20.315104 23.34318 C 20.31515 23.28518 20.315237 23.227189 20.31543 23.169189 C 20.31563 23.0984 20.316039 23.027648 20.317139 22.956868 C 20.318239 22.886599 20.319205 22.816264 20.323405 22.746094 C 20.327305 22.675824 20.330543 22.605618 20.331543 22.535238 C 20.334043 22.459238 20.338535 22.383189 20.338135 22.307129 C 20.338115 22.240459 20.338115 22.173848 20.337972 22.107178 C 20.337872 22.049519 20.337455 21.991813 20.336833 21.934163 C 20.336033 21.866403 20.334968 21.798657 20.331868 21.730957 C 20.328898 21.667987 20.324301 21.605176 20.320801 21.542236 C 20.316601 21.472856 20.309949 21.403618 20.300049 21.334798 C 20.290319 21.264897 20.280693 21.195099 20.273193 21.124919 C 20.245138 20.862248 20.106245 20.739736 19.972819 20.741536 C 19.821592 20.74354 19.677319 20.905119 19.709229 21.202799 C 19.716729 21.272992 19.726465 21.342902 19.736165 21.412842 C 19.743825 21.466942 19.749423 21.521296 19.752523 21.575846 C 19.755683 21.636321 19.760384 21.696723 19.763184 21.757243 C 19.765884 21.818403 19.767041 21.879627 19.767741 21.940837 C 19.76834 21.996757 19.768571 22.052723 19.768717 22.108643 C 19.768858 22.174873 19.76886 22.241062 19.76888 22.307292 C 19.76898 22.376902 19.765014 22.446472 19.762614 22.516032 C 19.761914 22.582372 19.758664 22.648532 19.754964 22.714762 C 19.750364 22.792267 19.749021 22.869951 19.747721 22.947591 C 19.746319 23.020761 19.746375 23.093985 19.746175 23.167155 C 19.745981 23.225695 19.745977 23.284233 19.745931 23.342773 C 19.745902 23.381514 19.745858 23.420244 19.74585 23.458984 C 19.745846 23.484754 19.745851 23.510526 19.74585 23.536296 L 19.74585 23.606689 L 19.74585 23.64624 C 18.938622 23.690522 18.056001 23.733132 16.74471 23.807292 L 16.74471 23.767578 C 16.744703 23.716909 16.744663 23.66623 16.744629 23.61556 C 16.744586 23.55935 16.744528 23.50315 16.744303 23.44694 C 16.744003 23.38129 16.74365 23.31564 16.74235 23.25 C 16.74085 23.17965 16.738705 23.109272 16.733805 23.039062 C 16.728805 22.968793 16.723843 22.898518 16.718343 22.828288 C 16.709543 22.742248 16.696712 22.65684 16.683512 22.57137 C 16.669082 22.468881 16.658478 22.365965 16.647868 22.263021 C 16.637128 22.159348 16.627962 22.055512 16.615072 21.952067 C 16.608272 21.880137 16.609319 21.807948 16.609619 21.735758 L 16.609619 21.528809 C 16.609619 21.247032 16.467269 21.106201 16.324951 21.106201 C 16.182633 21.106201 16.040283 21.247032 16.040283 21.528809 L 16.040283 21.735758 C 16.038883 21.824208 16.040833 21.912491 16.047933 22.000651 C 16.060863 22.107416 16.070716 22.214483 16.081706 22.321452 C 16.092916 22.431316 16.104492 22.54101 16.119792 22.650391 C 16.131332 22.728561 16.144237 22.806584 16.151937 22.885254 C 16.156517 22.949904 16.161516 23.014523 16.166016 23.079183 C 16.170316 23.139963 16.172058 23.20089 16.173258 23.2618 C 16.174607 23.32433 16.174749 23.386842 16.175049 23.449382 C 16.175271 23.504911 16.175331 23.560427 16.175374 23.615967 C 16.175408 23.666517 16.175367 23.71711 16.175374 23.76766 C 16.175377 23.791729 16.175375 23.815784 16.175374 23.839844 C 16.102119 23.844124 16.044052 23.847225 15.968262 23.851725 C 14.672148 23.927969 13.725741 24.033081 12.927734 24.112061 C 12.927926 24.110961 12.928099 24.109905 12.928304 24.108805 C 12.928404 24.107505 12.931755 24.075101 12.931722 24.070801 L 12.931722 24.070719 C 12.931938 24.069519 12.932127 24.06842 12.932292 24.06722 C 12.936032 24.03995 12.939449 24.012289 12.936849 23.984619 C 12.934649 23.954159 12.930619 23.923798 12.922119 23.894368 C 12.915949 23.873709 12.909279 23.853081 12.900879 23.833171 C 12.898209 23.79839 12.894409 23.763729 12.888509 23.729329 C 12.881509 23.684977 12.876099 23.640457 12.870199 23.595947 C 12.865449 23.562447 12.859009 23.529562 12.859049 23.503662 L 12.859049 23.358317 L 12.859049 23.22347 L 12.859049 23.074463 L 12.859049 22.877035 L 12.859049 22.616943 L 12.859049 22.379639 L 12.859049 22.142253 L 12.859049 21.919027 L 12.859049 21.704753 C 12.859049 21.422993 12.716699 21.282064 12.574382 21.282064 C 12.432078 21.282064 12.289795 21.422993 12.289795 21.704753 L 12.289795 21.919027 L 12.289795 22.142334 L 12.289795 22.379639 L 12.289795 22.617025 L 12.289795 22.877116 L 12.289795 23.074544 L 12.289795 23.223551 L 12.289795 23.358317 L 12.289795 23.503662 C 12.289065 23.561412 12.298622 23.61868 12.306722 23.6757 C 12.313022 23.723235 12.318997 23.770745 12.326497 23.818115 C 12.330097 23.837955 12.33234 23.857992 12.33374 23.878092 C 12.33564 23.927972 12.34811 23.976042 12.36377 24.023112 C 12.363968 24.023712 12.364133 24.024248 12.364339 24.024821 C 12.364008 24.029351 12.363698 24.033749 12.363444 24.038249 C 12.358344 24.064309 12.357748 24.091009 12.354248 24.117269 C 12.351348 24.133389 12.349851 24.149747 12.348551 24.166097 C 11.340514 24.25131 10.518083 24.260875 9.3684082 24.051839 C 7.1684564 23.65184 6.3684307 23.051779 5.168457 21.451823 C 3.9684833 19.851846 4.168457 16.851807 4.168457 16.851807 C 4.168457 16.851807 3.9684464 15.251817 4.9684245 14.051839 C 5.9684026 12.851861 6.7688031 11.852323 8.5688477 11.651693 C 9.0731791 11.595655 10.34253 11.555565 11.905436 11.522135 C 11.894736 11.56797 11.888823 11.619708 11.888835 11.677327 L 11.888835 11.683187 C 11.888839 11.698537 11.888899 11.713827 11.888916 11.729167 C 11.888938 11.745687 11.888951 11.762207 11.889079 11.778727 C 11.889767 11.801287 11.88944 11.823876 11.890137 11.846436 C 11.891237 11.880392 11.893084 11.914351 11.896484 11.948161 C 11.900214 11.981591 11.905212 12.014734 11.909912 12.048014 C 11.914872 12.077504 11.920611 12.106984 11.928711 12.135824 C 11.930511 12.155854 11.932772 12.175839 11.935872 12.195719 C 11.940222 12.225779 11.944221 12.255853 11.947021 12.286133 C 11.952511 12.333301 11.957055 12.380652 11.964355 12.427572 C 11.971455 12.467668 11.979123 12.507697 11.987223 12.547607 C 11.987413 12.524285 11.99773 12.63596 11.99943 12.62736 C 12.00293 12.64758 12.005473 12.66719 12.006673 12.68571 C 12.008473 12.71317 12.010342 12.740664 12.014242 12.767904 C 12.014274 12.765604 12.014188 12.759719 12.014242 12.758219 C 12.014253 12.758323 12.01431 12.758344 12.014323 12.758545 C 12.015723 12.780305 12.013223 12.802347 12.014323 12.824137 L 12.014323 12.888835 L 12.014323 12.954753 L 12.014323 13.021403 L 12.014323 13.100179 L 12.014323 13.15446 C 12.014323 13.17419 12.014325 13.193893 12.014323 13.213623 C 12.01432 13.244603 12.014254 13.275579 12.014242 13.306559 C 12.014225 13.347629 12.014296 13.388699 12.014242 13.429769 C 12.014169 13.486159 12.014043 13.542568 12.013916 13.598958 C 12.012616 14.162464 12.581871 14.16376 12.583171 13.60026 L 12.583171 13.600098 C 12.583298 13.543556 12.58326 13.48698 12.583333 13.43042 C 12.583387 13.389182 12.58348 13.347962 12.583496 13.306722 C 12.583508 13.275682 12.583493 13.244663 12.583496 13.213623 C 12.583498 13.193873 12.583495 13.174128 12.583496 13.154378 L 12.583496 13.100016 L 12.583496 13.021322 L 12.583496 12.95459 L 12.583496 12.888753 L 12.583496 12.823975 C 12.583996 12.790474 12.583324 12.757073 12.581624 12.723633 C 12.578924 12.699243 12.575782 12.674972 12.574382 12.650472 C 12.572282 12.613626 12.567086 12.576936 12.561686 12.540446 C 12.555986 12.507796 12.551787 12.474981 12.546387 12.442301 C 12.538877 12.404905 12.531202 12.367535 12.524902 12.329915 C 12.520142 12.293466 12.516344 12.256846 12.512044 12.220296 C 12.508674 12.184364 12.504079 12.148584 12.498779 12.112874 C 12.495209 12.082184 12.49121 12.05183 12.48641 12.02124 C 12.48258 12.00442 12.477877 11.98788 12.473877 11.97111 C 12.473677 11.97048 12.471078 11.95887 12.47111 11.958089 C 12.471979 11.958389 12.471549 11.959551 12.472168 11.961751 C 12.469368 11.937421 12.464602 11.913356 12.462402 11.888916 C 12.460602 11.868746 12.459503 11.848446 12.458903 11.828206 C 12.458413 11.810126 12.458156 11.792087 12.458008 11.774007 C 12.457893 11.758827 12.457865 11.743614 12.457845 11.728434 C 12.457829 11.713284 12.457768 11.698174 12.457764 11.683024 L 12.457764 11.677327 C 12.457754 11.614912 12.450744 11.559414 12.438314 11.510824 C 13.412338 11.491674 14.476824 11.474655 15.536377 11.457845 C 15.534977 11.464235 15.533545 11.470569 15.532145 11.476969 C 15.568395 11.851793 15.568397 11.851825 15.631917 12.10376 C 15.636047 12.13073 15.639753 12.157756 15.642253 12.184896 C 15.646753 12.237616 15.652786 12.290323 15.651286 12.343343 C 15.651086 12.400333 15.65094 12.457353 15.64974 12.514323 C 15.64864 12.557507 15.646922 12.600707 15.642822 12.643717 C 15.636432 12.713797 15.627427 12.783931 15.628337 12.854411 L 15.628337 12.986247 L 15.628337 13.094157 L 15.628337 13.206624 L 15.628337 13.361735 L 15.628337 13.567952 C 15.628337 14.131484 16.197591 14.131484 16.197591 13.567952 L 16.197591 13.361654 L 16.197591 13.206543 L 16.197591 13.094076 L 16.197591 12.986165 L 16.197591 12.854329 C 16.197481 12.801159 16.204817 12.748151 16.209717 12.695231 C 16.215017 12.640131 16.217331 12.584861 16.218831 12.529541 C 16.22043 12.468241 16.220422 12.40685 16.220622 12.34554 C 16.222422 12.27558 16.215373 12.205993 16.209473 12.136393 C 16.202773 12.057743 16.188487 11.979857 16.176107 11.901937 C 16.165927 11.845847 16.160507 11.789137 16.152507 11.732747 C 16.143007 11.671917 16.129991 11.611695 16.114421 11.552165 C 16.112621 11.540465 16.108818 11.528999 16.104818 11.51766 C 16.106018 11.51129 16.107343 11.504935 16.108643 11.498535 C 16.112143 11.481945 16.114906 11.465256 16.117106 11.448486 C 17.220665 11.430916 18.294534 11.413138 19.237874 11.393148 C 19.233027 11.427421 19.23181 11.46441 19.23291 11.50415 L 19.233236 11.514079 C 19.234656 11.551832 19.237459 11.589622 19.244059 11.626872 C 19.245459 11.636072 19.249156 11.649417 19.249756 11.659017 C 19.251708 11.686667 19.250341 11.714456 19.252441 11.742106 C 19.255341 11.802826 19.259427 11.86356 19.266927 11.92391 C 19.271267 11.961508 19.276269 11.998948 19.281169 12.036458 C 19.284939 12.069815 19.288041 12.103146 19.291341 12.136556 C 19.296741 12.176343 19.303489 12.216003 19.313639 12.254883 C 19.315439 12.246683 19.313888 12.25309 19.316488 12.2736 C 19.319608 12.2976 19.323204 12.321458 19.326904 12.345378 C 19.328004 12.352678 19.32906 12.36005 19.33016 12.36735 C 19.338659 12.42598 19.342612 12.485128 19.352702 12.543538 C 19.360762 12.594118 19.369376 12.644686 19.369466 12.696126 C 19.372525 12.756396 19.374447 12.816603 19.373047 12.876953 C 19.372978 12.946053 19.372877 13.015139 19.372559 13.084229 C 19.372259 13.156188 19.371799 13.22819 19.370199 13.30013 C 19.368699 13.36443 19.366618 13.42869 19.363118 13.49292 C 19.332479 14.055621 19.900941 14.08573 19.931641 13.523031 C 19.935541 13.453221 19.93769 13.383366 19.93929 13.313477 C 19.94079 13.238058 19.941413 13.162598 19.941813 13.087158 C 19.942135 13.017288 19.942231 12.947393 19.942301 12.877523 C 19.943501 12.808563 19.94107 12.739687 19.93807 12.670817 C 19.93687 12.597677 19.926284 12.525429 19.914714 12.453369 C 19.906214 12.398319 19.901499 12.342788 19.893799 12.287598 C 19.886199 12.240299 19.880452 12.192769 19.872152 12.145589 C 19.866152 12.118239 19.858813 12.091184 19.855713 12.063314 C 19.853413 12.032954 19.850161 12.002672 19.846761 11.972412 C 19.841841 11.934567 19.836838 11.896817 19.832438 11.858887 C 19.826448 11.811242 19.823245 11.763282 19.821045 11.715332 C 19.820745 11.656772 19.815503 11.598794 19.806803 11.540934 C 19.803403 11.525334 19.802583 11.50939 19.802083 11.49349 C 19.80205 11.49209 19.802035 11.490576 19.802002 11.489176 C 19.801072 11.45035 19.797467 11.414281 19.791667 11.380941 C 21.194168 11.347651 22.201354 11.30747 22.368408 11.25179 C 22.508301 11.20516 22.760317 11.16925 23.08724 11.12915 C 23.08574 11.14947 23.084717 11.170668 23.084717 11.192708 L 23.084717 11.199056 L 23.084717 11.253337 L 23.084717 11.32487 L 23.084717 11.410807 L 23.084717 11.520752 L 23.084717 11.661865 L 23.084717 11.773926 L 23.084717 11.866536 L 23.084717 11.981283 C 23.084716 12.025356 23.084723 12.069455 23.084717 12.113525 C 23.084708 12.167595 23.08468 12.221646 23.084635 12.275716 C 23.08458 12.332086 23.084518 12.388454 23.084229 12.444824 C 23.083829 12.512104 23.08315 12.579377 23.08195 12.646647 C 23.08005 12.750299 23.077673 12.853965 23.072673 12.95752 C 23.067933 13.050899 23.06112 13.144314 23.06193 13.237874 C 23.06683 13.801405 23.635185 13.801412 23.631185 13.237874 C 23.630595 13.153914 23.636895 13.070128 23.641195 12.986328 C 23.646495 12.876717 23.649042 12.766941 23.651042 12.657227 C 23.652342 12.587517 23.653083 12.517799 23.653483 12.448079 C 23.653778 12.390809 23.653834 12.333556 23.65389 12.276286 C 23.653935 12.222056 23.653962 12.167827 23.653971 12.113607 C 23.653978 12.069504 23.653969 12.025464 23.653971 11.981364 L 23.653971 11.866536 L 23.653971 11.773926 L 23.653971 11.661865 L 23.653971 11.520752 L 23.653971 11.410807 L 23.653971 11.32487 L 23.653971 11.253337 L 23.653971 11.199056 L 23.653971 11.192708 C 23.653971 11.145184 23.649897 11.101684 23.642497 11.062174 C 24.518168 10.955772 25.69498 10.791259 26.85376 10.407389 C 26.853706 10.408789 26.853653 10.410221 26.853597 10.411621 C 26.849897 10.551417 26.845094 10.691208 26.843994 10.831055 C 26.842094 10.990857 26.839496 11.150676 26.833496 11.310384 C 26.827186 11.473574 26.816112 11.636551 26.812012 11.799805 C 26.809012 11.91198 26.807174 12.024758 26.792074 12.136068 C 26.784074 12.188618 26.769276 12.239048 26.747396 12.287598 C 26.515848 12.801382 27.044227 13.017446 27.274333 12.503011 C 27.312583 12.417491 27.33542 12.327163 27.35262 12.235433 C 27.3742 12.096506 27.377304 11.955419 27.381104 11.815104 C 27.385304 11.654108 27.396044 11.49338 27.402344 11.332438 C 27.408554 11.167595 27.411349 11.002588 27.413249 10.837646 C 27.414349 10.700585 27.419007 10.563608 27.422607 10.426595 C 27.425607 10.350623 27.426254 10.27469 27.424154 10.19873 C 27.539697 10.152206 27.654621 10.103468 27.768392 10.051758 C 28.434167 9.7491326 29.353434 9.3110648 30.34554 8.8408203 L 30.34554 8.8428548 C 30.345669 8.9199937 30.345823 8.9971602 30.346517 9.0743001 C 30.347417 9.162033 30.348714 9.2497324 30.352214 9.3374023 C 30.357314 9.4568562 30.365298 9.5761975 30.378418 9.6950684 C 30.393748 9.8359912 30.41441 9.9764226 30.42391 10.11792 C 30.431909 10.253859 30.431327 10.38999 30.430827 10.526123 L 30.430827 10.87028 L 30.430827 11.12972 C 30.430827 11.693269 31.000081 11.693269 31.000081 11.12972 L 31 11.129801 L 31 10.87028 L 31 10.526123 C 31.001 10.379266 31.000269 10.232514 30.992269 10.085856 C 30.983069 9.9345068 30.960606 9.7843685 30.944336 9.6337077 C 30.932616 9.5271858 30.92548 9.4202793 30.92098 9.3132324 C 30.91768 9.2317195 30.916571 9.1501734 30.915771 9.0686035 C 30.915096 8.9930526 30.915003 8.9173468 30.914876 8.8417969 C 30.914779 8.7767469 30.914735 8.7117785 30.914714 8.6467285 C 30.914706 8.6217385 30.914652 8.5967573 30.914632 8.5717773 C 31.965561 8.0753178 33.077159 7.5560091 34.091309 7.1086426 C 34.092809 7.1504805 34.094661 7.1923009 34.096761 7.2341309 C 34.101931 7.3440177 34.106931 7.453964 34.109131 7.5639648 C 34.112031 7.6883137 34.112055 7.8126938 34.116455 7.9370117 C 34.121455 8.0969096 34.128717 8.2567534 34.135417 8.4165853 C 34.140217 8.5707611 34.137172 8.7249989 34.138672 8.8792318 C 34.139272 9.0212096 34.139573 9.1632409 34.143473 9.3051758 C 34.146173 9.3876687 34.149517 9.4702876 34.159017 9.5523275 C 34.223837 10.11214 34.789715 10.049968 34.724935 9.490153 C 34.717185 9.4225541 34.714684 9.3545096 34.712484 9.2865397 C 34.708757 9.1499789 34.708445 9.0133098 34.707845 8.876709 C 34.706745 8.7176921 34.708846 8.5587034 34.704346 8.3997396 C 34.697746 8.2395717 34.690465 8.0794193 34.685465 7.9191895 C 34.681265 7.7965166 34.681023 7.6737283 34.678223 7.5510254 C 34.675923 7.4362785 34.670865 7.3216601 34.665365 7.2070312 C 34.661565 7.1314273 34.659027 7.0557418 34.657227 6.9800618 C 34.656408 6.9410569 34.655969 6.9020471 34.65568 6.8630371 C 35.49176 6.5043995 36.231461 6.212919 36.768392 6.0518392 C 37.016943 5.9772743 37.325376 5.9059344 37.676676 5.8387044 C 37.677052 5.8476744 37.67745 5.8566599 37.677979 5.8655599 C 37.680479 5.9058979 37.684244 5.9460682 37.687744 5.9863281 C 37.692624 6.0549451 37.692624 6.1238743 37.698324 6.1924642 C 37.704724 6.2939861 37.710883 6.3955548 37.715983 6.4971517 C 37.723283 6.6309656 37.728833 6.7649327 37.745443 6.8980306 C 37.761403 7.0363065 37.780295 7.1742736 37.789795 7.3132324 C 37.795155 7.3830544 37.801453 7.4532048 37.802653 7.5232747 C 37.803853 7.5947817 37.800012 7.6663644 37.800212 7.7378743 C 37.797912 7.8639972 37.796417 7.9903733 37.784587 8.1160482 C 37.779687 8.1697231 37.768271 8.2223734 37.750081 8.2731934 C 37.560178 8.8037828 38.115144 8.9893377 38.290039 8.4536133 C 38.311369 8.3882783 38.330693 8.3216907 38.340983 8.2535807 C 38.344583 8.2295408 38.347098 8.2053537 38.350098 8.1812337 C 38.364688 8.0373459 38.366785 7.8926091 38.369385 7.7481283 C 38.375985 7.5883574 38.36949 7.4289919 38.35734 7.269694 C 38.347441 7.1235472 38.327532 6.9784417 38.310872 6.8330078 C 38.295682 6.7112549 38.290942 6.5886331 38.284342 6.4662272 C 38.279142 6.3629513 38.272939 6.2597764 38.266439 6.1565755 C 38.261399 6.0874566 38.260097 6.0181245 38.255697 5.9489746 C 38.252697 5.9095816 38.248638 5.8703419 38.246338 5.8308919 C 38.244938 5.806952 38.244296 5.7829218 38.243896 5.7589518 C 38.243798 5.7525918 38.243712 5.7463088 38.243652 5.7399089 C 39.1492 5.595352 40.248962 5.4763081 41.366211 5.3972982 C 41.369011 5.4199082 41.371798 5.4425307 41.373698 5.4652507 C 41.377608 5.5073176 41.382707 5.5492373 41.387207 5.5912272 C 41.392107 5.6283212 41.385542 5.6668516 41.389242 5.7041016 C 41.390442 5.7585325 41.392101 5.8129089 41.395101 5.8672689 C 41.398602 5.9408818 41.3996 6.0145162 41.3986 6.0882161 L 41.3986 6.3753255 C 41.3986 6.4628214 41.398604 6.5503582 41.3986 6.6378581 C 41.398595 6.707169 41.398547 6.7764746 41.398519 6.8457845 C 41.398483 6.9255594 41.398431 7.0053538 41.398275 7.0851237 C 41.398075 7.1745956 41.397844 7.2640457 41.396891 7.3535156 C 41.395791 7.4455325 41.394399 7.537536 41.390299 7.6294759 C 41.386699 7.7103798 41.381807 7.791249 41.375407 7.8719889 C 41.330957 8.4337884 41.898939 8.472441 41.943359 7.9106445 L 41.943278 7.9106445 C 41.950008 7.8255456 41.955003 7.7403806 41.958903 7.6551107 C 41.963303 7.5568838 41.964946 7.4585801 41.966146 7.3602702 C 41.967321 7.2689863 41.967411 7.1776343 41.967611 7.0863444 C 41.967768 7.0062365 41.967819 6.9261386 41.967855 6.8460286 C 41.967884 6.7766427 41.967931 6.707248 41.967936 6.6378581 C 41.967941 6.5503512 41.967936 6.4628354 41.967936 6.3753255 L 41.967936 6.0882161 C 41.968936 6.0056542 41.967604 5.9232088 41.963704 5.8407389 C 41.960904 5.791112 41.959352 5.7414217 41.958252 5.6917318 C 41.957352 5.6473008 41.957404 5.6028209 41.955404 5.558431 C 41.952004 5.510217 41.944792 5.4624466 41.940592 5.4143066 C 41.939592 5.3963367 41.93754 5.3785171 41.93514 5.3606771 C 42.69848 5.3162271 43.455259 5.2913539 44.148112 5.2908529 z M 12.901611 23.8396 L 12.901693 23.8396 C 12.901714 23.839915 12.901751 23.840258 12.901774 23.840576 C 12.901717 23.840297 12.901675 23.839865 12.901611 23.8396 z M 12.901774 23.840902 C 12.902134 23.842602 12.902454 23.844487 12.902751 23.847087 C 12.90263 23.84598 12.902503 23.845899 12.902344 23.84554 C 12.902114 23.845053 12.902127 23.84549 12.902181 23.846354 C 12.90206 23.844554 12.901903 23.842702 12.901774 23.840902 z " /><path
       id="path4160"
       style="display:inline;fill:#00e66e;fill-opacity:1;stroke-width:0.314961"
       d="m 44.196126,5.2679036 c -0.692831,5.039e-4 -1.44958,0.025376 -2.21289,0.069824 0.0024,0.01784 0.0045,0.03566 0.0055,0.05363 0.0042,0.04814 0.01141,0.095909 0.01481,0.1441244 0.002,0.04439 0.0019,0.088871 0.0028,0.1333008 0.0011,0.04969 0.0027,0.09938 0.0055,0.1490071 0.0039,0.08247 0.0052,0.1649153 0.0042,0.2474772 v 0.2871094 c 0,0.08751 5e-6,0.1750256 0,0.2625326 -5e-6,0.06939 -5.2e-5,0.1387846 -8.1e-5,0.2081705 -3.6e-5,0.08011 -8.8e-5,0.1602079 -2.45e-4,0.2403158 -2e-4,0.09129 -2.54e-4,0.1826419 -0.0015,0.2739258 -0.0012,0.09831 -0.0028,0.1966146 -0.0072,0.2948405 -0.0039,0.08527 -0.0089,0.1704359 -0.01563,0.2555338 h 8.1e-5 c -0.0015,0.019489 -0.0038,0.038105 -0.0066,0.056152 0.644314,-0.036629 1.296117,-0.056426 1.953125,-0.058757 0.343353,-0.00122 0.688173,0.00245 1.034017,0.010824 -2.2e-5,-0.00247 -2.44e-4,-0.00475 -2.44e-4,-0.00724 V 7.6476237 7.336263 c -1e-4,-0.1173629 0.0052,-0.2346535 0.0081,-0.3519694 0.0031,-0.1404248 0.004,-0.2809318 0.0048,-0.4213867 -6e-4,-0.1289149 0.0014,-0.2577865 0.0052,-0.3866374 0.0031,-0.09556 0.0049,-0.1911005 0.0061,-0.2867024 9.25e-4,-0.07728 0.0013,-0.1545643 0.0015,-0.2318523 5e-4,-0.05537 -0.0017,-0.1109349 -0.009,-0.1658528 -0.0057,-0.04338 -0.01229,-0.086629 -0.01929,-0.1298015 -0.0032,-0.02333 -0.0068,-0.045934 -0.01156,-0.068604 v -8.13e-5 c -0.0011,-0.0035 -0.0028,-0.0093 -0.0046,-0.015218 -0.241148,-0.007 -0.494242,-0.010443 -0.756836,-0.010254 z m 1.340576,0.036133 c 0.0062,0.03941 0.01195,0.07884 0.01717,0.1184082 0.0092,0.07867 0.0144,0.1578076 0.0131,0.2370605 -3e-4,0.07903 -4.02e-4,0.158117 -0.0015,0.2371419 -0.0012,0.09881 -0.0031,0.1976229 -0.0063,0.2963868 -0.0036,0.1243558 -0.0056,0.248627 -0.005,0.3730468 -9e-4,0.1440329 -0.0018,0.2881261 -0.005,0.4321289 -0.0027,0.1126729 -0.008,0.2253395 -0.0081,0.3380534 V 7.6476238 7.888672 h -8.1e-5 c 0,0.00871 -5.47e-4,0.016871 -8.14e-4,0.025309 C 46.025332,7.933104 46.512234,7.96163 46.999975,8 l 0.399984,9.600016 c -0.438125,0.182551 -0.881442,0.367431 -1.329753,0.551107 1.62e-4,8.42e-4 4.1e-4,0.0016 5.7e-4,0.0024 0.02703,0.142811 0.04727,0.286637 0.06811,0.43042 0.02052,0.134162 0.04291,0.268021 0.06071,0.402588 0.0024,0.01968 0.0046,0.03937 0.0074,0.059 0.0081,0.05686 0.0073,0.03905 0.01644,0.09554 0.01056,0.06548 0.01845,0.131183 0.02555,0.197103 0.01283,0.120682 0.01716,0.242041 0.02026,0.363281 0.0025,0.1135 0.0031,0.226971 0.0037,0.340495 3.99e-4,0.07953 5.55e-4,0.159077 6.51e-4,0.238607 7.1e-5,0.06211 7e-5,0.124251 8.2e-5,0.186361 4e-6,0.02478 -1.4e-5,0.04954 0,0.0743 0.621563,-0.316111 1.225678,-0.630477 1.742594,-0.912435 2.199945,-1.199976 3.799955,-2.80002 4.599935,-4.399984 0.800029,-1.599913 1.200034,-2.599985 0.800049,-4.599935 C 53.016245,8.6293339 52.016251,7.8288702 51.016276,7.02889 50.016301,6.2289098 48.616242,5.8288643 46.616292,5.4288737 c -0.28833,-0.05767 -0.656044,-0.09864 -1.07959,-0.1248371 z m -4.122395,0.070312 c -1.117243,0.07901 -2.217014,0.1980548 -3.122559,0.3426106 6e-5,0.0064 1.46e-4,0.012683 2.44e-4,0.019043 4e-4,0.02397 10e-4,0.048 0.0024,0.07194 0.0023,0.03945 0.0064,0.07869 0.0094,0.1180827 0.0044,0.06915 0.0057,0.138483 0.01074,0.2076009 0.0065,0.1032009 0.0127,0.2063758 0.0179,0.3096517 0.0066,0.1224049 0.01134,0.2450277 0.02653,0.3667806 0.01666,0.1454338 0.03657,0.2905393 0.04647,0.4366862 0.01215,0.1592968 0.01864,0.3186644 0.01204,0.4784342 -0.0026,0.1444809 -0.0047,0.2892186 -0.01929,0.4331055 -0.003,0.02412 -0.0055,0.048307 -0.0091,0.072347 -0.0055,0.036593 -0.01378,0.072724 -0.02344,0.1084798 0.991073,-0.1628247 2.014252,-0.2832481 3.059326,-0.3590495 -0.0043,-0.040006 -0.0052,-0.083475 -0.0015,-0.1310221 0.0064,-0.08073 0.01129,-0.1616081 0.01489,-0.242513 0.0041,-0.09194 0.0055,-0.1839444 0.0066,-0.2759603 9.53e-4,-0.08947 0.0012,-0.178921 0.0014,-0.2683919 1.56e-4,-0.07977 2.09e-4,-0.1595653 2.45e-4,-0.2393392 2.8e-5,-0.06931 7.6e-5,-0.1386155 8.1e-5,-0.2079264 4e-6,-0.0875 0,-0.1750377 0,-0.2625326 V 6.0652669 c 0.001,-0.0737 2e-6,-0.1473333 -0.0035,-0.2209472 -0.003,-0.05436 -0.0047,-0.1087374 -0.0059,-0.1631674 -0.0037,-0.03725 0.0029,-0.07578 -0.002,-0.1128743 -0.0045,-0.04199 -0.0096,-0.08391 -0.01351,-0.1259766 -0.0019,-0.02272 -0.0047,-0.045343 -0.0075,-0.067952 z m -3.689453,0.4414062 c -0.351298,0.06723 -0.659816,0.1385698 -0.908366,0.2131348 -0.536928,0.1610788 -1.276636,0.4525612 -2.112712,0.8111979 2.89e-4,0.03901 7.54e-4,0.078021 0.0015,0.1170247 0.0018,0.07568 0.0043,0.1513655 0.0081,0.2269694 0.0055,0.1146279 0.01056,0.2292473 0.01286,0.3439942 0.0028,0.1227028 0.003,0.2454912 0.0072,0.368164 0.005,0.1602299 0.01236,0.3203833 0.01896,0.4805502 0.0045,0.1589628 0.0024,0.3179535 0.0035,0.4769694 6e-4,0.1366008 8.68e-4,0.2732698 0.0046,0.4098307 0.0022,0.06797 0.0047,0.1360143 0.01245,0.2036133 0.008,0.06903 0.0063,0.1304188 -0.0028,0.184082 0.936961,-0.3604842 1.88383,-0.7031317 2.999267,-1.1033529 -0.01882,-0.079589 -0.01343,-0.1801348 0.02865,-0.2976888 0.01819,-0.05082 0.02961,-0.1034712 0.03451,-0.1571451 0.01183,-0.1256749 0.01331,-0.252051 0.01563,-0.3781739 -2e-4,-0.07151 0.0036,-0.1430927 0.0024,-0.2145996 -0.0012,-0.07007 -0.0075,-0.1402204 -0.01286,-0.2100423 -0.0095,-0.1389579 -0.02839,-0.276926 -0.04435,-0.4152018 -0.01661,-0.1330969 -0.02216,-0.2670651 -0.02946,-0.4008789 -0.0051,-0.1015959 -0.01126,-0.2031666 -0.01766,-0.3046875 -0.0057,-0.06859 -0.0057,-0.1375192 -0.01058,-0.2061361 -0.0035,-0.04026 -0.0072,-0.080429 -0.0097,-0.1207682 -5.29e-4,-0.009 -9.28e-4,-0.017895 -0.0013,-0.026855 z m -3.58545,1.2699382 c -1.014144,0.4473655 -2.12575,0.9666772 -3.176676,1.4631347 2e-5,0.02498 7.3e-5,0.049951 8.1e-5,0.074951 2.1e-5,0.06505 6.6e-5,0.1300998 1.63e-4,0.1951497 1.27e-4,0.07555 2.2e-4,0.1511754 8.95e-4,0.2267253 8e-4,0.08157 0.0019,0.163117 0.0052,0.2446289 0.0045,0.1070469 0.01164,0.2139544 0.02336,0.3204753 0.01627,0.1506598 0.03873,0.3007993 0.04793,0.4521481 0.008,0.146658 0.0087,0.29341 0.0076,0.440267 v 0.344157 0.259521 l 8.2e-5,-8.1e-5 c 0,0.03444 -0.0022,0.06669 -0.0062,0.09692 1.268638,-0.563518 2.292398,-0.990851 3.281575,-1.3789062 -0.05698,-0.064447 -0.100937,-0.162098 -0.116373,-0.2954101 -0.0095,-0.08204 -0.01284,-0.1646588 -0.01554,-0.2471517 -0.0039,-0.1419339 -0.0042,-0.2839662 -0.0048,-0.425944 -0.0015,-0.1542329 0.0015,-0.3084717 -0.0033,-0.4626465 -0.0067,-0.1598309 -0.01396,-0.3196758 -0.01896,-0.4795736 -0.0044,-0.1243169 -0.0043,-0.248699 -0.0072,-0.3730469 -0.0022,-0.1099999 -0.0072,-0.2199471 -0.01237,-0.329834 -0.0021,-0.04183 -0.004,-0.08365 -0.0055,-0.1254882 z m -3.745849,1.7321784 c -0.992103,0.4702435 -1.911373,0.9083135 -2.577149,1.2109376 -0.113768,0.05171 -0.228695,0.100447 -0.344238,0.146972 0.0021,0.07596 0.0015,0.151893 -0.0015,0.227865 -0.0036,0.137013 -0.0083,0.273989 -0.0094,0.411051 -0.0019,0.164942 -0.0047,0.329952 -0.0109,0.494792 -0.0063,0.160942 -0.01704,0.321673 -0.02124,0.482666 -0.0038,0.140315 -0.0069,0.281402 -0.02848,0.420329 -0.0172,0.09173 -0.04004,0.182058 -0.07829,0.267578 -0.03337,0.07461 -0.07311,0.133431 -0.115804,0.178629 1.058299,-0.350984 2.427128,-0.700054 3.392822,-1.199707 -0.07039,-0.06801 -0.120524,-0.185157 -0.120524,-0.352213 v -0.25944 -0.344157 c 5e-4,-0.136133 0.0011,-0.272264 -0.0069,-0.408203 -0.0095,-0.1414982 -0.03016,-0.2819287 -0.04549,-0.4228516 -0.01312,-0.1188708 -0.0211,-0.2382121 -0.0262,-0.357666 -0.0035,-0.08767 -0.0048,-0.1753703 -0.0057,-0.2631022 -6.94e-4,-0.07714 -8.47e-4,-0.1543064 -9.76e-4,-0.2314453 z m -3.491781,1.5666496 c -1.158777,0.383867 -2.335595,0.548383 -3.211263,0.654786 0.0074,0.03951 0.01147,0.08301 0.01147,0.130533 v 0.0063 0.05428 0.07153 0.08594 0.109945 0.141113 0.112061 0.09261 0.114828 c -2e-6,0.0441 7e-6,0.08814 0,0.132243 -9e-6,0.05422 -3.7e-5,0.108449 -8.2e-5,0.162679 -5.6e-5,0.05727 -1.12e-4,0.114523 -4.07e-4,0.171793 -4e-4,0.06972 -0.0011,0.139437 -0.0024,0.209147 -0.002,0.109715 -0.0045,0.219491 -0.0098,0.329102 -0.0031,0.06079 -0.0072,0.121607 -0.009,0.182454 1.764561,-0.15137 2.989537,-0.280719 3.119791,-0.345866 0.03326,-0.01224 0.06728,-0.02442 0.101482,-0.03662 -0.14145,-0.04561 -0.22629,-0.231868 -0.106039,-0.498698 0.02188,-0.04855 0.03668,-0.09898 0.04468,-0.15153 0.0151,-0.111309 0.01694,-0.224088 0.01994,-0.336263 0.0041,-0.163253 0.01517,-0.32623 0.02148,-0.48942 0.006,-0.159708 0.0086,-0.319528 0.0105,-0.47933 0.0011,-0.139846 0.0059,-0.279637 0.0096,-0.419433 5.6e-5,-0.0014 1.09e-4,-0.0028 1.63e-4,-0.0042 z m 21.114746,0.04435 h 4 v 3.200032 h -4 z M 23.135254,11.10628 c -0.326923,0.0401 -0.578939,0.07601 -0.718831,0.12264 -0.167054,0.05568 -1.174243,0.09586 -2.576742,0.12915 0.0058,0.03334 0.0094,0.06941 0.01034,0.108236 3.3e-5,0.0014 4.9e-5,0.0029 8.2e-5,0.0043 5e-4,0.0159 0.0013,0.03184 0.0047,0.04744 0.0087,0.05786 0.01394,0.115838 0.01424,0.174398 0.0022,0.04795 0.0054,0.09591 0.01139,0.143555 0.0044,0.03793 0.0094,0.07568 0.01432,0.113525 0.0034,0.03026 0.0067,0.06054 0.009,0.0909 0.0031,0.02787 0.01044,0.05493 0.01644,0.08228 0.0083,0.04718 0.01413,0.09471 0.02173,0.142009 0.0077,0.05519 0.01233,0.110721 0.02083,0.165771 0.01157,0.07206 0.02224,0.144308 0.02344,0.217448 0.003,0.06887 0.0054,0.137746 0.0042,0.206706 -7e-5,0.06987 -1.67e-4,0.139765 -4.89e-4,0.209635 -4e-4,0.07544 -10e-4,0.150899 -0.0025,0.226319 -0.0011,0.04886 -0.0028,0.09766 -0.0049,0.146484 1.119951,-0.08208 2.184391,-0.164787 3.127685,-0.243164 2.56e-4,-0.08654 0.0062,-0.172966 0.01058,-0.259359 0.005,-0.103555 0.0074,-0.20722 0.0093,-0.310872 0.0012,-0.06727 0.002,-0.134543 0.0024,-0.201823 2.89e-4,-0.05637 3.52e-4,-0.112738 4.06e-4,-0.169108 4.5e-5,-0.05407 7.3e-5,-0.108121 8.2e-5,-0.162191 6e-6,-0.04407 -1e-6,-0.08817 0,-0.132243 v -0.114746 -0.09261 -0.112061 -0.141113 -0.109945 -0.08594 -0.07153 -0.05428 -0.0063 c 0,-0.02204 9.01e-4,-0.04324 0.0024,-0.06356 z m -3.849447,0.263997 c -0.943337,0.01999 -2.017212,0.03777 -3.120768,0.05534 -0.0022,0.01677 -0.005,0.03346 -0.0085,0.05005 -0.0013,0.0064 -0.0026,0.01276 -0.0038,0.01913 0.004,0.01134 0.0078,0.02281 0.0096,0.0345 0.01557,0.05953 0.02858,0.119753 0.03808,0.180583 0.008,0.05639 0.01342,0.113099 0.0236,0.169189 0.01238,0.07792 0.02675,0.155806 0.03345,0.234456 0.0059,0.0696 0.01295,0.139188 0.01115,0.209148 -2e-4,0.06131 -2.45e-4,0.1227 -0.0019,0.184 -0.0015,0.05532 -0.0037,0.11059 -0.009,0.16569 -0.0049,0.05292 -0.01224,0.105929 -0.01213,0.159099 v 0.131836 0.10791 0.112467 0.155111 0.206299 c 0,0.0555 -0.0057,0.105333 -0.01563,0.149902 1.059602,-0.06796 2.136914,-0.141356 3.180909,-0.21639 1.27e-4,-0.0029 3e-6,-0.0056 1.62e-4,-0.0085 0.0035,-0.06423 0.0057,-0.12849 0.0072,-0.19279 0.0016,-0.07194 0.0021,-0.143941 0.0024,-0.215901 3.18e-4,-0.06909 4.19e-4,-0.138176 4.88e-4,-0.207276 0.0014,-0.06035 -5.65e-4,-0.120557 -0.0037,-0.180827 -9e-5,-0.05144 -0.0087,-0.102007 -0.01676,-0.152587 -0.01009,-0.05841 -0.01404,-0.117559 -0.02254,-0.176189 -0.0011,-0.0073 -0.0022,-0.01467 -0.0033,-0.02197 -0.0037,-0.02392 -0.0073,-0.04778 -0.01042,-0.07178 -0.0026,-0.02051 -9.67e-4,-0.027 -0.0028,-0.0188 -0.01015,-0.03888 -0.0169,-0.07854 -0.0223,-0.118327 -0.0033,-0.03341 -0.0064,-0.06674 -0.01017,-0.100098 -0.0049,-0.03751 -0.0099,-0.07495 -0.01424,-0.112549 -0.0075,-0.06035 -0.01159,-0.121083 -0.01449,-0.181803 -0.0021,-0.02765 -7.19e-4,-0.05544 -0.0027,-0.08309 -6e-4,-0.0096 -0.0044,-0.02294 -0.0058,-0.03214 -0.0066,-0.03725 -0.0093,-0.07504 -0.01074,-0.112793 l -3.26e-4,-0.0098 c -0.0011,-0.03974 1.62e-4,-0.07673 0.005,-0.111003 z m -3.701578,0.0647 c -1.059547,0.01681 -2.124043,0.03383 -3.098064,0.05298 0.01243,0.04859 0.01944,0.104088 0.01945,0.166504 v 0.0057 c 4e-6,0.01515 6.6e-5,0.03026 8.2e-5,0.04541 2e-5,0.01518 4.7e-5,0.03039 1.62e-4,0.04557 1.48e-4,0.01808 4.06e-4,0.03612 8.96e-4,0.0542 6e-4,0.02024 0.0017,0.04054 0.0035,0.06071 0.0021,0.02356 0.0065,0.04679 0.0094,0.07023 -8.9e-5,-6.12e-4 -2.17e-4,-9.47e-4 -6.51e-4,-0.0011 -3.2e-5,7.81e-4 0.0026,0.01239 0.0028,0.01302 0.004,0.01677 0.0087,0.03331 0.01253,0.05013 0.0048,0.03059 0.0088,0.06095 0.01237,0.09164 0.0053,0.03571 0.0099,0.07149 0.01327,0.107421 0.0043,0.03655 0.0081,0.07317 0.01286,0.10962 0.0063,0.03762 0.01398,0.07499 0.02149,0.112386 0.0054,0.03268 0.0096,0.06549 0.0153,0.09814 0.0054,0.03649 0.01059,0.07318 0.01269,0.110026 0.0014,0.0245 0.0045,0.04877 0.0072,0.07316 0.0017,0.03344 0.0025,0.06684 0.002,0.100342 v 0.06478 0.06584 0.06673 0.07869 0.05436 c -10e-7,0.01975 2e-6,0.03949 0,0.05924 -3e-6,0.03104 1.2e-5,0.06206 0,0.0931 -1.6e-5,0.04124 -1.09e-4,0.08246 -1.63e-4,0.123698 -7.3e-5,0.05656 -3.5e-5,0.113139 -1.62e-4,0.169678 v 1.63e-4 c -3.54e-4,0.153335 -0.04297,0.264482 -0.104493,0.334228 0.983818,-0.05072 2.06198,-0.113283 3.173828,-0.183024 -0.01532,-0.05254 -0.02409,-0.11366 -0.02409,-0.183512 V 13.338738 13.183627 13.07116 12.96325 12.831414 c -9.1e-4,-0.07048 0.0081,-0.140614 0.01449,-0.210694 0.0041,-0.04301 0.0057,-0.08621 0.0068,-0.129394 0.0012,-0.05697 0.0013,-0.11399 0.0015,-0.17098 0.0015,-0.05302 -0.0045,-0.105727 -0.009,-0.158447 -0.0025,-0.02714 -0.0062,-0.05417 -0.01033,-0.08114 -0.06352,-0.251935 -0.06352,-0.251889 -0.09977,-0.626709 0.0014,-0.0064 0.0028,-0.01273 0.0042,-0.01913 z m -3.630941,0.06421 c -1.562904,0.03343 -2.8322587,0.07352 -3.3365888,0.129557 -1.8000392,0.200627 -2.6004481,1.200172 -3.6004232,2.400147 -0.9999751,1.199975 -0.7999674,2.799967 -0.7999674,2.799967 0,0 -0.1999701,3.000042 1,4.600017 1.1999701,1.59995 2.0000059,2.200016 4.1999512,2.600016 1.1496712,0.209036 1.9721092,0.199471 2.9801432,0.114258 0.0013,-0.01635 0.0028,-0.03271 0.0057,-0.04883 0.0035,-0.02626 0.0041,-0.05296 0.0092,-0.07902 2.54e-4,-0.0045 5.64e-4,-0.0089 8.95e-4,-0.01343 -2.06e-4,-5.73e-4 -3.72e-4,-10e-4 -5.7e-4,-0.0016 -0.01566,-0.04707 -0.02813,-0.09514 -0.03003,-0.145019 -0.0014,-0.0201 -0.0036,-0.04022 -0.0072,-0.06006 -0.0075,-0.04737 -0.01348,-0.09488 -0.01978,-0.142415 -0.0081,-0.05702 -0.01766,-0.114288 -0.01693,-0.172038 V 23.335392 23.200626 23.051619 22.854191 22.5941 22.356713 22.119409 21.896101 21.681827 c 0,-0.07719 0.01095,-0.143414 0.02938,-0.199463 -0.458542,0.03911 -0.915148,0.07837 -1.367106,0.117676 L 10.600016,14 c 0.48223,-0.01851 1.014236,-0.0425 1.582357,-0.0708 -0.07063,-0.06806 -0.120911,-0.185474 -0.120524,-0.353109 1.27e-4,-0.05639 2.52e-4,-0.112799 3.25e-4,-0.169189 5.4e-5,-0.04107 -1.7e-5,-0.08214 0,-0.12321 1.2e-5,-0.03098 7.9e-5,-0.06196 8.2e-5,-0.09294 2e-6,-0.01973 0,-0.03943 0,-0.05916 v -0.05428 -0.07878 -0.06665 -0.06592 -0.0647 c -0.0011,-0.02179 0.0014,-0.04383 0,-0.06559 -1.3e-5,-2.01e-4 -7.1e-5,-2.21e-4 -8.2e-5,-3.25e-4 -5.4e-5,0.0015 3.2e-5,0.0074 0,0.0097 -0.0039,-0.02724 -0.0058,-0.05473 -0.0076,-0.08219 -0.0012,-0.01852 -0.0037,-0.03813 -0.0072,-0.05835 -0.0017,0.0086 -0.01202,-0.103077 -0.01221,-0.07975 -0.0081,-0.03991 -0.01577,-0.07994 -0.02287,-0.120036 -0.0073,-0.04692 -0.01184,-0.09427 -0.01733,-0.141439 -0.0028,-0.03028 -0.0068,-0.06027 -0.01115,-0.09033 -0.0031,-0.01988 -0.0054,-0.03995 -0.0072,-0.05998 -0.0081,-0.02884 -0.01384,-0.05832 -0.0188,-0.08781 -0.0047,-0.03328 -0.0097,-0.06634 -0.01343,-0.09977 -0.0034,-0.03381 -0.0052,-0.06785 -0.0063,-0.101806 -6.97e-4,-0.02256 -4.1e-4,-0.04515 -0.0011,-0.06771 -1.28e-4,-0.01652 -1.4e-4,-0.03304 -1.62e-4,-0.04956 -1.7e-5,-0.01534 -7.8e-5,-0.03063 -8.2e-5,-0.04598 v -0.0059 c -1.2e-5,-0.05762 0.0059,-0.109357 0.0166,-0.155192 z m -3.9367678,2.129719 h 1.6000163 v 1.600017 H 8.0165202 Z M 6.4165039,16.02889 h 3.2000326 v 3.200033 H 6.4165039 Z m 39.1143391,2.341471 c -1.04428,0.420281 -2.116029,0.825826 -3.216064,1.171957 0.137365,0.0092 0.270263,0.149531 0.270263,0.421793 v 0.283854 0.469157 0.578695 0.569255 c -9e-4,0.151835 0.0025,0.303782 -0.0024,0.455566 -8.74e-4,0.01296 -0.0017,0.02593 -0.0024,0.0389 0.680254,-0.326167 1.896103,-0.913969 3.12443,-1.530762 v -0.168457 c -2e-6,-0.06444 -7.1e-5,-0.128838 -8.1e-5,-0.193278 -1.2e-5,-0.06191 -1.1e-5,-0.1238 -8.2e-5,-0.18571 -9.8e-5,-0.07875 -2.57e-4,-0.157496 -6.51e-4,-0.236246 -6e-4,-0.109756 -0.0013,-0.219532 -0.0037,-0.329265 -0.0026,-0.105868 -0.0062,-0.211837 -0.01733,-0.31722 -0.0119,-0.113191 -0.03241,-0.224847 -0.04769,-0.337565 -0.01741,-0.132175 -0.03982,-0.263541 -0.05973,-0.395345 -0.01429,-0.09856 -0.02833,-0.197098 -0.0446,-0.295329 z m -3.368652,1.219483 c -0.77341,0.238851 -1.560648,0.447571 -2.362224,0.610189 -2.734262,0.554708 -4.665532,0.38438 -7.399983,0.599934 -1.469804,0.09521 -3.060875,0.01611 -4.716634,-0.07178 0.04252,0.06932 0.06974,0.165549 0.06974,0.288737 v 0.327962 0.279541 0.237468 0.279215 0.284017 0.241455 c 5.87e-4,0.0825 -0.0012,0.164998 9.77e-4,0.247477 0.001,0.07136 0.0052,0.142314 0.01449,0.213054 0.01083,0.07131 0.02182,0.142564 0.02962,0.214274 0.0049,0.05319 0.01191,0.106178 0.01701,0.159342 0.0018,0.01984 0.0032,0.03969 0.0046,0.05957 0.0012,0.01754 0.0019,0.03459 0.002,0.05111 0.254844,0.01065 0.517886,0.01733 0.794434,0.01733 0.688586,0 1.504428,0.03948 2.391357,0.08105 -0.0039,-0.04921 -0.0086,-0.09833 -0.01497,-0.147298 -0.0056,-0.04366 -0.01389,-0.08694 -0.02189,-0.130208 -0.0118,-0.07015 -0.0209,-0.140937 -0.0236,-0.212077 -0.0028,-0.07837 -0.0024,-0.156809 -0.005,-0.235189 -0.0025,-0.09018 -0.007,-0.180278 -0.0061,-0.270508 8e-4,-0.08383 0.0017,-0.167685 0.005,-0.251465 0.0037,-0.0909 0.0094,-0.181732 0.01489,-0.272542 0.0041,-0.100107 10e-4,-0.200369 0.002,-0.300537 v -0.315999 -0.243734 h 8.2e-5 c 0,-0.281777 0.142276,-0.422689 0.284586,-0.422689 0.142316,0 0.284668,0.140912 0.284668,0.422689 v 0.243734 0.315999 c -3e-4,0.107129 0.0014,0.214307 -0.0022,0.32137 -0.0051,0.09161 -0.01141,0.18306 -0.01514,0.27474 -0.0029,0.07785 -0.0039,0.155824 -0.0046,0.233724 -6e-4,0.08322 0.0036,0.166413 0.0059,0.249593 0.003,0.0764 0.0019,0.152868 0.005,0.229248 0.0023,0.04567 0.0072,0.0914 0.01554,0.136393 0.0097,0.05 0.01805,0.100358 0.02515,0.150798 0.0083,0.06344 0.01437,0.127071 0.01937,0.190836 0.0015,0.01981 0.0028,0.03965 0.0039,0.05949 1.022315,0.04547 2.134574,0.08413 3.286214,0.06551 -0.0082,-0.04636 -0.01499,-0.09294 -0.01758,-0.140055 -0.0053,-0.06789 -0.0091,-0.13598 -0.0188,-0.20345 -0.01,-0.08478 -0.01738,-0.169833 -0.02458,-0.254883 -0.0061,-0.08848 -0.0073,-0.177197 -0.01318,-0.265707 -0.0064,-0.103704 -0.01416,-0.20744 -0.01286,-0.311442 -2e-4,-0.0845 -6.54e-4,-0.168999 -0.0015,-0.253499 -0.0014,-0.103377 -0.0032,-0.206712 -0.0061,-0.310059 -0.0028,-0.110392 -0.0052,-0.220865 -0.0028,-0.331298 9e-4,-0.09204 0.0021,-0.184032 0.0046,-0.276042 h -8.1e-5 c 0.0076,-0.277273 0.149263,-0.414388 0.289388,-0.414958 0.14457,-5.88e-4 0.287494,0.144198 0.279704,0.430257 -0.0024,0.08879 -0.0034,0.177538 -0.0043,0.266358 -0.0024,0.103659 -5.3e-5,0.207336 0.0028,0.310954 0.0029,0.10582 0.0049,0.211679 0.0063,0.317545 0.0011,0.08644 0.0013,0.172909 0.0015,0.259359 -0.0012,0.09283 0.0061,0.185425 0.0118,0.277995 0.007,0.08618 0.0059,0.172816 0.01278,0.258951 0.0067,0.07666 0.01294,0.153317 0.02205,0.229737 0.01059,0.07501 0.01526,0.150699 0.02116,0.226155 0.0029,0.05599 0.01516,0.110761 0.02547,0.165691 2.67e-4,0.0014 5.51e-4,0.0027 8.13e-4,0.0041 0.716634,-0.02404 1.445056,-0.07298 2.173584,-0.158692 0.335044,-0.03942 0.645935,-0.08092 0.93571,-0.123453 -6.2e-5,-0.03682 -1.46e-4,-0.07361 -4.88e-4,-0.110433 -5e-4,-0.04572 -0.0011,-0.09144 -0.0028,-0.137126 -0.002,-0.04781 -0.005,-0.09564 -0.01302,-0.142904 -0.01463,-0.09876 -0.03248,-0.196987 -0.04761,-0.295654 -0.02358,-0.145457 -0.05141,-0.290348 -0.06486,-0.437256 -0.01437,-0.152737 -0.02298,-0.305996 -0.02588,-0.459391 -0.0023,-0.149711 -4.74e-4,-0.299481 -2.44e-4,-0.449219 7e-4,-0.139254 0.0012,-0.278571 0.0037,-0.417806 0.005,-0.277329 0.145394,-0.415212 0.285481,-0.416504 0.144539,-0.0013 0.28877,0.142752 0.283692,0.428874 -0.0025,0.136063 -0.0029,0.272121 -0.0036,0.408203 -1.2e-5,0.145645 -0.0025,0.291368 0,0.437012 0.003,0.138469 0.01002,0.276849 0.02336,0.414713 0.01275,0.13435 0.03831,0.267002 0.05998,0.400066 0.01563,0.10125 0.03377,0.202055 0.04883,0.303385 0.01093,0.06677 0.01564,0.134232 0.01864,0.201742 0.0021,0.05195 0.0029,0.103944 0.0034,0.155924 8.4e-5,0.0089 1.89e-4,0.01791 2.44e-4,0.02686 2.118271,-0.356728 2.834774,-0.752593 2.885254,-0.781575 -0.0015,-0.111154 -3.66e-4,-0.222338 0.0072,-0.333333 0.0054,-0.145186 4.71e-4,-0.290627 0.0022,-0.435873 v -0.569173 -0.578695 -0.469157 -0.283854 h 8.2e-5 c 0,-0.186871 0.06274,-0.31132 0.146403,-0.374267 z m -17.362224,1.010172 c -0.273132,0.01301 -0.549776,0.02686 -0.829345,0.0415 0.05994,0.07008 0.101074,0.180249 0.101074,0.33138 v 0.189047 c -0.0012,0.06606 4.93e-4,0.132018 0.0037,0.197998 0.0042,0.07935 0.005,0.158841 0.0059,0.238281 0.0019,0.106153 -7.13e-4,0.212348 0.0035,0.318441 0.0045,0.101886 0.01476,0.203411 0.0271,0.304606 0.01,0.07263 0.01632,0.145719 0.02808,0.218099 0.01337,0.07576 0.0227,0.152194 0.03288,0.228434 0.01276,0.08197 0.02017,0.164576 0.03068,0.246826 0.0134,0.08683 0.01952,0.174503 0.02702,0.261963 0.0063,0.06426 0.01121,0.128574 0.01481,0.193034 5.7e-5,0.002 2.6e-4,0.004 3.26e-4,0.0059 1.067428,0.01921 1.980141,0.136879 3.00472,0.204834 -6.32e-4,-0.0089 -0.0013,-0.01777 -0.0021,-0.02661 -0.0046,-0.05057 -0.01163,-0.100858 -0.01603,-0.151448 -0.0072,-0.06798 -0.01872,-0.135317 -0.02832,-0.202962 -0.01137,-0.09021 -0.01766,-0.180708 -0.01896,-0.271648 -0.0019,-0.08705 -5.02e-4,-0.17416 -0.0011,-0.26123 V 22.42513 22.141113 21.861816 21.62443 21.344889 21.016927 c 0,-0.13691 0.03377,-0.240254 0.08464,-0.310628 -0.811158,-0.04294 -1.634944,-0.08481 -2.468506,-0.106283 z m -1.212727,0.06201 c -1.075756,0.0585 -2.194775,0.128435 -3.336589,0.206136 0.03461,0.05952 0.06006,0.137119 0.07039,0.233887 0.0075,0.07018 0.01714,0.139979 0.02686,0.209879 0.0099,0.06882 0.01655,0.138059 0.02075,0.207438 0.0035,0.06294 0.0081,0.125751 0.01107,0.188721 0.0031,0.0677 0.0042,0.135447 0.005,0.203207 6.22e-4,0.05765 9.58e-4,0.115354 0.0011,0.173014 1.43e-4,0.06667 1.42e-4,0.133281 1.62e-4,0.199951 4e-4,0.07606 -0.0041,0.152109 -0.0066,0.228109 -0.001,0.07038 -0.0042,0.140586 -0.0081,0.210856 -0.0042,0.07017 -0.0052,0.140505 -0.0063,0.210775 -0.0011,0.07078 -0.0015,0.141531 -0.0017,0.212321 -1.93e-4,0.058 -2.79e-4,0.115991 -3.25e-4,0.17399 -2.9e-5,0.03862 7e-6,0.07726 0,0.115886 -5e-6,0.02573 0,0.05149 0,0.07723 v 0.07039 0.0068 c 0.675365,-0.04015 1.354255,-0.08696 2.253092,-0.161865 0.375302,-0.03128 0.726207,-0.04779 1.059489,-0.05355 -0.0031,-0.05016 -0.0073,-0.100303 -0.01213,-0.150309 -0.0068,-0.07994 -0.01214,-0.16 -0.02458,-0.23934 -0.01002,-0.08081 -0.01781,-0.161911 -0.03019,-0.242431 -0.0096,-0.0717 -0.01819,-0.143604 -0.03084,-0.214844 -0.01232,-0.07921 -0.02063,-0.158863 -0.03084,-0.238363 -0.01419,-0.117099 -0.02604,-0.234559 -0.03092,-0.352457 -0.0039,-0.110976 -0.0026,-0.22198 -0.0039,-0.333008 -8e-4,-0.07312 -0.0016,-0.146282 -0.0055,-0.21932 -0.0033,-0.07437 -0.0053,-0.148766 -0.0042,-0.223226 V 20.9729 c 0,-0.137053 0.03384,-0.240472 0.0848,-0.310872 z m -3.798829,0.237712 c -1.074267,0.0747 -2.167487,0.156306 -3.264322,0.241943 0.07714,0.06576 0.133382,0.187115 0.133382,0.364258 v 0.20695 c -3e-4,0.07219 -0.0013,0.144378 0.0055,0.216308 0.01289,0.103445 0.02206,0.207281 0.0328,0.310954 0.01061,0.102944 0.02121,0.20586 0.03564,0.30835 0.0132,0.08547 0.02603,0.170877 0.03483,0.256917 0.0055,0.07023 0.01046,0.140505 0.01546,0.210775 0.0049,0.07021 0.007,0.140587 0.0085,0.210937 0.0013,0.06564 0.0017,0.13129 0.002,0.19694 2.25e-4,0.05621 2.83e-4,0.11241 3.26e-4,0.16862 3.4e-5,0.05067 7.4e-5,0.101348 8.1e-5,0.152018 v 0.03971 c 1.311288,-0.07416 2.193912,-0.11677 3.00114,-0.161052 v -0.03955 -0.07039 c 10e-7,-0.02577 -4e-6,-0.05154 0,-0.07731 8e-6,-0.03874 5.2e-5,-0.07747 8.1e-5,-0.116211 4.6e-5,-0.05854 5e-5,-0.117079 2.44e-4,-0.175619 2e-4,-0.07317 2.8e-5,-0.146394 0.0015,-0.219564 0.0013,-0.07764 0.0027,-0.155327 0.0073,-0.232828 0.0037,-0.06623 0.0069,-0.132391 0.0076,-0.198731 0.0024,-0.06956 0.0064,-0.13913 0.0063,-0.20874 -2e-5,-0.06623 -2.2e-5,-0.132419 -1.63e-4,-0.198649 -1.46e-4,-0.05592 -3.77e-4,-0.111886 -9.76e-4,-0.167806 -7e-4,-0.06121 -0.0019,-0.122434 -0.0046,-0.183594 -0.0028,-0.06052 -0.0075,-0.120925 -0.01066,-0.181396 -0.0031,-0.05455 -0.0087,-0.108905 -0.01636,-0.163005 -0.0097,-0.06994 -0.01944,-0.139849 -0.02694,-0.210042 -0.01219,-0.11375 0.0015,-0.207499 0.03133,-0.280192 z m -3.593099,0.267578 c -1.114228,0.08778 -2.230513,0.179677 -3.333821,0.27303 0.02818,0.06376 0.04549,0.143983 0.04549,0.241455 v 0.214274 0.223226 0.237386 0.237305 0.260091 0.197429 0.149007 0.134847 0.145345 c -4e-5,0.0259 0.0064,0.05878 0.01115,0.09228 0.0059,0.04451 0.01131,0.08903 0.01831,0.133382 0.0059,0.0344 0.0097,0.06906 0.01237,0.103841 0.0084,0.01991 0.01507,0.04054 0.02124,0.0612 0.0085,0.02943 0.01253,0.05979 0.01473,0.09025 0.0026,0.02767 -9.38e-4,0.05533 -0.0046,0.0826 -1.65e-4,0.0012 -3.53e-4,0.0023 -5.69e-4,0.0035 v 8.2e-5 c 3.3e-5,0.0043 -0.0032,0.0367 -0.0033,0.038 -2.05e-4,0.0011 -3.78e-4,0.0022 -5.7e-4,0.0033 0.798004,-0.07898 1.74442,-0.184092 3.040528,-0.260336 0.07579,-0.0045 0.133857,-0.0076 0.207112,-0.01188 10e-7,-0.02406 3e-6,-0.04811 0,-0.07218 -7e-6,-0.05055 3.4e-5,-0.101143 0,-0.151693 -4.3e-5,-0.05554 -1.03e-4,-0.111055 -3.25e-4,-0.166585 -3e-4,-0.06254 -5.13e-4,-0.125052 -0.0019,-0.187582 -0.0012,-0.06091 -0.0029,-0.121837 -0.0072,-0.182617 -0.0045,-0.06466 -0.0095,-0.129279 -0.01408,-0.193929 -0.0077,-0.07867 -0.0206,-0.156693 -0.03214,-0.234863 -0.0153,-0.109381 -0.02688,-0.219075 -0.03809,-0.328939 -0.01099,-0.106969 -0.02084,-0.214036 -0.03377,-0.320801 -0.0071,-0.08816 -0.0091,-0.176442 -0.0077,-0.264892 v -0.20695 c 0,-0.156295 0.04388,-0.269037 0.107177,-0.338623 z m -3.245605,2.649332 c 6.4e-5,2.65e-4 1.06e-4,6.98e-4 1.63e-4,9.77e-4 -2.3e-5,-3.18e-4 -6.1e-5,-6.62e-4 -8.2e-5,-9.77e-4 z m 1.63e-4,0.0013 c 1.29e-4,0.0018 2.86e-4,0.0037 4.07e-4,0.0055 -5.4e-5,-8.63e-4 -6.8e-5,-0.0013 1.62e-4,-8.13e-4 1.59e-4,3.59e-4 2.86e-4,3.21e-4 4.07e-4,0.0015 -2.97e-4,-0.0026 -6.16e-4,-0.0045 -9.76e-4,-0.0062 z"
       sodipodi:nodetypes="sccccccsssccccccscsccccccccccccsscccccccccccccccccccccccsscsccssccccsccccccccccccccsssccccccccscccccccccccscccccccccccccscccccccccccscccccccccsccccccsccsccccccccccsccccccccsscccccccscccccccccccccscscccccccccccccccccccssccccccccsccccccccccccccccccsccccccccccccccccccccccccsscccsccccccccccccccccssssssccscccccccccccccccsccscccccccccccccccccsccccssssscccccsccccccccccccccssccccccccccccccscccccccsssccccccccsccsccccccccccccsccccccccccccssccccccccccccccccccccccscccccccccscscccccccccccccccccscccccccccccscsccccccccccccccccccccccscsssccccccccccccsssccsccccccccccsssccsccccccccsscccssscccccccccccccccsccccccccccccccscsccccssccccccccsccccccsccccs" /><path
       id="rect3175"
       style="display:inline;fill:#e36509;stroke-width:0.314961"
       d="m 48,10.399984 v 3.200032 h 4 V 10.399984 Z M 6.3999837,16 v 3.200033 H 9.6000163 V 16 Z" /><rect
       style="display:inline;fill:#e100e6;fill-opacity:1;stroke-width:0.314961"
       id="rect3177"
       width="1.6000001"
       height="1.6000001"
       x="8.000001"
       y="13.6" /><path
       id="path3718"
       style="display:inline;fill:#0c00e6;fill-opacity:1;stroke-width:0.314961"
       d="m 43.937988,7.8850911 c -1.930592,0.00685 -3.816507,0.1640405 -5.598226,0.458252 -2.817055,1.0097135 -4.432959,1.5869518 -7.320394,2.8702799 -1.060624,0.70987 -2.978267,1.129436 -4.219401,1.586344 C 26.400009,13.000006 15.712489,13.803751 10.600016,14 L 11,21.600016 c 4.599995,-0.400015 9.599972,-0.8 13.799967,-1 2.687969,0.06924 5.292642,0.349418 7.600017,0.199951 2.734454,-0.215555 4.665718,-0.04522 7.399983,-0.599934 2.689928,-0.545713 5.219645,-1.6082 7.600017,-2.600017 L 47,8 C 45.972773,7.9191884 44.949251,7.8815048 43.937988,7.8850911 Z m -2.538004,0.5148926 h 1 L 42.799967,9 v 1.600016 H 43 V 16 18 L 42.799967,18.600016 41.799967,19 41.399984,18.600016 41,16.799967 40.799967,10.600016 41,8.7999674 Z M 45,8.6000163 l 1,0.1999511 0.200033,0.4000652 0.399983,1.3999834 V 14.399984 16 l -0.200032,0.600016 -1,0.600017 L 44.799967,17 44.600016,15.600016 44.399984,10.200033 44.600016,9 Z M 38.600016,8.7999674 39,9.2000326 l 0.200033,1.5999344 0.399983,6.800049 -0.200032,0.05452 v 1.745443 L 39,20 l -0.799967,0.200033 -0.600017,-0.400066 -0.200032,-1.599934 -0.199951,-7 L 37.399984,9 Z M 35,10 35.399984,10.200033 35.600016,12 l 0.199951,6.399984 v 1.800049 l -0.399983,0.399983 h -1 L 34,20.200033 33.799967,18.600016 33.600016,12.799967 v -2.199951 z m -3.600016,1.799967 0.399983,1.400066 L 32.200033,19 32,20 l -0.200033,0.600016 -1,-0.200032 L 30.399984,20.200033 30,18.799967 29.799967,14.200033 c 0,-0.2 0.400066,-2 0.400066,-2 z m -3.600017,1.600017 0.400066,1 L 28.399984,19 28,20.200033 H 27 L 26.600016,20 26.399984,19 26.200033,14.799967 26.399984,13.600016 Z M 11.600016,14.200033 H 13 l 0.399984,1.599934 0.200032,3.400066 -0.200032,1.399983 L 13,21 H 12.200033 L 12,20.799967 11.600016,19.200033 11.399984,16 Z m 11,0 h 1.799968 l 0.200032,1 v 3.599934 L 24.200033,20 H 23 l -0.399984,-1.200033 -0.200032,-3.199951 z m -7.200032,0.199951 h 1.200032 L 17,15.600016 l 0.200033,3.799968 -0.400066,1.200032 h -1.199951 l -0.399983,-1 -0.200033,-4 z m 3.600016,0 h 1.399984 L 20.799967,15.600016 21,19 20.600016,20.200033 h -1.200032 l -0.600017,-1 v -3.400066 z" /><path
       id="path3239"
       style="display:inline;fill:#02e102;fill-opacity:1;stroke-width:0.314961"
       d="m 44.399984,10.200033 0.200032,5.399983 2,-1.200032 V 10.600016 Z M 40.799967,10.600016 41,16.799967 43,16 v -5.399984 z m -1.599934,0.199951 -2,0.400066 0.199951,7 2.200032,-0.600017 z M 35.600016,12 l -2,0.799967 0.199951,5.800049 2,-0.200032 z m -3.800049,1.200033 -2,1 L 30,18.799967 32.200033,19 Z m -3.599934,1.199951 -2,0.399983 L 26.399984,19 h 2 z m -3.600017,0.800049 -2.200032,0.399983 0.200032,3.199951 h 2 z M 15,15.600016 l 0.200033,4 2,-0.200032 L 17,15.600016 Z m 5.799967,0 -2,0.199951 v 3.400066 L 21,19 Z m -7.399983,0.199951 -2,0.200033 0.200032,3.200033 h 2 z" /><path
       id="path3253"
       style="display:inline;fill:#00b2d6;fill-opacity:1;stroke-width:0.314961"
       d="M 41.399984,8.3999837 41,8.7999674 40.799967,10.600016 h 2 V 9 L 42.399984,8.3999837 Z M 45,8.6000163 44.600016,9 44.399984,10.200033 46.600016,10.600016 46.200033,9.2000326 46,8.7999674 Z M 38.600016,8.7999674 37.399984,9 l -0.199951,2.200033 2,-0.400066 L 39,9.2000326 Z M 35,10 33.600016,10.600016 v 2.199951 l 2,-0.799967 -0.200032,-1.799967 z m -3.600016,1.799967 -1.199951,0.400066 c 0,0 -0.400066,1.8 -0.400066,2 l 2,-1 z m -3.600017,1.600017 -1.399983,0.200032 -0.199951,1.199951 2,-0.399983 z M 11.600016,14.200033 11.399984,16 l 2,-0.200033 L 13,14.200033 Z m 11,0 -0.200032,1.399983 2.200032,-0.399983 -0.200032,-1 z M 15.399984,14.399984 15,15.600016 h 2 l -0.399984,-1.200032 z m 3.600016,0 -0.200033,1.399983 2,-0.199951 -0.399983,-1.200032 z m 27.600016,0 -2,1.200032 L 44.799967,17 l 0.600017,0.200033 1,-0.600017 L 46.600016,16 Z M 43,16 41,16.799967 41.399984,18.600016 41.799967,19 l 1,-0.399984 L 43,18 Z m -3.600016,1.600016 -2,0.600017 0.200032,1.599934 0.600017,0.400066 L 39,20 39.399984,19.399984 Z m -3.600017,0.799968 -2,0.200032 L 34,20.200033 l 0.399984,0.399983 h 1 l 0.399983,-0.399983 z M 22.600016,18.799967 23,20 h 1.200033 l 0.399983,-1.200033 z m 7.399984,0 0.399984,1.400066 0.399983,0.199951 1,0.200032 L 32,20 32.200033,19 Z M 21,19 l -2.200033,0.200033 0.600017,1 h 1.200032 z m 5.399984,0 0.200032,1 L 27,20.200033 h 1 L 28.399984,19 Z M 11.600016,19.200033 12,20.799967 12.200033,21 H 13 l 0.399984,-0.399984 0.200032,-1.399983 z m 5.600017,0.199951 -2,0.200032 0.399983,1 h 1.199951 z" /></g></svg>
