<?xml version="1.0" encoding="UTF-8" standalone="no"?>
<!-- Created with Inkscape (http://www.inkscape.org/) -->

<svg
   width="14in"
   height="8.5in"
   viewBox="0 0 56 34"
   version="1.1"
   id="svg658"
   xml:space="preserve"
   inkscape:version="1.2.2 (b0a8486541, 2022-12-01)"
   sodipodi:docname="Regions_Heel_2.svg"
   xmlns:inkscape="http://www.inkscape.org/namespaces/inkscape"
   xmlns:sodipodi="http://sodipodi.sourceforge.net/DTD/sodipodi-0.dtd"
   xmlns="http://www.w3.org/2000/svg"
   xmlns:svg="http://www.w3.org/2000/svg"><sodipodi:namedview
     id="namedview660"
     pagecolor="#ffffff"
     bordercolor="#000000"
     borderopacity="0.25"
     inkscape:showpageshadow="2"
     inkscape:pageopacity="0.0"
     inkscape:pagecheckerboard="0"
     inkscape:deskcolor="#d1d1d1"
     inkscape:document-units="in"
     showgrid="true"
     inkscape:zoom="1.2938725"
     inkscape:cx="433.1957"
     inkscape:cy="686.69826"
     inkscape:window-width="3800"
     inkscape:window-height="2120"
     inkscape:window-x="40"
     inkscape:window-y="0"
     inkscape:window-maximized="1"
     inkscape:current-layer="svg658"><inkscape:grid
       type="xygrid"
       id="grid779"
       units="in"
       spacingx="0.2"
       originx="0"
       originy="0"
       spacingy="0.2" /></sodipodi:namedview><defs
     id="defs655" /><path
     style="fill:#aeda00;fill-opacity:1;stroke-width:0.314961"
     d="m 27.600002,16.400001 c 0,0 0.4,-2.4 1.2,-3.6 0.8,-1.2 2.2,-2.6 3.200001,-2.8 1,-0.2000002 2.2,-0.2000002 4.2,-0.2000002 2,0 4,0.4000002 6.8,1.0000002 2.800001,0.6 8.200001,1.8 8.600001,2.4 0.4,0.6 0.2,0.6 0,1 -0.2,0.4 -2.6,2.2 -4.2,3.2 -1.6,1 -5.400001,3.200001 -7.400001,4.000001 -2,0.8 -5.2,2.4 -6.8,2.6 -1.6,0.2 -2.800001,0.4 -3.600001,0 -0.8,-0.4 -1.6,-1.2 -2,-2.6 -0.4,-1.4 0,-5.000001 0,-5.000001 z"
     id="path4338" /><path
     id="rect4561"
     style="fill:#ff3c07;fill-opacity:1;stroke-width:0.314961"
     d="M 0 0 L 0 34 L 56 34 L 56 0 L 0 0 z M 33.799967 8.3999837 C 34.399967 8.3999837 37.600019 8.4000169 38.600016 8.6000163 C 39.600013 8.8000157 49.79997 10.999984 50.799967 11.399984 C 51.799964 11.799981 52.59997 12.400003 52.799967 13 C 52.999967 13.599997 53.000016 14.19997 52.600016 14.799967 C 52.200019 15.399967 45.399981 19.600033 44.399984 20.200033 C 43.399986 20.80003 37.999975 23.799984 35.399984 24.399984 C 32.79999 24.999981 30.799994 25.2 29 25 C 27.200006 24.8 26.000016 23.999967 25.600016 23.799967 C 25.200019 23.59997 25.399984 19.200033 25.399984 19.200033 L 25.399984 14.399984 C 25.399984 14.399984 25.400016 14.199967 25.600016 13.799967 C 25.800016 13.39997 27 12.200033 27 12.200033 C 28.599994 10.600036 28.799984 10.4 29.399984 10 C 29.999981 9.600001 33.19997 8.3999837 33.799967 8.3999837 z M 30.004964 11.332357 C 29.969887 11.367714 29.935059 11.403418 29.900391 11.439453 C 29.935059 11.403418 29.969969 11.367714 30.005046 11.332357 L 30.004964 11.332357 z M 9.205485 13.911214 C 10.252535 13.913906 11.200033 14 11.200033 14 C 11.200033 14 10.799967 16.600002 10.799967 18 C 10.799967 19.399999 11.000033 20.800002 11.200033 22 C 11.400031 23.199998 12 24.799967 12 24.799967 C 12 24.799967 9.2000306 25 8.2000326 25 C 7.2000345 25 5.1999821 24.600031 4.3999837 24.200033 C 3.5999852 23.800033 2.7999829 22.799998 2.3999837 22 C 1.9999845 21.200002 1.7999674 20.200031 1.7999674 19.200033 C 1.7999674 18.200034 1.9999845 17.200016 2.3999837 16.600016 C 2.7999829 16.000018 2.9999863 15.599967 4.3999837 14.799967 C 5.799981 13.999969 6.200019 14.2 7.6000163 14 C 8.0812653 13.93125 8.6570303 13.909804 9.205485 13.911214 z " /><path
     style="fill:#07d4ff;fill-opacity:1;stroke-width:0.314961"
     d="m 12.000001,24.800002 c 0,0 -0.6,-1.6 -0.8,-2.8 -0.2,-1.2 -0.4,-2.6 -0.4,-4.000001 0,-1.4 0.4,-4 0.4,-4 0,0 -2.2000003,-0.2 -3.6000004,0 -1.4000001,0.2 -1.8000001,0 -3.2000002,0.8 -1.4000002,0.8 -1.6000002,1.2 -2.0000002,1.8 -0.4,0.6 -0.6000001,1.6 -0.6000001,2.600001 0,1 0.2000001,2 0.6000001,2.8 0.4,0.8 1.2000001,1.8 2.0000002,2.2 0.8,0.4 2.8000002,0.8 3.8000003,0.8 1,0 3.8000003,-0.2 3.8000003,-0.2 z"
     id="path4336" /><path
     id="path4450"
     style="fill:#00da42;fill-opacity:1;stroke-width:0.314961"
     d="M 33.799967 8.3999837 C 33.199968 8.3999837 29.999983 9.6000002 29.399984 10 C 28.799984 10.4 28.599998 10.600034 27 12.200033 C 27 12.200033 25.800016 13.399968 25.600016 13.799967 C 25.400016 14.199967 25.399984 14.399984 25.399984 14.399984 L 25.399984 19.200033 C 25.399984 19.200033 25.200017 23.599968 25.600016 23.799967 C 26.000016 23.999967 27.200002 24.8 29 25 C 30.799998 25.2 32.799986 24.999983 35.399984 24.399984 C 37.999981 23.799984 43.399984 20.800032 44.399984 20.200033 C 45.399983 19.600033 52.200017 15.399967 52.600016 14.799967 C 53.000016 14.199968 52.999967 13.599999 52.799967 13 C 52.599968 12.400001 51.799966 11.799983 50.799967 11.399984 C 49.799968 10.999984 39.600015 8.8000161 38.600016 8.6000163 C 37.600017 8.4000165 34.399967 8.3999837 33.799967 8.3999837 z M 36.200033 9.7999674 C 38.200031 9.7999674 40.200003 10.199968 43 10.799967 C 45.799998 11.399967 51.200017 12.600033 51.600016 13.200033 C 52.000016 13.800032 51.800016 13.800033 51.600016 14.200033 C 51.400016 14.600032 48.999982 16.399985 47.399984 17.399984 C 45.799985 18.399983 41.999998 20.599985 40 21.399984 C 38.000002 22.199983 34.800031 23.8 33.200033 24 C 31.600034 24.2 30.400015 24.4 29.600016 24 C 28.800017 23.6 28.000016 22.799982 27.600016 21.399984 C 27.200017 19.999985 27.600016 16.399984 27.600016 16.399984 C 27.600016 16.399984 27.999968 13.999966 28.799967 12.799967 C 29.599967 11.599969 31 10.2 32 10 C 32.999999 9.8 34.200035 9.7999674 36.200033 9.7999674 z " /></svg>
