<?xml version="1.0" encoding="UTF-8" standalone="no"?>
<!-- Created with Inkscape (http://www.inkscape.org/) -->

<svg
   width="14in"
   height="8.5in"
   viewBox="0 0 56 34"
   version="1.1"
   id="svg658"
   xml:space="preserve"
   inkscape:version="1.2.2 (b0a8486541, 2022-12-01)"
   sodipodi:docname="Ex_1_Athletic_Bars.svg"
   xmlns:inkscape="http://www.inkscape.org/namespaces/inkscape"
   xmlns:sodipodi="http://sodipodi.sourceforge.net/DTD/sodipodi-0.dtd"
   xmlns="http://www.w3.org/2000/svg"
   xmlns:svg="http://www.w3.org/2000/svg"><sodipodi:namedview
     id="namedview660"
     pagecolor="#ffffff"
     bordercolor="#000000"
     borderopacity="0.25"
     inkscape:showpageshadow="2"
     inkscape:pageopacity="0.0"
     inkscape:pagecheckerboard="0"
     inkscape:deskcolor="#d1d1d1"
     inkscape:document-units="mm"
     showgrid="true"
     inkscape:zoom="0.64693624"
     inkscape:cx="656.16977"
     inkscape:cy="481.50031"
     inkscape:window-width="1912"
     inkscape:window-height="1030"
     inkscape:window-x="1920"
     inkscape:window-y="1080"
     inkscape:window-maximized="0"
     inkscape:current-layer="layer1"><inkscape:grid
       type="xygrid"
       id="grid779"
       units="in"
       spacingx="0.8"
       originx="0"
       originy="0"
       spacingy="0.8" /></sodipodi:namedview><defs
     id="defs655"><inkscape:path-effect
       effect="fill_between_many"
       method="originald"
       linkedpaths="#path1814,0,1"
       id="path-effect563" /><inkscape:path-effect
       effect="fill_between_many"
       method="originald"
       linkedpaths="#path1814,0,1"
       id="path-effect563-6" /></defs><g
     inkscape:label="Layer 1"
     inkscape:groupmode="layer"
     id="layer1"><path
       id="path5433"
       style="fill:#00ff00;stroke-width:0.4"
       d="m 38.080078,7.1459961 c -1.205391,0.038487 -2.365723,0.3424145 -3.548177,0.5779622 -0.02547,0.012115 -0.05088,0.023725 -0.07634,0.035726 h 0.685303 c 0.200629,0.9184088 1.013791,1.5731312 1.953858,1.5731609 0.940037,-6.83e-5 1.753154,-0.6547821 1.953776,-1.5731609 h 1.115071 1.040365 c 0.200629,0.9184084 1.01379,1.5731307 1.953857,1.5731609 0.940067,-2.97e-5 1.753229,-0.6547521 1.953858,-1.5731609 h 0.605713 C 45.546003,7.7356113 45.374452,7.7139222 45.202799,7.6953125 42.88572,7.1415157 40.454457,7.281509 38.080078,7.1459961 Z m -2.527344,0.6136881 h 3.083903 c -0.191866,0.6931704 -0.822676,1.1731282 -1.54191,1.1731771 -0.719265,-1.16e-5 -1.350119,-0.479977 -1.541993,-1.1731771 z m 11.814698,0.3174642 c 0.303742,0.7575561 1.037335,1.2545419 1.853515,1.2556967 0.353952,-2.319e-4 0.701501,-0.094393 1.007162,-0.2728679 -0.164072,-0.073804 -0.329558,-0.1448036 -0.496175,-0.2132161 -0.164519,0.056275 -0.337111,0.085356 -0.510987,0.0861 C 48.684096,8.9318281 48.183543,8.6616253 47.888102,8.2133789 47.715248,8.1650953 47.541637,8.11984 47.367432,8.0771484 Z M 32.606771,8.5613607 c -0.362166,0.1478352 -0.726007,0.2944361 -1.092692,0.4433594 -0.249533,0.1150261 -0.290043,0.1255859 -0.218994,0.089355 -0.175888,0.071898 -0.352034,0.1442858 -0.529704,0.21875 0.08819,0.012594 0.177117,0.019282 0.266195,0.02002 0.615839,-9.292e-4 1.196911,-0.2855212 1.575195,-0.7714844 z m -1.575277,1.6050623 c -0.940061,7.7e-5 -1.753187,0.654831 -1.953776,1.573242 h -1.040446 v -8.2e-5 h -1.114909 c -0.08122,-0.367548 -0.264513,-0.704715 -0.528808,-0.972737 -1.068473,0.264551 -2.146941,0.469627 -3.196127,0.591471 -0.01995,0.0021 -0.03994,0.0039 -0.05989,0.0059 -0.05324,0.120748 -0.09441,0.246469 -0.122885,0.375325 h -1.115071 v 8.2e-5 h -1.040283 c -0.01536,-0.0699 -0.03445,-0.138931 -0.05721,-0.206787 -0.140459,0.006 -0.280943,0.01161 -0.421468,0.01628 0.0262,0.06204 0.04847,0.125668 0.06665,0.190511 h -3.083903 c 0.01769,-0.06334 0.03927,-0.125519 0.06462,-0.186198 -0.140621,-0.004 -0.28119,-0.0086 -0.421794,-0.01367 -0.02167,0.06563 -0.03993,0.132346 -0.05469,0.19987 h -1.040446 v -8.2e-5 h -1.11499 c -0.0253,-0.11206 -0.0602,-0.221732 -0.104329,-0.327799 -0.984232,-0.07237 -1.966614,-0.165699 -2.945313,-0.273926 -0.20331,-0.0035 -0.409508,-0.0037 -0.617594,-6.51e-4 -0.112401,0.18637 -0.193629,0.389837 -0.240479,0.602376 H 9.7733561 v 8.2e-5 H 8.7329915 c -0.028414,-0.128481 -0.069439,-0.253845 -0.1224772,-0.374268 -0.1359332,0.02417 -0.2714995,0.05033 -0.4064127,0.07894 0.04868,0.09432 0.087855,0.193251 0.1169433,0.295329 H 7.0931803 C 6.4369945,11.952839 5.8107069,12.23244 5.2398275,12.593262 h 3.0812174 c -0.1918742,0.6932 -0.8227276,1.173165 -1.5419922,1.173177 -0.7186554,-1.42e-4 -1.3490446,-0.479424 -1.5413411,-1.171875 -0.1172912,0.07419 -0.2321887,0.15188 -0.3445638,0.233073 0.2807144,0.801343 1.0368163,1.338093 1.8859049,1.338786 0.9400672,-3e-5 1.7532288,-0.654752 1.9538575,-1.573161 h 1.1150716 1.0403642 c 0.200629,0.918409 1.013791,1.573131 1.953858,1.573161 0.940067,-3e-5 1.753228,-0.654753 1.953857,-1.573161 h 1.11499 1.040446 c 0.200622,0.918379 1.013739,1.573093 1.953776,1.573161 0.940067,-3e-5 1.753229,-0.654752 1.953858,-1.573161 h 1.115071 1.040446 c 0.200622,0.918379 1.013739,1.573093 1.953776,1.573161 0.940067,-3e-5 1.753229,-0.654752 1.953858,-1.573161 h 1.11499 1.040446 c 0.200622,0.918379 1.013739,1.573093 1.953776,1.573161 0.940067,-3e-5 1.753229,-0.654752 1.953858,-1.573161 h 1.115071 1.040446 c 0.200622,0.918379 1.013739,1.573093 1.953776,1.573161 0.940067,-3e-5 1.753229,-0.654752 1.953858,-1.573161 h 1.115071 1.040365 c 0.200629,0.918408 1.01379,1.573131 1.953857,1.573161 0.940037,-6.8e-5 1.753154,-0.654782 1.953776,-1.573161 h 1.115072 1.040446 c 0.200629,0.918408 1.01379,1.573131 1.953857,1.573161 0.940037,-6.8e-5 1.753154,-0.654782 1.953776,-1.573161 h 1.115072 1.040365 c 0.12698,0.576787 0.502397,1.06796 1.025634,1.341878 -0.02126,-0.181541 -0.05224,-0.361246 -0.09261,-0.538574 -0.25159,-0.208311 -0.433398,-0.488633 -0.520996,-0.803304 h 0.269449 c -0.157705,-0.39319 -0.360707,-0.768398 -0.601725,-1.118164 -0.03265,0.08625 -0.0593,0.174645 -0.07975,0.264567 h -1.040365 v -8.2e-5 h -1.11499 c -0.200629,-0.918408 -1.013791,-1.57313 -1.953858,-1.57316 -0.940067,3e-5 -1.753228,0.654752 -1.953857,1.57316 h -1.115072 v 8.2e-5 h -1.040283 c -0.200602,-0.918471 -1.013817,-1.573242 -1.953939,-1.573242 -0.940091,3.9e-5 -1.753261,0.654801 -1.953857,1.573242 h -1.040365 v -8.2e-5 h -1.11499 c -0.200636,-0.918438 -1.013842,-1.573168 -1.953939,-1.57316 -0.940036,6.8e-5 -1.753153,0.654782 -1.953776,1.57316 h -1.115071 v 8.2e-5 h -1.040284 c -0.200609,-0.9185 -1.013867,-1.57328 -1.95402,-1.573242 z m 0,0.399983 c 0.719318,-1.5e-5 1.350222,0.479997 1.542074,1.173259 h -3.083985 c 0.191835,-0.693203 0.822653,-1.1732 1.541911,-1.173259 z m 12.126302,0 c 0.719288,2.2e-5 1.350149,0.480027 1.541992,1.173259 h -3.083903 c 0.191835,-0.693203 0.822653,-1.1732 1.541911,-1.173259 z m -25.794352,2.026856 h 3.083822 c -0.191874,0.6932 -0.822728,1.173165 -1.541993,1.173177 -0.719204,-8.5e-5 -1.349971,-0.480036 -1.541829,-1.173177 z m 12.126221,0 h 3.083903 c -0.191882,0.693229 -0.822779,1.173202 -1.542074,1.173177 -0.719204,-8.5e-5 -1.349971,-0.480036 -1.541829,-1.173177 z m 12.126302,0 h 3.083821 c -0.191874,0.6932 -0.822727,1.173165 -1.541992,1.173177 -0.719204,-8.5e-5 -1.349971,-0.480036 -1.541829,-1.173177 z M 6.7790527,15 c -0.9400366,6.8e-5 -1.7531539,0.654782 -1.953776,1.573161 H 3.7102051 v 8.1e-5 H 2.6700033 C 2.6284469,16.38621 2.5602313,16.206121 2.4674479,16.038493 2.3102523,16.484767 2.2072138,16.954096 2.1639811,17.426839 h 0.093913 c -0.028281,0.09886 -0.066026,0.194761 -0.1127116,0.286377 -0.00895,0.223512 -0.0043,0.446852 0.014404,0.667969 0.2545535,-0.265181 0.4311017,-0.595385 0.5102539,-0.954346 h 1.1149902 1.040446 C 5.0258988,18.345218 5.8390161,18.999932 6.7790527,19 c 0.9400672,-3e-5 1.7532288,-0.654752 1.9538575,-1.573161 h 1.1150716 1.0404462 c 0.200622,0.918379 1.013739,1.573093 1.953776,1.573161 0.940067,-3e-5 1.753228,-0.654753 1.953857,-1.573161 h 1.11499 1.040446 c 0.200629,0.918409 1.013791,1.573131 1.953858,1.573161 0.940037,-6.8e-5 1.753154,-0.654782 1.953776,-1.573161 h 1.115071 1.040446 c 0.200629,0.918409 1.013791,1.573131 1.953858,1.573161 0.940037,-6.8e-5 1.753154,-0.654782 1.953776,-1.573161 h 1.11499 1.040446 c 0.200629,0.918409 1.013791,1.573131 1.953858,1.573161 0.940037,-6.8e-5 1.753154,-0.654782 1.953776,-1.573161 h 1.115071 1.040446 C 35.341498,18.345248 36.15466,18.99997 37.094727,19 c 0.940037,-6.8e-5 1.753154,-0.654782 1.953776,-1.573161 h 1.115071 1.040365 c 0.200629,0.918408 1.01379,1.573131 1.953857,1.573161 0.940067,-3e-5 1.753229,-0.654752 1.953858,-1.573161 h 1.11499 1.040446 c 0.200629,0.918408 1.01379,1.573131 1.953857,1.573161 0.940067,-3e-5 1.753229,-0.654752 1.953858,-1.573161 h 1.11499 1.040446 c 0.0054,0.02095 0.01105,0.04181 0.01709,0.06258 0.443281,-0.592168 0.780561,-1.248862 0.941487,-1.993816 0.0175,-0.08446 0.03238,-0.168836 0.04525,-0.253173 -0.51232,0.276357 -0.878816,0.762206 -1.003825,1.330729 h -1.115072 v 8.1e-5 H 51.174886 C 50.974284,15.654771 50.161069,15 49.220947,15 c -0.940091,3.9e-5 -1.753261,0.654801 -1.953857,1.573242 h -1.040446 v -8.1e-5 h -1.11499 C 44.911025,15.654752 44.097863,15.00003 43.157796,15 c -0.940067,3e-5 -1.753228,0.654753 -1.953857,1.573161 h -1.11499 v 8.1e-5 H 39.048665 C 38.848063,15.654772 38.034849,15 37.094727,15 c -0.940092,3.8e-5 -1.753262,0.654801 -1.953858,1.573242 h -1.040446 v -8.1e-5 h -1.11499 C 32.784804,15.654753 31.971643,15.00003 31.031576,15 c -0.940067,3e-5 -1.753229,0.654752 -1.953858,1.573161 h -1.11499 v 8.1e-5 H 26.922445 C 26.721843,15.654771 25.908628,15 24.968506,15 c -0.940092,3.8e-5 -1.753262,0.654801 -1.953858,1.573242 h -1.040446 v -8.1e-5 h -1.11499 C 20.658583,15.654753 19.845422,15.00003 18.905355,15 c -0.940067,3e-5 -1.753229,0.654752 -1.953858,1.573161 h -1.115071 v 8.1e-5 H 14.796224 C 14.595615,15.654742 13.782357,14.999962 12.842204,15 c -0.940061,7.7e-5 -1.753187,0.654831 -1.953776,1.573242 H 9.8479818 v -8.1e-5 H 8.7329915 C 8.5323563,15.654723 7.7191504,14.999992 6.7790527,15 Z m 6.0631513,0.399984 c 0.719287,2.2e-5 1.350148,0.480026 1.541992,1.173258 h -3.083984 c 0.191844,-0.693232 0.822705,-1.173236 1.541992,-1.173258 z m 12.126302,0 c 0.719257,5.9e-5 1.350075,0.480055 1.541911,1.173258 h -3.083903 c 0.191844,-0.693232 0.822705,-1.173236 1.541992,-1.173258 z m 12.126221,0 c 0.719257,5.9e-5 1.350074,0.480056 1.54191,1.173258 h -3.083903 c 0.191844,-0.693232 0.822705,-1.173236 1.541993,-1.173258 z m 12.12622,0 c 0.719257,5.9e-5 1.350075,0.480055 1.541911,1.173258 h -3.083903 c 0.191844,-0.693232 0.822705,-1.173236 1.541992,-1.173258 z m -37.920654,2.026855 h 3.083822 c -0.191866,0.693171 -0.822676,1.173129 -1.541911,1.173177 -0.719235,-4.8e-5 -1.350045,-0.480006 -1.541911,-1.173177 z m 12.126302,0 h 3.083822 c -0.191866,0.693171 -0.822676,1.173129 -1.541911,1.173177 -0.719235,-4.8e-5 -1.350045,-0.480006 -1.541911,-1.173177 z m 12.126221,0 h 3.083821 c -0.191866,0.69317 -0.822676,1.173128 -1.54191,1.173177 -0.719235,-4.8e-5 -1.350045,-0.480006 -1.541911,-1.173177 z m 12.12622,0 h 3.083822 c -0.191866,0.693171 -0.822676,1.173129 -1.541911,1.173177 -0.719235,-4.8e-5 -1.350045,-0.480006 -1.541911,-1.173177 z M 6.7790527,19.833577 c -0.9400919,3.8e-5 -1.753262,0.654802 -1.9538574,1.573243 H 3.7848307 v -8.2e-5 H 3.5742188 c 0.2546287,0.316962 0.5376967,0.600744 0.8439127,0.853679 h 0.4070638 c 0.030154,0.137701 0.074781,0.271829 0.133138,0.400146 0.3369623,0.223534 0.6945594,0.416633 1.0666504,0.58252 C 5.6390998,23.036995 5.354429,22.681892 5.2372233,22.260417 h 3.0838216 c -0.1918742,0.6932 -0.8227276,1.173165 -1.5419922,1.173177 -0.1713509,-8.09e-4 -0.3414595,-0.02914 -0.5038248,-0.0839 0.370436,0.150672 0.7537059,0.275309 1.1438802,0.377441 0.6649454,-0.224524 1.163548,-0.781159 1.3138021,-1.466715 h 1.1150716 1.0403642 c 0.200629,0.918408 1.013791,1.57313 1.953858,1.57316 0.940067,-3e-5 1.753228,-0.654752 1.953857,-1.57316 h 1.11499 1.040446 c 0.192324,0.874475 0.942424,1.514572 1.836263,1.566976 0.138298,-0.0073 0.276552,-0.01332 0.414795,-0.0188 0.819637,-0.122962 1.478511,-0.738722 1.656576,-1.548177 h 1.115071 1.040446 c 0.200623,0.918378 1.01374,1.573092 1.953776,1.57316 0.940067,-3e-5 1.753229,-0.654752 1.953858,-1.57316 h 1.11499 1.040446 c 0.200623,0.918378 1.01374,1.573092 1.953776,1.57316 0.940067,-3e-5 1.753229,-0.654752 1.953858,-1.57316 h 1.115071 1.040446 c 0.200623,0.918378 1.01374,1.573092 1.953776,1.57316 0.940067,-3e-5 1.753229,-0.654752 1.953858,-1.57316 h 1.115071 1.040365 c 0.125636,0.571106 0.494922,1.05862 1.010661,1.334228 0.201243,-0.06743 0.403608,-0.133384 0.606364,-0.198812 -0.581483,-0.12508 -1.045593,-0.562391 -1.204997,-1.135416 h 3.083821 c -0.0675,0.243697 -0.191802,0.467925 -0.362711,0.654297 0.204045,-0.06466 0.407824,-0.130014 0.611328,-0.196045 0.07283,-0.145543 0.127626,-0.299431 0.163167,-0.458252 h 1.115072 0.06714 c 1.247825,-0.452115 2.45401,-0.981898 3.547037,-1.707194 0.165652,-0.121083 0.336563,-0.24528 0.506999,-0.369466 -0.331856,-0.227404 -0.724578,-0.349444 -1.126872,-0.35018 -0.940067,3e-5 -1.753228,0.654753 -1.953857,1.573161 h -1.115072 v 8.2e-5 h -1.040283 c -0.200602,-0.918471 -1.013817,-1.573243 -1.953939,-1.573243 -0.940092,3.9e-5 -1.753262,0.654802 -1.953857,1.573243 h -1.040365 v -8.2e-5 h -1.11499 c -0.200635,-0.918438 -1.013841,-1.573169 -1.953939,-1.573161 -0.940037,6.8e-5 -1.753154,0.654782 -1.953776,1.573161 h -1.115071 v 8.2e-5 h -1.040284 c -0.200608,-0.918501 -1.013867,-1.573281 -1.95402,-1.573243 -0.940061,7.7e-5 -1.753187,0.654832 -1.953776,1.573243 h -1.040446 v -8.2e-5 h -1.114909 c -0.200635,-0.918438 -1.013841,-1.573169 -1.953939,-1.573161 -0.940037,6.8e-5 -1.753154,0.654782 -1.953776,1.573161 h -1.115071 v 8.2e-5 h -1.040283 c -0.200608,-0.918501 -1.013868,-1.573281 -1.954021,-1.573243 -0.940061,7.7e-5 -1.753187,0.654832 -1.953776,1.573243 h -1.040446 v -8.2e-5 h -1.11499 c -0.200629,-0.918408 -1.01379,-1.573131 -1.953857,-1.573161 -0.940067,3e-5 -1.753229,0.654752 -1.953858,1.573161 H 9.7733561 v 8.2e-5 H 8.7329915 C 8.5323896,20.488349 7.7191751,19.833577 6.7790527,19.833577 Z m 0,0.399984 c 0.719318,-1.4e-5 1.350222,0.479998 1.5420736,1.173259 H 5.2371419 c 0.1918354,-0.693203 0.8226532,-1.1732 1.5419108,-1.173259 z m 12.1262203,0 c 0.719318,-1.5e-5 1.350222,0.479997 1.542074,1.173259 h -3.083984 c 0.191835,-0.693203 0.822653,-1.1732 1.54191,-1.173259 z m 12.126221,0 c 0.719318,-1.5e-5 1.350222,0.479997 1.542074,1.173259 h -3.083985 c 0.191835,-0.693203 0.822653,-1.1732 1.541911,-1.173259 z m 12.126302,0 c 0.719318,-1.5e-5 1.350222,0.479997 1.542074,1.173259 h -3.083985 c 0.191835,-0.693203 0.822653,-1.1732 1.541911,-1.173259 z m -25.794352,2.026856 h 3.083822 c -0.191874,0.6932 -0.822728,1.173165 -1.541993,1.173177 -0.719204,-8.5e-5 -1.349971,-0.480036 -1.541829,-1.173177 z m 12.126221,0 h 3.083821 c -0.191874,0.6932 -0.822727,1.173165 -1.541992,1.173177 -0.719204,-8.5e-5 -1.349971,-0.480036 -1.541829,-1.173177 z"
       sodipodi:nodetypes="cccccccccccccccccccccccccccccccccccccccccccccccccccccccccccccccccccccccccccccccccccccccccccccccccccccccccccccccccccccccccccccccccccccccccccccccccccccccccccccccccccccccccccccccccccccccccccccccccccccccccccccccccccccccccccccccccccccccccccccccccccccccccccccccccccccccccccccccccccccccccccccccccccccccccccccccccccccccccccccccccccccccccccccccccccccccccccccccccccccccccccccccccccccc" /></g></svg>
