<?xml version="1.0" encoding="UTF-8" standalone="no"?>
<!-- Created with Inkscape (http://www.inkscape.org/) -->

<svg
   width="14in"
   height="8.5in"
   viewBox="0 0 56 34"
   version="1.1"
   id="svg658"
   xml:space="preserve"
   inkscape:version="1.2.2 (b0a8486541, 2022-12-01)"
   sodipodi:docname="Ex_3_Heel_Lines.svg"
   xmlns:inkscape="http://www.inkscape.org/namespaces/inkscape"
   xmlns:sodipodi="http://sodipodi.sourceforge.net/DTD/sodipodi-0.dtd"
   xmlns="http://www.w3.org/2000/svg"
   xmlns:svg="http://www.w3.org/2000/svg"><sodipodi:namedview
     id="namedview660"
     pagecolor="#ffffff"
     bordercolor="#000000"
     borderopacity="0.25"
     inkscape:showpageshadow="2"
     inkscape:pageopacity="0.0"
     inkscape:pagecheckerboard="0"
     inkscape:deskcolor="#d1d1d1"
     inkscape:document-units="mm"
     showgrid="true"
     inkscape:zoom="0.457453"
     inkscape:cx="451.41249"
     inkscape:cy="674.38622"
     inkscape:window-width="1912"
     inkscape:window-height="1030"
     inkscape:window-x="1920"
     inkscape:window-y="1080"
     inkscape:window-maximized="0"
     inkscape:current-layer="layer1"><inkscape:grid
       type="xygrid"
       id="grid779"
       units="in"
       spacingx="0.8"
       originx="0"
       originy="0"
       spacingy="0.8" /></sodipodi:namedview><defs
     id="defs655"><inkscape:path-effect
       effect="fill_between_many"
       method="originald"
       linkedpaths="#path1814,0,1"
       id="path-effect563" /><inkscape:path-effect
       effect="fill_between_many"
       method="originald"
       linkedpaths="#path1814,0,1"
       id="path-effect563-6" /><inkscape:path-effect
       effect="fill_between_many"
       method="originald"
       linkedpaths="#path1814,0,1"
       id="path-effect563-3" /><inkscape:path-effect
       effect="fill_between_many"
       method="originald"
       linkedpaths="#path1814,0,1"
       id="path-effect563-62" /></defs><g
     inkscape:label="Layer 1"
     inkscape:groupmode="layer"
     id="layer1"><path
       id="path8688"
       style="color:#000000;fill:#00ff00;stroke-width:0.35893;-inkscape-stroke:none"
       d="M 33.799967 8.3999837 C 33.780298 8.3999837 33.757497 8.4013811 33.732422 8.40389 L 33.732422 24.743978 C 33.820333 24.728266 33.908688 24.712144 33.998047 24.695312 L 33.998047 8.4002279 C 33.927933 8.4001486 33.843987 8.3999837 33.799967 8.3999837 z M 34.291016 8.4012044 L 34.291016 24.638428 C 34.378811 24.621016 34.467416 24.60309 34.556641 24.584635 L 34.556641 8.4025065 C 34.4601 8.4018665 34.374175 8.4015352 34.291016 8.4012044 z M 34.849609 8.4051921 L 34.849609 24.522786 C 34.937493 24.503834 35.02594 24.484447 35.115234 24.464518 L 35.115234 8.4082031 C 35.023882 8.4070585 34.935294 8.4060183 34.849609 8.4051921 z M 35.408203 8.4121094 L 35.408203 24.398031 C 35.493786 24.378161 35.582476 24.355514 35.673828 24.330648 L 35.673828 8.4166667 C 35.583576 8.4149056 35.495837 8.413518 35.408203 8.4121094 z M 35.966797 8.4230957 L 35.966797 24.245605 C 36.053441 24.219031 36.141966 24.190763 36.232422 24.160726 L 36.232422 8.4301758 C 36.143473 8.4276832 36.055114 8.4251893 35.966797 8.4230957 z M 36.525391 8.4391276 L 36.525391 24.059977 C 36.612671 24.028961 36.701092 23.996787 36.791016 23.963216 L 36.791016 8.4484863 C 36.703242 8.4450323 36.614294 8.4421072 36.525391 8.4391276 z M 33.439453 8.4580892 C 33.359115 8.4769966 33.269943 8.5002311 33.173828 8.5270182 L 33.173828 24.837728 C 33.261605 24.823982 33.350225 24.809538 33.439453 24.794596 L 33.439453 8.4580892 z M 37.085938 8.4615072 L 37.085938 23.850342 C 37.173416 23.816176 37.262253 23.780563 37.351562 23.744466 L 37.351562 8.4754232 C 37.26432 8.4705284 37.176495 8.465784 37.085938 8.4615072 z M 37.644531 8.4931641 L 37.644531 23.623942 C 37.732471 23.587224 37.820984 23.549759 37.910156 23.511556 L 37.910156 8.5135091 C 37.825024 8.5062924 37.73658 8.4994914 37.644531 8.4931641 z M 38.203125 8.5420736 L 38.203125 23.384603 C 38.291388 23.34583 38.379753 23.306824 38.46875 23.266927 L 38.46875 8.5770671 C 38.389071 8.564494 38.299966 8.5529238 38.203125 8.5420736 z M 32.880859 8.6130371 C 32.795339 8.6392506 32.706946 8.6670509 32.615234 8.6967773 L 32.615234 24.918294 C 32.703095 24.906726 32.791547 24.894606 32.880859 24.881755 L 32.880859 8.6130371 z M 38.761719 8.6333822 L 38.761719 23.134277 C 38.850075 23.093862 38.938697 23.052782 39.027344 23.011556 L 39.027344 8.6888021 C 38.91993 8.6661847 38.835363 8.6486108 38.761719 8.6333822 z M 39.320312 8.7507324 L 39.320312 22.874105 C 39.408945 22.832188 39.497435 22.790085 39.585938 22.74764 L 39.585938 8.8076172 C 39.502471 8.7898106 39.394928 8.7665807 39.320312 8.7507324 z M 32.320312 8.7947591 C 32.234072 8.8240263 32.145338 8.8550331 32.056641 8.8861491 L 32.056641 24.984212 C 32.143862 24.97517 32.231675 24.965556 32.320312 24.95516 L 32.320312 8.7947591 z M 39.878906 8.8705241 L 39.878906 22.606201 C 39.96768 22.563011 40.056317 22.519761 40.144531 22.476318 L 40.144531 8.9275716 C 40.053882 8.9080979 39.963123 8.8885596 39.878906 8.8705241 z M 40.4375 8.9904785 L 40.4375 22.330973 C 40.526654 22.286511 40.615005 22.242177 40.703125 22.197754 L 40.703125 9.047526 C 40.600493 9.0253467 40.534695 9.0114251 40.4375 8.9904785 z M 31.761719 8.9914551 C 31.673049 9.0235873 31.58488 9.0558967 31.496094 9.0889486 L 31.496094 25.033773 C 31.583884 25.02743 31.672525 25.020261 31.761719 25.012451 L 31.761719 8.9914551 z M 40.996094 9.1109212 L 40.996094 22.049235 C 41.085411 22.003696 41.173991 21.958338 41.261719 21.913167 L 41.261719 9.1686198 C 41.172718 9.1492966 41.082162 9.1295681 40.996094 9.1109212 z M 31.203125 9.1993815 C 31.11355 9.2337026 31.024845 9.2681138 30.9375 9.3024902 L 30.9375 25.064616 C 31.025291 25.061332 31.113979 25.057015 31.203125 25.052165 L 31.203125 9.1993815 z M 41.554688 9.2321777 L 41.554688 21.761556 C 41.644203 21.714981 41.733089 21.668604 41.820312 21.622803 L 41.820312 9.2900391 C 41.730483 9.2704508 41.642314 9.2512469 41.554688 9.2321777 z M 42.115234 9.3544922 L 42.115234 21.467204 C 42.205384 21.419389 42.294009 21.372162 42.380859 21.325684 L 42.380859 9.4125977 C 42.290819 9.3928808 42.203638 9.3738118 42.115234 9.3544922 z M 30.644531 9.4198405 C 30.552765 9.4571487 30.464951 9.4936526 30.378906 9.5298665 L 30.378906 25.074951 C 30.466748 25.075045 30.555404 25.074084 30.644531 25.07251 L 30.644531 9.4198405 z M 42.673828 9.4767253 L 42.673828 21.16748 C 42.762376 21.11961 42.855549 21.069694 42.939453 21.023926 L 42.939453 9.5352376 C 42.851572 9.5159116 42.76059 9.495767 42.673828 9.4767253 z M 43.232422 9.5997721 L 43.232422 20.862712 C 43.324092 20.812156 43.414196 20.762551 43.498047 20.71582 L 43.498047 9.6582845 C 43.408331 9.6384678 43.321353 9.6193737 43.232422 9.5997721 z M 30.085938 9.6554362 C 29.990518 9.6976001 29.901725 9.7380692 29.820312 9.7765299 L 29.820312 25.062581 C 29.908265 25.066378 29.996793 25.069265 30.085938 25.071289 L 30.085938 9.6554362 z M 43.791016 9.7230632 L 43.791016 20.551595 C 43.890054 20.49565 43.974855 20.447125 44.056641 20.400146 L 44.056641 9.7820638 C 43.96815 9.7624266 43.879075 9.742561 43.791016 9.7230632 z M 44.349609 9.847168 L 44.349609 20.229655 C 44.364411 20.22086 44.386715 20.207994 44.399984 20.200033 C 44.453262 20.168066 44.530874 20.120977 44.615234 20.069661 L 44.615234 9.9061686 C 44.526319 9.8863377 44.438404 9.8669236 44.349609 9.847168 z M 29.527344 9.924235 C 29.477494 9.9517241 29.434035 9.9772989 29.399984 10 C 29.351391 10.032395 29.30602 10.063372 29.261719 10.093994 L 29.261719 25.025798 C 29.349757 25.033607 29.438234 25.040774 29.527344 25.046712 L 29.527344 9.924235 z M 44.908203 9.9716797 L 44.908203 19.890625 C 44.990501 19.840195 45.078275 19.786179 45.173828 19.727376 L 45.173828 10.031331 C 45.085143 10.011442 44.997077 9.9915578 44.908203 9.9716797 z M 45.466797 10.097005 L 45.466797 19.546956 C 45.549923 19.495608 45.643005 19.437798 45.732422 19.382406 L 45.732422 10.156657 C 45.644615 10.136843 45.555102 10.116872 45.466797 10.097005 z M 46.025391 10.223145 L 46.025391 19.200846 C 46.110176 19.148163 46.20238 19.090536 46.291016 19.035319 L 46.291016 10.283529 C 46.202501 10.263412 46.114764 10.243385 46.025391 10.223145 z M 28.96875 10.309977 C 28.88502 10.376287 28.79896 10.448638 28.703125 10.533936 L 28.703125 24.960612 C 28.790144 24.973852 28.878671 24.985777 28.96875 24.996175 L 28.96875 10.309977 z M 46.583984 10.350098 L 46.583984 18.852702 C 46.670934 18.798379 46.760135 18.742405 46.849609 18.686361 L 46.849609 10.410807 C 46.76189 10.390707 46.672943 10.370399 46.583984 10.350098 z M 47.144531 10.478841 L 47.144531 18.501383 C 47.233089 18.445751 47.320033 18.391164 47.410156 18.334391 L 47.410156 10.54012 C 47.322594 10.519854 47.233818 10.499405 47.144531 10.478841 z M 47.703125 10.607747 L 47.703125 18.149333 C 47.791875 18.09325 47.879235 18.038183 47.96875 17.981445 L 47.96875 10.670166 C 47.878743 10.649074 47.795625 10.629285 47.703125 10.607747 z M 48.261719 10.739176 L 48.261719 17.795085 C 48.350283 17.738752 48.438715 17.682463 48.527344 17.625895 L 48.527344 10.801839 C 48.44272 10.78169 48.349389 10.759884 48.261719 10.739176 z M 28.410156 10.804932 C 28.32951 10.881707 28.24276 10.965502 28.144531 11.061605 L 28.144531 24.853678 C 28.2312 24.873694 28.319767 24.89253 28.410156 24.909993 L 28.410156 10.804932 z M 48.820312 10.871908 L 48.820312 17.438721 C 48.909548 17.38153 48.997327 17.324764 49.085938 17.267741 L 49.085938 10.936117 C 49.000062 10.915208 48.910691 10.893658 48.820312 10.871908 z M 49.378906 11.007812 L 49.378906 17.079264 C 49.469162 17.020895 49.555683 16.964246 49.644531 16.906494 L 49.644531 11.0743 C 49.55863 11.05264 49.4719 11.030818 49.378906 11.007812 z M 49.9375 11.149251 L 49.9375 16.715576 C 50.026534 16.657338 50.116377 16.59878 50.203125 16.541667 L 50.203125 11.219482 C 50.120889 11.197277 50.032551 11.17392 49.9375 11.149251 z M 50.496094 11.301188 L 50.496094 16.347982 C 50.586276 16.288102 50.675184 16.228887 50.761719 16.170898 L 50.761719 11.385661 C 50.697708 11.362266 50.608255 11.333961 50.496094 11.301188 z M 30.004964 11.332357 L 30.005046 11.332357 C 29.969971 11.367713 29.935061 11.403413 29.900391 11.439453 C 29.935054 11.403417 29.969884 11.367717 30.004964 11.332357 z M 27.851562 11.350911 C 27.767893 11.433854 27.682622 11.518442 27.585938 11.614827 L 27.585938 24.70223 C 27.67211 24.729136 27.760677 24.755114 27.851562 24.779948 L 27.851562 11.350911 z M 51.054688 11.508301 L 51.054688 15.973389 C 51.14613 15.911338 51.234801 15.850788 51.320312 15.791911 L 51.320312 11.635498 C 51.234075 11.591578 51.145432 11.54914 51.054688 11.508301 z M 51.613281 11.795898 L 51.613281 15.587891 C 51.707546 15.521546 51.795765 15.458539 51.878906 15.398275 L 51.878906 11.963704 C 51.794486 11.906239 51.705715 11.850265 51.613281 11.795898 z M 27.291016 11.909261 C 27.203443 11.996778 27.123125 12.076907 27.025391 12.174642 L 27.025391 24.503825 C 27.11069 24.537647 27.199354 24.571023 27.291016 24.603678 L 27.291016 11.909261 z M 52.173828 12.184814 L 52.173828 15.179688 C 52.28035 15.098002 52.369213 15.026019 52.439453 14.964518 L 52.439453 12.433675 C 52.360538 12.349163 52.271594 12.266002 52.173828 12.184814 z M 26.732422 12.473633 C 26.652893 12.555879 26.5639 12.64928 26.466797 12.752604 L 26.466797 24.258057 C 26.55096 24.298633 26.638473 24.339634 26.732422 24.381104 L 26.732422 12.473633 z M 52.732422 12.840088 L 52.732422 14.573405 C 52.996826 14.048926 52.974796 13.524484 52.799967 13 C 52.782187 12.946657 52.759407 12.893291 52.732422 12.840088 z M 26.173828 13.070312 C 26.080488 13.174134 25.989687 13.277745 25.908203 13.375326 L 25.908203 23.967936 C 25.986628 24.011261 26.076167 24.059815 26.173828 24.111003 L 26.173828 13.070312 z M 25.615234 13.771973 C 25.609895 13.781516 25.604412 13.791175 25.600016 13.799967 C 25.400016 14.199967 25.399984 14.399984 25.399984 14.399984 L 25.399984 19.200033 C 25.399984 19.200033 25.20002 23.599971 25.600016 23.799967 C 25.604527 23.802223 25.610521 23.805537 25.615234 23.807943 L 25.615234 13.771973 z M 0 13.782633 L -0.15193685 13.93457 L -0.028808594 14.057699 L 0 14.02889 L 0 13.782633 z M 9.1389974 13.911377 C 9.0565724 13.911447 8.9738088 13.912109 8.8907878 13.91333 L 8.8695475 13.93457 L 8.9926758 14.057699 L 9.1389974 13.911377 z M 9.4674479 13.913737 L 8.8695475 14.511719 L 8.9926758 14.634847 L 9.708903 13.918701 C 9.6297391 13.916664 9.549225 13.91498 9.4674479 13.913737 z M 8.5791016 13.920736 C 8.4923065 13.923778 8.4062775 13.927891 8.3208822 13.932617 L 7.741862 14.511719 L 7.8649902 14.634847 L 8.5791016 13.920736 z M 10.003743 13.92806 L 9.9972331 13.93457 L 10.120361 14.057699 L 10.23999 13.93807 C 10.163929 13.93453 10.085346 13.931129 10.003743 13.92806 z M 10.554443 13.954427 L 9.9972331 14.511719 L 10.120361 14.634847 L 10.786377 13.968913 C 10.715607 13.964187 10.639372 13.959356 10.554443 13.954427 z M 7.9645182 13.958171 C 7.9033773 13.963732 7.8429164 13.969735 7.7837728 13.976481 L 7.8649902 14.057699 L 7.9645182 13.958171 z M 11.189453 13.999105 L 11.19873 14.008382 L 11.200033 14 C 11.200033 14 11.18994 13.999149 11.189453 13.999105 z M 7.3378092 14.034342 C 7.2405467 14.046038 7.1495144 14.055715 7.0614421 14.064453 L 6.6141764 14.511719 L 6.7373047 14.634847 L 7.3378092 14.034342 z M 6.0823568 14.162109 C 5.9817005 14.176954 5.8816224 14.195223 5.7797038 14.218424 L 5.4864909 14.511719 L 5.6096191 14.634847 L 6.0823568 14.162109 z M 6.3445638 14.230713 L 5.4864909 15.088786 L 5.6096191 15.211914 L 6.4676921 14.353841 L 6.3445638 14.230713 z M 7.4722493 14.230713 L 6.6141764 15.088786 L 6.7373047 15.211914 L 7.5953776 14.353841 L 7.4722493 14.230713 z M 8.5999349 14.230713 L 7.741862 15.088786 L 7.8649902 15.211914 L 8.7230632 14.353841 L 8.5999349 14.230713 z M 9.7276204 14.230713 L 8.8695475 15.088786 L 8.9926758 15.211914 L 9.8508301 14.353841 L 9.7276204 14.230713 z M 10.855306 14.230713 L 9.9972331 15.088786 L 10.120361 15.211914 L 10.978516 14.353841 L 10.855306 14.230713 z M 5.336263 14.350098 C 5.2074755 14.397151 5.07091 14.454515 4.9226888 14.524902 L 4.3588053 15.088786 L 4.4819336 15.211914 L 5.3400065 14.353841 L 5.336263 14.350098 z M 0 14.359782 L -0.15193685 14.511719 L -0.028808594 14.634847 L 0 14.606038 L 0 14.359782 z M 11.126302 14.510335 L 11.124919 14.511719 L 11.125977 14.512777 C 11.12608 14.512037 11.126199 14.511073 11.126302 14.510335 z M 5.2168783 14.807861 L 4.3588053 15.665934 L 4.4819336 15.789062 L 5.3400065 14.93099 L 5.2168783 14.807861 z M 6.3445638 14.807861 L 5.4864909 15.665934 L 5.6096191 15.789062 L 6.4676921 14.93099 L 6.3445638 14.807861 z M 7.4722493 14.807861 L 6.6141764 15.665934 L 6.7373047 15.789062 L 7.5953776 14.93099 L 7.4722493 14.807861 z M 8.5999349 14.807861 L 7.741862 15.665934 L 7.8649902 15.789062 L 8.7230632 14.93099 L 8.5999349 14.807861 z M 9.7276204 14.807861 L 8.8695475 15.665934 L 8.9926758 15.789062 L 9.8508301 14.93099 L 9.7276204 14.807861 z M 10.855306 14.807861 L 9.9972331 15.665934 L 10.120361 15.789062 L 10.978516 14.93099 L 10.855306 14.807861 z M 4.1986491 14.917318 C 3.9575732 15.060377 3.7562013 15.190518 3.585612 15.311442 L 3.2311198 15.665934 L 3.354248 15.789062 L 4.212321 14.93099 L 4.1986491 14.917318 z M 0 14.936849 L -0.15193685 15.088786 L -0.028808594 15.211914 L 0 15.183105 L 0 14.936849 z M 4.0891927 15.384928 L 3.2311198 16.243001 L 3.354248 16.366211 L 4.212321 15.508057 L 4.0891927 15.384928 z M 5.2168783 15.384928 L 4.3588053 16.243001 L 4.4819336 16.366211 L 5.3400065 15.508057 L 5.2168783 15.384928 z M 6.3445638 15.384928 L 5.4864909 16.243001 L 5.6096191 16.366211 L 6.4676921 15.508057 L 6.3445638 15.384928 z M 7.4722493 15.384928 L 6.6141764 16.243001 L 6.7373047 16.366211 L 7.5953776 15.508057 L 7.4722493 15.384928 z M 8.5999349 15.384928 L 7.741862 16.243001 L 7.8649902 16.366211 L 8.7230632 15.508057 L 8.5999349 15.384928 z M 9.7276204 15.384928 L 8.8695475 16.243001 L 8.9926758 16.366211 L 9.8508301 15.508057 L 9.7276204 15.384928 z M 10.855306 15.384928 L 9.9972331 16.243001 L 10.120361 16.366211 L 10.978516 15.508057 L 10.855306 15.384928 z M 0 15.513997 L -0.15193685 15.665934 L -0.028808594 15.789062 L 0 15.760254 L 0 15.513997 z M 2.9615072 15.962077 L 2.5495605 16.374023 C 2.5010443 16.44687 2.4522021 16.521689 2.3999837 16.600016 C 2.3330899 16.700357 2.2719349 16.812098 2.2162272 16.932943 L 2.2265625 16.943278 L 3.0846354 16.085205 L 2.9615072 15.962077 z M 4.0891927 15.962077 L 3.2311198 16.82015 L 3.354248 16.943278 L 4.212321 16.085205 L 4.0891927 15.962077 z M 5.2168783 15.962077 L 4.3588053 16.82015 L 4.4819336 16.943278 L 5.3400065 16.085205 L 5.2168783 15.962077 z M 6.3445638 15.962077 L 5.4864909 16.82015 L 5.6096191 16.943278 L 6.4676921 16.085205 L 6.3445638 15.962077 z M 7.4722493 15.962077 L 6.6141764 16.82015 L 6.7373047 16.943278 L 7.5953776 16.085205 L 7.4722493 15.962077 z M 8.5999349 15.962077 L 7.741862 16.82015 L 7.8649902 16.943278 L 8.7230632 16.085205 L 8.5999349 15.962077 z M 9.7276204 15.962077 L 8.8695475 16.82015 L 8.9926758 16.943278 L 9.8508301 16.085205 L 9.7276204 15.962077 z M 10.855306 15.962077 L 9.9972331 16.82015 L 10.120361 16.943278 L 10.924479 16.139242 C 10.927943 16.106466 10.931529 16.074354 10.935059 16.041748 L 10.855306 15.962077 z M 0 16.091064 L -0.15193685 16.243001 L -0.028808594 16.366211 L 0 16.337402 L 0 16.091064 z M 2.9615072 16.539144 L 2.1034342 17.397298 L 2.2265625 17.520426 L 3.0846354 16.662272 L 2.9615072 16.539144 z M 4.0891927 16.539144 L 3.2311198 17.397298 L 3.354248 17.520426 L 4.212321 16.662272 L 4.0891927 16.539144 z M 5.2168783 16.539144 L 4.3588053 17.397298 L 4.4819336 17.520426 L 5.3400065 16.662272 L 5.2168783 16.539144 z M 6.3445638 16.539144 L 5.4864909 17.397298 L 5.6096191 17.520426 L 6.4676921 16.662272 L 6.3445638 16.539144 z M 7.4722493 16.539144 L 6.6141764 17.397298 L 6.7373047 17.520426 L 7.5953776 16.662272 L 7.4722493 16.539144 z M 8.5999349 16.539144 L 7.741862 17.397298 L 7.8649902 17.520426 L 8.7230632 16.662272 L 8.5999349 16.539144 z M 9.7276204 16.539144 L 8.8695475 17.397298 L 8.9926758 17.520426 L 9.8508301 16.662272 L 9.7276204 16.539144 z M 10.855306 16.539144 L 9.9972331 17.397298 L 10.120361 17.520426 L 10.863037 16.777751 C 10.869025 16.707614 10.875757 16.636836 10.882324 16.566162 L 10.855306 16.539144 z M 0 16.668213 L -0.15193685 16.82015 L -0.028808594 16.943278 L 0 16.914469 L 0 16.668213 z M 2.9615072 17.116292 L 2.1034342 17.974365 L 2.2265625 18.097493 L 3.0846354 17.239421 L 2.9615072 17.116292 z M 4.0891927 17.116292 L 3.2311198 17.974365 L 3.354248 18.097493 L 4.212321 17.239421 L 4.0891927 17.116292 z M 5.2168783 17.116292 L 4.3588053 17.974365 L 4.4819336 18.097493 L 5.3400065 17.239421 L 5.2168783 17.116292 z M 6.3445638 17.116292 L 5.4864909 17.974365 L 5.6096191 18.097493 L 6.4676921 17.239421 L 6.3445638 17.116292 z M 7.4722493 17.116292 L 6.6141764 17.974365 L 6.7373047 18.097493 L 7.5953776 17.239421 L 7.4722493 17.116292 z M 8.5999349 17.116292 L 7.741862 17.974365 L 7.8649902 18.097493 L 8.7230632 17.239421 L 8.5999349 17.116292 z M 9.7276204 17.116292 L 8.8695475 17.974365 L 8.9926758 18.097493 L 9.8508301 17.239421 L 9.7276204 17.116292 z M 10.835205 17.136393 L 9.9972331 17.974365 L 10.120361 18.097493 L 10.818685 17.39917 C 10.823413 17.313285 10.828985 17.225565 10.835205 17.136393 z M 0 17.245361 L -0.15193685 17.397298 L -0.028808594 17.520426 L 0 17.491618 L 0 17.245361 z M 2.9615072 17.693359 L 2.1034342 18.551514 L 2.2265625 18.674642 L 3.0846354 17.816569 L 2.9615072 17.693359 z M 4.0891927 17.693359 L 3.2311198 18.551514 L 3.354248 18.674642 L 4.212321 17.816569 L 4.0891927 17.693359 z M 5.2168783 17.693359 L 4.3588053 18.551514 L 4.4819336 18.674642 L 5.3400065 17.816569 L 5.2168783 17.693359 z M 6.3445638 17.693359 L 5.4864909 18.551514 L 5.6096191 18.674642 L 6.4676921 17.816569 L 6.3445638 17.693359 z M 7.4722493 17.693359 L 6.6141764 18.551514 L 6.7373047 18.674642 L 7.5953776 17.816569 L 7.4722493 17.693359 z M 8.5999349 17.693359 L 7.741862 18.551514 L 7.8649902 18.674642 L 8.7230632 17.816569 L 8.5999349 17.693359 z M 9.7276204 17.693359 L 8.8695475 18.551514 L 8.9926758 18.674642 L 9.8508301 17.816569 L 9.7276204 17.693359 z M 10.803955 17.74471 L 9.9972331 18.551514 L 10.120361 18.674642 L 10.800049 17.995036 C 10.800101 17.915307 10.801471 17.831466 10.803955 17.74471 z M 1.9394531 17.799072 C 1.9363223 17.813803 1.9332011 17.828512 1.9301758 17.843343 L 1.9569499 17.816569 L 1.9394531 17.799072 z M 0 17.822428 L -0.15193685 17.974365 L -0.028808594 18.097493 L 0 18.068685 L 0 17.822428 z M 2.9615072 18.270508 L 2.1034342 19.128581 L 2.2265625 19.251709 L 3.0846354 18.393636 L 2.9615072 18.270508 z M 4.0891927 18.270508 L 3.2311198 19.128581 L 3.354248 19.251709 L 4.212321 18.393636 L 4.0891927 18.270508 z M 5.2168783 18.270508 L 4.3588053 19.128581 L 4.4819336 19.251709 L 5.3400065 18.393636 L 5.2168783 18.270508 z M 6.3445638 18.270508 L 5.4864909 19.128581 L 5.6096191 19.251709 L 6.4676921 18.393636 L 6.3445638 18.270508 z M 7.4722493 18.270508 L 6.6141764 19.128581 L 6.7373047 19.251709 L 7.5953776 18.393636 L 7.4722493 18.270508 z M 8.5999349 18.270508 L 7.741862 19.128581 L 7.8649902 19.251709 L 8.7230632 18.393636 L 8.5999349 18.270508 z M 9.7276204 18.270508 L 8.8695475 19.128581 L 8.9926758 19.251709 L 9.8508301 18.393636 L 9.7276204 18.270508 z M 1.8564453 18.293132 C 1.8469668 18.367621 1.8389511 18.442946 1.8318685 18.518717 L 1.9569499 18.393636 L 1.8564453 18.293132 z M 10.803792 18.322021 L 9.9972331 19.128581 L 10.120361 19.251709 L 10.810465 18.561686 C 10.807609 18.481866 10.805479 18.401979 10.803792 18.322021 z M 0 18.399577 L -0.15193685 18.551514 L -0.028808594 18.674642 L 0 18.645833 L 0 18.399577 z M 1.8338216 18.847656 L 1.8075358 18.873942 C 1.8038542 18.958049 1.8016874 19.042384 1.8008626 19.126872 L 1.9569499 18.970785 L 1.8338216 18.847656 z M 2.9615072 18.847656 L 2.1034342 19.705729 L 2.2265625 19.828857 L 3.0846354 18.970785 L 2.9615072 18.847656 z M 4.0891927 18.847656 L 3.2311198 19.705729 L 3.354248 19.828857 L 4.212321 18.970785 L 4.0891927 18.847656 z M 5.2168783 18.847656 L 4.3588053 19.705729 L 4.4819336 19.828857 L 5.3400065 18.970785 L 5.2168783 18.847656 z M 6.3445638 18.847656 L 5.4864909 19.705729 L 5.6096191 19.828857 L 6.4676921 18.970785 L 6.3445638 18.847656 z M 7.4722493 18.847656 L 6.6141764 19.705729 L 6.7373047 19.828857 L 7.5953776 18.970785 L 7.4722493 18.847656 z M 8.5999349 18.847656 L 7.741862 19.705729 L 7.8649902 19.828857 L 8.7230632 18.970785 L 8.5999349 18.847656 z M 9.7276204 18.847656 L 8.8695475 19.705729 L 8.9926758 19.828857 L 9.8508301 18.970785 L 9.7276204 18.847656 z M 10.82487 18.878092 L 9.9972331 19.705729 L 10.120361 19.828857 L 10.838786 19.110433 C 10.83365 19.033131 10.829056 18.95569 10.82487 18.878092 z M 0 18.976644 L -0.15193685 19.128581 L -0.028808594 19.251709 L 0 19.2229 L 0 18.976644 z M 1.8338216 19.424723 L 1.8047689 19.453776 C 1.8074247 19.532095 1.811371 19.6103 1.8164876 19.688314 L 1.9569499 19.547852 L 1.8338216 19.424723 z M 2.9615072 19.424723 L 2.1034342 20.282796 L 2.2265625 20.406006 L 3.0846354 19.547852 L 2.9615072 19.424723 z M 4.0891927 19.424723 L 3.2311198 20.282796 L 3.354248 20.406006 L 4.212321 19.547852 L 4.0891927 19.424723 z M 5.2168783 19.424723 L 4.3588053 20.282796 L 4.4819336 20.406006 L 5.3400065 19.547852 L 5.2168783 19.424723 z M 6.3445638 19.424723 L 5.4864909 20.282796 L 5.6096191 20.406006 L 6.4676921 19.547852 L 6.3445638 19.424723 z M 7.4722493 19.424723 L 6.6141764 20.282796 L 6.7373047 20.406006 L 7.5953776 19.547852 L 7.4722493 19.424723 z M 8.5999349 19.424723 L 7.741862 20.282796 L 7.8649902 20.406006 L 8.7230632 19.547852 L 8.5999349 19.424723 z M 9.7276204 19.424723 L 8.8695475 20.282796 L 8.9926758 20.406006 L 9.8508301 19.547852 L 9.7276204 19.424723 z M 10.855306 19.424723 L 9.9972331 20.282796 L 10.120361 20.406006 L 10.881429 19.644938 C 10.874885 19.574253 10.868745 19.50337 10.862874 19.432292 L 10.855306 19.424723 z M 0 19.553792 L -0.15193685 19.705729 L -0.028808594 19.828857 L 0 19.800049 L 0 19.553792 z M 2.9615072 20.001872 L 2.1034342 20.859945 L 2.2265625 20.983073 L 3.0846354 20.125 L 2.9615072 20.001872 z M 4.0891927 20.001872 L 3.2311198 20.859945 L 3.354248 20.983073 L 4.212321 20.125 L 4.0891927 20.001872 z M 5.2168783 20.001872 L 4.3588053 20.859945 L 4.4819336 20.983073 L 5.3400065 20.125 L 5.2168783 20.001872 z M 6.3445638 20.001872 L 5.4864909 20.859945 L 5.6096191 20.983073 L 6.4676921 20.125 L 6.3445638 20.001872 z M 7.4722493 20.001872 L 6.6141764 20.859945 L 6.7373047 20.983073 L 7.5953776 20.125 L 7.4722493 20.001872 z M 8.5999349 20.001872 L 7.741862 20.859945 L 7.8649902 20.983073 L 8.7230632 20.125 L 8.5999349 20.001872 z M 9.7276204 20.001872 L 8.8695475 20.859945 L 8.9926758 20.983073 L 9.8508301 20.125 L 9.7276204 20.001872 z M 10.855306 20.001872 L 9.9972331 20.859945 L 10.120361 20.983073 L 10.935791 20.167725 C 10.932085 20.135462 10.928154 20.103425 10.924561 20.071045 L 10.855306 20.001872 z M 1.8450521 20.013102 C 1.8524186 20.079698 1.86076 20.14596 1.8699544 20.211995 L 1.9569499 20.125 L 1.8450521 20.013102 z M 0 20.130859 L -0.15193685 20.282796 L -0.028808594 20.406006 L 0 20.377197 L 0 20.130859 z M 2.9615072 20.578939 L 2.1471354 21.393392 C 2.1628743 21.439146 2.1789912 21.484548 2.1958008 21.52946 L 2.2265625 21.560221 L 3.0846354 20.702148 L 2.9615072 20.578939 z M 4.0891927 20.578939 L 3.2311198 21.437093 L 3.354248 21.560221 L 4.212321 20.702148 L 4.0891927 20.578939 z M 5.2168783 20.578939 L 4.3588053 21.437093 L 4.4819336 21.560221 L 5.3400065 20.702148 L 5.2168783 20.578939 z M 6.3445638 20.578939 L 5.4864909 21.437093 L 5.6096191 21.560221 L 6.4676921 20.702148 L 6.3445638 20.578939 z M 7.4722493 20.578939 L 6.6141764 21.437093 L 6.7373047 21.560221 L 7.5953776 20.702148 L 7.4722493 20.578939 z M 8.5999349 20.578939 L 7.741862 21.437093 L 7.8649902 21.560221 L 8.7230632 20.702148 L 8.5999349 20.578939 z M 9.7276204 20.578939 L 8.8695475 21.437093 L 8.9926758 21.560221 L 9.8508301 20.702148 L 9.7276204 20.578939 z M 10.855306 20.578939 L 9.9972331 21.437093 L 10.120361 21.560221 L 10.978516 20.702148 L 10.855306 20.578939 z M 1.9558105 20.701009 C 1.9559451 20.701635 1.9560828 20.702255 1.9562174 20.702881 L 1.9569499 20.702148 L 1.9558105 20.701009 z M 0 20.708008 L -0.15193685 20.859945 L -0.028808594 20.983073 L 0 20.954264 L 0 20.708008 z M 2.9615072 21.156087 L 2.3096517 21.807943 C 2.3348785 21.864755 2.3610021 21.920726 2.3881022 21.975749 L 3.0846354 21.279215 L 2.9615072 21.156087 z M 4.0891927 21.156087 L 3.2311198 22.01416 L 3.354248 22.137288 L 4.212321 21.279215 L 4.0891927 21.156087 z M 5.2168783 21.156087 L 4.3588053 22.01416 L 4.4819336 22.137288 L 5.3400065 21.279215 L 5.2168783 21.156087 z M 6.3445638 21.156087 L 5.4864909 22.01416 L 5.6096191 22.137288 L 6.4676921 21.279215 L 6.3445638 21.156087 z M 7.4722493 21.156087 L 6.6141764 22.01416 L 6.7373047 22.137288 L 7.5953776 21.279215 L 7.4722493 21.156087 z M 8.5999349 21.156087 L 7.741862 22.01416 L 7.8649902 22.137288 L 8.7230632 21.279215 L 8.5999349 21.156087 z M 9.7276204 21.156087 L 8.8695475 22.01416 L 8.9926758 22.137288 L 9.8508301 21.279215 L 9.7276204 21.156087 z M 10.855306 21.156087 L 9.9972331 22.01416 L 10.120361 22.137288 L 10.978516 21.279215 L 10.855306 21.156087 z M 0 21.285156 L -0.15193685 21.437093 L -0.028808594 21.560221 L 0 21.531413 L 0 21.285156 z M 2.9615072 21.733154 L 2.5021159 22.192627 C 2.530831 22.244161 2.5609651 22.296147 2.5924479 22.348551 L 3.0846354 21.856364 L 2.9615072 21.733154 z M 4.0891927 21.733154 L 3.2311198 22.591309 L 3.354248 22.714437 L 4.212321 21.856364 L 4.0891927 21.733154 z M 5.2168783 21.733154 L 4.3588053 22.591309 L 4.4819336 22.714437 L 5.3400065 21.856364 L 5.2168783 21.733154 z M 6.3445638 21.733154 L 5.4864909 22.591309 L 5.6096191 22.714437 L 6.4676921 21.856364 L 6.3445638 21.733154 z M 7.4722493 21.733154 L 6.6141764 22.591309 L 6.7373047 22.714437 L 7.5953776 21.856364 L 7.4722493 21.733154 z M 8.5999349 21.733154 L 7.741862 22.591309 L 7.8649902 22.714437 L 8.7230632 21.856364 L 8.5999349 21.733154 z M 9.7276204 21.733154 L 8.8695475 22.591309 L 8.9926758 22.714437 L 9.8508301 21.856364 L 9.7276204 21.733154 z M 10.855306 21.733154 L 9.9972331 22.591309 L 10.120361 22.714437 L 10.978516 21.856364 L 10.855306 21.733154 z M 0 21.862223 L -0.15193685 22.01416 L -0.028808594 22.137288 L 0 22.10848 L 0 21.862223 z M 11.191488 21.947591 L 11.124919 22.01416 L 11.218913 22.108154 C 11.212281 22.0718 11.205982 22.035699 11.200033 22 C 11.197178 21.982871 11.194342 21.964801 11.191488 21.947591 z M 2.9615072 22.310303 L 2.7200521 22.551758 C 2.7521766 22.600705 2.785219 22.649784 2.8193359 22.69873 L 3.0846354 22.433431 L 2.9615072 22.310303 z M 4.0891927 22.310303 L 3.2311198 23.168376 L 3.354248 23.291504 L 4.212321 22.433431 L 4.0891927 22.310303 z M 5.2168783 22.310303 L 4.3588053 23.168376 L 4.4819336 23.291504 L 5.3400065 22.433431 L 5.2168783 22.310303 z M 6.3445638 22.310303 L 5.4864909 23.168376 L 5.6096191 23.291504 L 6.4676921 22.433431 L 6.3445638 22.310303 z M 7.4722493 22.310303 L 6.6141764 23.168376 L 6.7373047 23.291504 L 7.5953776 22.433431 L 7.4722493 22.310303 z M 8.5999349 22.310303 L 7.741862 23.168376 L 7.8649902 23.291504 L 8.7230632 22.433431 L 8.5999349 22.310303 z M 9.7276204 22.310303 L 8.8695475 23.168376 L 8.9926758 23.291504 L 9.8508301 22.433431 L 9.7276204 22.310303 z M 10.855306 22.310303 L 9.9972331 23.168376 L 10.120361 23.291504 L 10.978516 22.433431 L 10.855306 22.310303 z M 11.284587 22.431641 L 11.124919 22.591309 L 11.248047 22.714437 L 11.331055 22.631429 C 11.315031 22.564596 11.299201 22.497843 11.284587 22.431641 z M 0 22.439372 L -0.15193685 22.591309 L -0.028808594 22.714437 L 0 22.685628 L 0 22.439372 z M 2.9615072 22.887451 L 2.9584961 22.890462 C 2.9935703 22.937054 3.0292464 22.983435 3.0658366 23.029378 L 3.0846354 23.010579 L 2.9615072 22.887451 z M 4.0891927 22.887451 L 3.4795736 23.49707 C 3.5205528 23.538632 3.5619592 23.579392 3.6038411 23.619059 L 4.212321 23.010579 L 4.0891927 22.887451 z M 5.2168783 22.887451 L 4.3588053 23.745524 L 4.4819336 23.868652 L 5.3400065 23.010579 L 5.2168783 22.887451 z M 6.3445638 22.887451 L 5.4864909 23.745524 L 5.6096191 23.868652 L 6.4676921 23.010579 L 6.3445638 22.887451 z M 7.4722493 22.887451 L 6.6141764 23.745524 L 6.7373047 23.868652 L 7.5953776 23.010579 L 7.4722493 22.887451 z M 8.5999349 22.887451 L 7.741862 23.745524 L 7.8649902 23.868652 L 8.7230632 23.010579 L 8.5999349 22.887451 z M 9.7276204 22.887451 L 8.8695475 23.745524 L 8.9926758 23.868652 L 9.8508301 23.010579 L 9.7276204 22.887451 z M 10.855306 22.887451 L 9.9972331 23.745524 L 10.120361 23.868652 L 10.978516 23.010579 L 10.855306 22.887451 z M 11.397217 22.896077 L 11.124919 23.168376 L 11.248047 23.291504 L 11.449382 23.090169 C 11.431663 23.025716 11.414224 22.961186 11.397217 22.896077 z M 0 23.016439 L -0.15193685 23.168376 L -0.028808594 23.291504 L 0 23.262695 L 0 23.016439 z M 11.522298 23.348145 L 11.124919 23.745524 L 11.248047 23.868652 L 11.578613 23.538086 C 11.559767 23.475668 11.541055 23.412577 11.522298 23.348145 z M 4.0891927 23.464518 L 3.7779134 23.775798 C 3.8227693 23.814102 3.868008 23.850958 3.9134928 23.886475 L 4.212321 23.587646 L 4.0891927 23.464518 z M 5.2168783 23.464518 L 4.4549967 24.2264 C 4.5080468 24.251307 4.5654946 24.276039 4.6269531 24.300781 L 5.3400065 23.587646 L 5.2168783 23.464518 z M 6.3445638 23.464518 L 5.4864909 24.322591 L 5.6096191 24.445801 L 6.4676921 23.587646 L 6.3445638 23.464518 z M 7.4722493 23.464518 L 6.6141764 24.322591 L 6.7373047 24.445801 L 7.5953776 23.587646 L 7.4722493 23.464518 z M 8.5999349 23.464518 L 7.741862 24.322591 L 7.8649902 24.445801 L 8.7230632 23.587646 L 8.5999349 23.464518 z M 9.7276204 23.464518 L 8.8695475 24.322591 L 8.9926758 24.445801 L 9.8508301 23.587646 L 9.7276204 23.464518 z M 10.855306 23.464518 L 9.9972331 24.322591 L 10.120361 24.445801 L 10.978516 23.587646 L 10.855306 23.464518 z M 0 23.593587 L -0.15193685 23.745524 L -0.028808594 23.868652 L 0 23.839844 L 0 23.593587 z M 11.656576 23.790934 L 11.124919 24.322591 L 11.248047 24.445801 L 11.716227 23.97762 C 11.696665 23.917349 11.676874 23.855321 11.656576 23.790934 z M 5.2168783 24.041667 L 4.8680013 24.390544 C 4.9274737 24.411092 4.98936 24.431446 5.0532227 24.451579 L 5.3400065 24.164795 L 5.2168783 24.041667 z M 6.3445638 24.041667 L 5.7444661 24.641764 C 5.8103421 24.657756 5.8765021 24.673539 5.9436849 24.688802 L 6.4676921 24.164795 L 6.3445638 24.041667 z M 7.4722493 24.041667 L 6.6778971 24.836019 C 6.7487129 24.848452 6.8188124 24.86019 6.8887533 24.871419 L 7.5953776 24.164795 L 7.4722493 24.041667 z M 8.5999349 24.041667 L 7.741862 24.89974 L 7.8272298 24.985107 C 7.8509329 24.986789 7.8747719 24.98859 7.8978678 24.98999 L 8.7230632 24.164795 L 8.5999349 24.041667 z M 9.7276204 24.041667 L 8.8695475 24.89974 L 8.9501139 24.980306 C 8.9790015 24.979123 9.009634 24.977668 9.0391439 24.9764 L 9.8508301 24.164795 L 9.7276204 24.041667 z M 10.855306 24.041667 L 9.9972331 24.89974 L 10.0236 24.926107 C 10.092635 24.92218 10.160572 24.918242 10.229004 24.914225 L 10.978516 24.164795 L 10.855306 24.041667 z M 0 24.170654 L -0.15193685 24.322591 L -0.028808594 24.445801 L 0 24.416992 L 0 24.170654 z M 11.798258 24.2264 L 11.168457 24.856201 C 11.262839 24.850044 11.350263 24.844255 11.432129 24.838786 L 11.861328 24.409668 C 11.840818 24.350405 11.821779 24.296291 11.798258 24.2264 z M 6.3445638 24.618734 L 6.2154134 24.747884 C 6.2837764 24.762073 6.352381 24.775394 6.4209798 24.788656 L 6.4676921 24.741943 L 6.3445638 24.618734 z M 7.4722493 24.618734 L 7.175944 24.915039 C 7.2499335 24.925293 7.3226633 24.934644 7.3941243 24.943197 L 7.5953776 24.741943 L 7.4722493 24.618734 z M 8.5999349 24.618734 L 8.2189128 24.999756 C 8.2930086 24.999592 8.3778698 24.998191 8.4689128 24.996094 L 8.7230632 24.741943 L 8.5999349 24.618734 z M 9.7276204 24.618734 L 9.3859863 24.960368 C 9.4716864 24.956143 9.5578859 24.951817 9.6455892 24.947184 L 9.8508301 24.741943 L 9.7276204 24.618734 z M 10.855306 24.618734 L 10.580729 24.893392 C 10.671768 24.8878 10.757065 24.882418 10.843506 24.876953 L 10.978516 24.741943 L 10.855306 24.618734 z M 11.947184 24.654541 L 11.787109 24.814616 C 11.856911 24.809745 12 24.799967 12 24.799967 C 12 24.799967 11.977599 24.739044 11.947184 24.654541 z M 0 24.747803 L -0.15193685 24.89974 L -0.028808594 25.022868 L 0 24.994059 L 0 24.747803 z M 0 25.324951 L -0.15193685 25.476888 L -0.028808594 25.600016 L 0 25.571208 L 0 25.324951 z " /></g></svg>
