<?xml version="1.0" encoding="UTF-8" standalone="no"?>
<!-- Created with Inkscape (http://www.inkscape.org/) -->

<svg
   width="14in"
   height="8.5in"
   viewBox="0 0 56 34"
   version="1.1"
   id="svg658"
   xml:space="preserve"
   inkscape:version="1.2.2 (b0a8486541, 2022-12-01)"
   sodipodi:docname="Outline_Athletic_3.svg"
   xmlns:inkscape="http://www.inkscape.org/namespaces/inkscape"
   xmlns:sodipodi="http://sodipodi.sourceforge.net/DTD/sodipodi-0.dtd"
   xmlns="http://www.w3.org/2000/svg"
   xmlns:svg="http://www.w3.org/2000/svg"><defs
   id="defs5256" /><sodipodi:namedview
   id="namedview660"
   pagecolor="#ffffff"
   bordercolor="#000000"
   borderopacity="0.25"
   inkscape:showpageshadow="2"
   inkscape:pageopacity="0.0"
   inkscape:pagecheckerboard="0"
   inkscape:deskcolor="#d1d1d1"
   inkscape:document-units="in"
   showgrid="true"
   inkscape:zoom="0.914906"
   inkscape:cx="429.00582"
   inkscape:cy="611.53823"
   inkscape:window-width="3800"
   inkscape:window-height="2120"
   inkscape:window-x="40"
   inkscape:window-y="0"
   inkscape:window-maximized="1"
   inkscape:current-layer="svg658"><inkscape:grid
   type="xygrid"
   id="grid779"
   units="in"
   spacingx="0.05"
   originx="0"
   originy="0"
   spacingy="0.05" />
     </sodipodi:namedview>
<path
   id="rect5476"
   style="stroke-width:0.314961"
   d="M 0 0 L 0 34 L 56 34 L 56 0 L 0 0 z M 42.951009 8.152181 C 45.144985 8.1604283 47.851563 8.3906254 48.75 8.75 C 49.999999 9.2499995 52.25 10.250001 52.75 11 C 53.25 11.749999 54 13.750001 54 15 C 54 16.249999 53.249999 18.000001 52.5 18.75 C 51.750001 19.5 49.499998 21.500001 47.25 22.75 C 45.000002 23.999999 41.999998 25.5 40 25.75 C 38.000002 26 36 25.75 36 25.75 L 26 25.5 L 16.75 25.5 C 16.75 25.5 10.999998 26.25 8.5 25.75 C 6.0000023 25.25 3.9999993 24.749999 3.25 23.75 C 2.5000007 22.750001 2 20.249999 2 19.5 C 2 18.75 2.0000007 17.499999 2.75 16.25 C 3.4999993 15.000001 4.5 14.5 4.5 14.5 C 4.5 14.5 6.5000018 13.5 8.5 13.5 C 10.499998 13.5 15.500001 14 16.5 14 C 17.499999 14 18.250001 14.25 20 14.25 C 21.749998 14.25 22.750002 14.25 24.5 14 C 26.249998 13.75 27.750002 12.999999 30 12 C 32.249999 11.000001 32.500002 10.749999 34.5 10 C 36.499998 9.2500005 38.750002 8.4999997 40.75 8.25 C 41.312499 8.1796875 42.092497 8.1489538 42.951009 8.152181 z " /></svg>
