<?xml version="1.0" encoding="UTF-8" standalone="no"?>
<!-- Created with Inkscape (http://www.inkscape.org/) -->

<svg
   width="14in"
   height="8.5in"
   viewBox="0 0 56 34"
   version="1.1"
   id="svg658"
   xml:space="preserve"
   inkscape:version="1.2.2 (b0a8486541, 2022-12-01)"
   sodipodi:docname="Outline_Heel.svg"
   xmlns:inkscape="http://www.inkscape.org/namespaces/inkscape"
   xmlns:sodipodi="http://sodipodi.sourceforge.net/DTD/sodipodi-0.dtd"
   xmlns="http://www.w3.org/2000/svg"
   xmlns:svg="http://www.w3.org/2000/svg"><sodipodi:namedview
     id="namedview660"
     pagecolor="#ffffff"
     bordercolor="#000000"
     borderopacity="0.25"
     inkscape:showpageshadow="2"
     inkscape:pageopacity="0.0"
     inkscape:pagecheckerboard="0"
     inkscape:deskcolor="#d1d1d1"
     inkscape:document-units="in"
     showgrid="true"
     inkscape:zoom="1.829812"
     inkscape:cx="644.05522"
     inkscape:cy="386.10523"
     inkscape:window-width="3800"
     inkscape:window-height="2120"
     inkscape:window-x="40"
     inkscape:window-y="0"
     inkscape:window-maximized="1"
     inkscape:current-layer="svg658"><inkscape:grid
       type="xygrid"
       id="grid779"
       units="in"
       spacingx="0.2"
       originx="0"
       originy="0"
       spacingy="0.2" /></sodipodi:namedview><defs
     id="defs655" /><path
     id="rect1203"
     style="display:inline;fill:#000000;fill-opacity:1;stroke-width:0.314961"
     inkscape:label="rect1203"
     d="M 0 0 L 0 34 L 56 34 L 56 0 L 0 0 z M 38.600016 7.7999674 C 41.40001 7.7999674 45.187519 8 46.799967 8 C 47.799965 8 48.800029 8.3999675 49.200033 8.7999674 C 49.907141 9.5070699 49.8 10.199986 50 11.399984 C 50.2 12.599982 50.2 14.600033 50 15.200033 C 49.8 15.800031 47.600012 17.200035 45.600016 18.200033 C 43.600019 19.200032 41.7823 19.939266 41 20.200033 C 39.800002 20.600031 36.799963 21.399969 34.799967 21.799967 C 32.799971 22.199967 30 22 30 22 L 30 9.7999674 L 31.799967 9 C 32.999965 8.4000012 35.800022 7.7999674 38.600016 7.7999674 z M 10.600016 12.399984 L 15 12.399984 L 15 21.399984 L 15 21.600016 L 14 21.600016 L 8.2000326 21.600016 C 7.4000341 21.600016 6.3999992 21.400031 6 21.200033 C 5.6000007 21.000033 4.5999834 19.999982 4.3999837 19.399984 C 4.2585625 18.97572 4.2000326 18.399998 4.2000326 17 C 4.2000326 15.600002 4.200017 16.399998 4.6000163 15 C 5.0000155 13.600002 6.2000015 13.199967 7 12.799967 C 7.7999984 12.399969 10.600016 12.399984 10.600016 12.399984 z " /></svg>
