<?xml version="1.0" encoding="UTF-8" standalone="no"?>
<!-- Created with Inkscape (http://www.inkscape.org/) -->

<svg
   width="14in"
   height="8.5in"
   viewBox="0 0 56 34"
   version="1.1"
   id="svg658"
   xml:space="preserve"
   inkscape:version="1.2.2 (b0a8486541, 2022-12-01)"
   sodipodi:docname="Outline_Work.svg"
   xmlns:inkscape="http://www.inkscape.org/namespaces/inkscape"
   xmlns:sodipodi="http://sodipodi.sourceforge.net/DTD/sodipodi-0.dtd"
   xmlns="http://www.w3.org/2000/svg"
   xmlns:svg="http://www.w3.org/2000/svg"><sodipodi:namedview
     id="namedview660"
     pagecolor="#ffffff"
     bordercolor="#000000"
     borderopacity="0.25"
     inkscape:showpageshadow="2"
     inkscape:pageopacity="0.0"
     inkscape:pagecheckerboard="0"
     inkscape:deskcolor="#d1d1d1"
     inkscape:document-units="mm"
     showgrid="true"
     inkscape:zoom="1.829812"
     inkscape:cx="459.88331"
     inkscape:cy="397.03532"
     inkscape:window-width="3800"
     inkscape:window-height="2120"
     inkscape:window-x="3840"
     inkscape:window-y="0"
     inkscape:window-maximized="1"
     inkscape:current-layer="layer1"><inkscape:grid
       type="xygrid"
       id="grid779"
       units="in"
       spacingx="0.8"
       originx="0"
       originy="0"
       spacingy="0.8" /></sodipodi:namedview><defs
     id="defs655" /><g
     inkscape:label="Layer 1"
     inkscape:groupmode="layer"
     id="layer1"><path
       id="rect7895"
       style="fill:#000000;fill-opacity:1;stroke-width:0.629921"
       d="M 0.00756836,-0.01497396 V 34.003337 H 56.112142 V -0.01497396 Z M 39.741699,7.4655762 c 2.296178,0.00706 5.406112,0.1427553 7.572266,0.3937174 2.666035,0.3088765 5.513173,2.5707834 6.245036,4.4511714 0.731862,1.88039 0.830255,3.180727 0.401367,4.934978 -0.42889,1.75425 -0.953694,2.432639 -2.161865,3.770019 -1.208172,1.33738 -3.577292,2.696567 -5.342286,3.578125 -1.764993,0.881558 -3.435625,1.183425 -5.780273,1.578695 -2.344649,0.395266 -4.783047,0.542074 -8.396891,0.405599 -3.613844,-0.136474 -8.919612,-1.737167 -12.140625,-1.820557 -3.221012,-0.08339 -4.637764,-0.212916 -6.956462,-0.42928 C 10.863269,24.11168 8.3055186,24.214062 6.3460286,23.333577 4.3865388,22.453093 3.3546891,21.035654 2.6512858,19.341146 1.9478825,17.646638 2.3477873,15.940465 2.8560384,14.633626 3.3642895,13.326788 4.9290918,12.130389 6.8288574,11.1521 c 1.8997656,-0.978289 4.2229606,-0.360539 7.2942706,0.139404 3.071311,0.499942 7.849237,0.954044 10.936456,0.590509 3.08722,-0.363534 4.797935,-2.1475304 6.821682,-3.0629212 2.023747,-0.9153907 4.17377,-1.2724006 6.422364,-1.3376465 0.421611,-0.012234 0.908182,-0.017498 1.438069,-0.015869 z"
       sodipodi:nodetypes="cccccsssssssssssssssssss" /></g></svg>
