<?xml version="1.0" encoding="UTF-8" standalone="no"?>
<!-- Created with Inkscape (http://www.inkscape.org/) -->

<svg
   width="14in"
   height="8.5in"
   viewBox="0 0 56 34"
   version="1.1"
   id="svg658"
   xml:space="preserve"
   inkscape:version="1.2.2 (b0a8486541, 2022-12-01)"
   sodipodi:docname="Outline_Flat_3.svg"
   xmlns:inkscape="http://www.inkscape.org/namespaces/inkscape"
   xmlns:sodipodi="http://sodipodi.sourceforge.net/DTD/sodipodi-0.dtd"
   xmlns="http://www.w3.org/2000/svg"
   xmlns:svg="http://www.w3.org/2000/svg"><sodipodi:namedview
     id="namedview660"
     pagecolor="#ffffff"
     bordercolor="#000000"
     borderopacity="0.25"
     inkscape:showpageshadow="2"
     inkscape:pageopacity="0.0"
     inkscape:pagecheckerboard="0"
     inkscape:deskcolor="#d1d1d1"
     inkscape:document-units="in"
     showgrid="true"
     inkscape:zoom="0.914906"
     inkscape:cx="476.00518"
     inkscape:cy="383.09947"
     inkscape:window-width="3800"
     inkscape:window-height="2120"
     inkscape:window-x="40"
     inkscape:window-y="0"
     inkscape:window-maximized="1"
     inkscape:current-layer="layer1"><inkscape:grid
       type="xygrid"
       id="grid779"
       units="in"
       spacingx="0.2"
       originx="28"
       originy="17"
       spacingy="0.2" /></sodipodi:namedview><defs
     id="defs655" /><g
     inkscape:label="Layer 1"
     inkscape:groupmode="layer"
     id="layer1"><path
       id="rect1247"
       style="fill:#000000;fill-opacity:1;stroke:none;stroke-width:0.314961;stroke-opacity:1"
       d="M 0,0 V 34 H 56 V 0 Z M 18.799967,24.799967 C 15.136669,24.918916 11.355316,25.7678 7.7639974,24.692546 5.1690771,23.90874 4.2174257,20.78419 4.7266439,18.354736 c 0.3527918,-2.146418 2.3625458,-3.537423 4.413737,-3.803222 1.0070051,-0.174051 2.0187001,-0.225398 3.0323891,-0.223959 2.075649,0.0029 4.159454,0.227173 7.535002,0.09417 3.995493,0.275124 6.815721,-0.101711 9.073397,-1.632577 l 0.002,-0.002 0.0039,-0.002 c 1.929342,-1.217 3.812168,-2.718571 6.164063,-3.1835935 1.574593,-0.5068916 3.200534,-0.588691 4.819824,-0.5919596 0.971574,-0.00196 1.940782,0.02435 2.89502,0.00407 h 0.0039 0.0039 c 2.151242,0.064635 4.39129,0.4386052 6.283366,1.5585941 l 0.0078,0.0059 0.0078,0.0059 c 1.15087,0.898339 2.142534,2.244058 2.214844,3.771484 v 0.0059 0.0059 c -0.042,1.856017 -0.903036,3.654922 -2.345703,4.832032 -1.853945,1.535766 -3.826129,2.970983 -5.976563,4.083984 h -0.002 c -2.756861,1.384713 -5.859942,1.900036 -8.896484,2.048828 h -0.002 -0.002 C 31.239315,25.374027 30.667863,25.252762 28.002,25 H 28 l -2,-0.2 c -1.568297,-0.180895 -3.225865,-0.15149 -4.8,-0.2 m 21.520594,-1.597938 v 0.002"
       inkscape:label="Background"
       sodipodi:nodetypes="ccccccccsccccccsccccccccccccccccccccc" /></g></svg>
