<?xml version="1.0" encoding="UTF-8" standalone="no"?>
<!-- Created with Inkscape (http://www.inkscape.org/) -->

<svg
   width="14in"
   height="8.5in"
   viewBox="0 0 56 34"
   version="1.1"
   id="svg658"
   xml:space="preserve"
   inkscape:version="1.2.2 (b0a8486541, 2022-12-01)"
   sodipodi:docname="Outline_Work_2.svg"
   xmlns:inkscape="http://www.inkscape.org/namespaces/inkscape"
   xmlns:sodipodi="http://sodipodi.sourceforge.net/DTD/sodipodi-0.dtd"
   xmlns="http://www.w3.org/2000/svg"
   xmlns:svg="http://www.w3.org/2000/svg"><sodipodi:namedview
     id="namedview660"
     pagecolor="#ffffff"
     bordercolor="#000000"
     borderopacity="0.25"
     inkscape:showpageshadow="2"
     inkscape:pageopacity="0.0"
     inkscape:pagecheckerboard="0"
     inkscape:deskcolor="#d1d1d1"
     inkscape:document-units="mm"
     showgrid="true"
     inkscape:zoom="1.2938725"
     inkscape:cx="779.44311"
     inkscape:cy="290.98694"
     inkscape:window-width="3800"
     inkscape:window-height="2120"
     inkscape:window-x="3840"
     inkscape:window-y="0"
     inkscape:window-maximized="1"
     inkscape:current-layer="layer1"><inkscape:grid
       type="xygrid"
       id="grid779"
       units="in"
       spacingx="0.8"
       originx="0"
       originy="0"
       spacingy="0.8" /></sodipodi:namedview><defs
     id="defs655" /><g
     inkscape:label="Layer 1"
     inkscape:groupmode="layer"
     id="layer1"><path
       style="fill:#000000;stroke-width:0.0267146"
       d="M 56.09278,-0.13130371 56.003624,34.086912 C 37.318481,33.942931 18.633773,34.025491 -0.05137463,34.094326 -0.21951449,28.289737 -0.01163508,11.437992 -0.09219454,-0.07320885 18.636199,-0.04105082 37.36446,-0.08847917 56.09278,-0.13130371 Z M 6.7212364,23.54143 c 2.2455659,1.05542 5.2608446,1.364473 6.4930696,1.357576 1.022708,-0.0099 1.592462,-0.01262 2.248385,-0.07403 0.820238,-0.0768 1.899078,-0.342619 3.300298,-0.543734 0.377008,-0.06681 0.932521,-0.332058 1.974637,-0.345785 2.064474,-0.02719 5.199081,0.32724 6.761244,0.928253 2.504693,1.008404 7.679376,1.190967 11.823934,0.251291 4.865095,-1.103039 8.555231,-3.630795 9.74292,-4.257105 C 49.6887,20.529377 53.162765,17.710458 52.855228,14.08846 52.611221,11.21467 49.219496,9.0048874 45.315049,8.307783 42.007707,7.916016 36.676388,7.8167722 33.807593,9.0481206 c -1.985608,0.8522658 -4.019041,1.9971374 -5.774931,2.9307514 -1.379023,0.733231 -2.695182,0.771899 -3.112998,0.719419 -2.073119,0.138345 -4.546263,-0.397222 -6.935924,-0.724368 -2.406862,-0.329502 -4.728634,-0.451017 -6.358985,-0.426829 -3.4248677,0.0739 -6.9645336,0.850533 -8.3741771,5.191864 -0.1603615,2.964495 0.7101512,5.310666 3.4706585,6.802472 z"
       id="path9150"
       sodipodi:nodetypes="cccccccscscssscsscsccc" /></g></svg>
