<?xml version="1.0" encoding="UTF-8" standalone="no"?>
<!-- Created with Inkscape (http://www.inkscape.org/) -->

<svg
   width="14in"
   height="8.5in"
   viewBox="0 0 56 34"
   version="1.1"
   id="svg658"
   xml:space="preserve"
   inkscape:version="1.2.2 (b0a8486541, 2022-12-01)"
   sodipodi:docname="Athletic_Shoe_2.svg"
   xmlns:inkscape="http://www.inkscape.org/namespaces/inkscape"
   xmlns:sodipodi="http://sodipodi.sourceforge.net/DTD/sodipodi-0.dtd"
   xmlns="http://www.w3.org/2000/svg"
   xmlns:svg="http://www.w3.org/2000/svg"><sodipodi:namedview
     id="namedview660"
     pagecolor="#ffffff"
     bordercolor="#000000"
     borderopacity="0.25"
     inkscape:showpageshadow="2"
     inkscape:pageopacity="0.0"
     inkscape:pagecheckerboard="0"
     inkscape:deskcolor="#d1d1d1"
     inkscape:document-units="mm"
     showgrid="true"
     inkscape:zoom="1.2938725"
     inkscape:cx="165.00853"
     inkscape:cy="483.4325"
     inkscape:window-width="3800"
     inkscape:window-height="2120"
     inkscape:window-x="3840"
     inkscape:window-y="0"
     inkscape:window-maximized="1"
     inkscape:current-layer="layer1"><inkscape:grid
       type="xygrid"
       id="grid779"
       units="in"
       spacingx="0.8"
       originx="0"
       originy="0"
       spacingy="0.8" /></sodipodi:namedview><defs
     id="defs655" /><g
     inkscape:label="Layer 1"
     inkscape:groupmode="layer"
     id="layer1"><path
       id="rect4469"
       style="fill:#000000;stroke-width:0.629921;fill-opacity:1"
       d="M -0.031738281 0.051188151 L -0.031738281 34.332926 L 54.196777 34.332926 L 54.196777 0.051188151 L -0.031738281 0.051188151 z M 41.664469 8.8716634 C 41.91877 8.8715772 41.992196 8.8824316 41.702393 8.9097493 C 43.668993 9.1343165 45.715428 9.0472496 47.558512 9.8845215 C 49.913894 10.525557 51.40835 12.61136 51.45459 15.028483 C 51.868721 17.48293 50.586443 19.783762 48.861654 21.420003 C 45.496612 24.770001 40.992584 27.209701 36.201172 27.516276 C 33.480277 27.741353 30.821579 26.962351 28.24292 26.197103 C 22.114376 23.873292 15.514901 26.706456 9.2954102 25.025879 C 5.7363309 24.282823 3.7654003 20.233332 4.5151367 16.848307 C 4.9671888 14.107919 7.5076585 12.230161 10.150553 11.860433 C 14.342181 11.128053 18.39366 12.793189 22.272542 14.144938 C 24.673391 14.977598 27.373721 14.572016 29.462158 13.141683 C 32.362984 11.052406 35.604657 9.0255357 39.299805 8.9740397 C 39.669912 8.9252348 41.105007 8.8718531 41.664469 8.8716634 z " /></g></svg>
