<?xml version="1.0" encoding="UTF-8" standalone="no"?>
<!-- Created with Inkscape (http://www.inkscape.org/) -->

<svg
   width="14in"
   height="8.5in"
   viewBox="0 0 56 34"
   version="1.1"
   id="svg658"
   xml:space="preserve"
   inkscape:version="1.2.2 (b0a8486541, 2022-12-01)"
   sodipodi:docname="Outline_Flat_2.svg"
   xmlns:inkscape="http://www.inkscape.org/namespaces/inkscape"
   xmlns:sodipodi="http://sodipodi.sourceforge.net/DTD/sodipodi-0.dtd"
   xmlns="http://www.w3.org/2000/svg"
   xmlns:svg="http://www.w3.org/2000/svg"><sodipodi:namedview
     id="namedview660"
     pagecolor="#ffffff"
     bordercolor="#000000"
     borderopacity="0.25"
     inkscape:showpageshadow="2"
     inkscape:pageopacity="0.0"
     inkscape:pagecheckerboard="0"
     inkscape:deskcolor="#d1d1d1"
     inkscape:document-units="in"
     showgrid="true"
     inkscape:zoom="1.2938725"
     inkscape:cx="44.826674"
     inkscape:cy="457.92766"
     inkscape:window-width="3800"
     inkscape:window-height="2120"
     inkscape:window-x="3840"
     inkscape:window-y="0"
     inkscape:window-maximized="1"
     inkscape:current-layer="svg658"><inkscape:grid
       type="xygrid"
       id="grid779"
       units="in"
       spacingx="0.04"
       originx="0"
       originy="0"
       spacingy="0.04" /></sodipodi:namedview><defs
     id="defs655"><inkscape:path-effect
       effect="fill_between_many"
       method="originald"
       linkedpaths="#path901,0,1"
       id="path-effect430" /></defs><path
     id="rect508"
     style="fill:#0a0a0a;stroke-width:0.314961;fill-opacity:1"
     d="M 0 0 L 0 34 L 56 34 L 56 0 L 0 0 z M 44.761637 7.3192546 C 45.600452 7.320194 46.408522 7.3404745 47.280029 7.3999837 C 47.280029 7.7599834 47.977055 21.107328 48.040039 22.079997 L 45.23999 23.600016 L 44.399984 7.6000163 L 44.399984 7.319987 C 44.521345 7.3193894 44.641807 7.3191203 44.761637 7.3192546 z M 43.719971 7.319987 C 43.854105 11.253134 44.600016 23.719971 44.600016 23.719971 C 44.600016 23.719971 42.688683 24.65184 41.474772 24.811198 C 41.230659 19.233268 41.032758 13.177452 40.799967 7.6000163 L 43.719971 7.319987 z M 47.879964 7.4400228 C 50.74279 7.7125555 53.741693 10.077883 53.799967 13.399984 C 53.665008 16.256133 51.48579 20.153813 48.52002 21.680013 C 48.150606 17.37117 47.879964 7.4400228 47.879964 7.4400228 z M 40.102865 7.6804199 C 40.199999 8.3999993 40.8 23.600001 40.992676 24.826172 C 40.065128 25.228308 39.159965 25.400023 37.799967 25.440023 C 37.8 24.8 37.2 8.9999996 37.200033 8.5599772 C 37.399999 8.4000002 39.6 7.7999999 40.102865 7.6804199 z M 36.600016 8.7999674 C 36.727192 11.106852 37.000033 24.000019 37.200033 25.600016 C 36.021417 25.495263 35.292845 25.929005 34.211833 25.629557 C 34.2 24.600001 33.782301 15.127958 33.440023 9.8799642 C 34.274245 9.4641025 35.800017 8.9999672 36.600016 8.7999674 z M 33 10.200033 C 33.09989 15.214003 33.455889 20.585025 33.602539 25.595133 C 32.000039 25.400014 31.200031 25.200033 30.200033 25.200033 L 29.78125 11.279297 C 30.581861 11.167965 32.200001 10.200033 33 10.200033 z M 29.319987 11.440023 C 29.399987 14.200017 29.799967 23.000037 29.799967 25.200033 C 29.144241 25.039435 28.000014 25.200033 26.600016 25.200033 C 26.379647 21.721719 26.375388 16.069638 26 12.600016 L 29.319987 11.440023 z M 25.336426 12.755778 C 25.674221 16.942009 25.953345 21.091503 26.083659 25.236979 C 24.400013 25.199964 24.399998 25.200033 23 25.200033 C 23 24.600033 22.399984 14.000031 22.399984 13.200033 C 23.427092 12.765678 24.140738 12.851298 25.336426 12.755778 z M 19.242188 13.155192 C 20.053823 13.14975 21.005807 13.282379 21.799967 13.200033 C 21.799967 15.000029 22.267193 21.793122 22.348389 25.403564 C 21.317593 25.47964 20.200012 25.59996 19.252279 25.57959 C 19.200014 25.199962 18.668876 16.584496 18.600016 13.200033 C 18.798723 13.169121 19.014929 13.156716 19.242188 13.155192 z M 18 13.200033 C 18 13.800031 18.532293 21.81507 18.676351 25.68099 C 17.900581 25.7087 16.421423 25.884291 15.712891 25.851481 C 15.38275 21.718138 15.149066 17.108229 15.003337 13.324219 C 15.76001 13.280033 17.130453 13.241003 18 13.200033 z M 13.766846 13.384521 C 14.034999 13.385021 14.250026 13.389984 14.360026 13.399984 C 14.543519 17.444511 14.832563 21.678147 15.040039 25.780029 C 14.624878 25.653924 13.136147 26.071508 11.985433 25.904215 C 11.781017 21.618532 11.367415 17.488407 11.318115 13.487956 C 11.679514 13.421981 12.962385 13.383021 13.766846 13.384521 z M 10.799967 13.600016 C 10.933575 17.270706 11.217216 22.199885 11.389242 25.868245 C 11.000004 25.799976 9.4094731 25.965543 9.3399251 25.748535 C 6.9568047 25.129989 5.3562065 23.127282 5.0955404 20.940918 C 4.6635774 18.456327 5.2753814 15.126966 7.6162109 14.184652 C 8.7841683 13.691926 9.3999706 13.600016 10.799967 13.600016 z " /></svg>
