<?xml version="1.0" encoding="UTF-8" standalone="no"?>
<!-- Created with Inkscape (http://www.inkscape.org/) -->

<svg
   width="14in"
   height="8.5in"
   viewBox="0 0 56 34"
   version="1.1"
   id="svg658"
   xml:space="preserve"
   inkscape:version="1.2.2 (b0a8486541, 2022-12-01)"
   sodipodi:docname="Outline_Flat.svg"
   xmlns:inkscape="http://www.inkscape.org/namespaces/inkscape"
   xmlns:sodipodi="http://sodipodi.sourceforge.net/DTD/sodipodi-0.dtd"
   xmlns="http://www.w3.org/2000/svg"
   xmlns:svg="http://www.w3.org/2000/svg"><sodipodi:namedview
     id="namedview660"
     pagecolor="#ffffff"
     bordercolor="#000000"
     borderopacity="0.25"
     inkscape:showpageshadow="2"
     inkscape:pageopacity="0.0"
     inkscape:pagecheckerboard="0"
     inkscape:deskcolor="#d1d1d1"
     inkscape:document-units="in"
     showgrid="true"
     inkscape:zoom="1.2938725"
     inkscape:cx="445.17524"
     inkscape:cy="687.47114"
     inkscape:window-width="3800"
     inkscape:window-height="2120"
     inkscape:window-x="3840"
     inkscape:window-y="0"
     inkscape:window-maximized="1"
     inkscape:current-layer="svg658"><inkscape:grid
       type="xygrid"
       id="grid779"
       units="in"
       spacingx="0.2"
       originx="0"
       originy="0"
       spacingy="0.2" /></sodipodi:namedview><defs
     id="defs655" /><path
     id="rect8228"
     style="fill:#030014;fill-opacity:1;stroke-width:0.314961"
     d="M 0,0 V 34 H 56 V 0 Z m 36.799967,7.3999837 c 3.009501,1e-6 5.55655,0.9221969 7.800049,1.8000489 2.2435,0.8778524 4.200018,1.7999524 5.600017,3.1999514 1.399998,1.399998 2.399935,2.599985 2.599934,4.399983 0.2,1.799999 0.199999,2.600035 -1,4.200033 -1.199998,1.599998 -2.999954,2.600033 -6.199951,3.200033 C 42.400018,24.800032 37.200032,25.2 36.200033,25 35.200034,24.8 32.227834,23.514639 31,23 c -1.227834,-0.514639 -1.235129,-0.677402 -2.200033,-1 -0.964904,-0.322598 -1.304866,-0.591327 -3.599934,-0.799967 -2.295069,-0.208641 -2.698349,0.177798 -4.800049,0.399983 -2.1017,0.222185 -4.399971,0.8 -7.799968,1 -3.3999965,0.2 -4.3999843,-0.200049 -5.3999834,-0.800049 -0.9999991,-0.599999 -2.6000004,-1.799985 -3,-3.399983 C 3.8000329,16.799984 3.8000002,15.799966 4,14.799967 4.1999998,13.799968 5.1999679,12.200016 5.7999674,11.600016 6.3999668,11.000017 7.333318,10.466699 8.3999837,10.200033 9.4666495,9.9333661 8.7038094,9.9807957 10,9.7999674 c 1.296191,-0.1808282 3.800035,-0.1999511 6.200033,-0.1999511 2.399997,0 2.296097,0.2256748 3.599934,0.1999511 C 21.103805,9.7742434 22.600001,9.5999835 24,9.3999837 c 1.399999,-0.1999998 2.831748,-0.3319865 4.200033,-0.6000163 1.368284,-0.2680297 2.563248,-0.759493 4,-1 1.436751,-0.2405069 1.590433,-0.3999847 4.599934,-0.3999837 z" /></svg>
