<?xml version="1.0" encoding="UTF-8" standalone="no"?>
<!-- Created with Inkscape (http://www.inkscape.org/) -->

<svg
   width="14in"
   height="8.5in"
   viewBox="0 0 56 34"
   version="1.1"
   id="svg658"
   xml:space="preserve"
   inkscape:version="1.2.2 (b0a8486541, 2022-12-01)"
   sodipodi:docname="Catherine_Wheel.svg"
   xmlns:inkscape="http://www.inkscape.org/namespaces/inkscape"
   xmlns:sodipodi="http://sodipodi.sourceforge.net/DTD/sodipodi-0.dtd"
   xmlns="http://www.w3.org/2000/svg"
   xmlns:svg="http://www.w3.org/2000/svg"><sodipodi:namedview
     id="namedview660"
     pagecolor="#ffffff"
     bordercolor="#000000"
     borderopacity="0.25"
     inkscape:showpageshadow="2"
     inkscape:pageopacity="0.0"
     inkscape:pagecheckerboard="0"
     inkscape:deskcolor="#d1d1d1"
     inkscape:document-units="mm"
     showgrid="true"
     inkscape:zoom="1.2938725"
     inkscape:cx="807.65301"
     inkscape:cy="338.90512"
     inkscape:window-width="3800"
     inkscape:window-height="2120"
     inkscape:window-x="3840"
     inkscape:window-y="0"
     inkscape:window-maximized="1"
     inkscape:current-layer="layer1"><inkscape:grid
       type="xygrid"
       id="grid779"
       units="in"
       spacingx="0.8"
       originx="0"
       originy="0"
       spacingy="0.8" /></sodipodi:namedview><defs
     id="defs655" /><g
     inkscape:label="Layer 1"
     inkscape:groupmode="layer"
     id="layer1"><path
       id="path16469"
       style="fill:#ff6c04;stroke-width:0.629921"
       d="m 15.877016,13.039301 v 0.0055 a 4,4 0 0 0 -1.624104,0.43514 l -0.0027,-0.0047 -0.346354,0.200033 0.0025,0.0043 a 4,4 0 0 0 -1.189128,1.189128 l -0.0043,-0.0025 -0.200033,0.346354 0.0047,0.0027 a 4,4 0 0 0 -0.43514,1.624104 h -0.0055 v 0.200033 0.200033 h 0.0055 a 4,4 0 0 0 0.43514,1.624104 l -0.0047,0.0027 0.200033,0.346354 0.0043,-0.0025 a 4,4 0 0 0 1.189128,1.189128 l -0.0025,0.0043 0.346354,0.200033 0.0027,-0.0047 a 4,4 0 0 0 1.624104,0.43514 v 0.0055 h 0.200033 0.200033 v -0.0055 a 4,4 0 0 0 1.624104,-0.43514 l 0.0027,0.0047 0.346354,-0.200033 -0.0025,-0.0043 a 4,4 0 0 0 1.189128,-1.189128 l 0.0043,0.0025 0.200033,-0.346354 -0.0047,-0.0027 a 4,4 0 0 0 0.43514,-1.624104 h 0.0055 v -0.200125 -0.200033 h -0.005 a 4,4 0 0 0 -0.435359,-1.624267 l 0.0044,-0.0025 -0.09326,-0.161377 -0.106771,-0.184977 -0.0043,0.0025 a 4,4 0 0 0 -1.189128,-1.189128 l 0.0025,-0.0043 -0.184977,-0.106771 -0.161377,-0.09326 -0.0025,0.0044 a 4,4 0 0 0 -1.624267,-0.435221 v -0.005 h -0.200033 z m 0.400066,0.405599 a 3.5999999,3.5999999 0 0 1 1.42399,0.381592 l -1.42399,2.46639 z m -0.400066,3.25e-4 v 2.847657 L 14.45327,13.826817 a 3.5999999,3.5999999 0 0 1 1.423746,-0.381592 z m -1.770345,0.581218 1.423991,2.466471 -2.466471,-1.423991 a 3.5999999,3.5999999 0 0 1 1.04248,-1.04248 z m 3.940756,0 a 3.5999999,3.5999999 0 0 1 1.04248,1.04248 l -2.466471,1.424073 z m 1.242431,1.388835 a 3.5999999,3.5999999 0 0 1 0.381592,1.42399 h -2.847982 z m -6.425293,2.44e-4 2.466065,1.423746 h -2.847657 a 3.5999999,3.5999999 0 0 1 0.381592,-1.423746 z m -0.381592,1.823812 h 2.847657 l -2.466065,1.423746 a 3.5999999,3.5999999 0 0 1 -0.381592,-1.423746 z m 4.340495,0 h 2.847982 a 3.5999999,3.5999999 0 0 1 -0.381592,1.42399 z m -1.292806,0.346272 -1.423991,2.466553 a 3.5999999,3.5999999 0 0 1 -1.04248,-1.04248 z m 1.092774,8.2e-5 2.466471,1.423991 a 3.5999999,3.5999999 0 0 1 -1.04248,1.04248 z m -0.74642,0.200032 v 2.847657 A 3.5999999,3.5999999 0 0 1 14.45327,20.251785 Z m 0.400066,0 1.42399,2.46639 a 3.5999999,3.5999999 0 0 1 -1.42399,0.381592 z" /><path
       id="path16517"
       style="fill:#ff6c04;stroke-width:0.629921"
       d="m 27.797954,12.949015 v 0.0054 a 4,4 0 0 0 -1.624104,0.43514 l -0.0027,-0.0047 -0.346354,0.200033 0.0025,0.0043 a 4,4 0 0 0 -1.189128,1.189128 l -0.0043,-0.0025 -0.200033,0.346354 0.0047,0.0027 a 4,4 0 0 0 -0.43514,1.624104 h -0.0054 v 0.200033 0.200033 h 0.0054 a 4,4 0 0 0 0.43514,1.624104 l -0.0047,0.0027 0.200033,0.346354 0.0043,-0.0025 a 4,4 0 0 0 1.189128,1.189128 l -0.0025,0.0043 0.346354,0.200033 0.0027,-0.0047 a 4,4 0 0 0 1.624104,0.43514 v 0.0055 h 0.200033 0.200033 v -0.0055 a 4,4 0 0 0 1.624104,-0.43514 l 0.0027,0.0047 0.346354,-0.200033 -0.0025,-0.0043 a 4,4 0 0 0 1.189128,-1.189128 l 0.0043,0.0025 0.200033,-0.346354 -0.0047,-0.0027 a 4,4 0 0 0 0.43514,-1.624104 h 0.0055 v -0.200033 -0.200033 h -0.005 A 4,4 0 0 0 31.55772,15.124715 l 0.0044,-0.0025 -0.09326,-0.161377 -0.106771,-0.184977 -0.0043,0.0025 a 4,4 0 0 0 -1.189128,-1.189128 l 0.0025,-0.0043 -0.184977,-0.106771 -0.161377,-0.09326 -0.0025,0.0044 A 4,4 0 0 0 28.19802,12.954061 v -0.0051 h -0.200033 z m 0.400066,0.405599 a 3.5999999,3.5999999 0 0 1 1.42399,0.381592 l -1.42399,2.46639 z m -0.400066,3.25e-4 v 2.847657 l -1.423746,-2.466065 a 3.5999999,3.5999999 0 0 1 1.423746,-0.381592 z m -1.770345,0.581218 1.423991,2.466471 -2.466471,-1.423991 a 3.5999999,3.5999999 0 0 1 1.04248,-1.04248 z m 3.940756,0 a 3.5999999,3.5999999 0 0 1 1.04248,1.04248 l -2.466471,1.424073 z m 1.242431,1.388835 a 3.5999999,3.5999999 0 0 1 0.381592,1.42399 h -2.847982 z m -6.425293,2.44e-4 2.466065,1.423746 h -2.847657 a 3.5999999,3.5999999 0 0 1 0.381592,-1.423746 z m -0.381592,1.823812 h 2.847657 l -2.466065,1.423746 a 3.5999999,3.5999999 0 0 1 -0.381592,-1.423746 z m 4.340495,0 h 2.847982 a 3.5999999,3.5999999 0 0 1 -0.381592,1.42399 z M 27.4516,17.49532 26.027609,19.961873 a 3.5999999,3.5999999 0 0 1 -1.04248,-1.04248 z m 1.092774,8.2e-5 2.466471,1.423991 a 3.5999999,3.5999999 0 0 1 -1.04248,1.04248 z m -0.74642,0.200032 v 2.847657 a 3.5999999,3.5999999 0 0 1 -1.423746,-0.381592 z m 0.400066,0 1.42399,2.46639 a 3.5999999,3.5999999 0 0 1 -1.42399,0.381592 z" /><path
       id="path16519"
       style="fill:#ff6c04;stroke-width:0.629921"
       d="m 39.798913,13.050955 v 0.0054 a 4,4 0 0 0 -1.624104,0.43514 l -0.0027,-0.0047 -0.346354,0.200033 0.0025,0.0043 a 4,4 0 0 0 -1.189128,1.189128 l -0.0043,-0.0025 -0.200033,0.346354 0.0047,0.0027 a 4,4 0 0 0 -0.43514,1.624104 h -0.0054 v 0.200033 0.200033 h 0.0054 a 4,4 0 0 0 0.43514,1.624104 l -0.0047,0.0027 0.200033,0.346354 0.0043,-0.0025 a 4,4 0 0 0 1.189128,1.189128 l -0.0025,0.0043 0.346354,0.200033 0.0027,-0.0047 a 4,4 0 0 0 1.624104,0.43514 v 0.0055 h 0.200033 0.200033 v -0.0055 a 4,4 0 0 0 1.624104,-0.43514 l 0.0027,0.0047 0.346354,-0.200033 -0.0025,-0.0043 a 4,4 0 0 0 1.189128,-1.189128 l 0.0043,0.0025 0.200033,-0.346354 -0.0047,-0.0027 a 4,4 0 0 0 0.43514,-1.624104 h 0.0055 v -0.200033 -0.200033 h -0.005 a 4,4 0 0 0 -0.435359,-1.624259 l 0.0044,-0.0025 -0.09326,-0.161377 -0.106771,-0.184977 -0.0043,0.0025 A 4,4 0 0 0 42.16962,13.691173 l 0.0025,-0.0043 -0.184977,-0.106771 -0.161377,-0.09326 -0.0025,0.0044 a 4,4 0 0 0 -1.624287,-0.435241 v -0.0051 h -0.200033 z m 0.400066,0.405599 a 3.5999999,3.5999999 0 0 1 1.42399,0.381592 l -1.42399,2.46639 z m -0.400066,3.25e-4 v 2.847657 l -1.423746,-2.466065 a 3.5999999,3.5999999 0 0 1 1.423746,-0.381592 z m -1.770345,0.581218 1.423991,2.466471 -2.466471,-1.423991 a 3.5999999,3.5999999 0 0 1 1.04248,-1.04248 z m 3.940756,0 a 3.5999999,3.5999999 0 0 1 1.04248,1.04248 l -2.466471,1.424073 z m 1.242431,1.388835 a 3.5999999,3.5999999 0 0 1 0.381592,1.42399 h -2.847982 z m -6.425293,2.44e-4 2.466065,1.423746 H 36.40487 a 3.5999999,3.5999999 0 0 1 0.381592,-1.423746 z m -0.381592,1.823812 h 2.847657 l -2.466065,1.423746 A 3.5999999,3.5999999 0 0 1 36.40487,17.250988 Z m 4.340495,0 h 2.847982 a 3.5999999,3.5999999 0 0 1 -0.381592,1.42399 z m -1.292806,0.346272 -1.423991,2.466553 a 3.5999999,3.5999999 0 0 1 -1.04248,-1.04248 z m 1.092774,8.2e-5 2.466471,1.423991 a 3.5999999,3.5999999 0 0 1 -1.04248,1.04248 z m -0.74642,0.200032 v 2.847657 a 3.5999999,3.5999999 0 0 1 -1.423746,-0.381592 z m 0.400066,0 1.42399,2.46639 a 3.5999999,3.5999999 0 0 1 -1.42399,0.381592 z" /><path
       id="path16521"
       style="fill:#ff6c04;stroke-width:0.629921"
       d="m 51.945666,13.001959 v 0.0054 a 4,4 0 0 0 -1.624104,0.43514 l -0.0027,-0.0047 -0.346354,0.200033 0.0025,0.0043 A 4,4 0 0 0 48.78588,14.83126 l -0.0043,-0.0025 -0.200033,0.346354 0.0047,0.0027 a 4,4 0 0 0 -0.43514,1.624104 h -0.0054 v 0.200033 0.200033 h 0.0054 a 4,4 0 0 0 0.43514,1.624104 l -0.0047,0.0027 0.200033,0.346354 0.0043,-0.0025 a 4,4 0 0 0 1.189128,1.189128 l -0.0025,0.0043 0.346354,0.200033 0.0027,-0.0047 a 4,4 0 0 0 1.624104,0.43514 v 0.0055 h 0.200033 0.200033 v -0.0055 a 4,4 0 0 0 1.624104,-0.43514 l 0.0027,0.0047 0.346354,-0.200033 -0.0025,-0.0043 a 4,4 0 0 0 1.189128,-1.189128 l 0.0043,0.0025 0.200033,-0.346354 -0.0047,-0.0027 a 4,4 0 0 0 0.43514,-1.624104 h 0.0055 v -0.200033 -0.200033 h -0.005 a 4,4 0 0 0 -0.435359,-1.624259 l 0.0044,-0.0025 -0.09326,-0.161377 -0.106771,-0.184977 -0.0043,0.0025 a 4,4 0 0 0 -1.189128,-1.189128 l 0.0025,-0.0043 -0.184977,-0.106771 -0.161377,-0.09326 -0.0025,0.0044 a 4,4 0 0 0 -1.624287,-0.435241 v -0.0051 h -0.200033 z m 0.400066,0.405599 a 3.5999999,3.5999999 0 0 1 1.42399,0.381592 l -1.42399,2.46639 z m -0.400066,3.25e-4 V 16.25554 L 50.52192,13.789475 a 3.5999999,3.5999999 0 0 1 1.423746,-0.381592 z m -1.770345,0.581218 1.423991,2.466471 -2.466471,-1.423991 a 3.5999999,3.5999999 0 0 1 1.04248,-1.04248 z m 3.940756,0 a 3.5999999,3.5999999 0 0 1 1.04248,1.04248 l -2.466471,1.424073 z m 1.242431,1.388835 a 3.5999999,3.5999999 0 0 1 0.381592,1.42399 h -2.847982 z m -6.425293,2.44e-4 2.466065,1.423746 h -2.847657 a 3.5999999,3.5999999 0 0 1 0.381592,-1.423746 z m -0.381592,1.823812 h 2.847657 l -2.466065,1.423746 a 3.5999999,3.5999999 0 0 1 -0.381592,-1.423746 z m 4.340495,0 H 55.7401 a 3.5999999,3.5999999 0 0 1 -0.381592,1.42399 z m -1.292806,0.346272 -1.423991,2.466553 a 3.5999999,3.5999999 0 0 1 -1.04248,-1.04248 z m 1.092774,8.2e-5 2.466471,1.423991 a 3.5999999,3.5999999 0 0 1 -1.04248,1.04248 z m -0.74642,0.200032 v 2.847657 A 3.5999999,3.5999999 0 0 1 50.52192,20.214443 Z m 0.400066,0 1.42399,2.46639 a 3.5999999,3.5999999 0 0 1 -1.42399,0.381592 z" /><path
       id="path16523"
       style="fill:#ff6c04;stroke-width:0.629921"
       d="m 3.8253,12.977689 v 0.0054 a 4,4 0 0 0 -1.624104,0.43514 l -0.0027,-0.0047 -0.346354,0.200033 0.0025,0.0043 A 4,4 0 0 0 0.66551398,14.80699 l -0.0043,-0.0025 -0.200033,0.346354 0.0047,0.0027 a 4,4 0 0 0 -0.43514,1.624104 h -0.0054 v 0.200033 0.200033 h 0.0054 a 4,4 0 0 0 0.43514,1.624104 l -0.0047,0.0027 0.200033,0.346354 0.0043,-0.0025 A 4,4 0 0 0 1.854642,20.3375 l -0.0025,0.0043 0.346354,0.200033 0.0027,-0.0047 a 4,4 0 0 0 1.624104,0.43514 v 0.0055 h 0.200033 0.200033 v -0.0055 a 4,4 0 0 0 1.624104,-0.43514 l 0.0027,0.0047 0.346354,-0.200033 -0.0025,-0.0043 a 4,4 0 0 0 1.189128,-1.189128 l 0.0043,0.0025 0.200033,-0.346354 -0.0047,-0.0027 a 4,4 0 0 0 0.43514,-1.624104 h 0.0055 v -0.200033 -0.200033 h -0.005 A 4,4 0 0 0 7.585066,15.153389 l 0.0044,-0.0025 -0.09326,-0.161377 -0.106771,-0.184977 -0.0043,0.0025 A 4,4 0 0 0 6.196007,13.617907 l 0.0025,-0.0043 -0.184977,-0.106771 -0.161377,-0.09326 -0.0025,0.0044 A 4,4 0 0 0 4.225366,12.982735 v -0.0051 H 4.025333 Z m 0.400066,0.405599 a 3.5999999,3.5999999 0 0 1 1.42399,0.381592 l -1.42399,2.46639 z M 3.8253,13.383613 V 16.23127 L 2.401554,13.765205 A 3.5999999,3.5999999 0 0 1 3.8253,13.383613 Z m -1.770345,0.581218 1.423991,2.466471 -2.466471,-1.423991 a 3.5999999,3.5999999 0 0 1 1.04248,-1.04248 z m 3.940756,0 a 3.5999999,3.5999999 0 0 1 1.04248,1.04248 L 4.57172,16.431384 Z m 1.242431,1.388835 a 3.5999999,3.5999999 0 0 1 0.381592,1.42399 H 4.771752 Z M 0.81284898,15.35391 3.278914,16.777656 H 0.43125698 a 3.5999999,3.5999999 0 0 1 0.381592,-1.423746 z m -0.381592,1.823812 H 3.278914 l -2.46606502,1.423746 a 3.5999999,3.5999999 0 0 1 -0.381592,-1.423746 z m 4.34049502,0 h 2.847982 a 3.5999999,3.5999999 0 0 1 -0.381592,1.42399 z m -1.292806,0.346272 -1.423991,2.466553 a 3.5999999,3.5999999 0 0 1 -1.04248,-1.04248 z m 1.092774,8.2e-5 2.466471,1.423991 a 3.5999999,3.5999999 0 0 1 -1.04248,1.04248 z M 3.8253,17.724108 v 2.847657 A 3.5999999,3.5999999 0 0 1 2.401554,20.190173 Z m 0.400066,0 1.42399,2.46639 a 3.5999999,3.5999999 0 0 1 -1.42399,0.381592 z" /><path
       id="path16525"
       style="fill:#ff6c04;stroke-width:0.314956"
       d="m 10.006058,8.9486537 v 0.0027 a 1.999979,1.9999655 0 0 0 -0.8120436,0.217566 l -0.00135,-0.0023 -0.1731752,0.100015 0.00125,0.0021 a 1.999979,1.9999655 0 0 0 -0.5945578,0.594554 l -0.00215,-0.0012 -0.1000155,0.1731743 0.00235,0.0014 a 1.999979,1.9999655 0 0 0 -0.2175677,0.812038 h -0.0027 v 0.100015 0.100014 h 0.0027 a 1.999979,1.9999655 0 0 0 0.2175677,0.812038 l -0.00235,0.0014 0.1000155,0.173174 0.00215,-0.0013 a 1.999979,1.9999655 0 0 0 0.5945578,0.594554 l -0.00125,0.0022 0.1731752,0.100015 0.00135,-0.0023 a 1.999979,1.9999655 0 0 0 0.8120436,0.217566 v 0.0028 h 0.100016 0.100015 v -0.0028 a 1.999979,1.9999655 0 0 0 0.812044,-0.217566 l 0.0014,0.0023 0.173175,-0.100015 -0.0012,-0.0022 a 1.999979,1.9999655 0 0 0 0.594557,-0.594554 l 0.0022,0.0013 0.100016,-0.173174 -0.0024,-0.0014 a 1.999979,1.9999655 0 0 0 0.217568,-0.812138 h 0.0028 v -0.100014 -0.100015 h -0.0025 a 1.999979,1.9999655 0 0 0 -0.217678,-0.812116 l 0.0022,-0.0013 -0.04663,-0.08069 -0.05339,-0.09249 -0.0022,0.0012 a 1.999979,1.9999655 0 0 0 -0.594558,-0.594448 l 0.0013,-0.0021 -0.09249,-0.05338 -0.08069,-0.04663 -0.0012,0.0022 a 1.999979,1.9999655 0 0 0 -0.812135,-0.217617 v -0.0025 h -0.100014 z m 0.200031,0.202796 a 1.799981,1.7999689 0 0 1 0.711988,0.190793 l -0.711988,1.2331733 z m -0.200031,1.62e-4 V 10.575416 L 9.2941923,9.3424047 A 1.799981,1.7999689 0 0 1 10.006058,9.1516117 Z M 9.1208946,9.4422157 9.8328827,10.675431 8.5996601,9.9634467 a 1.799981,1.7999689 0 0 1 0.5212345,-0.521231 z m 1.9703574,0 a 1.799981,1.7999689 0 0 1 0.521235,0.521231 l -1.233223,0.7120253 z m 0.621209,0.6944063 a 1.799981,1.7999689 0 0 1 0.190794,0.711983 h -1.423976 z m -3.2126129,1.22e-4 1.2330196,0.711861 H 8.3090541 a 1.799981,1.7999689 0 0 1 0.190794,-0.711861 z m -0.190794,0.91189 h 1.4238136 l -1.2330196,0.711861 a 1.799981,1.7999689 0 0 1 -0.190794,-0.711861 z m 2.1702249,0 h 1.423976 a 1.799981,1.7999689 0 0 1 -0.190794,0.711983 z M 9.8328827,11.221767 9.1208946,12.455023 A 1.799981,1.7999689 0 0 1 8.5996601,11.933792 Z m 0.5463813,4.1e-5 1.233223,0.711984 a 1.799981,1.7999689 0 0 1 -0.521235,0.521231 z m -0.373206,0.100015 v 1.423804 A 1.799981,1.7999689 0 0 1 9.2941923,12.554834 Z m 0.200031,0 0.711988,1.233173 a 1.799981,1.7999689 0 0 1 -0.711988,0.190793 z" /><path
       id="path16527"
       style="fill:#ff6c04;stroke-width:0.314956"
       d="m 21.992353,8.9486537 v 0.0027 a 1.999979,1.9999655 0 0 0 -0.812044,0.217566 l -0.0014,-0.0023 -0.173175,0.100015 0.0013,0.0021 a 1.999979,1.9999655 0 0 0 -0.594558,0.594554 l -0.0022,-0.0012 -0.100015,0.1731743 0.0023,0.0014 a 1.999979,1.9999655 0 0 0 -0.217568,0.812038 h -0.0027 v 0.100015 0.100014 h 0.0027 a 1.999979,1.9999655 0 0 0 0.217568,0.812038 l -0.0023,0.0014 0.100015,0.173174 0.0022,-0.0013 a 1.999979,1.9999655 0 0 0 0.594558,0.594554 l -0.0013,0.0022 0.173175,0.100015 0.0014,-0.0023 a 1.999979,1.9999655 0 0 0 0.812044,0.217566 v 0.0028 h 0.100016 0.100015 v -0.0028 a 1.999979,1.9999655 0 0 0 0.812044,-0.217566 l 0.0014,0.0023 0.173175,-0.100015 -0.0012,-0.0022 a 1.999979,1.9999655 0 0 0 0.594557,-0.594554 l 0.0022,0.0013 0.100016,-0.173174 -0.0024,-0.0014 a 1.999979,1.9999655 0 0 0 0.217568,-0.812138 h 0.0028 v -0.100014 -0.100015 h -0.0025 a 1.999979,1.9999655 0 0 0 -0.217678,-0.812116 l 0.0022,-0.0013 -0.04663,-0.08069 -0.05339,-0.09249 -0.0022,0.0012 a 1.999979,1.9999655 0 0 0 -0.594558,-0.594448 l 0.0013,-0.0021 -0.09249,-0.05338 -0.08069,-0.04663 -0.0012,0.0022 a 1.999979,1.9999655 0 0 0 -0.812135,-0.217617 v -0.0025 h -0.100014 z m 0.200031,0.2027959 a 1.799981,1.7999689 0 0 1 0.711988,0.190793 l -0.711988,1.2331734 z m -0.200031,1.62e-4 V 10.575416 L 21.280487,9.3424047 a 1.799981,1.7999689 0 0 1 0.711866,-0.1907931 z m -0.885163,0.290604 0.711988,1.2332154 -1.233223,-0.7119844 a 1.799981,1.7999689 0 0 1 0.521235,-0.521231 z m 1.970357,0 a 1.799981,1.7999689 0 0 1 0.521235,0.521231 l -1.233223,0.7120254 z m 0.621209,0.6944064 a 1.799981,1.7999689 0 0 1 0.190794,0.711983 h -1.423976 z m -3.212613,1.22e-4 1.23302,0.711861 h -1.423814 a 1.799981,1.7999689 0 0 1 0.190794,-0.711861 z m -0.190794,0.91189 h 1.423814 l -1.23302,0.711861 a 1.799981,1.7999689 0 0 1 -0.190794,-0.711861 z m 2.170225,0 h 1.423976 a 1.799981,1.7999689 0 0 1 -0.190794,0.711983 z m -0.646396,0.173133 -0.711988,1.233256 a 1.799981,1.7999689 0 0 1 -0.521235,-0.521231 z m 0.546381,4.1e-5 1.233223,0.711984 a 1.799981,1.7999689 0 0 1 -0.521235,0.521231 z m -0.373206,0.100015 v 1.423804 a 1.799981,1.7999689 0 0 1 -0.711866,-0.190793 z m 0.200031,0 0.711988,1.233173 a 1.799981,1.7999689 0 0 1 -0.711988,0.190793 z" /><path
       id="path16529"
       style="fill:#ff6c04;stroke-width:0.314956"
       d="m 33.978598,8.9486534 v 0.0027 a 1.999979,1.9999655 0 0 0 -0.812044,0.217566 l -0.0014,-0.0023 -0.173175,0.100015 0.0013,0.0021 a 1.999979,1.9999655 0 0 0 -0.594558,0.594554 l -0.0022,-0.0012 -0.100015,0.1731736 0.0023,0.0014 A 1.999979,1.9999655 0 0 0 32.081238,10.8487 h -0.0027 v 0.100016 0.100014 h 0.0027 a 1.999979,1.9999655 0 0 0 0.217568,0.812038 l -0.0023,0.0014 0.100015,0.173174 0.0022,-0.0013 a 1.999979,1.9999655 0 0 0 0.594558,0.594554 l -0.0013,0.0022 0.173175,0.100015 0.0014,-0.0023 a 1.999979,1.9999655 0 0 0 0.812044,0.217566 v 0.0028 h 0.100016 0.100015 v -0.0028 a 1.999979,1.9999655 0 0 0 0.812044,-0.217566 l 0.0014,0.0023 0.173175,-0.100015 -0.0012,-0.0022 a 1.999979,1.9999655 0 0 0 0.594557,-0.594554 l 0.0022,0.0013 0.100016,-0.173174 -0.0024,-0.0014 a 1.999979,1.9999655 0 0 0 0.217568,-0.812138 h 0.0028 V 10.948616 10.8486 h -0.0025 a 1.999979,1.9999655 0 0 0 -0.217678,-0.812116 l 0.0022,-0.0013 -0.04663,-0.08069 -0.05339,-0.09249 -0.0022,0.0012 a 1.999979,1.9999655 0 0 0 -0.594558,-0.594448 l 0.0013,-0.0021 -0.09249,-0.05338 -0.08069,-0.04663 -0.0012,0.0022 a 1.999979,1.9999655 0 0 0 -0.812135,-0.217617 v -0.0025 h -0.100014 z m 0.200031,0.202796 a 1.799981,1.7999689 0 0 1 0.711988,0.190793 l -0.711988,1.2331726 z m -0.200031,1.62e-4 V 10.575415 L 33.266732,9.3424044 a 1.799981,1.7999689 0 0 1 0.711866,-0.190793 z M 33.093435,9.4422154 33.805423,10.67543 32.5722,9.9634464 a 1.799981,1.7999689 0 0 1 0.521235,-0.521231 z m 1.970357,0 a 1.799981,1.7999689 0 0 1 0.521235,0.521231 l -1.233223,0.7120246 z m 0.621209,0.6944056 a 1.799981,1.7999689 0 0 1 0.190794,0.711983 h -1.423976 z m -3.212613,1.22e-4 1.23302,0.711861 h -1.423814 a 1.799981,1.7999689 0 0 1 0.190794,-0.711861 z m -0.190794,0.911891 h 1.423814 l -1.23302,0.711861 a 1.799981,1.7999689 0 0 1 -0.190794,-0.711861 z m 2.170225,0 h 1.423976 a 1.799981,1.7999689 0 0 1 -0.190794,0.711983 z m -0.646396,0.173133 -0.711988,1.233256 A 1.799981,1.7999689 0 0 1 32.5722,11.933792 Z m 0.546381,4.1e-5 1.233223,0.711984 a 1.799981,1.7999689 0 0 1 -0.521235,0.521231 z m -0.373206,0.100015 v 1.423804 a 1.799981,1.7999689 0 0 1 -0.711866,-0.190793 z m 0.200031,0 0.711988,1.233173 a 1.799981,1.7999689 0 0 1 -0.711988,0.190793 z" /><path
       id="path16531"
       style="fill:#ff6c04;stroke-width:0.314956"
       d="m 45.964843,8.9486533 v 0.0027 a 1.999979,1.9999655 0 0 0 -0.812044,0.217566 l -0.0014,-0.0023 -0.173175,0.100015 0.0013,0.0021 a 1.999979,1.9999655 0 0 0 -0.594558,0.594554 l -0.0022,-0.0012 -0.100015,0.1731737 0.0023,0.0014 A 1.999979,1.9999655 0 0 0 44.067483,10.8487 h -0.0027 v 0.100016 0.100015 h 0.0027 a 1.999979,1.9999655 0 0 0 0.217568,0.812038 l -0.0023,0.0014 0.100015,0.173174 0.0022,-0.0013 a 1.999979,1.9999655 0 0 0 0.594558,0.594554 l -0.0013,0.0022 0.173175,0.100015 0.0014,-0.0023 a 1.999979,1.9999655 0 0 0 0.812044,0.217566 v 0.0028 h 0.100016 0.100015 v -0.0028 a 1.999979,1.9999655 0 0 0 0.812044,-0.217566 l 0.0014,0.0023 0.173175,-0.100015 -0.0012,-0.0022 a 1.999979,1.9999655 0 0 0 0.594557,-0.594554 l 0.0022,0.0013 0.100016,-0.173174 -0.0024,-0.0014 a 1.999979,1.9999655 0 0 0 0.217568,-0.812139 h 0.0028 V 10.948616 10.8486 h -0.0025 a 1.999979,1.9999655 0 0 0 -0.217678,-0.812116 l 0.0022,-0.0013 -0.04663,-0.08069 -0.05339,-0.09249 -0.0022,0.0012 a 1.999979,1.9999655 0 0 0 -0.594558,-0.594448 l 0.0013,-0.0021 -0.09249,-0.05338 -0.08069,-0.04663 -0.0012,0.0022 a 1.999979,1.9999655 0 0 0 -0.812135,-0.217617 v -0.0025 h -0.100014 z m 0.200031,0.202796 a 1.799981,1.7999689 0 0 1 0.711988,0.190793 l -0.711988,1.2331727 z m -0.200031,1.62e-4 V 10.575415 L 45.252977,9.3424043 a 1.799981,1.7999689 0 0 1 0.711866,-0.190793 z M 45.07968,9.4422153 45.791668,10.67543 44.558445,9.9634463 a 1.799981,1.7999689 0 0 1 0.521235,-0.521231 z m 1.970357,0 a 1.799981,1.7999689 0 0 1 0.521235,0.521231 l -1.233223,0.7120247 z m 0.621209,0.6944057 a 1.799981,1.7999689 0 0 1 0.190794,0.711983 h -1.423976 z m -3.212613,1.22e-4 1.23302,0.711861 h -1.423814 a 1.799981,1.7999689 0 0 1 0.190794,-0.711861 z m -0.190794,0.911892 h 1.423814 l -1.23302,0.711861 a 1.799981,1.7999689 0 0 1 -0.190794,-0.711861 z m 2.170225,0 h 1.423976 a 1.799981,1.7999689 0 0 1 -0.190794,0.711983 z m -0.646396,0.173133 -0.711988,1.233256 a 1.799981,1.7999689 0 0 1 -0.521235,-0.521231 z m 0.546381,4e-5 1.233223,0.711984 a 1.799981,1.7999689 0 0 1 -0.521235,0.521231 z m -0.373206,0.100016 v 1.423804 a 1.799981,1.7999689 0 0 1 -0.711866,-0.190793 z m 0.200031,0 0.711988,1.233173 a 1.799981,1.7999689 0 0 1 -0.711988,0.190793 z" /><path
       id="path16561"
       style="fill:#ff6c04;stroke-width:0.314956"
       d="m 15.999256,4.909809 v 0.0027 a 1.999979,1.9999655 0 0 0 -0.812044,0.217566 l -0.0014,-0.0023 -0.173175,0.100015 0.0013,0.0021 a 1.999979,1.9999655 0 0 0 -0.594558,0.594554 l -0.0022,-0.0012 -0.100015,0.173174 0.0023,0.0014 a 1.999979,1.9999655 0 0 0 -0.217568,0.812038 h -0.0027 v 0.1000152 0.100014 h 0.0027 a 1.999979,1.9999655 0 0 0 0.217568,0.812038 l -0.0023,0.0014 0.100015,0.173174 0.0022,-0.0013 a 1.999979,1.9999655 0 0 0 0.594558,0.594554 l -0.0013,0.0022 0.173175,0.100015 0.0014,-0.0023 a 1.999979,1.9999655 0 0 0 0.812044,0.217566 v 0.0028 h 0.100016 0.100015 v -0.0028 a 1.999979,1.9999655 0 0 0 0.812044,-0.217566 l 0.0014,0.0023 0.173175,-0.100015 -0.0012,-0.0022 a 1.999979,1.9999655 0 0 0 0.594557,-0.594554 l 0.0022,0.0013 0.100016,-0.173174 -0.0024,-0.0014 a 1.999979,1.9999655 0 0 0 0.217568,-0.812138 h 0.0028 V 6.9097712 6.8097559 h -0.0025 a 1.999979,1.9999655 0 0 0 -0.217678,-0.812116 l 0.0022,-0.0013 -0.04663,-0.08069 -0.05339,-0.09249 -0.0022,0.0012 a 1.999979,1.9999655 0 0 0 -0.594558,-0.594448 l 0.0013,-0.0021 -0.09249,-0.05338 -0.08069,-0.04663 -0.0012,0.0022 a 1.999979,1.9999655 0 0 0 -0.812135,-0.217617 v -0.0025 h -0.100014 z m 0.200031,0.2027959 a 1.799981,1.7999689 0 0 1 0.711988,0.190793 l -0.711988,1.233173 z m -0.200031,1.62e-4 v 1.423804 L 15.28739,5.30356 a 1.799981,1.7999689 0 0 1 0.711866,-0.1907931 z m -0.885163,0.290604 0.711988,1.233215 -1.233223,-0.711984 a 1.799981,1.7999689 0 0 1 0.521235,-0.521231 z m 1.970357,0 a 1.799981,1.7999689 0 0 1 0.521235,0.521231 l -1.233223,0.712025 z m 0.621209,0.694406 a 1.799981,1.7999689 0 0 1 0.190794,0.711983 h -1.423976 z m -3.212613,1.22e-4 1.23302,0.711861 h -1.423814 a 1.799981,1.7999689 0 0 1 0.190794,-0.711861 z m -0.190794,0.9118903 h 1.423814 l -1.23302,0.711861 a 1.799981,1.7999689 0 0 1 -0.190794,-0.711861 z m 2.170225,0 h 1.423976 a 1.799981,1.7999689 0 0 1 -0.190794,0.711983 z m -0.646396,0.173133 -0.711988,1.233256 a 1.799981,1.7999689 0 0 1 -0.521235,-0.521231 z m 0.546381,4.1e-5 1.233223,0.711984 a 1.799981,1.7999689 0 0 1 -0.521235,0.521231 z m -0.373206,0.100015 v 1.423804 A 1.799981,1.7999689 0 0 1 15.28739,8.5159892 Z m 0.200031,0 0.711988,1.233173 a 1.799981,1.7999689 0 0 1 -0.711988,0.190793 z" /><path
       id="path16563"
       style="fill:#ff6c04;stroke-width:0.314956"
       d="m 27.985501,4.9098087 v 0.0027 a 1.999979,1.9999655 0 0 0 -0.812044,0.217566 l -0.0014,-0.0023 -0.173175,0.100015 0.0013,0.0021 a 1.999979,1.9999655 0 0 0 -0.594558,0.594554 l -0.0022,-0.0012 -0.100015,0.173174 0.0023,0.0014 a 1.999979,1.9999655 0 0 0 -0.217568,0.8120379 h -0.0027 v 0.1000156 0.100014 h 0.0027 a 1.999979,1.9999655 0 0 0 0.217568,0.812038 l -0.0023,0.0014 0.100015,0.173174 0.0022,-0.0013 a 1.999979,1.9999655 0 0 0 0.594558,0.594554 l -0.0013,0.0022 0.173175,0.100015 0.0014,-0.0023 a 1.999979,1.9999655 0 0 0 0.812044,0.217566 v 0.0028 h 0.100016 0.100015 v -0.0028 a 1.999979,1.9999655 0 0 0 0.812044,-0.217566 l 0.0014,0.0023 0.173175,-0.100015 -0.0012,-0.0022 a 1.999979,1.9999655 0 0 0 0.594557,-0.594554 l 0.0022,0.0013 0.100016,-0.173174 -0.0024,-0.0014 a 1.999979,1.9999655 0 0 0 0.217568,-0.812138 h 0.0028 V 6.9097712 6.8097556 h -0.0025 A 1.999979,1.9999655 0 0 0 29.865514,5.9976397 l 0.0022,-0.0013 -0.04663,-0.08069 -0.05339,-0.09249 -0.0022,0.0012 a 1.999979,1.9999655 0 0 0 -0.594558,-0.594448 l 0.0013,-0.0021 -0.09249,-0.05338 -0.08069,-0.04663 -0.0012,0.0022 a 1.999979,1.9999655 0 0 0 -0.812135,-0.217617 v -0.0025 h -0.100014 z m 0.200031,0.202796 a 1.799981,1.7999689 0 0 1 0.711988,0.190793 l -0.711988,1.233173 z m -0.200031,1.62e-4 v 1.423804 l -0.711866,-1.233011 a 1.799981,1.7999689 0 0 1 0.711866,-0.190793 z m -0.885163,0.290604 0.711988,1.233215 -1.233223,-0.711984 a 1.799981,1.7999689 0 0 1 0.521235,-0.521231 z m 1.970357,0 a 1.799981,1.7999689 0 0 1 0.521235,0.521231 l -1.233223,0.712025 z m 0.621209,0.694406 a 1.799981,1.7999689 0 0 1 0.190794,0.7119829 h -1.423976 z m -3.212613,1.22e-4 1.23302,0.7118609 h -1.423814 a 1.799981,1.7999689 0 0 1 0.190794,-0.7118609 z m -0.190794,0.9118905 h 1.423814 l -1.23302,0.711861 a 1.799981,1.7999689 0 0 1 -0.190794,-0.711861 z m 2.170225,0 h 1.423976 a 1.799981,1.7999689 0 0 1 -0.190794,0.711983 z m -0.646396,0.173133 -0.711988,1.233256 a 1.799981,1.7999689 0 0 1 -0.521235,-0.521231 z m 0.546381,4.1e-5 1.233223,0.711984 a 1.799981,1.7999689 0 0 1 -0.521235,0.521231 z m -0.373206,0.100015 v 1.423804 a 1.799981,1.7999689 0 0 1 -0.711866,-0.190793 z m 0.200031,0 0.711988,1.233173 a 1.799981,1.7999689 0 0 1 -0.711988,0.190793 z" /><path
       id="path16565"
       style="fill:#ff6c04;stroke-width:0.314956"
       d="m 39.971746,4.9098086 v 0.0027 a 1.999979,1.9999655 0 0 0 -0.812044,0.217566 l -0.0014,-0.0023 -0.173175,0.100015 0.0013,0.0021 a 1.999979,1.9999655 0 0 0 -0.594558,0.594554 l -0.0022,-0.0012 -0.100015,0.173174 0.0023,0.0014 a 1.999979,1.9999655 0 0 0 -0.217568,0.8120379 h -0.0027 v 0.1000157 0.100015 h 0.0027 a 1.999979,1.9999655 0 0 0 0.217568,0.812038 l -0.0023,0.0014 0.100015,0.173174 0.0022,-0.0013 a 1.999979,1.9999655 0 0 0 0.594558,0.594554 l -0.0013,0.0022 0.173175,0.100015 0.0014,-0.0023 a 1.999979,1.9999655 0 0 0 0.812044,0.217566 v 0.0028 h 0.100016 0.100015 v -0.0028 a 1.999979,1.9999655 0 0 0 0.812044,-0.217566 l 0.0014,0.0023 0.173175,-0.100015 -0.0012,-0.0022 a 1.999979,1.9999655 0 0 0 0.594557,-0.594554 l 0.0022,0.0013 0.100016,-0.173174 -0.0024,-0.0014 a 1.999979,1.9999655 0 0 0 0.217568,-0.812139 h 0.0028 V 6.9097712 6.8097555 h -0.0025 A 1.999979,1.9999655 0 0 0 41.851759,5.9976396 l 0.0022,-0.0013 -0.04663,-0.08069 -0.05339,-0.09249 -0.0022,0.0012 a 1.999979,1.9999655 0 0 0 -0.594558,-0.594448 l 0.0013,-0.0021 -0.09249,-0.05338 -0.08069,-0.04663 -0.0012,0.0022 a 1.999979,1.9999655 0 0 0 -0.812135,-0.217617 v -0.0025 h -0.100014 z m 0.200031,0.202796 a 1.799981,1.7999689 0 0 1 0.711988,0.190793 l -0.711988,1.233173 z m -0.200031,1.62e-4 v 1.423804 L 39.25988,5.3035596 a 1.799981,1.7999689 0 0 1 0.711866,-0.190793 z m -0.885163,0.290604 0.711988,1.233215 -1.233223,-0.711984 a 1.799981,1.7999689 0 0 1 0.521235,-0.521231 z m 1.970357,0 a 1.799981,1.7999689 0 0 1 0.521235,0.521231 l -1.233223,0.712025 z m 0.621209,0.694406 a 1.799981,1.7999689 0 0 1 0.190794,0.7119829 h -1.423976 z m -3.212613,1.22e-4 1.23302,0.7118609 h -1.423814 a 1.799981,1.7999689 0 0 1 0.190794,-0.7118609 z m -0.190794,0.9118916 h 1.423814 l -1.23302,0.711861 a 1.799981,1.7999689 0 0 1 -0.190794,-0.711861 z m 2.170225,0 h 1.423976 a 1.799981,1.7999689 0 0 1 -0.190794,0.711983 z m -0.646396,0.173133 -0.711988,1.233256 a 1.799981,1.7999689 0 0 1 -0.521235,-0.521231 z m 0.546381,4e-5 1.233223,0.711984 a 1.799981,1.7999689 0 0 1 -0.521235,0.521231 z m -0.373206,0.100016 v 1.423804 A 1.799981,1.7999689 0 0 1 39.25988,8.5159902 Z m 0.200031,0 0.711988,1.233173 a 1.799981,1.7999689 0 0 1 -0.711988,0.190793 z" /><path
       id="path16573"
       style="fill:#ff6c04;stroke-width:0.314956"
       d="m 10.006058,0.87096424 v 0.0027 A 1.999979,1.9999655 0 0 0 9.1940143,1.0912302 l -0.00135,-0.0023 -0.1731752,0.100015 0.00125,0.0021 a 1.999979,1.9999655 0 0 0 -0.5945579,0.594554 l -0.00215,-0.0012 -0.1000154,0.173174 0.00235,0.0014 A 1.999979,1.9999655 0 0 0 8.1087981,2.7710113 h -0.0027 v 0.1000152 0.100014 h 0.0027 a 1.999979,1.9999655 0 0 0 0.2175677,0.812038 l -0.00235,0.0014 0.1000154,0.173174 0.00215,-0.0013 a 1.999979,1.9999655 0 0 0 0.5945579,0.594554 l -0.00125,0.0022 0.1731752,0.100015 0.00135,-0.0023 a 1.999979,1.9999655 0 0 0 0.8120437,0.217566 v 0.0028 h 0.100016 0.100015 v -0.0028 a 1.999979,1.9999655 0 0 0 0.812044,-0.217566 l 0.0014,0.0023 0.173175,-0.100015 -0.0012,-0.0022 a 1.999979,1.9999655 0 0 0 0.594557,-0.594554 l 0.0022,0.0013 0.100016,-0.173174 -0.0024,-0.0014 a 1.999979,1.9999655 0 0 0 0.217568,-0.812138 h 0.0028 V 2.8709265 2.7709113 h -0.0025 A 1.999979,1.9999655 0 0 0 11.886071,1.9587952 l 0.0022,-0.0013 -0.04663,-0.08069 -0.05339,-0.09249 -0.0022,0.0012 a 1.999979,1.9999655 0 0 0 -0.594558,-0.594448 l 0.0013,-0.0021 -0.09249,-0.05338 -0.08069,-0.04663 -0.0012,0.0022 A 1.999979,1.9999655 0 0 0 10.206278,0.87354024 v -0.0025 h -0.100014 z m 0.200031,0.20279596 a 1.799981,1.7999689 0 0 1 0.711988,0.190793 l -0.711988,1.2331731 z m -0.200031,1.62e-4 V 2.4977263 L 9.2941922,1.2647152 A 1.799981,1.7999689 0 0 1 10.006058,1.0739222 Z M 9.1208946,1.3645262 9.8328826,2.5977413 8.5996601,1.8857572 a 1.799981,1.7999689 0 0 1 0.5212345,-0.521231 z m 1.9703574,0 a 1.799981,1.7999689 0 0 1 0.521235,0.521231 l -1.233223,0.7120251 z m 0.621209,0.6944061 a 1.799981,1.7999689 0 0 1 0.190794,0.711983 h -1.423976 z m -3.2126129,1.22e-4 1.2330196,0.711861 H 8.309054 A 1.799981,1.7999689 0 0 1 8.4998481,2.0590543 Z M 8.309054,2.9709445 H 9.7328676 L 8.499848,3.6828055 A 1.799981,1.7999689 0 0 1 8.309054,2.9709445 Z m 2.170225,0 h 1.423976 a 1.799981,1.7999689 0 0 1 -0.190794,0.711983 z m -0.6463964,0.173133 -0.711988,1.233256 A 1.799981,1.7999689 0 0 1 8.5996601,3.8561025 Z m 0.5463814,4.1e-5 1.233223,0.711984 a 1.799981,1.7999689 0 0 1 -0.521235,0.521231 z m -0.373206,0.100015 v 1.423804 A 1.799981,1.7999689 0 0 1 9.2941922,4.4771445 Z m 0.200031,0 0.711988,1.233173 a 1.799981,1.7999689 0 0 1 -0.711988,0.190793 z" /><path
       id="path16575"
       style="fill:#ff6c04;stroke-width:0.314956"
       d="m 21.992353,0.87096424 v 0.0027 A 1.999979,1.9999655 0 0 0 21.180309,1.0912302 l -0.0014,-0.0023 -0.173175,0.100015 0.0013,0.0021 a 1.999979,1.9999655 0 0 0 -0.594558,0.594554 l -0.0022,-0.0012 -0.100015,0.173174 0.0023,0.0014 a 1.999979,1.9999655 0 0 0 -0.217568,0.8120381 h -0.0027 v 0.1000152 0.100014 h 0.0027 a 1.999979,1.9999655 0 0 0 0.217568,0.812038 l -0.0023,0.0014 0.100015,0.173174 0.0022,-0.0013 a 1.999979,1.9999655 0 0 0 0.594558,0.594554 l -0.0013,0.0022 0.173175,0.100015 0.0014,-0.0023 a 1.999979,1.9999655 0 0 0 0.812044,0.217566 v 0.0028 h 0.100016 0.100015 v -0.0028 a 1.999979,1.9999655 0 0 0 0.812044,-0.217566 l 0.0014,0.0023 0.173175,-0.100015 -0.0012,-0.0022 a 1.999979,1.9999655 0 0 0 0.594557,-0.594554 l 0.0022,0.0013 0.100016,-0.173174 -0.0024,-0.0014 a 1.999979,1.9999655 0 0 0 0.217568,-0.812138 h 0.0028 V 2.8709265 2.7709112 h -0.0025 A 1.999979,1.9999655 0 0 0 23.872366,1.9587951 l 0.0022,-0.0013 -0.04663,-0.08069 -0.05339,-0.09249 -0.0022,0.0012 a 1.999979,1.9999655 0 0 0 -0.594558,-0.594448 l 0.0013,-0.0021 -0.09249,-0.05338 -0.08069,-0.04663 -0.0012,0.0022 A 1.999979,1.9999655 0 0 0 22.192573,0.87354014 v -0.0025 h -0.100014 z m 0.200031,0.20279586 a 1.799981,1.7999689 0 0 1 0.711988,0.190793 l -0.711988,1.2331731 z m -0.200031,1.62e-4 v 1.4238041 l -0.711866,-1.233011 a 1.799981,1.7999689 0 0 1 0.711866,-0.1907931 z m -0.885163,0.290604 0.711988,1.2332151 -1.233223,-0.7119841 a 1.799981,1.7999689 0 0 1 0.521235,-0.521231 z m 1.970357,0 a 1.799981,1.7999689 0 0 1 0.521235,0.521231 l -1.233223,0.7120251 z m 0.621209,0.6944061 a 1.799981,1.7999689 0 0 1 0.190794,0.711983 h -1.423976 z m -3.212613,1.22e-4 1.23302,0.711861 h -1.423814 a 1.799981,1.7999689 0 0 1 0.190794,-0.711861 z m -0.190794,0.9118903 h 1.423814 l -1.23302,0.711861 a 1.799981,1.7999689 0 0 1 -0.190794,-0.711861 z m 2.170225,0 h 1.423976 a 1.799981,1.7999689 0 0 1 -0.190794,0.711983 z m -0.646396,0.173133 -0.711988,1.233256 a 1.799981,1.7999689 0 0 1 -0.521235,-0.521231 z m 0.546381,4.1e-5 1.233223,0.711984 a 1.799981,1.7999689 0 0 1 -0.521235,0.521231 z m -0.373206,0.100015 v 1.423804 a 1.799981,1.7999689 0 0 1 -0.711866,-0.190793 z m 0.200031,0 0.711988,1.233173 a 1.799981,1.7999689 0 0 1 -0.711988,0.190793 z" /><path
       id="path16577"
       style="fill:#ff6c04;stroke-width:0.314956"
       d="m 33.978598,0.87096394 v 0.0027 A 1.999979,1.9999655 0 0 0 33.166554,1.0912299 l -0.0014,-0.0023 -0.173175,0.100015 0.0013,0.0021 a 1.999979,1.9999655 0 0 0 -0.594558,0.594554 l -0.0022,-0.0012 -0.100015,0.173174 0.0023,0.0014 a 1.999979,1.9999655 0 0 0 -0.217568,0.812038 h -0.0027 v 0.1000156 0.100014 h 0.0027 a 1.999979,1.9999655 0 0 0 0.217568,0.812038 l -0.0023,0.0014 0.100015,0.173174 0.0022,-0.0013 a 1.999979,1.9999655 0 0 0 0.594558,0.594554 l -0.0013,0.0022 0.173175,0.100015 0.0014,-0.0023 a 1.999979,1.9999655 0 0 0 0.812044,0.217566 v 0.0028 h 0.100016 0.100015 v -0.0028 a 1.999979,1.9999655 0 0 0 0.812044,-0.217566 l 0.0014,0.0023 0.173175,-0.100015 -0.0012,-0.0022 a 1.999979,1.9999655 0 0 0 0.594557,-0.594554 l 0.0022,0.0013 0.100016,-0.173174 -0.0024,-0.0014 a 1.999979,1.9999655 0 0 0 0.217568,-0.812138 h 0.0028 V 2.8709265 2.7709109 h -0.0025 a 1.999979,1.9999655 0 0 0 -0.217678,-0.812116 l 0.0022,-0.0013 -0.04663,-0.08069 -0.05339,-0.09249 -0.0022,0.0012 a 1.999979,1.9999655 0 0 0 -0.594558,-0.594448 l 0.0013,-0.0021 -0.09249,-0.05338 -0.08069,-0.04663 -0.0012,0.0022 A 1.999979,1.9999655 0 0 0 34.178818,0.87353994 v -0.0025 h -0.100014 z m 0.200031,0.20279596 a 1.799981,1.7999689 0 0 1 0.711988,0.190793 L 34.178629,2.497726 Z m -0.200031,1.62e-4 V 2.497726 L 33.266732,1.2647149 a 1.799981,1.7999689 0 0 1 0.711866,-0.190793 z M 33.093435,1.3645259 33.805423,2.597741 32.5722,1.8857569 a 1.799981,1.7999689 0 0 1 0.521235,-0.521231 z m 1.970357,0 a 1.799981,1.7999689 0 0 1 0.521235,0.521231 L 34.351804,2.597782 Z m 0.621209,0.6944061 a 1.799981,1.7999689 0 0 1 0.190794,0.7119829 h -1.423976 z m -3.212613,1.22e-4 1.23302,0.7118609 H 32.281594 A 1.799981,1.7999689 0 0 1 32.472388,2.059054 Z m -0.190794,0.9118905 h 1.423814 l -1.23302,0.711861 a 1.799981,1.7999689 0 0 1 -0.190794,-0.711861 z m 2.170225,0 h 1.423976 a 1.799981,1.7999689 0 0 1 -0.190794,0.711983 z m -0.646396,0.173133 -0.711988,1.233256 A 1.799981,1.7999689 0 0 1 32.5722,3.8561025 Z m 0.546381,4.1e-5 1.233223,0.711984 a 1.799981,1.7999689 0 0 1 -0.521235,0.521231 z m -0.373206,0.100015 v 1.423804 a 1.799981,1.7999689 0 0 1 -0.711866,-0.190793 z m 0.200031,0 0.711988,1.233173 a 1.799981,1.7999689 0 0 1 -0.711988,0.190793 z" /><path
       id="path16579"
       style="fill:#ff6c04;stroke-width:0.314956"
       d="m 45.964843,0.87096384 v 0.0027 A 1.999979,1.9999655 0 0 0 45.152799,1.0912298 l -0.0014,-0.0023 -0.173175,0.100015 0.0013,0.0021 a 1.999979,1.9999655 0 0 0 -0.594558,0.594554 l -0.0022,-0.0012 -0.100015,0.173174 0.0023,0.0014 a 1.999979,1.9999655 0 0 0 -0.217568,0.812038 h -0.0027 v 0.1000157 0.100015 h 0.0027 a 1.999979,1.9999655 0 0 0 0.217568,0.812038 l -0.0023,0.0014 0.100015,0.173174 0.0022,-0.0013 a 1.999979,1.9999655 0 0 0 0.594558,0.594554 l -0.0013,0.0022 0.173175,0.100015 0.0014,-0.0023 a 1.999979,1.9999655 0 0 0 0.812044,0.217566 v 0.0028 h 0.100016 0.100015 v -0.0028 a 1.999979,1.9999655 0 0 0 0.812044,-0.217566 l 0.0014,0.0023 0.173175,-0.100015 -0.0012,-0.0022 a 1.999979,1.9999655 0 0 0 0.594557,-0.594554 l 0.0022,0.0013 0.100016,-0.173174 -0.0024,-0.0014 a 1.999979,1.9999655 0 0 0 0.217568,-0.812139 h 0.0028 V 2.8709265 2.7709108 h -0.0025 a 1.999979,1.9999655 0 0 0 -0.217678,-0.812116 l 0.0022,-0.0013 -0.04663,-0.08069 -0.05339,-0.09249 -0.0022,0.0012 a 1.999979,1.9999655 0 0 0 -0.594558,-0.594448 l 0.0013,-0.0021 -0.09249,-0.05338 -0.08069,-0.04663 -0.0012,0.0022 A 1.999979,1.9999655 0 0 0 46.165063,0.87353984 v -0.0025 h -0.100014 z m 0.200031,0.20279596 a 1.799981,1.7999689 0 0 1 0.711988,0.190793 l -0.711988,1.2331731 z m -0.200031,1.62e-4 V 2.4977259 L 45.252977,1.2647148 a 1.799981,1.7999689 0 0 1 0.711866,-0.190793 z m -0.885163,0.290604 0.711988,1.2332151 -1.233223,-0.7119841 a 1.799981,1.7999689 0 0 1 0.521235,-0.521231 z m 1.970357,0 a 1.799981,1.7999689 0 0 1 0.521235,0.521231 l -1.233223,0.7120251 z m 0.621209,0.6944061 a 1.799981,1.7999689 0 0 1 0.190794,0.7119829 h -1.423976 z m -3.212613,1.22e-4 1.23302,0.7118609 h -1.423814 a 1.799981,1.7999689 0 0 1 0.190794,-0.7118609 z m -0.190794,0.9118916 h 1.423814 l -1.23302,0.711861 a 1.799981,1.7999689 0 0 1 -0.190794,-0.711861 z m 2.170225,0 h 1.423976 a 1.799981,1.7999689 0 0 1 -0.190794,0.711983 z m -0.646396,0.173133 -0.711988,1.233256 a 1.799981,1.7999689 0 0 1 -0.521235,-0.521231 z m 0.546381,4e-5 1.233223,0.711984 a 1.799981,1.7999689 0 0 1 -0.521235,0.521231 z m -0.373206,0.100016 v 1.423804 a 1.799981,1.7999689 0 0 1 -0.711866,-0.190793 z m 0.200031,0 0.711988,1.233173 a 1.799981,1.7999689 0 0 1 -0.711988,0.190793 z" /><path
       id="path16612"
       style="fill:#ff6c04;stroke-width:0.314956"
       d="m 10.006058,29.128812 v 0.0027 a 1.999979,1.9999655 0 0 0 -0.8120436,0.217566 l -0.00135,-0.0023 -0.1731752,0.100015 0.00125,0.0021 a 1.999979,1.9999655 0 0 0 -0.5945578,0.594554 l -0.00215,-0.0012 -0.1000155,0.173174 0.00235,0.0014 a 1.999979,1.9999655 0 0 0 -0.2175677,0.812038 h -0.0027 v 0.100015 0.100014 h 0.0027 a 1.999979,1.9999655 0 0 0 0.2175677,0.812038 l -0.00235,0.0014 0.1000155,0.173174 0.00215,-0.0013 a 1.999979,1.9999655 0 0 0 0.5945578,0.594554 l -0.00125,0.0022 0.1731752,0.100015 0.00135,-0.0023 a 1.999979,1.9999655 0 0 0 0.8120436,0.217566 v 0.0028 h 0.100016 0.100015 v -0.0028 a 1.999979,1.9999655 0 0 0 0.812044,-0.217566 l 0.0014,0.0023 0.173175,-0.100015 -0.0012,-0.0022 A 1.999979,1.9999655 0 0 0 11.786065,32.2142 l 0.0022,0.0013 0.100016,-0.173174 -0.0024,-0.0014 a 1.999979,1.9999655 0 0 0 0.217568,-0.812138 h 0.0028 v -0.100014 -0.100015 h -0.0025 a 1.999979,1.9999655 0 0 0 -0.217678,-0.812116 l 0.0022,-0.0013 -0.04663,-0.08069 -0.05339,-0.09249 -0.0022,0.0012 a 1.999979,1.9999655 0 0 0 -0.594558,-0.594448 l 0.0013,-0.0021 -0.09249,-0.05338 -0.08069,-0.04663 -0.0012,0.0022 a 1.999979,1.9999655 0 0 0 -0.812135,-0.217617 v -0.0025 h -0.100014 z m 0.200031,0.202796 a 1.799981,1.7999689 0 0 1 0.711988,0.190793 l -0.711988,1.233173 z m -0.200031,1.62e-4 v 1.423804 L 9.2941923,29.522563 A 1.799981,1.7999689 0 0 1 10.006058,29.33177 Z m -0.8851634,0.290604 0.7119881,1.233215 -1.2332226,-0.711984 a 1.799981,1.7999689 0 0 1 0.5212345,-0.521231 z m 1.9703574,0 a 1.799981,1.7999689 0 0 1 0.521235,0.521231 l -1.233223,0.712025 z m 0.621209,0.694406 a 1.799981,1.7999689 0 0 1 0.190794,0.711983 h -1.423976 z m -3.2126129,1.22e-4 1.2330196,0.711861 H 8.3090541 a 1.799981,1.7999689 0 0 1 0.190794,-0.711861 z m -0.190794,0.91189 h 1.4238136 l -1.2330196,0.711861 a 1.799981,1.7999689 0 0 1 -0.190794,-0.711861 z m 2.1702249,0 h 1.423976 a 1.799981,1.7999689 0 0 1 -0.190794,0.711983 z M 9.8328827,31.401925 9.1208946,32.635181 A 1.799981,1.7999689 0 0 1 8.5996601,32.11395 Z m 0.5463813,4.1e-5 1.233223,0.711984 a 1.799981,1.7999689 0 0 1 -0.521235,0.521231 z m -0.373206,0.100015 v 1.423804 A 1.799981,1.7999689 0 0 1 9.2941923,32.734992 Z m 0.200031,0 0.711988,1.233173 a 1.799981,1.7999689 0 0 1 -0.711988,0.190793 z" /><path
       id="path16614"
       style="fill:#ff6c04;stroke-width:0.314956"
       d="m 21.992353,29.128812 v 0.0027 a 1.999979,1.9999655 0 0 0 -0.812044,0.217566 l -0.0014,-0.0023 -0.173175,0.100015 0.0013,0.0021 a 1.999979,1.9999655 0 0 0 -0.594558,0.594554 l -0.0022,-0.0012 -0.100015,0.173174 0.0023,0.0014 a 1.999979,1.9999655 0 0 0 -0.217568,0.812038 h -0.0027 v 0.100015 0.100014 h 0.0027 a 1.999979,1.9999655 0 0 0 0.217568,0.812038 l -0.0023,0.0014 0.100015,0.173174 0.0022,-0.0013 a 1.999979,1.9999655 0 0 0 0.594558,0.594554 l -0.0013,0.0022 0.173175,0.100015 0.0014,-0.0023 a 1.999979,1.9999655 0 0 0 0.812044,0.217566 v 0.0028 h 0.100016 0.100015 v -0.0028 a 1.999979,1.9999655 0 0 0 0.812044,-0.217566 l 0.0014,0.0023 0.173175,-0.100015 -0.0012,-0.0022 A 1.999979,1.9999655 0 0 0 23.77236,32.2142 l 0.0022,0.0013 0.100016,-0.173174 -0.0024,-0.0014 a 1.999979,1.9999655 0 0 0 0.217568,-0.812138 h 0.0028 v -0.100014 -0.100015 h -0.0025 a 1.999979,1.9999655 0 0 0 -0.217678,-0.812116 l 0.0022,-0.0013 -0.04663,-0.08069 -0.05339,-0.09249 -0.0022,0.0012 a 1.999979,1.9999655 0 0 0 -0.594558,-0.594448 l 0.0013,-0.0021 -0.09249,-0.05338 -0.08069,-0.04663 -0.0012,0.0022 a 1.999979,1.9999655 0 0 0 -0.812135,-0.217617 v -0.0025 h -0.100014 z m 0.200031,0.202796 a 1.799981,1.7999689 0 0 1 0.711988,0.190793 l -0.711988,1.233173 z m -0.200031,1.62e-4 v 1.423804 l -0.711866,-1.233011 a 1.799981,1.7999689 0 0 1 0.711866,-0.190793 z m -0.885163,0.290604 0.711988,1.233215 -1.233223,-0.711984 a 1.799981,1.7999689 0 0 1 0.521235,-0.521231 z m 1.970357,0 a 1.799981,1.7999689 0 0 1 0.521235,0.521231 l -1.233223,0.712025 z m 0.621209,0.694406 a 1.799981,1.7999689 0 0 1 0.190794,0.711983 h -1.423976 z m -3.212613,1.22e-4 1.23302,0.711861 h -1.423814 a 1.799981,1.7999689 0 0 1 0.190794,-0.711861 z m -0.190794,0.91189 h 1.423814 l -1.23302,0.711861 a 1.799981,1.7999689 0 0 1 -0.190794,-0.711861 z m 2.170225,0 h 1.423976 a 1.799981,1.7999689 0 0 1 -0.190794,0.711983 z m -0.646396,0.173133 -0.711988,1.233256 A 1.799981,1.7999689 0 0 1 20.585955,32.11395 Z m 0.546381,4.1e-5 1.233223,0.711984 a 1.799981,1.7999689 0 0 1 -0.521235,0.521231 z m -0.373206,0.100015 v 1.423804 a 1.799981,1.7999689 0 0 1 -0.711866,-0.190793 z m 0.200031,0 0.711988,1.233173 a 1.799981,1.7999689 0 0 1 -0.711988,0.190793 z" /><path
       id="path16616"
       style="fill:#ff6c04;stroke-width:0.314956"
       d="m 33.978598,29.128812 v 0.0027 a 1.999979,1.9999655 0 0 0 -0.812044,0.217566 l -0.0014,-0.0023 -0.173175,0.100015 0.0013,0.0021 a 1.999979,1.9999655 0 0 0 -0.594558,0.594554 l -0.0022,-0.0012 -0.100015,0.173174 0.0023,0.0014 a 1.999979,1.9999655 0 0 0 -0.217568,0.812038 h -0.0027 v 0.100016 0.100014 h 0.0027 a 1.999979,1.9999655 0 0 0 0.217568,0.812038 l -0.0023,0.0014 0.100015,0.173174 0.0022,-0.0013 a 1.999979,1.9999655 0 0 0 0.594558,0.594554 l -0.0013,0.0022 0.173175,0.100015 0.0014,-0.0023 a 1.999979,1.9999655 0 0 0 0.812044,0.217566 v 0.0028 h 0.100016 0.100015 v -0.0028 a 1.999979,1.9999655 0 0 0 0.812044,-0.217566 l 0.0014,0.0023 0.173175,-0.100015 -0.0012,-0.0022 a 1.999979,1.9999655 0 0 0 0.594557,-0.594554 l 0.0022,0.0013 0.100016,-0.173174 -0.0024,-0.0014 a 1.999979,1.9999655 0 0 0 0.217568,-0.812138 h 0.0028 v -0.100014 -0.100016 h -0.0025 a 1.999979,1.9999655 0 0 0 -0.217678,-0.812116 l 0.0022,-0.0013 -0.04663,-0.08069 -0.05339,-0.09249 -0.0022,0.0012 a 1.999979,1.9999655 0 0 0 -0.594558,-0.594448 l 0.0013,-0.0021 -0.09249,-0.05338 -0.08069,-0.04663 -0.0012,0.0022 a 1.999979,1.9999655 0 0 0 -0.812135,-0.217617 v -0.0025 h -0.100014 z m 0.200031,0.202795 a 1.799981,1.7999689 0 0 1 0.711988,0.190793 l -0.711988,1.233173 z m -0.200031,1.62e-4 v 1.423804 l -0.711866,-1.233011 a 1.799981,1.7999689 0 0 1 0.711866,-0.190793 z m -0.885163,0.290604 0.711988,1.233215 -1.233223,-0.711984 a 1.799981,1.7999689 0 0 1 0.521235,-0.521231 z m 1.970357,0 a 1.799981,1.7999689 0 0 1 0.521235,0.521231 l -1.233223,0.712025 z m 0.621209,0.694406 a 1.799981,1.7999689 0 0 1 0.190794,0.711983 h -1.423976 z m -3.212613,1.22e-4 1.23302,0.711861 h -1.423814 a 1.799981,1.7999689 0 0 1 0.190794,-0.711861 z m -0.190794,0.911891 h 1.423814 l -1.23302,0.711861 a 1.799981,1.7999689 0 0 1 -0.190794,-0.711861 z m 2.170225,0 h 1.423976 a 1.799981,1.7999689 0 0 1 -0.190794,0.711983 z m -0.646396,0.173133 -0.711988,1.233256 A 1.799981,1.7999689 0 0 1 32.5722,32.11395 Z m 0.546381,4.1e-5 1.233223,0.711984 a 1.799981,1.7999689 0 0 1 -0.521235,0.521231 z m -0.373206,0.100015 v 1.423804 a 1.799981,1.7999689 0 0 1 -0.711866,-0.190793 z m 0.200031,0 0.711988,1.233173 a 1.799981,1.7999689 0 0 1 -0.711988,0.190793 z" /><path
       id="path16618"
       style="fill:#ff6c04;stroke-width:0.314956"
       d="m 45.964843,29.128811 v 0.0027 a 1.999979,1.9999655 0 0 0 -0.812044,0.217566 l -0.0014,-0.0023 -0.173175,0.100015 0.0013,0.0021 a 1.999979,1.9999655 0 0 0 -0.594558,0.594554 l -0.0022,-0.0012 -0.100015,0.173174 0.0023,0.0014 a 1.999979,1.9999655 0 0 0 -0.217568,0.812038 h -0.0027 v 0.100016 0.100015 h 0.0027 a 1.999979,1.9999655 0 0 0 0.217568,0.812038 l -0.0023,0.0014 0.100015,0.173174 0.0022,-0.0013 a 1.999979,1.9999655 0 0 0 0.594558,0.594554 l -0.0013,0.0022 0.173175,0.100015 0.0014,-0.0023 a 1.999979,1.9999655 0 0 0 0.812044,0.217566 v 0.0028 h 0.100016 0.100015 v -0.0028 a 1.999979,1.9999655 0 0 0 0.812044,-0.217566 l 0.0014,0.0023 0.173175,-0.100015 -0.0012,-0.0022 a 1.999979,1.9999655 0 0 0 0.594557,-0.594554 l 0.0022,0.0013 0.100016,-0.173174 -0.0024,-0.0014 a 1.999979,1.9999655 0 0 0 0.217568,-0.812139 h 0.0028 v -0.100014 -0.100016 h -0.0025 a 1.999979,1.9999655 0 0 0 -0.217678,-0.812116 l 0.0022,-0.0013 -0.04663,-0.08069 -0.05339,-0.09249 -0.0022,0.0012 a 1.999979,1.9999655 0 0 0 -0.594558,-0.594448 l 0.0013,-0.0021 -0.09249,-0.05338 -0.08069,-0.04663 -0.0012,0.0022 a 1.999979,1.9999655 0 0 0 -0.812135,-0.217617 v -0.0025 h -0.100014 z m 0.200031,0.202796 a 1.799981,1.7999689 0 0 1 0.711988,0.190793 l -0.711988,1.233173 z m -0.200031,1.62e-4 v 1.423804 l -0.711866,-1.233011 a 1.799981,1.7999689 0 0 1 0.711866,-0.190793 z m -0.885163,0.290604 0.711988,1.233215 -1.233223,-0.711984 a 1.799981,1.7999689 0 0 1 0.521235,-0.521231 z m 1.970357,0 a 1.799981,1.7999689 0 0 1 0.521235,0.521231 l -1.233223,0.712025 z m 0.621209,0.694406 a 1.799981,1.7999689 0 0 1 0.190794,0.711983 h -1.423976 z m -3.212613,1.22e-4 1.23302,0.711861 h -1.423814 a 1.799981,1.7999689 0 0 1 0.190794,-0.711861 z m -0.190794,0.911892 h 1.423814 l -1.23302,0.711861 a 1.799981,1.7999689 0 0 1 -0.190794,-0.711861 z m 2.170225,0 h 1.423976 a 1.799981,1.7999689 0 0 1 -0.190794,0.711983 z m -0.646396,0.173133 -0.711988,1.233256 a 1.799981,1.7999689 0 0 1 -0.521235,-0.521231 z m 0.546381,4e-5 1.233223,0.711984 a 1.799981,1.7999689 0 0 1 -0.521235,0.521231 z m -0.373206,0.100016 v 1.423804 a 1.799981,1.7999689 0 0 1 -0.711866,-0.190793 z m 0.200031,0 0.711988,1.233173 a 1.799981,1.7999689 0 0 1 -0.711988,0.190793 z" /><path
       id="path16620"
       style="fill:#ff6c04;stroke-width:0.314956"
       d="m 15.999256,25.089967 v 0.0027 a 1.999979,1.9999655 0 0 0 -0.812044,0.217566 l -0.0014,-0.0023 -0.173175,0.100015 0.0013,0.0021 a 1.999979,1.9999655 0 0 0 -0.594558,0.594554 l -0.0022,-0.0012 -0.100015,0.173174 0.0023,0.0014 a 1.999979,1.9999655 0 0 0 -0.217568,0.812038 h -0.0027 v 0.100015 0.100014 h 0.0027 a 1.999979,1.9999655 0 0 0 0.217568,0.812038 l -0.0023,0.0014 0.100015,0.173174 0.0022,-0.0013 a 1.999979,1.9999655 0 0 0 0.594558,0.594554 l -0.0013,0.0022 0.173175,0.100015 0.0014,-0.0023 a 1.999979,1.9999655 0 0 0 0.812044,0.217566 v 0.0028 h 0.100016 0.100015 v -0.0028 a 1.999979,1.9999655 0 0 0 0.812044,-0.217566 l 0.0014,0.0023 0.173175,-0.100015 -0.0012,-0.0022 a 1.999979,1.9999655 0 0 0 0.594557,-0.594554 l 0.0022,0.0013 0.100016,-0.173174 -0.0024,-0.0014 a 1.999979,1.9999655 0 0 0 0.217568,-0.812138 h 0.0028 v -0.100014 -0.100015 h -0.0025 a 1.999979,1.9999655 0 0 0 -0.217678,-0.812116 l 0.0022,-0.0013 -0.04663,-0.08069 -0.05339,-0.09249 -0.0022,0.0012 A 1.999979,1.9999655 0 0 0 17.184691,25.41007 l 0.0013,-0.0021 -0.09249,-0.05338 -0.08069,-0.04663 -0.0012,0.0022 a 1.999979,1.9999655 0 0 0 -0.812135,-0.217617 v -0.0025 h -0.100014 z m 0.200031,0.202796 a 1.799981,1.7999689 0 0 1 0.711988,0.190793 l -0.711988,1.233173 z m -0.200031,1.62e-4 v 1.423804 L 15.28739,25.483718 a 1.799981,1.7999689 0 0 1 0.711866,-0.190793 z m -0.885163,0.290604 0.711988,1.233215 -1.233223,-0.711984 a 1.799981,1.7999689 0 0 1 0.521235,-0.521231 z m 1.970357,0 a 1.799981,1.7999689 0 0 1 0.521235,0.521231 l -1.233223,0.712025 z m 0.621209,0.694406 a 1.799981,1.7999689 0 0 1 0.190794,0.711983 h -1.423976 z m -3.212613,1.22e-4 1.23302,0.711861 h -1.423814 a 1.799981,1.7999689 0 0 1 0.190794,-0.711861 z m -0.190794,0.91189 h 1.423814 l -1.23302,0.711861 a 1.799981,1.7999689 0 0 1 -0.190794,-0.711861 z m 2.170225,0 h 1.423976 a 1.799981,1.7999689 0 0 1 -0.190794,0.711983 z m -0.646396,0.173133 -0.711988,1.233256 a 1.799981,1.7999689 0 0 1 -0.521235,-0.521231 z m 0.546381,4.1e-5 1.233223,0.711984 a 1.799981,1.7999689 0 0 1 -0.521235,0.521231 z m -0.373206,0.100015 V 28.88694 A 1.799981,1.7999689 0 0 1 15.28739,28.696147 Z m 0.200031,0 0.711988,1.233173 a 1.799981,1.7999689 0 0 1 -0.711988,0.190793 z" /><path
       id="path16622"
       style="fill:#ff6c04;stroke-width:0.314956"
       d="m 27.985501,25.089967 v 0.0027 a 1.999979,1.9999655 0 0 0 -0.812044,0.217566 l -0.0014,-0.0023 -0.173175,0.100015 0.0013,0.0021 a 1.999979,1.9999655 0 0 0 -0.594558,0.594554 l -0.0022,-0.0012 -0.100015,0.173174 0.0023,0.0014 a 1.999979,1.9999655 0 0 0 -0.217568,0.812038 h -0.0027 v 0.100015 0.100014 h 0.0027 a 1.999979,1.9999655 0 0 0 0.217568,0.812038 l -0.0023,0.0014 0.100015,0.173174 0.0022,-0.0013 a 1.999979,1.9999655 0 0 0 0.594558,0.594554 l -0.0013,0.0022 0.173175,0.100015 0.0014,-0.0023 a 1.999979,1.9999655 0 0 0 0.812044,0.217566 v 0.0028 h 0.100016 0.100015 v -0.0028 a 1.999979,1.9999655 0 0 0 0.812044,-0.217566 l 0.0014,0.0023 0.173175,-0.100015 -0.0012,-0.0022 a 1.999979,1.9999655 0 0 0 0.594557,-0.594554 l 0.0022,0.0013 0.100016,-0.173174 -0.0024,-0.0014 a 1.999979,1.9999655 0 0 0 0.217568,-0.812138 h 0.0028 v -0.100014 -0.100015 h -0.0025 a 1.999979,1.9999655 0 0 0 -0.217678,-0.812116 l 0.0022,-0.0013 -0.04663,-0.08069 -0.05339,-0.09249 -0.0022,0.0012 A 1.999979,1.9999655 0 0 0 29.170936,25.41007 l 0.0013,-0.0021 -0.09249,-0.05338 -0.08069,-0.04663 -0.0012,0.0022 a 1.999979,1.9999655 0 0 0 -0.812135,-0.217617 v -0.0025 h -0.100014 z m 0.200031,0.202796 a 1.799981,1.7999689 0 0 1 0.711988,0.190793 l -0.711988,1.233173 z m -0.200031,1.62e-4 v 1.423804 l -0.711866,-1.233011 a 1.799981,1.7999689 0 0 1 0.711866,-0.190793 z m -0.885163,0.290604 0.711988,1.233215 -1.233223,-0.711984 a 1.799981,1.7999689 0 0 1 0.521235,-0.521231 z m 1.970357,0 a 1.799981,1.7999689 0 0 1 0.521235,0.521231 l -1.233223,0.712025 z m 0.621209,0.694406 a 1.799981,1.7999689 0 0 1 0.190794,0.711983 h -1.423976 z m -3.212613,1.22e-4 1.23302,0.711861 h -1.423814 a 1.799981,1.7999689 0 0 1 0.190794,-0.711861 z m -0.190794,0.91189 h 1.423814 l -1.23302,0.711861 a 1.799981,1.7999689 0 0 1 -0.190794,-0.711861 z m 2.170225,0 h 1.423976 a 1.799981,1.7999689 0 0 1 -0.190794,0.711983 z m -0.646396,0.173133 -0.711988,1.233256 a 1.799981,1.7999689 0 0 1 -0.521235,-0.521231 z m 0.546381,4.1e-5 1.233223,0.711984 a 1.799981,1.7999689 0 0 1 -0.521235,0.521231 z m -0.373206,0.100015 v 1.423804 a 1.799981,1.7999689 0 0 1 -0.711866,-0.190793 z m 0.200031,0 0.711988,1.233173 a 1.799981,1.7999689 0 0 1 -0.711988,0.190793 z" /><path
       id="path16624"
       style="fill:#ff6c04;stroke-width:0.314956"
       d="m 39.971746,25.089967 v 0.0027 a 1.999979,1.9999655 0 0 0 -0.812044,0.217566 l -0.0014,-0.0023 -0.173175,0.100015 0.0013,0.0021 a 1.999979,1.9999655 0 0 0 -0.594558,0.594554 l -0.0022,-0.0012 -0.100015,0.173174 0.0023,0.0014 a 1.999979,1.9999655 0 0 0 -0.217568,0.812038 h -0.0027 v 0.100015 0.100015 h 0.0027 a 1.999979,1.9999655 0 0 0 0.217568,0.812038 l -0.0023,0.0014 0.100015,0.173174 0.0022,-0.0013 a 1.999979,1.9999655 0 0 0 0.594558,0.594554 l -0.0013,0.0022 0.173175,0.100015 0.0014,-0.0023 a 1.999979,1.9999655 0 0 0 0.812044,0.217566 v 0.0028 h 0.100016 0.100015 v -0.0028 a 1.999979,1.9999655 0 0 0 0.812044,-0.217566 l 0.0014,0.0023 0.173175,-0.100015 -0.0012,-0.0022 a 1.999979,1.9999655 0 0 0 0.594557,-0.594554 l 0.0022,0.0013 0.100016,-0.173174 -0.0024,-0.0014 a 1.999979,1.9999655 0 0 0 0.217568,-0.812139 h 0.0028 v -0.100014 -0.100015 h -0.0025 a 1.999979,1.9999655 0 0 0 -0.217678,-0.812116 l 0.0022,-0.0013 -0.04663,-0.08069 -0.05339,-0.09249 -0.0022,0.0012 A 1.999979,1.9999655 0 0 0 41.157181,25.41007 l 0.0013,-0.0021 -0.09249,-0.05338 -0.08069,-0.04663 -0.0012,0.0022 a 1.999979,1.9999655 0 0 0 -0.812135,-0.217617 v -0.0025 h -0.100014 z m 0.200031,0.202796 a 1.799981,1.7999689 0 0 1 0.711988,0.190793 l -0.711988,1.233173 z m -0.200031,1.62e-4 v 1.423804 L 39.25988,25.483718 a 1.799981,1.7999689 0 0 1 0.711866,-0.190793 z m -0.885163,0.290604 0.711988,1.233215 -1.233223,-0.711984 a 1.799981,1.7999689 0 0 1 0.521235,-0.521231 z m 1.970357,0 a 1.799981,1.7999689 0 0 1 0.521235,0.521231 l -1.233223,0.712025 z m 0.621209,0.694406 a 1.799981,1.7999689 0 0 1 0.190794,0.711983 h -1.423976 z m -3.212613,1.22e-4 1.23302,0.711861 h -1.423814 a 1.799981,1.7999689 0 0 1 0.190794,-0.711861 z m -0.190794,0.911891 h 1.423814 l -1.23302,0.711861 a 1.799981,1.7999689 0 0 1 -0.190794,-0.711861 z m 2.170225,0 h 1.423976 a 1.799981,1.7999689 0 0 1 -0.190794,0.711983 z m -0.646396,0.173133 -0.711988,1.233256 a 1.799981,1.7999689 0 0 1 -0.521235,-0.521231 z m 0.546381,4e-5 1.233223,0.711984 a 1.799981,1.7999689 0 0 1 -0.521235,0.521231 z m -0.373206,0.100016 v 1.423804 A 1.799981,1.7999689 0 0 1 39.25988,28.696148 Z m 0.200031,0 0.711988,1.233173 a 1.799981,1.7999689 0 0 1 -0.711988,0.190793 z" /><path
       id="path16626"
       style="fill:#ff6c04;stroke-width:0.314956"
       d="m 10.006058,21.051122 v 0.0027 a 1.999979,1.9999655 0 0 0 -0.8120437,0.217566 l -0.00135,-0.0023 -0.1731752,0.100015 0.00125,0.0021 a 1.999979,1.9999655 0 0 0 -0.5945579,0.594554 l -0.00215,-0.0012 -0.1000154,0.173174 0.00235,0.0014 a 1.999979,1.9999655 0 0 0 -0.2175677,0.812038 h -0.0027 v 0.100016 0.100014 h 0.0027 a 1.999979,1.9999655 0 0 0 0.2175677,0.812038 l -0.00235,0.0014 0.1000154,0.173174 0.00215,-0.0013 a 1.999979,1.9999655 0 0 0 0.5945579,0.594554 l -0.00125,0.0022 0.1731752,0.100015 0.00135,-0.0023 a 1.999979,1.9999655 0 0 0 0.8120437,0.217566 v 0.0028 h 0.100016 0.100015 v -0.0028 a 1.999979,1.9999655 0 0 0 0.812044,-0.217566 l 0.0014,0.0023 0.173175,-0.100015 -0.0012,-0.0022 a 1.999979,1.9999655 0 0 0 0.594557,-0.594554 l 0.0022,0.0013 0.100016,-0.173174 -0.0024,-0.0014 a 1.999979,1.9999655 0 0 0 0.217568,-0.812138 h 0.0028 v -0.100014 -0.100016 h -0.0025 a 1.999979,1.9999655 0 0 0 -0.217678,-0.812116 l 0.0022,-0.0013 -0.04663,-0.08069 -0.05339,-0.09249 -0.0022,0.0012 a 1.999979,1.9999655 0 0 0 -0.594558,-0.594448 l 0.0013,-0.0021 -0.09249,-0.05338 -0.08069,-0.04663 -0.0012,0.0022 a 1.999979,1.9999655 0 0 0 -0.812135,-0.217617 v -0.0025 h -0.100014 z m 0.200031,0.202796 a 1.799981,1.7999689 0 0 1 0.711988,0.190793 l -0.711988,1.233173 z m -0.200031,1.62e-4 v 1.423804 L 9.2941922,21.444873 A 1.799981,1.7999689 0 0 1 10.006058,21.25408 Z m -0.8851634,0.290604 0.711988,1.233215 -1.2332225,-0.711984 a 1.799981,1.7999689 0 0 1 0.5212345,-0.521231 z m 1.9703574,0 a 1.799981,1.7999689 0 0 1 0.521235,0.521231 l -1.233223,0.712025 z m 0.621209,0.694406 a 1.799981,1.7999689 0 0 1 0.190794,0.711983 h -1.423976 z m -3.2126129,1.22e-4 1.2330196,0.711861 H 8.309054 A 1.799981,1.7999689 0 0 1 8.4998481,22.239212 Z M 8.309054,23.151103 H 9.7328676 L 8.499848,23.862964 A 1.799981,1.7999689 0 0 1 8.309054,23.151103 Z m 2.170225,0 h 1.423976 a 1.799981,1.7999689 0 0 1 -0.190794,0.711983 z m -0.6463964,0.173133 -0.711988,1.233256 A 1.799981,1.7999689 0 0 1 8.5996601,24.036261 Z m 0.5463814,4.1e-5 1.233223,0.711984 a 1.799981,1.7999689 0 0 1 -0.521235,0.521231 z m -0.373206,0.100015 v 1.423804 A 1.799981,1.7999689 0 0 1 9.2941922,24.657303 Z m 0.200031,0 0.711988,1.233173 a 1.799981,1.7999689 0 0 1 -0.711988,0.190793 z" /><path
       id="path16628"
       style="fill:#ff6c04;stroke-width:0.314956"
       d="m 21.992353,21.051122 v 0.0027 a 1.999979,1.9999655 0 0 0 -0.812044,0.217566 l -0.0014,-0.0023 -0.173175,0.100015 0.0013,0.0021 a 1.999979,1.9999655 0 0 0 -0.594558,0.594554 l -0.0022,-0.0012 -0.100015,0.173174 0.0023,0.0014 a 1.999979,1.9999655 0 0 0 -0.217568,0.812038 h -0.0027 v 0.100016 0.100014 h 0.0027 a 1.999979,1.9999655 0 0 0 0.217568,0.812038 l -0.0023,0.0014 0.100015,0.173174 0.0022,-0.0013 a 1.999979,1.9999655 0 0 0 0.594558,0.594554 l -0.0013,0.0022 0.173175,0.100015 0.0014,-0.0023 a 1.999979,1.9999655 0 0 0 0.812044,0.217566 v 0.0028 h 0.100016 0.100015 v -0.0028 a 1.999979,1.9999655 0 0 0 0.812044,-0.217566 l 0.0014,0.0023 0.173175,-0.100015 -0.0012,-0.0022 a 1.999979,1.9999655 0 0 0 0.594557,-0.594554 l 0.0022,0.0013 0.100016,-0.173174 -0.0024,-0.0014 a 1.999979,1.9999655 0 0 0 0.217568,-0.812138 h 0.0028 v -0.100014 -0.100016 h -0.0025 a 1.999979,1.9999655 0 0 0 -0.217678,-0.812116 l 0.0022,-0.0013 -0.04663,-0.08069 -0.05339,-0.09249 -0.0022,0.0012 a 1.999979,1.9999655 0 0 0 -0.594558,-0.594448 l 0.0013,-0.0021 -0.09249,-0.05338 -0.08069,-0.04663 -0.0012,0.0022 a 1.999979,1.9999655 0 0 0 -0.812135,-0.217617 v -0.0025 h -0.100014 z m 0.200031,0.202796 a 1.799981,1.7999689 0 0 1 0.711988,0.190793 l -0.711988,1.233173 z m -0.200031,1.62e-4 v 1.423804 l -0.711866,-1.233011 a 1.799981,1.7999689 0 0 1 0.711866,-0.190793 z m -0.885163,0.290604 0.711988,1.233215 -1.233223,-0.711984 a 1.799981,1.7999689 0 0 1 0.521235,-0.521231 z m 1.970357,0 a 1.799981,1.7999689 0 0 1 0.521235,0.521231 l -1.233223,0.712025 z m 0.621209,0.694406 a 1.799981,1.7999689 0 0 1 0.190794,0.711983 h -1.423976 z m -3.212613,1.22e-4 1.23302,0.711861 h -1.423814 a 1.799981,1.7999689 0 0 1 0.190794,-0.711861 z m -0.190794,0.911891 h 1.423814 l -1.23302,0.711861 a 1.799981,1.7999689 0 0 1 -0.190794,-0.711861 z m 2.170225,0 h 1.423976 a 1.799981,1.7999689 0 0 1 -0.190794,0.711983 z m -0.646396,0.173133 -0.711988,1.233256 a 1.799981,1.7999689 0 0 1 -0.521235,-0.521231 z m 0.546381,4.1e-5 1.233223,0.711984 a 1.799981,1.7999689 0 0 1 -0.521235,0.521231 z m -0.373206,0.100015 v 1.423804 a 1.799981,1.7999689 0 0 1 -0.711866,-0.190793 z m 0.200031,0 0.711988,1.233173 a 1.799981,1.7999689 0 0 1 -0.711988,0.190793 z" /><path
       id="path16630"
       style="fill:#ff6c04;stroke-width:0.314956"
       d="m 33.978598,21.051122 v 0.0027 a 1.999979,1.9999655 0 0 0 -0.812044,0.217566 l -0.0014,-0.0023 -0.173175,0.100015 0.0013,0.0021 a 1.999979,1.9999655 0 0 0 -0.594558,0.594554 l -0.0022,-0.0012 -0.100015,0.173174 0.0023,0.0014 a 1.999979,1.9999655 0 0 0 -0.217568,0.812038 h -0.0027 v 0.100016 0.100014 h 0.0027 a 1.999979,1.9999655 0 0 0 0.217568,0.812038 l -0.0023,0.0014 0.100015,0.173174 0.0022,-0.0013 a 1.999979,1.9999655 0 0 0 0.594558,0.594554 l -0.0013,0.0022 0.173175,0.100015 0.0014,-0.0023 a 1.999979,1.9999655 0 0 0 0.812044,0.217566 v 0.0028 h 0.100016 0.100015 v -0.0028 a 1.999979,1.9999655 0 0 0 0.812044,-0.217566 l 0.0014,0.0023 0.173175,-0.100015 -0.0012,-0.0022 a 1.999979,1.9999655 0 0 0 0.594557,-0.594554 l 0.0022,0.0013 0.100016,-0.173174 -0.0024,-0.0014 a 1.999979,1.9999655 0 0 0 0.217568,-0.812138 h 0.0028 v -0.100014 -0.100016 h -0.0025 a 1.999979,1.9999655 0 0 0 -0.217678,-0.812116 l 0.0022,-0.0013 -0.04663,-0.08069 -0.05339,-0.09249 -0.0022,0.0012 a 1.999979,1.9999655 0 0 0 -0.594558,-0.594448 l 0.0013,-0.0021 -0.09249,-0.05338 -0.08069,-0.04663 -0.0012,0.0022 a 1.999979,1.9999655 0 0 0 -0.812135,-0.217617 v -0.0025 h -0.100014 z m 0.200031,0.202796 a 1.799981,1.7999689 0 0 1 0.711988,0.190793 l -0.711988,1.233173 z m -0.200031,1.62e-4 v 1.423804 l -0.711866,-1.233011 a 1.799981,1.7999689 0 0 1 0.711866,-0.190793 z m -0.885163,0.290604 0.711988,1.233215 -1.233223,-0.711984 a 1.799981,1.7999689 0 0 1 0.521235,-0.521231 z m 1.970357,0 a 1.799981,1.7999689 0 0 1 0.521235,0.521231 l -1.233223,0.712025 z m 0.621209,0.694406 a 1.799981,1.7999689 0 0 1 0.190794,0.711983 h -1.423976 z m -3.212613,1.22e-4 1.23302,0.711861 h -1.423814 a 1.799981,1.7999689 0 0 1 0.190794,-0.711861 z m -0.190794,0.911891 h 1.423814 l -1.23302,0.711861 a 1.799981,1.7999689 0 0 1 -0.190794,-0.711861 z m 2.170225,0 h 1.423976 a 1.799981,1.7999689 0 0 1 -0.190794,0.711983 z m -0.646396,0.173133 -0.711988,1.233256 A 1.799981,1.7999689 0 0 1 32.5722,24.036261 Z m 0.546381,4.1e-5 1.233223,0.711984 a 1.799981,1.7999689 0 0 1 -0.521235,0.521231 z m -0.373206,0.100015 v 1.423804 a 1.799981,1.7999689 0 0 1 -0.711866,-0.190793 z m 0.200031,0 0.711988,1.233173 a 1.799981,1.7999689 0 0 1 -0.711988,0.190793 z" /><path
       id="path16632"
       style="fill:#ff6c04;stroke-width:0.314956"
       d="m 45.964843,21.051122 v 0.0027 a 1.999979,1.9999655 0 0 0 -0.812044,0.217566 l -0.0014,-0.0023 -0.173175,0.100015 0.0013,0.0021 a 1.999979,1.9999655 0 0 0 -0.594558,0.594554 l -0.0022,-0.0012 -0.100015,0.173174 0.0023,0.0014 a 1.999979,1.9999655 0 0 0 -0.217568,0.812038 h -0.0027 v 0.100016 0.100015 h 0.0027 a 1.999979,1.9999655 0 0 0 0.217568,0.812038 l -0.0023,0.0014 0.100015,0.173174 0.0022,-0.0013 a 1.999979,1.9999655 0 0 0 0.594558,0.594554 l -0.0013,0.0022 0.173175,0.100015 0.0014,-0.0023 a 1.999979,1.9999655 0 0 0 0.812044,0.217566 v 0.0028 h 0.100016 0.100015 v -0.0028 a 1.999979,1.9999655 0 0 0 0.812044,-0.217566 l 0.0014,0.0023 0.173175,-0.100015 -0.0012,-0.0022 a 1.999979,1.9999655 0 0 0 0.594557,-0.594554 l 0.0022,0.0013 0.100016,-0.173174 -0.0024,-0.0014 a 1.999979,1.9999655 0 0 0 0.217568,-0.812139 h 0.0028 v -0.100014 -0.100016 h -0.0025 a 1.999979,1.9999655 0 0 0 -0.217678,-0.812116 l 0.0022,-0.0013 -0.04663,-0.08069 -0.05339,-0.09249 -0.0022,0.0012 a 1.999979,1.9999655 0 0 0 -0.594558,-0.594448 l 0.0013,-0.0021 -0.09249,-0.05338 -0.08069,-0.04663 -0.0012,0.0022 a 1.999979,1.9999655 0 0 0 -0.812135,-0.217617 v -0.0025 h -0.100014 z m 0.200031,0.202796 a 1.799981,1.7999689 0 0 1 0.711988,0.190793 l -0.711988,1.233173 z m -0.200031,1.62e-4 v 1.423804 l -0.711866,-1.233011 a 1.799981,1.7999689 0 0 1 0.711866,-0.190793 z m -0.885163,0.290604 0.711988,1.233215 -1.233223,-0.711984 a 1.799981,1.7999689 0 0 1 0.521235,-0.521231 z m 1.970357,0 a 1.799981,1.7999689 0 0 1 0.521235,0.521231 l -1.233223,0.712025 z m 0.621209,0.694406 a 1.799981,1.7999689 0 0 1 0.190794,0.711983 h -1.423976 z m -3.212613,1.22e-4 1.23302,0.711861 h -1.423814 a 1.799981,1.7999689 0 0 1 0.190794,-0.711861 z m -0.190794,0.911892 h 1.423814 l -1.23302,0.711861 a 1.799981,1.7999689 0 0 1 -0.190794,-0.711861 z m 2.170225,0 h 1.423976 a 1.799981,1.7999689 0 0 1 -0.190794,0.711983 z m -0.646396,0.173133 -0.711988,1.233256 a 1.799981,1.7999689 0 0 1 -0.521235,-0.521231 z m 0.546381,4e-5 1.233223,0.711984 a 1.799981,1.7999689 0 0 1 -0.521235,0.521231 z m -0.373206,0.100016 v 1.423804 a 1.799981,1.7999689 0 0 1 -0.711866,-0.190793 z m 0.200031,0 0.711988,1.233173 a 1.799981,1.7999689 0 0 1 -0.711988,0.190793 z" /></g></svg>
