<?xml version="1.0" encoding="UTF-8" standalone="no"?>
<!-- Created with Inkscape (http://www.inkscape.org/) -->

<svg
   width="14in"
   height="8.5in"
   viewBox="0 0 280 170"
   version="1.1"
   id="svg5"
   inkscape:version="1.2.2 (b0a8486541, 2022-12-01)"
   sodipodi:docname="Pattern_Solid_Lines_T.svg"
   xmlns:inkscape="http://www.inkscape.org/namespaces/inkscape"
   xmlns:sodipodi="http://sodipodi.sourceforge.net/DTD/sodipodi-0.dtd"
   xmlns="http://www.w3.org/2000/svg"
   xmlns:svg="http://www.w3.org/2000/svg">
  <sodipodi:namedview
     id="namedview7"
     pagecolor="#ffffff"
     bordercolor="#000000"
     borderopacity="0.25"
     inkscape:showpageshadow="2"
     inkscape:pageopacity="0.0"
     inkscape:pagecheckerboard="0"
     inkscape:deskcolor="#d1d1d1"
     inkscape:document-units="in"
     showgrid="true"
     inkscape:zoom="1.1893044"
     inkscape:cx="646.59645"
     inkscape:cy="484.31671"
     inkscape:window-width="2256"
     inkscape:window-height="1445"
     inkscape:window-x="0"
     inkscape:window-y="0"
     inkscape:window-maximized="1"
     inkscape:current-layer="layer1">
    <inkscape:grid
       type="xygrid"
       id="grid9"
       units="in"
       spacingx="0.2"
       spacingy="0.2"
       originx="85"
       originy="140" />
  </sodipodi:namedview>
  <defs
     id="defs2" />
  <g
     inkscape:label="Layer 1"
     inkscape:groupmode="layer"
     id="layer1">
    <path
       id="path197"
       style="fill:#95ff24;fill-opacity:1;stroke-width:0.208333"
       d="M 8.9998372 0 L 8.9998372 48.000081 L 8.9998372 55 L 0 55 L 0 56.000163 L 8.9998372 56.000163 L 8.9998372 65 L 0 65 L 0 66.000163 L 18.999837 66.000163 L 18.999837 75 L 20 75 L 20 46.999919 L 20 19.919434 L 48.999837 20 L 68.000081 20 L 68.000081 28.999837 L 68.999837 28.999837 L 68.999837 0 L 68.000081 0 L 68.000081 18.999837 L 58.999837 18.999837 L 58.999837 0 L 58.000081 0 L 58.000081 8.9998372 L 48.999837 8.9998372 L 10 8.9998372 L 10 0 L 8.9998372 0 z M 78.000081 0 L 78.000081 29.080404 L 48.999837 28.999837 L 30 28.999837 L 30 20 L 28.999837 20 L 28.999837 48.000081 L 28.999837 75.080566 L 0 75 L 0 76.000163 L 28.999837 76.080322 L 28.999837 85 L 0 85 L 0 86.000163 L 38.999837 86.000163 L 38.999837 95 L 0 95 L 0 96.000163 L 8.9998372 96.000163 L 8.9998372 104.91659 L 8.9998372 105.91675 L 8.9998372 133.99984 L 8.9998372 141.99992 L 0 141.99992 L 0 143.00008 L 8.9998372 143.00008 L 8.9998372 151.99992 L 0 151.99992 L 0 153.00008 L 18.999837 153.00008 L 18.999837 161.99992 L 20 161.99992 L 20 133.99984 L 20 116.00016 L 28.999837 116.00016 L 28.999837 133.99984 L 28.999837 162.08049 L 0 161.99992 L 0 163.00008 L 28.999837 163.08065 L 28.999837 170 L 30 170 L 30 163.0835 L 30 162.08333 L 30 133.99984 L 30 126.00016 L 38.999837 126.00016 L 38.999837 170 L 40 170 L 40 135 L 48.999837 135 L 48.999837 143.91683 L 48.999837 144.91659 L 48.999837 170 L 50 170 L 50 144.91943 L 80 145 L 98.999837 145 L 98.999837 153.99984 L 100 153.99984 L 100 126.00016 L 100 99.919434 L 128.99984 100 L 148.00008 100 L 148.00008 108.99984 L 148.99984 108.99984 L 148.99984 78.000081 L 148.99984 49.919434 L 178.00008 50 L 198.00008 50 L 198.00008 58.999837 L 198.99984 58.999837 L 198.99984 28.000081 L 198.99984 0 L 198.00008 0 L 198.00008 28.000081 L 198.00008 48.999837 L 188.99984 48.999837 L 188.99984 28.000081 L 188.99984 0 L 188.00008 0 L 188.00008 28.000081 L 188.00008 38.999837 L 178.99984 38.999837 L 178.99984 0 L 178.00008 0 L 178.00008 28.999837 L 168.99984 28.999837 L 168.99984 20.083415 L 168.99984 19.083252 L 168.99984 0 L 168.00008 0 L 168.00008 19.080404 L 138.00008 18.999837 L 138.00008 19.083252 L 118.99984 19.083252 L 118.99984 10.083415 L 118.00008 10.083415 L 118.00008 38.083496 L 118.00008 69.080404 L 88.999837 68.999837 L 70 68.999837 L 70 60 L 68.999837 60 L 68.999837 88.000081 L 68.999837 115.08057 L 40 115 L 20 115 L 20 106.00016 L 18.999837 106.00016 L 18.999837 133.99984 L 18.999837 151.99992 L 10 151.99992 L 10 133.99984 L 10 105.9196 L 40 106.00016 L 58.999837 106.00016 L 58.999837 115 L 60 115 L 60 86.999919 L 60 59.919434 L 88.999837 60 L 108.00008 60 L 108.00008 68.999837 L 108.99984 68.999837 L 108.99984 38.000081 L 108.99984 10.002848 L 138.00008 10.083415 L 138.00008 10 L 158.00008 10 L 158.00008 18.999837 L 158.99984 18.999837 L 158.99984 0 L 158.00008 0 L 158.00008 8.9998372 L 148.99984 8.9998372 L 148.99984 0 L 148.00008 0 L 148.00008 8.9998372 L 138.00008 8.9998372 L 138.00008 9.083252 L 108.99984 9.0026855 L 108.99984 0.083414714 L 108.00008 0.083414714 L 108.00008 8.9998372 L 108.00008 10 L 108.00008 38.083496 L 108.00008 58.999837 L 98.999837 58.999837 L 98.999837 38.000081 L 98.999837 0 L 98.000081 0 L 98.000081 38.083496 L 98.000081 48.999837 L 88.999837 48.999837 L 88.999837 0 L 88.000081 0 L 88.000081 38.999837 L 78.999837 38.999837 L 78.999837 30.083415 L 78.999837 29.083252 L 78.999837 0 L 78.000081 0 z M 208.00008 0 L 208.00008 28.000081 L 208.00008 59.080404 L 178.00008 58.999837 L 158.99984 58.999837 L 158.99984 50 L 158.00008 50 L 158.00008 78.000081 L 158.00008 109.0804 L 128.99984 108.99984 L 110 108.99984 L 110 100 L 108.99984 100 L 108.99984 128.00008 L 108.99984 154.0804 L 80 153.99984 L 60 153.99984 L 60 145 L 58.999837 145 L 58.999837 170 L 60 170 L 60 155 L 68.999837 155 L 68.999837 170 L 70 170 L 70 165 L 80 165 L 118.99984 165 L 118.99984 170 L 120 170 L 120 126.00016 L 120 120 L 128.99984 120 L 128.99984 170 L 130 170 L 130 128.99984 L 138.99984 128.99984 L 138.99984 137.91667 L 138.99984 138.91683 L 138.99984 170 L 140 170 L 140 138.91968 L 168.99984 138.99984 L 188.00008 138.99984 L 188.00008 148.00008 L 188.99984 148.00008 L 188.99984 116.99992 L 188.99984 88.919678 L 218.00008 88.999837 L 238.00008 88.999837 L 238.00008 98.000081 L 238.99984 98.000081 L 238.99984 66.999919 L 238.99984 38.919678 L 267.10002 38.997396 L 267.10002 38.999837 L 280 38.999837 L 280 38.000081 L 278.99984 38.000081 L 278.99984 28.000081 L 278.99984 0 L 278.00008 0 L 278.00008 28.000081 L 268.99984 28.000081 L 268.99984 0 L 268.00008 0 L 268.00008 18.999837 L 258.99984 18.999837 L 258.99984 0 L 258.00008 0 L 258.00008 18.999837 L 228.99984 18.999837 L 228.00008 18.999837 L 218.99984 18.999837 L 218.99984 10 L 228.00008 10 L 228.00008 9.9511719 L 257.98787 10.032145 L 257.98787 9.0323893 L 227.07113 8.9489746 L 227.07113 8.9998372 L 208.99984 8.9998372 L 208.99984 0 L 208.00008 0 z M 248.00008 0 L 248.00008 8.9998372 L 248.99984 8.9998372 L 248.99984 0 L 248.00008 0 z M 10 10 L 18.999837 10 L 18.999837 18.916829 L 18.999837 19.916585 L 18.999837 48.000081 L 18.999837 65 L 10 65 L 10 46.999919 L 10 10 z M 20 10 L 48.999837 10 L 58.000081 10 L 58.000081 18.999837 L 48.999837 18.999837 L 20 18.919678 L 20 10 z M 208.99984 10 L 218.00008 10 L 218.00008 28.000081 L 218.00008 68.999837 L 208.99984 68.999837 L 208.99984 60.083415 L 208.99984 59.083252 L 208.99984 28.000081 L 208.99984 10 z M 138.00008 20 L 168.00008 20.080566 L 168.00008 28.999837 L 138.00008 28.999837 L 138.00008 29.083252 L 128.99984 29.083252 L 128.99984 20.083415 L 138.00008 20.083415 L 138.00008 20 z M 218.99984 20 L 228.00008 20 L 228.00008 66.999919 L 228.00008 78.000081 L 218.99984 78.000081 L 218.99984 28.000081 L 218.99984 20 z M 228.99984 20 L 268.00008 20 L 268.00008 28.000081 L 228.99984 28.000081 L 228.99984 20 z M 118.99984 20.083415 L 128.00008 20.083415 L 128.00008 38.083496 L 128.00008 78.999837 L 118.99984 78.999837 L 118.99984 70.083415 L 118.99984 69.083252 L 118.99984 38.000081 L 118.99984 20.083415 z M 228.99984 28.999837 L 238.00008 28.999837 L 238.00008 37.916667 L 238.00008 38.916829 L 238.00008 66.999919 L 238.00008 88.000081 L 228.99984 88.000081 L 228.99984 66.999919 L 228.99984 28.999837 z M 238.99984 28.999837 L 278.00008 28.999837 L 278.00008 38.000081 L 268.00008 38.000081 L 238.99984 37.919515 L 238.99984 28.999837 z M 30 30 L 38.999837 30 L 38.999837 48.000081 L 38.999837 85 L 30 85 L 30 76.083171 L 30 75.083415 L 30 46.999919 L 30 30 z M 40 30 L 48.999837 30 L 78.000081 30.080566 L 78.000081 38.999837 L 48.999837 38.999837 L 40 38.999837 L 40 30 z M 138.99984 30 L 178.00008 30 L 178.00008 38.999837 L 138.99984 38.999837 L 138.99984 30 z M 128.99984 30.083415 L 138.00008 30.083415 L 138.00008 78.000081 L 138.00008 88.999837 L 128.99984 88.999837 L 128.99984 38.000081 L 128.99984 30.083415 z M 248.00008 38.999837 L 248.00008 66.999919 L 248.00008 98.080648 L 218.00008 98.000081 L 198.99984 98.000081 L 198.99984 88.999837 L 198.00008 88.999837 L 198.00008 116.99992 L 198.00008 148.08065 L 168.99984 148.00008 L 150 148.00008 L 150 138.99984 L 148.99984 138.99984 L 148.99984 170 L 150 170 L 150 148.99984 L 158.99984 148.99984 L 158.99984 170 L 160 170 L 160 158.99984 L 168.99984 158.99984 L 208.00008 158.99984 L 208.00008 168.00008 L 208.00008 168.99984 L 218.00008 168.99984 L 218.00008 170 L 218.99984 170 L 218.99984 156.99992 L 218.99984 118.99984 L 228.00008 118.99984 L 228.00008 127.91667 L 228.00008 128.91683 L 228.00008 156.99992 L 228.00008 170 L 228.99984 170 L 228.99984 156.99992 L 228.99984 128.91968 L 258.00008 128.99984 L 278.00008 128.99984 L 278.00008 138.00008 L 278.99984 138.00008 L 278.99984 110 L 278.99984 78.999837 L 280 78.999837 L 280 78.000081 L 278.99984 78.000081 L 278.99984 68.999837 L 278.00008 68.999837 L 278.00008 120 L 278.00008 128.00008 L 268.99984 128.00008 L 268.99984 110 L 268.99984 68.918457 L 280 68.936768 L 280 67.936605 L 268.99984 67.918294 L 268.99984 58.999837 L 280 58.999837 L 280 58.000081 L 268.00008 58.000081 L 258.99984 58.000081 L 258.99984 48.999837 L 268.00008 48.999837 L 280 48.999837 L 280 48.000081 L 268.00008 48.000081 L 248.99984 48.000081 L 248.99984 38.999837 L 248.00008 38.999837 z M 40 40 L 48.999837 40 L 48.999837 88.000081 L 48.999837 95 L 40 95 L 40 46.999919 L 40 40 z M 50 40 L 88.000081 40 L 88.000081 48.999837 L 50 48.999837 L 50 40 z M 138.99984 40 L 148.00008 40 L 148.00008 48.916829 L 148.00008 49.916585 L 148.00008 78.000081 L 148.00008 98.999837 L 138.99984 98.999837 L 138.99984 78.000081 L 138.99984 40 z M 148.99984 40 L 178.00008 40 L 188.00008 40 L 188.00008 48.999837 L 178.00008 48.999837 L 148.99984 48.919678 L 148.99984 40 z M 248.99984 48.999837 L 258.00008 48.999837 L 258.00008 66.999919 L 258.00008 108.00008 L 248.99984 108.00008 L 248.99984 99.083252 L 248.99984 98.083496 L 248.99984 66.999919 L 248.99984 48.999837 z M 50 50 L 58.999837 50 L 58.999837 58.916829 L 58.999837 59.916585 L 58.999837 88.000081 L 58.999837 105 L 50 105 L 50 86.999919 L 50 50 z M 60 50 L 88.999837 50 L 98.000081 50 L 98.000081 58.999837 L 88.999837 58.999837 L 60 58.919678 L 60 50 z M 258.99984 58.999837 L 268.00008 58.999837 L 268.00008 118.00008 L 258.99984 118.00008 L 258.99984 66.999919 L 258.99984 58.999837 z M 158.99984 60 L 168.00008 60 L 168.00008 78.000081 L 168.00008 118.99984 L 158.99984 118.99984 L 158.99984 110.08341 L 158.99984 109.08325 L 158.99984 78.000081 L 158.99984 60 z M 168.99984 60 L 178.00008 60 L 208.00008 60.080566 L 208.00008 68.999837 L 178.99984 68.999837 L 178.00008 68.999837 L 168.99984 68.999837 L 168.99984 60 z M 70 70 L 78.999837 70 L 78.999837 88.000081 L 78.999837 125 L 70 125 L 70 116.08317 L 70 115.08341 L 70 86.999919 L 70 70 z M 80 70 L 88.999837 70 L 118.00008 70.080566 L 118.00008 78.999837 L 88.999837 78.999837 L 80 78.999837 L 80 70 z M 168.99984 70 L 178.00008 70 L 178.00008 116.99992 L 178.00008 128.00008 L 168.99984 128.00008 L 168.99984 78.000081 L 168.99984 70 z M 178.99984 70 L 218.00008 70 L 218.00008 78.000081 L 178.99984 78.000081 L 178.99984 70 z M 178.99984 78.999837 L 188.00008 78.999837 L 188.00008 87.916667 L 188.00008 88.916829 L 188.00008 116.99992 L 188.00008 138.00008 L 178.99984 138.00008 L 178.99984 116.99992 L 178.99984 78.999837 z M 188.99984 78.999837 L 218.00008 78.999837 L 218.99984 78.999837 L 228.00008 78.999837 L 228.00008 88.000081 L 218.00008 88.000081 L 188.99984 87.919515 L 188.99984 78.999837 z M 80 80 L 88.999837 80 L 88.999837 128.00008 L 88.999837 133.99984 L 80 133.99984 L 80 86.999919 L 80 80 z M 90 80 L 128.00008 80 L 128.00008 88.999837 L 90 88.999837 L 90 80 z M 90 90 L 98.999837 90 L 98.999837 98.916829 L 98.999837 99.916585 L 98.999837 128.00008 L 98.999837 143.99984 L 90 143.99984 L 90 126.00016 L 90 90 z M 100 90 L 128.99984 90 L 138.00008 90 L 138.00008 98.999837 L 128.99984 98.999837 L 100 98.919678 L 100 90 z M 10 96.000163 L 40 96.000163 L 48.999837 96.000163 L 48.999837 105 L 40 105 L 10 104.91943 L 10 96.000163 z M 198.99984 98.999837 L 208.00008 98.999837 L 208.00008 116.99992 L 208.00008 158.00008 L 198.99984 158.00008 L 198.99984 149.08325 L 198.99984 148.0835 L 198.99984 116.99992 L 198.99984 98.999837 z M 208.99984 98.999837 L 218.00008 98.999837 L 248.00008 99.080404 L 248.00008 108.00008 L 218.00008 108.00008 L 208.99984 108.00008 L 208.99984 98.999837 z M 208.99984 108.99984 L 218.00008 108.99984 L 218.00008 156.99992 L 218.00008 168.00008 L 208.99984 168.00008 L 208.99984 116.99992 L 208.99984 108.99984 z M 218.99984 108.99984 L 258.00008 108.99984 L 258.00008 118.00008 L 218.99984 118.00008 L 218.99984 108.99984 z M 110 110 L 118.99984 110 L 118.99984 128.00008 L 118.99984 163.99984 L 110 163.99984 L 110 155.08341 L 110 154.08325 L 110 126.00016 L 110 110 z M 120 110 L 128.99984 110 L 158.00008 110.08057 L 158.00008 118.99984 L 130 118.99984 L 128.99984 118.99984 L 120 118.99984 L 120 110 z M 30 116.00016 L 40 116.00016 L 68.999837 116.08032 L 68.999837 125 L 40 125 L 38.999837 125 L 30 125 L 30 116.00016 z M 228.99984 118.99984 L 258.00008 118.99984 L 268.00008 118.99984 L 268.00008 120 L 268.00008 128.00008 L 258.00008 128.00008 L 228.99984 127.91951 L 228.99984 118.99984 z M 130 120 L 168.00008 120 L 168.00008 128.00008 L 130 128.00008 L 130 120 z M 40 126.00016 L 78.999837 126.00016 L 78.999837 133.99984 L 40 133.99984 L 40 126.00016 z M 140 128.99984 L 168.99984 128.99984 L 178.00008 128.99984 L 178.00008 138.00008 L 168.99984 138.00008 L 140 137.91951 L 140 128.99984 z M 238.00008 128.99984 L 238.00008 156.99992 L 238.00008 170 L 238.99984 170 L 238.99984 156.99992 L 238.99984 138.99984 L 248.00008 138.99984 L 248.00008 156.99992 L 248.00008 170 L 248.99984 170 L 248.99984 156.99992 L 248.99984 148.99984 L 258.00008 148.99984 L 258.00008 170 L 258.99984 170 L 258.99984 158.99984 L 268.00008 158.99984 L 268.00008 167.91667 L 268.00008 168.91683 L 268.00008 170 L 268.99984 170 L 268.99984 168.91968 L 280 168.9502 L 280 167.95003 L 268.99984 167.91951 L 268.99984 158.99984 L 280 158.99984 L 280 158.00008 L 258.99984 158.00008 L 258.99984 148.99984 L 280 148.99984 L 280 148.00008 L 258.00008 148.00008 L 248.99984 148.00008 L 248.99984 138.99984 L 258.00008 138.99984 L 280 139.05884 L 280 138.05908 L 258.00008 138.00008 L 238.99984 138.00008 L 238.99984 128.99984 L 238.00008 128.99984 z M 50 135 L 78.999837 135 L 80 135 L 88.999837 135 L 88.999837 143.99984 L 80 143.99984 L 50 143.91968 L 50 135 z M 160 148.99984 L 168.99984 148.99984 L 198.00008 149.0804 L 198.00008 158.00008 L 168.99984 158.00008 L 160 158.00008 L 160 148.99984 z M 70 155 L 80 155 L 108.99984 155.08057 L 108.99984 163.99984 L 80 163.99984 L 70 163.99984 L 70 155 z M 278.00008 168.99984 L 278.00008 170 L 278.99984 170 L 278.99984 168.99984 L 278.00008 168.99984 z " />
  </g>
</svg>
