<?xml version="1.0" encoding="UTF-8" standalone="no"?>
<!-- Created with Inkscape (http://www.inkscape.org/) -->

<svg
   width="14in"
   height="8.5in"
   viewBox="0 0 56 34"
   version="1.1"
   id="svg5"
   inkscape:version="1.2.2 (b0a8486541, 2022-12-01)"
   sodipodi:docname="Open_Circle_concentric_rdm.svg"
   xmlns:inkscape="http://www.inkscape.org/namespaces/inkscape"
   xmlns:sodipodi="http://sodipodi.sourceforge.net/DTD/sodipodi-0.dtd"
   xmlns="http://www.w3.org/2000/svg"
   xmlns:svg="http://www.w3.org/2000/svg">
  <sodipodi:namedview
     id="namedview7"
     pagecolor="#ffffff"
     bordercolor="#000000"
     borderopacity="0.25"
     inkscape:showpageshadow="2"
     inkscape:pageopacity="0.0"
     inkscape:pagecheckerboard="0"
     inkscape:deskcolor="#d1d1d1"
     inkscape:document-units="mm"
     showgrid="true"
     inkscape:zoom="1.829812"
     inkscape:cx="811.55878"
     inkscape:cy="468.62738"
     inkscape:window-width="3800"
     inkscape:window-height="2120"
     inkscape:window-x="3840"
     inkscape:window-y="0"
     inkscape:window-maximized="1"
     inkscape:current-layer="layer1">
    <inkscape:grid
       type="xygrid"
       id="grid182"
       units="in"
       spacingx="1"
       spacingy="1"
       empspacing="4"
       dotted="true" />
  </sodipodi:namedview>
  <defs
     id="defs2">
    <inkscape:path-effect
       effect="fill_between_many"
       method="originald"
       linkedpaths="#path1814,0,1"
       id="path-effect563" />
  </defs>
  <g
     inkscape:label="Layer 1"
     inkscape:groupmode="layer"
     id="layer1">
    <g
       id="g1353"
       transform="translate(3.0167819,8.5664478)">
      <path
         id="path1282"
         style="fill:#00ff00;stroke-width:0.251969"
         d="m 21.098714,3.549235 a 2,2 0 0 0 -2,2 2,2 0 0 0 2,2 2,2 0 0 0 2,-2 2,2 0 0 0 -2,-2 z m -0.05884,0.3999837 c 0.02118,-1.01e-4 0.0425,2.534e-4 0.06388,0.00114 0.291133,-4.04e-4 0.581702,0.08129 0.830241,0.2333171 0.862941,0.4899279 1.04121,1.8164242 0.299561,2.5018717 -0.74228,0.8084648 -2.228803,0.5119857 -2.606039,-0.5197754 -0.451824,-0.9775685 0.34884,-2.211482 1.412354,-2.2165527 z" />
      <path
         id="path1346"
         style="fill:#00ff00;fill-opacity:1;stroke-width:0.0629921"
         d="m 21.098674,4.3492432 a 1.2,1.2 0 0 0 -1.199952,1.1999511 1.2,1.2 0 0 0 1.199952,1.2000326 1.2,1.2 0 0 0 1.200032,-1.2000326 1.2,1.2 0 0 0 -1.200032,-1.1999511 z m 0,0.3999837 a 0.80000001,0.80000001 0 0 1 0.800048,0.7999674 0.80000001,0.80000001 0 0 1 -0.800048,0.8000489 0.80000001,0.80000001 0 0 1 -0.799968,-0.8000489 0.80000001,0.80000001 0 0 1 0.799968,-0.7999674 z" />
    </g>
    <g
       id="g1359"
       transform="translate(21.578128,7.1293374)">
      <path
         id="path1355"
         style="fill:#00ff00;stroke-width:0.251969"
         d="m 21.098714,3.549235 a 2,2 0 0 0 -2,2 2,2 0 0 0 2,2 2,2 0 0 0 2,-2 2,2 0 0 0 -2,-2 z m -0.05884,0.3999837 c 0.02118,-1.01e-4 0.0425,2.534e-4 0.06388,0.00114 0.291133,-4.04e-4 0.581702,0.08129 0.830241,0.2333171 0.862941,0.4899279 1.04121,1.8164242 0.299561,2.5018717 -0.74228,0.8084648 -2.228803,0.5119857 -2.606039,-0.5197754 -0.451824,-0.9775685 0.34884,-2.211482 1.412354,-2.2165527 z" />
      <path
         id="path1357"
         style="fill:#00ff00;fill-opacity:1;stroke-width:0.0629921"
         d="m 21.098674,4.3492432 a 1.2,1.2 0 0 0 -1.199952,1.1999511 1.2,1.2 0 0 0 1.199952,1.2000326 1.2,1.2 0 0 0 1.200032,-1.2000326 1.2,1.2 0 0 0 -1.200032,-1.1999511 z m 0,0.3999837 a 0.80000001,0.80000001 0 0 1 0.800048,0.7999674 0.80000001,0.80000001 0 0 1 -0.800048,0.8000489 0.80000001,0.80000001 0 0 1 -0.799968,-0.8000489 0.80000001,0.80000001 0 0 1 0.799968,-0.7999674 z" />
    </g>
    <g
       id="g1365"
       transform="translate(24.863634,25.365158)">
      <path
         id="path1361"
         style="fill:#00ff00;stroke-width:0.251969"
         d="m 21.098714,3.549235 a 2,2 0 0 0 -2,2 2,2 0 0 0 2,2 2,2 0 0 0 2,-2 2,2 0 0 0 -2,-2 z m -0.05884,0.3999837 c 0.02118,-1.01e-4 0.0425,2.534e-4 0.06388,0.00114 0.291133,-4.04e-4 0.581702,0.08129 0.830241,0.2333171 0.862941,0.4899279 1.04121,1.8164242 0.299561,2.5018717 -0.74228,0.8084648 -2.228803,0.5119857 -2.606039,-0.5197754 -0.451824,-0.9775685 0.34884,-2.211482 1.412354,-2.2165527 z" />
      <path
         id="path1363"
         style="fill:#00ff00;fill-opacity:1;stroke-width:0.0629921"
         d="m 21.098674,4.3492432 a 1.2,1.2 0 0 0 -1.199952,1.1999511 1.2,1.2 0 0 0 1.199952,1.2000326 1.2,1.2 0 0 0 1.200032,-1.2000326 1.2,1.2 0 0 0 -1.200032,-1.1999511 z m 0,0.3999837 a 0.80000001,0.80000001 0 0 1 0.800048,0.7999674 0.80000001,0.80000001 0 0 1 -0.800048,0.8000489 0.80000001,0.80000001 0 0 1 -0.799968,-0.8000489 0.80000001,0.80000001 0 0 1 0.799968,-0.7999674 z" />
    </g>
    <g
       id="g1371"
       transform="translate(17.161378,9.3215675)">
      <path
         id="path1367"
         style="fill:#00ff00;stroke-width:0.251969"
         d="m 21.098714,3.549235 a 2,2 0 0 0 -2,2 2,2 0 0 0 2,2 2,2 0 0 0 2,-2 2,2 0 0 0 -2,-2 z m -0.05884,0.3999837 c 0.02118,-1.01e-4 0.0425,2.534e-4 0.06388,0.00114 0.291133,-4.04e-4 0.581702,0.08129 0.830241,0.2333171 0.862941,0.4899279 1.04121,1.8164242 0.299561,2.5018717 -0.74228,0.8084648 -2.228803,0.5119857 -2.606039,-0.5197754 -0.451824,-0.9775685 0.34884,-2.211482 1.412354,-2.2165527 z" />
      <path
         id="path1369"
         style="fill:#00ff00;fill-opacity:1;stroke-width:0.0629921"
         d="m 21.098674,4.3492432 a 1.2,1.2 0 0 0 -1.199952,1.1999511 1.2,1.2 0 0 0 1.199952,1.2000326 1.2,1.2 0 0 0 1.200032,-1.2000326 1.2,1.2 0 0 0 -1.200032,-1.1999511 z m 0,0.3999837 a 0.80000001,0.80000001 0 0 1 0.800048,0.7999674 0.80000001,0.80000001 0 0 1 -0.800048,0.8000489 0.80000001,0.80000001 0 0 1 -0.799968,-0.8000489 0.80000001,0.80000001 0 0 1 0.799968,-0.7999674 z" />
    </g>
    <g
       id="g1377"
       transform="translate(-13.451814,4.0343065)">
      <path
         id="path1373"
         style="fill:#00ff00;stroke-width:0.251969"
         d="m 21.098714,3.549235 a 2,2 0 0 0 -2,2 2,2 0 0 0 2,2 2,2 0 0 0 2,-2 2,2 0 0 0 -2,-2 z m -0.05884,0.3999837 c 0.02118,-1.01e-4 0.0425,2.534e-4 0.06388,0.00114 0.291133,-4.04e-4 0.581702,0.08129 0.830241,0.2333171 0.862941,0.4899279 1.04121,1.8164242 0.299561,2.5018717 -0.74228,0.8084648 -2.228803,0.5119857 -2.606039,-0.5197754 -0.451824,-0.9775685 0.34884,-2.211482 1.412354,-2.2165527 z" />
      <path
         id="path1375"
         style="fill:#00ff00;fill-opacity:1;stroke-width:0.0629921"
         d="m 21.098674,4.3492432 a 1.2,1.2 0 0 0 -1.199952,1.1999511 1.2,1.2 0 0 0 1.199952,1.2000326 1.2,1.2 0 0 0 1.200032,-1.2000326 1.2,1.2 0 0 0 -1.200032,-1.1999511 z m 0,0.3999837 a 0.80000001,0.80000001 0 0 1 0.800048,0.7999674 0.80000001,0.80000001 0 0 1 -0.800048,0.8000489 0.80000001,0.80000001 0 0 1 -0.799968,-0.8000489 0.80000001,0.80000001 0 0 1 0.799968,-0.7999674 z" />
    </g>
    <g
       id="g1383"
       transform="translate(2.6636544,25.32257)">
      <path
         id="path1379"
         style="fill:#00ff00;stroke-width:0.251969"
         d="m 21.098714,3.549235 a 2,2 0 0 0 -2,2 2,2 0 0 0 2,2 2,2 0 0 0 2,-2 2,2 0 0 0 -2,-2 z m -0.05884,0.3999837 c 0.02118,-1.01e-4 0.0425,2.534e-4 0.06388,0.00114 0.291133,-4.04e-4 0.581702,0.08129 0.830241,0.2333171 0.862941,0.4899279 1.04121,1.8164242 0.299561,2.5018717 -0.74228,0.8084648 -2.228803,0.5119857 -2.606039,-0.5197754 -0.451824,-0.9775685 0.34884,-2.211482 1.412354,-2.2165527 z" />
      <path
         id="path1381"
         style="fill:#00ff00;fill-opacity:1;stroke-width:0.0629921"
         d="m 21.098674,4.3492432 a 1.2,1.2 0 0 0 -1.199952,1.1999511 1.2,1.2 0 0 0 1.199952,1.2000326 1.2,1.2 0 0 0 1.200032,-1.2000326 1.2,1.2 0 0 0 -1.200032,-1.1999511 z m 0,0.3999837 a 0.80000001,0.80000001 0 0 1 0.800048,0.7999674 0.80000001,0.80000001 0 0 1 -0.800048,0.8000489 0.80000001,0.80000001 0 0 1 -0.799968,-0.8000489 0.80000001,0.80000001 0 0 1 0.799968,-0.7999674 z" />
    </g>
    <g
       id="g1389"
       transform="translate(-5.1282674,4.505167)">
      <path
         id="path1385"
         style="fill:#00ff00;stroke-width:0.251969"
         d="m 21.098714,3.549235 a 2,2 0 0 0 -2,2 2,2 0 0 0 2,2 2,2 0 0 0 2,-2 2,2 0 0 0 -2,-2 z m -0.05884,0.3999837 c 0.02118,-1.01e-4 0.0425,2.534e-4 0.06388,0.00114 0.291133,-4.04e-4 0.581702,0.08129 0.830241,0.2333171 0.862941,0.4899279 1.04121,1.8164242 0.299561,2.5018717 -0.74228,0.8084648 -2.228803,0.5119857 -2.606039,-0.5197754 -0.451824,-0.9775685 0.34884,-2.211482 1.412354,-2.2165527 z" />
      <path
         id="path1387"
         style="fill:#00ff00;fill-opacity:1;stroke-width:0.0629921"
         d="m 21.098674,4.3492432 a 1.2,1.2 0 0 0 -1.199952,1.1999511 1.2,1.2 0 0 0 1.199952,1.2000326 1.2,1.2 0 0 0 1.200032,-1.2000326 1.2,1.2 0 0 0 -1.200032,-1.1999511 z m 0,0.3999837 a 0.80000001,0.80000001 0 0 1 0.800048,0.7999674 0.80000001,0.80000001 0 0 1 -0.800048,0.8000489 0.80000001,0.80000001 0 0 1 -0.799968,-0.8000489 0.80000001,0.80000001 0 0 1 0.799968,-0.7999674 z" />
    </g>
    <g
       id="g1395"
       transform="translate(17.161378,4.9048175)">
      <path
         id="path1391"
         style="fill:#00ff00;stroke-width:0.251969"
         d="m 21.098714,3.549235 a 2,2 0 0 0 -2,2 2,2 0 0 0 2,2 2,2 0 0 0 2,-2 2,2 0 0 0 -2,-2 z m -0.05884,0.3999837 c 0.02118,-1.01e-4 0.0425,2.534e-4 0.06388,0.00114 0.291133,-4.04e-4 0.581702,0.08129 0.830241,0.2333171 0.862941,0.4899279 1.04121,1.8164242 0.299561,2.5018717 -0.74228,0.8084648 -2.228803,0.5119857 -2.606039,-0.5197754 -0.451824,-0.9775685 0.34884,-2.211482 1.412354,-2.2165527 z" />
      <path
         id="path1393"
         style="fill:#00ff00;fill-opacity:1;stroke-width:0.0629921"
         d="m 21.098674,4.3492432 a 1.2,1.2 0 0 0 -1.199952,1.1999511 1.2,1.2 0 0 0 1.199952,1.2000326 1.2,1.2 0 0 0 1.200032,-1.2000326 1.2,1.2 0 0 0 -1.200032,-1.1999511 z m 0,0.3999837 a 0.80000001,0.80000001 0 0 1 0.800048,0.7999674 0.80000001,0.80000001 0 0 1 -0.800048,0.8000489 0.80000001,0.80000001 0 0 1 -0.799968,-0.8000489 0.80000001,0.80000001 0 0 1 0.799968,-0.7999674 z" />
    </g>
    <g
       id="g1401"
       transform="translate(26.645114,18.935511)">
      <path
         id="path1397"
         style="fill:#00ff00;stroke-width:0.251969"
         d="m 21.098714,3.549235 a 2,2 0 0 0 -2,2 2,2 0 0 0 2,2 2,2 0 0 0 2,-2 2,2 0 0 0 -2,-2 z m -0.05884,0.3999837 c 0.02118,-1.01e-4 0.0425,2.534e-4 0.06388,0.00114 0.291133,-4.04e-4 0.581702,0.08129 0.830241,0.2333171 0.862941,0.4899279 1.04121,1.8164242 0.299561,2.5018717 -0.74228,0.8084648 -2.228803,0.5119857 -2.606039,-0.5197754 -0.451824,-0.9775685 0.34884,-2.211482 1.412354,-2.2165527 z" />
      <path
         id="path1399"
         style="fill:#00ff00;fill-opacity:1;stroke-width:0.0629921"
         d="m 21.098674,4.3492432 a 1.2,1.2 0 0 0 -1.199952,1.1999511 1.2,1.2 0 0 0 1.199952,1.2000326 1.2,1.2 0 0 0 1.200032,-1.2000326 1.2,1.2 0 0 0 -1.200032,-1.1999511 z m 0,0.3999837 a 0.80000001,0.80000001 0 0 1 0.800048,0.7999674 0.80000001,0.80000001 0 0 1 -0.800048,0.8000489 0.80000001,0.80000001 0 0 1 -0.799968,-0.8000489 0.80000001,0.80000001 0 0 1 0.799968,-0.7999674 z" />
    </g>
    <g
       id="g1407"
       transform="translate(-16.092993,10.799481)">
      <path
         id="path1403"
         style="fill:#00ff00;stroke-width:0.251969"
         d="m 21.098714,3.549235 a 2,2 0 0 0 -2,2 2,2 0 0 0 2,2 2,2 0 0 0 2,-2 2,2 0 0 0 -2,-2 z m -0.05884,0.3999837 c 0.02118,-1.01e-4 0.0425,2.534e-4 0.06388,0.00114 0.291133,-4.04e-4 0.581702,0.08129 0.830241,0.2333171 0.862941,0.4899279 1.04121,1.8164242 0.299561,2.5018717 -0.74228,0.8084648 -2.228803,0.5119857 -2.606039,-0.5197754 -0.451824,-0.9775685 0.34884,-2.211482 1.412354,-2.2165527 z" />
      <path
         id="path1405"
         style="fill:#00ff00;fill-opacity:1;stroke-width:0.0629921"
         d="m 21.098674,4.3492432 a 1.2,1.2 0 0 0 -1.199952,1.1999511 1.2,1.2 0 0 0 1.199952,1.2000326 1.2,1.2 0 0 0 1.200032,-1.2000326 1.2,1.2 0 0 0 -1.200032,-1.1999511 z m 0,0.3999837 a 0.80000001,0.80000001 0 0 1 0.800048,0.7999674 0.80000001,0.80000001 0 0 1 -0.800048,0.8000489 0.80000001,0.80000001 0 0 1 -0.799968,-0.8000489 0.80000001,0.80000001 0 0 1 0.799968,-0.7999674 z" />
    </g>
    <g
       id="g1413"
       transform="translate(-3.7817845,25.845518)">
      <path
         id="path1409"
         style="fill:#00ff00;stroke-width:0.251969"
         d="m 21.098714,3.549235 a 2,2 0 0 0 -2,2 2,2 0 0 0 2,2 2,2 0 0 0 2,-2 2,2 0 0 0 -2,-2 z m -0.05884,0.3999837 c 0.02118,-1.01e-4 0.0425,2.534e-4 0.06388,0.00114 0.291133,-4.04e-4 0.581702,0.08129 0.830241,0.2333171 0.862941,0.4899279 1.04121,1.8164242 0.299561,2.5018717 -0.74228,0.8084648 -2.228803,0.5119857 -2.606039,-0.5197754 -0.451824,-0.9775685 0.34884,-2.211482 1.412354,-2.2165527 z" />
      <path
         id="path1411"
         style="fill:#00ff00;fill-opacity:1;stroke-width:0.0629921"
         d="m 21.098674,4.3492432 a 1.2,1.2 0 0 0 -1.199952,1.1999511 1.2,1.2 0 0 0 1.199952,1.2000326 1.2,1.2 0 0 0 1.200032,-1.2000326 1.2,1.2 0 0 0 -1.200032,-1.1999511 z m 0,0.3999837 a 0.80000001,0.80000001 0 0 1 0.800048,0.7999674 0.80000001,0.80000001 0 0 1 -0.800048,0.8000489 0.80000001,0.80000001 0 0 1 -0.799968,-0.8000489 0.80000001,0.80000001 0 0 1 0.799968,-0.7999674 z" />
    </g>
    <g
       id="g1419"
       transform="translate(21.959065,16.145696)">
      <path
         id="path1415"
         style="fill:#00ff00;stroke-width:0.251969"
         d="m 21.098714,3.549235 a 2,2 0 0 0 -2,2 2,2 0 0 0 2,2 2,2 0 0 0 2,-2 2,2 0 0 0 -2,-2 z m -0.05884,0.3999837 c 0.02118,-1.01e-4 0.0425,2.534e-4 0.06388,0.00114 0.291133,-4.04e-4 0.581702,0.08129 0.830241,0.2333171 0.862941,0.4899279 1.04121,1.8164242 0.299561,2.5018717 -0.74228,0.8084648 -2.228803,0.5119857 -2.606039,-0.5197754 -0.451824,-0.9775685 0.34884,-2.211482 1.412354,-2.2165527 z" />
      <path
         id="path1417"
         style="fill:#00ff00;fill-opacity:1;stroke-width:0.0629921"
         d="m 21.098674,4.3492432 a 1.2,1.2 0 0 0 -1.199952,1.1999511 1.2,1.2 0 0 0 1.199952,1.2000326 1.2,1.2 0 0 0 1.200032,-1.2000326 1.2,1.2 0 0 0 -1.200032,-1.1999511 z m 0,0.3999837 a 0.80000001,0.80000001 0 0 1 0.800048,0.7999674 0.80000001,0.80000001 0 0 1 -0.800048,0.8000489 0.80000001,0.80000001 0 0 1 -0.799968,-0.8000489 0.80000001,0.80000001 0 0 1 0.799968,-0.7999674 z" />
    </g>
    <g
       id="g1425"
       transform="translate(7.4475955,17.115513)">
      <path
         id="path1421"
         style="fill:#00ff00;stroke-width:0.251969"
         d="m 21.098714,3.549235 a 2,2 0 0 0 -2,2 2,2 0 0 0 2,2 2,2 0 0 0 2,-2 2,2 0 0 0 -2,-2 z m -0.05884,0.3999837 c 0.02118,-1.01e-4 0.0425,2.534e-4 0.06388,0.00114 0.291133,-4.04e-4 0.581702,0.08129 0.830241,0.2333171 0.862941,0.4899279 1.04121,1.8164242 0.299561,2.5018717 -0.74228,0.8084648 -2.228803,0.5119857 -2.606039,-0.5197754 -0.451824,-0.9775685 0.34884,-2.211482 1.412354,-2.2165527 z" />
      <path
         id="path1423"
         style="fill:#00ff00;fill-opacity:1;stroke-width:0.0629921"
         d="m 21.098674,4.3492432 a 1.2,1.2 0 0 0 -1.199952,1.1999511 1.2,1.2 0 0 0 1.199952,1.2000326 1.2,1.2 0 0 0 1.200032,-1.2000326 1.2,1.2 0 0 0 -1.200032,-1.1999511 z m 0,0.3999837 a 0.80000001,0.80000001 0 0 1 0.800048,0.7999674 0.80000001,0.80000001 0 0 1 -0.800048,0.8000489 0.80000001,0.80000001 0 0 1 -0.799968,-0.8000489 0.80000001,0.80000001 0 0 1 0.799968,-0.7999674 z" />
    </g>
    <g
       id="g1431"
       transform="translate(-8.5210961,21.712337)">
      <path
         id="path1427"
         style="fill:#00ff00;stroke-width:0.251969"
         d="m 21.098714,3.549235 a 2,2 0 0 0 -2,2 2,2 0 0 0 2,2 2,2 0 0 0 2,-2 2,2 0 0 0 -2,-2 z m -0.05884,0.3999837 c 0.02118,-1.01e-4 0.0425,2.534e-4 0.06388,0.00114 0.291133,-4.04e-4 0.581702,0.08129 0.830241,0.2333171 0.862941,0.4899279 1.04121,1.8164242 0.299561,2.5018717 -0.74228,0.8084648 -2.228803,0.5119857 -2.606039,-0.5197754 -0.451824,-0.9775685 0.34884,-2.211482 1.412354,-2.2165527 z" />
      <path
         id="path1429"
         style="fill:#00ff00;fill-opacity:1;stroke-width:0.0629921"
         d="m 21.098674,4.3492432 a 1.2,1.2 0 0 0 -1.199952,1.1999511 1.2,1.2 0 0 0 1.199952,1.2000326 1.2,1.2 0 0 0 1.200032,-1.2000326 1.2,1.2 0 0 0 -1.200032,-1.1999511 z m 0,0.3999837 a 0.80000001,0.80000001 0 0 1 0.800048,0.7999674 0.80000001,0.80000001 0 0 1 -0.800048,0.8000489 0.80000001,0.80000001 0 0 1 -0.799968,-0.8000489 0.80000001,0.80000001 0 0 1 0.799968,-0.7999674 z" />
    </g>
    <g
       id="g1437"
       transform="translate(8.788207,22.063556)">
      <path
         id="path1433"
         style="fill:#00ff00;stroke-width:0.251969"
         d="m 21.098714,3.549235 a 2,2 0 0 0 -2,2 2,2 0 0 0 2,2 2,2 0 0 0 2,-2 2,2 0 0 0 -2,-2 z m -0.05884,0.3999837 c 0.02118,-1.01e-4 0.0425,2.534e-4 0.06388,0.00114 0.291133,-4.04e-4 0.581702,0.08129 0.830241,0.2333171 0.862941,0.4899279 1.04121,1.8164242 0.299561,2.5018717 -0.74228,0.8084648 -2.228803,0.5119857 -2.606039,-0.5197754 -0.451824,-0.9775685 0.34884,-2.211482 1.412354,-2.2165527 z" />
      <path
         id="path1435"
         style="fill:#00ff00;fill-opacity:1;stroke-width:0.0629921"
         d="m 21.098674,4.3492432 a 1.2,1.2 0 0 0 -1.199952,1.1999511 1.2,1.2 0 0 0 1.199952,1.2000326 1.2,1.2 0 0 0 1.200032,-1.2000326 1.2,1.2 0 0 0 -1.200032,-1.1999511 z m 0,0.3999837 a 0.80000001,0.80000001 0 0 1 0.800048,0.7999674 0.80000001,0.80000001 0 0 1 -0.800048,0.8000489 0.80000001,0.80000001 0 0 1 -0.799968,-0.8000489 0.80000001,0.80000001 0 0 1 0.799968,-0.7999674 z" />
    </g>
    <g
       id="g1443"
       transform="translate(13.204957,20.669322)">
      <path
         id="path1439"
         style="fill:#00ff00;stroke-width:0.251969"
         d="m 21.098714,3.549235 a 2,2 0 0 0 -2,2 2,2 0 0 0 2,2 2,2 0 0 0 2,-2 2,2 0 0 0 -2,-2 z m -0.05884,0.3999837 c 0.02118,-1.01e-4 0.0425,2.534e-4 0.06388,0.00114 0.291133,-4.04e-4 0.581702,0.08129 0.830241,0.2333171 0.862941,0.4899279 1.04121,1.8164242 0.299561,2.5018717 -0.74228,0.8084648 -2.228803,0.5119857 -2.606039,-0.5197754 -0.451824,-0.9775685 0.34884,-2.211482 1.412354,-2.2165527 z" />
      <path
         id="path1441"
         style="fill:#00ff00;fill-opacity:1;stroke-width:0.0629921"
         d="m 21.098674,4.3492432 a 1.2,1.2 0 0 0 -1.199952,1.1999511 1.2,1.2 0 0 0 1.199952,1.2000326 1.2,1.2 0 0 0 1.200032,-1.2000326 1.2,1.2 0 0 0 -1.200032,-1.1999511 z m 0,0.3999837 a 0.80000001,0.80000001 0 0 1 0.800048,0.7999674 0.80000001,0.80000001 0 0 1 -0.800048,0.8000489 0.80000001,0.80000001 0 0 1 -0.799968,-0.8000489 0.80000001,0.80000001 0 0 1 0.799968,-0.7999674 z" />
    </g>
    <g
       id="g1449"
       transform="translate(3.0308455,16.800541)">
      <path
         id="path1445"
         style="fill:#00ff00;stroke-width:0.251969"
         d="m 21.098714,3.549235 a 2,2 0 0 0 -2,2 2,2 0 0 0 2,2 2,2 0 0 0 2,-2 2,2 0 0 0 -2,-2 z m -0.05884,0.3999837 c 0.02118,-1.01e-4 0.0425,2.534e-4 0.06388,0.00114 0.291133,-4.04e-4 0.581702,0.08129 0.830241,0.2333171 0.862941,0.4899279 1.04121,1.8164242 0.299561,2.5018717 -0.74228,0.8084648 -2.228803,0.5119857 -2.606039,-0.5197754 -0.451824,-0.9775685 0.34884,-2.211482 1.412354,-2.2165527 z" />
      <path
         id="path1447"
         style="fill:#00ff00;fill-opacity:1;stroke-width:0.0629921"
         d="m 21.098674,4.3492432 a 1.2,1.2 0 0 0 -1.199952,1.1999511 1.2,1.2 0 0 0 1.199952,1.2000326 1.2,1.2 0 0 0 1.200032,-1.2000326 1.2,1.2 0 0 0 -1.200032,-1.1999511 z m 0,0.3999837 a 0.80000001,0.80000001 0 0 1 0.800048,0.7999674 0.80000001,0.80000001 0 0 1 -0.800048,0.8000489 0.80000001,0.80000001 0 0 1 -0.799968,-0.8000489 0.80000001,0.80000001 0 0 1 0.799968,-0.7999674 z" />
    </g>
    <g
       id="g1455"
       transform="translate(-18.020172,15.415203)">
      <path
         id="path1451"
         style="fill:#00ff00;stroke-width:0.251969"
         d="m 21.098714,3.549235 a 2,2 0 0 0 -2,2 2,2 0 0 0 2,2 2,2 0 0 0 2,-2 2,2 0 0 0 -2,-2 z m -0.05884,0.3999837 c 0.02118,-1.01e-4 0.0425,2.534e-4 0.06388,0.00114 0.291133,-4.04e-4 0.581702,0.08129 0.830241,0.2333171 0.862941,0.4899279 1.04121,1.8164242 0.299561,2.5018717 -0.74228,0.8084648 -2.228803,0.5119857 -2.606039,-0.5197754 -0.451824,-0.9775685 0.34884,-2.211482 1.412354,-2.2165527 z" />
      <path
         id="path1453"
         style="fill:#00ff00;fill-opacity:1;stroke-width:0.0629921"
         d="m 21.098674,4.3492432 a 1.2,1.2 0 0 0 -1.199952,1.1999511 1.2,1.2 0 0 0 1.199952,1.2000326 1.2,1.2 0 0 0 1.200032,-1.2000326 1.2,1.2 0 0 0 -1.200032,-1.1999511 z m 0,0.3999837 a 0.80000001,0.80000001 0 0 1 0.800048,0.7999674 0.80000001,0.80000001 0 0 1 -0.800048,0.8000489 0.80000001,0.80000001 0 0 1 -0.799968,-0.8000489 0.80000001,0.80000001 0 0 1 0.799968,-0.7999674 z" />
    </g>
    <g
       id="g1461"
       transform="translate(-8.1985344,26.129087)">
      <path
         id="path1457"
         style="fill:#00ff00;stroke-width:0.251969"
         d="m 21.098714,3.549235 a 2,2 0 0 0 -2,2 2,2 0 0 0 2,2 2,2 0 0 0 2,-2 2,2 0 0 0 -2,-2 z m -0.05884,0.3999837 c 0.02118,-1.01e-4 0.0425,2.534e-4 0.06388,0.00114 0.291133,-4.04e-4 0.581702,0.08129 0.830241,0.2333171 0.862941,0.4899279 1.04121,1.8164242 0.299561,2.5018717 -0.74228,0.8084648 -2.228803,0.5119857 -2.606039,-0.5197754 -0.451824,-0.9775685 0.34884,-2.211482 1.412354,-2.2165527 z" />
      <path
         id="path1459"
         style="fill:#00ff00;fill-opacity:1;stroke-width:0.0629921"
         d="m 21.098674,4.3492432 a 1.2,1.2 0 0 0 -1.199952,1.1999511 1.2,1.2 0 0 0 1.199952,1.2000326 1.2,1.2 0 0 0 1.200032,-1.2000326 1.2,1.2 0 0 0 -1.200032,-1.1999511 z m 0,0.3999837 a 0.80000001,0.80000001 0 0 1 0.800048,0.7999674 0.80000001,0.80000001 0 0 1 -0.800048,0.8000489 0.80000001,0.80000001 0 0 1 -0.799968,-0.8000489 0.80000001,0.80000001 0 0 1 0.799968,-0.7999674 z" />
    </g>
    <g
       id="g1467"
       transform="translate(-6.5754466,16.312872)">
      <path
         id="path1463"
         style="fill:#00ff00;stroke-width:0.251969"
         d="m 21.098714,3.549235 a 2,2 0 0 0 -2,2 2,2 0 0 0 2,2 2,2 0 0 0 2,-2 2,2 0 0 0 -2,-2 z m -0.05884,0.3999837 c 0.02118,-1.01e-4 0.0425,2.534e-4 0.06388,0.00114 0.291133,-4.04e-4 0.581702,0.08129 0.830241,0.2333171 0.862941,0.4899279 1.04121,1.8164242 0.299561,2.5018717 -0.74228,0.8084648 -2.228803,0.5119857 -2.606039,-0.5197754 -0.451824,-0.9775685 0.34884,-2.211482 1.412354,-2.2165527 z" />
      <path
         id="path1465"
         style="fill:#00ff00;fill-opacity:1;stroke-width:0.0629921"
         d="m 21.098674,4.3492432 a 1.2,1.2 0 0 0 -1.199952,1.1999511 1.2,1.2 0 0 0 1.199952,1.2000326 1.2,1.2 0 0 0 1.200032,-1.2000326 1.2,1.2 0 0 0 -1.200032,-1.1999511 z m 0,0.3999837 a 0.80000001,0.80000001 0 0 1 0.800048,0.7999674 0.80000001,0.80000001 0 0 1 -0.800048,0.8000489 0.80000001,0.80000001 0 0 1 -0.799968,-0.8000489 0.80000001,0.80000001 0 0 1 0.799968,-0.7999674 z" />
    </g>
    <g
       id="g1473"
       transform="translate(17.542315,13.738317)">
      <path
         id="path1469"
         style="fill:#00ff00;stroke-width:0.251969"
         d="m 21.098714,3.549235 a 2,2 0 0 0 -2,2 2,2 0 0 0 2,2 2,2 0 0 0 2,-2 2,2 0 0 0 -2,-2 z m -0.05884,0.3999837 c 0.02118,-1.01e-4 0.0425,2.534e-4 0.06388,0.00114 0.291133,-4.04e-4 0.581702,0.08129 0.830241,0.2333171 0.862941,0.4899279 1.04121,1.8164242 0.299561,2.5018717 -0.74228,0.8084648 -2.228803,0.5119857 -2.606039,-0.5197754 -0.451824,-0.9775685 0.34884,-2.211482 1.412354,-2.2165527 z" />
      <path
         id="path1471"
         style="fill:#00ff00;fill-opacity:1;stroke-width:0.0629921"
         d="m 21.098674,4.3492432 a 1.2,1.2 0 0 0 -1.199952,1.1999511 1.2,1.2 0 0 0 1.199952,1.2000326 1.2,1.2 0 0 0 1.200032,-1.2000326 1.2,1.2 0 0 0 -1.200032,-1.1999511 z m 0,0.3999837 a 0.80000001,0.80000001 0 0 1 0.800048,0.7999674 0.80000001,0.80000001 0 0 1 -0.800048,0.8000489 0.80000001,0.80000001 0 0 1 -0.799968,-0.8000489 0.80000001,0.80000001 0 0 1 0.799968,-0.7999674 z" />
    </g>
    <g
       id="g1479"
       transform="translate(26.272368,6.3334762)">
      <path
         id="path1475"
         style="fill:#00ff00;stroke-width:0.251969"
         d="m 21.098714,3.549235 a 2,2 0 0 0 -2,2 2,2 0 0 0 2,2 2,2 0 0 0 2,-2 2,2 0 0 0 -2,-2 z m -0.05884,0.3999837 c 0.02118,-1.01e-4 0.0425,2.534e-4 0.06388,0.00114 0.291133,-4.04e-4 0.581702,0.08129 0.830241,0.2333171 0.862941,0.4899279 1.04121,1.8164242 0.299561,2.5018717 -0.74228,0.8084648 -2.228803,0.5119857 -2.606039,-0.5197754 -0.451824,-0.9775685 0.34884,-2.211482 1.412354,-2.2165527 z" />
      <path
         id="path1477"
         style="fill:#00ff00;fill-opacity:1;stroke-width:0.0629921"
         d="m 21.098674,4.3492432 a 1.2,1.2 0 0 0 -1.199952,1.1999511 1.2,1.2 0 0 0 1.199952,1.2000326 1.2,1.2 0 0 0 1.200032,-1.2000326 1.2,1.2 0 0 0 -1.200032,-1.1999511 z m 0,0.3999837 a 0.80000001,0.80000001 0 0 1 0.800048,0.7999674 0.80000001,0.80000001 0 0 1 -0.800048,0.8000489 0.80000001,0.80000001 0 0 1 -0.799968,-0.8000489 0.80000001,0.80000001 0 0 1 0.799968,-0.7999674 z" />
    </g>
    <g
       id="g1485"
       transform="translate(-10.992197,16.247106)">
      <path
         id="path1481"
         style="fill:#00ff00;stroke-width:0.251969"
         d="m 21.098714,3.549235 a 2,2 0 0 0 -2,2 2,2 0 0 0 2,2 2,2 0 0 0 2,-2 2,2 0 0 0 -2,-2 z m -0.05884,0.3999837 c 0.02118,-1.01e-4 0.0425,2.534e-4 0.06388,0.00114 0.291133,-4.04e-4 0.581702,0.08129 0.830241,0.2333171 0.862941,0.4899279 1.04121,1.8164242 0.299561,2.5018717 -0.74228,0.8084648 -2.228803,0.5119857 -2.606039,-0.5197754 -0.451824,-0.9775685 0.34884,-2.211482 1.412354,-2.2165527 z" />
      <path
         id="path1483"
         style="fill:#00ff00;fill-opacity:1;stroke-width:0.0629921"
         d="m 21.098674,4.3492432 a 1.2,1.2 0 0 0 -1.199952,1.1999511 1.2,1.2 0 0 0 1.199952,1.2000326 1.2,1.2 0 0 0 1.200032,-1.2000326 1.2,1.2 0 0 0 -1.200032,-1.1999511 z m 0,0.3999837 a 0.80000001,0.80000001 0 0 1 0.800048,0.7999674 0.80000001,0.80000001 0 0 1 -0.800048,0.8000489 0.80000001,0.80000001 0 0 1 -0.799968,-0.8000489 0.80000001,0.80000001 0 0 1 0.799968,-0.7999674 z" />
    </g>
    <g
       id="g1491"
       transform="translate(11.910997,26.480306)">
      <path
         id="path1487"
         style="fill:#00ff00;stroke-width:0.251969"
         d="m 21.098714,3.549235 a 2,2 0 0 0 -2,2 2,2 0 0 0 2,2 2,2 0 0 0 2,-2 2,2 0 0 0 -2,-2 z m -0.05884,0.3999837 c 0.02118,-1.01e-4 0.0425,2.534e-4 0.06388,0.00114 0.291133,-4.04e-4 0.581702,0.08129 0.830241,0.2333171 0.862941,0.4899279 1.04121,1.8164242 0.299561,2.5018717 -0.74228,0.8084648 -2.228803,0.5119857 -2.606039,-0.5197754 -0.451824,-0.9775685 0.34884,-2.211482 1.412354,-2.2165527 z" />
      <path
         id="path1489"
         style="fill:#00ff00;fill-opacity:1;stroke-width:0.0629921"
         d="m 21.098674,4.3492432 a 1.2,1.2 0 0 0 -1.199952,1.1999511 1.2,1.2 0 0 0 1.199952,1.2000326 1.2,1.2 0 0 0 1.200032,-1.2000326 1.2,1.2 0 0 0 -1.200032,-1.1999511 z m 0,0.3999837 a 0.80000001,0.80000001 0 0 1 0.800048,0.7999674 0.80000001,0.80000001 0 0 1 -0.800048,0.8000489 0.80000001,0.80000001 0 0 1 -0.799968,-0.8000489 0.80000001,0.80000001 0 0 1 0.799968,-0.7999674 z" />
    </g>
    <g
       id="g1497"
       transform="translate(3.1672581,4.1496977)">
      <path
         id="path1493"
         style="fill:#00ff00;stroke-width:0.251969"
         d="m 21.098714,3.549235 a 2,2 0 0 0 -2,2 2,2 0 0 0 2,2 2,2 0 0 0 2,-2 2,2 0 0 0 -2,-2 z m -0.05884,0.3999837 c 0.02118,-1.01e-4 0.0425,2.534e-4 0.06388,0.00114 0.291133,-4.04e-4 0.581702,0.08129 0.830241,0.2333171 0.862941,0.4899279 1.04121,1.8164242 0.299561,2.5018717 -0.74228,0.8084648 -2.228803,0.5119857 -2.606039,-0.5197754 -0.451824,-0.9775685 0.34884,-2.211482 1.412354,-2.2165527 z" />
      <path
         id="path1495"
         style="fill:#00ff00;fill-opacity:1;stroke-width:0.0629921"
         d="m 21.098674,4.3492432 a 1.2,1.2 0 0 0 -1.199952,1.1999511 1.2,1.2 0 0 0 1.199952,1.2000326 1.2,1.2 0 0 0 1.200032,-1.2000326 1.2,1.2 0 0 0 -1.200032,-1.1999511 z m 0,0.3999837 a 0.80000001,0.80000001 0 0 1 0.800048,0.7999674 0.80000001,0.80000001 0 0 1 -0.800048,0.8000489 0.80000001,0.80000001 0 0 1 -0.799968,-0.8000489 0.80000001,0.80000001 0 0 1 0.799968,-0.7999674 z" />
    </g>
    <g
       id="g1503"
       transform="translate(31.437939,25.726287)">
      <path
         id="path1499"
         style="fill:#00ff00;stroke-width:0.251969"
         d="m 21.098714,3.549235 a 2,2 0 0 0 -2,2 2,2 0 0 0 2,2 2,2 0 0 0 2,-2 2,2 0 0 0 -2,-2 z m -0.05884,0.3999837 c 0.02118,-1.01e-4 0.0425,2.534e-4 0.06388,0.00114 0.291133,-4.04e-4 0.581702,0.08129 0.830241,0.2333171 0.862941,0.4899279 1.04121,1.8164242 0.299561,2.5018717 -0.74228,0.8084648 -2.228803,0.5119857 -2.606039,-0.5197754 -0.451824,-0.9775685 0.34884,-2.211482 1.412354,-2.2165527 z" />
      <path
         id="path1501"
         style="fill:#00ff00;fill-opacity:1;stroke-width:0.0629921"
         d="m 21.098674,4.3492432 a 1.2,1.2 0 0 0 -1.199952,1.1999511 1.2,1.2 0 0 0 1.199952,1.2000326 1.2,1.2 0 0 0 1.200032,-1.2000326 1.2,1.2 0 0 0 -1.200032,-1.1999511 z m 0,0.3999837 a 0.80000001,0.80000001 0 0 1 0.800048,0.7999674 0.80000001,0.80000001 0 0 1 -0.800048,0.8000489 0.80000001,0.80000001 0 0 1 -0.799968,-0.8000489 0.80000001,0.80000001 0 0 1 0.799968,-0.7999674 z" />
    </g>
    <g
       id="g1509"
       transform="translate(-10.612469,-1.2089999)">
      <path
         id="path1505"
         style="fill:#00ff00;stroke-width:0.251969"
         d="m 21.098714,3.549235 a 2,2 0 0 0 -2,2 2,2 0 0 0 2,2 2,2 0 0 0 2,-2 2,2 0 0 0 -2,-2 z m -0.05884,0.3999837 c 0.02118,-1.01e-4 0.0425,2.534e-4 0.06388,0.00114 0.291133,-4.04e-4 0.581702,0.08129 0.830241,0.2333171 0.862941,0.4899279 1.04121,1.8164242 0.299561,2.5018717 -0.74228,0.8084648 -2.228803,0.5119857 -2.606039,-0.5197754 -0.451824,-0.9775685 0.34884,-2.211482 1.412354,-2.2165527 z" />
      <path
         id="path1507"
         style="fill:#00ff00;fill-opacity:1;stroke-width:0.0629921"
         d="m 21.098674,4.3492432 a 1.2,1.2 0 0 0 -1.199952,1.1999511 1.2,1.2 0 0 0 1.199952,1.2000326 1.2,1.2 0 0 0 1.200032,-1.2000326 1.2,1.2 0 0 0 -1.200032,-1.1999511 z m 0,0.3999837 a 0.80000001,0.80000001 0 0 1 0.800048,0.7999674 0.80000001,0.80000001 0 0 1 -0.800048,0.8000489 0.80000001,0.80000001 0 0 1 -0.799968,-0.8000489 0.80000001,0.80000001 0 0 1 0.799968,-0.7999674 z" />
    </g>
    <g
       id="g1515"
       transform="translate(-1.3859045,15.912023)">
      <path
         id="path1511"
         style="fill:#00ff00;stroke-width:0.251969"
         d="m 21.098714,3.549235 a 2,2 0 0 0 -2,2 2,2 0 0 0 2,2 2,2 0 0 0 2,-2 2,2 0 0 0 -2,-2 z m -0.05884,0.3999837 c 0.02118,-1.01e-4 0.0425,2.534e-4 0.06388,0.00114 0.291133,-4.04e-4 0.581702,0.08129 0.830241,0.2333171 0.862941,0.4899279 1.04121,1.8164242 0.299561,2.5018717 -0.74228,0.8084648 -2.228803,0.5119857 -2.606039,-0.5197754 -0.451824,-0.9775685 0.34884,-2.211482 1.412354,-2.2165527 z" />
      <path
         id="path1513"
         style="fill:#00ff00;fill-opacity:1;stroke-width:0.0629921"
         d="m 21.098674,4.3492432 a 1.2,1.2 0 0 0 -1.199952,1.1999511 1.2,1.2 0 0 0 1.199952,1.2000326 1.2,1.2 0 0 0 1.200032,-1.2000326 1.2,1.2 0 0 0 -1.200032,-1.1999511 z m 0,0.3999837 a 0.80000001,0.80000001 0 0 1 0.800048,0.7999674 0.80000001,0.80000001 0 0 1 -0.800048,0.8000489 0.80000001,0.80000001 0 0 1 -0.799968,-0.8000489 0.80000001,0.80000001 0 0 1 0.799968,-0.7999674 z" />
    </g>
  </g>
</svg>
