<?xml version="1.0" encoding="UTF-8" standalone="no"?>
<!-- Created with Inkscape (http://www.inkscape.org/) -->

<svg
   width="14in"
   height="8.5in"
   viewBox="0 0 56 34"
   version="1.1"
   id="svg5"
   inkscape:version="1.2.2 (b0a8486541, 2022-12-01)"
   sodipodi:docname="Open_Circle_Hexagon.svg"
   xmlns:inkscape="http://www.inkscape.org/namespaces/inkscape"
   xmlns:sodipodi="http://sodipodi.sourceforge.net/DTD/sodipodi-0.dtd"
   xmlns="http://www.w3.org/2000/svg"
   xmlns:svg="http://www.w3.org/2000/svg">
  <sodipodi:namedview
     id="namedview7"
     pagecolor="#ffffff"
     bordercolor="#000000"
     borderopacity="0.25"
     inkscape:showpageshadow="2"
     inkscape:pageopacity="0.0"
     inkscape:pagecheckerboard="0"
     inkscape:deskcolor="#d1d1d1"
     inkscape:document-units="mm"
     showgrid="true"
     inkscape:zoom="1.829812"
     inkscape:cx="675.47923"
     inkscape:cy="354.9545"
     inkscape:window-width="3800"
     inkscape:window-height="2120"
     inkscape:window-x="3840"
     inkscape:window-y="0"
     inkscape:window-maximized="1"
     inkscape:current-layer="layer1">
    <inkscape:grid
       type="xygrid"
       id="grid182"
       units="in"
       spacingx="1"
       spacingy="1"
       empspacing="4"
       dotted="true" />
  </sodipodi:namedview>
  <defs
     id="defs2">
    <inkscape:path-effect
       effect="fill_between_many"
       method="originald"
       linkedpaths="#path1814,0,1"
       id="path-effect563" />
  </defs>
  <g
     inkscape:label="Layer 1"
     inkscape:groupmode="layer"
     id="layer1">
    <path
       id="path2977"
       style="fill:#00ff00;fill-opacity:1;stroke:none;stroke-width:0.4;stroke-dasharray:none;stroke-opacity:1"
       d="m 24.001811,2.2315174 -7.018148,4.0939131 0.03638,8.1248375 7.054525,4.030924 7.018148,-4.093912 -0.03638,-8.1248385 z m 0.03638,2.8974611 a 5.2273703,5.2273703 0 0 1 5.227373,5.2273765 5.2273703,5.2273703 0 0 1 -5.227376,5.227376 5.2273703,5.2273703 0 0 1 -5.227376,-5.227376 5.2273703,5.2273703 0 0 1 5.227376,-5.2273765 z" />
    <path
       id="path2982"
       style="fill:#00ff00;fill-opacity:1;stroke:none;stroke-width:0.4;stroke-dasharray:none;stroke-opacity:1"
       d="m 8.1545937,2.2315174 -7.0181472,4.0939131 0.036377,8.1248375 7.0545242,4.030924 7.0181483,-4.093912 -0.03638,-8.1248385 z m 0.03638,2.8974611 A 5.2273703,5.2273703 0 0 1 13.41835,10.356355 5.2273703,5.2273703 0 0 1 8.1909737,15.583731 5.2273703,5.2273703 0 0 1 2.9635979,10.356355 5.2273703,5.2273703 0 0 1 8.1909737,5.1289785 Z" />
    <path
       id="path2984"
       style="fill:#00ff00;fill-opacity:1;stroke:none;stroke-width:0.4;stroke-dasharray:none;stroke-opacity:1"
       d="m 39.849036,2.2315172 -7.018148,4.0939133 0.03638,8.1248375 7.054525,4.030924 7.018148,-4.093912 -0.03638,-8.1248385 z m 0.03638,2.8974613 a 5.2273703,5.2273703 0 0 1 5.227376,5.2273765 5.2273703,5.2273703 0 0 1 -5.227376,5.227376 5.2273703,5.2273703 0 0 1 -5.227376,-5.227376 5.2273703,5.2273703 0 0 1 5.227376,-5.2273765 z" />
    <path
       id="path2991"
       style="fill:#00ff00;fill-opacity:1;stroke:none;stroke-width:0.4;stroke-dasharray:none;stroke-opacity:1"
       d="m 31.925424,15.518809 -7.018148,4.093913 0.03638,8.124837 7.054525,4.030924 7.018148,-4.093912 -0.03638,-8.124838 z m 0.03638,2.897461 a 5.2273703,5.2273703 0 0 1 5.227373,5.227376 5.2273703,5.2273703 0 0 1 -5.227376,5.227376 5.2273703,5.2273703 0 0 1 -5.227376,-5.227376 5.2273703,5.2273703 0 0 1 5.227376,-5.227376 z" />
    <path
       id="path2993"
       style="fill:#00ff00;fill-opacity:1;stroke:none;stroke-width:0.4;stroke-dasharray:none;stroke-opacity:1"
       d="m 16.078202,15.518809 -7.0181468,4.093913 0.036377,8.124837 7.0545238,4.030924 7.018148,-4.093912 -0.03638,-8.124838 z m 0.03638,2.897461 a 5.2273703,5.2273703 0 0 1 5.227376,5.227376 5.2273703,5.2273703 0 0 1 -5.227376,5.227376 5.2273703,5.2273703 0 0 1 -5.227375,-5.227376 5.2273703,5.2273703 0 0 1 5.227375,-5.227376 z" />
    <path
       id="path2995"
       style="fill:#00ff00;fill-opacity:1;stroke:none;stroke-width:0.4;stroke-dasharray:none;stroke-opacity:1"
       d="m 47.772648,15.518809 -7.018148,4.093913 0.03638,8.124837 7.054525,4.030924 7.018148,-4.093912 -0.03638,-8.124838 z m 0.03638,2.897461 a 5.2273703,5.2273703 0 0 1 5.227376,5.227376 5.2273703,5.2273703 0 0 1 -5.227376,5.227376 5.2273703,5.2273703 0 0 1 -5.227376,-5.227376 5.2273703,5.2273703 0 0 1 5.227376,-5.227376 z" />
  </g>
</svg>
