<?xml version="1.0" encoding="UTF-8" standalone="no"?>
<!-- Created with Inkscape (http://www.inkscape.org/) -->

<svg
   width="14in"
   height="8.5in"
   viewBox="0 0 56 34"
   version="1.1"
   id="svg658"
   xml:space="preserve"
   inkscape:version="1.2.2 (b0a8486541, 2022-12-01)"
   sodipodi:docname="Stud_1.svg"
   xmlns:inkscape="http://www.inkscape.org/namespaces/inkscape"
   xmlns:sodipodi="http://sodipodi.sourceforge.net/DTD/sodipodi-0.dtd"
   xmlns="http://www.w3.org/2000/svg"
   xmlns:svg="http://www.w3.org/2000/svg"><sodipodi:namedview
     id="namedview660"
     pagecolor="#ffffff"
     bordercolor="#000000"
     borderopacity="0.25"
     inkscape:showpageshadow="2"
     inkscape:pageopacity="0.0"
     inkscape:pagecheckerboard="0"
     inkscape:deskcolor="#d1d1d1"
     inkscape:document-units="mm"
     showgrid="true"
     inkscape:zoom="1.2938725"
     inkscape:cx="347.79316"
     inkscape:cy="207.51659"
     inkscape:window-width="3800"
     inkscape:window-height="2120"
     inkscape:window-x="3840"
     inkscape:window-y="0"
     inkscape:window-maximized="1"
     inkscape:current-layer="layer1"><inkscape:grid
       type="xygrid"
       id="grid779"
       units="in"
       spacingx="0.8"
       originx="0"
       originy="0"
       spacingy="0.8" /></sodipodi:namedview><defs
     id="defs655" /><g
     inkscape:label="Layer 1"
     inkscape:groupmode="layer"
     id="layer1"><g
       id="g11383"
       transform="rotate(45,1.5245941,8.9196356)"><path
         id="path11379"
         style="fill:#fff204;stroke-width:0.629921"
         d="M 7.9903507,3.9886839 H 9.6159776 L 9.9993033,4.8068021 10.384028,3.9886839 h 1.606323 v 1.6290542 l -0.793968,0.3849077 0.793968,0.3803133 V 7.9886839 H 10.391222 L 10.006796,7.1901395 9.6043024,7.9886839 H 7.9903507 V 6.397159 L 8.8182,6.0065193 7.9903507,5.5874396 Z"
         sodipodi:nodetypes="ccccccccccccccccc" /><path
         id="path11381"
         style="fill:#ff4804;stroke-width:0.629921"
         d="m 8.8170185,4.8108764 h 0.6000001 l 0.5799993,0.774056 0.6200011,-0.774056 h 0.6 v 0.6 l -0.82474,0.577767 0.82474,0.6222331 v 0.6 h -0.6 L 10.00023,6.3694357 9.4170186,7.2108765 H 8.8170185 v -0.6 L 9.6095592,5.9878233 8.8170185,5.4108764 Z"
         sodipodi:nodetypes="ccccccccccccccccc" /></g><g
       id="g11395"
       transform="rotate(45,6.128773,20.035108)"><path
         id="path11391"
         style="fill:#fff204;stroke-width:0.629921"
         d="M 7.9903507,3.9886839 H 9.6159776 L 9.9993033,4.8068021 10.384028,3.9886839 h 1.606323 v 1.6290542 l -0.793968,0.3849077 0.793968,0.3803133 V 7.9886839 H 10.391222 L 10.006796,7.1901395 9.6043024,7.9886839 H 7.9903507 V 6.397159 L 8.8182,6.0065193 7.9903507,5.5874396 Z"
         sodipodi:nodetypes="ccccccccccccccccc" /><path
         id="path11393"
         style="fill:#ff4804;stroke-width:0.629921"
         d="m 8.8170185,4.8108764 h 0.6000001 l 0.5799993,0.774056 0.6200011,-0.774056 h 0.6 v 0.6 l -0.82474,0.577767 0.82474,0.6222331 v 0.6 h -0.6 L 10.00023,6.3694357 9.4170186,7.2108765 H 8.8170185 v -0.6 L 9.6095592,5.9878233 8.8170185,5.4108764 Z"
         sodipodi:nodetypes="ccccccccccccccccc" /></g><g
       id="g11407"
       transform="rotate(45,10.732952,31.150579)"><path
         id="path11403"
         style="fill:#fff204;stroke-width:0.629921"
         d="M 7.9903507,3.9886839 H 9.6159776 L 9.9993033,4.8068021 10.384028,3.9886839 h 1.606323 v 1.6290542 l -0.793968,0.3849077 0.793968,0.3803133 V 7.9886839 H 10.391222 L 10.006796,7.1901395 9.6043024,7.9886839 H 7.9903507 V 6.397159 L 8.8182,6.0065193 7.9903507,5.5874396 Z"
         sodipodi:nodetypes="ccccccccccccccccc" /><path
         id="path11405"
         style="fill:#ff4804;stroke-width:0.629921"
         d="m 8.8170185,4.8108764 h 0.6000001 l 0.5799993,0.774056 0.6200011,-0.774056 h 0.6 v 0.6 l -0.82474,0.577767 0.82474,0.6222331 v 0.6 h -0.6 L 10.00023,6.3694357 9.4170186,7.2108765 H 8.8170185 v -0.6 L 9.6095592,5.9878233 8.8170185,5.4108764 Z"
         sodipodi:nodetypes="ccccccccccccccccc" /></g><g
       id="g11419"
       transform="rotate(45,15.337131,42.26605)"><path
         id="path11415"
         style="fill:#fff204;stroke-width:0.629921"
         d="M 7.9903507,3.9886839 H 9.6159776 L 9.9993033,4.8068021 10.384028,3.9886839 h 1.606323 v 1.6290542 l -0.793968,0.3849077 0.793968,0.3803133 V 7.9886839 H 10.391222 L 10.006796,7.1901395 9.6043024,7.9886839 H 7.9903507 V 6.397159 L 8.8182,6.0065193 7.9903507,5.5874396 Z"
         sodipodi:nodetypes="ccccccccccccccccc" /><path
         id="path11417"
         style="fill:#ff4804;stroke-width:0.629921"
         d="m 8.8170185,4.8108764 h 0.6000001 l 0.5799993,0.774056 0.6200011,-0.774056 h 0.6 v 0.6 l -0.82474,0.577767 0.82474,0.6222331 v 0.6 h -0.6 L 10.00023,6.3694357 9.4170186,7.2108765 H 8.8170185 v -0.6 L 9.6095592,5.9878233 8.8170185,5.4108764 Z"
         sodipodi:nodetypes="ccccccccccccccccc" /></g><g
       id="g11431"
       transform="rotate(45,19.94131,53.381522)"><path
         id="path11427"
         style="fill:#fff204;stroke-width:0.629921"
         d="M 7.9903507,3.9886839 H 9.6159776 L 9.9993033,4.8068021 10.384028,3.9886839 h 1.606323 v 1.6290542 l -0.793968,0.3849077 0.793968,0.3803133 V 7.9886839 H 10.391222 L 10.006796,7.1901395 9.6043024,7.9886839 H 7.9903507 V 6.397159 L 8.8182,6.0065193 7.9903507,5.5874396 Z"
         sodipodi:nodetypes="ccccccccccccccccc" /><path
         id="path11429"
         style="fill:#ff4804;stroke-width:0.629921"
         d="m 8.8170185,4.8108764 h 0.6000001 l 0.5799993,0.774056 0.6200011,-0.774056 h 0.6 v 0.6 l -0.82474,0.577767 0.82474,0.6222331 v 0.6 h -0.6 L 10.00023,6.3694357 9.4170186,7.2108765 H 8.8170185 v -0.6 L 9.6095592,5.9878233 8.8170185,5.4108764 Z"
         sodipodi:nodetypes="ccccccccccccccccc" /></g><g
       id="g11377"
       transform="rotate(45,-5.8965376,5.229327)"><path
         id="path11373"
         style="fill:#fff204;stroke-width:0.629921"
         d="M 7.9903507,3.9886839 H 9.6159776 L 9.9993033,4.8068021 10.384028,3.9886839 h 1.606323 v 1.6290542 l -0.793968,0.3849077 0.793968,0.3803133 V 7.9886839 H 10.391222 L 10.006796,7.1901395 9.6043024,7.9886839 H 7.9903507 V 6.397159 L 8.8182,6.0065193 7.9903507,5.5874396 Z"
         sodipodi:nodetypes="ccccccccccccccccc" /><path
         id="path11375"
         style="fill:#ff4804;stroke-width:0.629921"
         d="m 8.8170185,4.8108764 h 0.6000001 l 0.5799993,0.774056 0.6200011,-0.774056 h 0.6 v 0.6 l -0.82474,0.577767 0.82474,0.6222331 v 0.6 h -0.6 L 10.00023,6.3694357 9.4170186,7.2108765 H 8.8170185 v -0.6 L 9.6095592,5.9878233 8.8170185,5.4108764 Z"
         sodipodi:nodetypes="ccccccccccccccccc" /></g><g
       id="g11389"
       transform="rotate(45,-1.2565861,16.431161)"><path
         id="path11385"
         style="fill:#fff204;stroke-width:0.629921"
         d="M 7.9903507,3.9886839 H 9.6159776 L 9.9993033,4.8068021 10.384028,3.9886839 h 1.606323 v 1.6290542 l -0.793968,0.3849077 0.793968,0.3803133 V 7.9886839 H 10.391222 L 10.006796,7.1901395 9.6043024,7.9886839 H 7.9903507 V 6.397159 L 8.8182,6.0065193 7.9903507,5.5874396 Z"
         sodipodi:nodetypes="ccccccccccccccccc" /><path
         id="path11387"
         style="fill:#ff4804;stroke-width:0.629921"
         d="m 8.8170185,4.8108764 h 0.6000001 l 0.5799993,0.774056 0.6200011,-0.774056 h 0.6 v 0.6 l -0.82474,0.577767 0.82474,0.6222331 v 0.6 h -0.6 L 10.00023,6.3694357 9.4170186,7.2108765 H 8.8170185 v -0.6 L 9.6095592,5.9878233 8.8170185,5.4108764 Z"
         sodipodi:nodetypes="ccccccccccccccccc" /></g><g
       id="g11401"
       transform="rotate(45,3.3833653,27.632995)"><path
         id="path11397"
         style="fill:#fff204;stroke-width:0.629921"
         d="M 7.9903507,3.9886839 H 9.6159776 L 9.9993033,4.8068021 10.384028,3.9886839 h 1.606323 v 1.6290542 l -0.793968,0.3849077 0.793968,0.3803133 V 7.9886839 H 10.391222 L 10.006796,7.1901395 9.6043024,7.9886839 H 7.9903507 V 6.397159 L 8.8182,6.0065193 7.9903507,5.5874396 Z"
         sodipodi:nodetypes="ccccccccccccccccc" /><path
         id="path11399"
         style="fill:#ff4804;stroke-width:0.629921"
         d="m 8.8170185,4.8108764 h 0.6000001 l 0.5799993,0.774056 0.6200011,-0.774056 h 0.6 v 0.6 l -0.82474,0.577767 0.82474,0.6222331 v 0.6 h -0.6 L 10.00023,6.3694357 9.4170186,7.2108765 H 8.8170185 v -0.6 L 9.6095592,5.9878233 8.8170185,5.4108764 Z"
         sodipodi:nodetypes="ccccccccccccccccc" /></g><g
       id="g11413"
       transform="rotate(45,8.0233166,38.834829)"><path
         id="path11409"
         style="fill:#fff204;stroke-width:0.629921"
         d="M 7.9903507,3.9886839 H 9.6159776 L 9.9993033,4.8068021 10.384028,3.9886839 h 1.606323 v 1.6290542 l -0.793968,0.3849077 0.793968,0.3803133 V 7.9886839 H 10.391222 L 10.006796,7.1901395 9.6043024,7.9886839 H 7.9903507 V 6.397159 L 8.8182,6.0065193 7.9903507,5.5874396 Z"
         sodipodi:nodetypes="ccccccccccccccccc" /><path
         id="path11411"
         style="fill:#ff4804;stroke-width:0.629921"
         d="m 8.8170185,4.8108764 h 0.6000001 l 0.5799993,0.774056 0.6200011,-0.774056 h 0.6 v 0.6 l -0.82474,0.577767 0.82474,0.6222331 v 0.6 h -0.6 L 10.00023,6.3694357 9.4170186,7.2108765 H 8.8170185 v -0.6 L 9.6095592,5.9878233 8.8170185,5.4108764 Z"
         sodipodi:nodetypes="ccccccccccccccccc" /></g><g
       id="g11425"
       transform="rotate(45,12.663268,50.036662)"><path
         id="path11421"
         style="fill:#fff204;stroke-width:0.629921"
         d="M 7.9903507,3.9886839 H 9.6159776 L 9.9993033,4.8068021 10.384028,3.9886839 h 1.606323 v 1.6290542 l -0.793968,0.3849077 0.793968,0.3803133 V 7.9886839 H 10.391222 L 10.006796,7.1901395 9.6043024,7.9886839 H 7.9903507 V 6.397159 L 8.8182,6.0065193 7.9903507,5.5874396 Z"
         sodipodi:nodetypes="ccccccccccccccccc" /><path
         id="path11423"
         style="fill:#ff4804;stroke-width:0.629921"
         d="m 8.8170185,4.8108764 h 0.6000001 l 0.5799993,0.774056 0.6200011,-0.774056 h 0.6 v 0.6 l -0.82474,0.577767 0.82474,0.6222331 v 0.6 h -0.6 L 10.00023,6.3694357 9.4170186,7.2108765 H 8.8170185 v -0.6 L 9.6095592,5.9878233 8.8170185,5.4108764 Z"
         sodipodi:nodetypes="ccccccccccccccccc" /></g><g
       id="g11437"
       transform="rotate(45,17.30322,61.238496)"><path
         id="path11433"
         style="fill:#fff204;stroke-width:0.629921"
         d="M 7.9903507,3.9886839 H 9.6159776 L 9.9993033,4.8068021 10.384028,3.9886839 h 1.606323 v 1.6290542 l -0.793968,0.3849077 0.793968,0.3803133 V 7.9886839 H 10.391222 L 10.006796,7.1901395 9.6043024,7.9886839 H 7.9903507 V 6.397159 L 8.8182,6.0065193 7.9903507,5.5874396 Z"
         sodipodi:nodetypes="ccccccccccccccccc" /><path
         id="path11435"
         style="fill:#ff4804;stroke-width:0.629921"
         d="m 8.8170185,4.8108764 h 0.6000001 l 0.5799993,0.774056 0.6200011,-0.774056 h 0.6 v 0.6 l -0.82474,0.577767 0.82474,0.6222331 v 0.6 h -0.6 L 10.00023,6.3694357 9.4170186,7.2108765 H 8.8170185 v -0.6 L 9.6095592,5.9878233 8.8170185,5.4108764 Z"
         sodipodi:nodetypes="ccccccccccccccccc" /></g><g
       id="g11460"
       transform="rotate(45,-8.5346275,13.086302)"><path
         id="path11456"
         style="fill:#fff204;stroke-width:0.629921"
         d="M 7.9903507,3.9886839 H 9.6159776 L 9.9993033,4.8068021 10.384028,3.9886839 h 1.606323 v 1.6290542 l -0.793968,0.3849077 0.793968,0.3803133 V 7.9886839 H 10.391222 L 10.006796,7.1901395 9.6043024,7.9886839 H 7.9903507 V 6.397159 L 8.8182,6.0065193 7.9903507,5.5874396 Z"
         sodipodi:nodetypes="ccccccccccccccccc" /><path
         id="path11458"
         style="fill:#ff4804;stroke-width:0.629921"
         d="m 8.8170185,4.8108764 h 0.6000001 l 0.5799993,0.774056 0.6200011,-0.774056 h 0.6 v 0.6 l -0.82474,0.577767 0.82474,0.6222331 v 0.6 h -0.6 L 10.00023,6.3694357 9.4170186,7.2108765 H 8.8170185 v -0.6 L 9.6095592,5.9878233 8.8170185,5.4108764 Z"
         sodipodi:nodetypes="ccccccccccccccccc" /></g><g
       id="g11466"
       transform="rotate(45,-3.9304486,24.201774)"><path
         id="path11462"
         style="fill:#fff204;stroke-width:0.629921"
         d="M 7.9903507,3.9886839 H 9.6159776 L 9.9993033,4.8068021 10.384028,3.9886839 h 1.606323 v 1.6290542 l -0.793968,0.3849077 0.793968,0.3803133 V 7.9886839 H 10.391222 L 10.006796,7.1901395 9.6043024,7.9886839 H 7.9903507 V 6.397159 L 8.8182,6.0065193 7.9903507,5.5874396 Z"
         sodipodi:nodetypes="ccccccccccccccccc" /><path
         id="path11464"
         style="fill:#ff4804;stroke-width:0.629921"
         d="m 8.8170185,4.8108764 h 0.6000001 l 0.5799993,0.774056 0.6200011,-0.774056 h 0.6 v 0.6 l -0.82474,0.577767 0.82474,0.6222331 v 0.6 h -0.6 L 10.00023,6.3694357 9.4170186,7.2108765 H 8.8170185 v -0.6 L 9.6095592,5.9878233 8.8170185,5.4108764 Z"
         sodipodi:nodetypes="ccccccccccccccccc" /></g><g
       id="g11472"
       transform="rotate(45,0.67373059,35.317245)"><path
         id="path11468"
         style="fill:#fff204;stroke-width:0.629921"
         d="M 7.9903507,3.9886839 H 9.6159776 L 9.9993033,4.8068021 10.384028,3.9886839 h 1.606323 v 1.6290542 l -0.793968,0.3849077 0.793968,0.3803133 V 7.9886839 H 10.391222 L 10.006796,7.1901395 9.6043024,7.9886839 H 7.9903507 V 6.397159 L 8.8182,6.0065193 7.9903507,5.5874396 Z"
         sodipodi:nodetypes="ccccccccccccccccc" /><path
         id="path11470"
         style="fill:#ff4804;stroke-width:0.629921"
         d="m 8.8170185,4.8108764 h 0.6000001 l 0.5799993,0.774056 0.6200011,-0.774056 h 0.6 v 0.6 l -0.82474,0.577767 0.82474,0.6222331 v 0.6 h -0.6 L 10.00023,6.3694357 9.4170186,7.2108765 H 8.8170185 v -0.6 L 9.6095592,5.9878233 8.8170185,5.4108764 Z"
         sodipodi:nodetypes="ccccccccccccccccc" /></g><g
       id="g11478"
       transform="rotate(45,5.2779092,46.432716)"><path
         id="path11474"
         style="fill:#fff204;stroke-width:0.629921"
         d="M 7.9903507,3.9886839 H 9.6159776 L 9.9993033,4.8068021 10.384028,3.9886839 h 1.606323 v 1.6290542 l -0.793968,0.3849077 0.793968,0.3803133 V 7.9886839 H 10.391222 L 10.006796,7.1901395 9.6043024,7.9886839 H 7.9903507 V 6.397159 L 8.8182,6.0065193 7.9903507,5.5874396 Z"
         sodipodi:nodetypes="ccccccccccccccccc" /><path
         id="path11476"
         style="fill:#ff4804;stroke-width:0.629921"
         d="m 8.8170185,4.8108764 h 0.6000001 l 0.5799993,0.774056 0.6200011,-0.774056 h 0.6 v 0.6 l -0.82474,0.577767 0.82474,0.6222331 v 0.6 h -0.6 L 10.00023,6.3694357 9.4170186,7.2108765 H 8.8170185 v -0.6 L 9.6095592,5.9878233 8.8170185,5.4108764 Z"
         sodipodi:nodetypes="ccccccccccccccccc" /></g><g
       id="g11484"
       transform="rotate(45,9.8820882,57.548188)"><path
         id="path11480"
         style="fill:#fff204;stroke-width:0.629921"
         d="M 7.9903507,3.9886839 H 9.6159776 L 9.9993033,4.8068021 10.384028,3.9886839 h 1.606323 v 1.6290542 l -0.793968,0.3849077 0.793968,0.3803133 V 7.9886839 H 10.391222 L 10.006796,7.1901395 9.6043024,7.9886839 H 7.9903507 V 6.397159 L 8.8182,6.0065193 7.9903507,5.5874396 Z"
         sodipodi:nodetypes="ccccccccccccccccc" /><path
         id="path11482"
         style="fill:#ff4804;stroke-width:0.629921"
         d="m 8.8170185,4.8108764 h 0.6000001 l 0.5799993,0.774056 0.6200011,-0.774056 h 0.6 v 0.6 l -0.82474,0.577767 0.82474,0.6222331 v 0.6 h -0.6 L 10.00023,6.3694357 9.4170186,7.2108765 H 8.8170185 v -0.6 L 9.6095592,5.9878233 8.8170185,5.4108764 Z"
         sodipodi:nodetypes="ccccccccccccccccc" /></g><g
       id="g11512"
       transform="rotate(45,4.162684,1.062661)"><path
         id="path11508"
         style="fill:#fff204;stroke-width:0.629921"
         d="M 7.9903507,3.9886839 H 9.6159776 L 9.9993033,4.8068021 10.384028,3.9886839 h 1.606323 v 1.6290542 l -0.793968,0.3849077 0.793968,0.3803133 V 7.9886839 H 10.391222 L 10.006796,7.1901395 9.6043024,7.9886839 H 7.9903507 V 6.397159 L 8.8182,6.0065193 7.9903507,5.5874396 Z"
         sodipodi:nodetypes="ccccccccccccccccc" /><path
         id="path11510"
         style="fill:#ff4804;stroke-width:0.629921"
         d="m 8.8170185,4.8108764 h 0.6000001 l 0.5799993,0.774056 0.6200011,-0.774056 h 0.6 v 0.6 l -0.82474,0.577767 0.82474,0.6222331 v 0.6 h -0.6 L 10.00023,6.3694357 9.4170186,7.2108765 H 8.8170185 v -0.6 L 9.6095592,5.9878233 8.8170185,5.4108764 Z"
         sodipodi:nodetypes="ccccccccccccccccc" /></g><g
       id="g11518"
       transform="rotate(45,8.8026355,12.264495)"><path
         id="path11514"
         style="fill:#fff204;stroke-width:0.629921"
         d="M 7.9903507,3.9886839 H 9.6159776 L 9.9993033,4.8068021 10.384028,3.9886839 h 1.606323 v 1.6290542 l -0.793968,0.3849077 0.793968,0.3803133 V 7.9886839 H 10.391222 L 10.006796,7.1901395 9.6043024,7.9886839 H 7.9903507 V 6.397159 L 8.8182,6.0065193 7.9903507,5.5874396 Z"
         sodipodi:nodetypes="ccccccccccccccccc" /><path
         id="path11516"
         style="fill:#ff4804;stroke-width:0.629921"
         d="m 8.8170185,4.8108764 h 0.6000001 l 0.5799993,0.774056 0.6200011,-0.774056 h 0.6 v 0.6 l -0.82474,0.577767 0.82474,0.6222331 v 0.6 h -0.6 L 10.00023,6.3694357 9.4170186,7.2108765 H 8.8170185 v -0.6 L 9.6095592,5.9878233 8.8170185,5.4108764 Z"
         sodipodi:nodetypes="ccccccccccccccccc" /></g><g
       id="g11524"
       transform="rotate(45,13.442587,23.466329)"><path
         id="path11520"
         style="fill:#fff204;stroke-width:0.629921"
         d="M 7.9903507,3.9886839 H 9.6159776 L 9.9993033,4.8068021 10.384028,3.9886839 h 1.606323 v 1.6290542 l -0.793968,0.3849077 0.793968,0.3803133 V 7.9886839 H 10.391222 L 10.006796,7.1901395 9.6043024,7.9886839 H 7.9903507 V 6.397159 L 8.8182,6.0065193 7.9903507,5.5874396 Z"
         sodipodi:nodetypes="ccccccccccccccccc" /><path
         id="path11522"
         style="fill:#ff4804;stroke-width:0.629921"
         d="m 8.8170185,4.8108764 h 0.6000001 l 0.5799993,0.774056 0.6200011,-0.774056 h 0.6 v 0.6 l -0.82474,0.577767 0.82474,0.6222331 v 0.6 h -0.6 L 10.00023,6.3694357 9.4170186,7.2108765 H 8.8170185 v -0.6 L 9.6095592,5.9878233 8.8170185,5.4108764 Z"
         sodipodi:nodetypes="ccccccccccccccccc" /></g><g
       id="g11530"
       transform="rotate(45,18.082538,34.668163)"><path
         id="path11526"
         style="fill:#fff204;stroke-width:0.629921"
         d="M 7.9903507,3.9886839 H 9.6159776 L 9.9993033,4.8068021 10.384028,3.9886839 h 1.606323 v 1.6290542 l -0.793968,0.3849077 0.793968,0.3803133 V 7.9886839 H 10.391222 L 10.006796,7.1901395 9.6043024,7.9886839 H 7.9903507 V 6.397159 L 8.8182,6.0065193 7.9903507,5.5874396 Z"
         sodipodi:nodetypes="ccccccccccccccccc" /><path
         id="path11528"
         style="fill:#ff4804;stroke-width:0.629921"
         d="m 8.8170185,4.8108764 h 0.6000001 l 0.5799993,0.774056 0.6200011,-0.774056 h 0.6 v 0.6 l -0.82474,0.577767 0.82474,0.6222331 v 0.6 h -0.6 L 10.00023,6.3694357 9.4170186,7.2108765 H 8.8170185 v -0.6 L 9.6095592,5.9878233 8.8170185,5.4108764 Z"
         sodipodi:nodetypes="ccccccccccccccccc" /></g><g
       id="g11536"
       transform="rotate(45,22.72249,45.869996)"><path
         id="path11532"
         style="fill:#fff204;stroke-width:0.629921"
         d="M 7.9903507,3.9886839 H 9.6159776 L 9.9993033,4.8068021 10.384028,3.9886839 h 1.606323 v 1.6290542 l -0.793968,0.3849077 0.793968,0.3803133 V 7.9886839 H 10.391222 L 10.006796,7.1901395 9.6043024,7.9886839 H 7.9903507 V 6.397159 L 8.8182,6.0065193 7.9903507,5.5874396 Z"
         sodipodi:nodetypes="ccccccccccccccccc" /><path
         id="path11534"
         style="fill:#ff4804;stroke-width:0.629921"
         d="m 8.8170185,4.8108764 h 0.6000001 l 0.5799993,0.774056 0.6200011,-0.774056 h 0.6 v 0.6 l -0.82474,0.577767 0.82474,0.6222331 v 0.6 h -0.6 L 10.00023,6.3694357 9.4170186,7.2108765 H 8.8170185 v -0.6 L 9.6095592,5.9878233 8.8170185,5.4108764 Z"
         sodipodi:nodetypes="ccccccccccccccccc" /></g><g
       id="g11542"
       transform="rotate(45,27.362442,57.07183)"><path
         id="path11538"
         style="fill:#fff204;stroke-width:0.629921"
         d="M 7.9903507,3.9886839 H 9.6159776 L 9.9993033,4.8068021 10.384028,3.9886839 h 1.606323 v 1.6290542 l -0.793968,0.3849077 0.793968,0.3803133 V 7.9886839 H 10.391222 L 10.006796,7.1901395 9.6043024,7.9886839 H 7.9903507 V 6.397159 L 8.8182,6.0065193 7.9903507,5.5874396 Z"
         sodipodi:nodetypes="ccccccccccccccccc" /><path
         id="path11540"
         style="fill:#ff4804;stroke-width:0.629921"
         d="m 8.8170185,4.8108764 h 0.6000001 l 0.5799993,0.774056 0.6200011,-0.774056 h 0.6 v 0.6 l -0.82474,0.577767 0.82474,0.6222331 v 0.6 h -0.6 L 10.00023,6.3694357 9.4170186,7.2108765 H 8.8170185 v -0.6 L 9.6095592,5.9878233 8.8170185,5.4108764 Z"
         sodipodi:nodetypes="ccccccccccccccccc" /></g><g
       id="g11550"
       transform="rotate(45,-15.955759,9.395993)"><path
         id="path11546"
         style="fill:#fff204;stroke-width:0.629921"
         d="M 7.9903507,3.9886839 H 9.6159776 L 9.9993033,4.8068021 10.384028,3.9886839 h 1.606323 v 1.6290542 l -0.793968,0.3849077 0.793968,0.3803133 V 7.9886839 H 10.391222 L 10.006796,7.1901395 9.6043024,7.9886839 H 7.9903507 V 6.397159 L 8.8182,6.0065193 7.9903507,5.5874396 Z"
         sodipodi:nodetypes="ccccccccccccccccc" /><path
         id="path11548"
         style="fill:#ff4804;stroke-width:0.629921"
         d="m 8.8170185,4.8108764 h 0.6000001 l 0.5799993,0.774056 0.6200011,-0.774056 h 0.6 v 0.6 l -0.82474,0.577767 0.82474,0.6222331 v 0.6 h -0.6 L 10.00023,6.3694357 9.4170186,7.2108765 H 8.8170185 v -0.6 L 9.6095592,5.9878233 8.8170185,5.4108764 Z"
         sodipodi:nodetypes="ccccccccccccccccc" /></g><g
       id="g11556"
       transform="rotate(45,-11.315808,20.597827)"><path
         id="path11552"
         style="fill:#fff204;stroke-width:0.629921"
         d="M 7.9903507,3.9886839 H 9.6159776 L 9.9993033,4.8068021 10.384028,3.9886839 h 1.606323 v 1.6290542 l -0.793968,0.3849077 0.793968,0.3803133 V 7.9886839 H 10.391222 L 10.006796,7.1901395 9.6043024,7.9886839 H 7.9903507 V 6.397159 L 8.8182,6.0065193 7.9903507,5.5874396 Z"
         sodipodi:nodetypes="ccccccccccccccccc" /><path
         id="path11554"
         style="fill:#ff4804;stroke-width:0.629921"
         d="m 8.8170185,4.8108764 h 0.6000001 l 0.5799993,0.774056 0.6200011,-0.774056 h 0.6 v 0.6 l -0.82474,0.577767 0.82474,0.6222331 v 0.6 h -0.6 L 10.00023,6.3694357 9.4170186,7.2108765 H 8.8170185 v -0.6 L 9.6095592,5.9878233 8.8170185,5.4108764 Z"
         sodipodi:nodetypes="ccccccccccccccccc" /></g><g
       id="g11562"
       transform="rotate(45,-6.6758563,31.799661)"><path
         id="path11558"
         style="fill:#fff204;stroke-width:0.629921"
         d="M 7.9903507,3.9886839 H 9.6159776 L 9.9993033,4.8068021 10.384028,3.9886839 h 1.606323 v 1.6290542 l -0.793968,0.3849077 0.793968,0.3803133 V 7.9886839 H 10.391222 L 10.006796,7.1901395 9.6043024,7.9886839 H 7.9903507 V 6.397159 L 8.8182,6.0065193 7.9903507,5.5874396 Z"
         sodipodi:nodetypes="ccccccccccccccccc" /><path
         id="path11560"
         style="fill:#ff4804;stroke-width:0.629921"
         d="m 8.8170185,4.8108764 h 0.6000001 l 0.5799993,0.774056 0.6200011,-0.774056 h 0.6 v 0.6 l -0.82474,0.577767 0.82474,0.6222331 v 0.6 h -0.6 L 10.00023,6.3694357 9.4170186,7.2108765 H 8.8170185 v -0.6 L 9.6095592,5.9878233 8.8170185,5.4108764 Z"
         sodipodi:nodetypes="ccccccccccccccccc" /></g><g
       id="g11568"
       transform="rotate(45,-2.035905,43.001495)"><path
         id="path11564"
         style="fill:#fff204;stroke-width:0.629921"
         d="M 7.9903507,3.9886839 H 9.6159776 L 9.9993033,4.8068021 10.384028,3.9886839 h 1.606323 v 1.6290542 l -0.793968,0.3849077 0.793968,0.3803133 V 7.9886839 H 10.391222 L 10.006796,7.1901395 9.6043024,7.9886839 H 7.9903507 V 6.397159 L 8.8182,6.0065193 7.9903507,5.5874396 Z"
         sodipodi:nodetypes="ccccccccccccccccc" /><path
         id="path11566"
         style="fill:#ff4804;stroke-width:0.629921"
         d="m 8.8170185,4.8108764 h 0.6000001 l 0.5799993,0.774056 0.6200011,-0.774056 h 0.6 v 0.6 l -0.82474,0.577767 0.82474,0.6222331 v 0.6 h -0.6 L 10.00023,6.3694357 9.4170186,7.2108765 H 8.8170185 v -0.6 L 9.6095592,5.9878233 8.8170185,5.4108764 Z"
         sodipodi:nodetypes="ccccccccccccccccc" /></g><g
       id="g11574"
       transform="rotate(45,2.6040465,54.203328)"><path
         id="path11570"
         style="fill:#fff204;stroke-width:0.629921"
         d="M 7.9903507,3.9886839 H 9.6159776 L 9.9993033,4.8068021 10.384028,3.9886839 h 1.606323 v 1.6290542 l -0.793968,0.3849077 0.793968,0.3803133 V 7.9886839 H 10.391222 L 10.006796,7.1901395 9.6043024,7.9886839 H 7.9903507 V 6.397159 L 8.8182,6.0065193 7.9903507,5.5874396 Z"
         sodipodi:nodetypes="ccccccccccccccccc" /><path
         id="path11572"
         style="fill:#ff4804;stroke-width:0.629921"
         d="m 8.8170185,4.8108764 h 0.6000001 l 0.5799993,0.774056 0.6200011,-0.774056 h 0.6 v 0.6 l -0.82474,0.577767 0.82474,0.6222331 v 0.6 h -0.6 L 10.00023,6.3694357 9.4170186,7.2108765 H 8.8170185 v -0.6 L 9.6095592,5.9878233 8.8170185,5.4108764 Z"
         sodipodi:nodetypes="ccccccccccccccccc" /></g><g
       id="g11580"
       transform="rotate(45,7.2439985,65.405162)"><path
         id="path11576"
         style="fill:#fff204;stroke-width:0.629921"
         d="M 7.9903507,3.9886839 H 9.6159776 L 9.9993033,4.8068021 10.384028,3.9886839 h 1.606323 v 1.6290542 l -0.793968,0.3849077 0.793968,0.3803133 V 7.9886839 H 10.391222 L 10.006796,7.1901395 9.6043024,7.9886839 H 7.9903507 V 6.397159 L 8.8182,6.0065193 7.9903507,5.5874396 Z"
         sodipodi:nodetypes="ccccccccccccccccc" /><path
         id="path11578"
         style="fill:#ff4804;stroke-width:0.629921"
         d="m 8.8170185,4.8108764 h 0.6000001 l 0.5799993,0.774056 0.6200011,-0.774056 h 0.6 v 0.6 l -0.82474,0.577767 0.82474,0.6222331 v 0.6 h -0.6 L 10.00023,6.3694357 9.4170186,7.2108765 H 8.8170185 v -0.6 L 9.6095592,5.9878233 8.8170185,5.4108764 Z"
         sodipodi:nodetypes="ccccccccccccccccc" /></g><g
       id="g11588"
       transform="rotate(45,11.583815,4.7529697)"><path
         id="path11584"
         style="fill:#fff204;stroke-width:0.629921"
         d="M 7.9903507,3.9886839 H 9.6159776 L 9.9993033,4.8068021 10.384028,3.9886839 h 1.606323 v 1.6290542 l -0.793968,0.3849077 0.793968,0.3803133 V 7.9886839 H 10.391222 L 10.006796,7.1901395 9.6043024,7.9886839 H 7.9903507 V 6.397159 L 8.8182,6.0065193 7.9903507,5.5874396 Z"
         sodipodi:nodetypes="ccccccccccccccccc" /><path
         id="path11586"
         style="fill:#ff4804;stroke-width:0.629921"
         d="m 8.8170185,4.8108764 h 0.6000001 l 0.5799993,0.774056 0.6200011,-0.774056 h 0.6 v 0.6 l -0.82474,0.577767 0.82474,0.6222331 v 0.6 h -0.6 L 10.00023,6.3694357 9.4170186,7.2108765 H 8.8170185 v -0.6 L 9.6095592,5.9878233 8.8170185,5.4108764 Z"
         sodipodi:nodetypes="ccccccccccccccccc" /></g><g
       id="g11594"
       transform="rotate(45,16.187994,15.868442)"><path
         id="path11590"
         style="fill:#fff204;stroke-width:0.629921"
         d="M 7.9903507,3.9886839 H 9.6159776 L 9.9993033,4.8068021 10.384028,3.9886839 h 1.606323 v 1.6290542 l -0.793968,0.3849077 0.793968,0.3803133 V 7.9886839 H 10.391222 L 10.006796,7.1901395 9.6043024,7.9886839 H 7.9903507 V 6.397159 L 8.8182,6.0065193 7.9903507,5.5874396 Z"
         sodipodi:nodetypes="ccccccccccccccccc" /><path
         id="path11592"
         style="fill:#ff4804;stroke-width:0.629921"
         d="m 8.8170185,4.8108764 h 0.6000001 l 0.5799993,0.774056 0.6200011,-0.774056 h 0.6 v 0.6 l -0.82474,0.577767 0.82474,0.6222331 v 0.6 h -0.6 L 10.00023,6.3694357 9.4170186,7.2108765 H 8.8170185 v -0.6 L 9.6095592,5.9878233 8.8170185,5.4108764 Z"
         sodipodi:nodetypes="ccccccccccccccccc" /></g><g
       id="g11600"
       transform="rotate(45,20.792173,26.983913)"><path
         id="path11596"
         style="fill:#fff204;stroke-width:0.629921"
         d="M 7.9903507,3.9886839 H 9.6159776 L 9.9993033,4.8068021 10.384028,3.9886839 h 1.606323 v 1.6290542 l -0.793968,0.3849077 0.793968,0.3803133 V 7.9886839 H 10.391222 L 10.006796,7.1901395 9.6043024,7.9886839 H 7.9903507 V 6.397159 L 8.8182,6.0065193 7.9903507,5.5874396 Z"
         sodipodi:nodetypes="ccccccccccccccccc" /><path
         id="path11598"
         style="fill:#ff4804;stroke-width:0.629921"
         d="m 8.8170185,4.8108764 h 0.6000001 l 0.5799993,0.774056 0.6200011,-0.774056 h 0.6 v 0.6 l -0.82474,0.577767 0.82474,0.6222331 v 0.6 h -0.6 L 10.00023,6.3694357 9.4170186,7.2108765 H 8.8170185 v -0.6 L 9.6095592,5.9878233 8.8170185,5.4108764 Z"
         sodipodi:nodetypes="ccccccccccccccccc" /></g><g
       id="g11606"
       transform="rotate(45,25.396352,38.099384)"><path
         id="path11602"
         style="fill:#fff204;stroke-width:0.629921"
         d="M 7.9903507,3.9886839 H 9.6159776 L 9.9993033,4.8068021 10.384028,3.9886839 h 1.606323 v 1.6290542 l -0.793968,0.3849077 0.793968,0.3803133 V 7.9886839 H 10.391222 L 10.006796,7.1901395 9.6043024,7.9886839 H 7.9903507 V 6.397159 L 8.8182,6.0065193 7.9903507,5.5874396 Z"
         sodipodi:nodetypes="ccccccccccccccccc" /><path
         id="path11604"
         style="fill:#ff4804;stroke-width:0.629921"
         d="m 8.8170185,4.8108764 h 0.6000001 l 0.5799993,0.774056 0.6200011,-0.774056 h 0.6 v 0.6 l -0.82474,0.577767 0.82474,0.6222331 v 0.6 h -0.6 L 10.00023,6.3694357 9.4170186,7.2108765 H 8.8170185 v -0.6 L 9.6095592,5.9878233 8.8170185,5.4108764 Z"
         sodipodi:nodetypes="ccccccccccccccccc" /></g><g
       id="g11612"
       transform="rotate(45,30.000531,49.214856)"><path
         id="path11608"
         style="fill:#fff204;stroke-width:0.629921"
         d="M 7.9903507,3.9886839 H 9.6159776 L 9.9993033,4.8068021 10.384028,3.9886839 h 1.606323 v 1.6290542 l -0.793968,0.3849077 0.793968,0.3803133 V 7.9886839 H 10.391222 L 10.006796,7.1901395 9.6043024,7.9886839 H 7.9903507 V 6.397159 L 8.8182,6.0065193 7.9903507,5.5874396 Z"
         sodipodi:nodetypes="ccccccccccccccccc" /><path
         id="path11610"
         style="fill:#ff4804;stroke-width:0.629921"
         d="m 8.8170185,4.8108764 h 0.6000001 l 0.5799993,0.774056 0.6200011,-0.774056 h 0.6 v 0.6 l -0.82474,0.577767 0.82474,0.6222331 v 0.6 h -0.6 L 10.00023,6.3694357 9.4170186,7.2108765 H 8.8170185 v -0.6 L 9.6095592,5.9878233 8.8170185,5.4108764 Z"
         sodipodi:nodetypes="ccccccccccccccccc" /></g><g
       id="g11620"
       transform="rotate(45,14.221906,-3.104005)"><path
         id="path11616"
         style="fill:#fff204;stroke-width:0.629921"
         d="M 7.9903507,3.9886839 H 9.6159776 L 9.9993033,4.8068021 10.384028,3.9886839 h 1.606323 v 1.6290542 l -0.793968,0.3849077 0.793968,0.3803133 V 7.9886839 H 10.391222 L 10.006796,7.1901395 9.6043024,7.9886839 H 7.9903507 V 6.397159 L 8.8182,6.0065193 7.9903507,5.5874396 Z"
         sodipodi:nodetypes="ccccccccccccccccc" /><path
         id="path11618"
         style="fill:#ff4804;stroke-width:0.629921"
         d="m 8.8170185,4.8108764 h 0.6000001 l 0.5799993,0.774056 0.6200011,-0.774056 h 0.6 v 0.6 l -0.82474,0.577767 0.82474,0.6222331 v 0.6 h -0.6 L 10.00023,6.3694357 9.4170186,7.2108765 H 8.8170185 v -0.6 L 9.6095592,5.9878233 8.8170185,5.4108764 Z"
         sodipodi:nodetypes="ccccccccccccccccc" /></g><g
       id="g11626"
       transform="rotate(45,18.861857,8.0978289)"><path
         id="path11622"
         style="fill:#fff204;stroke-width:0.629921"
         d="M 7.9903507,3.9886839 H 9.6159776 L 9.9993033,4.8068021 10.384028,3.9886839 h 1.606323 v 1.6290542 l -0.793968,0.3849077 0.793968,0.3803133 V 7.9886839 H 10.391222 L 10.006796,7.1901395 9.6043024,7.9886839 H 7.9903507 V 6.397159 L 8.8182,6.0065193 7.9903507,5.5874396 Z"
         sodipodi:nodetypes="ccccccccccccccccc" /><path
         id="path11624"
         style="fill:#ff4804;stroke-width:0.629921"
         d="m 8.8170185,4.8108764 h 0.6000001 l 0.5799993,0.774056 0.6200011,-0.774056 h 0.6 v 0.6 l -0.82474,0.577767 0.82474,0.6222331 v 0.6 h -0.6 L 10.00023,6.3694357 9.4170186,7.2108765 H 8.8170185 v -0.6 L 9.6095592,5.9878233 8.8170185,5.4108764 Z"
         sodipodi:nodetypes="ccccccccccccccccc" /></g><g
       id="g11632"
       transform="rotate(45,23.501808,19.299663)"><path
         id="path11628"
         style="fill:#fff204;stroke-width:0.629921"
         d="M 7.9903507,3.9886839 H 9.6159776 L 9.9993033,4.8068021 10.384028,3.9886839 h 1.606323 v 1.6290542 l -0.793968,0.3849077 0.793968,0.3803133 V 7.9886839 H 10.391222 L 10.006796,7.1901395 9.6043024,7.9886839 H 7.9903507 V 6.397159 L 8.8182,6.0065193 7.9903507,5.5874396 Z"
         sodipodi:nodetypes="ccccccccccccccccc" /><path
         id="path11630"
         style="fill:#ff4804;stroke-width:0.629921"
         d="m 8.8170185,4.8108764 h 0.6000001 l 0.5799993,0.774056 0.6200011,-0.774056 h 0.6 v 0.6 l -0.82474,0.577767 0.82474,0.6222331 v 0.6 h -0.6 L 10.00023,6.3694357 9.4170186,7.2108765 H 8.8170185 v -0.6 L 9.6095592,5.9878233 8.8170185,5.4108764 Z"
         sodipodi:nodetypes="ccccccccccccccccc" /></g><g
       id="g11638"
       transform="rotate(45,28.14176,30.501497)"><path
         id="path11634"
         style="fill:#fff204;stroke-width:0.629921"
         d="M 7.9903507,3.9886839 H 9.6159776 L 9.9993033,4.8068021 10.384028,3.9886839 h 1.606323 v 1.6290542 l -0.793968,0.3849077 0.793968,0.3803133 V 7.9886839 H 10.391222 L 10.006796,7.1901395 9.6043024,7.9886839 H 7.9903507 V 6.397159 L 8.8182,6.0065193 7.9903507,5.5874396 Z"
         sodipodi:nodetypes="ccccccccccccccccc" /><path
         id="path11636"
         style="fill:#ff4804;stroke-width:0.629921"
         d="m 8.8170185,4.8108764 h 0.6000001 l 0.5799993,0.774056 0.6200011,-0.774056 h 0.6 v 0.6 l -0.82474,0.577767 0.82474,0.6222331 v 0.6 h -0.6 L 10.00023,6.3694357 9.4170186,7.2108765 H 8.8170185 v -0.6 L 9.6095592,5.9878233 8.8170185,5.4108764 Z"
         sodipodi:nodetypes="ccccccccccccccccc" /></g><g
       id="g11644"
       transform="rotate(45,32.781711,41.70333)"><path
         id="path11640"
         style="fill:#fff204;stroke-width:0.629921"
         d="M 7.9903507,3.9886839 H 9.6159776 L 9.9993033,4.8068021 10.384028,3.9886839 h 1.606323 v 1.6290542 l -0.793968,0.3849077 0.793968,0.3803133 V 7.9886839 H 10.391222 L 10.006796,7.1901395 9.6043024,7.9886839 H 7.9903507 V 6.397159 L 8.8182,6.0065193 7.9903507,5.5874396 Z"
         sodipodi:nodetypes="ccccccccccccccccc" /><path
         id="path11642"
         style="fill:#ff4804;stroke-width:0.629921"
         d="m 8.8170185,4.8108764 h 0.6000001 l 0.5799993,0.774056 0.6200011,-0.774056 h 0.6 v 0.6 l -0.82474,0.577767 0.82474,0.6222331 v 0.6 h -0.6 L 10.00023,6.3694357 9.4170186,7.2108765 H 8.8170185 v -0.6 L 9.6095592,5.9878233 8.8170185,5.4108764 Z"
         sodipodi:nodetypes="ccccccccccccccccc" /></g><g
       id="g11650"
       transform="rotate(45,37.421663,52.905164)"><path
         id="path11646"
         style="fill:#fff204;stroke-width:0.629921"
         d="M 7.9903507,3.9886839 H 9.6159776 L 9.9993033,4.8068021 10.384028,3.9886839 h 1.606323 v 1.6290542 l -0.793968,0.3849077 0.793968,0.3803133 V 7.9886839 H 10.391222 L 10.006796,7.1901395 9.6043024,7.9886839 H 7.9903507 V 6.397159 L 8.8182,6.0065193 7.9903507,5.5874396 Z"
         sodipodi:nodetypes="ccccccccccccccccc" /><path
         id="path11648"
         style="fill:#ff4804;stroke-width:0.629921"
         d="m 8.8170185,4.8108764 h 0.6000001 l 0.5799993,0.774056 0.6200011,-0.774056 h 0.6 v 0.6 l -0.82474,0.577767 0.82474,0.6222331 v 0.6 h -0.6 L 10.00023,6.3694357 9.4170186,7.2108765 H 8.8170185 v -0.6 L 9.6095592,5.9878233 8.8170185,5.4108764 Z"
         sodipodi:nodetypes="ccccccccccccccccc" /></g><g
       id="g11658"
       transform="rotate(45,-18.593849,17.252968)"><path
         id="path11654"
         style="fill:#fff204;stroke-width:0.629921"
         d="M 7.9903507,3.9886839 H 9.6159776 L 9.9993033,4.8068021 10.384028,3.9886839 h 1.606323 v 1.6290542 l -0.793968,0.3849077 0.793968,0.3803133 V 7.9886839 H 10.391222 L 10.006796,7.1901395 9.6043024,7.9886839 H 7.9903507 V 6.397159 L 8.8182,6.0065193 7.9903507,5.5874396 Z"
         sodipodi:nodetypes="ccccccccccccccccc" /><path
         id="path11656"
         style="fill:#ff4804;stroke-width:0.629921"
         d="m 8.8170185,4.8108764 h 0.6000001 l 0.5799993,0.774056 0.6200011,-0.774056 h 0.6 v 0.6 l -0.82474,0.577767 0.82474,0.6222331 v 0.6 h -0.6 L 10.00023,6.3694357 9.4170186,7.2108765 H 8.8170185 v -0.6 L 9.6095592,5.9878233 8.8170185,5.4108764 Z"
         sodipodi:nodetypes="ccccccccccccccccc" /></g><g
       id="g11664"
       transform="rotate(45,-13.98967,28.36844)"><path
         id="path11660"
         style="fill:#fff204;stroke-width:0.629921"
         d="M 7.9903507,3.9886839 H 9.6159776 L 9.9993033,4.8068021 10.384028,3.9886839 h 1.606323 v 1.6290542 l -0.793968,0.3849077 0.793968,0.3803133 V 7.9886839 H 10.391222 L 10.006796,7.1901395 9.6043024,7.9886839 H 7.9903507 V 6.397159 L 8.8182,6.0065193 7.9903507,5.5874396 Z"
         sodipodi:nodetypes="ccccccccccccccccc" /><path
         id="path11662"
         style="fill:#ff4804;stroke-width:0.629921"
         d="m 8.8170185,4.8108764 h 0.6000001 l 0.5799993,0.774056 0.6200011,-0.774056 h 0.6 v 0.6 l -0.82474,0.577767 0.82474,0.6222331 v 0.6 h -0.6 L 10.00023,6.3694357 9.4170186,7.2108765 H 8.8170185 v -0.6 L 9.6095592,5.9878233 8.8170185,5.4108764 Z"
         sodipodi:nodetypes="ccccccccccccccccc" /></g><g
       id="g11670"
       transform="rotate(45,-9.3854912,39.483911)"><path
         id="path11666"
         style="fill:#fff204;stroke-width:0.629921"
         d="M 7.9903507,3.9886839 H 9.6159776 L 9.9993033,4.8068021 10.384028,3.9886839 h 1.606323 v 1.6290542 l -0.793968,0.3849077 0.793968,0.3803133 V 7.9886839 H 10.391222 L 10.006796,7.1901395 9.6043024,7.9886839 H 7.9903507 V 6.397159 L 8.8182,6.0065193 7.9903507,5.5874396 Z"
         sodipodi:nodetypes="ccccccccccccccccc" /><path
         id="path11668"
         style="fill:#ff4804;stroke-width:0.629921"
         d="m 8.8170185,4.8108764 h 0.6000001 l 0.5799993,0.774056 0.6200011,-0.774056 h 0.6 v 0.6 l -0.82474,0.577767 0.82474,0.6222331 v 0.6 h -0.6 L 10.00023,6.3694357 9.4170186,7.2108765 H 8.8170185 v -0.6 L 9.6095592,5.9878233 8.8170185,5.4108764 Z"
         sodipodi:nodetypes="ccccccccccccccccc" /></g><g
       id="g11676"
       transform="rotate(45,-4.7813126,50.599382)"><path
         id="path11672"
         style="fill:#fff204;stroke-width:0.629921"
         d="M 7.9903507,3.9886839 H 9.6159776 L 9.9993033,4.8068021 10.384028,3.9886839 h 1.606323 v 1.6290542 l -0.793968,0.3849077 0.793968,0.3803133 V 7.9886839 H 10.391222 L 10.006796,7.1901395 9.6043024,7.9886839 H 7.9903507 V 6.397159 L 8.8182,6.0065193 7.9903507,5.5874396 Z"
         sodipodi:nodetypes="ccccccccccccccccc" /><path
         id="path11674"
         style="fill:#ff4804;stroke-width:0.629921"
         d="m 8.8170185,4.8108764 h 0.6000001 l 0.5799993,0.774056 0.6200011,-0.774056 h 0.6 v 0.6 l -0.82474,0.577767 0.82474,0.6222331 v 0.6 h -0.6 L 10.00023,6.3694357 9.4170186,7.2108765 H 8.8170185 v -0.6 L 9.6095592,5.9878233 8.8170185,5.4108764 Z"
         sodipodi:nodetypes="ccccccccccccccccc" /></g><g
       id="g11682"
       transform="rotate(45,-0.17713362,61.714854)"><path
         id="path11678"
         style="fill:#fff204;stroke-width:0.629921"
         d="M 7.9903507,3.9886839 H 9.6159776 L 9.9993033,4.8068021 10.384028,3.9886839 h 1.606323 v 1.6290542 l -0.793968,0.3849077 0.793968,0.3803133 V 7.9886839 H 10.391222 L 10.006796,7.1901395 9.6043024,7.9886839 H 7.9903507 V 6.397159 L 8.8182,6.0065193 7.9903507,5.5874396 Z"
         sodipodi:nodetypes="ccccccccccccccccc" /><path
         id="path11680"
         style="fill:#ff4804;stroke-width:0.629921"
         d="m 8.8170185,4.8108764 h 0.6000001 l 0.5799993,0.774056 0.6200011,-0.774056 h 0.6 v 0.6 l -0.82474,0.577767 0.82474,0.6222331 v 0.6 h -0.6 L 10.00023,6.3694357 9.4170186,7.2108765 H 8.8170185 v -0.6 L 9.6095592,5.9878233 8.8170185,5.4108764 Z"
         sodipodi:nodetypes="ccccccccccccccccc" /></g><g
       id="g11690"
       transform="rotate(45,-26.014981,13.562659)"><path
         id="path11686"
         style="fill:#fff204;stroke-width:0.629921"
         d="M 7.9903507,3.9886839 H 9.6159776 L 9.9993033,4.8068021 10.384028,3.9886839 h 1.606323 v 1.6290542 l -0.793968,0.3849077 0.793968,0.3803133 V 7.9886839 H 10.391222 L 10.006796,7.1901395 9.6043024,7.9886839 H 7.9903507 V 6.397159 L 8.8182,6.0065193 7.9903507,5.5874396 Z"
         sodipodi:nodetypes="ccccccccccccccccc" /><path
         id="path11688"
         style="fill:#ff4804;stroke-width:0.629921"
         d="m 8.8170185,4.8108764 h 0.6000001 l 0.5799993,0.774056 0.6200011,-0.774056 h 0.6 v 0.6 l -0.82474,0.577767 0.82474,0.6222331 v 0.6 h -0.6 L 10.00023,6.3694357 9.4170186,7.2108765 H 8.8170185 v -0.6 L 9.6095592,5.9878233 8.8170185,5.4108764 Z"
         sodipodi:nodetypes="ccccccccccccccccc" /></g><g
       id="g11696"
       transform="rotate(45,-21.375029,24.764493)"><path
         id="path11692"
         style="fill:#fff204;stroke-width:0.629921"
         d="M 7.9903507,3.9886839 H 9.6159776 L 9.9993033,4.8068021 10.384028,3.9886839 h 1.606323 v 1.6290542 l -0.793968,0.3849077 0.793968,0.3803133 V 7.9886839 H 10.391222 L 10.006796,7.1901395 9.6043024,7.9886839 H 7.9903507 V 6.397159 L 8.8182,6.0065193 7.9903507,5.5874396 Z"
         sodipodi:nodetypes="ccccccccccccccccc" /><path
         id="path11694"
         style="fill:#ff4804;stroke-width:0.629921"
         d="m 8.8170185,4.8108764 h 0.6000001 l 0.5799993,0.774056 0.6200011,-0.774056 h 0.6 v 0.6 l -0.82474,0.577767 0.82474,0.6222331 v 0.6 h -0.6 L 10.00023,6.3694357 9.4170186,7.2108765 H 8.8170185 v -0.6 L 9.6095592,5.9878233 8.8170185,5.4108764 Z"
         sodipodi:nodetypes="ccccccccccccccccc" /></g><g
       id="g11702"
       transform="rotate(45,-16.735078,35.966327)"><path
         id="path11698"
         style="fill:#fff204;stroke-width:0.629921"
         d="M 7.9903507,3.9886839 H 9.6159776 L 9.9993033,4.8068021 10.384028,3.9886839 h 1.606323 v 1.6290542 l -0.793968,0.3849077 0.793968,0.3803133 V 7.9886839 H 10.391222 L 10.006796,7.1901395 9.6043024,7.9886839 H 7.9903507 V 6.397159 L 8.8182,6.0065193 7.9903507,5.5874396 Z"
         sodipodi:nodetypes="ccccccccccccccccc" /><path
         id="path11700"
         style="fill:#ff4804;stroke-width:0.629921"
         d="m 8.8170185,4.8108764 h 0.6000001 l 0.5799993,0.774056 0.6200011,-0.774056 h 0.6 v 0.6 l -0.82474,0.577767 0.82474,0.6222331 v 0.6 h -0.6 L 10.00023,6.3694357 9.4170186,7.2108765 H 8.8170185 v -0.6 L 9.6095592,5.9878233 8.8170185,5.4108764 Z"
         sodipodi:nodetypes="ccccccccccccccccc" /></g><g
       id="g11708"
       transform="rotate(45,-12.095127,47.168161)"><path
         id="path11704"
         style="fill:#fff204;stroke-width:0.629921"
         d="M 7.9903507,3.9886839 H 9.6159776 L 9.9993033,4.8068021 10.384028,3.9886839 h 1.606323 v 1.6290542 l -0.793968,0.3849077 0.793968,0.3803133 V 7.9886839 H 10.391222 L 10.006796,7.1901395 9.6043024,7.9886839 H 7.9903507 V 6.397159 L 8.8182,6.0065193 7.9903507,5.5874396 Z"
         sodipodi:nodetypes="ccccccccccccccccc" /><path
         id="path11706"
         style="fill:#ff4804;stroke-width:0.629921"
         d="m 8.8170185,4.8108764 h 0.6000001 l 0.5799993,0.774056 0.6200011,-0.774056 h 0.6 v 0.6 l -0.82474,0.577767 0.82474,0.6222331 v 0.6 h -0.6 L 10.00023,6.3694357 9.4170186,7.2108765 H 8.8170185 v -0.6 L 9.6095592,5.9878233 8.8170185,5.4108764 Z"
         sodipodi:nodetypes="ccccccccccccccccc" /></g><g
       id="g11714"
       transform="rotate(45,-7.455175,58.369994)"><path
         id="path11710"
         style="fill:#fff204;stroke-width:0.629921"
         d="M 7.9903507,3.9886839 H 9.6159776 L 9.9993033,4.8068021 10.384028,3.9886839 h 1.606323 v 1.6290542 l -0.793968,0.3849077 0.793968,0.3803133 V 7.9886839 H 10.391222 L 10.006796,7.1901395 9.6043024,7.9886839 H 7.9903507 V 6.397159 L 8.8182,6.0065193 7.9903507,5.5874396 Z"
         sodipodi:nodetypes="ccccccccccccccccc" /><path
         id="path11712"
         style="fill:#ff4804;stroke-width:0.629921"
         d="m 8.8170185,4.8108764 h 0.6000001 l 0.5799993,0.774056 0.6200011,-0.774056 h 0.6 v 0.6 l -0.82474,0.577767 0.82474,0.6222331 v 0.6 h -0.6 L 10.00023,6.3694357 9.4170186,7.2108765 H 8.8170185 v -0.6 L 9.6095592,5.9878233 8.8170185,5.4108764 Z"
         sodipodi:nodetypes="ccccccccccccccccc" /></g><g
       id="g11720"
       transform="rotate(45,-2.815223,69.571828)"><path
         id="path11716"
         style="fill:#fff204;stroke-width:0.629921"
         d="M 7.9903507,3.9886839 H 9.6159776 L 9.9993033,4.8068021 10.384028,3.9886839 h 1.606323 v 1.6290542 l -0.793968,0.3849077 0.793968,0.3803133 V 7.9886839 H 10.391222 L 10.006796,7.1901395 9.6043024,7.9886839 H 7.9903507 V 6.397159 L 8.8182,6.0065193 7.9903507,5.5874396 Z"
         sodipodi:nodetypes="ccccccccccccccccc" /><path
         id="path11718"
         style="fill:#ff4804;stroke-width:0.629921"
         d="m 8.8170185,4.8108764 h 0.6000001 l 0.5799993,0.774056 0.6200011,-0.774056 h 0.6 v 0.6 l -0.82474,0.577767 0.82474,0.6222331 v 0.6 h -0.6 L 10.00023,6.3694357 9.4170186,7.2108765 H 8.8170185 v -0.6 L 9.6095592,5.9878233 8.8170185,5.4108764 Z"
         sodipodi:nodetypes="ccccccccccccccccc" /></g></g></svg>
