<?xml version="1.0" encoding="UTF-8" standalone="no"?>
<!-- Created with Inkscape (http://www.inkscape.org/) -->

<svg
   width="14in"
   height="8.5in"
   viewBox="0 0 56 34"
   version="1.1"
   id="svg5"
   inkscape:version="1.2.2 (b0a8486541, 2022-12-01)"
   sodipodi:docname="Open_Circle_Hexagon_Tile.svg"
   xmlns:inkscape="http://www.inkscape.org/namespaces/inkscape"
   xmlns:sodipodi="http://sodipodi.sourceforge.net/DTD/sodipodi-0.dtd"
   xmlns="http://www.w3.org/2000/svg"
   xmlns:svg="http://www.w3.org/2000/svg">
  <sodipodi:namedview
     id="namedview7"
     pagecolor="#ffffff"
     bordercolor="#000000"
     borderopacity="0.25"
     inkscape:showpageshadow="2"
     inkscape:pageopacity="0.0"
     inkscape:pagecheckerboard="0"
     inkscape:deskcolor="#d1d1d1"
     inkscape:document-units="mm"
     showgrid="true"
     inkscape:zoom="1.2938725"
     inkscape:cx="626.80057"
     inkscape:cy="523.62193"
     inkscape:window-width="3800"
     inkscape:window-height="2120"
     inkscape:window-x="3840"
     inkscape:window-y="0"
     inkscape:window-maximized="1"
     inkscape:current-layer="layer1">
    <inkscape:grid
       type="xygrid"
       id="grid182"
       units="in"
       spacingx="1"
       spacingy="1"
       empspacing="4"
       dotted="true" />
  </sodipodi:namedview>
  <defs
     id="defs2">
    <inkscape:path-effect
       effect="fill_between_many"
       method="originald"
       linkedpaths="#path1814,0,1"
       id="path-effect563" />
  </defs>
  <g
     inkscape:label="Layer 1"
     inkscape:groupmode="layer"
     id="layer1">
    <g
       id="g4915">
      <path
         id="path2977"
         style="fill:#00ff00;fill-opacity:1;stroke:none;stroke-width:0.0943746;stroke-dasharray:none;stroke-opacity:1"
         d="m 5.6695029,-2.895936 -1.655837,0.965903 0.0086,1.916945 1.664419,0.951041 1.655837,-0.965903 -0.0086,-1.916945 z m 0.0086,0.683616 a 1.2333269,1.2333269 0 0 1 1.233327,1.233328 1.2333269,1.2333269 0 0 1 -1.233328,1.233329 1.2333269,1.2333269 0 0 1 -1.233328,-1.233329 1.2333269,1.2333269 0 0 1 1.233328,-1.233328 z" />
      <path
         id="path2982"
         style="fill:#00ff00;fill-opacity:1;stroke:none;stroke-width:0.0943746;stroke-dasharray:none;stroke-opacity:1"
         d="m 1.937103,-2.895936 -1.655836,0.965903 0.0086,1.916945 1.664419,0.951041 1.655836,-0.965903 -0.0086,-1.916945 z m 0.0086,0.683616 A 1.2333269,1.2333269 0 0 1 3.179031,-0.978992 1.2333269,1.2333269 0 0 1 1.945703,0.254337 1.2333269,1.2333269 0 0 1 0.712374,-0.978992 1.2333269,1.2333269 0 0 1 1.945703,-2.21232 Z" />
      <path
         id="path2984"
         style="fill:#00ff00;fill-opacity:1;stroke:none;stroke-width:0.0943746;stroke-dasharray:none;stroke-opacity:1"
         d="m 9.4019028,-2.895936 -1.655837,0.965903 0.0086,1.916945 1.66442,0.951041 1.6558362,-0.965903 -0.0086,-1.916945 z m 0.0086,0.683616 a 1.2333269,1.2333269 0 0 1 1.2333282,1.233328 1.2333269,1.2333269 0 0 1 -1.2333282,1.233329 1.2333269,1.2333269 0 0 1 -1.233328,-1.233329 1.2333269,1.2333269 0 0 1 1.233328,-1.233328 z" />
      <path
         id="path3100"
         style="fill:#00ff00;fill-opacity:1;stroke:none;stroke-width:0.0943746;stroke-dasharray:none;stroke-opacity:1"
         d="m 16.866702,-2.895936 -1.655837,0.965903 0.0086,1.916945 1.664419,0.951041 1.655837,-0.965903 -0.0086,-1.916945 z m 0.0086,0.683616 a 1.2333269,1.2333269 0 0 1 1.233327,1.233328 1.2333269,1.2333269 0 0 1 -1.233328,1.233329 1.2333269,1.2333269 0 0 1 -1.233328,-1.233329 1.2333269,1.2333269 0 0 1 1.233329,-1.233328 z" />
      <path
         id="path3102"
         style="fill:#00ff00;fill-opacity:1;stroke:none;stroke-width:0.0943746;stroke-dasharray:none;stroke-opacity:1"
         d="m 13.134302,-2.895936 -1.655836,0.965903 0.0086,1.916945 1.664419,0.951041 1.655836,-0.965903 -0.0086,-1.916945 z m 0.0086,0.683616 a 1.2333269,1.2333269 0 0 1 1.233328,1.233328 1.2333269,1.2333269 0 0 1 -1.233328,1.233329 1.2333269,1.2333269 0 0 1 -1.233329,-1.233329 1.2333269,1.2333269 0 0 1 1.233329,-1.233328 z" />
      <path
         id="path3104"
         style="fill:#00ff00;fill-opacity:1;stroke:none;stroke-width:0.0943746;stroke-dasharray:none;stroke-opacity:1"
         d="m 20.599102,-2.895936 -1.655837,0.965903 0.0086,1.916945 1.66442,0.951041 1.655836,-0.965903 -0.0086,-1.916945 z m 0.0086,0.683616 a 1.2333269,1.2333269 0 0 1 1.233328,1.233328 1.2333269,1.2333269 0 0 1 -1.233328,1.233329 1.2333269,1.2333269 0 0 1 -1.233328,-1.233329 1.2333269,1.2333269 0 0 1 1.233328,-1.233328 z" />
      <path
         id="path3272"
         style="fill:#00ff00;fill-opacity:1;stroke:none;stroke-width:0.0943746;stroke-dasharray:none;stroke-opacity:1"
         d="m 28.063901,-2.895936 -1.655837,0.965903 0.0086,1.916945 1.664419,0.951041 1.655837,-0.965903 -0.0086,-1.916945 z m 0.0086,0.683616 A 1.2333269,1.2333269 0 0 1 29.305828,-0.978992 1.2333269,1.2333269 0 0 1 28.0725,0.254337 1.2333269,1.2333269 0 0 1 26.839172,-0.978992 1.2333269,1.2333269 0 0 1 28.0725,-2.21232 Z" />
      <path
         id="path3274"
         style="fill:#00ff00;fill-opacity:1;stroke:none;stroke-width:0.0943746;stroke-dasharray:none;stroke-opacity:1"
         d="m 24.331501,-2.895936 -1.655836,0.965903 0.0086,1.916945 1.664419,0.951041 1.655836,-0.965903 -0.0086,-1.916945 z m 0.0086,0.683616 a 1.2333269,1.2333269 0 0 1 1.233328,1.233328 1.2333269,1.2333269 0 0 1 -1.233328,1.233329 1.2333269,1.2333269 0 0 1 -1.233329,-1.233329 1.2333269,1.2333269 0 0 1 1.233329,-1.233328 z" />
      <path
         id="path3276"
         style="fill:#00ff00;fill-opacity:1;stroke:none;stroke-width:0.0943746;stroke-dasharray:none;stroke-opacity:1"
         d="m 31.7963,-2.895936 -1.655837,0.965903 0.0086,1.916945 1.66442,0.951041 1.655836,-0.965903 -0.0086,-1.916945 z m 0.0086,0.683616 A 1.2333269,1.2333269 0 0 1 33.038228,-0.978992 1.2333269,1.2333269 0 0 1 31.8049,0.254337 1.2333269,1.2333269 0 0 1 30.571572,-0.978992 1.2333269,1.2333269 0 0 1 31.8049,-2.21232 Z" />
      <path
         id="path3278"
         style="fill:#00ff00;fill-opacity:1;stroke:none;stroke-width:0.0943746;stroke-dasharray:none;stroke-opacity:1"
         d="m 39.261099,-2.895936 -1.655837,0.965903 0.0086,1.916945 1.664419,0.951041 1.655837,-0.965903 -0.0086,-1.916945 z m 0.0086,0.683616 a 1.2333269,1.2333269 0 0 1 1.233327,1.233328 1.2333269,1.2333269 0 0 1 -1.233328,1.233329 1.2333269,1.2333269 0 0 1 -1.233328,-1.233329 1.2333269,1.2333269 0 0 1 1.233329,-1.233328 z" />
      <path
         id="path3280"
         style="fill:#00ff00;fill-opacity:1;stroke:none;stroke-width:0.0943746;stroke-dasharray:none;stroke-opacity:1"
         d="m 35.528699,-2.895936 -1.655836,0.965903 0.0086,1.916945 1.664419,0.951041 1.655836,-0.965903 -0.0086,-1.916945 z m 0.0086,0.683616 a 1.2333269,1.2333269 0 0 1 1.233328,1.233328 1.2333269,1.2333269 0 0 1 -1.233328,1.233329 1.2333269,1.2333269 0 0 1 -1.233329,-1.233329 1.2333269,1.2333269 0 0 1 1.233329,-1.233328 z" />
      <path
         id="path3282"
         style="fill:#00ff00;fill-opacity:1;stroke:none;stroke-width:0.0943746;stroke-dasharray:none;stroke-opacity:1"
         d="m 42.993499,-2.895936 -1.655837,0.965903 0.0086,1.916945 1.66442,0.951041 1.655836,-0.965903 -0.0086,-1.916945 z m 0.0086,0.683616 a 1.2333269,1.2333269 0 0 1 1.233328,1.233328 1.2333269,1.2333269 0 0 1 -1.233328,1.233329 1.2333269,1.2333269 0 0 1 -1.233328,-1.233329 1.2333269,1.2333269 0 0 1 1.233328,-1.233328 z" />
      <path
         id="path3334"
         style="fill:#00ff00;fill-opacity:1;stroke:none;stroke-width:0.0943746;stroke-dasharray:none;stroke-opacity:1"
         d="m 50.458298,-2.895936 -1.655837,0.965903 0.0086,1.916945 1.664419,0.951041 1.655837,-0.965903 -0.0086,-1.916945 z m 0.0086,0.683616 a 1.2333269,1.2333269 0 0 1 1.233327,1.233328 1.2333269,1.2333269 0 0 1 -1.233328,1.233329 1.2333269,1.2333269 0 0 1 -1.233328,-1.233329 1.2333269,1.2333269 0 0 1 1.233329,-1.233328 z" />
      <path
         id="path3336"
         style="fill:#00ff00;fill-opacity:1;stroke:none;stroke-width:0.0943746;stroke-dasharray:none;stroke-opacity:1"
         d="m 46.725898,-2.895936 -1.655836,0.965903 0.0086,1.916945 1.664419,0.951041 1.655836,-0.965903 -0.0086,-1.916945 z m 0.0086,0.683616 a 1.2333269,1.2333269 0 0 1 1.233328,1.233328 1.2333269,1.2333269 0 0 1 -1.233328,1.233329 1.2333269,1.2333269 0 0 1 -1.233329,-1.233329 1.2333269,1.2333269 0 0 1 1.233329,-1.233328 z" />
      <path
         id="path3338"
         style="fill:#00ff00;fill-opacity:1;stroke:none;stroke-width:0.0943746;stroke-dasharray:none;stroke-opacity:1"
         d="m 54.190698,-2.895936 -1.655837,0.965903 0.0086,1.916945 1.66442,0.951041 1.655836,-0.965903 -0.0086,-1.916945 z m 0.0086,0.683616 a 1.2333269,1.2333269 0 0 1 1.233328,1.233328 1.2333269,1.2333269 0 0 1 -1.233328,1.233329 1.2333269,1.2333269 0 0 1 -1.233328,-1.233329 1.2333269,1.2333269 0 0 1 1.233328,-1.233328 z" />
    </g>
    <g
       id="g4933"
       transform="translate(0,0.02350964)">
      <path
         id="path3051"
         style="fill:#00ff00;fill-opacity:1;stroke:none;stroke-width:0.0943746;stroke-dasharray:none;stroke-opacity:1"
         d="m 3.7752609,0.305962 -1.655837,0.965903 0.0086,1.916945 1.66442,0.951041 1.655836,-0.965903 -0.0086,-1.916945 z m 0.0086,0.683616 a 1.2333269,1.2333269 0 0 1 1.233327,1.233328 1.2333269,1.2333269 0 0 1 -1.233328,1.233329 1.2333269,1.2333269 0 0 1 -1.233328,-1.233329 1.2333269,1.2333269 0 0 1 1.233328,-1.233328 z" />
      <path
         id="path3053"
         style="fill:#00ff00;fill-opacity:1;stroke:none;stroke-width:0.0943746;stroke-dasharray:none;stroke-opacity:1"
         d="M 0.042861,0.305962 -1.612975,1.271865 -1.604375,3.18881 0.060044,4.139851 1.71588,3.173948 1.70728,1.257003 Z m 0.0086,0.683616 A 1.2333269,1.2333269 0 0 1 1.284789,2.222906 1.2333269,1.2333269 0 0 1 0.051461,3.456235 1.2333269,1.2333269 0 0 1 -1.181868,2.222906 1.2333269,1.2333269 0 0 1 0.051461,0.989578 Z" />
      <path
         id="path3055"
         style="fill:#00ff00;fill-opacity:1;stroke:none;stroke-width:0.0943746;stroke-dasharray:none;stroke-opacity:1"
         d="m 7.5076608,0.305962 -1.655837,0.965903 0.0086,1.916945 1.66442,0.951041 1.655836,-0.965903 -0.0086,-1.916945 z m 0.0086,0.683616 a 1.2333269,1.2333269 0 0 1 1.233328,1.233328 1.2333269,1.2333269 0 0 1 -1.233328,1.233329 1.2333269,1.2333269 0 0 1 -1.233328,-1.233329 1.2333269,1.2333269 0 0 1 1.233328,-1.233328 z" />
      <path
         id="path3108"
         style="fill:#00ff00;fill-opacity:1;stroke:none;stroke-width:0.0943746;stroke-dasharray:none;stroke-opacity:1"
         d="m 14.97246,0.305962 -1.655837,0.965903 0.0086,1.916945 1.66442,0.951041 1.655836,-0.965903 -0.0086,-1.916945 z m 0.0086,0.683616 A 1.2333269,1.2333269 0 0 1 16.214387,2.222906 1.2333269,1.2333269 0 0 1 14.981059,3.456235 1.2333269,1.2333269 0 0 1 13.747731,2.222906 1.2333269,1.2333269 0 0 1 14.98106,0.989578 Z" />
      <path
         id="path3110"
         style="fill:#00ff00;fill-opacity:1;stroke:none;stroke-width:0.0943746;stroke-dasharray:none;stroke-opacity:1"
         d="m 11.24006,0.305962 -1.6558362,0.965903 0.0086,1.916945 1.6644192,0.951041 1.655836,-0.965903 -0.0086,-1.916945 z m 0.0086,0.683616 A 1.2333269,1.2333269 0 0 1 12.481988,2.222906 1.2333269,1.2333269 0 0 1 11.24866,3.456235 1.2333269,1.2333269 0 0 1 10.015331,2.222906 1.2333269,1.2333269 0 0 1 11.24866,0.989578 Z" />
      <path
         id="path3112"
         style="fill:#00ff00;fill-opacity:1;stroke:none;stroke-width:0.0943746;stroke-dasharray:none;stroke-opacity:1"
         d="m 18.70486,0.305962 -1.655837,0.965903 0.0086,1.916945 1.66442,0.951041 1.655836,-0.965903 -0.0086,-1.916945 z m 0.0086,0.683616 A 1.2333269,1.2333269 0 0 1 19.946788,2.222906 1.2333269,1.2333269 0 0 1 18.71346,3.456235 1.2333269,1.2333269 0 0 1 17.480132,2.222906 1.2333269,1.2333269 0 0 1 18.71346,0.989578 Z" />
      <path
         id="path3284"
         style="fill:#00ff00;fill-opacity:1;stroke:none;stroke-width:0.0943746;stroke-dasharray:none;stroke-opacity:1"
         d="m 26.169659,0.305962 -1.655837,0.965903 0.0086,1.916945 1.66442,0.951041 1.655836,-0.965903 -0.0086,-1.916945 z m 0.0086,0.683616 A 1.2333269,1.2333269 0 0 1 27.411586,2.222906 1.2333269,1.2333269 0 0 1 26.178258,3.456235 1.2333269,1.2333269 0 0 1 24.94493,2.222906 1.2333269,1.2333269 0 0 1 26.178258,0.989578 Z" />
      <path
         id="path3286"
         style="fill:#00ff00;fill-opacity:1;stroke:none;stroke-width:0.0943746;stroke-dasharray:none;stroke-opacity:1"
         d="m 22.437259,0.305962 -1.655836,0.965903 0.0086,1.916945 1.664419,0.951041 1.655836,-0.965903 -0.0086,-1.916945 z m 0.0086,0.683616 A 1.2333269,1.2333269 0 0 1 23.679187,2.222906 1.2333269,1.2333269 0 0 1 22.445859,3.456235 1.2333269,1.2333269 0 0 1 21.21253,2.222906 1.2333269,1.2333269 0 0 1 22.445859,0.989578 Z" />
      <path
         id="path3288"
         style="fill:#00ff00;fill-opacity:1;stroke:none;stroke-width:0.0943746;stroke-dasharray:none;stroke-opacity:1"
         d="m 29.902059,0.305962 -1.655837,0.965903 0.0086,1.916945 1.66442,0.951041 1.655836,-0.965903 -0.0086,-1.916945 z m 0.0086,0.683616 a 1.2333269,1.2333269 0 0 1 1.233328,1.233328 1.2333269,1.2333269 0 0 1 -1.233328,1.233329 1.2333269,1.2333269 0 0 1 -1.233328,-1.233329 1.2333269,1.2333269 0 0 1 1.233328,-1.233328 z" />
      <path
         id="path3290"
         style="fill:#00ff00;fill-opacity:1;stroke:none;stroke-width:0.0943746;stroke-dasharray:none;stroke-opacity:1"
         d="m 37.366857,0.305962 -1.655837,0.965903 0.0086,1.916945 1.66442,0.951041 1.655836,-0.965903 -0.0086,-1.916945 z m 0.0086,0.683616 a 1.2333269,1.2333269 0 0 1 1.233327,1.233328 1.2333269,1.2333269 0 0 1 -1.233328,1.233329 1.2333269,1.2333269 0 0 1 -1.233328,-1.233329 1.2333269,1.2333269 0 0 1 1.233329,-1.233328 z" />
      <path
         id="path3292"
         style="fill:#00ff00;fill-opacity:1;stroke:none;stroke-width:0.0943746;stroke-dasharray:none;stroke-opacity:1"
         d="m 33.634457,0.305962 -1.655836,0.965903 0.0086,1.916945 1.664419,0.951041 1.655836,-0.965903 -0.0086,-1.916945 z m 0.0086,0.683616 a 1.2333269,1.2333269 0 0 1 1.233328,1.233328 1.2333269,1.2333269 0 0 1 -1.233328,1.233329 1.2333269,1.2333269 0 0 1 -1.233329,-1.233329 1.2333269,1.2333269 0 0 1 1.233329,-1.233328 z" />
      <path
         id="path3294"
         style="fill:#00ff00;fill-opacity:1;stroke:none;stroke-width:0.0943746;stroke-dasharray:none;stroke-opacity:1"
         d="m 41.099257,0.305962 -1.655837,0.965903 0.0086,1.916945 1.66442,0.951041 1.655836,-0.965903 -0.0086,-1.916945 z m 0.0086,0.683616 a 1.2333269,1.2333269 0 0 1 1.233328,1.233328 1.2333269,1.2333269 0 0 1 -1.233328,1.233329 1.2333269,1.2333269 0 0 1 -1.233328,-1.233329 1.2333269,1.2333269 0 0 1 1.233328,-1.233328 z" />
      <path
         id="path3346"
         style="fill:#00ff00;fill-opacity:1;stroke:none;stroke-width:0.0943746;stroke-dasharray:none;stroke-opacity:1"
         d="m 48.564056,0.305962 -1.655837,0.965903 0.0086,1.916945 1.66442,0.951041 1.655836,-0.965903 -0.0086,-1.916945 z m 0.0086,0.683616 a 1.2333269,1.2333269 0 0 1 1.233327,1.233328 1.2333269,1.2333269 0 0 1 -1.233328,1.233329 1.2333269,1.2333269 0 0 1 -1.233328,-1.233329 1.2333269,1.2333269 0 0 1 1.233329,-1.233328 z" />
      <path
         id="path3348"
         style="fill:#00ff00;fill-opacity:1;stroke:none;stroke-width:0.0943746;stroke-dasharray:none;stroke-opacity:1"
         d="m 44.831656,0.305962 -1.655836,0.965903 0.0086,1.916945 1.664419,0.951041 1.655836,-0.965903 -0.0086,-1.916945 z m 0.0086,0.683616 a 1.2333269,1.2333269 0 0 1 1.233328,1.233328 1.2333269,1.2333269 0 0 1 -1.233328,1.233329 1.2333269,1.2333269 0 0 1 -1.233329,-1.233329 1.2333269,1.2333269 0 0 1 1.233329,-1.233328 z" />
      <path
         id="path3350"
         style="fill:#00ff00;fill-opacity:1;stroke:none;stroke-width:0.0943746;stroke-dasharray:none;stroke-opacity:1"
         d="m 52.296456,0.305962 -1.655837,0.965903 0.0086,1.916945 1.66442,0.951041 1.655836,-0.965903 -0.0086,-1.916945 z m 0.0086,0.683616 a 1.2333269,1.2333269 0 0 1 1.233328,1.233328 1.2333269,1.2333269 0 0 1 -1.233328,1.233329 1.2333269,1.2333269 0 0 1 -1.233328,-1.233329 1.2333269,1.2333269 0 0 1 1.233328,-1.233328 z" />
      <path
         id="path3354"
         style="fill:#00ff00;fill-opacity:1;stroke:none;stroke-width:0.0943746;stroke-dasharray:none;stroke-opacity:1"
         d="m 56.028855,0.305962 -1.655836,0.965903 0.0086,1.916945 1.664419,0.951041 1.655836,-0.965903 -0.0086,-1.916945 z m 0.0086,0.683616 a 1.2333269,1.2333269 0 0 1 1.233328,1.233328 1.2333269,1.2333269 0 0 1 -1.233328,1.233329 1.2333269,1.2333269 0 0 1 -1.233329,-1.233329 1.2333269,1.2333269 0 0 1 1.233329,-1.233328 z" />
    </g>
    <g
       id="g4951"
       transform="translate(0,0.04702027)">
      <g
         id="g4783">
        <path
           id="path3057"
           style="fill:#00ff00;fill-opacity:1;stroke:none;stroke-width:0.0943746;stroke-dasharray:none;stroke-opacity:1"
           d="m 5.6447287,3.507859 -1.655836,0.965903 0.0086,1.916945 1.664419,0.951042 1.655837,-0.965903 -0.0086,-1.916945 z m 0.0086,0.683617 a 1.2333269,1.2333269 0 0 1 1.233327,1.233328 1.2333269,1.2333269 0 0 1 -1.233328,1.233328 1.2333269,1.2333269 0 0 1 -1.233328,-1.233328 1.2333269,1.2333269 0 0 1 1.233328,-1.233328 z" />
        <path
           id="path3059"
           style="fill:#00ff00;fill-opacity:1;stroke:none;stroke-width:0.0943746;stroke-dasharray:none;stroke-opacity:1"
           d="m 1.912329,3.507859 -1.655836,0.965903 0.0086,1.916945 1.664419,0.951042 1.655837,-0.965903 -0.0086,-1.916945 z m 0.0086,0.683617 A 1.2333269,1.2333269 0 0 1 3.154257,5.424804 1.2333269,1.2333269 0 0 1 1.920929,6.658132 1.2333269,1.2333269 0 0 1 0.687601,5.424804 1.2333269,1.2333269 0 0 1 1.920929,4.191476 Z" />
        <path
           id="path3061"
           style="fill:#00ff00;fill-opacity:1;stroke:none;stroke-width:0.0943746;stroke-dasharray:none;stroke-opacity:1"
           d="m 9.3771283,3.507859 -1.655836,0.965903 0.0086,1.916945 1.664419,0.951042 1.6558367,-0.965903 -0.0086,-1.916945 z m 0.0086,0.683617 A 1.2333269,1.2333269 0 0 1 10.619057,5.424804 1.2333269,1.2333269 0 0 1 9.3857283,6.658132 1.2333269,1.2333269 0 0 1 8.1524003,5.424804 1.2333269,1.2333269 0 0 1 9.3857283,4.191476 Z" />
        <path
           id="path3116"
           style="fill:#00ff00;fill-opacity:1;stroke:none;stroke-width:0.0943746;stroke-dasharray:none;stroke-opacity:1"
           d="m 16.841927,3.507859 -1.655836,0.965903 0.0086,1.916945 1.664419,0.951042 1.655837,-0.965903 -0.0086,-1.916945 z m 0.0086,0.683617 a 1.2333269,1.2333269 0 0 1 1.233327,1.233328 1.2333269,1.2333269 0 0 1 -1.233328,1.233328 1.2333269,1.2333269 0 0 1 -1.233328,-1.233328 1.2333269,1.2333269 0 0 1 1.233329,-1.233328 z" />
        <path
           id="path3118"
           style="fill:#00ff00;fill-opacity:1;stroke:none;stroke-width:0.0943746;stroke-dasharray:none;stroke-opacity:1"
           d="m 13.109528,3.507859 -1.655836,0.965903 0.0086,1.916945 1.664419,0.951042 1.655837,-0.965903 -0.0086,-1.916945 z m 0.0086,0.683617 A 1.2333269,1.2333269 0 0 1 14.351456,5.424804 1.2333269,1.2333269 0 0 1 13.118128,6.658132 1.2333269,1.2333269 0 0 1 11.8848,5.424804 1.2333269,1.2333269 0 0 1 13.118128,4.191476 Z" />
        <path
           id="path3120"
           style="fill:#00ff00;fill-opacity:1;stroke:none;stroke-width:0.0943746;stroke-dasharray:none;stroke-opacity:1"
           d="m 20.574327,3.507859 -1.655836,0.965903 0.0086,1.916945 1.664419,0.951042 1.655837,-0.965903 -0.0086,-1.916945 z m 0.0086,0.683617 a 1.2333269,1.2333269 0 0 1 1.233329,1.233328 1.2333269,1.2333269 0 0 1 -1.233329,1.233328 1.2333269,1.2333269 0 0 1 -1.233328,-1.233328 1.2333269,1.2333269 0 0 1 1.233328,-1.233328 z" />
        <path
           id="path3296"
           style="fill:#00ff00;fill-opacity:1;stroke:none;stroke-width:0.0943746;stroke-dasharray:none;stroke-opacity:1"
           d="m 28.039126,3.507859 -1.655836,0.965903 0.0086,1.916945 1.664419,0.951042 1.655837,-0.965903 -0.0086,-1.916945 z m 0.0086,0.683617 a 1.2333269,1.2333269 0 0 1 1.233327,1.233328 1.2333269,1.2333269 0 0 1 -1.233328,1.233328 1.2333269,1.2333269 0 0 1 -1.233328,-1.233328 1.2333269,1.2333269 0 0 1 1.233328,-1.233328 z" />
        <path
           id="path3298"
           style="fill:#00ff00;fill-opacity:1;stroke:none;stroke-width:0.0943746;stroke-dasharray:none;stroke-opacity:1"
           d="m 24.306727,3.507859 -1.655836,0.965903 0.0086,1.916945 1.664419,0.951042 1.655837,-0.965903 -0.0086,-1.916945 z m 0.0086,0.683617 a 1.2333269,1.2333269 0 0 1 1.233328,1.233328 1.2333269,1.2333269 0 0 1 -1.233328,1.233328 1.2333269,1.2333269 0 0 1 -1.233328,-1.233328 1.2333269,1.2333269 0 0 1 1.233328,-1.233328 z" />
        <path
           id="path3300"
           style="fill:#00ff00;fill-opacity:1;stroke:none;stroke-width:0.0943746;stroke-dasharray:none;stroke-opacity:1"
           d="m 31.771526,3.507859 -1.655836,0.965903 0.0086,1.916945 1.664419,0.951042 1.655837,-0.965903 -0.0086,-1.916945 z m 0.0086,0.683617 a 1.2333269,1.2333269 0 0 1 1.233329,1.233328 1.2333269,1.2333269 0 0 1 -1.233329,1.233328 1.2333269,1.2333269 0 0 1 -1.233328,-1.233328 1.2333269,1.2333269 0 0 1 1.233328,-1.233328 z" />
        <path
           id="path3302"
           style="fill:#00ff00;fill-opacity:1;stroke:none;stroke-width:0.0943746;stroke-dasharray:none;stroke-opacity:1"
           d="m 39.236325,3.507859 -1.655836,0.965903 0.0086,1.916945 1.664419,0.951042 1.655837,-0.965903 -0.0086,-1.916945 z m 0.0086,0.683617 a 1.2333269,1.2333269 0 0 1 1.233327,1.233328 1.2333269,1.2333269 0 0 1 -1.233328,1.233328 1.2333269,1.2333269 0 0 1 -1.233328,-1.233328 1.2333269,1.2333269 0 0 1 1.233329,-1.233328 z" />
        <path
           id="path3304"
           style="fill:#00ff00;fill-opacity:1;stroke:none;stroke-width:0.0943746;stroke-dasharray:none;stroke-opacity:1"
           d="m 35.503926,3.507859 -1.655836,0.965903 0.0086,1.916945 1.664419,0.951042 1.655837,-0.965903 -0.0086,-1.916945 z m 0.0086,0.683617 a 1.2333269,1.2333269 0 0 1 1.233328,1.233328 1.2333269,1.2333269 0 0 1 -1.233328,1.233328 1.2333269,1.2333269 0 0 1 -1.233328,-1.233328 1.2333269,1.2333269 0 0 1 1.233328,-1.233328 z" />
        <path
           id="path3306"
           style="fill:#00ff00;fill-opacity:1;stroke:none;stroke-width:0.0943746;stroke-dasharray:none;stroke-opacity:1"
           d="m 42.968725,3.507859 -1.655836,0.965903 0.0086,1.916945 1.664419,0.951042 1.655837,-0.965903 -0.0086,-1.916945 z m 0.0086,0.683617 a 1.2333269,1.2333269 0 0 1 1.233329,1.233328 1.2333269,1.2333269 0 0 1 -1.233329,1.233328 1.2333269,1.2333269 0 0 1 -1.233328,-1.233328 1.2333269,1.2333269 0 0 1 1.233328,-1.233328 z" />
        <path
           id="path3358"
           style="fill:#00ff00;fill-opacity:1;stroke:none;stroke-width:0.0943746;stroke-dasharray:none;stroke-opacity:1"
           d="m 50.433524,3.507859 -1.655836,0.965903 0.0086,1.916945 1.664419,0.951042 1.655837,-0.965903 -0.0086,-1.916945 z m 0.0086,0.683617 a 1.2333269,1.2333269 0 0 1 1.233327,1.233328 1.2333269,1.2333269 0 0 1 -1.233328,1.233328 1.2333269,1.2333269 0 0 1 -1.233328,-1.233328 1.2333269,1.2333269 0 0 1 1.233329,-1.233328 z" />
        <path
           id="path3360"
           style="fill:#00ff00;fill-opacity:1;stroke:none;stroke-width:0.0943746;stroke-dasharray:none;stroke-opacity:1"
           d="m 46.701125,3.507859 -1.655836,0.965903 0.0086,1.916945 1.664419,0.951042 1.655837,-0.965903 -0.0086,-1.916945 z m 0.0086,0.683617 a 1.2333269,1.2333269 0 0 1 1.233328,1.233328 1.2333269,1.2333269 0 0 1 -1.233328,1.233328 1.2333269,1.2333269 0 0 1 -1.233328,-1.233328 1.2333269,1.2333269 0 0 1 1.233328,-1.233328 z" />
        <path
           id="path3362"
           style="fill:#00ff00;fill-opacity:1;stroke:none;stroke-width:0.0943746;stroke-dasharray:none;stroke-opacity:1"
           d="m 54.165924,3.507859 -1.655836,0.965903 0.0086,1.916945 1.664419,0.951042 1.655837,-0.965903 -0.0086,-1.916945 z m 0.0086,0.683617 a 1.2333269,1.2333269 0 0 1 1.233329,1.233328 1.2333269,1.2333269 0 0 1 -1.233329,1.233328 1.2333269,1.2333269 0 0 1 -1.233328,-1.233328 1.2333269,1.2333269 0 0 1 1.233328,-1.233328 z" />
      </g>
    </g>
    <g
       id="g4970"
       transform="translate(0,0.07052991)">
      <g
         id="g4817">
        <path
           id="path3063"
           style="fill:#00ff00;fill-opacity:1;stroke:none;stroke-width:0.0943746;stroke-dasharray:none;stroke-opacity:1"
           d="m 3.7934839,6.709758 -1.655837,0.965903 0.0086,1.916945 1.66442,0.951041 1.655836,-0.965903 -0.0086,-1.916945 z m 0.0086,0.683616 a 1.2333269,1.2333269 0 0 1 1.233327,1.233328 1.2333269,1.2333269 0 0 1 -1.233328,1.233329 1.2333269,1.2333269 0 0 1 -1.233328,-1.233329 1.2333269,1.2333269 0 0 1 1.233329,-1.233328 z" />
        <path
           id="path3065"
           style="fill:#00ff00;fill-opacity:1;stroke:none;stroke-width:0.0943746;stroke-dasharray:none;stroke-opacity:1"
           d="m 0.061084,6.709758 -1.655836,0.965903 0.0086,1.916945 1.664419,0.951041 1.655836,-0.965903 -0.0086,-1.916945 z m 0.0086,0.683616 A 1.2333269,1.2333269 0 0 1 1.303012,8.626702 1.2333269,1.2333269 0 0 1 0.069684,9.860031 1.2333269,1.2333269 0 0 1 -1.163645,8.626702 1.2333269,1.2333269 0 0 1 0.069684,7.393374 Z" />
        <path
           id="path3067"
           style="fill:#00ff00;fill-opacity:1;stroke:none;stroke-width:0.0943746;stroke-dasharray:none;stroke-opacity:1"
           d="m 7.5258838,6.709758 -1.655837,0.965903 0.0086,1.916945 1.66442,0.951041 1.655836,-0.965903 -0.0086,-1.916945 z m 0.0086,0.683616 a 1.2333269,1.2333269 0 0 1 1.233328,1.233328 1.2333269,1.2333269 0 0 1 -1.233328,1.233329 1.2333269,1.2333269 0 0 1 -1.233328,-1.233329 1.2333269,1.2333269 0 0 1 1.233328,-1.233328 z" />
        <path
           id="path3124"
           style="fill:#00ff00;fill-opacity:1;stroke:none;stroke-width:0.0943746;stroke-dasharray:none;stroke-opacity:1"
           d="m 14.990683,6.709758 -1.655837,0.965903 0.0086,1.916945 1.66442,0.951041 1.655836,-0.965903 -0.0086,-1.916945 z m 0.0086,0.683616 A 1.2333269,1.2333269 0 0 1 16.23261,8.626702 1.2333269,1.2333269 0 0 1 14.999282,9.860031 1.2333269,1.2333269 0 0 1 13.765954,8.626702 1.2333269,1.2333269 0 0 1 14.999283,7.393374 Z" />
        <path
           id="path3126"
           style="fill:#00ff00;fill-opacity:1;stroke:none;stroke-width:0.0943746;stroke-dasharray:none;stroke-opacity:1"
           d="m 11.258283,6.709758 -1.6558362,0.965903 0.0086,1.916945 1.6644192,0.951041 1.655836,-0.965903 -0.0086,-1.916945 z m 0.0086,0.683616 a 1.2333269,1.2333269 0 0 1 1.233328,1.233328 1.2333269,1.2333269 0 0 1 -1.233328,1.233329 1.2333269,1.2333269 0 0 1 -1.233329,-1.233329 1.2333269,1.2333269 0 0 1 1.233329,-1.233328 z" />
        <path
           id="path3128"
           style="fill:#00ff00;fill-opacity:1;stroke:none;stroke-width:0.0943746;stroke-dasharray:none;stroke-opacity:1"
           d="m 18.723083,6.709758 -1.655837,0.965903 0.0086,1.916945 1.66442,0.951041 1.655836,-0.965903 -0.0086,-1.916945 z m 0.0086,0.683616 a 1.2333269,1.2333269 0 0 1 1.233328,1.233328 1.2333269,1.2333269 0 0 1 -1.233328,1.233329 1.2333269,1.2333269 0 0 1 -1.233328,-1.233329 1.2333269,1.2333269 0 0 1 1.233328,-1.233328 z" />
        <path
           id="path3308"
           style="fill:#00ff00;fill-opacity:1;stroke:none;stroke-width:0.0943746;stroke-dasharray:none;stroke-opacity:1"
           d="m 26.187882,6.709758 -1.655837,0.965903 0.0086,1.916945 1.66442,0.951041 1.655836,-0.965903 -0.0086,-1.916945 z m 0.0086,0.683616 a 1.2333269,1.2333269 0 0 1 1.233327,1.233328 1.2333269,1.2333269 0 0 1 -1.233328,1.233329 1.2333269,1.2333269 0 0 1 -1.233328,-1.233329 1.2333269,1.2333269 0 0 1 1.233328,-1.233328 z" />
        <path
           id="path3310"
           style="fill:#00ff00;fill-opacity:1;stroke:none;stroke-width:0.0943746;stroke-dasharray:none;stroke-opacity:1"
           d="m 22.455482,6.709758 -1.655836,0.965903 0.0086,1.916945 1.664419,0.951041 1.655836,-0.965903 -0.0086,-1.916945 z m 0.0086,0.683616 A 1.2333269,1.2333269 0 0 1 23.69741,8.626702 1.2333269,1.2333269 0 0 1 22.464082,9.860031 1.2333269,1.2333269 0 0 1 21.230753,8.626702 1.2333269,1.2333269 0 0 1 22.464082,7.393374 Z" />
        <path
           id="path3312"
           style="fill:#00ff00;fill-opacity:1;stroke:none;stroke-width:0.0943746;stroke-dasharray:none;stroke-opacity:1"
           d="m 29.920282,6.709758 -1.655837,0.965903 0.0086,1.916945 1.66442,0.951041 1.655836,-0.965903 -0.0086,-1.916945 z m 0.0086,0.683616 A 1.2333269,1.2333269 0 0 1 31.16221,8.626702 1.2333269,1.2333269 0 0 1 29.928882,9.860031 1.2333269,1.2333269 0 0 1 28.695554,8.626702 1.2333269,1.2333269 0 0 1 29.928882,7.393374 Z" />
        <path
           id="path3314"
           style="fill:#00ff00;fill-opacity:1;stroke:none;stroke-width:0.0943746;stroke-dasharray:none;stroke-opacity:1"
           d="m 37.38508,6.709758 -1.655837,0.965903 0.0086,1.916945 1.66442,0.951041 1.655836,-0.965903 -0.0086,-1.916945 z m 0.0086,0.683616 A 1.2333269,1.2333269 0 0 1 38.627007,8.626702 1.2333269,1.2333269 0 0 1 37.393679,9.860031 1.2333269,1.2333269 0 0 1 36.160351,8.626702 1.2333269,1.2333269 0 0 1 37.39368,7.393374 Z" />
        <path
           id="path3316"
           style="fill:#00ff00;fill-opacity:1;stroke:none;stroke-width:0.0943746;stroke-dasharray:none;stroke-opacity:1"
           d="m 33.65268,6.709758 -1.655836,0.965903 0.0086,1.916945 1.664419,0.951041 1.655836,-0.965903 -0.0086,-1.916945 z m 0.0086,0.683616 A 1.2333269,1.2333269 0 0 1 34.894608,8.626702 1.2333269,1.2333269 0 0 1 33.66128,9.860031 1.2333269,1.2333269 0 0 1 32.427951,8.626702 1.2333269,1.2333269 0 0 1 33.66128,7.393374 Z" />
        <path
           id="path3318"
           style="fill:#00ff00;fill-opacity:1;stroke:none;stroke-width:0.0943746;stroke-dasharray:none;stroke-opacity:1"
           d="m 41.11748,6.709758 -1.655837,0.965903 0.0086,1.916945 1.66442,0.951041 1.655836,-0.965903 -0.0086,-1.916945 z m 0.0086,0.683616 A 1.2333269,1.2333269 0 0 1 42.359408,8.626702 1.2333269,1.2333269 0 0 1 41.12608,9.860031 1.2333269,1.2333269 0 0 1 39.892752,8.626702 1.2333269,1.2333269 0 0 1 41.12608,7.393374 Z" />
        <path
           id="path3370"
           style="fill:#00ff00;fill-opacity:1;stroke:none;stroke-width:0.0943746;stroke-dasharray:none;stroke-opacity:1"
           d="m 48.582279,6.709758 -1.655837,0.965903 0.0086,1.916945 1.66442,0.951041 1.655836,-0.965903 -0.0086,-1.916945 z m 0.0086,0.683616 A 1.2333269,1.2333269 0 0 1 49.824206,8.626702 1.2333269,1.2333269 0 0 1 48.590878,9.860031 1.2333269,1.2333269 0 0 1 47.35755,8.626702 1.2333269,1.2333269 0 0 1 48.590879,7.393374 Z" />
        <path
           id="path3372"
           style="fill:#00ff00;fill-opacity:1;stroke:none;stroke-width:0.0943746;stroke-dasharray:none;stroke-opacity:1"
           d="m 44.849879,6.709758 -1.655836,0.965903 0.0086,1.916945 1.664419,0.951041 1.655836,-0.965903 -0.0086,-1.916945 z m 0.0086,0.683616 A 1.2333269,1.2333269 0 0 1 46.091807,8.626702 1.2333269,1.2333269 0 0 1 44.858479,9.860031 1.2333269,1.2333269 0 0 1 43.62515,8.626702 1.2333269,1.2333269 0 0 1 44.858479,7.393374 Z" />
        <path
           id="path3374"
           style="fill:#00ff00;fill-opacity:1;stroke:none;stroke-width:0.0943746;stroke-dasharray:none;stroke-opacity:1"
           d="m 52.314679,6.709758 -1.655837,0.965903 0.0086,1.916945 1.66442,0.951041 1.655836,-0.965903 -0.0086,-1.916945 z m 0.0086,0.683616 a 1.2333269,1.2333269 0 0 1 1.233328,1.233328 1.2333269,1.2333269 0 0 1 -1.233328,1.233329 1.2333269,1.2333269 0 0 1 -1.233328,-1.233329 1.2333269,1.2333269 0 0 1 1.233328,-1.233328 z" />
        <path
           id="path3378"
           style="fill:#00ff00;fill-opacity:1;stroke:none;stroke-width:0.0943746;stroke-dasharray:none;stroke-opacity:1"
           d="m 56.047078,6.709758 -1.655836,0.965903 0.0086,1.916945 1.664419,0.951041 1.655836,-0.965903 -0.0086,-1.916945 z m 0.0086,0.683616 a 1.2333269,1.2333269 0 0 1 1.233328,1.233328 1.2333269,1.2333269 0 0 1 -1.233328,1.233329 1.2333269,1.2333269 0 0 1 -1.233329,-1.233329 1.2333269,1.2333269 0 0 1 1.233329,-1.233328 z" />
      </g>
    </g>
    <g
       id="g4849"
       transform="translate(0,0.09404055)">
      <path
         id="path3069"
         style="fill:#00ff00;fill-opacity:1;stroke:none;stroke-width:0.0943746;stroke-dasharray:none;stroke-opacity:1"
         d="m 5.6629517,9.911655 -1.655836,0.965903 0.0086,1.916945 1.664419,0.951042 1.655837,-0.965903 -0.0086,-1.916945 z m 0.0086,0.683617 a 1.2333269,1.2333269 0 0 1 1.233327,1.233328 1.2333269,1.2333269 0 0 1 -1.233328,1.233328 1.2333269,1.2333269 0 0 1 -1.233328,-1.233328 1.2333269,1.2333269 0 0 1 1.233328,-1.233328 z" />
      <path
         id="path3071"
         style="fill:#00ff00;fill-opacity:1;stroke:none;stroke-width:0.0943746;stroke-dasharray:none;stroke-opacity:1"
         d="m 1.930552,9.911655 -1.655836,0.965903 0.0086,1.916945 1.664419,0.951042 1.655837,-0.965903 -0.0086,-1.916945 z m 0.0086,0.683617 A 1.2333269,1.2333269 0 0 1 3.17248,11.8286 1.2333269,1.2333269 0 0 1 1.939152,13.061928 1.2333269,1.2333269 0 0 1 0.705824,11.8286 1.2333269,1.2333269 0 0 1 1.939152,10.595272 Z" />
      <path
         id="path3073"
         style="fill:#00ff00;fill-opacity:1;stroke:none;stroke-width:0.0943746;stroke-dasharray:none;stroke-opacity:1"
         d="m 9.3953513,9.911655 -1.655836,0.965903 0.0086,1.916945 1.664419,0.951042 1.6558367,-0.965903 -0.0086,-1.916945 z m 0.0086,0.683617 A 1.2333269,1.2333269 0 0 1 10.63728,11.8286 1.2333269,1.2333269 0 0 1 9.4039513,13.061928 1.2333269,1.2333269 0 0 1 8.1706233,11.8286 1.2333269,1.2333269 0 0 1 9.4039513,10.595272 Z" />
      <path
         id="path3132"
         style="fill:#00ff00;fill-opacity:1;stroke:none;stroke-width:0.0943746;stroke-dasharray:none;stroke-opacity:1"
         d="m 16.86015,9.911655 -1.655836,0.965903 0.0086,1.916945 1.664419,0.951042 1.655837,-0.965903 -0.0086,-1.916945 z m 0.0086,0.683617 A 1.2333269,1.2333269 0 0 1 18.102077,11.8286 1.2333269,1.2333269 0 0 1 16.868749,13.061928 1.2333269,1.2333269 0 0 1 15.635421,11.8286 1.2333269,1.2333269 0 0 1 16.86875,10.595272 Z" />
      <path
         id="path3134"
         style="fill:#00ff00;fill-opacity:1;stroke:none;stroke-width:0.0943746;stroke-dasharray:none;stroke-opacity:1"
         d="m 13.127751,9.911655 -1.655836,0.965903 0.0086,1.916945 1.664419,0.951042 1.655837,-0.965903 -0.0086,-1.916945 z m 0.0086,0.683617 a 1.2333269,1.2333269 0 0 1 1.233328,1.233328 1.2333269,1.2333269 0 0 1 -1.233328,1.233328 1.2333269,1.2333269 0 0 1 -1.233328,-1.233328 1.2333269,1.2333269 0 0 1 1.233328,-1.233328 z" />
      <path
         id="path3136"
         style="fill:#00ff00;fill-opacity:1;stroke:none;stroke-width:0.0943746;stroke-dasharray:none;stroke-opacity:1"
         d="m 20.59255,9.911655 -1.655836,0.965903 0.0086,1.916945 1.664419,0.951042 1.655837,-0.965903 -0.0086,-1.916945 z m 0.0086,0.683617 A 1.2333269,1.2333269 0 0 1 21.834479,11.8286 1.2333269,1.2333269 0 0 1 20.60115,13.061928 1.2333269,1.2333269 0 0 1 19.367822,11.8286 1.2333269,1.2333269 0 0 1 20.60115,10.595272 Z" />
      <path
         id="path3320"
         style="fill:#00ff00;fill-opacity:1;stroke:none;stroke-width:0.0943746;stroke-dasharray:none;stroke-opacity:1"
         d="m 28.057349,9.911655 -1.655836,0.965903 0.0086,1.916945 1.664419,0.951042 1.655837,-0.965903 -0.0086,-1.916945 z m 0.0086,0.683617 A 1.2333269,1.2333269 0 0 1 29.299276,11.8286 1.2333269,1.2333269 0 0 1 28.065948,13.061928 1.2333269,1.2333269 0 0 1 26.83262,11.8286 1.2333269,1.2333269 0 0 1 28.065948,10.595272 Z" />
      <path
         id="path3322"
         style="fill:#00ff00;fill-opacity:1;stroke:none;stroke-width:0.0943746;stroke-dasharray:none;stroke-opacity:1"
         d="m 24.32495,9.911655 -1.655836,0.965903 0.0086,1.916945 1.664419,0.951042 1.655837,-0.965902 -0.0086,-1.916946 z m 0.0086,0.683618 a 1.2333269,1.2333269 0 0 1 1.233328,1.233328 1.2333269,1.2333269 0 0 1 -1.233328,1.233328 1.2333269,1.2333269 0 0 1 -1.233328,-1.233328 1.2333269,1.2333269 0 0 1 1.233328,-1.233328 z" />
      <path
         id="path3324"
         style="fill:#00ff00;fill-opacity:1;stroke:none;stroke-width:0.0943746;stroke-dasharray:none;stroke-opacity:1"
         d="m 31.789749,9.911655 -1.655836,0.965903 0.0086,1.916945 1.664419,0.951042 1.655837,-0.965903 -0.0086,-1.916945 z m 0.0086,0.683617 a 1.2333269,1.2333269 0 0 1 1.233329,1.233328 1.2333269,1.2333269 0 0 1 -1.233329,1.233328 1.2333269,1.2333269 0 0 1 -1.233328,-1.233328 1.2333269,1.2333269 0 0 1 1.233328,-1.233328 z" />
      <path
         id="path3326"
         style="fill:#00ff00;fill-opacity:1;stroke:none;stroke-width:0.0943746;stroke-dasharray:none;stroke-opacity:1"
         d="m 39.254548,9.911655 -1.655836,0.965903 0.0086,1.916945 1.664419,0.951042 1.655837,-0.965903 -0.0086,-1.916945 z m 0.0086,0.683617 a 1.2333269,1.2333269 0 0 1 1.233327,1.233328 1.2333269,1.2333269 0 0 1 -1.233328,1.233328 1.2333269,1.2333269 0 0 1 -1.233328,-1.233328 1.2333269,1.2333269 0 0 1 1.233329,-1.233328 z" />
      <path
         id="path3328"
         style="fill:#00ff00;fill-opacity:1;stroke:none;stroke-width:0.0943746;stroke-dasharray:none;stroke-opacity:1"
         d="m 35.522149,9.911655 -1.655836,0.965903 0.0086,1.916945 1.664419,0.951042 1.655837,-0.965903 -0.0086,-1.916945 z m 0.0086,0.683617 a 1.2333269,1.2333269 0 0 1 1.233328,1.233328 1.2333269,1.2333269 0 0 1 -1.233328,1.233328 1.2333269,1.2333269 0 0 1 -1.233328,-1.233328 1.2333269,1.2333269 0 0 1 1.233328,-1.233328 z" />
      <path
         id="path3330"
         style="fill:#00ff00;fill-opacity:1;stroke:none;stroke-width:0.0943746;stroke-dasharray:none;stroke-opacity:1"
         d="m 42.986948,9.911655 -1.655836,0.965903 0.0086,1.916945 1.664419,0.951042 1.655837,-0.965903 -0.0086,-1.916945 z m 0.0086,0.683617 A 1.2333269,1.2333269 0 0 1 44.228877,11.8286 1.2333269,1.2333269 0 0 1 42.995548,13.061928 1.2333269,1.2333269 0 0 1 41.76222,11.8286 1.2333269,1.2333269 0 0 1 42.995548,10.595272 Z" />
      <path
         id="path3382"
         style="fill:#00ff00;fill-opacity:1;stroke:none;stroke-width:0.0943746;stroke-dasharray:none;stroke-opacity:1"
         d="m 50.451747,9.911655 -1.655836,0.965903 0.0086,1.916945 1.664419,0.951042 1.655837,-0.965903 -0.0086,-1.916945 z m 0.0086,0.683617 a 1.2333269,1.2333269 0 0 1 1.233327,1.233328 1.2333269,1.2333269 0 0 1 -1.233328,1.233328 1.2333269,1.2333269 0 0 1 -1.233328,-1.233328 1.2333269,1.2333269 0 0 1 1.233329,-1.233328 z" />
      <path
         id="path3384"
         style="fill:#00ff00;fill-opacity:1;stroke:none;stroke-width:0.0943746;stroke-dasharray:none;stroke-opacity:1"
         d="m 46.719348,9.911655 -1.655836,0.965903 0.0086,1.916945 1.664419,0.951042 1.655837,-0.965903 -0.0086,-1.916945 z m 0.0086,0.683617 A 1.2333269,1.2333269 0 0 1 47.961276,11.8286 1.2333269,1.2333269 0 0 1 46.727948,13.061928 1.2333269,1.2333269 0 0 1 45.49462,11.8286 1.2333269,1.2333269 0 0 1 46.727948,10.595272 Z" />
      <path
         id="path3386"
         style="fill:#00ff00;fill-opacity:1;stroke:none;stroke-width:0.0943746;stroke-dasharray:none;stroke-opacity:1"
         d="m 54.184147,9.911655 -1.655836,0.965903 0.0086,1.916945 1.664419,0.951042 1.655837,-0.965903 -0.0086,-1.916945 z m 0.0086,0.683617 a 1.2333269,1.2333269 0 0 1 1.233329,1.233328 1.2333269,1.2333269 0 0 1 -1.233329,1.233328 1.2333269,1.2333269 0 0 1 -1.233328,-1.233328 1.2333269,1.2333269 0 0 1 1.233328,-1.233328 z" />
    </g>
    <g
       id="g4883"
       transform="translate(0,-0.01175482)">
      <path
         id="path3696"
         style="fill:#00ff00;fill-opacity:1;stroke:none;stroke-width:0.0943746;stroke-dasharray:none;stroke-opacity:1"
         d="m 3.7916456,13.242859 -1.655837,0.965902 0.0086,1.916945 1.664419,0.951041 1.655837,-0.965903 -0.0086,-1.916945 z m 0.0086,0.683616 a 1.2333269,1.2333269 0 0 1 1.233327,1.233328 1.2333269,1.2333269 0 0 1 -1.233328,1.233328 1.2333269,1.2333269 0 0 1 -1.233328,-1.233328 1.2333269,1.2333269 0 0 1 1.233328,-1.233328 z" />
      <path
         id="path3698"
         style="fill:#00ff00;fill-opacity:1;stroke:none;stroke-width:0.0943746;stroke-dasharray:none;stroke-opacity:1"
         d="m 0.05924572,13.242859 -1.65583602,0.965902 0.0086,1.916945 1.66441902,0.951041 1.65583598,-0.965903 -0.0086,-1.916945 z m 0.0086,0.683616 A 1.2333269,1.2333269 0 0 1 1.3011737,15.159803 1.2333269,1.2333269 0 0 1 0.06784572,16.393131 1.2333269,1.2333269 0 0 1 -1.1654833,15.159803 1.2333269,1.2333269 0 0 1 0.06784572,13.926475 Z" />
      <path
         id="path3700"
         style="fill:#00ff00;fill-opacity:1;stroke:none;stroke-width:0.0943746;stroke-dasharray:none;stroke-opacity:1"
         d="m 7.5240455,13.242859 -1.655837,0.965902 0.0086,1.916945 1.66442,0.951041 1.6558361,-0.965903 -0.0086,-1.916945 z m 0.0086,0.683616 a 1.2333269,1.2333269 0 0 1 1.2333281,1.233328 1.2333269,1.2333269 0 0 1 -1.2333281,1.233328 1.2333269,1.2333269 0 0 1 -1.233328,-1.233328 1.2333269,1.2333269 0 0 1 1.233328,-1.233328 z" />
      <path
         id="path3702"
         style="fill:#00ff00;fill-opacity:1;stroke:none;stroke-width:0.0943746;stroke-dasharray:none;stroke-opacity:1"
         d="m 14.988845,13.242859 -1.655837,0.965903 0.0086,1.916944 1.664419,0.951041 1.655837,-0.965903 -0.0086,-1.916945 z m 0.0086,0.683616 a 1.2333269,1.2333269 0 0 1 1.233327,1.233328 1.2333269,1.2333269 0 0 1 -1.233328,1.233328 1.2333269,1.2333269 0 0 1 -1.233328,-1.233328 1.2333269,1.2333269 0 0 1 1.233329,-1.233328 z" />
      <path
         id="path3704"
         style="fill:#00ff00;fill-opacity:1;stroke:none;stroke-width:0.0943746;stroke-dasharray:none;stroke-opacity:1"
         d="m 11.256445,13.242859 -1.6558365,0.965903 0.0086,1.916944 1.6644195,0.951041 1.655836,-0.965903 -0.0086,-1.916945 z m 0.0086,0.683616 a 1.2333269,1.2333269 0 0 1 1.233328,1.233328 1.2333269,1.2333269 0 0 1 -1.233328,1.233328 1.2333269,1.2333269 0 0 1 -1.233329,-1.233328 1.2333269,1.2333269 0 0 1 1.233329,-1.233328 z" />
      <path
         id="path3706"
         style="fill:#00ff00;fill-opacity:1;stroke:none;stroke-width:0.0943746;stroke-dasharray:none;stroke-opacity:1"
         d="m 18.721245,13.242859 -1.655837,0.965903 0.0086,1.916944 1.66442,0.951041 1.655836,-0.965903 -0.0086,-1.916945 z m 0.0086,0.683616 a 1.2333269,1.2333269 0 0 1 1.233328,1.233328 1.2333269,1.2333269 0 0 1 -1.233328,1.233328 1.2333269,1.2333269 0 0 1 -1.233328,-1.233328 1.2333269,1.2333269 0 0 1 1.233328,-1.233328 z" />
      <path
         id="path3708"
         style="fill:#00ff00;fill-opacity:1;stroke:none;stroke-width:0.0943746;stroke-dasharray:none;stroke-opacity:1"
         d="m 26.186044,13.242859 -1.655837,0.965903 0.0086,1.916944 1.664419,0.951041 1.655837,-0.965903 -0.0086,-1.916945 z m 0.0086,0.683616 a 1.2333269,1.2333269 0 0 1 1.233327,1.233328 1.2333269,1.2333269 0 0 1 -1.233328,1.233328 1.2333269,1.2333269 0 0 1 -1.233328,-1.233328 1.2333269,1.2333269 0 0 1 1.233328,-1.233328 z" />
      <path
         id="path3710"
         style="fill:#00ff00;fill-opacity:1;stroke:none;stroke-width:0.0943746;stroke-dasharray:none;stroke-opacity:1"
         d="m 22.453644,13.242859 -1.655836,0.965903 0.0086,1.916944 1.664419,0.951041 1.655836,-0.965903 -0.0086,-1.916945 z m 0.0086,0.683616 a 1.2333269,1.2333269 0 0 1 1.233328,1.233328 1.2333269,1.2333269 0 0 1 -1.233328,1.233328 1.2333269,1.2333269 0 0 1 -1.233329,-1.233328 1.2333269,1.2333269 0 0 1 1.233329,-1.233328 z" />
      <path
         id="path3712"
         style="fill:#00ff00;fill-opacity:1;stroke:none;stroke-width:0.0943746;stroke-dasharray:none;stroke-opacity:1"
         d="m 29.918444,13.242859 -1.655837,0.965903 0.0086,1.916944 1.66442,0.951041 1.655836,-0.965903 -0.0086,-1.916945 z m 0.0086,0.683616 a 1.2333269,1.2333269 0 0 1 1.233328,1.233328 1.2333269,1.2333269 0 0 1 -1.233328,1.233328 1.2333269,1.2333269 0 0 1 -1.233328,-1.233328 1.2333269,1.2333269 0 0 1 1.233328,-1.233328 z" />
      <path
         id="path3714"
         style="fill:#00ff00;fill-opacity:1;stroke:none;stroke-width:0.0943746;stroke-dasharray:none;stroke-opacity:1"
         d="m 37.383242,13.242859 -1.655837,0.965903 0.0086,1.916944 1.664419,0.951041 1.655837,-0.965903 -0.0086,-1.916945 z m 0.0086,0.683616 a 1.2333269,1.2333269 0 0 1 1.233327,1.233328 1.2333269,1.2333269 0 0 1 -1.233328,1.233328 1.2333269,1.2333269 0 0 1 -1.233328,-1.233328 1.2333269,1.2333269 0 0 1 1.233329,-1.233328 z" />
      <path
         id="path3716"
         style="fill:#00ff00;fill-opacity:1;stroke:none;stroke-width:0.0943746;stroke-dasharray:none;stroke-opacity:1"
         d="m 33.650843,13.242859 -1.655836,0.965903 0.0086,1.916944 1.664419,0.951041 1.655836,-0.965903 -0.0086,-1.916945 z m 0.0086,0.683616 a 1.2333269,1.2333269 0 0 1 1.233328,1.233328 1.2333269,1.2333269 0 0 1 -1.233328,1.233328 1.2333269,1.2333269 0 0 1 -1.233329,-1.233328 1.2333269,1.2333269 0 0 1 1.233329,-1.233328 z" />
      <path
         id="path3718"
         style="fill:#00ff00;fill-opacity:1;stroke:none;stroke-width:0.0943746;stroke-dasharray:none;stroke-opacity:1"
         d="m 41.115642,13.242859 -1.655837,0.965903 0.0086,1.916944 1.66442,0.951041 1.655836,-0.965903 -0.0086,-1.916945 z m 0.0086,0.683616 a 1.2333269,1.2333269 0 0 1 1.233328,1.233328 1.2333269,1.2333269 0 0 1 -1.233328,1.233328 1.2333269,1.2333269 0 0 1 -1.233328,-1.233328 1.2333269,1.2333269 0 0 1 1.233328,-1.233328 z" />
      <path
         id="path3720"
         style="fill:#00ff00;fill-opacity:1;stroke:none;stroke-width:0.0943746;stroke-dasharray:none;stroke-opacity:1"
         d="m 48.580441,13.242859 -1.655837,0.965902 0.0086,1.916945 1.664419,0.951041 1.655837,-0.965903 -0.0086,-1.916945 z m 0.0086,0.683616 a 1.2333269,1.2333269 0 0 1 1.233327,1.233328 1.2333269,1.2333269 0 0 1 -1.233328,1.233328 1.2333269,1.2333269 0 0 1 -1.233328,-1.233328 1.2333269,1.2333269 0 0 1 1.233329,-1.233328 z" />
      <path
         id="path3722"
         style="fill:#00ff00;fill-opacity:1;stroke:none;stroke-width:0.0943746;stroke-dasharray:none;stroke-opacity:1"
         d="m 44.848041,13.242859 -1.655836,0.965902 0.0086,1.916945 1.664419,0.951041 1.655836,-0.965903 -0.0086,-1.916945 z m 0.0086,0.683616 a 1.2333269,1.2333269 0 0 1 1.233328,1.233328 1.2333269,1.2333269 0 0 1 -1.233328,1.233328 1.2333269,1.2333269 0 0 1 -1.233329,-1.233328 1.2333269,1.2333269 0 0 1 1.233329,-1.233328 z" />
      <path
         id="path3724"
         style="fill:#00ff00;fill-opacity:1;stroke:none;stroke-width:0.0943746;stroke-dasharray:none;stroke-opacity:1"
         d="m 52.312841,13.242859 -1.655837,0.965902 0.0086,1.916945 1.66442,0.951041 1.655836,-0.965903 -0.0086,-1.916945 z m 0.0086,0.683616 a 1.2333269,1.2333269 0 0 1 1.233328,1.233328 1.2333269,1.2333269 0 0 1 -1.233328,1.233328 1.2333269,1.2333269 0 0 1 -1.233328,-1.233328 1.2333269,1.2333269 0 0 1 1.233328,-1.233328 z" />
      <path
         id="path3728"
         style="fill:#00ff00;fill-opacity:1;stroke:none;stroke-width:0.0943746;stroke-dasharray:none;stroke-opacity:1"
         d="m 56.04524,13.242859 -1.655836,0.965903 0.0086,1.916944 1.664419,0.951041 1.655836,-0.965903 -0.0086,-1.916945 z m 0.0086,0.683616 a 1.2333269,1.2333269 0 0 1 1.233328,1.233328 1.2333269,1.2333269 0 0 1 -1.233328,1.233328 1.2333269,1.2333269 0 0 1 -1.233329,-1.233328 1.2333269,1.2333269 0 0 1 1.233329,-1.233328 z" />
    </g>
    <g
       id="g4987"
       transform="translate(0,0.01175482)">
      <path
         id="path3732"
         style="fill:#00ff00;fill-opacity:1;stroke:none;stroke-width:0.0943746;stroke-dasharray:none;stroke-opacity:1"
         d="m 1.8974036,16.444756 -1.65583698,0.965903 0.0086,1.916945 1.66441998,0.951041 1.655836,-0.965903 -0.0086,-1.916945 z m 0.0086,0.683616 A 1.2333269,1.2333269 0 0 1 3.1393306,18.3617 1.2333269,1.2333269 0 0 1 1.9060026,19.595029 1.2333269,1.2333269 0 0 1 0.67267462,18.3617 1.2333269,1.2333269 0 0 1 1.9060036,17.128372 Z" />
      <path
         id="path3736"
         style="fill:#00ff00;fill-opacity:1;stroke:none;stroke-width:0.0943746;stroke-dasharray:none;stroke-opacity:1"
         d="m 5.6298035,16.444756 -1.655837,0.965903 0.0086,1.916945 1.66442,0.951041 1.655836,-0.965903 -0.0086,-1.916945 z m 0.0086,0.683616 a 1.2333269,1.2333269 0 0 1 1.233328,1.233328 1.2333269,1.2333269 0 0 1 -1.233328,1.233329 1.2333269,1.2333269 0 0 1 -1.233328,-1.233329 1.2333269,1.2333269 0 0 1 1.233328,-1.233328 z" />
      <path
         id="path3738"
         style="fill:#00ff00;fill-opacity:1;stroke:none;stroke-width:0.0943746;stroke-dasharray:none;stroke-opacity:1"
         d="m 13.094603,16.444756 -1.655837,0.965903 0.0086,1.916945 1.66442,0.951041 1.655836,-0.965903 -0.0086,-1.916945 z m 0.0086,0.683616 A 1.2333269,1.2333269 0 0 1 14.33653,18.3617 1.2333269,1.2333269 0 0 1 13.103202,19.595029 1.2333269,1.2333269 0 0 1 11.869874,18.3617 1.2333269,1.2333269 0 0 1 13.103203,17.128372 Z" />
      <path
         id="path3740"
         style="fill:#00ff00;fill-opacity:1;stroke:none;stroke-width:0.0943746;stroke-dasharray:none;stroke-opacity:1"
         d="m 9.3622026,16.444756 -1.6558362,0.965903 0.0086,1.916945 1.6644192,0.951041 1.6558364,-0.965903 -0.0086,-1.916945 z m 0.0086,0.683616 A 1.2333269,1.2333269 0 0 1 10.604131,18.3617 1.2333269,1.2333269 0 0 1 9.3708026,19.595029 1.2333269,1.2333269 0 0 1 8.1374736,18.3617 1.2333269,1.2333269 0 0 1 9.3708026,17.128372 Z" />
      <path
         id="path3742"
         style="fill:#00ff00;fill-opacity:1;stroke:none;stroke-width:0.0943746;stroke-dasharray:none;stroke-opacity:1"
         d="m 16.827003,16.444756 -1.655837,0.965903 0.0086,1.916945 1.66442,0.951041 1.655836,-0.965903 -0.0086,-1.916945 z m 0.0086,0.683616 a 1.2333269,1.2333269 0 0 1 1.233328,1.233328 1.2333269,1.2333269 0 0 1 -1.233328,1.233329 1.2333269,1.2333269 0 0 1 -1.233328,-1.233329 1.2333269,1.2333269 0 0 1 1.233328,-1.233328 z" />
      <path
         id="path3744"
         style="fill:#00ff00;fill-opacity:1;stroke:none;stroke-width:0.0943746;stroke-dasharray:none;stroke-opacity:1"
         d="m 24.291802,16.444756 -1.655837,0.965903 0.0086,1.916945 1.66442,0.951041 1.655836,-0.965903 -0.0086,-1.916945 z m 0.0086,0.683616 a 1.2333269,1.2333269 0 0 1 1.233327,1.233328 1.2333269,1.2333269 0 0 1 -1.233328,1.233329 1.2333269,1.2333269 0 0 1 -1.233328,-1.233329 1.2333269,1.2333269 0 0 1 1.233328,-1.233328 z" />
      <path
         id="path3746"
         style="fill:#00ff00;fill-opacity:1;stroke:none;stroke-width:0.0943746;stroke-dasharray:none;stroke-opacity:1"
         d="m 20.559402,16.444756 -1.655836,0.965903 0.0086,1.916945 1.664419,0.951041 1.655836,-0.965903 -0.0086,-1.916945 z m 0.0086,0.683616 A 1.2333269,1.2333269 0 0 1 21.80133,18.3617 1.2333269,1.2333269 0 0 1 20.568002,19.595029 1.2333269,1.2333269 0 0 1 19.334673,18.3617 1.2333269,1.2333269 0 0 1 20.568002,17.128372 Z" />
      <path
         id="path3748"
         style="fill:#00ff00;fill-opacity:1;stroke:none;stroke-width:0.0943746;stroke-dasharray:none;stroke-opacity:1"
         d="m 28.024202,16.444756 -1.655837,0.965903 0.0086,1.916945 1.66442,0.951041 1.655836,-0.965903 -0.0086,-1.916945 z m 0.0086,0.683616 A 1.2333269,1.2333269 0 0 1 29.26613,18.3617 1.2333269,1.2333269 0 0 1 28.032802,19.595029 1.2333269,1.2333269 0 0 1 26.799474,18.3617 1.2333269,1.2333269 0 0 1 28.032802,17.128372 Z" />
      <path
         id="path3750"
         style="fill:#00ff00;fill-opacity:1;stroke:none;stroke-width:0.0943746;stroke-dasharray:none;stroke-opacity:1"
         d="m 35.489,16.444756 -1.655837,0.965903 0.0086,1.916945 1.66442,0.951041 1.655836,-0.965903 -0.0086,-1.916945 z m 0.0086,0.683616 A 1.2333269,1.2333269 0 0 1 36.730927,18.3617 1.2333269,1.2333269 0 0 1 35.497599,19.595029 1.2333269,1.2333269 0 0 1 34.264271,18.3617 1.2333269,1.2333269 0 0 1 35.4976,17.128372 Z" />
      <path
         id="path3752"
         style="fill:#00ff00;fill-opacity:1;stroke:none;stroke-width:0.0943746;stroke-dasharray:none;stroke-opacity:1"
         d="m 31.7566,16.444756 -1.655836,0.965903 0.0086,1.916945 1.664419,0.951041 1.655836,-0.965903 -0.0086,-1.916945 z m 0.0086,0.683616 A 1.2333269,1.2333269 0 0 1 32.998528,18.3617 1.2333269,1.2333269 0 0 1 31.7652,19.595029 1.2333269,1.2333269 0 0 1 30.531871,18.3617 1.2333269,1.2333269 0 0 1 31.7652,17.128372 Z" />
      <path
         id="path3754"
         style="fill:#00ff00;fill-opacity:1;stroke:none;stroke-width:0.0943746;stroke-dasharray:none;stroke-opacity:1"
         d="m 39.2214,16.444756 -1.655837,0.965903 0.0086,1.916945 1.66442,0.951041 1.655836,-0.965903 -0.0086,-1.916945 z M 39.23,17.128372 A 1.2333269,1.2333269 0 0 1 40.463328,18.3617 1.2333269,1.2333269 0 0 1 39.23,19.595029 1.2333269,1.2333269 0 0 1 37.996672,18.3617 1.2333269,1.2333269 0 0 1 39.23,17.128372 Z" />
      <path
         id="path3756"
         style="fill:#00ff00;fill-opacity:1;stroke:none;stroke-width:0.0943746;stroke-dasharray:none;stroke-opacity:1"
         d="m 46.686199,16.444756 -1.655837,0.965903 0.0086,1.916945 1.66442,0.951041 1.655836,-0.965903 -0.0086,-1.916945 z m 0.0086,0.683616 A 1.2333269,1.2333269 0 0 1 47.928126,18.3617 1.2333269,1.2333269 0 0 1 46.694798,19.595029 1.2333269,1.2333269 0 0 1 45.46147,18.3617 1.2333269,1.2333269 0 0 1 46.694799,17.128372 Z" />
      <path
         id="path3758"
         style="fill:#00ff00;fill-opacity:1;stroke:none;stroke-width:0.0943746;stroke-dasharray:none;stroke-opacity:1"
         d="m 42.953799,16.444756 -1.655836,0.965903 0.0086,1.916945 1.664419,0.951041 1.655836,-0.965903 -0.0086,-1.916945 z m 0.0086,0.683616 A 1.2333269,1.2333269 0 0 1 44.195727,18.3617 1.2333269,1.2333269 0 0 1 42.962399,19.595029 1.2333269,1.2333269 0 0 1 41.72907,18.3617 1.2333269,1.2333269 0 0 1 42.962399,17.128372 Z" />
      <path
         id="path3760"
         style="fill:#00ff00;fill-opacity:1;stroke:none;stroke-width:0.0943746;stroke-dasharray:none;stroke-opacity:1"
         d="m 50.418599,16.444756 -1.655837,0.965903 0.0086,1.916945 1.66442,0.951041 1.655836,-0.965903 -0.0086,-1.916945 z m 0.0086,0.683616 a 1.2333269,1.2333269 0 0 1 1.233328,1.233328 1.2333269,1.2333269 0 0 1 -1.233328,1.233329 1.2333269,1.2333269 0 0 1 -1.233328,-1.233329 1.2333269,1.2333269 0 0 1 1.233328,-1.233328 z" />
      <path
         id="path3764"
         style="fill:#00ff00;fill-opacity:1;stroke:none;stroke-width:0.0943746;stroke-dasharray:none;stroke-opacity:1"
         d="m 54.150998,16.444756 -1.655836,0.965903 0.0086,1.916945 1.664419,0.951041 1.655836,-0.965903 -0.0086,-1.916945 z m 0.0086,0.683616 a 1.2333269,1.2333269 0 0 1 1.233328,1.233328 1.2333269,1.2333269 0 0 1 -1.233328,1.233329 1.2333269,1.2333269 0 0 1 -1.233329,-1.233329 1.2333269,1.2333269 0 0 1 1.233329,-1.233328 z" />
    </g>
    <g
       id="g4650"
       transform="translate(0,0.03526545)">
      <path
         id="path3768"
         style="fill:#00ff00;fill-opacity:1;stroke:none;stroke-width:0.0943746;stroke-dasharray:none;stroke-opacity:1"
         d="m 3.7668714,19.646653 -1.655836,0.965903 0.0086,1.916945 1.664419,0.951042 1.655837,-0.965903 -0.0086,-1.916945 z m 0.0086,0.683617 a 1.2333269,1.2333269 0 0 1 1.233327,1.233328 1.2333269,1.2333269 0 0 1 -1.233328,1.233328 1.2333269,1.2333269 0 0 1 -1.233328,-1.233328 1.2333269,1.2333269 0 0 1 1.233329,-1.233328 z" />
      <path
         id="path3770"
         style="fill:#00ff00;fill-opacity:1;stroke:none;stroke-width:0.0943746;stroke-dasharray:none;stroke-opacity:1"
         d="m 0.03447172,19.646653 -1.65583602,0.965903 0.0086,1.916945 1.66441902,0.951042 1.65583698,-0.965903 -0.0086,-1.916945 z m 0.0086,0.683617 A 1.2333269,1.2333269 0 0 1 1.2763997,21.563598 1.2333269,1.2333269 0 0 1 0.04307172,22.796926 1.2333269,1.2333269 0 0 1 -1.1902563,21.563598 1.2333269,1.2333269 0 0 1 0.04307172,20.33027 Z" />
      <path
         id="path3772"
         style="fill:#00ff00;fill-opacity:1;stroke:none;stroke-width:0.0943746;stroke-dasharray:none;stroke-opacity:1"
         d="m 7.4992711,19.646653 -1.655836,0.965903 0.0086,1.916945 1.664419,0.951042 1.6558367,-0.965903 -0.0086,-1.916945 z m 0.0086,0.683617 a 1.2333269,1.2333269 0 0 1 1.2333287,1.233328 1.2333269,1.2333269 0 0 1 -1.2333287,1.233328 1.2333269,1.2333269 0 0 1 -1.233328,-1.233328 1.2333269,1.2333269 0 0 1 1.233328,-1.233328 z" />
      <path
         id="path3774"
         style="fill:#00ff00;fill-opacity:1;stroke:none;stroke-width:0.0943746;stroke-dasharray:none;stroke-opacity:1"
         d="m 14.96407,19.646653 -1.655836,0.965903 0.0086,1.916945 1.664419,0.951042 1.655837,-0.965903 -0.0086,-1.916945 z m 0.0086,0.683617 a 1.2333269,1.2333269 0 0 1 1.233327,1.233328 1.2333269,1.2333269 0 0 1 -1.233328,1.233328 1.2333269,1.2333269 0 0 1 -1.233328,-1.233328 1.2333269,1.2333269 0 0 1 1.233329,-1.233328 z" />
      <path
         id="path3776"
         style="fill:#00ff00;fill-opacity:1;stroke:none;stroke-width:0.0943746;stroke-dasharray:none;stroke-opacity:1"
         d="m 11.231671,19.646653 -1.6558365,0.965903 0.0086,1.916945 1.6644195,0.951042 1.655837,-0.965903 -0.0086,-1.916945 z m 0.0086,0.683617 a 1.2333269,1.2333269 0 0 1 1.233328,1.233328 1.2333269,1.2333269 0 0 1 -1.233328,1.233328 1.2333269,1.2333269 0 0 1 -1.233328,-1.233328 1.2333269,1.2333269 0 0 1 1.233328,-1.233328 z" />
      <path
         id="path3778"
         style="fill:#00ff00;fill-opacity:1;stroke:none;stroke-width:0.0943746;stroke-dasharray:none;stroke-opacity:1"
         d="m 18.69647,19.646653 -1.655836,0.965903 0.0086,1.916945 1.664419,0.951042 1.655837,-0.965903 -0.0086,-1.916945 z m 0.0086,0.683617 a 1.2333269,1.2333269 0 0 1 1.233329,1.233328 1.2333269,1.2333269 0 0 1 -1.233329,1.233328 1.2333269,1.2333269 0 0 1 -1.233328,-1.233328 1.2333269,1.2333269 0 0 1 1.233328,-1.233328 z" />
      <path
         id="path3780"
         style="fill:#00ff00;fill-opacity:1;stroke:none;stroke-width:0.0943746;stroke-dasharray:none;stroke-opacity:1"
         d="m 26.16127,19.646653 -1.655836,0.965903 0.0086,1.916945 1.664419,0.951042 1.655837,-0.965903 -0.0086,-1.916945 z m 0.0086,0.683617 a 1.2333269,1.2333269 0 0 1 1.233327,1.233328 1.2333269,1.2333269 0 0 1 -1.233328,1.233328 1.2333269,1.2333269 0 0 1 -1.233328,-1.233328 1.2333269,1.2333269 0 0 1 1.233328,-1.233328 z" />
      <path
         id="path3782"
         style="fill:#00ff00;fill-opacity:1;stroke:none;stroke-width:0.0943746;stroke-dasharray:none;stroke-opacity:1"
         d="m 22.42887,19.646653 -1.655836,0.965903 0.0086,1.916945 1.664419,0.951042 1.655837,-0.965903 -0.0086,-1.916945 z m 0.0086,0.683617 a 1.2333269,1.2333269 0 0 1 1.233328,1.233328 1.2333269,1.2333269 0 0 1 -1.233328,1.233328 1.2333269,1.2333269 0 0 1 -1.233328,-1.233328 1.2333269,1.2333269 0 0 1 1.233328,-1.233328 z" />
      <path
         id="path3784"
         style="fill:#00ff00;fill-opacity:1;stroke:none;stroke-width:0.0943746;stroke-dasharray:none;stroke-opacity:1"
         d="m 29.893669,19.646653 -1.655836,0.965903 0.0086,1.916945 1.664419,0.951042 1.655837,-0.965903 -0.0086,-1.916945 z m 0.0086,0.683617 a 1.2333269,1.2333269 0 0 1 1.233329,1.233328 1.2333269,1.2333269 0 0 1 -1.233329,1.233328 1.2333269,1.2333269 0 0 1 -1.233328,-1.233328 1.2333269,1.2333269 0 0 1 1.233328,-1.233328 z" />
      <path
         id="path3786"
         style="fill:#00ff00;fill-opacity:1;stroke:none;stroke-width:0.0943746;stroke-dasharray:none;stroke-opacity:1"
         d="m 37.358469,19.646653 -1.655836,0.965903 0.0086,1.916945 1.664419,0.951042 1.655837,-0.965903 -0.0086,-1.916945 z m 0.0086,0.683617 a 1.2333269,1.2333269 0 0 1 1.233327,1.233328 1.2333269,1.2333269 0 0 1 -1.233328,1.233329 1.2333269,1.2333269 0 0 1 -1.233328,-1.233329 1.2333269,1.2333269 0 0 1 1.233329,-1.233328 z" />
      <path
         id="path3788"
         style="fill:#00ff00;fill-opacity:1;stroke:none;stroke-width:0.0943746;stroke-dasharray:none;stroke-opacity:1"
         d="m 33.626069,19.646653 -1.655836,0.965903 0.0086,1.916945 1.664419,0.951042 1.655837,-0.965903 -0.0086,-1.916945 z m 0.0086,0.683617 a 1.2333269,1.2333269 0 0 1 1.233328,1.233328 1.2333269,1.2333269 0 0 1 -1.233328,1.233329 1.2333269,1.2333269 0 0 1 -1.233328,-1.233329 1.2333269,1.2333269 0 0 1 1.233328,-1.233328 z" />
      <path
         id="path3790"
         style="fill:#00ff00;fill-opacity:1;stroke:none;stroke-width:0.0943746;stroke-dasharray:none;stroke-opacity:1"
         d="m 41.090868,19.646653 -1.655836,0.965903 0.0086,1.916945 1.664419,0.951042 1.655837,-0.965903 -0.0086,-1.916945 z m 0.0086,0.683617 a 1.2333269,1.2333269 0 0 1 1.233329,1.233328 1.2333269,1.2333269 0 0 1 -1.233329,1.233329 1.2333269,1.2333269 0 0 1 -1.233328,-1.233329 1.2333269,1.2333269 0 0 1 1.233328,-1.233328 z" />
      <path
         id="path3792"
         style="fill:#00ff00;fill-opacity:1;stroke:none;stroke-width:0.0943746;stroke-dasharray:none;stroke-opacity:1"
         d="m 48.555668,19.646653 -1.655836,0.965903 0.0086,1.916945 1.664419,0.951042 1.655837,-0.965903 -0.0086,-1.916945 z m 0.0086,0.683617 a 1.2333269,1.2333269 0 0 1 1.233327,1.233328 1.2333269,1.2333269 0 0 1 -1.233328,1.233328 1.2333269,1.2333269 0 0 1 -1.233328,-1.233328 1.2333269,1.2333269 0 0 1 1.233329,-1.233328 z" />
      <path
         id="path3794"
         style="fill:#00ff00;fill-opacity:1;stroke:none;stroke-width:0.0943746;stroke-dasharray:none;stroke-opacity:1"
         d="m 44.823268,19.646653 -1.655836,0.965903 0.0086,1.916945 1.664419,0.951042 1.655837,-0.965903 -0.0086,-1.916945 z m 0.0086,0.683617 a 1.2333269,1.2333269 0 0 1 1.233328,1.233328 1.2333269,1.2333269 0 0 1 -1.233328,1.233328 1.2333269,1.2333269 0 0 1 -1.233328,-1.233328 1.2333269,1.2333269 0 0 1 1.233328,-1.233328 z" />
      <path
         id="path3796"
         style="fill:#00ff00;fill-opacity:1;stroke:none;stroke-width:0.0943746;stroke-dasharray:none;stroke-opacity:1"
         d="m 52.288067,19.646653 -1.655836,0.965903 0.0086,1.916945 1.664419,0.951042 1.655837,-0.965903 -0.0086,-1.916945 z m 0.0086,0.683617 a 1.2333269,1.2333269 0 0 1 1.233329,1.233328 1.2333269,1.2333269 0 0 1 -1.233329,1.233328 1.2333269,1.2333269 0 0 1 -1.233328,-1.233328 1.2333269,1.2333269 0 0 1 1.233328,-1.233328 z" />
      <path
         id="path3800"
         style="fill:#00ff00;fill-opacity:1;stroke:none;stroke-width:0.0943746;stroke-dasharray:none;stroke-opacity:1"
         d="m 56.020467,19.646653 -1.655836,0.965903 0.0086,1.916945 1.664419,0.951042 1.655837,-0.965903 -0.0086,-1.916945 z m 0.0086,0.683617 a 1.2333269,1.2333269 0 0 1 1.233328,1.233328 1.2333269,1.2333269 0 0 1 -1.233328,1.233328 1.2333269,1.2333269 0 0 1 -1.233328,-1.233328 1.2333269,1.2333269 0 0 1 1.233328,-1.233328 z" />
    </g>
    <g
       id="g4667"
       transform="translate(0,0.05877509)">
      <path
         id="path3804"
         style="fill:#00ff00;fill-opacity:1;stroke:none;stroke-width:0.0943746;stroke-dasharray:none;stroke-opacity:1"
         d="m 1.9156266,22.848552 -1.65583698,0.965903 0.0086,1.916945 1.66441998,0.951041 1.655836,-0.965903 -0.0086,-1.916945 z m 0.0086,0.683616 a 1.2333269,1.2333269 0 0 1 1.233327,1.233328 1.2333269,1.2333269 0 0 1 -1.233328,1.233329 1.2333269,1.2333269 0 0 1 -1.23332798,-1.233329 1.2333269,1.2333269 0 0 1 1.23332898,-1.233328 z" />
      <path
         id="path3808"
         style="fill:#00ff00;fill-opacity:1;stroke:none;stroke-width:0.0943746;stroke-dasharray:none;stroke-opacity:1"
         d="m 5.6480265,22.848552 -1.655837,0.965903 0.0086,1.916945 1.66442,0.951041 1.655836,-0.965903 -0.0086,-1.916945 z m 0.0086,0.683616 a 1.2333269,1.2333269 0 0 1 1.233328,1.233328 1.2333269,1.2333269 0 0 1 -1.233328,1.233329 1.2333269,1.2333269 0 0 1 -1.233328,-1.233329 1.2333269,1.2333269 0 0 1 1.233328,-1.233328 z" />
      <path
         id="path3810"
         style="fill:#00ff00;fill-opacity:1;stroke:none;stroke-width:0.0943746;stroke-dasharray:none;stroke-opacity:1"
         d="m 13.112826,22.848552 -1.655837,0.965903 0.0086,1.916945 1.66442,0.951041 1.655836,-0.965903 -0.0086,-1.916945 z m 0.0086,0.683616 a 1.2333269,1.2333269 0 0 1 1.233327,1.233328 1.2333269,1.2333269 0 0 1 -1.233328,1.233329 1.2333269,1.2333269 0 0 1 -1.233328,-1.233329 1.2333269,1.2333269 0 0 1 1.233329,-1.233328 z" />
      <path
         id="path3812"
         style="fill:#00ff00;fill-opacity:1;stroke:none;stroke-width:0.0943746;stroke-dasharray:none;stroke-opacity:1"
         d="m 9.3804256,22.848552 -1.6558362,0.965903 0.0086,1.916945 1.6644192,0.951041 1.6558364,-0.965903 -0.0086,-1.916945 z m 0.0086,0.683616 a 1.2333269,1.2333269 0 0 1 1.2333284,1.233328 1.2333269,1.2333269 0 0 1 -1.2333284,1.233329 1.2333269,1.2333269 0 0 1 -1.233329,-1.233329 1.2333269,1.2333269 0 0 1 1.233329,-1.233328 z" />
      <path
         id="path3814"
         style="fill:#00ff00;fill-opacity:1;stroke:none;stroke-width:0.0943746;stroke-dasharray:none;stroke-opacity:1"
         d="m 16.845226,22.848552 -1.655837,0.965903 0.0086,1.916945 1.66442,0.951041 1.655836,-0.965903 -0.0086,-1.916945 z m 0.0086,0.683616 a 1.2333269,1.2333269 0 0 1 1.233328,1.233328 1.2333269,1.2333269 0 0 1 -1.233328,1.233329 1.2333269,1.2333269 0 0 1 -1.233328,-1.233329 1.2333269,1.2333269 0 0 1 1.233328,-1.233328 z" />
      <path
         id="path3816"
         style="fill:#00ff00;fill-opacity:1;stroke:none;stroke-width:0.0943746;stroke-dasharray:none;stroke-opacity:1"
         d="m 24.310025,22.848552 -1.655837,0.965903 0.0086,1.916945 1.66442,0.951041 1.655836,-0.965903 -0.0086,-1.916945 z m 0.0086,0.683616 a 1.2333269,1.2333269 0 0 1 1.233327,1.233328 1.2333269,1.2333269 0 0 1 -1.233328,1.233329 1.2333269,1.2333269 0 0 1 -1.233328,-1.233329 1.2333269,1.2333269 0 0 1 1.233328,-1.233328 z" />
      <path
         id="path3818"
         style="fill:#00ff00;fill-opacity:1;stroke:none;stroke-width:0.0943746;stroke-dasharray:none;stroke-opacity:1"
         d="m 20.577625,22.848552 -1.655836,0.965903 0.0086,1.916945 1.664419,0.951041 1.655836,-0.965903 -0.0086,-1.916945 z m 0.0086,0.683616 a 1.2333269,1.2333269 0 0 1 1.233328,1.233328 1.2333269,1.2333269 0 0 1 -1.233328,1.233329 1.2333269,1.2333269 0 0 1 -1.233329,-1.233329 1.2333269,1.2333269 0 0 1 1.233329,-1.233328 z" />
      <path
         id="path3820"
         style="fill:#00ff00;fill-opacity:1;stroke:none;stroke-width:0.0943746;stroke-dasharray:none;stroke-opacity:1"
         d="m 28.042425,22.848552 -1.655837,0.965903 0.0086,1.916945 1.66442,0.951041 1.655836,-0.965903 -0.0086,-1.916945 z m 0.0086,0.683616 a 1.2333269,1.2333269 0 0 1 1.233328,1.233328 1.2333269,1.2333269 0 0 1 -1.233328,1.233329 1.2333269,1.2333269 0 0 1 -1.233328,-1.233329 1.2333269,1.2333269 0 0 1 1.233328,-1.233328 z" />
      <path
         id="path3822"
         style="fill:#00ff00;fill-opacity:1;stroke:none;stroke-width:0.0943746;stroke-dasharray:none;stroke-opacity:1"
         d="m 35.507223,22.848552 -1.655837,0.965903 0.0086,1.916945 1.66442,0.951041 1.655836,-0.965903 -0.0086,-1.916945 z m 0.0086,0.683616 a 1.2333269,1.2333269 0 0 1 1.233327,1.233328 1.2333269,1.2333269 0 0 1 -1.233328,1.233329 1.2333269,1.2333269 0 0 1 -1.233328,-1.233329 1.2333269,1.2333269 0 0 1 1.233329,-1.233328 z" />
      <path
         id="path3824"
         style="fill:#00ff00;fill-opacity:1;stroke:none;stroke-width:0.0943746;stroke-dasharray:none;stroke-opacity:1"
         d="m 31.774823,22.848552 -1.655836,0.965903 0.0086,1.916945 1.664419,0.951041 1.655836,-0.965903 -0.0086,-1.916945 z m 0.0086,0.683616 a 1.2333269,1.2333269 0 0 1 1.233328,1.233328 1.2333269,1.2333269 0 0 1 -1.233328,1.233329 1.2333269,1.2333269 0 0 1 -1.233329,-1.233329 1.2333269,1.2333269 0 0 1 1.233329,-1.233328 z" />
      <path
         id="path3826"
         style="fill:#00ff00;fill-opacity:1;stroke:none;stroke-width:0.0943746;stroke-dasharray:none;stroke-opacity:1"
         d="m 39.239623,22.848552 -1.655837,0.965903 0.0086,1.916945 1.66442,0.951041 1.655836,-0.965903 -0.0086,-1.916945 z m 0.0086,0.683616 a 1.2333269,1.2333269 0 0 1 1.233328,1.233328 1.2333269,1.2333269 0 0 1 -1.233328,1.233329 1.2333269,1.2333269 0 0 1 -1.233328,-1.233329 1.2333269,1.2333269 0 0 1 1.233328,-1.233328 z" />
      <path
         id="path3828"
         style="fill:#00ff00;fill-opacity:1;stroke:none;stroke-width:0.0943746;stroke-dasharray:none;stroke-opacity:1"
         d="m 46.704422,22.848552 -1.655837,0.965903 0.0086,1.916945 1.66442,0.951041 1.655836,-0.965903 -0.0086,-1.916945 z m 0.0086,0.683616 a 1.2333269,1.2333269 0 0 1 1.233327,1.233328 1.2333269,1.2333269 0 0 1 -1.233328,1.233329 1.2333269,1.2333269 0 0 1 -1.233328,-1.233329 1.2333269,1.2333269 0 0 1 1.233329,-1.233328 z" />
      <path
         id="path3830"
         style="fill:#00ff00;fill-opacity:1;stroke:none;stroke-width:0.0943746;stroke-dasharray:none;stroke-opacity:1"
         d="m 42.972022,22.848552 -1.655836,0.965903 0.0086,1.916945 1.664419,0.951041 1.655836,-0.965903 -0.0086,-1.916945 z m 0.0086,0.683616 a 1.2333269,1.2333269 0 0 1 1.233328,1.233328 1.2333269,1.2333269 0 0 1 -1.233328,1.233329 1.2333269,1.2333269 0 0 1 -1.233329,-1.233329 1.2333269,1.2333269 0 0 1 1.233329,-1.233328 z" />
      <path
         id="path3832"
         style="fill:#00ff00;fill-opacity:1;stroke:none;stroke-width:0.0943746;stroke-dasharray:none;stroke-opacity:1"
         d="m 50.436822,22.848552 -1.655837,0.965903 0.0086,1.916945 1.66442,0.951041 1.655836,-0.965903 -0.0086,-1.916945 z m 0.0086,0.683616 a 1.2333269,1.2333269 0 0 1 1.233328,1.233328 1.2333269,1.2333269 0 0 1 -1.233328,1.233329 1.2333269,1.2333269 0 0 1 -1.233328,-1.233329 1.2333269,1.2333269 0 0 1 1.233328,-1.233328 z" />
      <path
         id="path3836"
         style="fill:#00ff00;fill-opacity:1;stroke:none;stroke-width:0.0943746;stroke-dasharray:none;stroke-opacity:1"
         d="m 54.169221,22.848552 -1.655836,0.965903 0.0086,1.916945 1.664419,0.951041 1.655836,-0.965903 -0.0086,-1.916945 z m 0.0086,0.683616 a 1.2333269,1.2333269 0 0 1 1.233328,1.233328 1.2333269,1.2333269 0 0 1 -1.233328,1.233329 1.2333269,1.2333269 0 0 1 -1.233329,-1.233329 1.2333269,1.2333269 0 0 1 1.233329,-1.233328 z" />
    </g>
    <g
       id="g4685"
       transform="translate(0,0.08228573)">
      <path
         id="path3840"
         style="fill:#00ff00;fill-opacity:1;stroke:none;stroke-width:0.0943746;stroke-dasharray:none;stroke-opacity:1"
         d="m 3.7850944,26.050449 -1.655836,0.965903 0.0086,1.916945 1.664419,0.951042 1.655837,-0.965903 -0.0086,-1.916945 z m 0.0086,0.683617 a 1.2333269,1.2333269 0 0 1 1.233327,1.233328 1.2333269,1.2333269 0 0 1 -1.233328,1.233328 1.2333269,1.2333269 0 0 1 -1.233328,-1.233328 1.2333269,1.2333269 0 0 1 1.233329,-1.233328 z" />
      <path
         id="path3842"
         style="fill:#00ff00;fill-opacity:1;stroke:none;stroke-width:0.0943746;stroke-dasharray:none;stroke-opacity:1"
         d="m 0.05269472,26.050449 -1.65583602,0.965903 0.0086,1.916945 1.66441902,0.951042 1.65583698,-0.965903 -0.0086,-1.916945 z m 0.0086,0.683617 A 1.2333269,1.2333269 0 0 1 1.2946227,27.967394 1.2333269,1.2333269 0 0 1 0.06129472,29.200722 1.2333269,1.2333269 0 0 1 -1.1720333,27.967394 1.2333269,1.2333269 0 0 1 0.06129472,26.734066 Z" />
      <path
         id="path3844"
         style="fill:#00ff00;fill-opacity:1;stroke:none;stroke-width:0.0943746;stroke-dasharray:none;stroke-opacity:1"
         d="m 7.5174941,26.050449 -1.655836,0.965903 0.0086,1.916945 1.664419,0.951042 1.6558367,-0.965903 -0.0086,-1.916945 z m 0.0086,0.683617 a 1.2333269,1.2333269 0 0 1 1.2333287,1.233328 1.2333269,1.2333269 0 0 1 -1.2333287,1.233328 1.2333269,1.2333269 0 0 1 -1.233328,-1.233328 1.2333269,1.2333269 0 0 1 1.233328,-1.233328 z" />
      <path
         id="path3846"
         style="fill:#00ff00;fill-opacity:1;stroke:none;stroke-width:0.0943746;stroke-dasharray:none;stroke-opacity:1"
         d="m 14.982293,26.050449 -1.655836,0.965903 0.0086,1.916945 1.664419,0.951042 1.655837,-0.965903 -0.0086,-1.916945 z m 0.0086,0.683617 a 1.2333269,1.2333269 0 0 1 1.233327,1.233328 1.2333269,1.2333269 0 0 1 -1.233328,1.233328 1.2333269,1.2333269 0 0 1 -1.233328,-1.233328 1.2333269,1.2333269 0 0 1 1.233329,-1.233328 z" />
      <path
         id="path3848"
         style="fill:#00ff00;fill-opacity:1;stroke:none;stroke-width:0.0943746;stroke-dasharray:none;stroke-opacity:1"
         d="m 11.249894,26.050449 -1.6558365,0.965903 0.0086,1.916945 1.6644195,0.951042 1.655837,-0.965903 -0.0086,-1.916945 z m 0.0086,0.683617 a 1.2333269,1.2333269 0 0 1 1.233328,1.233328 1.2333269,1.2333269 0 0 1 -1.233328,1.233328 1.2333269,1.2333269 0 0 1 -1.233328,-1.233328 1.2333269,1.2333269 0 0 1 1.233328,-1.233328 z" />
      <path
         id="path3850"
         style="fill:#00ff00;fill-opacity:1;stroke:none;stroke-width:0.0943746;stroke-dasharray:none;stroke-opacity:1"
         d="m 18.714693,26.050449 -1.655836,0.965903 0.0086,1.916945 1.664419,0.951042 1.655837,-0.965903 -0.0086,-1.916945 z m 0.0086,0.683617 a 1.2333269,1.2333269 0 0 1 1.233329,1.233329 1.2333269,1.2333269 0 0 1 -1.233329,1.233328 1.2333269,1.2333269 0 0 1 -1.233328,-1.233328 1.2333269,1.2333269 0 0 1 1.233328,-1.233329 z" />
      <path
         id="path3852"
         style="fill:#00ff00;fill-opacity:1;stroke:none;stroke-width:0.0943746;stroke-dasharray:none;stroke-opacity:1"
         d="m 26.179493,26.050449 -1.655836,0.965903 0.0086,1.916945 1.664419,0.951042 1.655837,-0.965903 -0.0086,-1.916945 z m 0.0086,0.683617 a 1.2333269,1.2333269 0 0 1 1.233327,1.233328 1.2333269,1.2333269 0 0 1 -1.233328,1.233328 1.2333269,1.2333269 0 0 1 -1.233328,-1.233328 1.2333269,1.2333269 0 0 1 1.233328,-1.233328 z" />
      <path
         id="path3854"
         style="fill:#00ff00;fill-opacity:1;stroke:none;stroke-width:0.0943746;stroke-dasharray:none;stroke-opacity:1"
         d="m 22.447093,26.050449 -1.655836,0.965903 0.0086,1.916945 1.664419,0.951042 1.655837,-0.965903 -0.0086,-1.916945 z m 0.0086,0.683617 a 1.2333269,1.2333269 0 0 1 1.233328,1.233328 1.2333269,1.2333269 0 0 1 -1.233328,1.233329 1.2333269,1.2333269 0 0 1 -1.233328,-1.233329 1.2333269,1.2333269 0 0 1 1.233328,-1.233328 z" />
      <path
         id="path3856"
         style="fill:#00ff00;fill-opacity:1;stroke:none;stroke-width:0.0943746;stroke-dasharray:none;stroke-opacity:1"
         d="m 29.911892,26.050449 -1.655836,0.965902 0.0086,1.916945 1.664419,0.951042 1.655837,-0.965903 -0.0086,-1.916945 z m 0.0086,0.683616 a 1.2333269,1.2333269 0 0 1 1.233329,1.233328 1.2333269,1.2333269 0 0 1 -1.233329,1.233328 1.2333269,1.2333269 0 0 1 -1.233328,-1.233328 1.2333269,1.2333269 0 0 1 1.233328,-1.233328 z" />
      <path
         id="path3858"
         style="fill:#00ff00;fill-opacity:1;stroke:none;stroke-width:0.0943746;stroke-dasharray:none;stroke-opacity:1"
         d="m 37.376692,26.050449 -1.655836,0.965903 0.0086,1.916945 1.664419,0.951042 1.655837,-0.965903 -0.0086,-1.916945 z m 0.0086,0.683617 a 1.2333269,1.2333269 0 0 1 1.233327,1.233328 1.2333269,1.2333269 0 0 1 -1.233328,1.233328 1.2333269,1.2333269 0 0 1 -1.233328,-1.233328 1.2333269,1.2333269 0 0 1 1.233329,-1.233328 z" />
      <path
         id="path3860"
         style="fill:#00ff00;fill-opacity:1;stroke:none;stroke-width:0.0943746;stroke-dasharray:none;stroke-opacity:1"
         d="m 33.644292,26.050449 -1.655836,0.965903 0.0086,1.916945 1.664419,0.951042 1.655837,-0.965903 -0.0086,-1.916945 z m 0.0086,0.683617 a 1.2333269,1.2333269 0 0 1 1.233328,1.233328 1.2333269,1.2333269 0 0 1 -1.233328,1.233328 1.2333269,1.2333269 0 0 1 -1.233328,-1.233328 1.2333269,1.2333269 0 0 1 1.233328,-1.233328 z" />
      <path
         id="path3862"
         style="fill:#00ff00;fill-opacity:1;stroke:none;stroke-width:0.0943746;stroke-dasharray:none;stroke-opacity:1"
         d="m 41.109091,26.050449 -1.655836,0.965903 0.0086,1.916945 1.664419,0.951042 1.655837,-0.965903 -0.0086,-1.916945 z m 0.0086,0.683617 a 1.2333269,1.2333269 0 0 1 1.233329,1.233328 1.2333269,1.2333269 0 0 1 -1.233329,1.233328 1.2333269,1.2333269 0 0 1 -1.233328,-1.233328 1.2333269,1.2333269 0 0 1 1.233328,-1.233328 z" />
      <path
         id="path3864"
         style="fill:#00ff00;fill-opacity:1;stroke:none;stroke-width:0.0943746;stroke-dasharray:none;stroke-opacity:1"
         d="m 48.573891,26.050449 -1.655836,0.965903 0.0086,1.916945 1.664419,0.951042 1.655837,-0.965903 -0.0086,-1.916945 z m 0.0086,0.683617 a 1.2333269,1.2333269 0 0 1 1.233327,1.233329 1.2333269,1.2333269 0 0 1 -1.233328,1.233328 1.2333269,1.2333269 0 0 1 -1.233328,-1.233328 1.2333269,1.2333269 0 0 1 1.233329,-1.233329 z" />
      <path
         id="path3866"
         style="fill:#00ff00;fill-opacity:1;stroke:none;stroke-width:0.0943746;stroke-dasharray:none;stroke-opacity:1"
         d="m 44.841491,26.050449 -1.655836,0.965903 0.0086,1.916945 1.664419,0.951042 1.655837,-0.965903 -0.0086,-1.916945 z m 0.0086,0.683617 a 1.2333269,1.2333269 0 0 1 1.233328,1.233328 1.2333269,1.2333269 0 0 1 -1.233328,1.233328 1.2333269,1.2333269 0 0 1 -1.233328,-1.233328 1.2333269,1.2333269 0 0 1 1.233328,-1.233328 z" />
      <path
         id="path3868"
         style="fill:#00ff00;fill-opacity:1;stroke:none;stroke-width:0.0943746;stroke-dasharray:none;stroke-opacity:1"
         d="m 52.30629,26.050449 -1.655836,0.965903 0.0086,1.916945 1.664419,0.951042 1.655837,-0.965903 -0.0086,-1.916945 z m 0.0086,0.683617 a 1.2333269,1.2333269 0 0 1 1.233329,1.233328 1.2333269,1.2333269 0 0 1 -1.233329,1.233328 1.2333269,1.2333269 0 0 1 -1.233328,-1.233328 1.2333269,1.2333269 0 0 1 1.233328,-1.233328 z" />
      <path
         id="path3872"
         style="fill:#00ff00;fill-opacity:1;stroke:none;stroke-width:0.0943746;stroke-dasharray:none;stroke-opacity:1"
         d="m 56.03869,26.050449 -1.655836,0.965902 0.0086,1.916945 1.664419,0.951042 1.655837,-0.965903 -0.0086,-1.916945 z m 0.0086,0.683616 a 1.2333269,1.2333269 0 0 1 1.233328,1.233328 1.2333269,1.2333269 0 0 1 -1.233328,1.233328 1.2333269,1.2333269 0 0 1 -1.233328,-1.233328 1.2333269,1.2333269 0 0 1 1.233328,-1.233328 z" />
    </g>
    <g
       id="g4702"
       transform="translate(0,-0.02350964)">
      <path
         id="path4060"
         style="fill:#00ff00;fill-opacity:1;stroke:none;stroke-width:0.0943746;stroke-dasharray:none;stroke-opacity:1"
         d="m 5.616025,29.381653 -1.655837,0.965903 0.0086,1.916945 1.664419,0.951041 1.655837,-0.965903 -0.0086,-1.916945 z m 0.0086,0.683616 a 1.2333269,1.2333269 0 0 1 1.233327,1.233328 1.2333269,1.2333269 0 0 1 -1.233328,1.233329 1.2333269,1.2333269 0 0 1 -1.233328,-1.233329 1.2333269,1.2333269 0 0 1 1.233328,-1.233328 z" />
      <path
         id="path4062"
         style="fill:#00ff00;fill-opacity:1;stroke:none;stroke-width:0.0943746;stroke-dasharray:none;stroke-opacity:1"
         d="m 1.8836251,29.381653 -1.655836,0.965903 0.0086,1.916945 1.664419,0.951041 1.655836,-0.965903 -0.0086,-1.916945 z m 0.0086,0.683616 a 1.2333269,1.2333269 0 0 1 1.233328,1.233328 1.2333269,1.2333269 0 0 1 -1.233328,1.233329 1.2333269,1.2333269 0 0 1 -1.233329,-1.233329 1.2333269,1.2333269 0 0 1 1.233329,-1.233328 z" />
      <path
         id="path4064"
         style="fill:#00ff00;fill-opacity:1;stroke:none;stroke-width:0.0943746;stroke-dasharray:none;stroke-opacity:1"
         d="m 9.3484249,29.381653 -1.655837,0.965903 0.0086,1.916945 1.66442,0.951041 1.6558361,-0.965903 -0.0086,-1.916945 z m 0.0086,0.683616 a 1.2333269,1.2333269 0 0 1 1.2333281,1.233328 1.2333269,1.2333269 0 0 1 -1.2333281,1.233329 1.2333269,1.2333269 0 0 1 -1.233328,-1.233329 1.2333269,1.2333269 0 0 1 1.233328,-1.233328 z" />
      <path
         id="path4066"
         style="fill:#00ff00;fill-opacity:1;stroke:none;stroke-width:0.0943746;stroke-dasharray:none;stroke-opacity:1"
         d="m 16.813224,29.381653 -1.655837,0.965903 0.0086,1.916945 1.664419,0.951041 1.655837,-0.965903 -0.0086,-1.916945 z m 0.0086,0.683616 a 1.2333269,1.2333269 0 0 1 1.233327,1.233328 1.2333269,1.2333269 0 0 1 -1.233328,1.233329 1.2333269,1.2333269 0 0 1 -1.233328,-1.233329 1.2333269,1.2333269 0 0 1 1.233329,-1.233328 z" />
      <path
         id="path4068"
         style="fill:#00ff00;fill-opacity:1;stroke:none;stroke-width:0.0943746;stroke-dasharray:none;stroke-opacity:1"
         d="m 13.080824,29.381653 -1.655836,0.965903 0.0086,1.916945 1.664419,0.951041 1.655836,-0.965903 -0.0086,-1.916945 z m 0.0086,0.683616 a 1.2333269,1.2333269 0 0 1 1.233328,1.233328 1.2333269,1.2333269 0 0 1 -1.233328,1.233329 1.2333269,1.2333269 0 0 1 -1.233329,-1.233329 1.2333269,1.2333269 0 0 1 1.233329,-1.233328 z" />
      <path
         id="path4070"
         style="fill:#00ff00;fill-opacity:1;stroke:none;stroke-width:0.0943746;stroke-dasharray:none;stroke-opacity:1"
         d="m 20.545624,29.381653 -1.655837,0.965903 0.0086,1.916945 1.66442,0.951041 1.655836,-0.965903 -0.0086,-1.916945 z m 0.0086,0.683616 a 1.2333269,1.2333269 0 0 1 1.233328,1.233328 1.2333269,1.2333269 0 0 1 -1.233328,1.233329 1.2333269,1.2333269 0 0 1 -1.233328,-1.233329 1.2333269,1.2333269 0 0 1 1.233328,-1.233328 z" />
      <path
         id="path4072"
         style="fill:#00ff00;fill-opacity:1;stroke:none;stroke-width:0.0943746;stroke-dasharray:none;stroke-opacity:1"
         d="m 28.010423,29.381653 -1.655837,0.965903 0.0086,1.916945 1.664419,0.951041 1.655837,-0.965903 -0.0086,-1.916945 z m 0.0086,0.683616 a 1.2333269,1.2333269 0 0 1 1.233327,1.233328 1.2333269,1.2333269 0 0 1 -1.233328,1.233329 1.2333269,1.2333269 0 0 1 -1.233328,-1.233329 1.2333269,1.2333269 0 0 1 1.233328,-1.233328 z" />
      <path
         id="path4074"
         style="fill:#00ff00;fill-opacity:1;stroke:none;stroke-width:0.0943746;stroke-dasharray:none;stroke-opacity:1"
         d="m 24.278023,29.381653 -1.655836,0.965903 0.0086,1.916945 1.664419,0.951041 1.655836,-0.965903 -0.0086,-1.916945 z m 0.0086,0.683616 a 1.2333269,1.2333269 0 0 1 1.233328,1.233328 1.2333269,1.2333269 0 0 1 -1.233328,1.233329 1.2333269,1.2333269 0 0 1 -1.233329,-1.233329 1.2333269,1.2333269 0 0 1 1.233329,-1.233328 z" />
      <path
         id="path4076"
         style="fill:#00ff00;fill-opacity:1;stroke:none;stroke-width:0.0943746;stroke-dasharray:none;stroke-opacity:1"
         d="m 31.742822,29.381653 -1.655837,0.965903 0.0086,1.916945 1.66442,0.951041 1.655836,-0.965903 -0.0086,-1.916945 z m 0.0086,0.683616 a 1.2333269,1.2333269 0 0 1 1.233328,1.233328 1.2333269,1.2333269 0 0 1 -1.233328,1.233329 1.2333269,1.2333269 0 0 1 -1.233328,-1.233329 1.2333269,1.2333269 0 0 1 1.233328,-1.233328 z" />
      <path
         id="path4078"
         style="fill:#00ff00;fill-opacity:1;stroke:none;stroke-width:0.0943746;stroke-dasharray:none;stroke-opacity:1"
         d="m 39.207621,29.381653 -1.655837,0.965903 0.0086,1.916945 1.664419,0.951041 1.655837,-0.965903 -0.0086,-1.916945 z m 0.0086,0.683616 a 1.2333269,1.2333269 0 0 1 1.233327,1.233328 1.2333269,1.2333269 0 0 1 -1.233328,1.233329 1.2333269,1.2333269 0 0 1 -1.233328,-1.233329 1.2333269,1.2333269 0 0 1 1.233329,-1.233328 z" />
      <path
         id="path4080"
         style="fill:#00ff00;fill-opacity:1;stroke:none;stroke-width:0.0943746;stroke-dasharray:none;stroke-opacity:1"
         d="m 35.475221,29.381653 -1.655836,0.965903 0.0086,1.916945 1.664419,0.951041 1.655836,-0.965903 -0.0086,-1.916945 z m 0.0086,0.683616 a 1.2333269,1.2333269 0 0 1 1.233328,1.233328 1.2333269,1.2333269 0 0 1 -1.233328,1.233329 1.2333269,1.2333269 0 0 1 -1.233329,-1.233329 1.2333269,1.2333269 0 0 1 1.233329,-1.233328 z" />
      <path
         id="path4082"
         style="fill:#00ff00;fill-opacity:1;stroke:none;stroke-width:0.0943746;stroke-dasharray:none;stroke-opacity:1"
         d="m 42.940021,29.381653 -1.655837,0.965903 0.0086,1.916945 1.66442,0.951041 1.655836,-0.965903 -0.0086,-1.916945 z m 0.0086,0.683616 a 1.2333269,1.2333269 0 0 1 1.233328,1.233328 1.2333269,1.2333269 0 0 1 -1.233328,1.233329 1.2333269,1.2333269 0 0 1 -1.233328,-1.233329 1.2333269,1.2333269 0 0 1 1.233328,-1.233328 z" />
      <path
         id="path4084"
         style="fill:#00ff00;fill-opacity:1;stroke:none;stroke-width:0.0943746;stroke-dasharray:none;stroke-opacity:1"
         d="m 50.40482,29.381653 -1.655837,0.965903 0.0086,1.916945 1.664419,0.951041 1.655837,-0.965903 -0.0086,-1.916945 z m 0.0086,0.683616 a 1.2333269,1.2333269 0 0 1 1.233327,1.233328 1.2333269,1.2333269 0 0 1 -1.233328,1.233329 1.2333269,1.2333269 0 0 1 -1.233328,-1.233329 1.2333269,1.2333269 0 0 1 1.233329,-1.233328 z" />
      <path
         id="path4086"
         style="fill:#00ff00;fill-opacity:1;stroke:none;stroke-width:0.0943746;stroke-dasharray:none;stroke-opacity:1"
         d="m 46.67242,29.381653 -1.655836,0.965903 0.0086,1.916945 1.664419,0.951041 1.655836,-0.965903 -0.0086,-1.916945 z m 0.0086,0.683616 a 1.2333269,1.2333269 0 0 1 1.233328,1.233328 1.2333269,1.2333269 0 0 1 -1.233328,1.233329 1.2333269,1.2333269 0 0 1 -1.233329,-1.233329 1.2333269,1.2333269 0 0 1 1.233329,-1.233328 z" />
      <path
         id="path4088"
         style="fill:#00ff00;fill-opacity:1;stroke:none;stroke-width:0.0943746;stroke-dasharray:none;stroke-opacity:1"
         d="m 54.13722,29.381653 -1.655837,0.965903 0.0086,1.916945 1.66442,0.951041 1.655836,-0.965903 -0.0086,-1.916945 z m 0.0086,0.683616 a 1.2333269,1.2333269 0 0 1 1.233328,1.233328 1.2333269,1.2333269 0 0 1 -1.233328,1.233329 1.2333269,1.2333269 0 0 1 -1.233328,-1.233329 1.2333269,1.2333269 0 0 1 1.233328,-1.233328 z" />
    </g>
    <g
       id="g4720">
      <path
         id="path4096"
         style="fill:#00ff00;fill-opacity:1;stroke:none;stroke-width:0.0943746;stroke-dasharray:none;stroke-opacity:1"
         d="m 3.721783,32.583551 -1.655837,0.965903 0.0086,1.916945 1.66442,0.951041 1.655836,-0.965903 -0.0086,-1.916945 z m 0.0086,0.683616 A 1.2333269,1.2333269 0 0 1 4.96371,34.500495 1.2333269,1.2333269 0 0 1 3.730382,35.733824 1.2333269,1.2333269 0 0 1 2.497054,34.500495 1.2333269,1.2333269 0 0 1 3.730383,33.267167 Z" />
      <path
         id="path4098"
         style="fill:#00ff00;fill-opacity:1;stroke:none;stroke-width:0.0943746;stroke-dasharray:none;stroke-opacity:1"
         d="m -0.0106169,32.583551 -1.655836,0.965903 0.0086,1.916945 1.664419,0.951041 1.655836,-0.965903 -0.0086,-1.916945 z m 0.0086,0.683616 a 1.2333269,1.2333269 0 0 1 1.233328,1.233328 1.2333269,1.2333269 0 0 1 -1.233328,1.233329 1.2333269,1.2333269 0 0 1 -1.233329,-1.233329 1.2333269,1.2333269 0 0 1 1.233329,-1.233328 z" />
      <path
         id="path4100"
         style="fill:#00ff00;fill-opacity:1;stroke:none;stroke-width:0.0943746;stroke-dasharray:none;stroke-opacity:1"
         d="m 7.4541829,32.583551 -1.655837,0.965903 0.0086,1.916945 1.66442,0.951041 1.655836,-0.965903 -0.0086,-1.916945 z m 0.0086,0.683616 a 1.2333269,1.2333269 0 0 1 1.233328,1.233328 1.2333269,1.2333269 0 0 1 -1.233328,1.233329 1.2333269,1.2333269 0 0 1 -1.233328,-1.233329 1.2333269,1.2333269 0 0 1 1.233328,-1.233328 z" />
      <path
         id="path4102"
         style="fill:#00ff00;fill-opacity:1;stroke:none;stroke-width:0.0943746;stroke-dasharray:none;stroke-opacity:1"
         d="m 14.918982,32.583551 -1.655837,0.965903 0.0086,1.916945 1.66442,0.951041 1.655836,-0.965903 -0.0086,-1.916945 z m 0.0086,0.683616 a 1.2333269,1.2333269 0 0 1 1.233327,1.233328 1.2333269,1.2333269 0 0 1 -1.233328,1.233329 1.2333269,1.2333269 0 0 1 -1.233328,-1.233329 1.2333269,1.2333269 0 0 1 1.233329,-1.233328 z" />
      <path
         id="path4104"
         style="fill:#00ff00;fill-opacity:1;stroke:none;stroke-width:0.0943746;stroke-dasharray:none;stroke-opacity:1"
         d="m 11.186582,32.583551 -1.6558361,0.965903 0.0086,1.916945 1.6644191,0.951041 1.655836,-0.965903 -0.0086,-1.916945 z m 0.0086,0.683616 a 1.2333269,1.2333269 0 0 1 1.233328,1.233328 1.2333269,1.2333269 0 0 1 -1.233328,1.233329 1.2333269,1.2333269 0 0 1 -1.2333289,-1.233329 1.2333269,1.2333269 0 0 1 1.2333289,-1.233328 z" />
      <path
         id="path4106"
         style="fill:#00ff00;fill-opacity:1;stroke:none;stroke-width:0.0943746;stroke-dasharray:none;stroke-opacity:1"
         d="m 18.651382,32.583551 -1.655837,0.965903 0.0086,1.916945 1.66442,0.951041 1.655836,-0.965903 -0.0086,-1.916945 z m 0.0086,0.683616 a 1.2333269,1.2333269 0 0 1 1.233328,1.233328 1.2333269,1.2333269 0 0 1 -1.233328,1.233329 1.2333269,1.2333269 0 0 1 -1.233328,-1.233329 1.2333269,1.2333269 0 0 1 1.233328,-1.233328 z" />
      <path
         id="path4108"
         style="fill:#00ff00;fill-opacity:1;stroke:none;stroke-width:0.0943746;stroke-dasharray:none;stroke-opacity:1"
         d="m 26.116181,32.583551 -1.655837,0.965903 0.0086,1.916945 1.66442,0.951041 1.655836,-0.965903 -0.0086,-1.916945 z m 0.0086,0.683616 a 1.2333269,1.2333269 0 0 1 1.233327,1.233328 1.2333269,1.2333269 0 0 1 -1.233328,1.233329 1.2333269,1.2333269 0 0 1 -1.233328,-1.233329 1.2333269,1.2333269 0 0 1 1.233328,-1.233328 z" />
      <path
         id="path4110"
         style="fill:#00ff00;fill-opacity:1;stroke:none;stroke-width:0.0943746;stroke-dasharray:none;stroke-opacity:1"
         d="m 22.383781,32.583551 -1.655836,0.965903 0.0086,1.916945 1.664419,0.951041 1.655836,-0.965903 -0.0086,-1.916945 z m 0.0086,0.683616 a 1.2333269,1.2333269 0 0 1 1.233328,1.233328 1.2333269,1.2333269 0 0 1 -1.233328,1.233329 1.2333269,1.2333269 0 0 1 -1.233329,-1.233329 1.2333269,1.2333269 0 0 1 1.233329,-1.233328 z" />
      <path
         id="path4112"
         style="fill:#00ff00;fill-opacity:1;stroke:none;stroke-width:0.0943746;stroke-dasharray:none;stroke-opacity:1"
         d="m 29.848581,32.583551 -1.655837,0.965903 0.0086,1.916945 1.66442,0.951041 1.655836,-0.965903 -0.0086,-1.916945 z m 0.0086,0.683616 a 1.2333269,1.2333269 0 0 1 1.233328,1.233328 1.2333269,1.2333269 0 0 1 -1.233328,1.233329 1.2333269,1.2333269 0 0 1 -1.233328,-1.233329 1.2333269,1.2333269 0 0 1 1.233328,-1.233328 z" />
      <path
         id="path4114"
         style="fill:#00ff00;fill-opacity:1;stroke:none;stroke-width:0.0943746;stroke-dasharray:none;stroke-opacity:1"
         d="m 37.313379,32.583551 -1.655837,0.965903 0.0086,1.916945 1.66442,0.951041 1.655836,-0.965903 -0.0086,-1.916945 z m 0.0086,0.683616 a 1.2333269,1.2333269 0 0 1 1.233327,1.233328 1.2333269,1.2333269 0 0 1 -1.233328,1.233329 1.2333269,1.2333269 0 0 1 -1.233328,-1.233329 1.2333269,1.2333269 0 0 1 1.233329,-1.233328 z" />
      <path
         id="path4116"
         style="fill:#00ff00;fill-opacity:1;stroke:none;stroke-width:0.0943746;stroke-dasharray:none;stroke-opacity:1"
         d="m 33.580979,32.583551 -1.655836,0.965903 0.0086,1.916945 1.664419,0.951041 1.655836,-0.965903 -0.0086,-1.916945 z m 0.0086,0.683616 a 1.2333269,1.2333269 0 0 1 1.233328,1.233328 1.2333269,1.2333269 0 0 1 -1.233328,1.233329 1.2333269,1.2333269 0 0 1 -1.233329,-1.233329 1.2333269,1.2333269 0 0 1 1.233329,-1.233328 z" />
      <path
         id="path4118"
         style="fill:#00ff00;fill-opacity:1;stroke:none;stroke-width:0.0943746;stroke-dasharray:none;stroke-opacity:1"
         d="m 41.045779,32.583551 -1.655837,0.965903 0.0086,1.916945 1.66442,0.951041 1.655836,-0.965903 -0.0086,-1.916945 z m 0.0086,0.683616 a 1.2333269,1.2333269 0 0 1 1.233328,1.233328 1.2333269,1.2333269 0 0 1 -1.233328,1.233329 1.2333269,1.2333269 0 0 1 -1.233328,-1.233329 1.2333269,1.2333269 0 0 1 1.233328,-1.233328 z" />
      <path
         id="path4120"
         style="fill:#00ff00;fill-opacity:1;stroke:none;stroke-width:0.0943746;stroke-dasharray:none;stroke-opacity:1"
         d="m 48.510578,32.583551 -1.655837,0.965903 0.0086,1.916945 1.66442,0.951041 1.655836,-0.965903 -0.0086,-1.916945 z m 0.0086,0.683616 a 1.2333269,1.2333269 0 0 1 1.233327,1.233328 1.2333269,1.2333269 0 0 1 -1.233328,1.233329 1.2333269,1.2333269 0 0 1 -1.233328,-1.233329 1.2333269,1.2333269 0 0 1 1.233329,-1.233328 z" />
      <path
         id="path4122"
         style="fill:#00ff00;fill-opacity:1;stroke:none;stroke-width:0.0943746;stroke-dasharray:none;stroke-opacity:1"
         d="m 44.778178,32.583551 -1.655836,0.965903 0.0086,1.916945 1.664419,0.951041 1.655836,-0.965903 -0.0086,-1.916945 z m 0.0086,0.683616 a 1.2333269,1.2333269 0 0 1 1.233328,1.233328 1.2333269,1.2333269 0 0 1 -1.233328,1.233329 1.2333269,1.2333269 0 0 1 -1.233329,-1.233329 1.2333269,1.2333269 0 0 1 1.233329,-1.233328 z" />
      <path
         id="path4124"
         style="fill:#00ff00;fill-opacity:1;stroke:none;stroke-width:0.0943746;stroke-dasharray:none;stroke-opacity:1"
         d="m 52.242978,32.583551 -1.655837,0.965903 0.0086,1.916945 1.66442,0.951041 1.655836,-0.965903 -0.0086,-1.916945 z m 0.0086,0.683616 a 1.2333269,1.2333269 0 0 1 1.233328,1.233328 1.2333269,1.2333269 0 0 1 -1.233328,1.233329 1.2333269,1.2333269 0 0 1 -1.233328,-1.233329 1.2333269,1.2333269 0 0 1 1.233328,-1.233328 z" />
      <path
         id="path4128"
         style="fill:#00ff00;fill-opacity:1;stroke:none;stroke-width:0.0943746;stroke-dasharray:none;stroke-opacity:1"
         d="m 55.975377,32.583551 -1.655836,0.965903 0.0086,1.916945 1.664419,0.951041 1.655836,-0.965903 -0.0086,-1.916945 z m 0.0086,0.683616 a 1.2333269,1.2333269 0 0 1 1.233328,1.233328 1.2333269,1.2333269 0 0 1 -1.233328,1.233329 1.2333269,1.2333269 0 0 1 -1.233329,-1.233329 1.2333269,1.2333269 0 0 1 1.233329,-1.233328 z" />
    </g>
  </g>
</svg>
