<?xml version="1.0" encoding="UTF-8" standalone="no"?>
<!-- Created with Inkscape (http://www.inkscape.org/) -->

<svg
   width="14in"
   height="8.5in"
   viewBox="0 0 56 34"
   version="1.1"
   id="svg5"
   inkscape:version="1.2.2 (b0a8486541, 2022-12-01)"
   sodipodi:docname="Pattern_Bar_parallel_vert.svg"
   xmlns:inkscape="http://www.inkscape.org/namespaces/inkscape"
   xmlns:sodipodi="http://sodipodi.sourceforge.net/DTD/sodipodi-0.dtd"
   xmlns="http://www.w3.org/2000/svg"
   xmlns:svg="http://www.w3.org/2000/svg">
  <sodipodi:namedview
     id="namedview7"
     pagecolor="#ffffff"
     bordercolor="#000000"
     borderopacity="0.25"
     inkscape:showpageshadow="2"
     inkscape:pageopacity="0.0"
     inkscape:pagecheckerboard="0"
     inkscape:deskcolor="#d1d1d1"
     inkscape:document-units="mm"
     showgrid="true"
     inkscape:zoom="1.4142136"
     inkscape:cx="793.02023"
     inkscape:cy="327.03688"
     inkscape:window-width="3800"
     inkscape:window-height="2120"
     inkscape:window-x="3840"
     inkscape:window-y="0"
     inkscape:window-maximized="1"
     inkscape:current-layer="layer1">
    <inkscape:grid
       type="xygrid"
       id="grid182"
       units="in"
       spacingx="1"
       spacingy="1"
       empspacing="4"
       dotted="true" />
  </sodipodi:namedview>
  <defs
     id="defs2">
    <inkscape:path-effect
       effect="fill_between_many"
       method="originald"
       linkedpaths="#path1814,0,1"
       id="path-effect563" />
  </defs>
  <g
     inkscape:label="Layer 1"
     inkscape:groupmode="layer"
     id="layer1">
    <path
       id="path2922"
       style="fill:none;fill-opacity:1;stroke:#00ff00;stroke-width:0.490285;stroke-dasharray:none;stroke-opacity:1"
       d="M 0.1233724 0.28483073 L 0.1233724 34.039632 L 0.13077799 0.28483073 L 0.1233724 0.28483073 z M 1.1549479 0.28483073 L 1.1549479 34.039632 L 1.1622721 0.28483073 L 1.1549479 0.28483073 z M 2.1864421 0.28483073 L 2.1864421 34.039632 L 2.1938477 0.28483073 L 2.1864421 0.28483073 z M 3.2180176 0.28483073 L 3.2180176 34.039632 L 3.2254232 0.28483073 L 3.2180176 0.28483073 z M 4.2495117 0.28483073 L 4.2495117 34.039632 L 4.2569173 0.28483073 L 4.2495117 0.28483073 z M 5.2810872 0.28483073 L 5.2810872 34.039632 L 5.2884928 0.28483073 L 5.2810872 0.28483073 z M 6.3126628 0.28483073 L 6.3126628 34.039632 L 6.3200684 0.28483073 L 6.3126628 0.28483073 z M 7.3441569 0.28483073 L 7.3441569 34.039632 L 7.3514811 0.28483073 L 7.3441569 0.28483073 z M 8.3757324 0.28483073 L 8.3757324 34.039632 L 8.383138 0.28483073 L 8.3757324 0.28483073 z M 9.4072266 0.28483073 L 9.4072266 34.039632 L 9.4146322 0.28483073 L 9.4072266 0.28483073 z M 10.438802 0.28483073 L 10.438802 34.039632 L 10.446208 0.28483073 L 10.438802 0.28483073 z M 11.470296 0.28483073 L 11.470296 34.039632 L 11.47762 0.28483073 L 11.470296 0.28483073 z M 12.501872 0.28483073 L 12.501872 34.039632 L 12.509277 0.28483073 L 12.501872 0.28483073 z M 13.533366 0.28483073 L 13.533366 34.039632 L 13.540771 0.28483073 L 13.533366 0.28483073 z M 14.564941 0.28483073 L 14.564941 34.039632 L 14.572347 0.28483073 L 14.564941 0.28483073 z M 15.596517 0.28483073 L 15.596517 34.039632 L 15.60376 0.28483073 L 15.596517 0.28483073 z M 16.628011 0.28483073 L 16.628011 34.039632 L 16.635417 0.28483073 L 16.628011 0.28483073 z M 17.659587 0.28483073 L 17.659587 34.039632 L 17.666992 0.28483073 L 17.659587 0.28483073 z M 18.691081 0.28483073 L 18.691081 34.039632 L 18.698486 0.28483073 L 18.691081 0.28483073 z M 19.722656 0.28483073 L 19.722656 34.039632 L 19.729899 0.28483073 L 19.722656 0.28483073 z M 20.75415 0.28483073 L 20.75415 34.039632 L 20.761556 0.28483073 L 20.75415 0.28483073 z M 21.785726 0.28483073 L 21.785726 34.039632 L 21.79305 0.28483073 L 21.785726 0.28483073 z M 22.81722 0.28483073 L 22.81722 34.039632 L 22.824544 0.28483073 L 22.81722 0.28483073 z M 23.848796 0.28483073 L 23.848796 34.039632 L 23.85612 0.28483073 L 23.848796 0.28483073 z M 24.880371 0.28483073 L 24.880371 34.039632 L 24.887614 0.28483073 L 24.880371 0.28483073 z M 25.911865 0.28483073 L 25.911865 34.039632 L 25.919271 0.28483073 L 25.911865 0.28483073 z M 26.943441 0.28483073 L 26.943441 34.039632 L 26.950846 0.28483073 L 26.943441 0.28483073 z M 27.974935 0.28483073 L 27.974935 34.039632 L 27.982259 0.28483073 L 27.974935 0.28483073 z M 29.00651 0.28483073 L 29.00651 34.039632 L 29.013916 0.28483073 L 29.00651 0.28483073 z M 30.038005 0.28483073 L 30.038005 34.039632 L 30.04541 0.28483073 L 30.038005 0.28483073 z M 31.06958 0.28483073 L 31.06958 34.039632 L 31.076986 0.28483073 L 31.06958 0.28483073 z M 32.101074 0.28483073 L 32.101074 34.039632 L 32.108398 0.28483073 L 32.101074 0.28483073 z M 33.13265 0.28483073 L 33.13265 34.039632 L 33.140055 0.28483073 L 33.13265 0.28483073 z M 34.164225 0.3137207 L 34.164225 34.068604 L 34.171549 0.3137207 L 34.164225 0.3137207 z M 35.195719 0.3137207 L 35.195719 34.068604 L 35.203125 0.3137207 L 35.195719 0.3137207 z M 36.227295 0.3137207 L 36.227295 34.068604 L 36.234701 0.3137207 L 36.227295 0.3137207 z M 37.258789 0.3137207 L 37.258789 34.068604 L 37.266195 0.3137207 L 37.258789 0.3137207 z M 38.290365 0.3137207 L 38.290365 34.068604 L 38.29777 0.3137207 L 38.290365 0.3137207 z M 39.321859 0.3137207 L 39.321859 34.068604 L 39.329264 0.3137207 L 39.321859 0.3137207 z M 40.353434 0.3137207 L 40.353434 34.068604 L 40.36084 0.3137207 L 40.353434 0.3137207 z M 41.384928 0.3137207 L 41.384928 34.068604 L 41.392253 0.3137207 L 41.384928 0.3137207 z M 42.416504 0.3137207 L 42.416504 34.068604 L 42.42391 0.3137207 L 42.416504 0.3137207 z M 43.447998 0.3137207 L 43.447998 34.068604 L 43.455404 0.3137207 L 43.447998 0.3137207 z M 44.479574 0.3137207 L 44.479574 34.068604 L 44.486979 0.3137207 L 44.479574 0.3137207 z M 45.511149 0.3137207 L 45.511149 34.068604 L 45.518392 0.3137207 L 45.511149 0.3137207 z M 46.542643 0.3137207 L 46.542643 34.068604 L 46.550049 0.3137207 L 46.542643 0.3137207 z M 47.574219 0.3137207 L 47.574219 34.068604 L 47.581624 0.3137207 L 47.574219 0.3137207 z M 48.605713 0.3137207 L 48.605713 34.068604 L 48.613118 0.3137207 L 48.605713 0.3137207 z M 49.637288 0.3137207 L 49.637288 34.068604 L 49.644613 0.3137207 L 49.637288 0.3137207 z M 50.668783 0.3137207 L 50.668783 34.068604 L 50.676188 0.3137207 L 50.668783 0.3137207 z M 51.700358 0.3137207 L 51.700358 34.068604 L 51.707764 0.3137207 L 51.700358 0.3137207 z M 52.731852 0.3137207 L 52.731852 34.068604 L 52.739258 0.3137207 L 52.731852 0.3137207 z M 53.763428 0.3137207 L 53.763428 34.068604 L 53.770752 0.3137207 L 53.763428 0.3137207 z M 54.795003 0.3137207 L 54.795003 34.068604 L 54.802409 0.3137207 L 54.795003 0.3137207 z M 55.826497 0.3137207 L 55.826497 34.068604 L 55.833822 0.3137207 L 55.826497 0.3137207 z " />
  </g>
</svg>
