<?xml version="1.0" encoding="UTF-8" standalone="no"?>
<!-- Created with Inkscape (http://www.inkscape.org/) -->

<svg
   width="14in"
   height="8.5in"
   viewBox="0 0 56 34"
   version="1.1"
   id="svg5"
   inkscape:version="1.2.2 (b0a8486541, 2022-12-01)"
   sodipodi:docname="Target_Arc.svg"
   xmlns:inkscape="http://www.inkscape.org/namespaces/inkscape"
   xmlns:sodipodi="http://sodipodi.sourceforge.net/DTD/sodipodi-0.dtd"
   xmlns="http://www.w3.org/2000/svg"
   xmlns:svg="http://www.w3.org/2000/svg">
  <sodipodi:namedview
     id="namedview7"
     pagecolor="#ffffff"
     bordercolor="#000000"
     borderopacity="0.25"
     inkscape:showpageshadow="2"
     inkscape:pageopacity="0.0"
     inkscape:pagecheckerboard="0"
     inkscape:deskcolor="#d1d1d1"
     inkscape:document-units="mm"
     showgrid="true"
     inkscape:zoom="2"
     inkscape:cx="758.25"
     inkscape:cy="436.75"
     inkscape:window-width="3800"
     inkscape:window-height="2120"
     inkscape:window-x="3840"
     inkscape:window-y="0"
     inkscape:window-maximized="1"
     inkscape:current-layer="layer1">
    <inkscape:grid
       type="xygrid"
       id="grid182"
       units="in"
       spacingx="1"
       spacingy="1"
       empspacing="4"
       dotted="true" />
  </sodipodi:namedview>
  <defs
     id="defs2">
    <inkscape:path-effect
       effect="fill_between_many"
       method="originald"
       linkedpaths="#path1814,0,1"
       id="path-effect563" />
  </defs>
  <g
     inkscape:label="Layer 1"
     inkscape:groupmode="layer"
     id="layer1">
    <g
       id="g19965"
       transform="translate(-0.7117513,-1.8226267)">
      <path
         id="circle4151"
         style="color:#000000;fill:#00ff00;-inkscape-stroke:none"
         d="m -34.552734,-23.529297 c 0.554066,0 1.073512,-0.150552 1.519694,-0.41276 -0.08086,-0.121784 -0.160401,-0.236862 -0.237712,-0.340983 -0.377832,0.214952 -0.815284,0.337728 -1.281982,0.337728 -0.347405,0 -0.678648,-0.06799 -0.98112,-0.191407 -0.07413,0.110597 -0.149892,0.230091 -0.2264,0.354574 0.369864,0.162547 0.778356,0.252848 1.20752,0.252848 z m -1.829427,-0.621012 c 0.09021,-0.111045 0.176727,-0.220104 0.256347,-0.325277 -0.251596,-0.192101 -0.466789,-0.42937 -0.633707,-0.699707 -0.12555,0.04911 -0.25611,0.103121 -0.388917,0.159424 0.197661,0.335529 0.458625,0.629505 0.766277,0.86556 z m 3.907389,-0.213867 c 0.248111,-0.237356 0.455734,-0.516632 0.611409,-0.826416 -0.137475,-0.05156 -0.270284,-0.09873 -0.394775,-0.138265 -0.125183,0.237732 -0.286325,0.453444 -0.476074,0.640136 0.0778,0.103575 0.165547,0.21247 0.25944,0.324545 z m -4.969238,-1.336263 c 0.138006,-0.03558 0.273499,-0.07157 0.402832,-0.108318 -0.06726,-0.230979 -0.103353,-0.47535 -0.103353,-0.728352 0,-0.728269 0.298778,-1.38536 0.78068,-1.855713 -0.08736,-0.103291 -0.178969,-0.208741 -0.271728,-0.314535 -0.570916,0.548158 -0.926921,1.318589 -0.926921,2.170248 0,0.290239 0.04138,0.570978 0.11849,0.83667 z m 5.820719,-0.152832 c 0.05124,-0.219736 0.07837,-0.448681 0.07837,-0.683838 0,-0.791003 -0.306601,-1.511945 -0.807292,-2.049805 -0.09156,0.111448 -0.180043,0.22124 -0.262125,0.327474 0.406669,0.45753 0.653402,1.060525 0.653401,1.722331 0,0.198042 -0.02219,0.390815 -0.06405,0.576009 0.125109,0.03721 0.260367,0.07299 0.401693,0.107829 z m -1.515788,-2.857748 c 0.07189,-0.112606 0.144801,-0.231601 0.218099,-0.353353 -0.337035,-0.218663 -0.720313,-0.371749 -1.131754,-0.440918 -0.0091,0.142834 -0.01745,0.284111 -0.02319,0.420004 0.340485,0.06305 0.657377,0.192418 0.936849,0.374267 z m -2.654297,-0.103271 c 0.306047,-0.166761 0.649699,-0.273587 1.015218,-0.304932 -0.0096,-0.135226 -0.02165,-0.275118 -0.03451,-0.416423 -0.434469,0.03738 -0.843021,0.167456 -1.205485,0.370443 0.07528,0.119396 0.150519,0.237541 0.224772,0.350912 z"
         transform="scale(-1)"
         sodipodi:nodetypes="sccsccsccccccccccccsccsccsccscccccccccccc" />
      <path
         id="circle4153"
         style="color:#000000;fill:#00ff00;-inkscape-stroke:none"
         d="m -34.552734,-22.730469 c 0.294645,0 0.58154,-0.03359 0.857096,-0.09709 -0.03399,-0.135117 -0.06828,-0.270439 -0.103027,-0.402751 -0.242439,0.05485 -0.4948,0.08382 -0.754069,0.08382 -0.141517,0 -0.280952,-0.0086 -0.417888,-0.02539 -0.02764,0.119784 -0.05489,0.241634 -0.08211,0.363281 -0.0033,0.01474 -0.0066,0.02938 -0.0099,0.04411 0.166839,0.02238 0.337033,0.03402 0.509929,0.03402 z m -1.298584,-0.227539 c 0.01164,-0.029 0.02324,-0.05793 0.03491,-0.087 0.04007,-0.09979 0.08008,-0.199672 0.119222,-0.298747 -1.071,-0.382521 -1.892115,-1.287104 -2.157145,-2.408773 -0.14054,0.01327 -0.280574,0.02657 -0.417481,0.03825 0.282448,1.278224 1.208765,2.316193 2.420492,2.756266 z m 2.909505,-0.129476 c 1.092405,-0.511204 1.903199,-1.525813 2.132161,-2.744222 -0.05932,-0.0039 -0.118884,-0.0081 -0.178548,-0.01213 -0.08057,-0.0055 -0.161099,-0.01076 -0.241292,-0.01595 -0.214306,1.06123 -0.922642,1.941204 -1.87557,2.390625 0.05294,0.125942 0.10803,0.253985 0.163249,0.381673 z m -5.003337,-3.471679 c 0.0032,-0.500294 0.114244,-0.974672 0.311198,-1.401042 -0.121872,-0.07234 -0.241886,-0.144245 -0.356771,-0.215658 -0.231023,0.482966 -0.363212,1.021965 -0.37028,1.590658 0.135869,0.0073 0.275382,0.01654 0.415853,0.02604 z m 6.781739,-0.06982 c 0.05509,-0.0051 0.11031,-0.01043 0.165446,-0.01563 0.0843,-0.008 0.168128,-0.0157 0.251546,-0.02327 -0.01776,-0.524272 -0.141852,-1.021975 -0.3514,-1.472087 -0.109851,0.07033 -0.222494,0.141173 -0.335693,0.21224 -0.0065,0.0041 -0.01296,0.0081 -0.01945,0.01221 0.175234,0.394712 0.277445,0.829225 0.289551,1.286539 z m -0.703451,-1.980875 c 0.105102,-0.09263 0.209681,-0.184698 0.312744,-0.273356 -0.697648,-0.889882 -1.782211,-1.462484 -2.998616,-1.462484 -0.263786,0 -0.521393,0.02696 -0.770183,0.07821 0.03692,0.129323 0.07271,0.264489 0.108073,0.402263 0.214109,-0.04225 0.435485,-0.06445 0.66211,-0.06445 1.094625,0 2.066362,0.516729 2.685872,1.319825 z m -5.323649,-0.06242 c 0.314999,-0.388848 0.714294,-0.706467 1.170329,-0.925211 -0.05567,-0.130425 -0.10951,-0.258943 -0.158773,-0.383545 -0.51906,0.245959 -0.973885,0.605878 -1.332113,1.047281 0.10489,0.0831 0.212179,0.171396 0.320557,0.261475 z"
         transform="scale(-1)"
         sodipodi:nodetypes="sccscscscsccccccscccccccccsccsccccsccscccccc" />
      <path
         id="circle4160"
         style="color:#000000;fill:#00ff00;-inkscape-stroke:none"
         d="m -34.812581,-21.937012 c 0.0034,-0.133361 0.01032,-0.272781 0.01888,-0.415527 -0.543949,-0.03073 -1.059938,-0.164854 -1.528646,-0.383057 -0.07533,0.123293 -0.150255,0.242009 -0.224447,0.352621 0.529952,0.254987 1.115971,0.411507 1.734213,0.445963 z m 0.909505,-0.03825 c 1.524677,-0.215614 2.810487,-1.178948 3.474121,-2.506429 -0.126063,-0.04326 -0.257261,-0.09217 -0.391439,-0.144206 -0.604326,1.179494 -1.751187,2.033645 -3.112793,2.234782 0.01232,0.142595 0.02295,0.282095 0.03011,0.415853 z m -3.429525,-0.888021 c 0.07749,-0.106173 0.162951,-0.215878 0.253174,-0.3278 -1.011707,-0.764681 -1.664714,-1.978059 -1.664714,-3.346028 0,-0.174139 0.01061,-0.34578 0.03117,-0.514323 -0.124867,-0.03554 -0.242014,-0.07295 -0.348145,-0.113282 -0.01886,-0.0072 -0.03726,-0.01441 -0.05542,-0.02173 -0.03001,0.212186 -0.04557,0.428961 -0.04557,0.649333 0,1.499208 0.718572,2.832187 1.829508,3.673828 z m 7.230225,-2.477946 c 0.102409,-0.381431 0.157063,-0.782343 0.157064,-1.195882 -10e-7,-0.228948 -0.01683,-0.454004 -0.04915,-0.674073 -0.125185,0.04322 -0.260805,0.08413 -0.402588,0.123861 0.02353,0.180046 0.03573,0.363698 0.03573,0.550212 0,0.377416 -0.04976,0.743027 -0.142985,1.090739 0.139828,0.03372 0.274899,0.06849 0.401937,0.105143 z m -8.398845,-2.607259 c 0.216249,-0.606463 0.567882,-1.148275 1.018799,-1.58903 -0.04416,-0.05963 -0.08526,-0.11807 -0.122477,-0.174968 -0.04018,-0.06142 -0.0759,-0.120916 -0.106364,-0.179443 -0.532974,0.502051 -0.946658,1.129424 -1.193522,1.834635 0.03683,0.0073 0.0745,0.01581 0.1132,0.02523 0.09196,0.02239 0.18923,0.05083 0.290364,0.08358 z m 7.890463,-0.01815 c 0.13583,-0.05346 0.266951,-0.10152 0.390543,-0.140625 -0.58694,-1.61767 -2.054275,-2.815329 -3.821289,-3.010986 0.0097,0.05954 0.01658,0.12234 0.02157,0.188395 0.0056,0.07408 0.0086,0.152505 0.0098,0.234131 1.575579,0.203222 2.875034,1.279712 3.399415,2.729085 z m -6.145101,-2.139486 c 0.538771,-0.33332 1.158904,-0.547931 1.824137,-0.607422 -4.1e-4,-0.07047 7.3e-4,-0.138516 0.0039,-0.203287 0.0037,-0.07641 0.0096,-0.148372 0.01953,-0.216146 -0.777018,0.05948 -1.500601,0.312304 -2.122639,0.710286 0.05203,0.04946 0.103174,0.105542 0.15511,0.166748 0.03971,0.04679 0.07973,0.09695 0.119955,0.149821 z"
         transform="scale(-1)"
         sodipodi:nodetypes="ccccccccccccscscsccsccsccccsccsccccsccccsccsc" />
    </g>
    <g
       id="g19865"
       transform="translate(3.241394,-0.58585866)">
      <path
         id="circle4170"
         style="color:#000000;fill:#00ff00;-inkscape-stroke:none"
         d="m 20.902443,23.281294 c -0.216695,-0.07041 -0.435692,-0.113857 -0.653448,-0.132312 -0.0065,0.06969 -0.01275,0.139111 -0.0186,0.207877 0.202327,0.01726 0.40591,0.0577 0.607467,0.123191 0.226871,0.07371 0.437293,0.174628 0.628842,0.297849 0.03731,-0.05799 0.0747,-0.116767 0.11208,-0.175877 -0.206059,-0.132766 -0.432364,-0.241455 -0.676342,-0.320728 z m -1.059262,-0.137956 c -0.478085,0.02701 -0.938614,0.172437 -1.341595,0.416007 0.03551,0.05984 0.07103,0.119373 0.106507,0.178103 0.374513,-0.226712 0.802781,-0.361769 1.247732,-0.386263 -0.0039,-0.06875 -0.0081,-0.138159 -0.01264,-0.207847 z m 2.060456,0.701914 c -0.04609,0.05243 -0.09184,0.104813 -0.136879,0.156866 0.336986,0.290558 0.59444,0.658652 0.753271,1.06732 0.06367,-0.02475 0.127916,-0.05002 0.192287,-0.07563 -0.170782,-0.439499 -0.447136,-0.83572 -0.808679,-1.148557 z m -3.733758,-0.05244 c -0.359598,0.29245 -0.652804,0.673667 -0.841943,1.124365 0.06435,0.02774 0.12849,0.05519 0.192145,0.08203 0.175701,-0.419664 0.44791,-0.774309 0.781853,-1.046084 -0.04344,-0.05319 -0.08757,-0.106708 -0.132055,-0.160308 z m 4.662732,1.588431 c -0.0676,0.01521 -0.134871,0.03053 -0.201416,0.04605 0.09879,0.418555 0.09843,0.865599 -0.01878,1.306601 0.06618,0.01743 0.133155,0.0347 0.200408,0.05185 0.125585,-0.473623 0.125863,-0.954222 0.01978,-1.404508 z m -5.43324,-0.02765 c -0.06678,-0.0176 -0.134347,-0.03505 -0.202215,-0.05236 -0.125571,0.473608 -0.12586,0.954236 -0.01978,1.404506 0.06789,-0.01528 0.135446,-0.0307 0.202264,-0.04629 -0.09817,-0.418409 -0.09742,-0.865227 0.01973,-1.305861 z m 5.092339,1.734949 c -0.175823,0.419747 -0.44845,0.774501 -0.782828,1.046452 0.04315,0.05282 0.08705,0.105964 0.131224,0.159181 0.359605,-0.292451 0.6528,-0.673659 0.841943,-1.124364 -0.06372,-0.02746 -0.127295,-0.05468 -0.190339,-0.08127 z m -5.001345,-0.0712 c -0.06382,0.02481 -0.128172,0.05017 -0.192697,0.07584 0.170774,0.439467 0.447095,0.835709 0.808601,1.148533 0.04577,-0.05206 0.09126,-0.104009 0.135989,-0.155702 -0.336687,-0.290906 -0.593596,-0.659595 -0.751893,-1.068669 z m 3.912257,1.333377 c -0.374814,0.226845 -0.803362,0.362035 -1.248476,0.386707 0.0039,0.0682 0.0082,0.137098 0.01266,0.206225 0.478075,-0.02701 0.938545,-0.172468 1.341518,-0.416031 -0.03527,-0.05944 -0.07046,-0.118555 -0.105699,-0.176901 z m -2.86031,-0.04023 c -0.03701,0.05753 -0.07412,0.115824 -0.111191,0.174455 0.206069,0.132775 0.432378,0.241373 0.676368,0.32065 0.216694,0.07041 0.435746,0.11396 0.653501,0.132415 0.0064,-0.06908 0.01262,-0.137883 0.01843,-0.206049 -0.202522,-0.0172 -0.406291,-0.05774 -0.607958,-0.123264 -0.22708,-0.07378 -0.437567,-0.174777 -0.629153,-0.298207 z" />
      <path
         id="circle4172"
         style="color:#000000;fill:#00ff00;-inkscape-stroke:none"
         d="m 20.003988,22.339355 c -0.289083,0 -0.570441,0.03323 -0.840495,0.09595 0.01655,0.06604 0.03285,0.133788 0.04899,0.202799 0.254305,-0.05871 0.519242,-0.08976 0.791504,-0.08976 0.307502,0 0.605686,0.03967 0.889729,0.114014 0.0181,-0.06856 0.03634,-0.135762 0.05477,-0.201335 -0.301595,-0.07935 -0.618144,-0.121663 -0.944498,-0.121664 z m -1.341634,0.250814 c -0.567152,0.220694 -1.066676,0.577118 -1.458415,1.029379 0.05176,0.04332 0.10424,0.08811 0.157389,0.134033 0.36938,-0.425711 0.840177,-0.761018 1.374919,-0.96875 -0.0256,-0.06598 -0.0503,-0.130898 -0.07389,-0.194662 z m 2.78247,0.04004 c -0.02538,0.06305 -0.05189,0.12734 -0.07935,0.192546 0.5274,0.222739 0.988527,0.571085 1.345947,1.00765 0.05465,-0.04459 0.108605,-0.08803 0.161784,-0.130046 -0.379367,-0.463553 -0.868866,-0.833633 -1.428386,-1.07015 z m -4.55542,1.408936 c -0.319098,0.49493 -0.523399,1.070753 -0.575358,1.689779 0.06743,0.0046 0.136291,0.0099 0.20638,0.01587 0.04915,-0.583676 0.24149,-1.126178 0.54183,-1.592448 -0.05902,-0.03804 -0.116715,-0.07577 -0.172852,-0.1132 z m 6.286459,0.08944 c -0.05747,0.03601 -0.116603,0.07227 -0.177002,0.108805 0.286101,0.473498 0.46292,1.020586 0.495687,1.606527 0.07086,-0.004 0.140537,-0.0074 0.208658,-0.01017 -0.03462,-0.621646 -0.22283,-1.202431 -0.527343,-1.705159 z m -6.662273,2.114583 c -0.07022,0.0039 -0.139185,0.0074 -0.206705,0.01009 0.0349,0.621476 0.223122,1.202315 0.527506,1.705078 0.05715,-0.0358 0.115899,-0.07191 0.175944,-0.108235 -0.286442,-0.473656 -0.463639,-1.02094 -0.496745,-1.606934 z m 6.973796,0.0988 c -0.04939,0.583113 -0.24159,1.125284 -0.541667,1.59139 0.05933,0.03822 0.117402,0.07615 0.173829,0.113769 0.319292,-0.49484 0.523863,-1.07042 0.576171,-1.689046 -0.06804,-0.0047 -0.137591,-0.01013 -0.208333,-0.01611 z m -6.189372,1.91512 c -0.05442,0.04439 -0.108176,0.08764 -0.161132,0.129476 0.379275,0.463769 0.868662,0.834016 1.428141,1.070557 0.02538,-0.06303 0.0519,-0.127275 0.07935,-0.192465 -0.527465,-0.222651 -0.988724,-0.570998 -1.346354,-1.007568 z m 5.348959,0.07487 c -0.369065,0.425752 -0.839384,0.761272 -1.373617,0.96932 0.0256,0.06598 0.05038,0.130979 0.07398,0.194742 0.566742,-0.220925 1.065971,-0.577415 1.457682,-1.029541 -0.05195,-0.0435 -0.10469,-0.08841 -0.15804,-0.134521 z m -3.530762,1.093017 c -0.0181,0.06856 -0.03634,0.135763 -0.05477,0.201335 0.300973,0.07913 0.616839,0.121257 0.942546,0.121257 0.289721,-10e-7 0.571779,-0.03338 0.842448,-0.09644 -0.01656,-0.06606 -0.03284,-0.133763 -0.04899,-0.202799 -0.254876,0.05906 -0.520529,0.09025 -0.793457,0.09025 -0.306828,0 -0.604295,-0.03949 -0.887777,-0.113607 z" />
      <path
         id="circle4174"
         style="color:#000000;fill:#00ff00;-inkscape-stroke:none"
         d="m 21.397051,21.759046 c -0.362546,-0.117799 -0.729231,-0.186966 -1.093095,-0.211328 0.01332,0.06202 0.02204,0.132934 0.02698,0.211135 0.333458,0.02575 0.669253,0.09098 1.001537,0.19895 0.372715,0.121102 0.717576,0.288285 1.030304,0.493066 0.05163,-0.05889 0.101789,-0.109695 0.150181,-0.150662 -0.337266,-0.225858 -0.71091,-0.40957 -1.115905,-0.541161 z m -1.563332,-0.218052 c -0.797035,0.03067 -1.565114,0.27391 -2.228025,0.69077 0.04691,0.04223 0.0953,0.09425 0.144904,0.154213 0.612875,-0.377596 1.317875,-0.600297 2.050153,-0.635015 0.0072,-0.07789 0.01792,-0.148445 0.03297,-0.209968 z m 3.055674,1.041194 c -0.02562,0.05784 -0.06022,0.120103 -0.102044,0.18607 0.557922,0.473831 0.981358,1.080362 1.237038,1.754515 0.0756,-0.01711 0.145384,-0.02866 0.208101,-0.03344 -0.271031,-0.73588 -0.731762,-1.397026 -1.343095,-1.907145 z m -5.668906,-0.07923 c -0.60538,0.475233 -1.09504,1.109784 -1.397131,1.867083 0.06314,0.0066 0.133266,0.02044 0.209146,0.03997 0.283784,-0.69299 0.732331,-1.276194 1.284533,-1.718583 -0.03985,-0.06694 -0.07254,-0.130055 -0.09655,-0.188475 z m 7.151555,2.436203 c -0.05444,0.03149 -0.118552,0.06137 -0.190608,0.08995 0.167426,0.686462 0.167356,1.422134 -0.03129,2.146495 0.07135,0.03063 0.134697,0.06229 0.188335,0.09533 0.223442,-0.786372 0.222558,-1.587354 0.03356,-2.331782 z m -8.700537,-0.123105 c -0.223012,0.786137 -0.221816,1.586949 -0.03282,2.331338 0.05472,-0.03158 0.119199,-0.06156 0.191636,-0.09022 -0.166955,-0.686048 -0.166744,-1.421214 0.0314,-2.145002 -0.07212,-0.03089 -0.136109,-0.06278 -0.19022,-0.09612 z m 8.514969,2.900852 c -0.06264,-0.0066 -0.132147,-0.02018 -0.207341,-0.03947 -0.28416,0.692919 -0.733148,1.276184 -1.285975,1.718543 0.03958,0.0665 0.07212,0.129277 0.09605,0.187371 0.605333,-0.475204 1.094975,-1.109585 1.397265,-1.86644 z M 15.987267,27.56382 c -0.07592,0.01724 -0.146,0.0289 -0.208973,0.03375 0.271001,0.735796 0.731413,1.39699 1.342426,1.907098 0.02566,-0.0579 0.06016,-0.12029 0.102042,-0.186327 -0.557416,-0.473866 -0.980226,-1.08041 -1.235495,-1.754526 z m 6.272275,2.137244 c -0.613077,0.377385 -1.31818,0.600081 -2.05036,0.634863 -0.0071,0.07785 -0.01781,0.148335 -0.03284,0.209838 0.796774,-0.03087 1.564633,-0.274273 2.227455,-0.691126 -0.04671,-0.04211 -0.09488,-0.09389 -0.144255,-0.153575 z m -4.612205,-0.06507 c -0.05165,0.05892 -0.101802,0.109753 -0.150206,0.150739 0.337215,0.225924 0.710789,0.409531 1.11575,0.541111 0.362518,0.117789 0.729235,0.187035 1.093095,0.211328 -0.01331,-0.06201 -0.02197,-0.132925 -0.0269,-0.211109 -0.333522,-0.02571 -0.669355,-0.09102 -1.001614,-0.198976 -0.372741,-0.121109 -0.71749,-0.288237 -1.030125,-0.493093 z" />
    </g>
    <g
       id="g19831">
      <path
         id="circle4180"
         style="color:#000000;fill:#00ff00;-inkscape-stroke:none"
         d="m 29.018931,13.314734 c -0.06086,0.0951 -0.120681,0.189739 -0.177947,0.282821 0.440641,0.298584 0.764721,0.710842 0.955436,1.174076 0.104288,-0.032 0.210643,-0.06594 0.317401,-0.100537 -0.21464,-0.536683 -0.586484,-1.014348 -1.09489,-1.35636 z m -0.472832,-0.259646 c -0.549627,-0.24002 -1.141935,-0.300085 -1.70317,-0.200088 0.02418,0.109599 0.04876,0.217965 0.07411,0.32329 0.485648,-0.08282 0.996978,-0.03027 1.474083,0.17354 0.05165,-0.09644 0.103377,-0.196031 0.154973,-0.296742 z m 1.723027,2.138026 c -0.109244,0.02382 -0.217843,0.04799 -0.323829,0.07277 0.09988,0.506313 0.05178,1.04384 -0.162848,1.543779 0.09734,0.05119 0.197024,0.102384 0.297344,0.153441 0.250235,-0.571346 0.305945,-1.188984 0.189333,-1.76999 z M 26.32511,12.996192 c -0.533089,0.198244 -1.012233,0.549589 -1.364076,1.034524 0.09483,0.06061 0.189146,0.120142 0.281856,0.177013 0.307816,-0.417244 0.721358,-0.720897 1.181147,-0.895253 -0.03117,-0.103637 -0.06459,-0.209542 -0.09893,-0.316284 z m 3.206836,4.26884 c -0.313754,0.45857 -0.751105,0.789681 -1.240509,0.974308 0.03259,0.104337 0.06675,0.210232 0.101329,0.316355 0.561991,-0.208027 1.064274,-0.586094 1.421116,-1.111348 -0.09447,-0.06078 -0.188795,-0.121069 -0.281936,-0.179315 z M 24.97982,14.647103 c -0.09578,-0.05126 -0.194599,-0.102506 -0.294556,-0.153711 -0.263811,0.549601 -0.342989,1.147151 -0.257998,1.716721 0.109371,-0.02392 0.217923,-0.04816 0.323739,-0.0731 -0.06913,-0.49441 0.0016,-1.011739 0.228815,-1.489907 z m -0.108019,1.990969 c -0.103828,0.03189 -0.209592,0.06568 -0.315846,0.10012 0.191266,0.558163 0.54852,1.061686 1.04967,1.428826 0.06091,-0.09474 0.121279,-0.189228 0.179459,-0.282511 -0.434239,-0.32324 -0.744828,-0.761314 -0.913283,-1.246435 z m 2.916451,1.736156 c -0.515135,0.08482 -1.058365,0.01735 -1.558628,-0.221601 -0.0511,0.0972 -0.10223,0.196773 -0.153197,0.296921 0.571089,0.274875 1.19412,0.350181 1.783836,0.24901 -0.02365,-0.109107 -0.04754,-0.217782 -0.07201,-0.32433 z" />
      <path
         id="circle4182"
         style="color:#000000;fill:#00ff00;-inkscape-stroke:none"
         d="m 30.736737,14.106149 c -0.09517,0.05114 -0.193766,0.102651 -0.29404,0.154446 0.320835,0.650361 0.417266,1.359131 0.314248,2.033061 0.110185,0.02365 0.218524,0.04751 0.323087,0.07198 0.1193,-0.748868 0.01452,-1.537813 -0.343295,-2.259483 z m -0.316799,-0.527226 c -0.461213,-0.643367 -1.097643,-1.103935 -1.805103,-1.353583 -0.03131,0.10323 -0.06469,0.209078 -0.09887,0.316063 0.6349,0.226354 1.206293,0.639908 1.623881,1.216614 0.09473,-0.06145 0.188401,-0.121659 0.28009,-0.179094 z m 0.513348,3.387515 c -0.102701,-0.0304 -0.208492,-0.06324 -0.315784,-0.09724 -0.221523,0.660398 -0.643935,1.256008 -1.2406,1.687155 0.0615,0.09549 0.121152,0.189605 0.177414,0.281248 0.664761,-0.475125 1.134645,-1.136957 1.378968,-1.87116 z m -2.911288,-4.897803 c -0.737392,-0.132267 -1.517282,-0.04657 -2.23593,0.284969 0.05141,0.09593 0.103246,0.19529 0.155303,0.296175 0.647339,-0.295193 1.34712,-0.37299 2.009756,-0.257283 0.02337,-0.109955 0.04686,-0.218592 0.07087,-0.323861 z m 0.842938,6.794483 c -0.671778,0.328165 -1.405092,0.417656 -2.097574,0.29577 -0.02408,0.110709 -0.04846,0.219076 -0.07358,0.323077 0.76855,0.138579 1.583587,0.04045 2.327484,-0.32561 -0.0517,-0.09414 -0.103875,-0.192529 -0.15633,-0.293234 z m -3.434349,-5.926331 c -0.06175,-0.09519 -0.1223,-0.189345 -0.179979,-0.281459 -0.664869,0.448977 -1.145122,1.080952 -1.412118,1.789002 0.103413,0.03083 0.209706,0.06404 0.317524,0.0983 0.243842,-0.634473 0.677013,-1.200541 1.274574,-1.605848 z m -1.438396,2.173663 c -0.11049,-0.02371 -0.219094,-0.04771 -0.323908,-0.07226 -0.151597,0.756607 -0.07309,1.562099 0.265947,2.30292 0.09492,-0.05195 0.194001,-0.104379 0.29534,-0.157078 -0.301822,-0.66876 -0.372068,-1.392801 -0.237379,-2.073587 z m 2.196982,3.893989 c -0.660165,-0.239482 -1.250438,-0.682022 -1.668818,-1.300145 -0.09598,0.0618 -0.190473,0.121755 -0.282547,0.178257 0.462477,0.686955 1.119912,1.177149 1.855016,1.43922 0.02978,-0.102849 0.06234,-0.209174 0.09635,-0.317329 z" />
      <path
         id="circle4184"
         style="color:#000000;fill:#00ff00;-inkscape-stroke:none"
         d="M -27.575846 -11.21403 C -27.591536 -11.312905 -27.600444 -11.426333 -27.604574 -11.549886 C -28.537471 -11.602586 -29.38898 -11.956451 -30.063477 -12.516032 C -30.155223 -12.431267 -30.242736 -12.358211 -30.3243 -12.302083 C -29.577261 -11.66405 -28.622338 -11.262529 -27.575846 -11.21403 z M -27.009277 -11.222412 C -25.98474 -11.300702 -25.054272 -11.717748 -24.329834 -12.361654 C -24.409811 -12.421851 -24.494787 -12.495927 -24.583333 -12.579753 C -25.23756 -12.011225 -26.068378 -11.640412 -26.983073 -11.559652 C -26.986387 -11.435795 -26.994409 -11.321899 -27.009277 -11.222412 z M -30.719238 -12.682292 C -30.664431 -12.763945 -30.592527 -12.851646 -30.508708 -12.943766 C -31.107157 -13.608666 -31.497596 -14.464627 -31.578206 -15.409912 C -31.706086 -15.41678 -31.820544 -15.43007 -31.916341 -15.45223 C -31.841691 -14.386968 -31.400958 -13.421917 -30.719238 -12.682292 z M -23.92513 -12.769531 C -23.287971 -13.497175 -22.877987 -14.428586 -22.806315 -15.452637 C -22.905403 -15.437802 -23.018449 -15.429505 -23.141276 -15.425781 C -23.215946 -14.510776 -23.581002 -13.678703 -24.144368 -13.021647 C -24.060228 -12.933643 -23.985697 -12.849113 -23.92513 -12.769531 z M -31.923258 -15.97762 C -31.828128 -16.000639 -31.714195 -16.014734 -31.586589 -16.022461 C -31.53142 -16.983846 -31.15644 -17.858911 -30.566162 -18.542725 C -30.650822 -18.638332 -30.720772 -18.728686 -30.770508 -18.81193 C -31.448289 -18.051643 -31.87583 -17.063611 -31.923258 -15.97762 z M -22.801514 -16.021729 C -22.856974 -17.06281 -23.26191 -18.011797 -23.90096 -18.753499 C -23.957337 -18.672189 -24.029811 -18.58509 -24.11377 -18.493815 C -23.552155 -17.823453 -23.194329 -16.976372 -23.135498 -16.047607 C -23.012943 -16.044289 -22.900186 -16.03637 -22.801514 -16.021729 z M -24.544352 -18.937744 C -24.453581 -19.021592 -24.366948 -19.093889 -24.286133 -19.14974 C -25.026068 -19.824559 -25.988407 -20.259519 -27.049642 -20.331217 C -27.027845 -20.23555 -27.014561 -20.121901 -27.007406 -19.995117 C -26.064807 -19.917249 -25.210151 -19.531156 -24.544352 -18.937744 z M -30.135417 -18.974854 C -29.45383 -19.56676 -28.58077 -19.944019 -27.620768 -20.001953 C -27.613945 -20.12834 -27.600863 -20.241543 -27.579102 -20.336589 C -28.662514 -20.285612 -29.64762 -19.856281 -30.405273 -19.177897 C -30.32187 -19.128529 -30.231309 -19.058966 -30.135417 -18.974854 z "
         transform="scale(-1)" />
    </g>
    <g
       id="g21636"
       transform="translate(3.4224548,1.5075785)">
      <path
         id="circle4188"
         style="color:#000000;fill:#00ff00;-inkscape-stroke:none"
         d="m 14.261179,13.379359 c -0.204801,0 -0.402767,0.02943 -0.590007,0.08423 0.0175,0.04816 0.0054,0.127947 -0.0094,0.221191 0.188353,-0.06259 0.389854,-0.09643 0.599365,-0.09643 0.21784,0 0.427,0.03664 0.621745,0.104085 -0.01462,-0.09295 -0.02736,-0.17316 -0.01213,-0.223063 -0.193,-0.05855 -0.39766,-0.09001 -0.609619,-0.09001 z m -1.451335,0.58252 c -0.290263,0.277268 -0.501549,0.636644 -0.596435,1.040446 0.0505,0.01162 0.113124,0.06229 0.185709,0.121012 0.08066,-0.418765 0.298774,-0.78834 0.605713,-1.059814 -0.08722,-0.0336 -0.161688,-0.06292 -0.194987,-0.101644 z m 2.913981,0.01091 c -0.03896,0.03585 -0.113984,0.06404 -0.199463,0.09692 0.307034,0.274218 0.524142,0.647006 0.601807,1.068929 0.07117,-0.05733 0.133272,-0.109545 0.184489,-0.129232 -0.09285,-0.401413 -0.300709,-0.759228 -0.586833,-1.036621 z m 0.397217,1.884928 c -0.08403,0.422075 -0.308006,0.793057 -0.621663,1.06307 0.0838,0.03262 0.160163,0.05979 0.206298,0.09253 0.288738,-0.272996 0.500249,-0.626817 0.598226,-1.025065 -0.05111,-0.02195 -0.112689,-0.07404 -0.182861,-0.130535 z m -3.717122,0.01286 c -0.07152,0.05777 -0.133605,0.108476 -0.184082,0.123128 0.09949,0.399719 0.313358,0.754411 0.604899,1.027181 0.04206,-0.03475 0.118236,-0.06252 0.203613,-0.09546 -0.313277,-0.267656 -0.537945,-0.635697 -0.62443,-1.054849 z m 2.483073,1.403483 c -0.1959,0.06821 -0.406454,0.105306 -0.625814,0.105306 -0.211842,0 -0.41548,-0.03458 -0.605632,-0.09839 0.01392,0.08982 0.02833,0.169776 0.02116,0.224934 0.185605,0.05367 0.381689,0.08244 0.584473,0.08244 0.209459,0 0.411788,-0.03069 0.602783,-0.08781 -0.0057,-0.05643 0.0092,-0.136769 0.02303,-0.226481 z" />
      <path
         id="circle4190"
         style="color:#000000;fill:#00ff00;-inkscape-stroke:none"
         d="m 14.261719,12.580078 c -0.306657,0 -0.602281,0.04769 -0.879883,0.135986 0.02487,0.06123 0.04891,0.126714 0.07275,0.193929 0.254769,-0.0798 0.525872,-0.122883 0.807129,-0.122884 0.04236,0 0.0845,0.001 0.126383,0.0029 0.006,-0.07115 0.0126,-0.140676 0.02108,-0.206299 -0.04885,-0.0024 -0.09801,-0.0037 -0.147461,-0.0037 z m 0.621907,0.06689 c -0.0091,0.06548 -0.02097,0.134273 -0.03393,0.204427 0.313648,0.06972 0.60664,0.194 0.868489,0.362467 0.04063,-0.05848 0.08105,-0.11517 0.121094,-0.167643 -0.287589,-0.186595 -0.610157,-0.323729 -0.955648,-0.399251 z m -1.944336,0.251465 c -0.310878,0.159467 -0.589256,0.373455 -0.822672,0.62915 0.05215,0.04062 0.10574,0.0853 0.159993,0.131592 0.212749,-0.231637 0.465516,-0.425923 0.747396,-0.571859 -0.03035,-0.06447 -0.0593,-0.127933 -0.08472,-0.188883 z m 3.278809,0.440348 c -0.0406,0.05211 -0.08533,0.105622 -0.131592,0.159831 0.231263,0.212925 0.425136,0.465851 0.570801,0.747802 0.06487,-0.03055 0.128627,-0.05971 0.189941,-0.08529 -0.15952,-0.310741 -0.373472,-0.589047 -0.62915,-0.822347 z m -4.394206,0.567545 c -0.186712,0.287644 -0.323919,0.6103 -0.399495,0.955892 0.06601,0.0091 0.135381,0.0211 0.206136,0.03418 0.06957,-0.313591 0.193613,-0.606617 0.361735,-0.868571 -0.05871,-0.04079 -0.11572,-0.0813 -0.168376,-0.121501 z m 5.205892,0.697347 c -0.06167,0.02505 -0.127662,0.04923 -0.195394,0.07324 0.07972,0.254923 0.12264,0.526144 0.12264,0.807454 0,0.04204 -0.001,0.08385 -0.0029,0.125407 0.07183,0.006 0.142032,0.01269 0.208252,0.02124 0.0024,-0.04858 0.0037,-0.09747 0.0037,-0.146647 0,-0.306955 -0.04777,-0.602859 -0.136231,-0.880697 z m -5.668701,0.732911 c -0.0025,0.04896 -0.0037,0.09822 -0.0037,0.147786 0,0.306692 0.04775,0.602334 0.136068,0.879964 0.06166,-0.02507 0.127646,-0.0493 0.195393,-0.07332 -0.07959,-0.254625 -0.122477,-0.525566 -0.122477,-0.806641 0,-0.04242 9.98e-4,-0.08461 0.0029,-0.126546 -0.07184,-0.006 -0.142041,-0.01267 -0.208252,-0.02124 z m 5.532064,0.734619 c -0.06947,0.31363 -0.193472,0.606607 -0.361572,0.868489 0.0588,0.04085 0.115889,0.08149 0.168619,0.121745 0.186564,-0.287668 0.323644,-0.610322 0.399089,-0.955892 -0.06603,-0.0092 -0.135367,-0.02125 -0.206136,-0.03434 z m -5.027181,0.65039 c -0.06494,0.03057 -0.12874,0.0598 -0.190104,0.08537 0.159537,0.310967 0.373576,0.58947 0.629394,0.822917 0.04073,-0.05232 0.08555,-0.106044 0.131999,-0.160482 -0.231501,-0.21285 -0.425534,-0.465771 -0.571289,-0.747803 z m 4.381266,0.586752 c -0.21276,0.231521 -0.46562,0.425552 -0.747559,0.57137 0.03056,0.06492 0.0598,0.128755 0.08537,0.190104 0.310857,-0.159594 0.589244,-0.373654 0.822591,-0.629476 -0.05229,-0.04072 -0.106001,-0.08557 -0.1604,-0.131998 z m -3.441406,0.445556 c -0.04086,0.0588 -0.08148,0.115824 -0.121745,0.168539 0.287747,0.186712 0.610507,0.323906 0.956217,0.399414 0.0091,-0.06602 0.02118,-0.13536 0.03426,-0.206136 -0.313727,-0.06953 -0.606803,-0.193595 -0.868734,-0.361817 z m 2.263346,0.30306 c -0.25486,0.07975 -0.526081,0.122722 -0.807454,0.122722 -0.04215,0 -0.08406,-0.001 -0.125733,-0.0029 -0.006,0.07184 -0.01267,0.142043 -0.02124,0.208252 0.04869,0.0024 0.09768,0.0037 0.146973,0.0037 0.306991,0 0.602912,-0.04783 0.880778,-0.136312 -0.02507,-0.06167 -0.0493,-0.127639 -0.07332,-0.195394 z" />
      <circle
         style="fill:none;fill-opacity:1;stroke:#00ff00;stroke-width:0.208333;stroke-dasharray:none;stroke-opacity:1"
         id="circle4192"
         cx="14.262033"
         cy="15.483854"
         r="3.5999999" />
    </g>
    <g
       id="g21617"
       transform="translate(1.3698527,-6.7488747)">
      <path
         id="circle4196"
         style="color:#000000;fill:#00ff00;-inkscape-stroke:none"
         d="m 7.4495443,23.063151 c -0.2130281,0 -0.4189382,0.03093 -0.6135254,0.08846 0.05091,0.113666 0.1012088,0.216388 0.1505534,0.302246 0.1478336,-0.03831 0.3029906,-0.05868 0.462972,-0.05868 0.00915,0 0.018224,1.12e-4 0.027344,2.44e-4 0.027577,-0.09522 0.05192,-0.20719 0.074382,-0.329915 -0.033721,-0.0016 -0.067623,-0.0024 -0.1017252,-0.0024 z m 0.5074056,0.05998 c -0.012746,0.12391 -0.020557,0.238038 -0.020752,0.337077 0.161588,0.04421 0.3141966,0.109904 0.4545899,0.193848 0.071194,-0.06846 0.1480116,-0.15282 0.2284342,-0.247396 C 8.4186464,23.277509 8.1953934,23.180551 7.9569499,23.123128 Z m -1.5009766,0.181478 c -0.2154408,0.111644 -0.4099305,0.258431 -0.5756836,0.432699 0.1005427,0.07268 0.1951374,0.136261 0.2805176,0.185791 0.117305,-0.115753 0.2501248,-0.215819 0.3951823,-0.296713 -0.023714,-0.09595 -0.058286,-0.204757 -0.1000163,-0.321777 z m 2.4853516,0.355387 c -0.072654,0.10051 -0.1362758,0.195082 -0.185791,0.280437 0.115751,0.1173 0.2157362,0.250211 0.2966308,0.395263 0.095994,-0.02371 0.2047676,-0.05834 0.3218587,-0.100097 C 9.2623707,24.020137 9.1156115,23.825755 8.9413249,23.659993 Z m -3.314209,0.399496 c -0.1291741,0.200607 -0.2261863,0.423785 -0.28361,0.662272 0.1239095,0.01275 0.238038,0.02048 0.3370768,0.02067 0.044203,-0.161558 0.1099207,-0.314139 0.1938476,-0.454509 -0.068457,-0.07119 -0.1527385,-0.148008 -0.2473144,-0.228434 z m 3.8999837,0.556152 c -0.1136661,0.05091 -0.2164693,0.101209 -0.3023275,0.150554 0.038312,0.147839 0.058757,0.302984 0.058757,0.462972 0,0.0091 -1.119e-4,0.01825 -2.441e-4,0.02734 0.095222,0.02758 0.2071117,0.052 0.329834,0.07446 0.00157,-0.03375 0.00244,-0.06768 0.00244,-0.101806 0,-0.213028 -0.030927,-0.418939 -0.08846,-0.613526 z m -4.2412109,0.511638 c -0.00157,0.03377 -0.00236,0.06774 -0.00236,0.101888 0,0.213033 0.030924,0.418934 0.08846,0.613525 0.1136661,-0.05091 0.216388,-0.101209 0.3022461,-0.150553 -0.038311,-0.147838 -0.058675,-0.302986 -0.058675,-0.462972 0,-0.0091 1.12e-4,-0.01825 2.441e-4,-0.02734 -0.095227,-0.02758 -0.2071846,-0.05208 -0.3299153,-0.07454 z m 3.9326172,0.588541 c -0.044198,0.16156 -0.1099253,0.314136 -0.1938477,0.454509 0.068472,0.07121 0.1528009,0.148077 0.2473958,0.228515 C 9.4012137,26.198251 9.4980807,25.97504 9.5555013,25.736572 9.4316558,25.723835 9.317505,25.716019 9.2185059,25.71582 Z m -3.3717448,0.40682 c -0.095952,0.02371 -0.204757,0.05837 -0.3217774,0.100098 0.1116527,0.215458 0.2584933,0.40984 0.43278,0.575602 0.072653,-0.100508 0.1361949,-0.195082 0.1857096,-0.280436 C 6.0277203,26.400598 5.927655,26.267699 5.8467611,26.12264 Z m 2.8915201,0.412516 c -0.1173212,0.11578 -0.2501789,0.215885 -0.3952636,0.296794 0.023709,0.09593 0.058379,0.204703 0.1000976,0.321696 C 8.658569,27.041994 8.8529585,26.895231 9.0187174,26.720947 8.9182093,26.648294 8.8236353,26.584671 8.7382812,26.535156 Z m -2.2300618,0.269125 c -0.071172,0.06844 -0.1479574,0.152774 -0.2283529,0.247314 0.2006031,0.129172 0.4237899,0.226105 0.6622722,0.283529 0.012738,-0.123847 0.020472,-0.237996 0.02067,-0.336996 -0.16159,-0.04421 -0.3141949,-0.109902 -0.4545898,-0.193847 z m 1.4042969,0.200195 c -0.1478565,0.03832 -0.3029632,0.05868 -0.462972,0.05868 -0.00912,0 -0.018252,-1.12e-4 -0.027344,-2.44e-4 -0.027571,0.0952 -0.052005,0.207138 -0.074463,0.329834 0.033739,0.0016 0.067686,0.0024 0.1018067,0.0024 0.2130328,0 0.4189342,-0.03092 0.6135254,-0.08846 -0.05091,-0.113666 -0.1012088,-0.216388 -0.1505534,-0.302246 z" />
      <path
         id="circle4198"
         style="color:#000000;fill:#00ff00;-inkscape-stroke:none"
         d="m 7.4495443,22.26237 c -0.05147,0 -0.1026506,0.0013 -0.1534831,0.0039 0.012073,0.111474 0.024188,0.22314 0.036784,0.332682 0.038674,-0.0017 0.077604,-0.0026 0.1166992,-0.0026 0.2968496,0 0.5820608,0.04891 0.8480631,0.139079 0.042615,-0.101382 0.08536,-0.204828 0.1280111,-0.308187 C 8.1198355,22.320489 7.7913775,22.26237 7.4495443,22.26237 Z m -0.5556641,0.05216 c -0.3839592,0.07297 -0.7418719,0.22012 -1.0582682,0.425944 0.065798,0.08996 0.1317284,0.180008 0.1970215,0.268066 0.271469,-0.173333 0.5770365,-0.298199 0.904541,-0.362549 -0.013804,-0.109272 -0.028529,-0.220448 -0.043294,-0.331461 z m 1.9041341,0.272135 c -0.045081,0.102121 -0.090189,0.204364 -0.1338704,0.305094 0.2919952,0.151747 0.5517862,0.356583 0.7666829,0.601807 0.087258,-0.06623 0.1756384,-0.134141 0.263916,-0.202067 C 9.4451176,23.002614 9.1408326,22.762249 8.7980143,22.58667 Z m -3.2861328,0.397217 c -0.2889094,0.249641 -0.5292517,0.553964 -0.704834,0.89681 0.1021116,0.04508 0.2043742,0.09011 0.3050944,0.133789 0.1517535,-0.291992 0.356578,-0.551792 0.6018067,-0.766683 -0.066222,-0.08724 -0.1341548,-0.175656 -0.2020671,-0.263916 z m 4.4263509,0.631429 c -0.089956,0.06579 -0.180016,0.131652 -0.2680664,0.19694 0.1733329,0.271469 0.2981994,0.577036 0.362549,0.904541 0.109299,-0.01381 0.220422,-0.02852 0.331461,-0.04329 -0.07298,-0.383915 -0.220148,-0.741821 -0.4259436,-1.058187 z m -5.2906087,0.637695 c -0.1067735,0.305804 -0.1648763,0.634295 -0.1648763,0.976156 0,0.05144 0.00131,0.102595 0.00391,0.153401 0.1114611,-0.01207 0.2230711,-0.02419 0.332601,-0.03678 -0.00168,-0.03867 -0.00252,-0.07752 -0.00252,-0.116618 0,-0.29685 0.048909,-0.582061 0.1390787,-0.848063 -0.1013707,-0.04261 -0.204838,-0.08545 -0.3081868,-0.128093 z m 5.7647303,0.822673 c -0.111474,0.01207 -0.22306,0.02427 -0.332601,0.03687 0.0017,0.03866 0.0026,0.07754 0.0026,0.116618 0,0.296849 -0.04891,0.582061 -0.139079,0.848063 0.101381,0.04261 0.204828,0.08536 0.308187,0.128011 0.106757,-0.305783 0.164876,-0.634241 0.164876,-0.976074 0,-0.05147 -0.0014,-0.102651 -0.004,-0.153483 z m -5.5459803,0.665771 c -0.109274,0.0138 -0.2204469,0.02861 -0.3314616,0.04338 0.072981,0.383945 0.2201229,0.741883 0.425944,1.058268 0.089969,-0.0658 0.1800034,-0.131725 0.2680664,-0.197022 C 5.0555743,26.374586 4.930719,26.068991 4.8663737,25.741455 Z m 4.9204915,0.702393 c -0.1517514,0.291974 -0.3565898,0.55172 -0.6018066,0.766601 0.066239,0.08726 0.134218,0.175632 0.2021484,0.263916 0.2888464,-0.249605 0.5291912,-0.553954 0.704753,-0.896728 -0.1021103,-0.04508 -0.2043761,-0.09011 -0.3050948,-0.133789 z m -4.3186849,0.520833 c -0.087247,0.06623 -0.1756497,0.134231 -0.263916,0.202148 0.2496336,0.288889 0.5539828,0.529261 0.8968099,0.704834 0.045071,-0.102099 0.090117,-0.204386 0.1337891,-0.305094 C 5.9428554,27.41481 5.6830802,27.209925 5.4681803,26.964681 Z m 3.3981934,0.485026 c -0.271498,0.173357 -0.5769949,0.298283 -0.904541,0.36263 0.013804,0.109276 0.028609,0.220445 0.043376,0.331462 0.3839268,-0.07298 0.7418133,-0.220138 1.0581869,-0.425944 -0.065815,-0.08999 -0.131712,-0.180069 -0.1970215,-0.268148 z M 6.6014811,27.7229 c -0.042615,0.101382 -0.085441,0.204828 -0.1280924,0.308187 0.3058035,0.106774 0.6342953,0.164877 0.9761556,0.164877 0.051443,0 0.1025952,-0.0014 0.1534017,-0.004 -0.01207,-0.111447 -0.024191,-0.223085 -0.036784,-0.332601 -0.038674,0.0017 -0.077523,0.0026 -0.1166178,0.0026 -0.2968496,0 -0.5820609,-0.04891 -0.8480632,-0.139079 z" />
      <path
         id="circle4200"
         style="color:#000000;fill:#00ff00;-inkscape-stroke:none"
         d="m 7.4495443,21.461589 c -0.4266969,0 -0.8369973,0.07123 -1.2196452,0.202392 0.043543,0.09397 0.087791,0.197645 0.132487,0.306966 0.3415703,-0.113705 0.7070899,-0.175374 1.0871582,-0.175374 0.094603,0 0.1882684,0.0039 0.2809245,0.01139 0.017445,-0.117081 0.035763,-0.228633 0.055745,-0.330485 -0.1109314,-0.0099 -0.2232081,-0.01489 -0.3366699,-0.01489 z m 0.7263997,0.07023 c -0.00928,0.103244 -0.022847,0.2153 -0.038818,0.332438 0.4632902,0.09395 0.8926228,0.280949 1.2674967,0.540771 0.073139,-0.09201 0.1442812,-0.17884 0.2120768,-0.256591 C 9.1924335,21.849188 8.703785,21.635234 8.175944,21.53182 Z m -2.3111165,0.279134 c -0.4811753,0.223834 -0.9074349,0.546352 -1.2526856,0.941406 0.084326,0.0594 0.1740277,0.126847 0.2669271,0.198812 0.3059251,-0.34502 0.6804577,-0.627815 1.1022136,-0.827311 -0.043262,-0.109717 -0.082948,-0.21504 -0.1164551,-0.312907 z m 4.061442,0.58081 c -0.059403,0.08434 -0.126755,0.174097 -0.1987304,0.267009 0.3450239,0.305929 0.6278139,0.68037 0.8273109,1.102132 0.109657,-0.04324 0.215006,-0.08288 0.312826,-0.116374 -0.223848,-0.481204 -0.546319,-0.907505 -0.9414065,-1.252767 z M 4.3688151,23.06193 c -0.2992893,0.424303 -0.5132037,0.912938 -0.6166178,1.440837 0.1032695,0.0093 0.2152701,0.02284 0.3324381,0.03882 0.093947,-0.463316 0.2809362,-0.892604 0.5407715,-1.267496 -0.092041,-0.07316 -0.1788211,-0.144345 -0.2565918,-0.212159 z m 6.6458329,0.947591 c -0.09394,0.04353 -0.197607,0.08781 -0.306884,0.132487 0.11371,0.341579 0.175374,0.70708 0.175374,1.087159 0,0.0946 -0.0039,0.188268 -0.01139,0.280924 0.11709,0.01745 0.228628,0.03576 0.330485,0.05575 0.0099,-0.110932 0.01489,-0.223208 0.01489,-0.33667 0,-0.4267 -0.07131,-0.836996 -0.202474,-1.219646 z m -7.3178707,0.882976 c -0.00986,0.110931 -0.014811,0.223208 -0.014811,0.33667 0,0.42667 0.071246,0.836936 0.2023926,1.219563 0.093945,-0.04353 0.1975955,-0.08772 0.3068848,-0.132405 -0.1137089,-0.341576 -0.175293,-0.707083 -0.175293,-1.087158 0,-0.0946 0.00391,-0.188269 0.011393,-0.280925 -0.1171189,-0.01745 -0.228687,-0.03576 -0.3305665,-0.05575 z m 7.1175947,1.024251 c -0.09395,0.463316 -0.280936,0.892605 -0.540772,1.267497 0.09202,0.07315 0.178913,0.144274 0.256673,0.212077 0.29926,-0.424279 0.513126,-0.912895 0.616537,-1.440756 -0.103248,-0.0093 -0.2153,-0.02285 -0.332438,-0.03882 z m -6.4701337,0.78068 c -0.1096825,0.04325 -0.2150661,0.08287 -0.3129069,0.116374 0.2238398,0.481188 0.5464188,0.90743 0.9414876,1.252686 0.05939,-0.08432 0.1267772,-0.174045 0.1987305,-0.266927 -0.3450398,-0.305933 -0.627806,-0.680359 -0.8273112,-1.102133 z m 5.6756997,0.809733 c -0.3059292,0.345025 -0.6803692,0.627815 -1.102132,0.827312 0.043247,0.10968 0.082874,0.214986 0.1163737,0.312825 0.4811862,-0.223839 0.907431,-0.546339 1.2526853,-0.941406 -0.0843,-0.05938 -0.17406,-0.12679 -0.266927,-0.198731 z m -4.5254719,0.546062 c -0.073152,0.09203 -0.1442699,0.178908 -0.2120768,0.256673 0.4242854,0.299263 0.9128861,0.513127 1.4407552,0.616536 0.00928,-0.103223 0.022851,-0.215248 0.038818,-0.332356 -0.4633168,-0.09395 -0.8926042,-0.281018 -1.2674968,-0.540853 z m 3.0422364,0.434163 c -0.3415782,0.113711 -0.7070798,0.175374 -1.0871582,0.175374 -0.094593,0 -0.1882784,-0.0039 -0.2809245,-0.01139 -0.017449,0.117111 -0.035757,0.228612 -0.055746,0.330485 0.1109055,0.0099 0.2232353,0.01489 0.33667,0.01489 0.4266919,0 0.8369196,-0.07132 1.2195638,-0.202474 -0.043532,-0.09395 -0.087721,-0.197594 -0.1324056,-0.306885 z" />
    </g>
    <g
       id="g19217"
       transform="translate(4.2509766,4.3218371)">
      <path
         id="circle4237"
         style="color:#000000;fill:#00ff00;-inkscape-stroke:none"
         d="m 16.753808,3.7227952 c -0.14641,0 -0.28843,0.019148 -0.423746,0.055013 l 0.04858,0.150472 c 0.119872,-0.030864 0.245604,-0.047282 0.375163,-0.047282 0.05258,0 0.104522,0.0027 0.155681,0.00798 l 0.03117,-0.1556803 c -0.06133,-0.00693 -0.123687,-0.010498 -0.186849,-0.010498 z m 0.262045,0.020752 -0.01685,0.1573893 c 0.181982,0.029938 0.352771,0.09264 0.506185,0.1818848 l 0.09123,-0.1288249 C 17.421114,3.8497263 17.224988,3.7769755 17.015853,3.7435472 Z m -0.759685,0.055745 c -0.196669,0.062129 -0.377619,0.1600086 -0.535156,0.2860515 l 0.105062,0.1171061 c 0.13747,-0.1085069 0.294456,-0.1933837 0.464844,-0.2486165 z m 1.40389,0.1945801 -0.07902,0.1361491 c 0.151824,0.1009236 0.28412,0.2288878 0.390055,0.3770345 l 0.13558,-0.080404 C 17.986409,4.2558752 17.834705,4.1087785 17.660058,3.9938723 Z M 15.66136,4.1353929 c -0.15138,0.1331493 -0.2784,0.2934429 -0.373291,0.4731445 l 0.143962,0.064453 c 0.08319,-0.1555325 0.19308,-0.2946289 0.323486,-0.4112142 z m 2.486735,0.352946 -0.127604,0.092367 c 0.096,0.1525834 0.165207,0.323772 0.201172,0.5069987 l 0.157471,-0.018392 C 18.339252,4.8589817 18.259497,4.6625824 18.148095,4.4883389 Z m -2.894938,0.1904297 c -0.08384,0.178861 -0.136656,0.3750409 -0.151367,0.5815429 l 0.15861,3.255e-4 c 0.01396,-0.1788851 0.05924,-0.348884 0.130453,-0.5045572 z m 3.138102,0.4633789 -0.15511,0.032633 c 0.0091,0.066778 0.01375,0.1349767 0.01375,0.2042643 0,0.1176698 -0.01352,0.2321189 -0.03906,0.3418783 l 0.151204,0.047119 c 0.03013,-0.1247802 0.04606,-0.2550249 0.04606,-0.3889974 0,-0.08041 -0.0057,-0.1595118 -0.01685,-0.2368977 z m -3.293212,0.1965332 c -3.24e-4,0.013424 -4.89e-4,0.026865 -4.89e-4,0.040364 0,0.1940127 0.03359,0.3802608 0.09522,0.5533041 l 0.144694,-0.064046 c -0.05293,-0.1532302 -0.08171,-0.31782 -0.08171,-0.4892579 0,-0.00857 1.01e-4,-0.0171 2.45e-4,-0.025635 z m 3.09025,0.4675293 c -0.0528,0.1782627 -0.137821,0.3425659 -0.248372,0.4860839 l 0.118164,0.1039226 c 0.127919,-0.1637319 0.225635,-0.3521303 0.284912,-0.5568034 z m -2.817871,0.1486816 -0.149658,0.050537 c 0.07762,0.1889181 0.189317,0.3603622 0.327311,0.5067546 l 0.105632,-0.116862 C 15.535099,6.2673133 15.438649,6.1185095 15.370426,5.9548916 Z m 2.513428,0.4059245 c -0.119138,0.1370877 -0.262923,0.2521403 -0.424479,0.3384603 l 0.06584,0.1433105 c 0.185653,-0.098146 0.350395,-0.2306416 0.48584,-0.388916 z m -2.165609,0.1000976 -0.11556,0.1066081 c 0.145615,0.1407326 0.316905,0.2550334 0.506104,0.3352051 l 0.04915,-0.1503093 C 15.994086,6.6815524 15.845447,6.5823606 15.718245,6.4609137 Z m 1.661133,0.2780762 c -0.160419,0.073709 -0.336202,0.1199039 -0.521403,0.1325684 l 0.002,0.1584472 c 0.212817,-0.013499 0.414718,-0.067389 0.598226,-0.1539713 z m -1.136637,0.047119 -0.0625,0.1450195 c 0.178814,0.06611 0.37205,0.1022135 0.573567,0.1022135 0.01011,0 0.02021,-1.444e-4 0.03027,-3.255e-4 l -0.01628,-0.157959 c -0.0047,4.25e-5 -0.0093,8.14e-5 -0.014,8.14e-5 -0.179504,0 -0.351614,-0.031381 -0.511067,-0.08903 z" />
      <path
         id="circle4239"
         style="color:#000000;fill:#00ff00;-inkscape-stroke:none"
         d="m 16.752604,3.2733561 c -0.09247,-3.15e-5 -0.183899,0.00606 -0.273844,0.017904 l 0.02685,0.1538899 c 0.168656,-0.021539 0.342958,-0.021142 0.51945,0.00366 0.08232,0.011569 0.162626,0.028132 0.240804,0.049316 l 0.05176,-0.1477865 c -0.08781,-0.024324 -0.178177,-0.043293 -0.270833,-0.056315 -0.09886,-0.013894 -0.197098,-0.020637 -0.29419,-0.020671 z m -0.309245,0.022868 c -0.281653,0.042014 -0.547996,0.140733 -0.785074,0.2854817 l 0.08683,0.1293132 c 0.215152,-0.1302775 0.456171,-0.2196074 0.711019,-0.2588705 z m 0.907715,0.063639 -0.03817,0.1516927 c 0.252951,0.07541 0.481759,0.1996582 0.677327,0.3606771 L 18.097331,3.7587077 C 17.882573,3.5798888 17.630323,3.442231 17.351074,3.3598633 Z m -1.724039,0.2412109 c -0.234944,0.1490973 -0.43984,0.3440118 -0.600668,0.5741374 l 0.132162,0.083008 c 0.146258,-0.2078097 0.331419,-0.3842761 0.543375,-0.5202637 z m 2.496175,0.1794434 -0.09627,0.1227213 c 0.196303,0.1699265 0.357037,0.3776715 0.472249,0.6101075 l 0.143962,-0.06014 C 18.51726,4.1964302 18.340176,3.9671541 18.12321,3.7805176 Z m -3.11792,0.4255371 c -0.151875,0.2257706 -0.261922,0.4840387 -0.31722,0.7652995 l 0.155029,0.022135 c 0.05104,-0.2541468 0.150094,-0.4878257 0.286377,-0.6927897 z m 3.652262,0.2770996 -0.137858,0.072917 c 0.108022,0.2319218 0.171362,0.4870055 0.180501,0.7526855 l 0.156332,0.00358 C 18.847601,5.0195017 18.77768,4.7382584 18.657552,4.4831543 Z m -3.9764,0.5252279 c -0.0046,0.02569 -0.0087,0.051584 -0.01237,0.077637 -0.03618,0.2574242 -0.02402,0.5105273 0.02954,0.7501627 l 0.15039,-0.042806 c -0.04777,-0.2191479 -0.05829,-0.4503835 -0.02523,-0.6856283 0.003,-0.021247 0.0064,-0.042328 0.01001,-0.063314 z m 4.176188,0.336914 -0.156168,0.01058 c 9.87e-4,0.096954 -0.0052,0.1952415 -0.01912,0.2941894 -0.02305,0.1639691 -0.06582,0.3201826 -0.12557,0.4667155 l 0.141357,0.066895 c 0.06632,-0.1605345 0.113707,-0.3319255 0.138998,-0.5118815 0.01544,-0.1098422 0.0221,-0.2189119 0.02051,-0.3264974 z M 14.860352,5.84375 14.706868,5.8727214 c 0.06632,0.2735036 0.186707,0.5286069 0.350749,0.7515462 L 15.177246,6.5242513 C 15.029836,6.321814 14.921223,6.0910221 14.860352,5.84375 Z m 3.677734,0.316569 C 18.432498,6.4021863 18.280115,6.6162152 18.09375,6.7927246 l 0.101644,0.1182455 c 0.206185,-0.193782 0.374277,-0.4298058 0.489583,-0.6968588 z m -3.330078,0.4050293 -0.128093,0.088623 c 0.168595,0.2209207 0.380671,0.4087307 0.625651,0.5494791 L 15.774333,7.063151 C 15.55316,6.9347148 15.361361,6.7647542 15.208008,6.5653483 Z m 2.850667,0.2597656 c -0.191353,0.1725524 -0.416183,0.3067252 -0.66154,0.3926595 l 0.04476,0.1494141 c 0.270792,-0.093981 0.51873,-0.2421475 0.728841,-0.433431 z m -2.240316,0.2627767 -0.08114,0.1333822 c 0.218487,0.1205342 0.462151,0.2040322 0.723796,0.240804 0.02522,0.00354 0.05039,0.00657 0.07552,0.0092 l 0.0058,-0.1564942 c -0.01984,-0.00218 -0.03967,-0.00461 -0.05957,-0.00741 C 16.242733,7.2736413 16.01912,7.1975802 15.818359,7.0878906 Z m 1.532797,0.1453451 C 17.11244,7.31019 16.855428,7.3418814 16.591715,7.3195801 l -0.01994,0.1551107 c 0.290985,0.025518 0.574603,-0.010051 0.837565,-0.096517 z" />
      <path
         id="circle19148"
         style="color:#000000;fill:#00ff00;-inkscape-stroke:none"
         d="m 16.754298,4.1739667 c -0.03354,0 -0.06675,0.00137 -0.09961,0.00407 l 0.0245,0.1567383 c 0.02482,-0.00175 0.04984,-0.0026 0.07511,-0.0026 0.0791,0 0.156112,0.00877 0.230143,0.025309 l 0.05526,-0.1493327 c -0.0915,-0.022351 -0.187059,-0.03418 -0.285401,-0.03418 z m -0.216308,0.019531 c -0.127701,0.023259 -0.248437,0.066648 -0.358806,0.1268717 l 0.08569,0.1325684 c 0.08776,-0.046375 0.182952,-0.080629 0.283366,-0.100586 z m 0.613525,0.047852 -0.04126,0.1526693 c 0.09926,0.035764 0.191497,0.086054 0.27417,0.1483561 L 17.494614,4.4295006 C 17.392233,4.3492477 17.276597,4.285243 17.151515,4.2413497 Z m -1.073568,0.1408692 c -0.104217,0.070956 -0.19676,0.1578515 -0.27417,0.2570801 l 0.13208,0.0861 c 0.06186,-0.077411 0.134497,-0.1458159 0.215658,-0.2029622 z m 1.504232,0.1230469 -0.09896,0.1216634 c 0.07578,0.073451 0.140482,0.1582874 0.191325,0.2517903 l 0.145914,-0.058024 C 17.758658,4.7026957 17.677842,4.5962501 17.582179,4.5052658 Z m -1.847086,0.2315264 c -0.06609,0.1044837 -0.116552,0.2197498 -0.148112,0.3425293 l 0.156656,0.025146 c 0.02594,-0.09606 0.0652,-0.1865961 0.115642,-0.2695312 z m 2.133789,0.1883952 -0.13973,0.070801 c 0.03818,0.097368 0.0622,0.2019398 0.06958,0.3111165 l 0.156901,0.00635 c -0.0073,-0.1366517 -0.03752,-0.2673206 -0.08675,-0.388265 z m -2.305827,0.2712403 c -0.0091,0.059556 -0.01384,0.1205661 -0.01384,0.1826171 0,0.064657 0.0051,0.1281239 0.01497,0.1900228 l 0.153727,-0.040853 c -0.0069,-0.048704 -0.0105,-0.098523 -0.0105,-0.14917 0,-0.048618 0.0033,-0.096474 0.0097,-0.1433105 z m 2.393392,0.2318522 -0.15682,0.00789 c -0.0059,0.109541 -0.02848,0.2145287 -0.06535,0.3125 l 0.140381,0.069499 c 0.04771,-0.1215693 0.07626,-0.2527899 0.08179,-0.3898926 z m -2.211263,0.2310384 -0.15625,0.026611 c 0.03244,0.1228563 0.08386,0.2380088 0.15096,0.3422038 l 0.122965,-0.099202 c -0.05114,-0.082873 -0.09112,-0.1734309 -0.117675,-0.2696128 z m 1.936198,0.2072754 c -0.04977,0.094645 -0.113582,0.1806918 -0.188721,0.2553711 l 0.09969,0.1201985 c 0.09493,-0.092191 0.17466,-0.1999703 0.235188,-0.3190918 z m -1.741455,0.1711426 -0.130778,0.087158 c 0.07845,0.098881 0.17212,0.1852582 0.277425,0.2554524 l 0.0717,-0.1399739 C 16.07615,6.1835153 16.002625,6.1152144 15.939927,6.0377363 Z m 1.455159,0.1698405 c -0.08239,0.063758 -0.174604,0.1154365 -0.274007,0.1525065 l 0.04232,0.1507161 c 0.125028,-0.045229 0.240424,-0.1106402 0.342285,-0.19222 z m -1.12321,0.1012369 -0.08366,0.1322429 c 0.111251,0.059308 0.232844,0.101672 0.361328,0.1236979 l 0.0085,-0.1571452 c -0.10137,-0.019136 -0.197522,-0.052784 -0.286215,-0.098796 z m 0.724203,0.089111 c -0.07759,0.018272 -0.158524,0.027995 -0.241781,0.027995 -0.02202,1e-7 -0.04383,-7.022e-4 -0.06551,-0.00203 l -0.02262,0.1551107 c 0.02912,0.00211 0.05849,0.00317 0.08813,0.00317 0.102799,1e-7 0.202593,-0.012914 0.297852,-0.037191 z" />
    </g>
    <g
       id="g19276"
       transform="translate(0.67131551,2.3732986)">
      <path
         id="circle4243"
         style="color:#000000;fill:#00ff00;-inkscape-stroke:none"
         d="m 27.941381,3.2563112 c -0.233463,0 -0.451129,0.067953 -0.634521,0.1849772 0.0294,0.030336 0.05972,0.058037 0.09123,0.082438 0.159029,-0.094157 0.344743,-0.1482748 0.543294,-0.1482748 0.06326,0 0.125177,0.0056 0.185384,0.016113 0.0211,-0.03424 0.03994,-0.071207 0.05689,-0.1103515 -0.07824,-0.016314 -0.159268,-0.024902 -0.242269,-0.024902 z m 0.548747,0.1349284 c -0.01159,0.040791 -0.02037,0.08113 -0.02572,0.1207682 0.22005,0.1238485 0.391509,0.3235638 0.479085,0.5638835 0.04008,0.00114 0.08138,-9.889e-4 0.123616,-0.00586 C 28.969819,3.776286 28.760553,3.5330836 28.490124,3.391239 Z m -1.431315,0.2610677 c -0.187249,0.2098148 -0.301026,0.4865889 -0.301026,0.7895508 0,0.01661 2.99e-4,0.033199 9.77e-4,0.049642 0.04071,-0.010222 0.07961,-0.022568 0.116292,-0.037516 -4.4e-5,-0.00403 -8.1e-5,-0.00809 -8.1e-5,-0.012126 0,-0.2618471 0.09401,-0.5012619 0.250081,-0.6866862 -0.01891,-0.034858 -0.0412,-0.069116 -0.06624,-0.1028646 z m 2.066976,0.7381185 c -0.04135,0.01039 -0.08089,0.022971 -0.118083,0.038249 5.3e-5,0.0044 8.1e-5,0.00877 8.1e-5,0.013184 0,0.2608486 -0.09328,0.4995238 -0.248291,0.6846517 0.01893,0.034912 0.04125,0.069228 0.06632,0.1030273 0.187151,-0.2092405 0.301107,-0.4852141 0.301107,-0.787679 0,-0.017241 -4.07e-4,-0.034368 -0.0011,-0.051432 z m -2.207927,0.4151204 c -0.03297,8.75e-5 -0.06672,0.00236 -0.101074,0.00635 0.09689,0.294605 0.306289,0.538165 0.577393,0.6797689 0.01148,-0.040224 0.02021,-0.079949 0.02563,-0.1190593 C 27.198389,5.248463 27.02607,5.0476029 26.938529,4.8057927 c -0.0069,-1.707e-4 -0.01374,-2.626e-4 -0.02067,-2.442e-4 z m 1.569255,0.5530599 c -0.159584,0.095078 -0.34614,0.1496583 -0.545736,0.1496582 -0.06301,0 -0.124754,-0.00543 -0.184733,-0.015869 -0.02066,0.033774 -0.03918,0.070139 -0.05583,0.1086426 0.07768,0.016039 0.158135,0.024414 0.24056,0.024414 0.233976,1e-7 0.452345,-0.067881 0.636312,-0.1850586 -0.02918,-0.030097 -0.05932,-0.057531 -0.09058,-0.081787 z" />
      <path
         id="circle4245"
         style="color:#000000;fill:#00ff00;-inkscape-stroke:none"
         d="m 28.166911,2.8214518 c 0.01246,0.041471 0.02485,0.082986 0.03711,0.124349 0.713685,0.1238956 1.255942,0.7458543 1.255941,1.4951172 0,0.049715 -0.0025,0.098825 -0.0072,0.1472981 0.03671,0.021347 0.07366,0.042845 0.110678,0.064453 0.009,-0.069331 0.01367,-0.1399879 0.01367,-0.2117513 0,-0.8261612 -0.614006,-1.5099224 -1.410237,-1.6194662 z m -1.017904,0.1900228 c -0.501703,0.2792389 -0.84139,0.8149462 -0.84139,1.4294434 0,0.2040337 0.0374,0.3993516 0.105794,0.5795084 0.03038,-0.03197 0.06049,-0.063789 0.09025,-0.095215 -0.05117,-0.1520057 -0.07886,-0.314853 -0.07886,-0.4842936 0,-0.5473806 0.289407,-1.0268498 0.723633,-1.2937826 1.47e-4,-0.045059 2.93e-4,-0.090281 5.69e-4,-0.1356608 z m 1.798096,2.565918 c -0.267591,0.2360584 -0.619286,0.3791503 -1.00472,0.3791504 -0.250531,-1e-7 -0.486862,-0.060502 -0.695069,-0.1676433 -0.03965,0.022551 -0.07991,0.045625 -0.120442,0.068848 0.240084,0.1385739 0.51859,0.2179362 0.815511,0.2179362 0.444156,0 0.847109,-0.1774947 1.141846,-0.465332 -0.04607,-0.011084 -0.09184,-0.022099 -0.137126,-0.032959 z" />
      <path
         id="circle4247"
         style="color:#000000;fill:#00ff00;-inkscape-stroke:none"
         d="m 27.942383,2.355957 c -0.186076,0 -0.366506,0.024401 -0.538249,0.070231 0.01762,0.032003 0.03251,0.069407 0.04533,0.1110026 0.15749,-0.040561 0.322668,-0.062093 0.49292,-0.062093 0.255429,0 0.499347,0.04849 0.723144,0.1368815 0.02066,-0.039244 0.04291,-0.073306 0.06738,-0.1006674 C 28.489026,2.4111932 28.222111,2.3559571 27.942383,2.355957 Z m -0.975912,0.2422689 c -0.398277,0.2114876 -0.720072,0.5482696 -0.912679,0.9576009 0.03625,0.00499 0.0752,0.015995 0.116293,0.031494 0.180076,-0.3732282 0.474546,-0.6807006 0.838053,-0.8770345 -0.01857,-0.039181 -0.03293,-0.076674 -0.04167,-0.1120606 z m 2.169353,0.1333008 c -0.01019,0.034879 -0.02774,0.0712 -0.05086,0.108724 0.346209,0.2472906 0.608659,0.6041162 0.736979,1.0201009 0.04732,-0.00463 0.09,-0.00231 0.126709,0.00944 C 29.8156,3.4031462 29.523941,3.0030298 29.135824,2.7315267 Z m -3.231446,1.2639974 c -0.03141,0.143812 -0.04793,0.2932126 -0.04793,0.4463704 0,0.3298435 0.07674,0.641739 0.213379,0.9189453 0.02155,-0.030749 0.05235,-0.059065 0.09017,-0.085612 -0.118345,-0.252979 -0.184407,-0.5353181 -0.184407,-0.8333334 0,-0.1382654 0.01419,-0.2732333 0.04126,-0.4034017 -0.04256,-0.011331 -0.08049,-0.025365 -0.112468,-0.042969 z m 4.117513,0.2823079 c -0.03024,0.024312 -0.06964,0.04063 -0.115967,0.051188 0.0021,0.037346 0.0033,0.074996 0.0033,0.1128743 0,0.4278592 -0.136334,0.823479 -0.367839,1.1460775 0.03179,0.041056 0.05065,0.08334 0.05176,0.1276856 0.272777,-0.3522153 0.435221,-0.7940269 0.435221,-1.2737631 0,-0.0552 -0.0022,-0.1099362 -0.0064,-0.1640625 z m -3.608317,1.4022624 c -0.03909,0.023786 -0.07711,0.040014 -0.113932,0.04598 0.30659,0.3907789 0.74987,0.6693483 1.257487,0.7641602 -0.02479,-0.034035 -0.03684,-0.077295 -0.03963,-0.1275228 -0.442359,-0.097199 -0.82863,-0.3430151 -1.103923,-0.6826172 z m 2.813233,0.2519531 c -0.334707,0.2886743 -0.767969,0.4663223 -1.242839,0.4761556 -0.01176,0.048844 -0.03193,0.089013 -0.0638,0.117513 0.0074,7.73e-5 0.0148,1.628e-4 0.02222,1.628e-4 0.546237,-1e-7 1.043781,-0.2102099 1.415853,-0.5540365 -0.04454,0.00323 -0.08818,-0.011631 -0.131429,-0.039795 z" />
    </g>
    <g
       id="g19119"
       transform="translate(4.8848063,2.7408218)">
      <circle
         style="fill:none;fill-opacity:1;stroke:#00ff00;stroke-width:0.314961;stroke-dasharray:none;stroke-opacity:1"
         id="circle4088"
         cx="6.4039979"
         cy="6.6621017"
         r="4" />
      <circle
         style="fill:none;fill-opacity:1;stroke:#00ff00;stroke-width:0.314961;stroke-dasharray:none;stroke-opacity:1"
         id="ellipse18656"
         cx="6.4039979"
         cy="6.6621017"
         r="2.4000001" />
      <g
         id="g19085"
         transform="rotate(-2.5,13.295289,1.3751236)">
        <path
           style="fill:none;fill-opacity:1;stroke:#00ff00;stroke-width:0.314961;stroke-dasharray:none;stroke-opacity:1"
           id="circle19073"
           sodipodi:type="arc"
           sodipodi:cx="6.1799421"
           sodipodi:cy="6.3564758"
           sodipodi:rx="3.2"
           sodipodi:ry="3.2"
           sodipodi:start="0.087266463"
           sodipodi:end="1.5707963"
           sodipodi:arc-type="arc"
           d="M 9.3677652,6.6353742 A 3.2,3.2 0 0 1 6.1799421,9.5564759"
           sodipodi:open="true" />
        <path
           style="fill:none;fill-opacity:1;stroke:#00ff00;stroke-width:0.314961;stroke-dasharray:none;stroke-opacity:1"
           id="path19075"
           sodipodi:type="arc"
           sodipodi:cx="6.1799421"
           sodipodi:cy="6.3564758"
           sodipodi:rx="3.2"
           sodipodi:ry="3.2"
           sodipodi:start="4.7996554"
           sodipodi:end="0"
           sodipodi:arc-type="arc"
           d="M 6.4588404,3.1686527 A 3.2,3.2 0 0 1 9.3799422,6.3564758"
           sodipodi:open="true" />
        <path
           style="fill:none;fill-opacity:1;stroke:#00ff00;stroke-width:0.314961;stroke-dasharray:none;stroke-opacity:1"
           id="path19077"
           sodipodi:type="arc"
           sodipodi:cx="6.1799421"
           sodipodi:cy="6.3564758"
           sodipodi:rx="3.2"
           sodipodi:ry="3.2"
           sodipodi:start="3.2288591"
           sodipodi:end="4.712389"
           sodipodi:arc-type="arc"
           d="M 2.992119,6.0775775 A 3.2,3.2 0 0 1 6.1799421,3.1564758"
           sodipodi:open="true" />
        <path
           style="fill:none;fill-opacity:1;stroke:#00ff00;stroke-width:0.314961;stroke-dasharray:none;stroke-opacity:1"
           id="path19079"
           sodipodi:type="arc"
           sodipodi:cx="6.1799421"
           sodipodi:cy="6.3564758"
           sodipodi:rx="3.2"
           sodipodi:ry="3.2"
           sodipodi:start="1.6580628"
           sodipodi:end="3.1415927"
           sodipodi:arc-type="arc"
           d="M 5.9010437,9.5442989 A 3.2,3.2 0 0 1 2.9799421,6.3564758"
           sodipodi:open="true" />
      </g>
      <g
         id="g19105"
         transform="rotate(-5,6.7023399,7.2109503)">
        <path
           style="fill:none;fill-opacity:1;stroke:#00ff00;stroke-width:0.314976;stroke-dasharray:none;stroke-opacity:1"
           id="path19087"
           sodipodi:type="arc"
           sodipodi:cx="9.2584295"
           sodipodi:cy="0.19540291"
           sodipodi:rx="1.6848719"
           sodipodi:ry="1.6848719"
           sodipodi:start="0.17453293"
           sodipodi:end="1.5707963"
           sodipodi:arc-type="arc"
           d="M 10.917704,0.48797785 A 1.6848719,1.6848719 0 0 1 9.2584295,1.8802748"
           sodipodi:open="true"
           transform="matrix(0.71201032,0.702169,-0.71201032,0.702169,0,0)" />
        <path
           style="fill:none;fill-opacity:1;stroke:#00ff00;stroke-width:0.314976;stroke-dasharray:none;stroke-opacity:1"
           id="path19089"
           sodipodi:type="arc"
           sodipodi:cx="9.2584295"
           sodipodi:cy="0.19540291"
           sodipodi:rx="1.6848719"
           sodipodi:ry="1.6848719"
           sodipodi:start="4.8869219"
           sodipodi:end="0"
           sodipodi:arc-type="arc"
           d="M 9.5510045,-1.463872 A 1.6848719,1.6848719 0 0 1 10.943301,0.19540291"
           sodipodi:open="true"
           transform="matrix(0.71201032,0.702169,-0.71201032,0.702169,0,0)" />
        <path
           style="fill:none;fill-opacity:1;stroke:#00ff00;stroke-width:0.314976;stroke-dasharray:none;stroke-opacity:1"
           id="path19091"
           sodipodi:type="arc"
           sodipodi:cx="9.2584295"
           sodipodi:cy="0.19540291"
           sodipodi:rx="1.6848719"
           sodipodi:ry="1.6848719"
           sodipodi:start="3.3161256"
           sodipodi:end="4.712389"
           sodipodi:arc-type="arc"
           d="M 7.5991546,-0.09717207 A 1.6848719,1.6848719 0 0 1 9.2584295,-1.489469"
           sodipodi:open="true"
           transform="matrix(0.71201032,0.702169,-0.71201032,0.702169,0,0)" />
        <path
           style="fill:none;fill-opacity:1;stroke:#00ff00;stroke-width:0.314976;stroke-dasharray:none;stroke-opacity:1"
           id="path19093"
           sodipodi:type="arc"
           sodipodi:cx="9.2584295"
           sodipodi:cy="0.19540291"
           sodipodi:rx="1.6848719"
           sodipodi:ry="1.6848719"
           sodipodi:start="1.7453293"
           sodipodi:end="3.1415927"
           sodipodi:arc-type="arc"
           d="M 8.9658545,1.8546778 A 1.6848719,1.6848719 0 0 1 7.5735576,0.19540291"
           sodipodi:open="true"
           transform="matrix(0.71201032,0.702169,-0.71201032,0.702169,0,0)" />
      </g>
    </g>
    <g
       id="g20497"
       transform="matrix(0.55057952,0,0,0.55057952,29.982794,8.2289671)">
      <path
         id="path20491"
         style="color:#000000;fill:#00ff00;-inkscape-stroke:none"
         d="m 29.018931,13.314734 c -0.06086,0.0951 -0.120681,0.189739 -0.177947,0.282821 0.440641,0.298584 0.764721,0.710842 0.955436,1.174076 0.104288,-0.032 0.210643,-0.06594 0.317401,-0.100537 -0.21464,-0.536683 -0.586484,-1.014348 -1.09489,-1.35636 z m -0.472832,-0.259646 c -0.549627,-0.24002 -1.141935,-0.300085 -1.70317,-0.200088 0.02418,0.109599 0.04876,0.217965 0.07411,0.32329 0.485648,-0.08282 0.996978,-0.03027 1.474083,0.17354 0.05165,-0.09644 0.103377,-0.196031 0.154973,-0.296742 z m 1.723027,2.138026 c -0.109244,0.02382 -0.217843,0.04799 -0.323829,0.07277 0.09988,0.506313 0.05178,1.04384 -0.162848,1.543779 0.09734,0.05119 0.197024,0.102384 0.297344,0.153441 0.250235,-0.571346 0.305945,-1.188984 0.189333,-1.76999 z M 26.32511,12.996192 c -0.533089,0.198244 -1.012233,0.549589 -1.364076,1.034524 0.09483,0.06061 0.189146,0.120142 0.281856,0.177013 0.307816,-0.417244 0.721358,-0.720897 1.181147,-0.895253 -0.03117,-0.103637 -0.06459,-0.209542 -0.09893,-0.316284 z m 3.206836,4.26884 c -0.313754,0.45857 -0.751105,0.789681 -1.240509,0.974308 0.03259,0.104337 0.06675,0.210232 0.101329,0.316355 0.561991,-0.208027 1.064274,-0.586094 1.421116,-1.111348 -0.09447,-0.06078 -0.188795,-0.121069 -0.281936,-0.179315 z M 24.97982,14.647103 c -0.09578,-0.05126 -0.194599,-0.102506 -0.294556,-0.153711 -0.263811,0.549601 -0.342989,1.147151 -0.257998,1.716721 0.109371,-0.02392 0.217923,-0.04816 0.323739,-0.0731 -0.06913,-0.49441 0.0016,-1.011739 0.228815,-1.489907 z m -0.108019,1.990969 c -0.103828,0.03189 -0.209592,0.06568 -0.315846,0.10012 0.191266,0.558163 0.54852,1.061686 1.04967,1.428826 0.06091,-0.09474 0.121279,-0.189228 0.179459,-0.282511 -0.434239,-0.32324 -0.744828,-0.761314 -0.913283,-1.246435 z m 2.916451,1.736156 c -0.515135,0.08482 -1.058365,0.01735 -1.558628,-0.221601 -0.0511,0.0972 -0.10223,0.196773 -0.153197,0.296921 0.571089,0.274875 1.19412,0.350181 1.783836,0.24901 -0.02365,-0.109107 -0.04754,-0.217782 -0.07201,-0.32433 z" />
      <path
         id="path20493"
         style="color:#000000;fill:#00ff00;-inkscape-stroke:none"
         d="m 30.736737,14.106149 c -0.09517,0.05114 -0.193766,0.102651 -0.29404,0.154446 0.320835,0.650361 0.417266,1.359131 0.314248,2.033061 0.110185,0.02365 0.218524,0.04751 0.323087,0.07198 0.1193,-0.748868 0.01452,-1.537813 -0.343295,-2.259483 z m -0.316799,-0.527226 c -0.461213,-0.643367 -1.097643,-1.103935 -1.805103,-1.353583 -0.03131,0.10323 -0.06469,0.209078 -0.09887,0.316063 0.6349,0.226354 1.206293,0.639908 1.623881,1.216614 0.09473,-0.06145 0.188401,-0.121659 0.28009,-0.179094 z m 0.513348,3.387515 c -0.102701,-0.0304 -0.208492,-0.06324 -0.315784,-0.09724 -0.221523,0.660398 -0.643935,1.256008 -1.2406,1.687155 0.0615,0.09549 0.121152,0.189605 0.177414,0.281248 0.664761,-0.475125 1.134645,-1.136957 1.378968,-1.87116 z m -2.911288,-4.897803 c -0.737392,-0.132267 -1.517282,-0.04657 -2.23593,0.284969 0.05141,0.09593 0.103246,0.19529 0.155303,0.296175 0.647339,-0.295193 1.34712,-0.37299 2.009756,-0.257283 0.02337,-0.109955 0.04686,-0.218592 0.07087,-0.323861 z m 0.842938,6.794483 c -0.671778,0.328165 -1.405092,0.417656 -2.097574,0.29577 -0.02408,0.110709 -0.04846,0.219076 -0.07358,0.323077 0.76855,0.138579 1.583587,0.04045 2.327484,-0.32561 -0.0517,-0.09414 -0.103875,-0.192529 -0.15633,-0.293234 z m -3.434349,-5.926331 c -0.06175,-0.09519 -0.1223,-0.189345 -0.179979,-0.281459 -0.664869,0.448977 -1.145122,1.080952 -1.412118,1.789002 0.103413,0.03083 0.209706,0.06404 0.317524,0.0983 0.243842,-0.634473 0.677013,-1.200541 1.274574,-1.605848 z m -1.438396,2.173663 c -0.11049,-0.02371 -0.219094,-0.04771 -0.323908,-0.07226 -0.151597,0.756607 -0.07309,1.562099 0.265947,2.30292 0.09492,-0.05195 0.194001,-0.104379 0.29534,-0.157078 -0.301822,-0.66876 -0.372068,-1.392801 -0.237379,-2.073587 z m 2.196982,3.893989 c -0.660165,-0.239482 -1.250438,-0.682022 -1.668818,-1.300145 -0.09598,0.0618 -0.190473,0.121755 -0.282547,0.178257 0.462477,0.686955 1.119912,1.177149 1.855016,1.43922 0.02978,-0.102849 0.06234,-0.209174 0.09635,-0.317329 z" />
      <path
         id="path20495"
         style="color:#000000;fill:#00ff00;-inkscape-stroke:none"
         d="m -27.575846,-11.21403 c -0.01569,-0.09888 -0.0246,-0.212303 -0.02873,-0.335856 -0.932897,-0.0527 -1.784406,-0.406565 -2.458903,-0.966146 -0.09175,0.08476 -0.179259,0.157821 -0.260823,0.213949 0.747039,0.638033 1.701962,1.039554 2.748454,1.088053 z m 0.566569,-0.0084 c 1.024537,-0.07829 1.955005,-0.495336 2.679443,-1.139242 -0.07998,-0.0602 -0.164953,-0.134273 -0.253499,-0.218099 -0.654227,0.568528 -1.485045,0.939341 -2.39974,1.020101 -0.0033,0.123857 -0.01134,0.237753 -0.0262,0.33724 z m -3.709961,-1.45988 c 0.05481,-0.08165 0.126711,-0.169354 0.21053,-0.261474 -0.598449,-0.6649 -0.988888,-1.520861 -1.069498,-2.466146 -0.12788,-0.0069 -0.242338,-0.02016 -0.338135,-0.04232 0.07465,1.065262 0.515383,2.030313 1.197103,2.769938 z m 6.794108,-0.08724 c 0.637159,-0.727644 1.047143,-1.659055 1.118815,-2.683106 -0.09909,0.01483 -0.212134,0.02313 -0.334961,0.02686 -0.07467,0.915005 -0.439726,1.747078 -1.003092,2.404134 0.08414,0.088 0.158671,0.172534 0.219238,0.252116 z m -7.998128,-3.208089 c 0.09513,-0.02302 0.209063,-0.03711 0.336669,-0.04484 0.05517,-0.961385 0.430149,-1.83645 1.020427,-2.520264 -0.08466,-0.09561 -0.15461,-0.185961 -0.204346,-0.269205 -0.677781,0.760287 -1.105322,1.748319 -1.15275,2.834309 z m 9.121744,-0.04411 c -0.05546,-1.041081 -0.460396,-1.990068 -1.099446,-2.73177 -0.05638,0.08131 -0.128851,0.168409 -0.21281,0.259684 0.561615,0.670362 0.919441,1.517443 0.978272,2.446208 0.122555,0.0033 0.235312,0.01124 0.333984,0.02588 z m -1.742838,-2.916015 c 0.09077,-0.08385 0.177404,-0.156145 0.258219,-0.211996 -0.739935,-0.674819 -1.702274,-1.109779 -2.763509,-1.181477 0.0218,0.09567 0.03508,0.209316 0.04224,0.3361 0.942599,0.07787 1.797255,0.463961 2.463054,1.057373 z m -5.591065,-0.03711 c 0.681587,-0.591906 1.554647,-0.969165 2.514649,-1.027099 0.0068,-0.126387 0.01991,-0.23959 0.04167,-0.334636 -1.083412,0.05098 -2.068518,0.480308 -2.826171,1.158692 0.0834,0.04937 0.173964,0.118931 0.269856,0.203043 z"
         transform="scale(-1)" />
    </g>
    <g
       id="g21602"
       transform="translate(-0.86268107,4.7684441)">
      <path
         id="path20499"
         style="color:#000000;fill:#00ff00;stroke-width:1.44444;stroke-dasharray:none"
         d="m 38.981941,3.591689 c -0.216695,-0.07041 -0.435692,-0.113857 -0.653448,-0.132312 -0.0065,0.06969 -0.01275,0.139111 -0.0186,0.207877 0.202327,0.01726 0.40591,0.0577 0.607467,0.123191 0.226871,0.07371 0.437293,0.174628 0.628842,0.297849 0.03731,-0.05799 0.0747,-0.116767 0.11208,-0.175877 C 39.452223,3.779651 39.225918,3.670962 38.981941,3.591689 Z M 37.922679,3.453733 c -0.478085,0.02701 -0.938614,0.172437 -1.341595,0.416007 0.03551,0.05984 0.07103,0.119373 0.106507,0.178103 0.374513,-0.226712 0.802781,-0.361769 1.247732,-0.386263 -0.0039,-0.06875 -0.0081,-0.138159 -0.01264,-0.207847 z m 2.060456,0.701914 c -0.04609,0.05243 -0.09184,0.104813 -0.136879,0.156866 0.336986,0.290558 0.59444,0.658652 0.753271,1.06732 0.06367,-0.02475 0.127916,-0.05002 0.192287,-0.07563 -0.170782,-0.439499 -0.447136,-0.83572 -0.808679,-1.148557 z m -3.733758,-0.05244 c -0.359598,0.29245 -0.652804,0.673667 -0.841943,1.124365 0.06435,0.02774 0.12849,0.05519 0.192145,0.08203 0.175701,-0.419664 0.44791,-0.774309 0.781853,-1.046084 -0.04344,-0.05319 -0.08757,-0.106708 -0.132055,-0.160308 z m 4.662732,1.588431 c -0.0676,0.01521 -0.134871,0.03053 -0.201416,0.04605 0.09879,0.418555 0.09843,0.865599 -0.01878,1.306601 0.06618,0.01743 0.133155,0.0347 0.200408,0.05185 0.125585,-0.473623 0.125863,-0.954222 0.01978,-1.404508 z m -5.43324,-0.02765 c -0.06678,-0.0176 -0.134347,-0.03505 -0.202215,-0.05236 -0.125571,0.473608 -0.12586,0.954236 -0.01978,1.404506 0.06789,-0.01528 0.135446,-0.0307 0.202264,-0.04629 -0.09817,-0.418409 -0.09742,-0.865227 0.01973,-1.305861 z m 5.092339,1.734949 c -0.175823,0.419747 -0.44845,0.774501 -0.782828,1.046452 0.04315,0.05282 0.08705,0.105964 0.131224,0.159181 0.359605,-0.292451 0.6528,-0.673659 0.841943,-1.124364 -0.06372,-0.02746 -0.127295,-0.05468 -0.190339,-0.081269 z m -5.001345,-0.0712 c -0.06382,0.02481 -0.128172,0.05017 -0.192697,0.07584 0.170774,0.439467 0.447095,0.835709 0.808601,1.148533 0.04577,-0.05206 0.09126,-0.104009 0.135989,-0.155702 C 35.985069,8.105502 35.72816,7.736813 35.569863,7.327739 Z m 3.912257,1.333377 c -0.374814,0.226845 -0.803362,0.362035 -1.248476,0.386707 0.0039,0.0682 0.0082,0.137098 0.01266,0.206225 0.478075,-0.02701 0.938545,-0.172468 1.341518,-0.416031 -0.03527,-0.05944 -0.07046,-0.118555 -0.105699,-0.176901 z m -2.86031,-0.04023 c -0.03701,0.05753 -0.07412,0.115824 -0.111191,0.174455 0.206069,0.132775 0.432378,0.241373 0.676368,0.32065 0.216694,0.07041 0.435746,0.11396 0.653501,0.132415 0.0064,-0.06908 0.01262,-0.137883 0.01843,-0.206049 C 37.656396,9.025155 37.452627,8.984615 37.25096,8.919091 37.02388,8.845311 36.813393,8.744314 36.621807,8.620884 Z" />
      <path
         id="path20501"
         style="color:#000000;fill:#00ff00;stroke-width:1.44444;stroke-dasharray:none"
         d="m 38.083486,2.64975 c -0.289083,0 -0.570441,0.03323 -0.840495,0.09595 0.01655,0.06604 0.03285,0.133788 0.04899,0.202799 0.254305,-0.05871 0.519242,-0.08976 0.791504,-0.08976 0.307502,0 0.605686,0.03967 0.889729,0.114014 0.0181,-0.06856 0.03634,-0.135762 0.05477,-0.201335 C 38.726389,2.692068 38.40984,2.649755 38.083486,2.649754 Z m -1.341634,0.250814 c -0.567152,0.220694 -1.066676,0.577118 -1.458415,1.029379 0.05176,0.04332 0.10424,0.08811 0.157389,0.134033 0.36938,-0.425711 0.840177,-0.761018 1.374919,-0.96875 -0.0256,-0.06598 -0.0503,-0.130898 -0.07389,-0.194662 z m 2.78247,0.04004 c -0.02538,0.06305 -0.05189,0.12734 -0.07935,0.192546 0.5274,0.222739 0.988527,0.571085 1.345947,1.00765 0.05465,-0.04459 0.108605,-0.08803 0.161784,-0.130046 -0.379367,-0.463553 -0.868866,-0.833633 -1.428386,-1.07015 z m -4.55542,1.408936 c -0.319098,0.49493 -0.523399,1.070753 -0.575358,1.689779 0.06743,0.0046 0.136291,0.0099 0.20638,0.01587 0.04915,-0.583676 0.24149,-1.126178 0.54183,-1.592448 -0.05902,-0.03804 -0.116715,-0.07577 -0.172852,-0.113201 z m 6.286459,0.08944 c -0.05747,0.03601 -0.116603,0.07227 -0.177002,0.108805 0.286101,0.473498 0.46292,1.020586 0.495687,1.606527 0.07086,-0.004 0.140537,-0.0074 0.208658,-0.01017 -0.03462,-0.621646 -0.22283,-1.202431 -0.527343,-1.705159 z m -6.662273,2.114583 c -0.07022,0.0039 -0.139185,0.0074 -0.206705,0.01009 0.0349,0.621476 0.223122,1.202315 0.527506,1.705078 0.05715,-0.0358 0.115899,-0.07191 0.175944,-0.108235 C 34.803391,7.68684 34.626194,7.139556 34.593088,6.553563 Z m 6.973796,0.0988 c -0.04939,0.583113 -0.24159,1.125284 -0.541667,1.59139 0.05933,0.03822 0.117402,0.07615 0.173829,0.113769 0.319292,-0.49484 0.523863,-1.07042 0.576171,-1.689046 -0.06804,-0.0047 -0.137591,-0.01013 -0.208333,-0.01611 z m -6.189372,1.91512 c -0.05442,0.04439 -0.108176,0.08764 -0.161132,0.129476 0.379275,0.463769 0.868662,0.834016 1.428141,1.070557 0.02538,-0.06303 0.0519,-0.127275 0.07935,-0.192465 C 36.196406,9.3524 35.735147,9.004053 35.377517,8.567483 Z m 5.348959,0.07487 c -0.369065,0.425752 -0.839384,0.761272 -1.373617,0.96932 0.0256,0.06598 0.05038,0.130979 0.07398,0.194742 0.566742,-0.220925 1.065971,-0.577415 1.457682,-1.029541 -0.05195,-0.0435 -0.10469,-0.08841 -0.15804,-0.134521 z M 37.195709,9.73537 c -0.0181,0.06856 -0.03634,0.135763 -0.05477,0.201335 0.300973,0.07913 0.616839,0.121257 0.942546,0.121257 0.289721,-10e-7 0.571779,-0.03338 0.842448,-0.09644 -0.01656,-0.06606 -0.03284,-0.133763 -0.04899,-0.202799 -0.254876,0.05906 -0.520529,0.09025 -0.793457,0.09025 -0.306828,0 -0.604295,-0.03949 -0.887777,-0.113607 z" />
      <path
         id="path20503"
         style="color:#000000;fill:#00ff00;stroke-width:1.44444;stroke-dasharray:none"
         d="M 39.476549,2.069441 C 39.114003,1.951642 38.747318,1.882475 38.383454,1.858113 c 0.01332,0.06202 0.02204,0.132934 0.02698,0.211135 0.333458,0.02575 0.669253,0.09098 1.001537,0.19895 0.372715,0.121102 0.717576,0.288285 1.030304,0.493066 0.05163,-0.05889 0.101789,-0.109695 0.150181,-0.150662 C 40.25519,2.384744 39.881546,2.201032 39.476551,2.069441 Z M 37.913217,1.851389 c -0.797035,0.03067 -1.565114,0.27391 -2.228025,0.69077 0.04691,0.04223 0.0953,0.09425 0.144904,0.154213 0.612875,-0.377596 1.317875,-0.600297 2.050153,-0.635015 0.0072,-0.07789 0.01792,-0.148445 0.03297,-0.209968 z m 3.055674,1.041194 c -0.02562,0.05784 -0.06022,0.120103 -0.102044,0.18607 0.557922,0.473831 0.981358,1.080362 1.237038,1.754515 0.0756,-0.01711 0.145384,-0.02866 0.208101,-0.03344 -0.271031,-0.73588 -0.731762,-1.397026 -1.343095,-1.907145 z m -5.668906,-0.07923 c -0.60538,0.475233 -1.09504,1.109784 -1.397131,1.867083 0.06314,0.0066 0.133266,0.02044 0.209146,0.03997 0.283784,-0.69299 0.732331,-1.276194 1.284533,-1.718583 -0.03985,-0.06694 -0.07254,-0.130055 -0.09655,-0.188475 z m 7.151555,2.436203 c -0.05444,0.03149 -0.118552,0.06137 -0.190608,0.08995 0.167426,0.686462 0.167356,1.422134 -0.03129,2.146495 0.07135,0.03063 0.134697,0.06229 0.188335,0.09533 0.223442,-0.786372 0.222558,-1.587354 0.03356,-2.331782 z M 33.751003,5.126451 c -0.223012,0.786137 -0.221816,1.586949 -0.03282,2.331338 0.05472,-0.03158 0.119199,-0.06156 0.191636,-0.09022 -0.166955,-0.686048 -0.166744,-1.421214 0.0314,-2.145002 -0.07212,-0.03089 -0.136109,-0.06278 -0.19022,-0.09612 z m 8.514969,2.900852 c -0.06264,-0.0066 -0.132147,-0.02018 -0.207341,-0.03947 -0.28416,0.692919 -0.733148,1.276184 -1.285975,1.718543 0.03958,0.0665 0.07212,0.129277 0.09605,0.187371 0.605333,-0.475204 1.094975,-1.109585 1.397265,-1.86644 z M 34.066765,7.874215 c -0.07592,0.01724 -0.146,0.0289 -0.208973,0.03375 0.271001,0.735796 0.731413,1.39699 1.342426,1.907098 0.02566,-0.0579 0.06016,-0.12029 0.102042,-0.186327 C 34.744844,9.15487 34.322034,8.548326 34.066765,7.87421 Z m 6.272275,2.137244 c -0.613077,0.377385 -1.31818,0.600081 -2.05036,0.634863 -0.0071,0.07785 -0.01781,0.148335 -0.03284,0.209838 0.796774,-0.03087 1.564633,-0.274273 2.227455,-0.691126 -0.04671,-0.04211 -0.09488,-0.09389 -0.144255,-0.153575 z m -4.612205,-0.06507 c -0.05165,0.05892 -0.101802,0.109753 -0.150206,0.150739 0.337215,0.225924 0.710789,0.409531 1.11575,0.541111 0.362518,0.117789 0.729235,0.187035 1.093095,0.211328 -0.01331,-0.06201 -0.02197,-0.132925 -0.0269,-0.211109 -0.333522,-0.02571 -0.669355,-0.09102 -1.001614,-0.198976 -0.372741,-0.121109 -0.71749,-0.288237 -1.030125,-0.493093 z" />
    </g>
    <g
       id="g21610"
       transform="matrix(0.33981402,0,0,0.33981402,27.009536,9.8269261)">
      <path
         id="path21604"
         style="color:#000000;fill:#00ff00;-inkscape-stroke:none"
         d="m -34.552734,-23.529297 c 0.554066,0 1.073512,-0.150552 1.519694,-0.41276 -0.08086,-0.121784 -0.160401,-0.236862 -0.237712,-0.340983 -0.377832,0.214952 -0.815284,0.337728 -1.281982,0.337728 -0.347405,0 -0.678648,-0.06799 -0.98112,-0.191407 -0.07413,0.110597 -0.149892,0.230091 -0.2264,0.354574 0.369864,0.162547 0.778356,0.252848 1.20752,0.252848 z m -1.829427,-0.621012 c 0.09021,-0.111045 0.176727,-0.220104 0.256347,-0.325277 -0.251596,-0.192101 -0.466789,-0.42937 -0.633707,-0.699707 -0.12555,0.04911 -0.25611,0.103121 -0.388917,0.159424 0.197661,0.335529 0.458625,0.629505 0.766277,0.86556 z m 3.907389,-0.213867 c 0.248111,-0.237356 0.455734,-0.516632 0.611409,-0.826416 -0.137475,-0.05156 -0.270284,-0.09873 -0.394775,-0.138265 -0.125183,0.237732 -0.286325,0.453444 -0.476074,0.640136 0.0778,0.103575 0.165547,0.21247 0.25944,0.324545 z m -4.969238,-1.336263 c 0.138006,-0.03558 0.273499,-0.07157 0.402832,-0.108318 -0.06726,-0.230979 -0.103353,-0.47535 -0.103353,-0.728352 0,-0.728269 0.298778,-1.38536 0.78068,-1.855713 -0.08736,-0.103291 -0.178969,-0.208741 -0.271728,-0.314535 -0.570916,0.548158 -0.926921,1.318589 -0.926921,2.170248 0,0.290239 0.04138,0.570978 0.11849,0.83667 z m 5.820719,-0.152832 c 0.05124,-0.219736 0.07837,-0.448681 0.07837,-0.683838 0,-0.791003 -0.306601,-1.511945 -0.807292,-2.049805 -0.09156,0.111448 -0.180043,0.22124 -0.262125,0.327474 0.406669,0.45753 0.653402,1.060525 0.653401,1.722331 0,0.198042 -0.02219,0.390815 -0.06405,0.576009 0.125109,0.03721 0.260367,0.07299 0.401693,0.107829 z m -1.515788,-2.857748 c 0.07189,-0.112606 0.144801,-0.231601 0.218099,-0.353353 -0.337035,-0.218663 -0.720313,-0.371749 -1.131754,-0.440918 -0.0091,0.142834 -0.01745,0.284111 -0.02319,0.420004 0.340485,0.06305 0.657377,0.192418 0.936849,0.374267 z m -2.654297,-0.103271 c 0.306047,-0.166761 0.649699,-0.273587 1.015218,-0.304932 -0.0096,-0.135226 -0.02165,-0.275118 -0.03451,-0.416423 -0.434469,0.03738 -0.843021,0.167456 -1.205485,0.370443 0.07528,0.119396 0.150519,0.237541 0.224772,0.350912 z"
         transform="scale(-1)"
         sodipodi:nodetypes="sccsccsccccccccccccsccsccsccscccccccccccc" />
      <path
         id="path21606"
         style="color:#000000;fill:#00ff00;-inkscape-stroke:none"
         d="m -34.552734,-22.730469 c 0.294645,0 0.58154,-0.03359 0.857096,-0.09709 -0.03399,-0.135117 -0.06828,-0.270439 -0.103027,-0.402751 -0.242439,0.05485 -0.4948,0.08382 -0.754069,0.08382 -0.141517,0 -0.280952,-0.0086 -0.417888,-0.02539 -0.02764,0.119784 -0.05489,0.241634 -0.08211,0.363281 -0.0033,0.01474 -0.0066,0.02938 -0.0099,0.04411 0.166839,0.02238 0.337033,0.03402 0.509929,0.03402 z m -1.298584,-0.227539 c 0.01164,-0.029 0.02324,-0.05793 0.03491,-0.087 0.04007,-0.09979 0.08008,-0.199672 0.119222,-0.298747 -1.071,-0.382521 -1.892115,-1.287104 -2.157145,-2.408773 -0.14054,0.01327 -0.280574,0.02657 -0.417481,0.03825 0.282448,1.278224 1.208765,2.316193 2.420492,2.756266 z m 2.909505,-0.129476 c 1.092405,-0.511204 1.903199,-1.525813 2.132161,-2.744222 -0.05932,-0.0039 -0.118884,-0.0081 -0.178548,-0.01213 -0.08057,-0.0055 -0.161099,-0.01076 -0.241292,-0.01595 -0.214306,1.06123 -0.922642,1.941204 -1.87557,2.390625 0.05294,0.125942 0.10803,0.253985 0.163249,0.381673 z m -5.003337,-3.471679 c 0.0032,-0.500294 0.114244,-0.974672 0.311198,-1.401042 -0.121872,-0.07234 -0.241886,-0.144245 -0.356771,-0.215658 -0.231023,0.482966 -0.363212,1.021965 -0.37028,1.590658 0.135869,0.0073 0.275382,0.01654 0.415853,0.02604 z m 6.781739,-0.06982 c 0.05509,-0.0051 0.11031,-0.01043 0.165446,-0.01563 0.0843,-0.008 0.168128,-0.0157 0.251546,-0.02327 -0.01776,-0.524272 -0.141852,-1.021975 -0.3514,-1.472087 -0.109851,0.07033 -0.222494,0.141173 -0.335693,0.21224 -0.0065,0.0041 -0.01296,0.0081 -0.01945,0.01221 0.175234,0.394712 0.277445,0.829225 0.289551,1.286539 z m -0.703451,-1.980875 c 0.105102,-0.09263 0.209681,-0.184698 0.312744,-0.273356 -0.697648,-0.889882 -1.782211,-1.462484 -2.998616,-1.462484 -0.263786,0 -0.521393,0.02696 -0.770183,0.07821 0.03692,0.129323 0.07271,0.264489 0.108073,0.402263 0.214109,-0.04225 0.435485,-0.06445 0.66211,-0.06445 1.094625,0 2.066362,0.516729 2.685872,1.319825 z m -5.323649,-0.06242 c 0.314999,-0.388848 0.714294,-0.706467 1.170329,-0.925211 -0.05567,-0.130425 -0.10951,-0.258943 -0.158773,-0.383545 -0.51906,0.245959 -0.973885,0.605878 -1.332113,1.047281 0.10489,0.0831 0.212179,0.171396 0.320557,0.261475 z"
         transform="scale(-1)"
         sodipodi:nodetypes="sccscscscsccccccscccccccccsccsccccsccscccccc" />
      <path
         id="path21608"
         style="color:#000000;fill:#00ff00;-inkscape-stroke:none"
         d="m -34.812581,-21.937012 c 0.0034,-0.133361 0.01032,-0.272781 0.01888,-0.415527 -0.543949,-0.03073 -1.059938,-0.164854 -1.528646,-0.383057 -0.07533,0.123293 -0.150255,0.242009 -0.224447,0.352621 0.529952,0.254987 1.115971,0.411507 1.734213,0.445963 z m 0.909505,-0.03825 c 1.524677,-0.215614 2.810487,-1.178948 3.474121,-2.506429 -0.126063,-0.04326 -0.257261,-0.09217 -0.391439,-0.144206 -0.604326,1.179494 -1.751187,2.033645 -3.112793,2.234782 0.01232,0.142595 0.02295,0.282095 0.03011,0.415853 z m -3.429525,-0.888021 c 0.07749,-0.106173 0.162951,-0.215878 0.253174,-0.3278 -1.011707,-0.764681 -1.664714,-1.978059 -1.664714,-3.346028 0,-0.174139 0.01061,-0.34578 0.03117,-0.514323 -0.124867,-0.03554 -0.242014,-0.07295 -0.348145,-0.113282 -0.01886,-0.0072 -0.03726,-0.01441 -0.05542,-0.02173 -0.03001,0.212186 -0.04557,0.428961 -0.04557,0.649333 0,1.499208 0.718572,2.832187 1.829508,3.673828 z m 7.230225,-2.477946 c 0.102409,-0.381431 0.157063,-0.782343 0.157064,-1.195882 -10e-7,-0.228948 -0.01683,-0.454004 -0.04915,-0.674073 -0.125185,0.04322 -0.260805,0.08413 -0.402588,0.123861 0.02353,0.180046 0.03573,0.363698 0.03573,0.550212 0,0.377416 -0.04976,0.743027 -0.142985,1.090739 0.139828,0.03372 0.274899,0.06849 0.401937,0.105143 z m -8.398845,-2.607259 c 0.216249,-0.606463 0.567882,-1.148275 1.018799,-1.58903 -0.04416,-0.05963 -0.08526,-0.11807 -0.122477,-0.174968 -0.04018,-0.06142 -0.0759,-0.120916 -0.106364,-0.179443 -0.532974,0.502051 -0.946658,1.129424 -1.193522,1.834635 0.03683,0.0073 0.0745,0.01581 0.1132,0.02523 0.09196,0.02239 0.18923,0.05083 0.290364,0.08358 z m 7.890463,-0.01815 c 0.13583,-0.05346 0.266951,-0.10152 0.390543,-0.140625 -0.58694,-1.61767 -2.054275,-2.815329 -3.821289,-3.010986 0.0097,0.05954 0.01658,0.12234 0.02157,0.188395 0.0056,0.07408 0.0086,0.152505 0.0098,0.234131 1.575579,0.203222 2.875034,1.279712 3.399415,2.729085 z m -6.145101,-2.139486 c 0.538771,-0.33332 1.158904,-0.547931 1.824137,-0.607422 -4.1e-4,-0.07047 7.3e-4,-0.138516 0.0039,-0.203287 0.0037,-0.07641 0.0096,-0.148372 0.01953,-0.216146 -0.777018,0.05948 -1.500601,0.312304 -2.122639,0.710286 0.05203,0.04946 0.103174,0.105542 0.15511,0.166748 0.03971,0.04679 0.07973,0.09695 0.119955,0.149821 z"
         transform="scale(-1)"
         sodipodi:nodetypes="ccccccccccccscscsccsccsccccsccsccccsccccsccsc" />
    </g>
    <g
       id="g21625"
       transform="matrix(0.36352094,0,0,0.36352094,41.674391,2.3456085)">
      <path
         id="path21619"
         style="color:#000000;fill:#00ff00;-inkscape-stroke:none"
         d="m 7.4495443,23.063151 c -0.2130281,0 -0.4189382,0.03093 -0.6135254,0.08846 0.05091,0.113666 0.1012088,0.216388 0.1505534,0.302246 0.1478336,-0.03831 0.3029906,-0.05868 0.462972,-0.05868 0.00915,0 0.018224,1.12e-4 0.027344,2.44e-4 0.027577,-0.09522 0.05192,-0.20719 0.074382,-0.329915 -0.033721,-0.0016 -0.067623,-0.0024 -0.1017252,-0.0024 z m 0.5074056,0.05998 c -0.012746,0.12391 -0.020557,0.238038 -0.020752,0.337077 0.161588,0.04421 0.3141966,0.109904 0.4545899,0.193848 0.071194,-0.06846 0.1480116,-0.15282 0.2284342,-0.247396 C 8.4186464,23.277509 8.1953934,23.180551 7.9569499,23.123128 Z m -1.5009766,0.181478 c -0.2154408,0.111644 -0.4099305,0.258431 -0.5756836,0.432699 0.1005427,0.07268 0.1951374,0.136261 0.2805176,0.185791 0.117305,-0.115753 0.2501248,-0.215819 0.3951823,-0.296713 -0.023714,-0.09595 -0.058286,-0.204757 -0.1000163,-0.321777 z m 2.4853516,0.355387 c -0.072654,0.10051 -0.1362758,0.195082 -0.185791,0.280437 0.115751,0.1173 0.2157362,0.250211 0.2966308,0.395263 0.095994,-0.02371 0.2047676,-0.05834 0.3218587,-0.100097 C 9.2623707,24.020137 9.1156115,23.825755 8.9413249,23.659993 Z m -3.314209,0.399496 c -0.1291741,0.200607 -0.2261863,0.423785 -0.28361,0.662272 0.1239095,0.01275 0.238038,0.02048 0.3370768,0.02067 0.044203,-0.161558 0.1099207,-0.314139 0.1938476,-0.454509 -0.068457,-0.07119 -0.1527385,-0.148008 -0.2473144,-0.228434 z m 3.8999837,0.556152 c -0.1136661,0.05091 -0.2164693,0.101209 -0.3023275,0.150554 0.038312,0.147839 0.058757,0.302984 0.058757,0.462972 0,0.0091 -1.119e-4,0.01825 -2.441e-4,0.02734 0.095222,0.02758 0.2071117,0.052 0.329834,0.07446 0.00157,-0.03375 0.00244,-0.06768 0.00244,-0.101806 0,-0.213028 -0.030927,-0.418939 -0.08846,-0.613526 z m -4.2412109,0.511638 c -0.00157,0.03377 -0.00236,0.06774 -0.00236,0.101888 0,0.213033 0.030924,0.418934 0.08846,0.613525 0.1136661,-0.05091 0.216388,-0.101209 0.3022461,-0.150553 -0.038311,-0.147838 -0.058675,-0.302986 -0.058675,-0.462972 0,-0.0091 1.12e-4,-0.01825 2.441e-4,-0.02734 -0.095227,-0.02758 -0.2071846,-0.05208 -0.3299153,-0.07454 z m 3.9326172,0.588541 c -0.044198,0.16156 -0.1099253,0.314136 -0.1938477,0.454509 0.068472,0.07121 0.1528009,0.148077 0.2473958,0.228515 C 9.4012137,26.198251 9.4980807,25.97504 9.5555013,25.736572 9.4316558,25.723835 9.317505,25.716019 9.2185059,25.71582 Z m -3.3717448,0.40682 c -0.095952,0.02371 -0.204757,0.05837 -0.3217774,0.100098 0.1116527,0.215458 0.2584933,0.40984 0.43278,0.575602 0.072653,-0.100508 0.1361949,-0.195082 0.1857096,-0.280436 C 6.0277203,26.400598 5.927655,26.267699 5.8467611,26.12264 Z m 2.8915201,0.412516 c -0.1173212,0.11578 -0.2501789,0.215885 -0.3952636,0.296794 0.023709,0.09593 0.058379,0.204703 0.1000976,0.321696 C 8.658569,27.041994 8.8529585,26.895231 9.0187174,26.720947 8.9182093,26.648294 8.8236353,26.584671 8.7382812,26.535156 Z m -2.2300618,0.269125 c -0.071172,0.06844 -0.1479574,0.152774 -0.2283529,0.247314 0.2006031,0.129172 0.4237899,0.226105 0.6622722,0.283529 0.012738,-0.123847 0.020472,-0.237996 0.02067,-0.336996 -0.16159,-0.04421 -0.3141949,-0.109902 -0.4545893,-0.193847 z m 1.4042969,0.200195 c -0.1478565,0.03832 -0.3029632,0.05868 -0.462972,0.05868 -0.00912,0 -0.018252,-1.12e-4 -0.027344,-2.44e-4 -0.027571,0.0952 -0.052005,0.207138 -0.074463,0.329834 0.033739,0.0016 0.067686,0.0024 0.1018067,0.0024 0.2130328,0 0.4189342,-0.03092 0.6135254,-0.08846 -0.05091,-0.113666 -0.1012088,-0.216388 -0.1505534,-0.302246 z" />
      <path
         id="path21621"
         style="color:#000000;fill:#00ff00;-inkscape-stroke:none"
         d="m 7.4495443,22.26237 c -0.05147,0 -0.1026506,0.0013 -0.1534831,0.0039 0.012073,0.111474 0.024188,0.22314 0.036784,0.332682 0.038674,-0.0017 0.077604,-0.0026 0.1166992,-0.0026 0.2968496,0 0.5820608,0.04891 0.8480631,0.139079 0.042615,-0.101382 0.08536,-0.204828 0.1280111,-0.308187 C 8.1198355,22.320489 7.7913775,22.26237 7.4495443,22.26237 Z M 6.8938802,22.31453 C 6.509921,22.3875 6.1520083,22.53465 5.835612,22.740474 5.90141,22.830434 5.9673404,22.920482 6.0326335,23.00854 6.3041025,22.835207 6.60967,22.710341 6.9371745,22.645991 6.9233705,22.536719 6.9086455,22.425543 6.8938802,22.31453 Z m 1.9041341,0.272135 c -0.045081,0.102121 -0.090189,0.204364 -0.1338704,0.305094 0.2919952,0.151747 0.5517862,0.356583 0.7666829,0.601807 0.087258,-0.06623 0.1756384,-0.134141 0.263916,-0.202067 C 9.4451176,23.002614 9.1408326,22.762249 8.7980143,22.58667 Z m -3.2861328,0.397217 c -0.2889094,0.249641 -0.5292517,0.553964 -0.704834,0.89681 0.1021116,0.04508 0.2043742,0.09011 0.3050944,0.133789 0.1517535,-0.291992 0.356578,-0.551792 0.6018067,-0.766683 -0.066222,-0.08724 -0.1341548,-0.175656 -0.2020671,-0.263916 z m 4.4263509,0.631429 c -0.089956,0.06579 -0.180016,0.131652 -0.2680664,0.19694 0.1733329,0.271469 0.2981994,0.577036 0.362549,0.904541 0.109299,-0.01381 0.220422,-0.02852 0.331461,-0.04329 -0.07298,-0.383915 -0.220148,-0.741821 -0.4259436,-1.058187 z m -5.2906087,0.637695 c -0.1067735,0.305804 -0.1648763,0.634295 -0.1648763,0.976156 0,0.05144 0.00131,0.102595 0.00391,0.153401 0.1114611,-0.01207 0.2230711,-0.02419 0.332601,-0.03678 -0.00168,-0.03867 -0.00252,-0.07752 -0.00252,-0.116618 0,-0.29685 0.048909,-0.582061 0.1390787,-0.848063 -0.1013707,-0.04261 -0.204838,-0.08545 -0.3081868,-0.128093 z m 5.7647303,0.822673 c -0.111474,0.01207 -0.22306,0.02427 -0.332601,0.03687 0.0017,0.03866 0.0026,0.07754 0.0026,0.116618 0,0.296849 -0.04891,0.582061 -0.139079,0.848063 0.101381,0.04261 0.204828,0.08536 0.308187,0.128011 0.106757,-0.305783 0.164876,-0.634241 0.164876,-0.976074 0,-0.05147 -0.0014,-0.102651 -0.004,-0.153483 z M 4.8663737,25.74145 c -0.109274,0.0138 -0.2204469,0.02861 -0.3314616,0.04338 0.072981,0.383945 0.2201229,0.741883 0.425944,1.058268 0.089969,-0.0658 0.1800034,-0.131725 0.2680664,-0.197022 C 5.0555743,26.374586 4.930719,26.068991 4.8663737,25.741455 Z m 4.9204915,0.702393 c -0.1517514,0.291974 -0.3565898,0.55172 -0.6018066,0.766601 0.066239,0.08726 0.134218,0.175632 0.2021484,0.263916 0.2888464,-0.249605 0.5291912,-0.553954 0.704753,-0.896728 -0.1021103,-0.04508 -0.2043761,-0.09011 -0.3050948,-0.133789 z m -4.3186849,0.520833 c -0.087247,0.06623 -0.1756497,0.134231 -0.263916,0.202148 0.2496336,0.288889 0.5539828,0.529261 0.8968099,0.704834 0.045071,-0.102099 0.090117,-0.204386 0.1337891,-0.305094 C 5.9428554,27.41481 5.6830802,27.209925 5.4681803,26.964681 Z m 3.3981934,0.485026 c -0.271498,0.173357 -0.5769949,0.298283 -0.904541,0.36263 0.013804,0.109276 0.028609,0.220445 0.043376,0.331462 C 8.3891355,28.070814 8.747022,27.923656 9.0633956,27.71785 8.9975806,27.62786 8.9316836,27.537781 8.8663737,27.449702 Z M 6.6014811,27.7229 c -0.042615,0.101382 -0.085441,0.204828 -0.1280924,0.308187 0.3058035,0.106774 0.6342953,0.164877 0.9761556,0.164877 0.051443,0 0.1025952,-0.0014 0.1534017,-0.004 -0.01207,-0.111447 -0.024191,-0.223085 -0.036784,-0.332601 -0.038674,0.0017 -0.077523,0.0026 -0.1166178,0.0026 -0.2968496,0 -0.5820609,-0.04891 -0.8480632,-0.139079 z" />
      <path
         id="path21623"
         style="color:#000000;fill:#00ff00;-inkscape-stroke:none"
         d="m 7.4495443,21.461589 c -0.4266969,0 -0.8369973,0.07123 -1.2196452,0.202392 0.043543,0.09397 0.087791,0.197645 0.132487,0.306966 0.3415703,-0.113705 0.7070899,-0.175374 1.0871582,-0.175374 0.094603,0 0.1882684,0.0039 0.2809245,0.01139 0.017445,-0.117081 0.035763,-0.228633 0.055745,-0.330485 -0.1109314,-0.0099 -0.2232081,-0.01489 -0.3366699,-0.01489 z m 0.7263997,0.07023 c -0.00928,0.103244 -0.022847,0.2153 -0.038818,0.332438 0.4632902,0.09395 0.8926228,0.280949 1.2674967,0.540771 0.073139,-0.09201 0.1442812,-0.17884 0.2120768,-0.256591 C 9.1924335,21.849188 8.703785,21.635234 8.175944,21.53182 Z m -2.3111165,0.279134 c -0.4811753,0.223834 -0.9074349,0.546352 -1.2526856,0.941406 0.084326,0.0594 0.1740277,0.126847 0.2669271,0.198812 0.3059251,-0.34502 0.6804577,-0.627815 1.1022136,-0.827311 -0.043262,-0.109717 -0.082948,-0.21504 -0.1164551,-0.312907 z m 4.061442,0.58081 c -0.059403,0.08434 -0.126755,0.174097 -0.1987304,0.267009 0.3450239,0.305929 0.6278139,0.68037 0.8273109,1.102132 0.109657,-0.04324 0.215006,-0.08288 0.312826,-0.116374 -0.223848,-0.481204 -0.546319,-0.907505 -0.9414065,-1.252767 z M 4.3688151,23.06193 c -0.2992893,0.424303 -0.5132037,0.912938 -0.6166178,1.440837 0.1032695,0.0093 0.2152701,0.02284 0.3324381,0.03882 0.093947,-0.463316 0.2809362,-0.892604 0.5407715,-1.267496 -0.092041,-0.07316 -0.1788211,-0.144345 -0.2565918,-0.212159 z m 6.6458329,0.947591 c -0.09394,0.04353 -0.197607,0.08781 -0.306884,0.132487 0.11371,0.341579 0.175374,0.70708 0.175374,1.087159 0,0.0946 -0.0039,0.188268 -0.01139,0.280924 0.11709,0.01745 0.228628,0.03576 0.330485,0.05575 0.0099,-0.110932 0.01489,-0.223208 0.01489,-0.33667 0,-0.4267 -0.07131,-0.836996 -0.202474,-1.219646 z m -7.3178707,0.882976 c -0.00986,0.110931 -0.014811,0.223208 -0.014811,0.33667 0,0.42667 0.071246,0.836936 0.2023926,1.219563 0.093945,-0.04353 0.1975955,-0.08772 0.3068848,-0.132405 -0.1137089,-0.341576 -0.175293,-0.707083 -0.175293,-1.087158 0,-0.0946 0.00391,-0.188269 0.011393,-0.280925 -0.1171189,-0.01745 -0.228687,-0.03576 -0.3305665,-0.05575 z m 7.1175947,1.024251 c -0.09395,0.463316 -0.280936,0.892605 -0.540772,1.267497 0.09202,0.07315 0.178913,0.144274 0.256673,0.212077 0.29926,-0.424279 0.513126,-0.912895 0.616537,-1.440756 -0.103248,-0.0093 -0.2153,-0.02285 -0.332438,-0.03882 z m -6.4701337,0.78068 c -0.1096825,0.04325 -0.2150661,0.08287 -0.3129069,0.116374 0.2238398,0.481188 0.5464188,0.90743 0.9414876,1.252686 0.05939,-0.08432 0.1267772,-0.174045 0.1987305,-0.266927 -0.3450398,-0.305933 -0.627806,-0.680359 -0.8273112,-1.102133 z m 5.6756997,0.809733 c -0.3059292,0.345025 -0.6803692,0.627815 -1.102132,0.827312 0.043247,0.10968 0.082874,0.214986 0.1163737,0.312825 0.4811862,-0.223839 0.907431,-0.546339 1.2526853,-0.941406 -0.0843,-0.05938 -0.17406,-0.12679 -0.266927,-0.198731 z m -4.5254719,0.546062 c -0.073152,0.09203 -0.1442699,0.178908 -0.2120768,0.256673 0.4242854,0.299263 0.9128861,0.513127 1.4407552,0.616536 0.00928,-0.103223 0.022851,-0.215248 0.038818,-0.332356 -0.4633168,-0.09395 -0.8926042,-0.281018 -1.2674964,-0.540853 z m 3.0422364,0.434163 c -0.3415782,0.113711 -0.7070798,0.175374 -1.0871582,0.175374 -0.094593,0 -0.1882784,-0.0039 -0.2809245,-0.01139 -0.017449,0.117111 -0.035757,0.228612 -0.055746,0.330485 0.1109055,0.0099 0.2232353,0.01489 0.33667,0.01489 0.4266919,0 0.8369196,-0.07132 1.2195638,-0.202474 -0.043532,-0.09395 -0.087721,-0.197594 -0.1324051,-0.306885 z" />
    </g>
  </g>
</svg>
