<?xml version="1.0" encoding="UTF-8" standalone="no"?>
<!-- Created with Inkscape (http://www.inkscape.org/) -->

<svg
   width="14in"
   height="8.5in"
   viewBox="0 0 56 34"
   version="1.1"
   id="svg5"
   inkscape:version="1.2.2 (b0a8486541, 2022-12-01)"
   sodipodi:docname="Pattern_Arc_part.svg"
   xmlns:inkscape="http://www.inkscape.org/namespaces/inkscape"
   xmlns:sodipodi="http://sodipodi.sourceforge.net/DTD/sodipodi-0.dtd"
   xmlns="http://www.w3.org/2000/svg"
   xmlns:svg="http://www.w3.org/2000/svg">
  <sodipodi:namedview
     id="namedview7"
     pagecolor="#ffffff"
     bordercolor="#000000"
     borderopacity="0.25"
     inkscape:showpageshadow="2"
     inkscape:pageopacity="0.0"
     inkscape:pagecheckerboard="0"
     inkscape:deskcolor="#d1d1d1"
     inkscape:document-units="mm"
     showgrid="true"
     inkscape:zoom="0.914906"
     inkscape:cx="-324.62351"
     inkscape:cy="427.91281"
     inkscape:window-width="3800"
     inkscape:window-height="2120"
     inkscape:window-x="3840"
     inkscape:window-y="0"
     inkscape:window-maximized="1"
     inkscape:current-layer="layer1">
    <inkscape:grid
       type="xygrid"
       id="grid182"
       units="in"
       spacingx="1"
       spacingy="1"
       empspacing="4"
       dotted="true" />
  </sodipodi:namedview>
  <defs
     id="defs2">
    <inkscape:path-effect
       effect="fill_between_many"
       method="originald"
       linkedpaths="#path1814,0,1"
       id="path-effect563" />
  </defs>
  <g
     inkscape:label="Layer 1"
     inkscape:groupmode="layer"
     id="layer1">
    <path
       style="fill:none;stroke:#00d76a;stroke-width:0.4;stroke-opacity:1"
       d="M 26.596656,18.122343 A 4,4 0 0 1 25.56138,14.25864 4,4 0 0 1 28.389808,11.430213 4,4 0 0 1 32.25351,12.465488"
       id="path2172" />
    <path
       style="fill:none;stroke:#00d76a;stroke-width:0.4;stroke-opacity:1"
       d="M 9.1438321,21.321139 A 4,4 0 0 0 7.9722592,18.492712 4,4 0 0 0 5.1438321,17.321139"
       id="path1149" />
    <path
       style="fill:none;stroke:#00d76a;stroke-width:0.4;stroke-opacity:1"
       d="M 49.620202,6.0011549 A 4,4 0 0 1 47.150936,9.696673 4,4 0 0 1 42.791775,8.829582 4,4 0 0 1 41.924684,4.4704212 4,4 0 0 1 45.620202,2.0011549"
       id="path1151" />
    <path
       style="fill:none;stroke:#00d76a;stroke-width:0.4;stroke-opacity:1"
       d="m 43.189827,12.634543 a 4,4 0 0 1 -2,3.464101 4,4 0 0 1 -4,0"
       id="path1155" />
    <path
       style="fill:none;stroke:#00d76a;stroke-width:0.4;stroke-opacity:1"
       d="m 51.95003,2.1714559 a 4,4 0 0 0 2,3.4641017"
       id="path1211" />
    <path
       style="fill:none;stroke:#00d76a;stroke-width:0.4;stroke-opacity:1"
       d="M 30.298731,22.702271 A 4,4 0 0 0 29.127158,19.873843"
       id="path1329" />
    <path
       style="fill:none;stroke:#00d76a;stroke-width:0.4;stroke-opacity:1"
       d="M 35.619835,17.153269 A 4,4 0 0 0 32.655112,13.289566"
       id="path1331" />
    <path
       style="fill:none;stroke:#00d76a;stroke-width:0.4;stroke-opacity:1"
       d="m 51.527882,25.859485 a 4,4 0 0 0 4,4"
       id="path1333" />
    <path
       style="fill:none;stroke:#00d76a;stroke-width:0.4;stroke-opacity:1"
       d="m 34.702873,1.6397679 a 4,4 0 0 1 -2,3.4641017"
       id="path1335" />
    <path
       style="fill:none;stroke:#00d76a;stroke-width:0.4;stroke-opacity:1"
       d="M 55.715195,3.375206 A 4,4 0 0 1 54.543622,6.2036331"
       id="path1339" />
    <path
       style="fill:none;stroke:#00d76a;stroke-width:0.4;stroke-opacity:1"
       d="M 50.669334,10.880055 A 4,4 0 0 1 53.634058,7.0163519"
       id="path1341" />
    <path
       style="fill:none;stroke:#00d76a;stroke-width:0.4;stroke-opacity:1"
       d="m 12.301638,16.912722 a 4,4 0 0 0 -2,-3.464102 4,4 0 0 0 -3.9999999,0"
       id="path1343" />
    <path
       style="fill:none;stroke:#00d76a;stroke-width:0.4;stroke-opacity:1"
       d="M 41.211851,12.226126 A 4,4 0 0 1 37.348148,9.2614019 4,4 0 0 1 39.211851,4.7620239"
       id="path1345" />
    <path
       style="fill:none;stroke:#00d76a;stroke-width:0.4;stroke-opacity:1"
       d="M 3.5931414,2.2957211 A 4,4 0 0 1 7.5589208,5.7736164 4,4 0 0 1 4.6284174,10.159424"
       id="path1347" />
    <path
       style="fill:none;stroke:#00d76a;stroke-width:0.4;stroke-opacity:1"
       d="m 20.405209,17.613455 a 4,4 0 0 0 -3.695519,2.469266 4,4 0 0 0 0.867091,4.359161"
       id="path1349" />
    <path
       style="fill:none;stroke:#00d76a;stroke-width:0.4;stroke-opacity:1"
       d="M 24.41918,3.8570134 A 4,4 0 0 1 25.454457,7.720717 4,4 0 0 1 22.626029,10.549144 4,4 0 0 1 18.762326,9.513868"
       id="path1351" />
    <path
       style="fill:none;stroke:#00d76a;stroke-width:0.4;stroke-opacity:1"
       d="m 39.377979,30.378332 a 4,4 0 0 0 4,4"
       id="path1353" />
    <path
       style="fill:none;stroke:#00d76a;stroke-width:0.4;stroke-opacity:1"
       d="m 20.407976,12.019033 a 4,4 0 0 1 -2,3.464102 4,4 0 0 1 -4,0"
       id="path1355" />
    <path
       style="fill:none;stroke:#00d76a;stroke-width:0.4;stroke-opacity:1"
       d="m 31.59493,26.778921 a 4,4 0 0 1 2,-3.464102"
       id="path1357" />
    <path
       style="fill:none;stroke:#00d76a;stroke-width:0.4;stroke-opacity:1"
       d="M 2.3072219,5.1846175 A 4,4 0 0 0 1.135649,2.3561904"
       id="path1361" />
    <path
       style="fill:none;stroke:#00d76a;stroke-width:0.4;stroke-opacity:1"
       d="m 14.810056,16.59304 a 4,4 0 0 1 -2.000001,3.464102"
       id="path1363" />
    <path
       style="fill:none;stroke:#00d76a;stroke-width:0.4;stroke-opacity:1"
       d="m 35.965244,3.067408 a 4,4 0 0 1 2.828427,1.1715728"
       id="path1367" />
    <path
       style="fill:none;stroke:#00d76a;stroke-width:0.4;stroke-opacity:1"
       d="M 2.2306018,16.912722 A 4,4 0 0 1 5.1953255,13.049019"
       id="path1369" />
    <path
       style="fill:none;stroke:#00d76a;stroke-width:0.4;stroke-opacity:1"
       d="M 50.737644,15.288407 A 4,4 0 0 0 48.268378,11.592889 4,4 0 0 0 43.909217,12.45998"
       id="path1373" />
    <path
       style="fill:none;stroke:#00d76a;stroke-width:0.4;stroke-opacity:1"
       d="m 20.232607,5.3734614 a 4,4 0 0 1 2.309527,-3.6252311 4,4 0 0 1 4.261623,0.5610533"
       id="path1375" />
    <path
       style="fill:none;stroke:#00d76a;stroke-width:0.4;stroke-opacity:1"
       d="m 11.726523,29.18345 a 4,4 0 0 1 2.469266,-3.695519 4,4 0 0 1 4.359161,0.867091 4,4 0 0 1 0.867091,4.359161 4,4 0 0 1 -3.695518,2.469267"
       id="path1377" />
    <path
       style="fill:none;stroke:#00d76a;stroke-width:0.4;stroke-opacity:1"
       d="M 17.587345,2.8911822 A 4,4 0 0 1 18.123244,0.89118217"
       id="path1379" />
    <path
       style="fill:none;stroke:#00d76a;stroke-width:0.4;stroke-opacity:1"
       d="m 50.277752,30.267902 a 4,4 0 0 0 2.964723,3.863703"
       id="path1381" />
    <path
       style="fill:none;stroke:#00d76a;stroke-width:0.4;stroke-opacity:1"
       d="m 4.7354155,22.829281 a 4,4 0 0 0 -4.00000004,-4"
       id="path1383" />
    <path
       style="fill:none;stroke:#00d76a;stroke-width:0.4;stroke-opacity:1"
       d="M 14.09956,12.304426 A 4,4 0 0 1 11.271133,11.132853"
       id="path1385" />
    <path
       style="fill:none;stroke:#00d76a;stroke-width:0.4;stroke-opacity:1"
       d="m 49.869335,26.059485 a 4,4 0 0 0 -3.863703,2.964724 4,4 0 0 0 1.863703,4.499378"
       id="path1387" />
    <path
       style="fill:none;stroke:#00d76a;stroke-width:0.4;stroke-opacity:1"
       d="m 25.016638,23.896711 a 4,4 0 0 1 -3.965779,-3.477895 4,4 0 0 1 2.930503,-4.385808"
       id="path1389" />
    <path
       style="fill:none;stroke:#00d76a;stroke-width:0.4;stroke-opacity:1"
       d="m 42.103282,21.56162 a 4,4 0 0 0 -2.469266,-3.695518 4,4 0 0 0 -4.359161,0.867091 4,4 0 0 0 -0.867091,4.359161 4,4 0 0 0 3.695518,2.469266"
       id="path1407" />
    <path
       style="fill:none;stroke:#00d76a;stroke-width:0.4;stroke-opacity:1"
       d="m 4.2144652,27.779003 a 4,4 0 0 1 -4.00000001,4"
       id="path1409" />
    <path
       style="fill:none;stroke:#00d76a;stroke-width:0.4;stroke-opacity:1"
       d="m 28.986694,5.6827579 a 4,4 0 0 1 2,-3.4641018"
       id="path1411" />
    <path
       style="fill:none;stroke:#00d76a;stroke-width:0.4;stroke-opacity:1"
       d="M 51.341613,1.5973256 A 4,4 0 0 1 50.17004,4.4257527"
       id="path1415" />
    <path
       style="fill:none;stroke:#00d76a;stroke-width:0.4;stroke-opacity:1"
       d="m 53.524181,15.496823 a 4,4 0 0 1 -2.964723,3.863704"
       id="path1417" />
    <path
       style="fill:none;stroke:#00d76a;stroke-width:0.4;stroke-opacity:1"
       d="m 8.2018034,1.7386459 a 4,4 0 0 0 4.0000006,4"
       id="path1419" />
    <path
       style="fill:none;stroke:#00d76a;stroke-width:0.4;stroke-opacity:1"
       d="m 47.123938,16.038445 a 4,4 0 0 1 0.535899,-2"
       id="path1421" />
    <path
       style="fill:none;stroke:#00d76a;stroke-width:0.4;stroke-opacity:1"
       d="M 9.3147975,12.504426 A 4,4 0 0 0 8.1432247,9.675999"
       id="path1423" />
    <path
       style="fill:none;stroke:#00d76a;stroke-width:0.4;stroke-opacity:1"
       d="m 8.7859511,33.839317 a 4,4 0 0 0 -4,-4"
       id="path1425" />
    <path
       style="fill:none;stroke:#00d76a;stroke-width:0.4;stroke-opacity:1"
       d="m 52.524891,21.45119 a 4,4 0 0 1 -2,3.464101 4,4 0 0 1 -4,0"
       id="path1427" />
    <path
       style="fill:none;stroke:#00d76a;stroke-width:0.4;stroke-opacity:1"
       d="m 15.852236,5.8857207 a 4,4 0 0 0 2,3.4641017"
       id="path1429" />
    <path
       style="fill:none;stroke:#00d76a;stroke-width:0.4;stroke-opacity:1"
       d="M 5.8185899,27.503696 A 4,4 0 0 0 4.6470171,24.675269"
       id="path1433" />
    <path
       style="fill:none;stroke:#00d76a;stroke-width:0.4;stroke-opacity:1"
       d="M 10.122453,26.325893 A 4,4 0 0 1 8.1224526,29.789995"
       id="path1435" />
    <path
       style="fill:none;stroke:#00d76a;stroke-width:0.4;stroke-opacity:1"
       d="M 26.130255,27.221083 A 4,4 0 0 1 29.094978,23.35738"
       id="path1439" />
    <path
       style="fill:none;stroke:#00d76a;stroke-width:0.4;stroke-opacity:1"
       d="M 49.481547,21.242773 A 4,4 0 0 0 47.012281,17.547255 4,4 0 0 0 42.65312,18.414346"
       id="path1441" />
    <path
       style="fill:none;stroke:#00d76a;stroke-width:0.4;stroke-opacity:1"
       d="m 14.57108,21.529555 a 4,4 0 0 1 -2,3.464102 4,4 0 0 1 -3.9999999,-10e-7 4,4 0 0 1 -1.9999999,-3.464101"
       id="path1445" />
    <path
       style="fill:none;stroke:#00d76a;stroke-width:0.4;stroke-opacity:1"
       d="M 11.133324,10.560749 A 4,4 0 0 1 14.098047,6.6970458"
       id="path1447" />
    <path
       style="fill:none;stroke:#00d76a;stroke-width:0.4;stroke-opacity:1"
       d="m 24.002914,35.167217 a 4,4 0 0 1 4,-4"
       id="path1451" />
    <path
       style="fill:none;stroke:#00d76a;stroke-width:0.4;stroke-opacity:1"
       d="m 38.752296,25.970037 a 4,4 0 0 1 -2,3.464102"
       id="path1453" />
    <path
       style="fill:none;stroke:#00d76a;stroke-width:0.4;stroke-opacity:1"
       d="M 13.60755,3.9729908 A 4,4 0 0 1 14.779123,1.1445636"
       id="path1457" />
    <path
       style="fill:none;stroke:#00d76a;stroke-width:0.4;stroke-opacity:1"
       d="m 23.97868,27.782049 a 4,4 0 0 0 1.171573,2.828427"
       id="path1461" />
    <path
       style="fill:none;stroke:#00d76a;stroke-width:0.4;stroke-opacity:1"
       d="m 31.261423,14.072511 a 4,4 0 0 1 -2.964724,3.863704"
       id="path1465" />
    <path
       style="fill:none;stroke:#00d76a;stroke-width:0.4;stroke-opacity:1"
       d="m 1.0637753,11.327608 a 4,4 0 0 1 4,-3.9999999"
       id="path1467" />
    <path
       style="fill:none;stroke:#00d76a;stroke-width:0.4;stroke-opacity:1"
       d="M 28.752092,9.6539888 A 4,4 0 0 0 27.580519,6.8255617"
       id="path1469" />
    <path
       style="fill:none;stroke:#00d76a;stroke-width:0.4;stroke-opacity:1"
       d="m 32.477985,33.529499 a 4,4 0 0 1 -3.464101,-2 4,4 0 0 1 0,-4"
       id="path1471" />
    <path
       style="fill:none;stroke:#00d76a;stroke-width:0.4;stroke-opacity:1"
       d="m 36.803228,12.091711 a 4,4 0 0 1 -3.464102,-2 4,4 0 0 1 0,-3.9999999"
       id="path1473" />
    <path
       style="fill:none;stroke:#00d76a;stroke-width:0.4;stroke-opacity:1"
       d="m 45.260713,25.970037 a 4,4 0 0 1 -2,3.464101 4,4 0 0 1 -4,0"
       id="path1475" />
    <path
       style="fill:none;stroke:#00d76a;stroke-width:0.4;stroke-opacity:1"
       d="M 25.016638,12.406881 A 4,4 0 0 1 22.188211,11.235308"
       id="path1479" />
    <path
       style="fill:none;stroke:#00d76a;stroke-width:0.4;stroke-opacity:1"
       d="M 22.887852,25.610868 A 4,4 0 0 1 20.887851,29.07497"
       id="path1481" />
    <path
       style="fill:none;stroke:#00d76a;stroke-width:0.4;stroke-opacity:1"
       d="m 34.343879,28.019438 a 4,4 0 0 0 2,3.464102"
       id="path1483" />
  </g>
</svg>
