<?xml version="1.0" encoding="UTF-8" standalone="no"?>
<!-- Created with Inkscape (http://www.inkscape.org/) -->

<svg
   width="14in"
   height="8.5in"
   viewBox="0 0 56 34"
   version="1.1"
   id="svg658"
   xml:space="preserve"
   inkscape:version="1.2.2 (b0a8486541, 2022-12-01)"
   sodipodi:docname="Bar_solid_open.svg"
   xmlns:inkscape="http://www.inkscape.org/namespaces/inkscape"
   xmlns:sodipodi="http://sodipodi.sourceforge.net/DTD/sodipodi-0.dtd"
   xmlns="http://www.w3.org/2000/svg"
   xmlns:svg="http://www.w3.org/2000/svg"><sodipodi:namedview
     id="namedview660"
     pagecolor="#ffffff"
     bordercolor="#000000"
     borderopacity="0.25"
     inkscape:showpageshadow="2"
     inkscape:pageopacity="0.0"
     inkscape:pagecheckerboard="0"
     inkscape:deskcolor="#d1d1d1"
     inkscape:document-units="mm"
     showgrid="true"
     inkscape:zoom="1.2938725"
     inkscape:cx="496.95779"
     inkscape:cy="277.84809"
     inkscape:window-width="3800"
     inkscape:window-height="2120"
     inkscape:window-x="3840"
     inkscape:window-y="0"
     inkscape:window-maximized="1"
     inkscape:current-layer="layer1"><inkscape:grid
       type="xygrid"
       id="grid779"
       units="in"
       spacingx="0.8"
       originx="0"
       originy="0"
       spacingy="0.8" /></sodipodi:namedview><defs
     id="defs655" /><g
     inkscape:label="Layer 1"
     inkscape:groupmode="layer"
     id="layer1"><path
       id="rect23320"
       style="fill:#5bde00;fill-opacity:1;stroke:none;stroke-width:0.314961"
       d="M -0.033121745 0.1003418 L -0.033121745 34.166423 L 56.083577 34.166423 L 56.083577 0.1003418 L -0.033121745 0.1003418 z M 7.2866211 9.3252767 L 8.5105794 9.3252767 L 8.5105794 13.41626 L 7.2866211 13.41626 L 7.2866211 9.3252767 z M 17.552734 9.3252767 L 18.776693 9.3252767 L 18.776693 13.41626 L 17.552734 13.41626 L 17.552734 9.3252767 z M 27.818848 9.3252767 L 29.042806 9.3252767 L 29.042806 13.41626 L 27.818848 13.41626 L 27.818848 9.3252767 z M 38.085042 9.3252767 L 39.309001 9.3252767 L 39.309001 13.41626 L 38.085042 13.41626 L 38.085042 9.3252767 z M 12.181885 12.222168 L 13.881429 12.222168 L 13.881429 21.777832 L 12.181885 21.777832 L 12.181885 12.222168 z M 22.447998 12.222168 L 24.147542 12.222168 L 24.147542 21.777832 L 22.447998 21.777832 L 22.447998 12.222168 z M 32.714193 12.222168 L 34.413737 12.222168 L 34.413737 21.777832 L 32.714193 21.777832 L 32.714193 12.222168 z M 42.980306 12.222168 L 44.67985 12.222168 L 44.67985 21.777832 L 42.980306 21.777832 L 42.980306 12.222168 z M 7.2866211 15.057617 L 8.5105794 15.057617 L 8.5105794 19.1486 L 7.2866211 19.1486 L 7.2866211 15.057617 z M 17.552734 15.057617 L 18.776693 15.057617 L 18.776693 19.1486 L 17.552734 19.1486 L 17.552734 15.057617 z M 27.818848 15.057617 L 29.042806 15.057617 L 29.042806 19.1486 L 27.818848 19.1486 L 27.818848 15.057617 z M 38.085042 15.057617 L 39.309001 15.057617 L 39.309001 19.1486 L 38.085042 19.1486 L 38.085042 15.057617 z M 7.2866211 20.58374 L 8.5105794 20.58374 L 8.5105794 24.674723 L 7.2866211 24.674723 L 7.2866211 20.58374 z M 17.552734 20.58374 L 18.776693 20.58374 L 18.776693 24.674723 L 17.552734 24.674723 L 17.552734 20.58374 z M 27.818848 20.58374 L 29.042806 20.58374 L 29.042806 24.674723 L 27.818848 24.674723 L 27.818848 20.58374 z M 38.085042 20.58374 L 39.309001 20.58374 L 39.309001 24.674723 L 38.085042 24.674723 L 38.085042 20.58374 z " /></g></svg>
