<?xml version="1.0" encoding="UTF-8" standalone="no"?>
<!-- Created with Inkscape (http://www.inkscape.org/) -->

<svg
   width="14in"
   height="8.5in"
   viewBox="0 0 56 34"
   version="1.1"
   id="svg5"
   inkscape:version="1.2.2 (b0a8486541, 2022-12-01)"
   sodipodi:docname="Pattern_Bar_parallel_horiz.svg"
   xmlns:inkscape="http://www.inkscape.org/namespaces/inkscape"
   xmlns:sodipodi="http://sodipodi.sourceforge.net/DTD/sodipodi-0.dtd"
   xmlns="http://www.w3.org/2000/svg"
   xmlns:svg="http://www.w3.org/2000/svg">
  <sodipodi:namedview
     id="namedview7"
     pagecolor="#ffffff"
     bordercolor="#000000"
     borderopacity="0.25"
     inkscape:showpageshadow="2"
     inkscape:pageopacity="0.0"
     inkscape:pagecheckerboard="0"
     inkscape:deskcolor="#d1d1d1"
     inkscape:document-units="mm"
     showgrid="true"
     inkscape:zoom="0.50000001"
     inkscape:cx="-566.99998"
     inkscape:cy="-372.99999"
     inkscape:window-width="3800"
     inkscape:window-height="2120"
     inkscape:window-x="3840"
     inkscape:window-y="0"
     inkscape:window-maximized="1"
     inkscape:current-layer="layer1">
    <inkscape:grid
       type="xygrid"
       id="grid182"
       units="in"
       spacingx="1"
       spacingy="1"
       empspacing="4"
       dotted="true" />
  </sodipodi:namedview>
  <defs
     id="defs2">
    <inkscape:path-effect
       effect="fill_between_many"
       method="originald"
       linkedpaths="#path1814,0,1"
       id="path-effect563" />
  </defs>
  <g
     inkscape:label="Layer 1"
     inkscape:groupmode="layer"
     id="layer1">
    <path
       id="path2922"
       style="color:#000000;fill:#00ff00;-inkscape-stroke:none"
       d="M -0.052734375 -0.01953125 L -0.052734375 0.609375 L 56.235677 0.609375 L 56.216797 0.30273438 L 56.216797 -0.01953125 L -0.052734375 -0.01953125 z M -0.052734375 1.0078125 L -0.052734375 1.6386719 L 56.235677 1.6386719 L 56.216797 1.3300781 L 56.216797 1.0078125 L -0.052734375 1.0078125 z M -0.052734375 2.0351562 L -0.052734375 2.6660156 L 56.235677 2.6660156 L 56.216797 2.3574219 L 56.216797 2.0351562 L -0.052734375 2.0351562 z M -0.052734375 3.0644531 L -0.052734375 3.6933594 L 56.235677 3.6933594 L 56.216797 3.3867188 L 56.216797 3.0644531 L -0.052734375 3.0644531 z M -0.052734375 4.0917969 L -0.052734375 4.7226562 L 56.235677 4.7226562 L 56.216797 4.4140625 L 56.216797 4.0917969 L -0.052734375 4.0917969 z M -0.052734375 5.1210938 L -0.052734375 5.75 L 56.235677 5.75 L 56.216797 5.4433594 L 56.216797 5.1210938 L -0.052734375 5.1210938 z M -0.052734375 6.1484375 L -0.052734375 6.7773438 L 56.235677 6.7773438 L 56.216797 6.4707031 L 56.216797 6.1484375 L -0.052734375 6.1484375 z M -0.052734375 7.1757812 L -0.052734375 7.8066406 L 56.235677 7.8066406 L 56.216797 7.4980469 L 56.216797 7.1757812 L -0.052734375 7.1757812 z M -0.052734375 8.2050781 L -0.052734375 8.8339844 L 56.235677 8.8339844 L 56.216797 8.5273438 L 56.216797 8.2050781 L -0.052734375 8.2050781 z M -0.052734375 9.2324219 L -0.052734375 9.8632812 L 56.235677 9.8632812 L 56.216797 9.5546875 L 56.216797 9.2324219 L -0.052734375 9.2324219 z M -0.052734375 10.259766 L -0.052734375 10.890625 L 56.235677 10.890625 L 56.216797 10.582031 L 56.216797 10.259766 L -0.052734375 10.259766 z M -0.052734375 11.289062 L -0.052734375 11.917969 L 56.235677 11.917969 L 56.216797 11.611328 L 56.216797 11.289062 L -0.052734375 11.289062 z M -0.052734375 12.316406 L -0.052734375 12.947266 L 56.235677 12.947266 L 56.216797 12.638672 L 56.216797 12.316406 L -0.052734375 12.316406 z M -0.052734375 13.345703 L -0.052734375 13.974609 L 56.235677 13.974609 L 56.216797 13.667969 L 56.216797 13.345703 L -0.052734375 13.345703 z M -0.052734375 14.373047 L -0.052734375 15.001953 L 56.235677 15.001953 L 56.216797 14.695312 L 56.216797 14.373047 L -0.052734375 14.373047 z M -0.052734375 15.400391 L -0.052734375 16.03125 L 56.235677 16.03125 L 56.216797 15.722656 L 56.216797 15.400391 L -0.052734375 15.400391 z M -0.052734375 16.429688 L -0.052734375 17.058594 L 56.235677 17.058594 L 56.216797 16.751953 L 56.216797 16.429688 L -0.052734375 16.429688 z M -0.052734375 17.457031 L -0.052734375 18.087891 L 56.235677 18.087891 L 56.216797 17.779297 L 56.216797 17.457031 L -0.052734375 17.457031 z M -0.052734375 18.484375 L -0.052734375 19.115234 L 56.235677 19.115234 L 56.216797 18.806641 L 56.216797 18.484375 L -0.052734375 18.484375 z M -0.052734375 19.513672 L -0.052734375 20.142578 L 56.235677 20.142578 L 56.216797 19.835938 L 56.216797 19.513672 L -0.052734375 19.513672 z M -0.052734375 20.541016 L -0.052734375 21.171875 L 56.235677 21.171875 L 56.216797 20.863281 L 56.216797 20.541016 L -0.052734375 20.541016 z M -0.052734375 21.568359 L -0.052734375 22.199219 L 56.235677 22.199219 L 56.216797 21.890625 L 56.216797 21.568359 L -0.052734375 21.568359 z M -0.052734375 22.597656 L -0.052734375 23.226562 L 56.235677 23.226562 L 56.216797 22.919922 L 56.216797 22.597656 L -0.052734375 22.597656 z M -0.052734375 23.625 L -0.052734375 24.255859 L 56.235677 24.255859 L 56.216797 23.947266 L 56.216797 23.625 L -0.052734375 23.625 z M -0.052734375 24.654297 L -0.052734375 25.283203 L 56.235677 25.283203 L 56.216797 24.976562 L 56.216797 24.654297 L -0.052734375 24.654297 z M -0.052734375 25.681641 L -0.052734375 26.310547 L 56.235677 26.310547 L 56.216797 26.003906 L 56.216797 25.681641 L -0.052734375 25.681641 z M -0.052734375 26.708984 L -0.052734375 27.339844 L 56.235677 27.339844 L 56.216797 27.03125 L 56.216797 26.708984 L -0.052734375 26.708984 z M -0.052734375 27.738281 L -0.052734375 28.367188 L 56.235677 28.367188 L 56.216797 28.060547 L 56.216797 27.738281 L -0.052734375 27.738281 z M -0.052734375 28.765625 L -0.052734375 29.396484 L 56.235677 29.396484 L 56.216797 29.087891 L 56.216797 28.765625 L -0.052734375 28.765625 z M -0.052734375 29.792969 L -0.052734375 30.423828 L 56.235677 30.423828 L 56.216797 30.115234 L 56.216797 29.792969 L -0.052734375 29.792969 z M -0.052734375 30.822266 L -0.052734375 31.451172 L 56.235677 31.451172 L 56.216797 31.144531 L 56.216797 30.822266 L -0.052734375 30.822266 z M -0.052734375 31.849609 L -0.052734375 32.480469 L 56.235677 32.480469 L 56.216797 32.171875 L 56.216797 31.849609 L -0.052734375 31.849609 z M -0.052734375 32.878906 L -0.052734375 33.507812 L 56.235677 33.507812 L 56.216797 33.201172 L 56.216797 32.878906 L -0.052734375 32.878906 z " />
  </g>
</svg>
