<?xml version="1.0" encoding="UTF-8" standalone="no"?>
<!-- Created with Inkscape (http://www.inkscape.org/) -->

<svg
   width="14in"
   height="8.5in"
   viewBox="0 0 56 34"
   version="1.1"
   id="svg5"
   inkscape:version="1.2.2 (b0a8486541, 2022-12-01)"
   sodipodi:docname="Circle_target_zigzag.svg"
   xmlns:inkscape="http://www.inkscape.org/namespaces/inkscape"
   xmlns:sodipodi="http://sodipodi.sourceforge.net/DTD/sodipodi-0.dtd"
   xmlns="http://www.w3.org/2000/svg"
   xmlns:svg="http://www.w3.org/2000/svg">
  <sodipodi:namedview
     id="namedview7"
     pagecolor="#ffffff"
     bordercolor="#000000"
     borderopacity="0.25"
     inkscape:showpageshadow="2"
     inkscape:pageopacity="0.0"
     inkscape:pagecheckerboard="0"
     inkscape:deskcolor="#d1d1d1"
     inkscape:document-units="mm"
     showgrid="true"
     inkscape:zoom="1.4142136"
     inkscape:cx="761.90756"
     inkscape:cy="575.93847"
     inkscape:window-width="3800"
     inkscape:window-height="2120"
     inkscape:window-x="3840"
     inkscape:window-y="0"
     inkscape:window-maximized="1"
     inkscape:current-layer="layer1">
    <inkscape:grid
       type="xygrid"
       id="grid182"
       units="in"
       spacingx="1"
       spacingy="1"
       empspacing="4"
       dotted="true" />
  </sodipodi:namedview>
  <defs
     id="defs2">
    <inkscape:path-effect
       effect="fill_between_many"
       method="originald"
       linkedpaths="#path1814,0,1"
       id="path-effect563" />
  </defs>
  <g
     inkscape:label="Layer 1"
     inkscape:groupmode="layer"
     id="layer1">
    <g
       id="g1884"
       transform="translate(5.0766331,0.21259814)">
      <circle
         style="fill:#00ff00;fill-opacity:1;stroke:#00ff00;stroke-width:0.333333;stroke-dasharray:none;stroke-opacity:1"
         id="circle1772"
         cx="12.523209"
         cy="8.5045738"
         r="2" />
      <circle
         style="fill:none;fill-opacity:1;stroke:#00ff00;stroke-width:0.333333;stroke-dasharray:none;stroke-opacity:1"
         id="circle1774"
         cx="12.523209"
         cy="8.5045738"
         r="2.8" />
      <circle
         style="fill:none;fill-opacity:1;stroke:#00ff00;stroke-width:0.333333;stroke-dasharray:none;stroke-opacity:1"
         id="circle1776"
         cx="12.523209"
         cy="8.5045738"
         r="3.5999999" />
      <circle
         style="fill:none;fill-opacity:1;stroke:#00ff00;stroke-width:0.333333;stroke-dasharray:none;stroke-opacity:1"
         id="circle1778"
         cx="12.523209"
         cy="8.5045738"
         r="4.4000001" />
      <path
         id="path1782"
         style="fill:none;stroke:#00ff00;stroke-width:0.277778;stroke-dasharray:none"
         d="m 20.699733,9.7238112 c -0.06949,0.212286 -3.41083,0.172779 -3.445627,0.4185218 -0.0348,0.245743 2.181231,2.677634 2.067436,2.881078 -0.113795,0.203444 -2.091358,-0.464219 -2.232416,-0.269411 -0.141058,0.194808 0.5069,2.190537 0.326922,2.308997 -0.179978,0.11846 -2.613229,-2.089155 -2.810887,-1.963273 -0.197658,0.125881 -0.267513,3.241732 -0.487705,3.335635 -0.220192,0.0939 -1.126115,-1.699085 -1.354189,-1.681843 -0.228074,0.01724 -1.091209,1.654379 -1.29775,1.570792 -0.206541,-0.08359 -0.482095,-2.932485 -0.699802,-3.021652 -0.217707,-0.08917 -2.4426604,1.783923 -2.6445232,1.644879 -0.2018628,-0.139044 0.2604138,-1.595792 0.1001666,-1.787356 -0.1602472,-0.191564 -1.771225,0.37834 -1.87676,0.151957 C 6.2390633,13.085752 7.9856294,10.968579 7.8554309,10.742512 7.7252324,10.516445 5.0622755,10.222219 4.9837226,9.9825892 4.9051697,9.7429592 6.2310354,8.7608062 6.2131932,8.5013302 6.195351,8.2418542 4.8358678,7.4029792 4.8877279,7.1666972 c 0.05186,-0.236282 2.6744309,-0.218779 2.7700594,-0.464639 0.095629,-0.24586 -1.4927344,-2.59457 -1.3935118,-2.830886 0.099223,-0.236316 1.537587,0.20974 1.7070009,0.01968 0.1694139,-0.19006 -0.059395,-1.8470387 0.1689243,-1.9742801 0.2283191,-0.1272414 2.4775543,1.7215381 2.6814653,1.6106071 0.203911,-0.110931 0.392203,-2.9366997 0.650852,-2.9977066 0.25865,-0.061007 0.960724,1.7404595 1.191231,1.7370476 0.230507,-0.00341 1.097392,-1.7572489 1.290386,-1.6798882 0.192994,0.077361 0.350472,3.1722832 0.582277,3.2337622 0.231805,0.06148 2.578489,-1.9549037 2.760503,-1.8596009 0.182014,0.095303 -0.340856,2.0112429 -0.208546,2.1741999 0.13231,0.162957 2.041667,-0.532962 2.135211,-0.36655 0.09354,0.166412 -2.238915,2.626632 -2.159237,2.838763 0.07968,0.212131 3.507229,0.226151 3.532536,0.479465 0.02531,0.253314 -1.925536,1.138132 -1.915126,1.362311 0.01041,0.224179 2.087466,1.062543 2.01798,1.274829 z"
         sodipodi:nodetypes="sssssssssssssssssssssssssssssssss" />
    </g>
    <g
       id="g1877"
       transform="translate(0.9573678,-2.414211)">
      <g
         id="g572">
        <g
           id="g6557"
           transform="matrix(0,-0.56286542,0.56286542,0,-0.7552995,33.55066)"
           style="fill:none;stroke-width:0.559566;stroke-dasharray:none">
          <circle
             style="fill:none;fill-opacity:1;stroke:#00ff00;stroke-width:0.559566;stroke-dasharray:none;stroke-opacity:1"
             id="circle6549"
             cx="11.987673"
             cy="8.7048225"
             r="2" />
          <circle
             style="fill:none;fill-opacity:1;stroke:#00ff00;stroke-width:0.559566;stroke-dasharray:none;stroke-opacity:1"
             id="circle6551"
             cx="11.987673"
             cy="8.7048225"
             r="2.8" />
          <circle
             style="fill:none;fill-opacity:1;stroke:#00ff00;stroke-width:0.559566;stroke-dasharray:none;stroke-opacity:1"
             id="circle6553"
             cx="11.987673"
             cy="8.7048225"
             r="3.5999999" />
          <circle
             style="fill:none;fill-opacity:1;stroke:#00ff00;stroke-width:0.559566;stroke-dasharray:none;stroke-opacity:1"
             id="circle6555"
             cx="11.987673"
             cy="8.7048225"
             r="1.0659741" />
        </g>
        <path
           id="path1786"
           style="fill:none;stroke:#00ff00;stroke-width:0.19066"
           d="m 7.438894,26.803309 -1.0560074,0.833295 0.091039,1.496343 -1.4108241,-0.08907 -0.9188151,1.054038 -0.9251967,-1.122917 -1.4044426,0.157948 0.1565647,-1.311633 -1.12153287,-1.018005 1.05694297,-0.926743 -0.091975,-1.402896 1.4022036,0.04736 0.9274357,-1.012331 0.8197984,1.040585 1.509841,-0.07562 -0.1654786,1.328801 1.1304468,1.000837 z"
           sodipodi:nodetypes="cccccccccccccccccc" />
        <path
           id="path563"
           style="fill:none;stroke:#00ff00;stroke-width:0.228197"
           d="M 8.0869988,26.803277 6.8230876,27.800629 6.9320501,29.591567 5.2434669,29.484962 4.143758,30.746516 3.0364112,29.402522 1.3554658,29.591566 1.5428546,28.021703 0.20051743,26.803276 1.4655484,25.694078 1.3554656,24.014984 l 1.6782655,0.05668 1.1100267,-1.211636 0.981198,1.245453 1.8070943,-0.09051 -0.1980576,1.590411 1.353006,1.197879 z"
           sodipodi:nodetypes="cccccccccccccccccc" />
      </g>
    </g>
    <g
       id="g1867"
       transform="translate(2.2333739,-1.8129646)">
      <circle
         style="fill:none;fill-opacity:1;stroke:#00ff00;stroke-width:0.208333;stroke-dasharray:none;stroke-opacity:1"
         id="circle4402"
         cx="4.0790167"
         cy="16.847937"
         r="1.6" />
      <circle
         style="fill:none;fill-opacity:1;stroke:#00ff00;stroke-width:0.208333;stroke-dasharray:none;stroke-opacity:1"
         id="circle4404"
         cx="4.0790167"
         cy="16.847937"
         r="2.5999999" />
      <path
         id="circle4406"
         style="fill:none;stroke:#00ff00;stroke-width:0.212199"
         d="m 7.7457557,16.84804 c -0.014986,0.52938 -0.9596951,0.445896 -1.1753058,0.927434 -0.2156107,0.481537 0.4838098,1.283773 0.101324,1.665387 C 6.2892882,19.822474 5.582922,19.140825 5.1015671,19.341729 4.6202122,19.542633 4.6081672,20.522201 4.0789525,20.514843 3.5497379,20.507454 3.5423731,19.464799 3.0492352,19.265069 2.5560975,19.065341 1.843544,19.800717 1.4861311,19.440861 1.1287182,19.081005 1.8444306,18.473791 1.6603831,17.981051 1.4763356,17.488313 0.40749307,17.389731 0.41214945,16.84804 0.41680585,16.306349 1.3888942,16.298433 1.5884965,15.816602 1.7880987,15.33477 1.1235867,14.629443 1.4861311,14.255219 c 0.3625444,-0.374224 1.0858738,0.252136 1.5606122,0.05271 0.4747386,-0.199424 0.5321529,-1.145305 1.0322092,-1.126696 0.5000563,0.01861 0.4334486,0.940365 0.9124119,1.158141 0.4789634,0.217776 1.3205443,-0.471634 1.6804095,-0.08417 0.3598653,0.387474 -0.3708886,0.984546 -0.1841729,1.478918 0.1867159,0.494371 1.2731405,0.584523 1.2581547,1.113903 z"
         sodipodi:nodetypes="zzzzzzzzzzzzzzzzz" />
      <circle
         style="fill:none;fill-opacity:1;stroke:#00ff00;stroke-width:0.208333;stroke-dasharray:none;stroke-opacity:1"
         id="circle5595"
         cx="4.0790167"
         cy="16.847937"
         r="0.80000001" />
      <path
         id="path574"
         style="fill:none;stroke:#00ff00;stroke-width:0.140745"
         d="m 6.5110489,16.848005 c -0.00994,0.351121 -0.6365354,0.295748 -0.7795432,0.615137 -0.1430078,0.319389 0.3208957,0.851487 0.067205,1.104599 C 5.54502,18.820853 5.0765096,18.368737 4.7572421,18.50199 4.4379746,18.635244 4.4299855,19.28496 4.0789741,19.28008 3.7279628,19.275179 3.723078,18.583618 3.3959952,18.451144 3.0689125,18.31867 2.5962982,18.806422 2.3592376,18.567741 2.1221769,18.32906 2.5968863,17.926314 2.4748134,17.599496 2.3527406,17.272678 1.643811,17.207291 1.6468995,16.848005 c 0.00309,-0.359287 0.6478439,-0.364537 0.7802338,-0.68412 0.1323898,-0.319585 -0.3083599,-0.787406 -0.067896,-1.035616 0.2404642,-0.248211 0.7202258,0.167233 1.0351048,0.03496 0.3148791,-0.132271 0.3529602,-0.759644 0.6846317,-0.747302 0.3316716,0.01234 0.2874928,0.623714 0.605174,0.768159 0.3176814,0.144444 0.8758754,-0.31282 1.1145626,-0.05583 0.2386873,0.256999 -0.2459987,0.653017 -0.1221561,0.980919 0.1238428,0.327901 0.8444339,0.387695 0.8344943,0.738817 z"
         sodipodi:nodetypes="zzzzzzzzzzzzzzzzz" />
      <path
         id="path576"
         style="fill:none;stroke:#00ff00;stroke-width:0.079636"
         d="m 5.4551035,16.847975 c -0.00562,0.19867 -0.360163,0.167339 -0.4410794,0.348055 -0.080917,0.180716 0.1815685,0.481786 0.038025,0.625002 -0.1435426,0.143215 -0.4086341,-0.1126 -0.5892812,-0.0372 -0.1806473,0.0754 -0.1851677,0.443019 -0.3837761,0.440257 -0.1986084,-0.0028 -0.2013723,-0.39407 -0.3864416,-0.469027 -0.1850692,-0.07496 -0.4524827,0.201023 -0.5866158,0.06598 -0.1341331,-0.13505 0.1344659,-0.362931 0.065395,-0.54785 -0.069071,-0.184919 -0.4701958,-0.221916 -0.4684483,-0.425207 0.00175,-0.203291 0.3665616,-0.206262 0.4414702,-0.387087 0.074908,-0.180827 -0.1744756,-0.445528 -0.038416,-0.58597 0.1360589,-0.140443 0.4075164,0.09462 0.5856805,0.01978 0.1781643,-0.07484 0.1997112,-0.42982 0.3873768,-0.422837 0.1876657,0.007 0.1626685,0.352909 0.3424182,0.434638 0.1797497,0.08173 0.4955857,-0.176999 0.6306392,-0.03159 0.1350535,0.145415 -0.1391904,0.369488 -0.069118,0.555022 0.070073,0.185531 0.4777957,0.219364 0.4721717,0.418035 z"
         sodipodi:nodetypes="zzzzzzzzzzzzzzzzz" />
    </g>
    <g
       id="g603"
       transform="translate(6.9929368,0.31254216)">
      <g
         id="g4257"
         transform="matrix(0,-0.56286542,0.56286542,0,18.254663,22.561093)"
         style="fill:none;stroke-width:0.559566;stroke-dasharray:none">
        <circle
           style="fill:none;fill-opacity:1;stroke:#00ff00;stroke-width:0.559566;stroke-dasharray:none;stroke-opacity:1"
           id="circle4251"
           cx="11.987673"
           cy="8.7048225"
           r="2" />
        <circle
           style="fill:none;fill-opacity:1;stroke:#00ff00;stroke-width:0.559566;stroke-dasharray:none;stroke-opacity:1"
           id="circle4253"
           cx="11.987673"
           cy="8.7048225"
           r="2.8" />
        <circle
           style="fill:none;fill-opacity:1;stroke:#00ff00;stroke-width:0.559566;stroke-dasharray:none;stroke-opacity:1"
           id="circle4255"
           cx="11.987673"
           cy="8.7048225"
           r="3.5999999" />
        <circle
           style="fill:none;fill-opacity:1;stroke:#00ff00;stroke-width:0.559566;stroke-dasharray:none;stroke-opacity:1"
           id="circle5597"
           cx="11.987673"
           cy="8.7048225"
           r="1.0659741" />
      </g>
      <path
         id="path592"
         style="fill:none;stroke:#00ff00;stroke-width:0.16971"
         d="m 25.694841,17.240841 c -0.222031,0.360689 -0.843007,-0.07495 -1.184904,0.172371 -0.341894,0.247305 -0.178261,1.082635 -0.595776,1.194 -0.417516,0.111363 -0.63418,-0.643223 -1.047914,-0.696556 -0.413734,-0.05333 -0.81379,0.620314 -1.17739,0.403594 -0.363567,-0.216776 0.04826,-0.941849 -0.213437,-1.277381 -0.261689,-0.335535 -1.04928,-0.111133 -1.152931,-0.503304 -0.10365,-0.392166 0.634879,-0.526532 0.704443,-0.941409 0.06953,-0.414884 -0.631313,-0.91057 -0.411477,-1.283895 0.219877,-0.373299 0.896289,0.0099 1.227216,-0.24399 0.330923,-0.253908 0.152721,-1.008157 0.553463,-1.122379 0.40075,-0.114218 0.651272,0.608856 1.05983,0.660573 0.408559,0.05171 0.826566,-0.58046 1.165474,-0.367607 0.33891,0.212846 -0.07584,0.82464 0.168831,1.167007 0.244653,0.342367 1.103235,0.201378 1.19754,0.61367 0.0943,0.412274 -0.650587,0.533601 -0.718955,0.950677 -0.06841,0.417069 0.64806,0.913959 0.425988,1.274623 z"
         sodipodi:nodetypes="zzzzzzzzzzzzzzzzz" />
      <path
         id="path594"
         style="fill:none;stroke:#00ff00;stroke-width:0.204993"
         d="m 24.071557,19.196937 c -0.497708,0.118424 -0.656025,-0.784029 -1.159269,-0.864821 -0.503245,-0.08079 -1.076955,0.772438 -1.528678,0.510952 -0.451726,-0.261489 0.0076,-1.091051 -0.300102,-1.489981 -0.307825,-0.39893 -1.224893,-0.165251 -1.350347,-0.660914 -0.125376,-0.495681 0.845666,-0.763231 0.908734,-1.273332 0.06307,-0.510098 -0.801283,-0.991132 -0.554858,-1.414617 0.246427,-0.423487 0.991983,0.09253 1.405751,-0.202398 0.413765,-0.294944 0.238519,-1.316949 0.745146,-1.448044 0.506642,-0.131043 0.757066,0.774006 1.256582,0.839787 0.499515,0.06578 0.991525,-0.730644 1.431367,-0.485919 0.439844,0.24473 0.03622,1.076296 0.341011,1.469425 0.304783,0.39313 1.201765,0.210203 1.309432,0.681471 0.107678,0.471263 -0.769105,0.639575 -0.85256,1.140964 -0.08346,0.501383 0.770268,1.114309 0.498695,1.546985 -0.271587,0.432675 -1.011435,-0.09991 -1.426062,0.197916 -0.414625,0.297837 -0.227108,1.334146 -0.724833,1.452523 z"
         sodipodi:nodetypes="zzzzzzzzzzzzzzzzz" />
    </g>
    <g
       id="g1851"
       transform="matrix(0.67315176,0,0,0.67315176,9.1586379,5.1997452)">
      <circle
         style="fill:none;fill-opacity:1;stroke:#00ff00;stroke-width:0.31496;stroke-dasharray:none;stroke-opacity:1"
         id="circle6539"
         cx="-27.009235"
         cy="29.218287"
         r="1.1257309"
         transform="rotate(-90)" />
      <circle
         style="fill:none;fill-opacity:1;stroke:#00ff00;stroke-width:0.31496;stroke-dasharray:none;stroke-opacity:1"
         id="circle6541"
         cx="-27.009235"
         cy="29.218287"
         r="1.5760231"
         transform="rotate(-90)" />
      <path
         id="circle6543"
         style="fill:none;stroke:#00ff00;stroke-width:0.31496"
         transform="rotate(-90)"
         d="m -24.98292,29.218287 c 0,0.279775 -0.0567,0.546308 -0.159238,0.788733 -0.102537,0.242425 -0.25091,0.460742 -0.434256,0.644088 -0.183345,0.183346 -0.401663,0.331719 -0.644088,0.434256 -0.242425,0.102537 -0.508957,0.159238 -0.788733,0.159238 -0.279776,0 -0.546309,-0.0567 -0.788734,-0.159238 -0.242425,-0.102537 -0.460743,-0.25091 -0.644088,-0.434256 -0.183345,-0.183346 -0.331719,-0.401663 -0.434256,-0.644088 -0.102537,-0.242424 -0.159238,-0.508957 -0.159238,-0.788733 0,-0.279776 0.0567,-0.546309 0.159238,-0.788734 0.102537,-0.242425 0.250911,-0.460743 0.434256,-0.644088 0.183345,-0.183346 0.401663,-0.331719 0.644088,-0.434256 0.242425,-0.102537 0.508958,-0.159238 0.788734,-0.159238 0.279776,0 0.546309,0.0567 0.788733,0.159238 0.242425,0.102537 0.460743,0.25091 0.644088,0.434256 0.183346,0.183345 0.331719,0.401663 0.434256,0.644088 0.102537,0.242425 0.159238,0.508958 0.159238,0.788734 z"
         sodipodi:nodetypes="sssssssssssssssss" />
      <circle
         style="fill:none;fill-opacity:1;stroke:#00ff00;stroke-width:0.31496;stroke-dasharray:none;stroke-opacity:1"
         id="circle6545"
         cx="-27.009235"
         cy="29.218287"
         r="0.59999996"
         transform="rotate(-90)" />
      <path
         id="circle621"
         style="fill:none;stroke:#00ff00;stroke-width:0.226949;stroke-dasharray:none"
         d="m 29.217267,24.608011 c 0.248912,2.26e-4 0.351945,-0.508927 0.589618,-0.459641 0.237673,0.04929 0.1199,0.526951 0.339621,0.622103 0.21972,0.09515 0.513669,-0.31718 0.704561,-0.18271 0.190892,0.134469 -0.09999,0.49829 0.06028,0.670423 0.160266,0.172132 0.598792,-0.08555 0.728472,0.118339 0.129681,0.203894 -0.285594,0.462578 -0.194517,0.684724 0.09107,0.222146 0.582597,0.113559 0.63391,0.359458 0.05131,0.245893 -0.474142,0.372285 -0.467044,0.622725 0.007,0.25044 0.515717,0.320667 0.467044,0.55431 -0.04867,0.233643 -0.533017,0.09176 -0.633653,0.313834 -0.100631,0.22207 0.331485,0.528435 0.194259,0.730347 -0.137226,0.201912 -0.536647,-0.08442 -0.704192,0.08276 -0.167544,0.167173 0.116081,0.572486 -0.08456,0.706003 -0.200642,0.133518 -0.483381,-0.296876 -0.706917,-0.20119 -0.223537,0.09568 -0.09645,0.587626 -0.337265,0.640583 -0.240811,0.05296 -0.351105,-0.461474 -0.599916,-0.459137 -0.24881,0.0024 -0.345641,0.508097 -0.577119,0.459137 -0.231478,-0.04895 -0.116189,-0.536369 -0.332314,-0.636276 -0.216133,-0.0999 -0.52435,0.337376 -0.71187,0.196882 -0.18752,-0.140494 0.09608,-0.541541 -0.06157,-0.717756 -0.157651,-0.176214 -0.603874,0.136334 -0.727175,-0.071 -0.123301,-0.207331 0.277972,-0.498911 0.172144,-0.711727 -0.105829,-0.212817 -0.573775,-0.09044 -0.611538,-0.332456 -0.03777,-0.242015 0.452882,-0.276168 0.465797,-0.526349 0.01292,-0.250181 -0.525081,-0.406397 -0.465797,-0.650686 0.05929,-0.244289 0.531491,-0.101419 0.630198,-0.322783 0.09871,-0.221367 -0.330766,-0.523541 -0.190805,-0.721399 0.139961,-0.197858 0.532702,0.110226 0.705624,-0.05721 0.172923,-0.167432 -0.119811,-0.593355 0.08314,-0.731543 0.202949,-0.138188 0.490364,0.287582 0.711761,0.190906 0.221397,-0.09668 0.09473,-0.579451 0.332421,-0.630301 0.237697,-0.05085 0.338496,0.45941 0.587408,0.459636 z"
         sodipodi:nodetypes="zzzzzzzzzzzzzzzzzzzzzzzzzzzzzzzzzz" />
    </g>
    <g
       id="g1573">
      <g
         id="g1189"
         transform="translate(-0.00698751,-0.00162446)">
        <g
           id="g6446"
           transform="matrix(0.38166191,0,0,0.38166191,46.132571,7.3775889)"
           style="stroke-width:0.412617;stroke-dasharray:none">
          <circle
             style="fill:none;fill-opacity:1;stroke:#00ff00;stroke-width:0.412617;stroke-dasharray:none;stroke-opacity:1"
             id="circle6438"
             cx="14.262033"
             cy="15.483854"
             r="2" />
          <circle
             style="fill:none;fill-opacity:1;stroke:#00ff00;stroke-width:0.412617;stroke-dasharray:none;stroke-opacity:1"
             id="circle6440"
             cx="14.262033"
             cy="15.483854"
             r="2.8" />
          <circle
             style="fill:none;fill-opacity:1;stroke:#00ff00;stroke-width:0.412617;stroke-dasharray:none;stroke-opacity:1"
             id="circle6442"
             cx="14.262033"
             cy="15.483854"
             r="3.5999999" />
          <circle
             style="fill:none;fill-opacity:1;stroke:#00ff00;stroke-width:0.412617;stroke-dasharray:none;stroke-opacity:1"
             id="circle6444"
             cx="14.262033"
             cy="15.483854"
             r="4.4000001" />
        </g>
        <path
           id="path1181"
           style="fill:none;stroke:#00ff00;stroke-width:0.15748;stroke-dasharray:none"
           d="m 51.574753,11.335764 0.479037,-0.373437 0.275926,0.505429 0.572424,-0.148443 0.04897,0.544688 0.59185,0.09614 -0.158036,0.556306 0.515022,0.292043 -0.379451,0.505935 0.379451,0.450351 -0.514813,0.254976 0.157826,0.593373 -0.572123,0.06724 -0.0687,0.573595 -0.574337,-0.163457 -0.274013,0.520444 -0.487404,-0.373028 -0.468882,0.373028 -0.26999,-0.516945 -0.578361,0.159957 -0.05002,-0.583143 -0.590796,-0.05768 0.139859,-0.578245 -0.496846,-0.270106 0.378439,-0.427634 -0.378439,-0.528652 0.512007,-0.262246 -0.15502,-0.586103 0.573286,-0.04648 0.06755,-0.594344 0.578272,0.155102 0.270077,-0.51209 c 0.159074,0.124472 0.31818,0.248972 0.477237,0.373428 z"
           sodipodi:nodetypes="ccccccccccccccccccccccccccccccccc" />
      </g>
      <g
         id="g1547"
         transform="matrix(1.0717054,0.20988634,-0.20988634,1.0717054,13.173889,-7.4981171)">
        <path
           id="path1528"
           style="fill:none;stroke:#00ff00;stroke-width:0.15748;stroke-dasharray:none"
           d="M 37.47607,9.992746 37.685882,9.5949229 38.04611,9.8767953" />
        <path
           id="path1524"
           style="fill:none;stroke:#00ff00;stroke-width:0.15748;stroke-dasharray:none"
           d="m 36.785754,10.407494 0.05178,-0.4555831 0.447633,0.1200621" />
        <path
           id="path1520"
           style="fill:none;stroke:#00ff00;stroke-width:0.15748;stroke-dasharray:none"
           d="m 36.315597,11.042278 -0.1189,-0.449543 0.440971,-0.03575" />
        <path
           id="path1516"
           style="fill:none;stroke:#00ff00;stroke-width:0.15748;stroke-dasharray:none"
           d="M 36.119828,11.832387 35.83971,11.441084 36.234454,11.238899" />
        <path
           id="path1512"
           style="fill:none;stroke:#00ff00;stroke-width:0.15748;stroke-dasharray:none"
           d="M 36.239561,12.614746 35.83971,12.39737 36.123941,12.07619" />
        <path
           id="path1508"
           style="fill:none;stroke:#00ff00;stroke-width:0.15748;stroke-dasharray:none"
           d="m 36.643784,13.28937 -0.447087,-0.04365 0.112007,-0.463091" />
        <path
           id="path1504"
           style="fill:none;stroke:#00ff00;stroke-width:0.15748;stroke-dasharray:none"
           d="m 37.278581,13.764558 -0.441068,0.121986 -0.03789,-0.441791" />
        <path
           id="path1500"
           style="fill:none;stroke:#00ff00;stroke-width:0.15748;stroke-dasharray:none"
           d="m 38.03927,13.962372 -0.353406,0.28116 -0.206536,-0.395451" />
        <path
           id="path1496"
           style="fill:none;stroke:#00ff00;stroke-width:0.15748;stroke-dasharray:none"
           d="M 38.850573,13.847668 38.64215,14.243532 38.275847,13.963187" />
        <path
           id="path1492"
           style="fill:none;stroke:#00ff00;stroke-width:0.15748;stroke-dasharray:none"
           d="M 39.545183,13.429978 39.4905,13.886545 39.054519,13.762464" />
        <path
           id="path1488"
           style="fill:none;stroke:#00ff00;stroke-width:0.15748;stroke-dasharray:none"
           d="m 40.012396,12.798582 0.118927,0.447128 -0.455433,0.05353" />
        <path
           id="path1484"
           style="fill:none;stroke:#00ff00;stroke-width:0.15748;stroke-dasharray:none"
           d="m 40.205734,12.061985 0.282576,0.335376 -0.390782,0.193546" />
        <path
           id="path1480"
           style="fill:none;stroke:#00ff00;stroke-width:0.15748;stroke-dasharray:none"
           d="m 40.08412,11.21188 0.40419,0.229195 -0.28053,0.374041" />
        <path
           id="path1476"
           style="fill:none;stroke:#00ff00;stroke-width:0.15748;stroke-dasharray:none"
           d="m 39.652183,10.514895 0.479141,0.07783 -0.124282,0.437488" />
        <path
           id="path1472"
           style="fill:none;stroke:#00ff00;stroke-width:0.15748;stroke-dasharray:none"
           d="m 39.037704,10.06932 0.4528,-0.1174221 0.03996,0.4445051" />
        <path
           id="path1468"
           style="fill:none;stroke:#00ff00;stroke-width:0.15748;stroke-dasharray:none"
           d="m 38.280634,9.8767384 0.36152,-0.2818265 0.21888,0.4009354" />
      </g>
    </g>
    <g
       id="g1693"
       transform="translate(-10.710772,-2.2317941)">
      <g
         id="g1583"
         transform="matrix(0.38166191,0,0,0.38166191,34.661068,3.4175202)"
         style="stroke-width:0.412617;stroke-dasharray:none">
        <circle
           style="fill:none;fill-opacity:1;stroke:#00ff00;stroke-width:0.412617;stroke-dasharray:none;stroke-opacity:1"
           id="circle1575"
           cx="14.262033"
           cy="15.483854"
           r="2" />
        <circle
           style="fill:none;fill-opacity:1;stroke:#00ff00;stroke-width:0.412617;stroke-dasharray:none;stroke-opacity:1"
           id="circle1577"
           cx="14.262033"
           cy="15.483854"
           r="2.8" />
        <circle
           style="fill:none;fill-opacity:1;stroke:#00ff00;stroke-width:0.412617;stroke-dasharray:none;stroke-opacity:1"
           id="circle1579"
           cx="14.262033"
           cy="15.483854"
           r="3.5999999" />
        <circle
           style="fill:none;fill-opacity:1;stroke:#00ff00;stroke-width:0.412617;stroke-dasharray:none;stroke-opacity:1"
           id="circle1581"
           cx="14.262033"
           cy="15.483854"
           r="4.4000001" />
      </g>
      <path
         id="path1585"
         style="fill:none;stroke:#00ff00;stroke-width:0.15748;stroke-dasharray:none"
         d="m 40.10325,7.3756953 c 0.202228,1.834e-4 0.280789,-0.414547 0.479037,-0.373437 0.187949,0.038974 0.09979,0.4291501 0.275926,0.505429 0.180886,0.078334 0.411274,-0.2619632 0.572424,-0.148443 0.14903,0.1049829 -0.07525,0.4112692 0.04897,0.544688 0.136197,0.1462811 0.484586,-0.072508 0.59185,0.09614 0.103456,0.1626599 -0.231163,0.3779418 -0.158036,0.556306 0.07486,0.182603 0.474707,0.098851 0.515022,0.292043 0.04306,0.2063608 -0.385423,0.2952134 -0.379451,0.505935 0.0056,0.1962201 0.419485,0.2581779 0.379451,0.450351 -0.03906,0.1874737 -0.43577,0.080552 -0.514813,0.2549757 -0.08448,0.186419 0.27287,0.424098 0.157826,0.593373 -0.107934,0.158814 -0.436194,-0.06839 -0.572123,0.06724 -0.136314,0.136013 0.09161,0.466914 -0.0687,0.573595 -0.165711,0.110273 -0.391349,-0.241785 -0.574337,-0.163457 -0.180239,0.07715 -0.08253,0.478335 -0.274013,0.520444 -0.199815,0.04394 -0.282823,-0.37495 -0.487404,-0.373028 -0.199713,0.0019 -0.273495,0.414413 -0.468882,0.373028 -0.190182,-0.04028 -0.09169,-0.439485 -0.26999,-0.516945 -0.18346,-0.0797 -0.414149,0.274167 -0.578361,0.159957 -0.160165,-0.111396 0.08712,-0.444382 -0.05002,-0.583143 -0.139089,-0.140734 -0.476137,0.103581 -0.590796,-0.05768 -0.114913,-0.161618 0.220316,-0.396994 0.139859,-0.578245 -0.07648,-0.1722945 -0.464173,-0.084452 -0.496846,-0.2701057 -0.03299,-0.1874658 0.368626,-0.2375404 0.378439,-0.427634 0.01117,-0.2164269 -0.429548,-0.3180497 -0.378439,-0.528652 0.04522,-0.1863446 0.433916,-0.087114 0.512007,-0.262246 0.0823,-0.1845688 -0.271724,-0.421122 -0.15502,-0.586103 0.11072,-0.1565204 0.435548,0.086883 0.573286,-0.04648 0.143247,-0.138697 -0.09726,-0.4821239 0.06755,-0.594344 0.164961,-0.1123215 0.395378,0.2349655 0.578272,0.155102 0.176856,-0.077227 0.08136,-0.4717192 0.270077,-0.51209 0.197521,-0.042255 0.275007,0.3732426 0.477235,0.373426 z"
         sodipodi:nodetypes="zaaaaaaaaaaaaaaaaaaaaaaaaaaaaaaaz" />
      <path
         id="path1589"
         style="fill:none;stroke:#00ff00;stroke-width:0.171978;stroke-dasharray:none"
         d="m 39.77534,7.118434 c 0,0 0.144656,-0.3794712 0.308354,-0.3823125 0.166479,-0.00289 0.326897,0.3776911 0.326897,0.3776911"
         sodipodi:nodetypes="cac" />
      <path
         id="path1591"
         style="fill:none;stroke:#00ff00;stroke-width:0.171978;stroke-dasharray:none"
         d="m 38.948474,7.4180338 c 0,0 -0.0023,-0.4117106 0.151114,-0.477383 0.1551,-0.06638 0.454531,0.2226233 0.454531,0.2226233"
         sodipodi:nodetypes="cac" />
      <path
         id="path1593"
         style="fill:none;stroke:#00ff00;stroke-width:0.171978;stroke-dasharray:none"
         d="m 38.311372,7.9996557 c 0,0 -0.155561,-0.3899068 -0.03307,-0.5067331 0.116542,-0.1111527 0.480095,0.05424 0.480095,0.05424"
         sodipodi:nodetypes="cac" />
      <path
         id="path1595"
         style="fill:none;stroke:#00ff00;stroke-width:0.171978;stroke-dasharray:none"
         d="m 37.87866,8.7464294 c 0,0 -0.227743,-0.2852519 -0.161003,-0.4192533 0.07198,-0.1445155 0.465486,-0.1338314 0.465486,-0.1338314"
         sodipodi:nodetypes="cac" />
      <path
         id="path1597"
         style="fill:none;stroke:#00ff00;stroke-width:0.171978;stroke-dasharray:none"
         d="m 37.899844,9.6689192 c 0,0 -0.386078,-0.1512438 -0.382898,-0.3168863 0.003,-0.1560952 0.372023,-0.2845541 0.372023,-0.2845541"
         sodipodi:nodetypes="cac" />
      <path
         id="path1599"
         style="fill:none;stroke:#00ff00;stroke-width:0.171978;stroke-dasharray:none"
         d="m 38.191458,10.476758 c 0,0 -0.400116,0.0072 -0.469984,-0.140617 -0.06752,-0.142882 0.183375,-0.4371999 0.183375,-0.4371999"
         sodipodi:nodetypes="cac" />
      <path
         id="path1601"
         style="fill:none;stroke:#00ff00;stroke-width:0.171978;stroke-dasharray:none"
         d="m 38.772038,11.119255 c 0,0 -0.382369,0.157789 -0.498298,0.03816 -0.112329,-0.115914 0.05212,-0.481422 0.05212,-0.481422"
         sodipodi:nodetypes="cac" />
      <path
         id="path1603"
         style="fill:none;stroke:#00ff00;stroke-width:0.171978;stroke-dasharray:none"
         d="m 39.545754,11.490912 c 0,0 -0.286478,0.291484 -0.437759,0.227145 -0.149449,-0.06356 -0.138346,-0.467156 -0.138346,-0.467156"
         sodipodi:nodetypes="cac" />
      <path
         id="path1605"
         style="fill:none;stroke:#00ff00;stroke-width:0.171978;stroke-dasharray:none"
         d="m 40.439307,11.538264 c 0,0 -0.143642,0.376749 -0.306455,0.380505 -0.167868,0.0039 -0.333728,-0.37733 -0.333728,-0.37733"
         sodipodi:nodetypes="cac" />
      <path
         id="path1607"
         style="fill:none;stroke:#00ff00;stroke-width:0.171978;stroke-dasharray:none"
         d="m 41.271391,11.236413 c 0,0 1.47e-4,0.413606 -0.154431,0.477828 -0.152381,0.06331 -0.4412,-0.224485 -0.4412,-0.224485"
         sodipodi:nodetypes="cac" />
      <path
         id="path1609"
         style="fill:none;stroke:#00ff00;stroke-width:0.171978;stroke-dasharray:none"
         d="m 41.904627,10.657804 c 0,0 0.153287,0.385643 0.03361,0.50415 -0.118615,0.117455 -0.499325,-0.03822 -0.499325,-0.03822"
         sodipodi:nodetypes="cac" />
      <path
         id="path1611"
         style="fill:none;stroke:#00ff00;stroke-width:0.171978;stroke-dasharray:none"
         d="m 42.26643,9.9089678 c 0,0 0.294436,0.2716172 0.232448,0.4187332 -0.06164,0.146289 -0.459426,0.125404 -0.459426,0.125404"
         sodipodi:nodetypes="cac" />
      <path
         id="path1613"
         style="fill:none;stroke:#00ff00;stroke-width:0.171978;stroke-dasharray:none"
         d="m 42.314521,8.9723806 c 0,0 0.382982,0.1613336 0.385068,0.3304635 0.0021,0.1701857 -0.379152,0.3419823 -0.379152,0.3419823"
         sodipodi:nodetypes="cac" />
      <path
         id="path1615"
         style="fill:none;stroke:#00ff00;stroke-width:0.171978;stroke-dasharray:none"
         d="m 42.061125,8.1372161 c 0,0 0.379848,0.034354 0.433937,0.1815202 0.05711,0.1553933 -0.225016,0.4427732 -0.225016,0.4427732"
         sodipodi:nodetypes="cac" />
      <path
         id="path1617"
         style="fill:none;stroke:#00ff00;stroke-width:0.171978;stroke-dasharray:none"
         d="m 41.432879,7.5282644 c 0,0 0.392148,-0.1537963 0.509914,-0.030805 0.112358,0.1173435 -0.05047,0.4847655 -0.05047,0.4847655"
         sodipodi:nodetypes="cac" />
      <path
         id="path1619"
         style="fill:none;stroke:#00ff00;stroke-width:0.171978;stroke-dasharray:none"
         d="m 40.661944,7.162975 c 0,0 0.292763,-0.2908083 0.446594,-0.2261568 0.153293,0.064426 0.150424,0.4756245 0.150424,0.4756245"
         sodipodi:nodetypes="cac" />
    </g>
    <g
       id="g1801"
       transform="matrix(1.4400958,0,0,1.4400958,-6.8734594,-12.929291)">
      <circle
         style="fill:none;fill-opacity:1;stroke:#00ff00;stroke-width:0.197976;stroke-dasharray:none;stroke-opacity:1"
         id="circle4170"
         cx="-33.49543"
         cy="-15.081111"
         r="2.6607981"
         transform="scale(-1)" />
      <circle
         style="fill:none;fill-opacity:1;stroke:#00ff00;stroke-width:0.189526;stroke-dasharray:none;stroke-opacity:1"
         id="circle4172"
         cx="-33.49543"
         cy="-15.081111"
         r="3.2750072"
         transform="scale(-1)" />
      <circle
         style="fill:none;fill-opacity:1;stroke:#00ff00;stroke-width:0.208333;stroke-dasharray:none;stroke-opacity:1"
         id="circle5593"
         cx="-33.49543"
         cy="-15.081111"
         r="2"
         transform="scale(-1)" />
      <path
         id="circle1707"
         style="fill:none;stroke:#00ff00;stroke-width:0.220165"
         d="m 28.845558,15.081111 c 0,-0.321007 0.653835,-0.484028 0.715773,-0.786724 0.06194,-0.302696 -0.46801,-0.745068 -0.350362,-1.02322 0.117649,-0.278152 0.78403,-0.159006 0.951153,-0.406382 0.167124,-0.247375 -0.16501,-0.861271 0.04536,-1.071638 0.210366,-0.210365 0.764341,0.157413 1.011716,-0.0097 0.247376,-0.167123 0.188152,-0.869148 0.466303,-0.986797 0.278153,-0.117649 0.667446,0.436224 0.970143,0.374283 0.302696,-0.06194 0.518794,-0.739694 0.839802,-0.739694 0.321007,0 0.479783,0.662422 0.782479,0.724363 0.302697,0.06194 0.749313,-0.476601 1.027465,-0.358952 0.278152,0.117649 0.188073,0.77971 0.435449,0.946833 0.247375,0.167124 0.832205,-0.160691 1.042571,0.04967 0.210365,0.210367 -0.09555,0.8786 0.07158,1.125975 0.167123,0.247376 0.80728,0.07389 0.924929,0.352045 0.117648,0.278152 -0.418385,0.752096 -0.356444,1.054792 0.06194,0.302696 0.721855,0.434145 0.721855,0.755152 0,0.321008 -0.670026,0.513721 -0.731965,0.816417 -0.06194,0.302697 0.484202,0.715375 0.366555,0.993528 -0.117649,0.278152 -0.795327,0.186481 -0.962451,0.433857 -0.167124,0.247375 0.176307,0.833796 -0.03406,1.044162 -0.210366,0.210366 -0.8317,-0.10527 -1.079074,0.06185 -0.247376,0.167124 -0.120793,0.817006 -0.398945,0.934654 -0.278153,0.117649 -0.741193,-0.394717 -1.043889,-0.332776 -0.302696,0.06194 -0.445048,0.698187 -0.766056,0.698187 -0.321007,0 -0.528374,-0.683555 -0.831071,-0.745493 -0.302696,-0.06194 -0.70072,0.497731 -0.978873,0.380082 -0.278152,-0.117648 -0.237597,-0.838702 -0.484973,-1.005826 -0.247374,-0.167123 -0.78268,0.219684 -0.993047,0.0093 -0.210365,-0.210366 0.132635,-0.814478 -0.03449,-1.061853 -0.167124,-0.247376 -0.823276,-0.0955 -0.96202,-0.416166 -0.143851,-0.332466 0.430291,-0.719728 0.36835,-1.022424 -0.06194,-0.302696 -0.733761,-0.466513 -0.733761,-0.787521 z"
         sodipodi:nodetypes="ssssssssssssssssssssssssssssssasss" />
      <path
         id="path1762"
         style="fill:none;stroke:#00ff00;stroke-width:0.248965"
         d="m 28.237305,15.08111 c 0,-0.362998 0.739363,-0.547344 0.809404,-0.889635 0.07004,-0.342292 -0.529231,-0.842531 -0.396193,-1.157068 0.133038,-0.314537 0.886589,-0.179806 1.075573,-0.459541 0.188986,-0.279734 -0.186595,-0.973934 0.05129,-1.211819 0.237884,-0.237883 0.864324,0.178004 1.144059,-0.01097 0.279735,-0.188985 0.212764,-0.982842 0.5273,-1.115881 0.314538,-0.133038 0.754755,0.493287 1.097048,0.423244 0.342291,-0.07004 0.586657,-0.836454 0.949656,-0.836454 0.362998,0 0.542544,0.749074 0.884836,0.819117 0.342292,0.07004 0.84733,-0.538945 1.161868,-0.405907 0.314537,0.133039 0.212674,0.881705 0.49241,1.070689 0.279734,0.188986 0.941066,-0.181711 1.17895,0.05617 0.237883,0.237886 -0.108049,0.99353 0.08094,1.273265 0.188985,0.279735 0.912881,0.08356 1.045919,0.398096 0.133038,0.314537 -0.473114,0.850478 -0.40307,1.192769 0.07004,0.342292 0.816281,0.490936 0.816281,0.853934 0,0.362999 -0.757672,0.580921 -0.827714,0.923213 -0.07004,0.342293 0.547541,0.808953 0.414505,1.123491 -0.133039,0.314538 -0.899364,0.210875 -1.08835,0.49061 -0.188985,0.279735 0.19937,0.942865 -0.03852,1.180749 -0.237884,0.237885 -0.940495,-0.11904 -1.220228,0.06994 -0.279736,0.188986 -0.136594,0.923879 -0.451131,1.056916 -0.314539,0.133039 -0.838149,-0.44635 -1.180441,-0.376306 -0.342292,0.07004 -0.503265,0.789517 -0.866264,0.789517 -0.362998,0 -0.597491,-0.772971 -0.939784,-0.843011 -0.342291,-0.07004 -0.792381,0.562839 -1.106919,0.4298 -0.314537,-0.133037 -0.268677,-0.948412 -0.548413,-1.137398 -0.279733,-0.188984 -0.885062,0.248421 -1.122947,0.01052 -0.237883,-0.237884 0.149985,-0.921021 -0.039,-1.200755 -0.188986,-0.279735 -0.930969,-0.107992 -1.087862,-0.470605 -0.162668,-0.375955 0.486577,-0.813875 0.416534,-1.156167 -0.07004,-0.342292 -0.829745,-0.527538 -0.829745,-0.890537 z"
         sodipodi:nodetypes="ssssssssssssssssssssssssssssssasss" />
      <path
         id="path1764"
         style="fill:none;stroke:#00ff00;stroke-width:0.19357"
         d="m 29.407254,15.081112 c 0,-0.28223 0.574853,-0.425559 0.629309,-0.69169 0.05446,-0.266131 -0.411475,-0.655065 -0.308039,-0.899617 0.103437,-0.244552 0.689321,-0.139798 0.836256,-0.357292 0.146936,-0.217493 -0.145077,-0.757231 0.03988,-0.942187 0.184955,-0.184953 0.672011,0.138398 0.889503,-0.0085 0.217494,-0.146935 0.165424,-0.764157 0.409975,-0.867594 0.244553,-0.103437 0.58682,0.383529 0.852952,0.329071 0.266131,-0.05446 0.456125,-0.650341 0.738356,-0.650341 0.28223,0 0.421826,0.582403 0.687957,0.636862 0.266132,0.05446 0.658798,-0.419029 0.90335,-0.315592 0.244551,0.103437 0.165354,0.685523 0.382847,0.832458 0.217493,0.146936 0.731677,-0.14128 0.916631,0.04367 0.184953,0.184955 -0.08401,0.772467 0.06293,0.98996 0.146935,0.217493 0.709763,0.06496 0.8132,0.309518 0.103436,0.244552 -0.367845,0.661245 -0.313386,0.927376 0.05446,0.266131 0.634656,0.381701 0.634656,0.663931 0,0.282231 -0.589088,0.451665 -0.643545,0.717796 -0.05446,0.266132 0.425711,0.628959 0.322276,0.873512 -0.103437,0.244552 -0.699253,0.163954 -0.846189,0.381448 -0.146936,0.217492 0.155009,0.733075 -0.02995,0.918029 -0.184954,0.184955 -0.731232,-0.09255 -0.948724,0.05438 -0.217494,0.146936 -0.106202,0.718314 -0.350753,0.82175 -0.244553,0.103437 -0.651659,-0.347036 -0.91779,-0.292578 -0.266131,0.05446 -0.391287,0.613848 -0.673518,0.613848 -0.28223,0 -0.464548,-0.600983 -0.73068,-0.655439 -0.266131,-0.05446 -0.616074,0.437606 -0.860627,0.334169 -0.244552,-0.103436 -0.208896,-0.737389 -0.426389,-0.884325 -0.217492,-0.146934 -0.688134,0.193147 -0.873089,0.0082 -0.184954,-0.184954 0.116613,-0.716091 -0.03032,-0.933584 -0.146936,-0.217493 -0.723826,-0.08396 -0.84581,-0.365894 -0.126474,-0.292304 0.378313,-0.632786 0.323854,-0.898917 -0.05446,-0.266131 -0.645124,-0.410159 -0.645124,-0.69239 z"
         sodipodi:nodetypes="ssssssssssssssssssssssssssssssasss" />
      <circle
         style="fill:#00ff00;fill-opacity:1;stroke:#00ff00;stroke-width:0.146289;stroke-dasharray:none;stroke-opacity:1"
         id="circle1792"
         cx="-33.49543"
         cy="-15.081111"
         r="1.4043767"
         transform="scale(-1)" />
    </g>
    <g
       id="g1859"
       transform="translate(1.8291957,0.7747935)">
      <g
         id="g6426"
         transform="translate(8.6872364,-0.32899422)"
         style="stroke-width:0.208333;stroke-dasharray:none">
        <circle
           style="fill:none;fill-opacity:1;stroke:#00ff00;stroke-width:0.208333;stroke-dasharray:none;stroke-opacity:1"
           id="circle4196"
           cx="7.5898957"
           cy="25.208963"
           r="2" />
        <circle
           style="fill:none;fill-opacity:1;stroke:#00ff00;stroke-width:0.208333;stroke-dasharray:none;stroke-opacity:1"
           id="circle4198"
           cx="7.5898957"
           cy="25.208963"
           r="2.8" />
        <circle
           style="fill:none;fill-opacity:1;stroke:#00ff00;stroke-width:0.208333;stroke-dasharray:none;stroke-opacity:1"
           id="circle4200"
           cx="7.5898957"
           cy="25.208963"
           r="3.5999999" />
        <circle
           style="fill:none;fill-opacity:1;stroke:#00ff00;stroke-width:0.208333;stroke-dasharray:none;stroke-opacity:1"
           id="circle5587"
           cx="7.5898957"
           cy="25.208963"
           r="4.4000001" />
      </g>
      <path
         id="path1803"
         style="fill:none;stroke:#00ff00;stroke-width:0.188121;stroke-dasharray:none"
         d="m 22.56713,26.81291 c -0.09612,0.458622 -2.055959,-0.449953 -2.474576,0.26631 -0.412623,0.706005 1.503925,1.636036 0.968378,2.254008 -0.403055,0.465087 -1.293818,-0.853957 -1.782761,-0.480202 -0.507083,0.38762 0.5721,1.640937 -0.0044,1.914786 -0.764845,0.363299 -1.155735,-1.823129 -1.972665,-1.600424 -0.799625,0.217989 -0.04319,2.256072 -0.868711,2.329725 -0.588641,0.05252 -0.319328,-1.437397 -0.903733,-1.525312 -0.551457,-0.08297 -0.716625,1.321247 -1.238509,1.124716 -0.736787,-0.27746 0.402871,-1.932796 -0.266798,-2.34678 -0.691253,-0.427326 -1.673613,1.366096 -2.290028,0.836499 -0.371633,-0.319291 0.588954,-1.052242 0.290573,-1.440866 -0.313872,-0.408759 -1.334331,0.375041 -1.543065,-0.09615 -0.330451,-0.745932 1.728263,-1.120501 1.52857,-1.911535 -0.199002,-0.788295 -2.1100507,-0.151893 -2.2449138,-0.953655 -0.087398,-0.519572 1.1207648,-0.535623 1.1725378,-1.059943 0.05059,-0.512324 -1.1469589,-0.777185 -0.921021,-1.239772 0.337378,-0.690756 1.861071,0.573732 2.305609,-0.05345 0.49938,-0.704553 -1.361159,-1.806286 -0.801224,-2.463745 0.302944,-0.355706 0.997771,0.477235 1.384981,0.215756 0.449447,-0.303501 -0.144865,-1.409377 0.368326,-1.584732 0.810127,-0.276822 1.164529,1.847001 1.990751,1.622745 0.810258,-0.219924 0.04125,-2.317574 0.879759,-2.360078 0.575735,-0.02918 0.196667,1.453603 0.764837,1.551108 0.571411,0.09806 0.696281,-1.400562 1.245288,-1.21424 0.784106,0.26611 -0.367164,2.054518 0.355627,2.458509 0.697393,0.389793 1.589622,-1.465722 2.200257,-0.950534 0.456906,0.385487 -0.79962,1.277581 -0.423924,1.742573 0.372645,0.461215 1.504533,-0.574043 1.778188,-0.04802 0.381527,0.733374 -1.705655,1.196944 -1.477857,1.991619 0.217643,0.759247 2.161934,0.07721 2.205621,0.865826 0.03315,0.598457 -1.535824,0.30958 -1.590964,0.837905 -0.05514,0.528326 1.461995,0.858731 1.365877,1.317354 z"
         sodipodi:nodetypes="zaaaaaaaaaaaaaaaaaaaaaaaaaaaaaazz" />
    </g>
    <g
       id="g1844"
       transform="translate(-0.61569735,1.6279986)">
      <circle
         style="fill:none;fill-opacity:1;stroke:#00ff00;stroke-width:0.555556;stroke-dasharray:none;stroke-opacity:1"
         id="circle4180"
         cx="-39.526981"
         cy="-25.827234"
         r="2.8"
         transform="scale(-1)" />
      <circle
         style="fill:none;fill-opacity:1;stroke:#00ff00;stroke-width:0.555556;stroke-dasharray:none;stroke-opacity:1"
         id="circle4182"
         cx="-39.526981"
         cy="-25.827234"
         r="3.5999999"
         transform="scale(-1)" />
      <circle
         style="fill:none;fill-opacity:1;stroke:#00ff00;stroke-width:0.555556;stroke-dasharray:none;stroke-opacity:1"
         id="circle4184"
         cx="-39.526981"
         cy="-25.827234"
         r="1.9527211"
         transform="scale(-1)" />
      <path
         id="circle5589"
         style="fill:none;stroke:#00ff00;stroke-width:0.555556;stroke-dasharray:none"
         d="m -34.326982,-25.827234 c -0.01591,0.393361 -0.779028,0.415395 -0.870366,0.798336 -0.101296,0.424693 0.646304,0.830068 0.461724,1.225738 -0.160775,0.34464 -0.852,0.07089 -1.076503,0.37785 -0.25101,0.343202 0.270189,0.981987 -0.0379,1.275031 -0.280072,0.266396 -0.834066,-0.232361 -1.159356,-0.02357 -0.347953,0.223337 -0.110736,0.981695 -0.493524,1.137976 -0.371744,0.151772 -0.72124,-0.528413 -1.115801,-0.453916 -0.410279,0.07746 -0.490956,0.875809 -0.908274,0.862558 -0.388814,-0.01235 -0.415438,-0.764267 -0.793548,-0.855712 -0.424179,-0.102587 -0.83501,0.631512 -1.230526,0.44707 -0.360623,-0.16817 -0.08222,-0.894301 -0.40888,-1.121512 -0.340422,-0.236785 -0.949438,0.298968 -1.244001,0.0071 -0.285237,-0.282627 0.220958,-0.872148 -0.0042,-1.204626 -0.22378,-0.330444 -0.951806,-0.08194 -1.110182,-0.448255 -0.177209,-0.409879 0.592879,-0.815093 0.485551,-1.248549 -0.09483,-0.382983 -0.868637,-0.381805 -0.894193,-0.775525 -0.02954,-0.455128 0.849223,-0.570446 0.909093,-1.022586 0.04899,-0.36996 -0.638004,-0.654574 -0.500451,-1.001488 0.145149,-0.36607 0.882728,-0.08531 1.108787,-0.407761 0.238257,-0.339846 -0.293644,-0.957519 0.0056,-1.24512 0.283315,-0.272292 0.847923,0.254482 1.178123,0.04146 0.350007,-0.2258 0.09038,-0.995422 0.474758,-1.155864 0.377856,-0.157719 0.734249,0.546258 1.136009,0.467266 0.407971,-0.08021 0.472292,-0.878727 0.888065,-0.875908 0.421337,0.0029 0.474231,0.81933 0.887831,0.899752 0.405026,0.07876 0.754539,-0.647796 1.136243,-0.49111 0.378991,0.155573 0.118174,0.91411 0.460195,1.139628 0.33198,0.218897 0.905705,-0.30048 1.192686,-0.02522 0.301132,0.288832 -0.216405,0.911688 0.02572,1.251512 0.224433,0.314994 0.938095,0.04512 1.088681,0.401368 0.152046,0.359706 -0.539439,0.685595 -0.475307,1.070814 0.07116,0.427459 0.901459,0.520275 0.883946,0.953263 z"
         sodipodi:nodetypes="aaaaaaaaaaaaaaaaaaaaaaaaaaaaaaaaa"
         transform="scale(-1)" />
      <circle
         style="fill:#00ff00;fill-opacity:1;stroke:none;stroke-width:0.395458;stroke-dasharray:none;stroke-opacity:1"
         id="circle1814"
         cx="-39.526981"
         cy="-25.827234"
         r="1.3899935"
         transform="scale(-1)" />
    </g>
    <circle
       style="fill:none;fill-opacity:1;stroke:#00ff00;stroke-width:0.27777778;stroke-dasharray:none;stroke-opacity:1"
       id="circle1816"
       cx="-49.825813"
       cy="-22.443506"
       r="2.6607981"
       transform="scale(-1)" />
    <circle
       style="fill:none;fill-opacity:1;stroke:#00ff00;stroke-width:0.27777778;stroke-dasharray:none;stroke-opacity:1"
       id="circle1820"
       cx="-49.825813"
       cy="-22.443506"
       r="2"
       transform="scale(-1)" />
    <path
       id="path1822"
       style="fill:none;stroke:#00ff00;stroke-width:0.277778;stroke-dasharray:none"
       d="m 45.273489,22.443508 0.700752,-0.770214 -0.343009,-1.001748 0.931192,-0.397854 0.04441,-1.049149 0.990485,-0.0095 0.456517,-0.966089 0.949785,0.366429 0.822178,-0.724171 0.766059,0.709162 1.005903,-0.35142 0.426311,0.926964 1.020693,0.04863 0.07008,1.102346 0.905519,0.344657 -0.348964,1.032657 0.706707,0.739305 -0.716605,0.799285 0.358863,0.972678 -0.942254,0.424753 -0.03334,1.02225 -1.056429,0.06055 -0.390574,0.91504 -1.021982,-0.325792 -0.749981,0.683535 -0.813631,-0.729849 -0.958331,0.372106 -0.474796,-0.984718 -0.972207,0.0091 -0.03377,-1.039569 -0.941832,-0.407433 0.360621,-1.000968 c -0.239552,-0.256882 -0.478795,-0.514196 -0.71837,-0.770973 z"
       sodipodi:nodetypes="ccccccccccccccccccccccccccccccccc" />
    <path
       id="path1824"
       style="fill:none;stroke:#00ff00;stroke-width:0.27777778;stroke-dasharray:none"
       d="m 44.567688,22.443506 0.809404,-0.889635 -0.396193,-1.157068 1.075573,-0.459541 0.05129,-1.211819 1.144059,-0.01097 0.5273,-1.115881 1.097048,0.423244 0.949656,-0.836454 0.884836,0.819117 1.161868,-0.405907 0.49241,1.070689 1.17895,0.05617 0.08094,1.273265 1.045919,0.398096 -0.40307,1.192769 0.816281,0.853934 -0.827714,0.923213 0.414505,1.123491 -1.08835,0.49061 -0.03852,1.180749 -1.220228,0.06994 -0.451131,1.056916 -1.180441,-0.376306 -0.866264,0.789517 -0.939784,-0.843011 -1.106919,0.4298 -0.548413,-1.137398 -1.122947,0.01052 -0.039,-1.200755 -1.087862,-0.470605 0.416534,-1.156167 c -0.276589,-0.296813 -0.553174,-0.593762 -0.829737,-0.890523 z"
       sodipodi:nodetypes="ccccccccccccccccccccccccccccccccc" />
    <path
       id="path1826"
       style="fill:none;stroke:#00ff00;stroke-width:0.277778;stroke-dasharray:none"
       d="m 45.995496,22.443514 0.589852,-0.648322 -0.288725,-0.843212 0.783823,-0.33489 0.03738,-0.883112 0.833732,-0.008 0.38427,-0.813197 0.799472,0.308438 0.692062,-0.609565 0.644823,0.596932 0.846711,-0.295805 0.358842,0.780264 0.85916,0.04093 0.05898,0.927891 0.762213,0.290111 -0.293737,0.869231 0.594864,0.622303 -0.603196,0.672791 0.30207,0.818743 -0.793134,0.357532 -0.02807,0.860469 -0.88924,0.05097 -0.328761,0.770227 -0.860245,-0.274234 -0.631289,0.57536 -0.684867,-0.614343 -0.806667,0.313217 -0.399655,-0.828879 -0.818347,0.0077 -0.02842,-0.875049 -0.792778,-0.342953 0.303548,-0.842556 c -0.201546,-0.216337 -0.403153,-0.432647 -0.604671,-0.648992 z"
       sodipodi:nodetypes="ccccccccccccccccccccccccccccccccc" />
    <circle
       style="fill:none;fill-opacity:1;stroke:#00ff00;stroke-width:0.27777778;stroke-dasharray:none;stroke-opacity:1"
       id="circle1828"
       cx="-49.825813"
       cy="-22.443506"
       r="1.4043767"
       transform="scale(-1)" />
  </g>
</svg>
