<?xml version="1.0" encoding="UTF-8" standalone="no"?>
<!-- Created with Inkscape (http://www.inkscape.org/) -->

<svg
   width="14in"
   height="8.5in"
   viewBox="0 0 56 34"
   version="1.1"
   id="svg5"
   inkscape:version="1.2.2 (b0a8486541, 2022-12-01)"
   sodipodi:docname="Circle_part.svg"
   xmlns:inkscape="http://www.inkscape.org/namespaces/inkscape"
   xmlns:sodipodi="http://sodipodi.sourceforge.net/DTD/sodipodi-0.dtd"
   xmlns="http://www.w3.org/2000/svg"
   xmlns:svg="http://www.w3.org/2000/svg">
  <sodipodi:namedview
     id="namedview7"
     pagecolor="#ffffff"
     bordercolor="#000000"
     borderopacity="0.25"
     inkscape:showpageshadow="2"
     inkscape:pageopacity="0.0"
     inkscape:pagecheckerboard="0"
     inkscape:deskcolor="#d1d1d1"
     inkscape:document-units="mm"
     showgrid="true"
     inkscape:zoom="0.914906"
     inkscape:cx="-108.20784"
     inkscape:cy="426.8198"
     inkscape:window-width="3800"
     inkscape:window-height="2120"
     inkscape:window-x="3840"
     inkscape:window-y="0"
     inkscape:window-maximized="1"
     inkscape:current-layer="layer1">
    <inkscape:grid
       type="xygrid"
       id="grid182"
       units="in"
       spacingx="1"
       spacingy="1"
       empspacing="4"
       dotted="true" />
  </sodipodi:namedview>
  <defs
     id="defs2">
    <inkscape:path-effect
       effect="fill_between_many"
       method="originald"
       linkedpaths="#path1814,0,1"
       id="path-effect563" />
  </defs>
  <g
     inkscape:label="Layer 1"
     inkscape:groupmode="layer"
     id="layer1">
    <path
       style="fill:#00ff00;stroke-width:0.4"
       id="path1149"
       sodipodi:type="arc"
       sodipodi:cx="4.7722807"
       sodipodi:cy="-16.123228"
       sodipodi:rx="4"
       sodipodi:ry="4"
       sodipodi:start="0"
       sodipodi:end="1.5707963"
       sodipodi:arc-type="slice"
       d="m 8.7722807,-16.123228 a 4,4 0 0 1 -1.1715729,2.828427 4,4 0 0 1 -2.8284271,1.171573 v -4 z"
       transform="scale(1,-1)" />
    <path
       style="fill:#00ff00;stroke-width:0.4"
       id="path1151"
       sodipodi:type="arc"
       sodipodi:cx="14.034698"
       sodipodi:cy="29.423651"
       sodipodi:rx="4"
       sodipodi:ry="4"
       sodipodi:start="0"
       sodipodi:end="4.712389"
       sodipodi:arc-type="slice"
       d="m 18.034698,29.423651 a 4,4 0 0 1 -2.469267,3.695518 4,4 0 0 1 -4.359161,-0.867091 4,4 0 0 1 -0.867091,-4.359161 4,4 0 0 1 3.695519,-2.469266 v 4 z" />
    <path
       style="fill:#00ff00;stroke-width:0.4"
       id="path1155"
       sodipodi:type="arc"
       sodipodi:cx="10.442155"
       sodipodi:cy="7.5520163"
       sodipodi:rx="4"
       sodipodi:ry="4"
       sodipodi:start="0"
       sodipodi:end="2.0943951"
       sodipodi:arc-type="slice"
       d="m 14.442155,7.5520163 a 4,4 0 0 1 -2,3.4641017 4,4 0 0 1 -4.0000001,0 L 10.442155,7.5520163 Z" />
    <path
       style="fill:#00ff00;stroke-width:0.4"
       id="path1211"
       sodipodi:type="arc"
       sodipodi:cx="-8.7722807"
       sodipodi:cy="7.6776929"
       sodipodi:rx="4"
       sodipodi:ry="4"
       sodipodi:start="0"
       sodipodi:end="1.0471976"
       sodipodi:arc-type="slice"
       d="M -4.7722807,7.6776929 A 4,4 0 0 1 -6.7722809,11.141795 L -8.7722807,7.6776929 Z"
       transform="scale(-1,1)" />
    <path
       style="fill:#00ff00;stroke-width:0.4"
       id="path1327"
       sodipodi:type="arc"
       sodipodi:cx="-8.7722807"
       sodipodi:cy="17.10466"
       sodipodi:rx="4"
       sodipodi:ry="4"
       sodipodi:start="0"
       sodipodi:end="0.52359878"
       sodipodi:arc-type="slice"
       d="m -4.7722807,17.10466 a 4,4 0 0 1 -0.5358984,2 l -3.4641016,-2 z"
       transform="scale(-1,1)" />
    <path
       style="fill:#00ff00;stroke-width:0.4"
       id="path1329"
       sodipodi:type="arc"
       sodipodi:cx="4.7722807"
       sodipodi:cy="-6.69626"
       sodipodi:rx="4"
       sodipodi:ry="4"
       sodipodi:start="0"
       sodipodi:end="0.78539816"
       sodipodi:arc-type="slice"
       d="M 8.7722807,-6.69626 A 4,4 0 0 1 7.6007078,-3.8678329 L 4.7722807,-6.69626 Z"
       transform="scale(1,-1)" />
    <path
       style="fill:#00ff00;stroke-width:0.4"
       id="path1331"
       sodipodi:type="arc"
       sodipodi:cx="4.7722807"
       sodipodi:cy="-27.759657"
       sodipodi:rx="4"
       sodipodi:ry="4"
       sodipodi:start="0"
       sodipodi:end="1.3089969"
       sodipodi:arc-type="slice"
       d="M 8.7722807,-27.759657 A 4,4 0 0 1 5.807557,-23.895954 L 4.7722807,-27.759657 Z"
       transform="scale(1,-1)" />
    <path
       style="fill:#00ff00;stroke-width:0.4"
       id="path1333"
       sodipodi:type="arc"
       sodipodi:cx="-8.7722807"
       sodipodi:cy="28.741091"
       sodipodi:rx="4"
       sodipodi:ry="4"
       sodipodi:start="0"
       sodipodi:end="1.5707963"
       sodipodi:arc-type="slice"
       d="m -4.7722807,28.741091 a 4,4 0 0 1 -4,4 v -4 z"
       transform="scale(-1,1)" />
    <path
       style="fill:#00ff00;stroke-width:0.4"
       id="path1335"
       sodipodi:type="arc"
       sodipodi:cx="8.5843573"
       sodipodi:cy="12.338827"
       sodipodi:rx="4"
       sodipodi:ry="4"
       sodipodi:start="0"
       sodipodi:end="1.0471976"
       sodipodi:arc-type="slice"
       d="m 12.584357,12.338827 a 4,4 0 0 1 -2,3.464102 L 8.5843573,12.338827 Z" />
    <path
       style="fill:#00ff00;stroke-width:0.4"
       id="path1337"
       sodipodi:type="arc"
       sodipodi:cx="-8.8432627"
       sodipodi:cy="2.1088376"
       sodipodi:rx="4"
       sodipodi:ry="4"
       sodipodi:start="0"
       sodipodi:end="0.52359878"
       sodipodi:arc-type="slice"
       d="m -4.8432627,2.1088376 a 4,4 0 0 1 -0.5358984,2 l -3.4641016,-2 z"
       transform="scale(-1,1)" />
    <path
       style="fill:#00ff00;stroke-width:0.4"
       id="path1339"
       sodipodi:type="arc"
       sodipodi:cx="4.7722807"
       sodipodi:cy="20.086094"
       sodipodi:rx="4"
       sodipodi:ry="4"
       sodipodi:start="0"
       sodipodi:end="0.78539816"
       sodipodi:arc-type="slice"
       d="M 8.7722807,20.086094 A 4,4 0 0 1 7.6007078,22.914521 L 4.7722807,20.086094 Z" />
    <path
       style="fill:#00ff00;stroke-width:0.4"
       id="path1341"
       sodipodi:type="arc"
       sodipodi:cx="-13.865315"
       sodipodi:cy="-6.7753739"
       sodipodi:rx="4"
       sodipodi:ry="4"
       sodipodi:start="0"
       sodipodi:end="1.3089969"
       sodipodi:arc-type="slice"
       d="m -9.8653154,-6.7753739 a 4,4 0 0 1 -2.9647236,3.8637032 l -1.035276,-3.8637032 z"
       transform="scale(-1)" />
    <path
       style="fill:#00ff00;stroke-width:0.4"
       id="path1343"
       sodipodi:type="arc"
       sodipodi:cx="30.006252"
       sodipodi:cy="-19.458143"
       sodipodi:rx="4"
       sodipodi:ry="4"
       sodipodi:start="0"
       sodipodi:end="2.0943951"
       sodipodi:arc-type="slice"
       d="m 34.006252,-19.458143 a 4,4 0 0 1 -2,3.464101 4,4 0 0 1 -4,0 l 2,-3.464101 z"
       transform="scale(1,-1)" />
    <path
       style="fill:#00ff00;stroke-width:0.4"
       id="path1345"
       sodipodi:type="arc"
       sodipodi:cx="20.093498"
       sodipodi:cy="-13.741114"
       sodipodi:rx="4"
       sodipodi:ry="4"
       sodipodi:start="0"
       sodipodi:end="2.6179939"
       sodipodi:arc-type="slice"
       d="m 24.093498,-13.741114 a 4,4 0 0 1 -2.964724,3.8637037 4,4 0 0 1 -4.499377,-1.8637037 l 3.464101,-2 z"
       transform="rotate(90)" />
    <path
       style="fill:#00ff00;stroke-width:0.4"
       id="path1347"
       sodipodi:type="arc"
       sodipodi:cx="-24.102495"
       sodipodi:cy="15.056345"
       sodipodi:rx="4"
       sodipodi:ry="4"
       sodipodi:start="0"
       sodipodi:end="2.8797933"
       sodipodi:arc-type="slice"
       d="m -20.102495,15.056345 a 4,4 0 0 1 -3.477895,3.965779 4,4 0 0 1 -4.385809,-2.930503 l 3.863704,-1.035276 z"
       transform="rotate(-90)" />
    <path
       style="fill:#00ff00;stroke-width:0.4"
       id="path1349"
       sodipodi:type="arc"
       sodipodi:cx="-15.191934"
       sodipodi:cy="-17.142622"
       sodipodi:rx="4"
       sodipodi:ry="4"
       sodipodi:start="0"
       sodipodi:end="2.3561945"
       sodipodi:arc-type="slice"
       d="m -11.191934,-17.142622 a 4,4 0 0 1 -2.469266,3.695518 4,4 0 0 1 -4.359161,-0.867091 l 2.828427,-2.828427 z"
       transform="matrix(0,-1,-1,0,0,0)" />
    <path
       style="fill:#00ff00;stroke-width:0.4"
       id="path1351"
       sodipodi:type="arc"
       sodipodi:cx="18.396761"
       sodipodi:cy="48.267487"
       sodipodi:rx="4"
       sodipodi:ry="4"
       sodipodi:start="0"
       sodipodi:end="3.1415927"
       sodipodi:arc-type="slice"
       d="m 22.396761,48.267487 a 4,4 0 0 1 -2,3.464101 4,4 0 0 1 -4,0 4,4 0 0 1 -2,-3.464101 h 4 z"
       transform="rotate(-45)" />
    <path
       style="fill:#00ff00;stroke-width:0.4"
       id="path1353"
       sodipodi:type="arc"
       sodipodi:cx="-23.476994"
       sodipodi:cy="20.518005"
       sodipodi:rx="4"
       sodipodi:ry="4"
       sodipodi:start="0"
       sodipodi:end="1.5707963"
       sodipodi:arc-type="slice"
       d="m -19.476994,20.518005 a 4,4 0 0 1 -4,4 v -4 z"
       transform="scale(-1,1)" />
    <path
       style="fill:#00ff00;stroke-width:0.4"
       id="path1355"
       sodipodi:type="arc"
       sodipodi:cx="27.202974"
       sodipodi:cy="20.879812"
       sodipodi:rx="4"
       sodipodi:ry="4"
       sodipodi:start="0"
       sodipodi:end="2.0943951"
       sodipodi:arc-type="slice"
       d="m 31.202974,20.879812 a 4,4 0 0 1 -2,3.464102 4,4 0 0 1 -4,0 l 2,-3.464102 z" />
    <path
       style="fill:#00ff00;stroke-width:0.4"
       id="path1357"
       sodipodi:type="arc"
       sodipodi:cx="-27.792034"
       sodipodi:cy="-9.0734015"
       sodipodi:rx="4"
       sodipodi:ry="4"
       sodipodi:start="0"
       sodipodi:end="1.0471976"
       sodipodi:arc-type="slice"
       d="m -23.792034,-9.0734015 a 4,4 0 0 1 -2,3.4641018 l -2,-3.4641018 z"
       transform="scale(-1)" />
    <path
       style="fill:#00ff00;stroke-width:0.4"
       id="path1359"
       sodipodi:type="arc"
       sodipodi:cx="25.078884"
       sodipodi:cy="-19.683676"
       sodipodi:rx="4"
       sodipodi:ry="4"
       sodipodi:start="0"
       sodipodi:end="0.52359878"
       sodipodi:arc-type="slice"
       d="m 29.078884,-19.683676 a 4,4 0 0 1 -0.535898,2 l -3.464102,-2 z"
       transform="rotate(90)" />
    <path
       style="fill:#00ff00;stroke-width:0.4"
       id="path1361"
       sodipodi:type="arc"
       sodipodi:cx="15.520419"
       sodipodi:cy="-19.303392"
       sodipodi:rx="4"
       sodipodi:ry="4"
       sodipodi:start="0"
       sodipodi:end="0.78539816"
       sodipodi:arc-type="slice"
       d="m 19.520419,-19.303392 a 4,4 0 0 1 -1.171573,2.828427 l -2.828427,-2.828427 z"
       transform="scale(1,-1)" />
    <path
       style="fill:#00ff00;stroke-width:0.4"
       id="path1363"
       sodipodi:type="arc"
       sodipodi:cx="19.980246"
       sodipodi:cy="25.235538"
       sodipodi:rx="4"
       sodipodi:ry="4"
       sodipodi:start="0"
       sodipodi:end="1.0471976"
       sodipodi:arc-type="slice"
       d="M 23.980246,25.235538 A 4,4 0 0 1 21.980245,28.69964 L 19.980246,25.235538 Z" />
    <path
       style="fill:#00ff00;stroke-width:0.4"
       id="path1365"
       sodipodi:type="arc"
       sodipodi:cx="-5.639894"
       sodipodi:cy="14.627068"
       sodipodi:rx="4"
       sodipodi:ry="4"
       sodipodi:start="0"
       sodipodi:end="0.52359878"
       sodipodi:arc-type="slice"
       d="m -1.639894,14.627068 a 4,4 0 0 1 -0.5358984,2 l -3.4641016,-2 z"
       transform="rotate(-90)" />
    <path
       style="fill:#00ff00;stroke-width:0.4"
       id="path1367"
       sodipodi:type="arc"
       sodipodi:cx="-32.846718"
       sodipodi:cy="23.614389"
       sodipodi:rx="4"
       sodipodi:ry="4"
       sodipodi:start="0"
       sodipodi:end="0.78539816"
       sodipodi:arc-type="slice"
       d="m -28.846718,23.614389 a 4,4 0 0 1 -1.171573,2.828428 l -2.828427,-2.828428 z"
       transform="rotate(-90)" />
    <path
       style="fill:#00ff00;stroke-width:0.4"
       id="path1369"
       sodipodi:type="arc"
       sodipodi:cx="-29.521652"
       sodipodi:cy="-15.1035"
       sodipodi:rx="4"
       sodipodi:ry="4"
       sodipodi:start="0"
       sodipodi:end="1.3089969"
       sodipodi:arc-type="slice"
       d="m -25.521652,-15.1035 a 4,4 0 0 1 -2.964724,3.863703 l -1.035276,-3.863703 z"
       transform="scale(-1)" />
    <path
       style="fill:#00ff00;stroke-width:0.4"
       id="path1371"
       sodipodi:type="arc"
       sodipodi:cx="22.609167"
       sodipodi:cy="15.99194"
       sodipodi:rx="4"
       sodipodi:ry="4"
       sodipodi:start="0"
       sodipodi:end="2.0943951"
       sodipodi:arc-type="slice"
       d="m 26.609167,15.99194 a 4,4 0 0 1 -2,3.464101 4,4 0 0 1 -4,0 l 2,-3.464101 z" />
    <path
       style="fill:#00ff00;stroke-width:0.4"
       id="path1373"
       sodipodi:type="arc"
       sodipodi:cx="28.063467"
       sodipodi:cy="-29.946804"
       sodipodi:rx="4"
       sodipodi:ry="4"
       sodipodi:start="0"
       sodipodi:end="2.3561945"
       sodipodi:arc-type="slice"
       d="m 32.063467,-29.946804 a 4,4 0 0 1 -2.469266,3.695518 4,4 0 0 1 -4.359161,-0.867091 l 2.828427,-2.828427 z"
       transform="scale(1,-1)" />
    <path
       style="fill:#00ff00;stroke-width:0.4"
       id="path1375"
       sodipodi:type="arc"
       sodipodi:cx="-35.122448"
       sodipodi:cy="-33.673397"
       sodipodi:rx="4"
       sodipodi:ry="4"
       sodipodi:start="0"
       sodipodi:end="2.268928"
       sodipodi:arc-type="slice"
       d="m -31.122448,-33.673397 a 4,4 0 0 1 -2.309527,3.625231 4,4 0 0 1 -4.261623,-0.561053 l 2.57115,-3.064178 z"
       transform="scale(-1)" />
    <path
       style="fill:#00ff00;stroke-width:0.4"
       id="path1377"
       sodipodi:type="arc"
       sodipodi:cx="-28.628975"
       sodipodi:cy="-4.5203805"
       sodipodi:rx="4"
       sodipodi:ry="4"
       sodipodi:start="0"
       sodipodi:end="4.712389"
       sodipodi:arc-type="slice"
       d="m -24.628975,-4.5203805 a 4,4 0 0 1 -2.469266,3.69551814 4,4 0 0 1 -4.359161,-0.86709104 4,4 0 0 1 -0.867091,-4.3591609 4,4 0 0 1 3.695518,-2.4692662 v 4 z"
       transform="scale(-1)" />
    <path
       style="fill:#00ff00;stroke-width:0.4"
       id="path1379"
       sodipodi:type="arc"
       sodipodi:cx="-30.102377"
       sodipodi:cy="-32.942924"
       sodipodi:rx="4"
       sodipodi:ry="4"
       sodipodi:start="0"
       sodipodi:end="0.52359878"
       sodipodi:arc-type="slice"
       d="m -26.102377,-32.942924 a 4,4 0 0 1 -0.535898,2 l -3.464102,-2 z"
       transform="scale(-1)" />
    <path
       style="fill:#00ff00;stroke-width:0.4"
       id="path1381"
       sodipodi:type="arc"
       sodipodi:cx="-25.88838"
       sodipodi:cy="10.472048"
       sodipodi:rx="4"
       sodipodi:ry="4"
       sodipodi:start="0"
       sodipodi:end="1.3089969"
       sodipodi:arc-type="slice"
       d="m -21.88838,10.472048 a 4,4 0 0 1 -2.964724,3.863703 l -1.035276,-3.863703 z"
       transform="scale(-1,1)" />
    <path
       style="fill:#00ff00;stroke-width:0.4"
       id="path1383"
       sodipodi:type="arc"
       sodipodi:cx="18.376665"
       sodipodi:cy="-4.8427129"
       sodipodi:rx="4"
       sodipodi:ry="4"
       sodipodi:start="0"
       sodipodi:end="1.5707963"
       sodipodi:arc-type="slice"
       d="m 22.376665,-4.8427129 a 4,4 0 0 1 -4,4.00000002 V -4.8427129 Z"
       transform="scale(1,-1)" />
    <path
       style="fill:#00ff00;stroke-width:0.4"
       id="path1385"
       sodipodi:type="arc"
       sodipodi:cx="11.78919"
       sodipodi:cy="-21.268568"
       sodipodi:rx="4"
       sodipodi:ry="4"
       sodipodi:start="0"
       sodipodi:end="0.78539816"
       sodipodi:arc-type="slice"
       d="m 15.78919,-21.268568 a 4,4 0 0 1 -1.171573,2.828427 l -2.828427,-2.828427 z"
       transform="rotate(90)" />
    <path
       style="fill:#00ff00;stroke-width:0.4"
       id="path1387"
       sodipodi:type="arc"
       sodipodi:cx="-4.8735857"
       sodipodi:cy="-37.231087"
       sodipodi:rx="4"
       sodipodi:ry="4"
       sodipodi:start="0"
       sodipodi:end="2.6179939"
       sodipodi:arc-type="slice"
       d="m -0.8735857,-37.231087 a 4,4 0 0 1 -2.9647239,3.863704 4,4 0 0 1 -4.4993778,-1.863704 l 3.4641017,-2 z"
       transform="matrix(0,-1,-1,0,0,0)" />
    <path
       style="fill:#00ff00;stroke-width:0.4"
       id="path1389"
       sodipodi:type="arc"
       sodipodi:cx="10.794125"
       sodipodi:cy="-34.429691"
       sodipodi:rx="4"
       sodipodi:ry="4"
       sodipodi:start="0"
       sodipodi:end="2.8797933"
       sodipodi:arc-type="slice"
       d="m 14.794125,-34.429691 a 4,4 0 0 1 -3.477896,3.965779 4,4 0 0 1 -4.3858077,-2.930503 l 3.8637037,-1.035276 z"
       transform="rotate(90)" />
    <path
       style="fill:#00ff00;stroke-width:0.4"
       id="path1407"
       sodipodi:type="arc"
       sodipodi:cx="35.54921"
       sodipodi:cy="-24.751631"
       sodipodi:rx="4"
       sodipodi:ry="4"
       sodipodi:start="0"
       sodipodi:end="4.712389"
       sodipodi:arc-type="slice"
       d="m 39.54921,-24.751631 a 4,4 0 0 1 -2.469267,3.695518 4,4 0 0 1 -4.359161,-0.867091 4,4 0 0 1 -0.867091,-4.359161 4,4 0 0 1 3.695519,-2.469266 v 4 z"
       transform="scale(1,-1)" />
    <path
       style="fill:#00ff00;stroke-width:0.4"
       id="path1409"
       sodipodi:type="arc"
       sodipodi:cx="43.257866"
       sodipodi:cy="29.745195"
       sodipodi:rx="4"
       sodipodi:ry="4"
       sodipodi:start="0"
       sodipodi:end="1.5707963"
       sodipodi:arc-type="slice"
       d="m 47.257866,29.745195 a 4,4 0 0 1 -4,4 v -4 z" />
    <path
       style="fill:#00ff00;stroke-width:0.4"
       id="path1411"
       sodipodi:type="arc"
       sodipodi:cx="-40.765396"
       sodipodi:cy="-28.719013"
       sodipodi:rx="4"
       sodipodi:ry="4"
       sodipodi:start="0"
       sodipodi:end="1.0471976"
       sodipodi:arc-type="slice"
       d="m -36.765396,-28.719013 a 4,4 0 0 1 -2,3.464101 l -2,-3.464101 z"
       transform="scale(-1)" />
    <path
       style="fill:#00ff00;stroke-width:0.4"
       id="path1413"
       sodipodi:type="arc"
       sodipodi:cx="-39.81517"
       sodipodi:cy="-19.52614"
       sodipodi:rx="4"
       sodipodi:ry="4"
       sodipodi:start="0"
       sodipodi:end="0.52359878"
       sodipodi:arc-type="slice"
       d="m -35.81517,-19.52614 a 4,4 0 0 1 -0.535899,2 l -3.464101,-2 z"
       transform="scale(-1)" />
    <path
       style="fill:#00ff00;stroke-width:0.4"
       id="path1415"
       sodipodi:type="arc"
       sodipodi:cx="38.516781"
       sodipodi:cy="29.621063"
       sodipodi:rx="4"
       sodipodi:ry="4"
       sodipodi:start="0"
       sodipodi:end="0.78539816"
       sodipodi:arc-type="slice"
       d="M 42.516781,29.621063 A 4,4 0 0 1 41.345208,32.44949 L 38.516781,29.621063 Z" />
    <path
       style="fill:#00ff00;stroke-width:0.4"
       id="path1417"
       sodipodi:type="arc"
       sodipodi:cx="35.377964"
       sodipodi:cy="9.0999546"
       sodipodi:rx="4"
       sodipodi:ry="4"
       sodipodi:start="0"
       sodipodi:end="1.3089969"
       sodipodi:arc-type="slice"
       d="M 39.377964,9.0999546 A 4,4 0 0 1 36.41324,12.963658 L 35.377964,9.0999546 Z" />
    <path
       style="fill:#00ff00;stroke-width:0.4"
       id="path1419"
       sodipodi:type="arc"
       sodipodi:cx="-42.208061"
       sodipodi:cy="1.101373"
       sodipodi:rx="4"
       sodipodi:ry="4"
       sodipodi:start="0"
       sodipodi:end="1.5707963"
       sodipodi:arc-type="slice"
       d="m -38.208061,1.101373 a 4,4 0 0 1 -4,4 v -4 z"
       transform="scale(-1,1)" />
    <path
       style="fill:#00ff00;stroke-width:0.4"
       id="path1421"
       sodipodi:type="arc"
       sodipodi:cx="-41.374474"
       sodipodi:cy="-33.529797"
       sodipodi:rx="4"
       sodipodi:ry="4"
       sodipodi:start="0"
       sodipodi:end="0.52359878"
       sodipodi:arc-type="slice"
       d="m -37.374474,-33.529797 a 4,4 0 0 1 -0.535898,2 l -3.464102,-2 z"
       transform="scale(-1)" />
    <path
       style="fill:#00ff00;stroke-width:0.4"
       id="path1423"
       sodipodi:type="arc"
       sodipodi:cx="35.563644"
       sodipodi:cy="-15.831964"
       sodipodi:rx="4"
       sodipodi:ry="4"
       sodipodi:start="0"
       sodipodi:end="0.78539816"
       sodipodi:arc-type="slice"
       d="m 39.563644,-15.831964 a 4,4 0 0 1 -1.171572,2.828428 l -2.828428,-2.828428 z"
       transform="scale(1,-1)" />
    <path
       style="fill:#00ff00;stroke-width:0.4"
       id="path1425"
       sodipodi:type="arc"
       sodipodi:cx="40.238194"
       sodipodi:cy="-21.130182"
       sodipodi:rx="4"
       sodipodi:ry="4"
       sodipodi:start="0"
       sodipodi:end="1.5707963"
       sodipodi:arc-type="slice"
       d="m 44.238194,-21.130182 a 4,4 0 0 1 -4,4 v -4 z"
       transform="scale(1,-1)" />
    <path
       style="fill:#00ff00;stroke-width:0.4"
       id="path1427"
       sodipodi:type="arc"
       sodipodi:cx="44.464756"
       sodipodi:cy="12.53786"
       sodipodi:rx="4"
       sodipodi:ry="4"
       sodipodi:start="0"
       sodipodi:end="2.0943951"
       sodipodi:arc-type="slice"
       d="m 48.464756,12.53786 a 4,4 0 0 1 -2,3.464102 4,4 0 0 1 -4,0 l 2,-3.464102 z" />
    <path
       style="fill:#00ff00;stroke-width:0.4"
       id="path1429"
       sodipodi:type="arc"
       sodipodi:cx="-44.376732"
       sodipodi:cy="11.214991"
       sodipodi:rx="4"
       sodipodi:ry="4"
       sodipodi:start="0"
       sodipodi:end="1.0471976"
       sodipodi:arc-type="slice"
       d="m -40.376732,11.214991 a 4,4 0 0 1 -2,3.464101 l -2,-3.464101 z"
       transform="scale(-1,1)" />
    <path
       style="fill:#00ff00;stroke-width:0.4"
       id="path1431"
       sodipodi:type="arc"
       sodipodi:cx="-44.238194"
       sodipodi:cy="22.111614"
       sodipodi:rx="4"
       sodipodi:ry="4"
       sodipodi:start="0"
       sodipodi:end="0.52359878"
       sodipodi:arc-type="slice"
       d="m -40.238194,22.111614 a 4,4 0 0 1 -0.535898,2 l -3.464102,-2 z"
       transform="scale(-1,1)" />
    <path
       style="fill:#00ff00;stroke-width:0.4"
       id="path1433"
       sodipodi:type="arc"
       sodipodi:cx="40.556988"
       sodipodi:cy="-9.7690458"
       sodipodi:rx="4"
       sodipodi:ry="4"
       sodipodi:start="0"
       sodipodi:end="0.78539816"
       sodipodi:arc-type="slice"
       d="m 44.556988,-9.7690458 a 4,4 0 0 1 -1.171573,2.8284271 l -2.828427,-2.8284271 z"
       transform="scale(1,-1)" />
    <path
       style="fill:#00ff00;stroke-width:0.4"
       id="path1435"
       sodipodi:type="arc"
       sodipodi:cx="44.05027"
       sodipodi:cy="17.345781"
       sodipodi:rx="4"
       sodipodi:ry="4"
       sodipodi:start="0"
       sodipodi:end="1.0471976"
       sodipodi:arc-type="slice"
       d="m 48.05027,17.345781 a 4,4 0 0 1 -2,3.464102 l -2,-3.464102 z" />
    <path
       style="fill:#00ff00;stroke-width:0.4"
       id="path1437"
       sodipodi:type="arc"
       sodipodi:cx="-43.142075"
       sodipodi:cy="5.7248058"
       sodipodi:rx="4"
       sodipodi:ry="4"
       sodipodi:start="0"
       sodipodi:end="0.52359878"
       sodipodi:arc-type="slice"
       d="m -39.142075,5.7248058 a 4,4 0 0 1 -0.535898,2 l -3.464102,-2 z"
       transform="scale(-1,1)" />
    <path
       style="fill:#00ff00;stroke-width:0.4"
       id="path1439"
       sodipodi:type="arc"
       sodipodi:cx="-49.513397"
       sodipodi:cy="-11.986378"
       sodipodi:rx="4"
       sodipodi:ry="4"
       sodipodi:start="0"
       sodipodi:end="1.3089969"
       sodipodi:arc-type="slice"
       d="m -45.513397,-11.986378 a 4,4 0 0 1 -2.964724,3.8637035 l -1.035276,-3.8637035 z"
       transform="scale(-1)" />
    <path
       style="fill:#00ff00;stroke-width:0.4"
       id="path1441"
       sodipodi:type="arc"
       sodipodi:cx="43.302013"
       sodipodi:cy="-28.9818"
       sodipodi:rx="4"
       sodipodi:ry="4"
       sodipodi:start="0"
       sodipodi:end="2.3561945"
       sodipodi:arc-type="slice"
       d="m 47.302013,-28.9818 a 4,4 0 0 1 -2.469266,3.695518 4,4 0 0 1 -4.359161,-0.867091 l 2.828427,-2.828427 z"
       transform="scale(1,-1)" />
    <path
       style="fill:#00ff00;stroke-width:0.4"
       id="path1443"
       sodipodi:type="arc"
       sodipodi:cx="4.6288671"
       sodipodi:cy="-38.266579"
       sodipodi:rx="4"
       sodipodi:ry="4"
       sodipodi:start="0"
       sodipodi:end="0.52359878"
       sodipodi:arc-type="slice"
       d="m 8.6288671,-38.266579 a 4,4 0 0 1 -0.5358983,2 l -3.4641017,-2 z"
       transform="rotate(90)" />
    <path
       style="fill:#00ff00;stroke-width:0.4"
       id="path1445"
       sodipodi:type="arc"
       sodipodi:cx="18.958006"
       sodipodi:cy="6.0540762"
       sodipodi:rx="4"
       sodipodi:ry="4"
       sodipodi:start="0"
       sodipodi:end="3.1415927"
       sodipodi:arc-type="slice"
       d="m 22.958006,6.0540762 a 4,4 0 0 1 -2,3.4641016 4,4 0 0 1 -4,-10e-8 4,4 0 0 1 -2,-3.4641015 h 4 z" />
    <path
       style="fill:#00ff00;stroke-width:0.4"
       id="path1447"
       sodipodi:type="arc"
       sodipodi:cx="-52.264664"
       sodipodi:cy="-28.37491"
       sodipodi:rx="4"
       sodipodi:ry="4"
       sodipodi:start="0"
       sodipodi:end="1.3089969"
       sodipodi:arc-type="slice"
       d="m -48.264664,-28.37491 a 4,4 0 0 1 -2.964723,3.863703 l -1.035277,-3.863703 z"
       transform="scale(-1)" />
    <path
       style="fill:#00ff00;stroke-width:0.4"
       id="path1449"
       sodipodi:type="arc"
       sodipodi:cx="-33.229126"
       sodipodi:cy="48.290379"
       sodipodi:rx="4"
       sodipodi:ry="4"
       sodipodi:start="0"
       sodipodi:end="0.52359878"
       sodipodi:arc-type="slice"
       d="m -29.229126,48.290379 a 4,4 0 0 1 -0.535898,2 l -3.464102,-2 z"
       transform="rotate(-90)" />
    <path
       style="fill:#00ff00;stroke-width:0.4"
       id="path1451"
       sodipodi:type="arc"
       sodipodi:cx="-4.4291334"
       sodipodi:cy="-25.790546"
       sodipodi:rx="4"
       sodipodi:ry="4"
       sodipodi:start="0"
       sodipodi:end="1.5707963"
       sodipodi:arc-type="slice"
       d="m -0.42913342,-25.790546 a 4,4 0 0 1 -3.99999998,4 v -4 z"
       transform="scale(-1)" />
    <path
       style="fill:#00ff00;stroke-width:0.4"
       id="path1453"
       sodipodi:type="arc"
       sodipodi:cx="0.42913359"
       sodipodi:cy="17.345013"
       sodipodi:rx="4"
       sodipodi:ry="4"
       sodipodi:start="0"
       sodipodi:end="1.0471976"
       sodipodi:arc-type="slice"
       d="M 4.4291336,17.345013 A 4,4 0 0 1 2.4291334,20.809114 L 0.42913359,17.345013 Z" />
    <path
       style="fill:#00ff00;stroke-width:0.4"
       id="path1455"
       sodipodi:type="arc"
       sodipodi:cx="0.42913359"
       sodipodi:cy="26.771978"
       sodipodi:rx="4"
       sodipodi:ry="4"
       sodipodi:start="0"
       sodipodi:end="0.52359878"
       sodipodi:arc-type="slice"
       d="m 4.4291336,26.771978 a 4,4 0 0 1 -0.5358984,2 l -3.46410161,-2 z" />
    <path
       style="fill:#00ff00;stroke-width:0.4"
       id="path1457"
       sodipodi:type="arc"
       sodipodi:cx="-4.4291334"
       sodipodi:cy="-16.363579"
       sodipodi:rx="4"
       sodipodi:ry="4"
       sodipodi:start="0"
       sodipodi:end="0.78539816"
       sodipodi:arc-type="slice"
       d="m -0.42913342,-16.363579 a 4,4 0 0 1 -1.17157288,2.828427 l -2.8284271,-2.828427 z"
       transform="scale(-1)" />
    <path
       style="fill:#00ff00;stroke-width:0.4"
       id="path1459"
       sodipodi:type="arc"
       sodipodi:cx="0.35815161"
       sodipodi:cy="11.776156"
       sodipodi:rx="4"
       sodipodi:ry="4"
       sodipodi:start="0"
       sodipodi:end="0.52359878"
       sodipodi:arc-type="slice"
       d="m 4.3581516,11.776156 a 4,4 0 0 1 -0.5358984,2 l -3.46410159,-2 z" />
    <path
       style="fill:#00ff00;stroke-width:0.4"
       id="path1461"
       sodipodi:type="arc"
       sodipodi:cx="-4.4291334"
       sodipodi:cy="29.753412"
       sodipodi:rx="4"
       sodipodi:ry="4"
       sodipodi:start="0"
       sodipodi:end="0.78539816"
       sodipodi:arc-type="slice"
       d="M -0.42913342,29.753412 A 4,4 0 0 1 -1.6007063,32.581839 L -4.4291334,29.753412 Z"
       transform="scale(-1,1)" />
    <path
       style="fill:#00ff00;stroke-width:0.4"
       id="path1463"
       sodipodi:type="arc"
       sodipodi:cx="-4.4371829"
       sodipodi:cy="-11.105255"
       sodipodi:rx="4"
       sodipodi:ry="4"
       sodipodi:start="0"
       sodipodi:end="0.52359878"
       sodipodi:arc-type="slice"
       d="m -0.4371829,-11.105255 a 4,4 0 0 1 -0.5358984,1.9999999 l -3.4641016,-1.9999999 z"
       transform="scale(-1)" />
    <path
       style="fill:#00ff00;stroke-width:0.4"
       id="path1465"
       sodipodi:type="arc"
       sodipodi:cx="0.43718302"
       sodipodi:cy="0.45026025"
       sodipodi:rx="4"
       sodipodi:ry="4"
       sodipodi:start="0"
       sodipodi:end="1.3089969"
       sodipodi:arc-type="slice"
       d="M 4.437183,0.45026025 A 4,4 0 0 1 1.4724594,4.3139635 L 0.43718302,0.45026025 Z" />
    <path
       style="fill:#00ff00;stroke-width:0.4"
       id="path1467"
       sodipodi:type="arc"
       sodipodi:cx="-52.224216"
       sodipodi:cy="-16.80731"
       sodipodi:rx="4"
       sodipodi:ry="4"
       sodipodi:start="0"
       sodipodi:end="1.5707963"
       sodipodi:arc-type="slice"
       d="m -48.224216,-16.80731 a 4,4 0 0 1 -4,4 v -4 z"
       transform="scale(-1)" />
    <path
       style="fill:#00ff00;stroke-width:0.4"
       id="path1469"
       sodipodi:type="arc"
       sodipodi:cx="0.43718302"
       sodipodi:cy="-8.1238232"
       sodipodi:rx="4"
       sodipodi:ry="4"
       sodipodi:start="0"
       sodipodi:end="0.78539816"
       sodipodi:arc-type="slice"
       d="M 4.437183,-8.1238232 A 4,4 0 0 1 3.2656102,-5.2953961 L 0.43718302,-8.1238232 Z"
       transform="scale(1,-1)" />
    <path
       style="fill:#00ff00;stroke-width:0.4"
       id="path1471"
       sodipodi:type="arc"
       sodipodi:cx="3.3201637"
       sodipodi:cy="-47.506405"
       sodipodi:rx="4"
       sodipodi:ry="4"
       sodipodi:start="0"
       sodipodi:end="2.0943951"
       sodipodi:arc-type="slice"
       d="m 7.3201637,-47.506405 a 4,4 0 0 1 -2,3.464102 4,4 0 0 1 -4,0 l 2,-3.464102 z"
       transform="rotate(90)" />
    <path
       style="fill:#00ff00;stroke-width:0.4"
       id="path1473"
       sodipodi:type="arc"
       sodipodi:cx="21.390322"
       sodipodi:cy="-55.661209"
       sodipodi:rx="4"
       sodipodi:ry="4"
       sodipodi:start="0"
       sodipodi:end="2.0943951"
       sodipodi:arc-type="slice"
       d="m 25.390322,-55.661209 a 4,4 0 0 1 -2,3.464102 4,4 0 0 1 -4,0 l 2,-3.464102 z"
       transform="rotate(90)" />
    <path
       style="fill:#00ff00;stroke-width:0.4"
       id="path1475"
       sodipodi:type="arc"
       sodipodi:cx="51.436398"
       sodipodi:cy="29.593327"
       sodipodi:rx="4"
       sodipodi:ry="4"
       sodipodi:start="0"
       sodipodi:end="2.0943951"
       sodipodi:arc-type="slice"
       d="m 55.436398,29.593327 a 4,4 0 0 1 -2,3.464101 4,4 0 0 1 -4,0 l 2,-3.464101 z" />
    <path
       style="fill:#00ff00;stroke-width:0.4"
       id="path1477"
       sodipodi:type="arc"
       sodipodi:cx="55.231041"
       sodipodi:cy="-19.239794"
       sodipodi:rx="4"
       sodipodi:ry="4"
       sodipodi:start="0"
       sodipodi:end="0.52359878"
       sodipodi:arc-type="slice"
       d="m 59.231041,-19.239794 a 4,4 0 0 1 -0.535898,2 l -3.464102,-2 z"
       transform="rotate(45)" />
    <path
       style="fill:#00ff00;stroke-width:0.4"
       id="path1479"
       sodipodi:type="arc"
       sodipodi:cx="7.2088985"
       sodipodi:cy="-52.806641"
       sodipodi:rx="4"
       sodipodi:ry="4"
       sodipodi:start="0"
       sodipodi:end="0.78539816"
       sodipodi:arc-type="slice"
       d="m 11.208899,-52.806641 a 4,4 0 0 1 -1.171573,2.828427 l -2.8284275,-2.828427 z"
       transform="rotate(90)" />
    <path
       style="fill:#00ff00;stroke-width:0.4"
       id="path1481"
       sodipodi:type="arc"
       sodipodi:cx="48.438316"
       sodipodi:cy="3.3487313"
       sodipodi:rx="4"
       sodipodi:ry="4"
       sodipodi:start="0"
       sodipodi:end="1.0471976"
       sodipodi:arc-type="slice"
       d="m 52.438316,3.3487313 a 4,4 0 0 1 -2,3.4641017 l -2,-3.4641017 z" />
    <path
       style="fill:#00ff00;stroke-width:0.4"
       id="path1483"
       sodipodi:type="arc"
       sodipodi:cx="-22.370466"
       sodipodi:cy="30.358906"
       sodipodi:rx="4"
       sodipodi:ry="4"
       sodipodi:start="0"
       sodipodi:end="1.0471976"
       sodipodi:arc-type="slice"
       d="m -18.370466,30.358906 a 4,4 0 0 1 -2,3.464102 l -2,-3.464102 z"
       transform="scale(-1,1)" />
  </g>
</svg>
