<?xml version="1.0" encoding="UTF-8" standalone="no"?>
<!-- Created with Inkscape (http://www.inkscape.org/) -->

<svg
   width="14in"
   height="8.5in"
   viewBox="0 0 56 34"
   version="1.1"
   id="svg5"
   inkscape:version="1.2.2 (b0a8486541, 2022-12-01)"
   sodipodi:docname="Open_Circle_groups.svg"
   xmlns:inkscape="http://www.inkscape.org/namespaces/inkscape"
   xmlns:sodipodi="http://sodipodi.sourceforge.net/DTD/sodipodi-0.dtd"
   xmlns="http://www.w3.org/2000/svg"
   xmlns:svg="http://www.w3.org/2000/svg">
  <sodipodi:namedview
     id="namedview7"
     pagecolor="#ffffff"
     bordercolor="#000000"
     borderopacity="0.25"
     inkscape:showpageshadow="2"
     inkscape:pageopacity="0.0"
     inkscape:pagecheckerboard="0"
     inkscape:deskcolor="#d1d1d1"
     inkscape:document-units="mm"
     showgrid="true"
     inkscape:zoom="1.829812"
     inkscape:cx="766.74543"
     inkscape:cy="469.17388"
     inkscape:window-width="3800"
     inkscape:window-height="2120"
     inkscape:window-x="3840"
     inkscape:window-y="0"
     inkscape:window-maximized="1"
     inkscape:current-layer="layer1">
    <inkscape:grid
       type="xygrid"
       id="grid182"
       units="in"
       spacingx="1"
       spacingy="1"
       empspacing="4"
       dotted="true" />
  </sodipodi:namedview>
  <defs
     id="defs2" />
  <g
     inkscape:label="Layer 1"
     inkscape:groupmode="layer"
     id="layer1">
    <path
       id="path602"
       style="fill:#32f800;stroke-width:0.0629921"
       d="M 7.9322103 4.666748 A 4 4 0 0 0 3.9322103 8.666748 A 4 4 0 0 0 7.9322103 12.666748 A 4 4 0 0 0 11.93221 8.666748 A 4 4 0 0 0 7.9322103 4.666748 z M 7.9322103 5.0668132 A 3.5999999 3.5999999 0 0 1 11.532227 8.666748 A 3.5999999 3.5999999 0 0 1 7.9322103 12.266764 A 3.5999999 3.5999999 0 0 1 4.332194 8.666748 A 3.5999999 3.5999999 0 0 1 7.9322103 5.0668132 z " />
    <path
       id="circle652"
       style="fill:#32f800;stroke-width:0.0629921"
       d="M 2.3180339 3.0083008 A 2 2 0 0 0 0.31803385 5.0083008 A 2 2 0 0 0 2.3180339 7.0083008 A 2 2 0 0 0 4.3180339 5.0083008 A 2 2 0 0 0 2.3180339 3.0083008 z M 2.3180339 3.4083659 A 1.6 1.6 0 0 1 3.9180501 5.0083008 A 1.6 1.6 0 0 1 2.3180339 6.6083171 A 1.6 1.6 0 0 1 0.71801758 5.0083008 A 1.6 1.6 0 0 1 2.3180339 3.4083659 z " />
    <path
       id="circle670"
       style="fill:#32f800;stroke-width:0.0629921"
       d="M 1 24.249023 A 1 1 0 0 0 0 25.249023 A 1 1 0 0 0 1 26.249023 A 1 1 0 0 0 2 25.249023 A 1 1 0 0 0 1 24.249023 z M 1 24.649007 A 0.60000002 0.60000002 0 0 1 1.6000163 25.249023 A 0.60000002 0.60000002 0 0 1 1 25.84904 A 0.60000002 0.60000002 0 0 1 0.39998372 25.249023 A 0.60000002 0.60000002 0 0 1 1 24.649007 z " />
    <path
       id="path1063"
       style="fill:#32f800;stroke-width:0.0629921"
       d="m 8.8041223,0.32386708 a 2,2 0 0 0 -2.0000001,2.00000002 2,2 0 0 0 2.0000001,2 2,2 0 0 0 1.9999997,-2 2,2 0 0 0 -1.9999997,-2.00000002 z m 0,0.4000651 A 1.6,1.6 0 0 1 10.404138,2.3238671 1.6,1.6 0 0 1 8.8041223,3.9238834 1.6,1.6 0 0 1 7.2041063,2.3238671 1.6,1.6 0 0 1 8.8041223,0.72393218 Z" />
    <path
       id="path1065"
       style="fill:#32f800;stroke-width:0.0629921"
       d="m 16.378784,13.237931 a 2,2 0 0 0 -2,2.000001 2,2 0 0 0 2,2 2,2 0 0 0 2,-2 2,2 0 0 0 -2,-2.000001 z m 0,0.400066 a 1.6,1.6 0 0 1 1.600016,1.599935 1.6,1.6 0 0 1 -1.600016,1.600016 1.6,1.6 0 0 1 -1.600016,-1.600016 1.6,1.6 0 0 1 1.600016,-1.599935 z" />
    <path
       id="path1067"
       style="fill:#32f800;stroke-width:0.0629921"
       d="m 2.3849087,10.051535 a 2,2 0 0 0 -2.00000002,2 2,2 0 0 0 2.00000002,2 2,2 0 0 0 2,-2 2,2 0 0 0 -2,-2 z m 0,0.400065 A 1.6,1.6 0 0 1 3.9849249,12.051535 1.6,1.6 0 0 1 2.3849087,13.651552 1.6,1.6 0 0 1 0.78489241,12.051535 1.6,1.6 0 0 1 2.3849087,10.4516 Z" />
    <path
       id="path1069"
       style="fill:#32f800;stroke-width:0.0629921"
       d="m 2.1231644,19.898439 a 2,2 0 0 0 -2.00000001,2 2,2 0 0 0 2.00000001,2 2,2 0 0 0 2,-2 2,2 0 0 0 -2,-2 z m 0,0.400065 A 1.6,1.6 0 0 1 3.7231806,21.898439 1.6,1.6 0 0 1 2.1231644,23.498456 1.6,1.6 0 0 1 0.52314812,21.898439 1.6,1.6 0 0 1 2.1231644,20.298504 Z" />
    <path
       id="path1071"
       style="fill:#32f800;stroke-width:0.0629921"
       d="m 2.1109625,29.891085 a 2,2 0 0 0 -2.00000005,2 2,2 0 0 0 2.00000005,2 2,2 0 0 0 2,-2 2,2 0 0 0 -2,-2 z m 0,0.400065 A 1.6,1.6 0 0 1 3.7109787,31.891085 1.6,1.6 0 0 1 2.1109625,33.491102 1.6,1.6 0 0 1 0.51094618,31.891085 1.6,1.6 0 0 1 2.1109625,30.29115 Z" />
    <path
       id="path1073"
       style="fill:#32f800;stroke-width:0.0629921"
       d="m 28.945791,9.1705426 a 2,2 0 0 0 -2,2.0000004 2,2 0 0 0 2,2 2,2 0 0 0 2,-2 2,2 0 0 0 -2,-2.0000004 z m 0,0.4000647 a 1.6,1.6 0 0 1 1.600016,1.5999357 1.6,1.6 0 0 1 -1.600016,1.600017 1.6,1.6 0 0 1 -1.600016,-1.600017 1.6,1.6 0 0 1 1.600016,-1.5999357 z" />
    <path
       id="path1075"
       style="fill:#32f800;stroke-width:0.0629921"
       d="m 30.751163,3.3002345 a 2,2 0 0 0 -2,2.0000001 2,2 0 0 0 2,2 2,2 0 0 0 2,-2 2,2 0 0 0 -2,-2.0000001 z m 0,0.4000651 a 1.6,1.6 0 0 1 1.600016,1.599935 1.6,1.6 0 0 1 -1.600016,1.6000163 1.6,1.6 0 0 1 -1.600016,-1.6000163 1.6,1.6 0 0 1 1.600016,-1.599935 z" />
    <path
       id="path1077"
       style="fill:#32f800;stroke-width:0.0629921"
       d="m 35.193655,1.6392517 a 2,2 0 0 0 -2,2.0000001 2,2 0 0 0 2,2 2,2 0 0 0 2,-2 2,2 0 0 0 -2,-2.0000001 z m 0,0.4000651 a 1.6,1.6 0 0 1 1.600016,1.599935 1.6,1.6 0 0 1 -1.600016,1.6000163 1.6,1.6 0 0 1 -1.600016,-1.6000163 1.6,1.6 0 0 1 1.600016,-1.599935 z" />
    <path
       id="path1395"
       style="fill:#32f800;stroke-width:0.0629921"
       d="m 41.495421,7.4183145 a 2,2 0 0 0 -2,2.0000001 2,2 0 0 0 2,2.0000004 2,2 0 0 0 2,-2.0000004 2,2 0 0 0 -2,-2.0000001 z m 0,0.4000651 a 1.6,1.6 0 0 1 1.600016,1.599935 1.6,1.6 0 0 1 -1.600016,1.6000164 1.6,1.6 0 0 1 -1.600016,-1.6000164 1.6,1.6 0 0 1 1.600016,-1.599935 z" />
    <path
       id="path1397"
       style="fill:#32f800;stroke-width:0.0629921"
       d="m 18.249587,0.01110369 a 2,2 0 0 0 -2,2.00000011 2,2 0 0 0 2,2 2,2 0 0 0 2,-2 2,2 0 0 0 -2,-2.00000011 z m 0,0.4000651 a 1.6,1.6 0 0 1 1.600016,1.59993501 1.6,1.6 0 0 1 -1.600016,1.600016 1.6,1.6 0 0 1 -1.600016,-1.600016 1.6,1.6 0 0 1 1.600016,-1.59993501 z" />
    <path
       id="path1399"
       style="fill:#32f800;stroke-width:0.0629921"
       d="m 54,0 a 2,2 0 0 0 -2,2.0000001 2,2 0 0 0 2,2 2,2 0 0 0 2,-2 A 2,2 0 0 0 54,0 Z m 0,0.4000651 A 1.6,1.6 0 0 1 55.600016,2.0000001 1.6,1.6 0 0 1 54,3.6000161 1.6,1.6 0 0 1 52.399984,2.0000001 1.6,1.6 0 0 1 54,0.4000651 Z" />
    <path
       id="path1401"
       style="fill:#32f800;stroke-width:0.0629921"
       d="m 50.604541,14.599189 a 2,2 0 0 0 -2,2 2,2 0 0 0 2,2 2,2 0 0 0 2,-2 2,2 0 0 0 -2,-2 z m 0,0.400065 a 1.6,1.6 0 0 1 1.600016,1.599935 1.6,1.6 0 0 1 -1.600016,1.600016 1.6,1.6 0 0 1 -1.600016,-1.600016 1.6,1.6 0 0 1 1.600016,-1.599935 z" />
    <path
       id="path1403"
       style="fill:#32f800;stroke-width:0.0629921"
       d="m 47.486457,18.798504 a 2,2 0 0 0 -2,2 2,2 0 0 0 2,2 2,2 0 0 0 2,-2 2,2 0 0 0 -2,-2 z m 0,0.400065 a 1.6,1.6 0 0 1 1.600016,1.599935 1.6,1.6 0 0 1 -1.600016,1.600016 1.6,1.6 0 0 1 -1.600016,-1.600016 1.6,1.6 0 0 1 1.600016,-1.599935 z" />
    <path
       id="path1405"
       style="fill:#32f800;stroke-width:0.0629921"
       d="m 43.199329,20.369441 a 2,2 0 0 0 -2,2 2,2 0 0 0 2,2 2,2 0 0 0 2,-2 2,2 0 0 0 -2,-2 z m 0,0.400065 a 1.6,1.6 0 0 1 1.600016,1.599935 1.6,1.6 0 0 1 -1.600016,1.600016 1.6,1.6 0 0 1 -1.600016,-1.600016 1.6,1.6 0 0 1 1.600016,-1.599935 z" />
    <path
       id="path1407"
       style="fill:#32f800;stroke-width:0.0629921"
       d="m 40.746958,24.387014 a 2,2 0 0 0 -2,2 2,2 0 0 0 2,2 2,2 0 0 0 2,-2 2,2 0 0 0 -2,-2 z m 0,0.400065 a 1.6,1.6 0 0 1 1.600016,1.599935 1.6,1.6 0 0 1 -1.600016,1.600016 1.6,1.6 0 0 1 -1.600016,-1.600016 1.6,1.6 0 0 1 1.600016,-1.599935 z" />
    <path
       id="path1409"
       style="fill:#32f800;stroke-width:0.0629921"
       d="m 41.286485,29.185028 a 2,2 0 0 0 -2,2 2,2 0 0 0 2,2 2,2 0 0 0 2,-2 2,2 0 0 0 -2,-2 z m 0,0.400065 a 1.6,1.6 0 0 1 1.600016,1.599935 1.6,1.6 0 0 1 -1.600016,1.600016 1.6,1.6 0 0 1 -1.600016,-1.600016 1.6,1.6 0 0 1 1.600016,-1.599935 z" />
    <path
       id="path1411"
       style="fill:#32f800;stroke-width:0.0629921"
       d="m 52.030329,29.692796 a 2,2 0 0 0 -2,2 2,2 0 0 0 2,2 2,2 0 0 0 2,-2 2,2 0 0 0 -2,-2 z m 0,0.400065 a 1.6,1.6 0 0 1 1.600016,1.599935 1.6,1.6 0 0 1 -1.600016,1.600016 1.6,1.6 0 0 1 -1.600016,-1.600016 1.6,1.6 0 0 1 1.600016,-1.599935 z" />
    <path
       id="path1413"
       style="fill:#32f800;stroke-width:0.0629921"
       d="m 53.20909,24.605819 a 2,2 0 0 0 -2,2 2,2 0 0 0 2,2 2,2 0 0 0 2,-2 2,2 0 0 0 -2,-2 z m 0,0.400065 a 1.6,1.6 0 0 1 1.600016,1.599935 1.6,1.6 0 0 1 -1.600016,1.600016 1.6,1.6 0 0 1 -1.600016,-1.600016 1.6,1.6 0 0 1 1.600016,-1.599935 z" />
    <path
       id="path1415"
       style="fill:#32f800;stroke-width:0.0629921"
       d="m 54,20.050378 a 2,2 0 0 0 -2,2 2,2 0 0 0 2,2 2,2 0 0 0 2,-2 2,2 0 0 0 -2,-2 z m 0,0.400065 A 1.6,1.6 0 0 1 55.600016,22.050378 1.6,1.6 0 0 1 54,23.650394 1.6,1.6 0 0 1 52.399984,22.050378 1.6,1.6 0 0 1 54,20.450443 Z" />
    <path
       id="path1417"
       style="fill:#32f800;stroke-width:0.0629921"
       d="m 14.178434,26.438697 a 2,2 0 0 0 -2,2 2,2 0 0 0 2,2 2,2 0 0 0 2,-2 2,2 0 0 0 -2,-2 z m 0,0.400065 a 1.6,1.6 0 0 1 1.600016,1.599935 1.6,1.6 0 0 1 -1.600016,1.600017 1.6,1.6 0 0 1 -1.600016,-1.600017 1.6,1.6 0 0 1 1.600016,-1.599935 z" />
    <path
       id="path1419"
       style="fill:#32f800;stroke-width:0.0629921"
       d="m 19.071294,25.677236 a 2,2 0 0 0 -2,2 2,2 0 0 0 2,2 2,2 0 0 0 2,-2 2,2 0 0 0 -2,-2 z m 0,0.400065 a 1.6,1.6 0 0 1 1.600016,1.599935 1.6,1.6 0 0 1 -1.600016,1.600017 1.6,1.6 0 0 1 -1.600016,-1.600017 1.6,1.6 0 0 1 1.600016,-1.599935 z" />
    <path
       id="path1421"
       style="fill:#32f800;stroke-width:0.0629921"
       d="m 22.775317,20.261553 a 2,2 0 0 0 -2,2 2,2 0 0 0 2,2 2,2 0 0 0 2,-2 2,2 0 0 0 -2,-2 z m 0,0.400065 a 1.6,1.6 0 0 1 1.600016,1.599935 1.6,1.6 0 0 1 -1.600016,1.600017 1.6,1.6 0 0 1 -1.600016,-1.600017 1.6,1.6 0 0 1 1.600016,-1.599935 z" />
    <path
       id="path1423"
       style="fill:#32f800;stroke-width:0.0629921"
       d="m 29.535792,19.347834 a 2,2 0 0 0 -2,2 2,2 0 0 0 2,2 2,2 0 0 0 2,-2 2,2 0 0 0 -2,-2 z m 0,0.400065 a 1.6,1.6 0 0 1 1.600016,1.599935 1.6,1.6 0 0 1 -1.600016,1.600017 1.6,1.6 0 0 1 -1.600016,-1.600017 1.6,1.6 0 0 1 1.600016,-1.599935 z" />
    <path
       id="path1425"
       style="fill:#32f800;stroke-width:0.0629921"
       d="m 31.075351,13.271922 a 2,2 0 0 0 -2,2 2,2 0 0 0 2,2 2,2 0 0 0 2,-2 2,2 0 0 0 -2,-2 z m 0,0.400065 a 1.6,1.6 0 0 1 1.600016,1.599935 1.6,1.6 0 0 1 -1.600016,1.600017 1.6,1.6 0 0 1 -1.600016,-1.600017 1.6,1.6 0 0 1 1.600016,-1.599935 z" />
    <path
       id="path1430"
       style="fill:#32f800;stroke-width:0.0629921"
       d="m 5.1602012,20.254999 a 1,1 0 0 0 -1,1 1,1 0 0 0 1,1 1,1 0 0 0 1,-1 1,1 0 0 0 -1,-1 z m 0,0.399984 a 0.60000002,0.60000002 0 0 1 0.6000163,0.600016 0.60000002,0.60000002 0 0 1 -0.6000163,0.600017 0.60000002,0.60000002 0 0 1 -0.6000163,-0.600017 0.60000002,0.60000002 0 0 1 0.6000163,-0.600016 z" />
    <path
       id="path1432"
       style="fill:#32f800;stroke-width:0.0629921"
       d="m 5.5997439,22.445845 a 1,1 0 0 0 -1,1 1,1 0 0 0 1,1 1,1 0 0 0 1,-1 1,1 0 0 0 -1,-1 z m 0,0.399984 a 0.60000002,0.60000002 0 0 1 0.6000163,0.600016 0.60000002,0.60000002 0 0 1 -0.6000163,0.600017 0.60000002,0.60000002 0 0 1 -0.6000162,-0.600017 0.60000002,0.60000002 0 0 1 0.6000162,-0.600016 z" />
    <path
       id="path1434"
       style="fill:#32f800;stroke-width:0.0629921"
       d="m 3.5380558,24.270488 a 1,1 0 0 0 -1,1 1,1 0 0 0 1,1 1,1 0 0 0 1,-1 1,1 0 0 0 -1,-1 z m 0,0.399984 a 0.60000002,0.60000002 0 0 1 0.6000163,0.600016 0.60000002,0.60000002 0 0 1 -0.6000163,0.600017 0.60000002,0.60000002 0 0 1 -0.6000162,-0.600017 0.60000002,0.60000002 0 0 1 0.6000162,-0.600016 z" />
    <path
       id="path1436"
       style="fill:#32f800;stroke-width:0.0629921"
       d="m 1.7348988,27.020343 a 1,1 0 0 0 -1.00000005,1 1,1 0 0 0 1.00000005,1 1,1 0 0 0 1,-1 1,1 0 0 0 -1,-1 z m 0,0.399984 A 0.60000002,0.60000002 0 0 1 2.3349151,28.020343 0.60000002,0.60000002 0 0 1 1.7348988,28.62036 0.60000002,0.60000002 0 0 1 1.1348825,28.020343 0.60000002,0.60000002 0 0 1 1.7348988,27.420327 Z" />
    <path
       id="path1438"
       style="fill:#32f800;stroke-width:0.0629921"
       d="m 12.514459,24.369248 a 1,1 0 0 0 -1,1 1,1 0 0 0 1,1 1,1 0 0 0 1,-1 1,1 0 0 0 -1,-1 z m 0,0.399984 a 0.60000002,0.60000002 0 0 1 0.600016,0.600016 0.60000002,0.60000002 0 0 1 -0.600016,0.600017 0.60000002,0.60000002 0 0 1 -0.600016,-0.600017 0.60000002,0.60000002 0 0 1 0.600016,-0.600016 z" />
    <path
       id="path1440"
       style="fill:#32f800;stroke-width:0.0629921"
       d="m 10.928405,22.147803 a 1,1 0 0 0 -1.0000002,1 1,1 0 0 0 1.0000002,1 1,1 0 0 0 1,-1 1,1 0 0 0 -1,-1 z m 0,0.399984 a 0.60000002,0.60000002 0 0 1 0.600016,0.600016 0.60000002,0.60000002 0 0 1 -0.600016,0.600017 0.60000002,0.60000002 0 0 1 -0.600017,-0.600017 0.60000002,0.60000002 0 0 1 0.600017,-0.600016 z" />
    <path
       id="path1442"
       style="fill:#32f800;stroke-width:0.0629921"
       d="m 8.387447,21.430788 a 1,1 0 0 0 -1,1 1,1 0 0 0 1,1 1,1 0 0 0 1,-1 1,1 0 0 0 -1,-1 z m 0,0.399984 A 0.60000002,0.60000002 0 0 1 8.9874633,22.430788 0.60000002,0.60000002 0 0 1 8.387447,23.030805 0.60000002,0.60000002 0 0 1 7.7874307,22.430788 0.60000002,0.60000002 0 0 1 8.387447,21.830772 Z" />
    <path
       id="path1444"
       style="fill:#32f800;stroke-width:0.0629921"
       d="m 18.268408,31.930006 a 1,1 0 0 0 -1,1 1,1 0 0 0 1,1 1,1 0 0 0 1,-1 1,1 0 0 0 -1,-1 z m 0,0.399984 a 0.60000002,0.60000002 0 0 1 0.600016,0.600016 0.60000002,0.60000002 0 0 1 -0.600016,0.600017 0.60000002,0.60000002 0 0 1 -0.600016,-0.600017 0.60000002,0.60000002 0 0 1 0.600016,-0.600016 z" />
    <path
       id="path1446"
       style="fill:#32f800;stroke-width:0.0629921"
       d="m 15.991963,30.148593 a 1,1 0 0 0 -1,1 1,1 0 0 0 1,1 1,1 0 0 0 1,-1 1,1 0 0 0 -1,-1 z m 0,0.399984 a 0.60000002,0.60000002 0 0 1 0.600016,0.600016 0.60000002,0.60000002 0 0 1 -0.600016,0.600017 0.60000002,0.60000002 0 0 1 -0.600017,-0.600017 0.60000002,0.60000002 0 0 1 0.600017,-0.600016 z" />
    <path
       id="path1448"
       style="fill:#32f800;stroke-width:0.0629921"
       d="m 14.500296,32.017615 a 1,1 0 0 0 -1,1 1,1 0 0 0 1,1 1,1 0 0 0 1,-1 1,1 0 0 0 -1,-1 z m 0,0.399984 a 0.60000002,0.60000002 0 0 1 0.600016,0.600016 0.60000002,0.60000002 0 0 1 -0.600016,0.600017 0.60000002,0.60000002 0 0 1 -0.600017,-0.600017 0.60000002,0.60000002 0 0 1 0.600017,-0.600016 z" />
    <path
       id="path1450"
       style="fill:#32f800;stroke-width:0.0629921"
       d="m 12.238472,30.747114 a 1,1 0 0 0 -1,1 1,1 0 0 0 1,1 1,1 0 0 0 1,-1 1,1 0 0 0 -1,-1 z m 0,0.399984 a 0.60000002,0.60000002 0 0 1 0.600016,0.600016 0.60000002,0.60000002 0 0 1 -0.600016,0.600017 0.60000002,0.60000002 0 0 1 -0.600017,-0.600017 0.60000002,0.60000002 0 0 1 0.600017,-0.600016 z" />
    <path
       id="path1452"
       style="fill:#32f800;stroke-width:0.0629921"
       d="m 9.9862987,31.98637 a 1,1 0 0 0 -1,1 1,1 0 0 0 1,1 1,1 0 0 0 1.0000003,-1 1,1 0 0 0 -1.0000003,-1 z m 0,0.399984 A 0.60000002,0.60000002 0 0 1 10.586315,32.98637 0.60000002,0.60000002 0 0 1 9.9862987,33.586387 0.60000002,0.60000002 0 0 1 9.3862825,32.98637 0.60000002,0.60000002 0 0 1 9.9862987,32.386354 Z" />
    <path
       id="path1454"
       style="fill:#32f800;stroke-width:0.0629921"
       d="m 5.6795758,31.787026 a 1,1 0 0 0 -1,1 1,1 0 0 0 1,1 1,1 0 0 0 1,-1 1,1 0 0 0 -1,-1 z m 0,0.399984 A 0.60000002,0.60000002 0 0 1 6.2795921,32.787026 0.60000002,0.60000002 0 0 1 5.6795758,33.387043 0.60000002,0.60000002 0 0 1 5.0795596,32.787026 0.60000002,0.60000002 0 0 1 5.6795758,32.18701 Z" />
    <path
       id="path1456"
       style="fill:#32f800;stroke-width:0.0629921"
       d="m 2.7544796,14.477245 a 1,1 0 0 0 -1,1 1,1 0 0 0 1,1 1,1 0 0 0 1,-1 1,1 0 0 0 -1,-1 z m 0,0.399984 a 0.60000002,0.60000002 0 0 1 0.6000163,0.600016 0.60000002,0.60000002 0 0 1 -0.6000163,0.600017 0.60000002,0.60000002 0 0 1 -0.6000163,-0.600017 0.60000002,0.60000002 0 0 1 0.6000163,-0.600016 z" />
    <path
       id="path1458"
       style="fill:#32f800;stroke-width:0.0629921"
       d="m 1.2411525,16.470807 a 1,1 0 0 0 -0.99999996,1 1,1 0 0 0 0.99999996,1 1,1 0 0 0 1,-1 1,1 0 0 0 -1,-1 z m 0,0.399984 A 0.60000002,0.60000002 0 0 1 1.8411688,17.470807 0.60000002,0.60000002 0 0 1 1.2411525,18.070824 0.60000002,0.60000002 0 0 1 0.64113624,17.470807 0.60000002,0.60000002 0 0 1 1.2411525,16.870791 Z" />
    <path
       id="path1460"
       style="fill:#32f800;stroke-width:0.0629921"
       d="m 3.2328932,17.736535 a 1,1 0 0 0 -1,1 1,1 0 0 0 1,1 1,1 0 0 0 1,-1 1,1 0 0 0 -1,-1 z m 0,0.399984 a 0.60000002,0.60000002 0 0 1 0.6000163,0.600016 0.60000002,0.60000002 0 0 1 -0.6000163,0.600017 0.60000002,0.60000002 0 0 1 -0.6000163,-0.600017 0.60000002,0.60000002 0 0 1 0.6000163,-0.600016 z" />
    <path
       id="path1462"
       style="fill:#32f800;stroke-width:0.0629921"
       d="m 2.0797328,7.428785 a 1,1 0 0 0 -1,1 1,1 0 0 0 1,1 1,1 0 0 0 1,-1 1,1 0 0 0 -1,-1 z m 0,0.399984 A 0.60000002,0.60000002 0 0 1 2.6797491,8.428785 0.60000002,0.60000002 0 0 1 2.0797328,9.028802 0.60000002,0.60000002 0 0 1 1.4797165,8.428785 0.60000002,0.60000002 0 0 1 2.0797328,7.828769 Z" />
    <path
       id="path1464"
       style="fill:#32f800;stroke-width:0.0629921"
       d="m 5.2730555,1.5808767 a 1,1 0 0 0 -1,1 1,1 0 0 0 1,1 1,1 0 0 0 1,-1 1,1 0 0 0 -1,-1 z m 0,0.399984 a 0.60000002,0.60000002 0 0 1 0.6000163,0.600016 0.60000002,0.60000002 0 0 1 -0.6000163,0.600017 0.60000002,0.60000002 0 0 1 -0.6000163,-0.600017 0.60000002,0.60000002 0 0 1 0.6000163,-0.600016 z" />
    <path
       id="path1466"
       style="fill:#32f800;stroke-width:0.0629921"
       d="M 1.5395106,0.49071598 A 1,1 0 0 0 0.53951059,1.490716 a 1,1 0 0 0 1.00000001,1 1,1 0 0 0 1,-1 1,1 0 0 0 -1,-1.00000002 z m 0,0.399984 A 0.60000002,0.60000002 0 0 1 2.1395269,1.490716 0.60000002,0.60000002 0 0 1 1.5395106,2.090733 0.60000002,0.60000002 0 0 1 0.93949429,1.490716 0.60000002,0.60000002 0 0 1 1.5395106,0.89069998 Z" />
    <path
       id="path1468"
       style="fill:#32f800;stroke-width:0.0629921"
       d="m 12.868144,11.564764 a 1,1 0 0 0 -1,1 1,1 0 0 0 1,1 1,1 0 0 0 1,-1 1,1 0 0 0 -1,-1 z m 0,0.399984 a 0.60000002,0.60000002 0 0 1 0.600016,0.600016 0.60000002,0.60000002 0 0 1 -0.600016,0.600017 0.60000002,0.60000002 0 0 1 -0.600017,-0.600017 0.60000002,0.60000002 0 0 1 0.600017,-0.600016 z" />
    <path
       id="path1470"
       style="fill:#32f800;stroke-width:0.0629921"
       d="m 26.063355,8.1486345 a 1,1 0 0 0 -1,1 1,1 0 0 0 1,1.0000005 1,1 0 0 0 1,-1.0000005 1,1 0 0 0 -1,-1 z m 0,0.399984 a 0.60000002,0.60000002 0 0 1 0.600016,0.600016 0.60000002,0.60000002 0 0 1 -0.600016,0.600017 0.60000002,0.60000002 0 0 1 -0.600017,-0.600017 0.60000002,0.60000002 0 0 1 0.600017,-0.600016 z" />
    <path
       id="path1472"
       style="fill:#32f800;stroke-width:0.0629921"
       d="m 12.702887,0.40548664 a 1,1 0 0 0 -1,0.99999996 1,1 0 0 0 1,1 1,1 0 0 0 1,-1 1,1 0 0 0 -1,-0.99999996 z m 0,0.399984 a 0.60000002,0.60000002 0 0 1 0.600016,0.60001596 0.60000002,0.60000002 0 0 1 -0.600016,0.600017 0.60000002,0.60000002 0 0 1 -0.600017,-0.600017 0.60000002,0.60000002 0 0 1 0.600017,-0.60001596 z" />
    <path
       id="path1474"
       style="fill:#32f800;stroke-width:0.0629921"
       d="m 12.244843,4.0074694 a 1,1 0 0 0 -1,1 1,1 0 0 0 1,1 1,1 0 0 0 1,-1 1,1 0 0 0 -1,-1 z m 0,0.399984 a 0.60000002,0.60000002 0 0 1 0.600016,0.600016 0.60000002,0.60000002 0 0 1 -0.600016,0.600017 0.60000002,0.60000002 0 0 1 -0.600017,-0.600017 0.60000002,0.60000002 0 0 1 0.600017,-0.600016 z" />
    <path
       id="path1476"
       style="fill:#32f800;stroke-width:0.0629921"
       d="m 19.894912,11.972389 a 1,1 0 0 0 -1,1 1,1 0 0 0 1,1 1,1 0 0 0 1,-1 1,1 0 0 0 -1,-1 z m 0,0.399984 a 0.60000002,0.60000002 0 0 1 0.600017,0.600016 0.60000002,0.60000002 0 0 1 -0.600017,0.600017 0.60000002,0.60000002 0 0 1 -0.600016,-0.600017 0.60000002,0.60000002 0 0 1 0.600016,-0.600016 z" />
    <path
       id="path1478"
       style="fill:#32f800;stroke-width:0.0629921"
       d="m 19.423303,15.70097 a 1,1 0 0 0 -1,1 1,1 0 0 0 1,1 1,1 0 0 0 1,-1 1,1 0 0 0 -1,-1 z m 0,0.399984 a 0.60000002,0.60000002 0 0 1 0.600017,0.600016 0.60000002,0.60000002 0 0 1 -0.600017,0.600017 0.60000002,0.60000002 0 0 1 -0.600016,-0.600017 0.60000002,0.60000002 0 0 1 0.600016,-0.600016 z" />
    <path
       id="path1480"
       style="fill:#32f800;stroke-width:0.0629921"
       d="m 13.651331,16.156308 a 1,1 0 0 0 -1,1 1,1 0 0 0 1,1 1,1 0 0 0 1,-1 1,1 0 0 0 -1,-1 z m 0,0.399984 a 0.60000002,0.60000002 0 0 1 0.600016,0.600016 0.60000002,0.60000002 0 0 1 -0.600016,0.600017 0.60000002,0.60000002 0 0 1 -0.600017,-0.600017 0.60000002,0.60000002 0 0 1 0.600017,-0.600016 z" />
    <path
       id="path1482"
       style="fill:#32f800;stroke-width:0.0629921"
       d="m 24.607711,31.764065 a 1,1 0 0 0 -1,1 1,1 0 0 0 1,1 1,1 0 0 0 1,-1 1,1 0 0 0 -1,-1 z m 0,0.399984 a 0.60000002,0.60000002 0 0 1 0.600016,0.600016 0.60000002,0.60000002 0 0 1 -0.600016,0.600017 0.60000002,0.60000002 0 0 1 -0.600017,-0.600017 0.60000002,0.60000002 0 0 1 0.600017,-0.600016 z" />
    <path
       id="path1484"
       style="fill:#32f800;stroke-width:0.0629921"
       d="m 48.686441,31.765493 a 1,1 0 0 0 -1,1 1,1 0 0 0 1,1 1,1 0 0 0 1,-1 1,1 0 0 0 -1,-1 z m 0,0.399984 a 0.60000002,0.60000002 0 0 1 0.600016,0.600016 0.60000002,0.60000002 0 0 1 -0.600016,0.600017 0.60000002,0.60000002 0 0 1 -0.600017,-0.600017 0.60000002,0.60000002 0 0 1 0.600017,-0.600016 z" />
    <path
       id="path1486"
       style="fill:#32f800;stroke-width:0.0629921"
       d="m 45.383233,31.814688 a 1,1 0 0 0 -1,1 1,1 0 0 0 1,1 1,1 0 0 0 1,-1 1,1 0 0 0 -1,-1 z m 0,0.399984 a 0.60000002,0.60000002 0 0 1 0.600016,0.600016 0.60000002,0.60000002 0 0 1 -0.600016,0.600017 0.60000002,0.60000002 0 0 1 -0.600017,-0.600017 0.60000002,0.60000002 0 0 1 0.600017,-0.600016 z" />
    <path
       id="path1488"
       style="fill:#32f800;stroke-width:0.0629921"
       d="m 30.023753,31.641309 a 1,1 0 0 0 -1,1 1,1 0 0 0 1,1 1,1 0 0 0 1,-1 1,1 0 0 0 -1,-1 z m 0,0.399984 a 0.60000002,0.60000002 0 0 1 0.600016,0.600016 0.60000002,0.60000002 0 0 1 -0.600016,0.600017 0.60000002,0.60000002 0 0 1 -0.600017,-0.600017 0.60000002,0.60000002 0 0 1 0.600017,-0.600016 z" />
    <path
       id="path1490"
       style="fill:#32f800;stroke-width:0.0629921"
       d="m 26.253206,21.224273 a 1,1 0 0 0 -1,1 1,1 0 0 0 1,1 1,1 0 0 0 1,-1 1,1 0 0 0 -1,-1 z m 0,0.399984 a 0.60000002,0.60000002 0 0 1 0.600016,0.600016 0.60000002,0.60000002 0 0 1 -0.600016,0.600017 0.60000002,0.60000002 0 0 1 -0.600017,-0.600017 0.60000002,0.60000002 0 0 1 0.600017,-0.600016 z" />
    <path
       id="path1492"
       style="fill:#32f800;stroke-width:0.0629921"
       d="m 31.813913,24.088177 a 1,1 0 0 0 -1,1 1,1 0 0 0 1,1 1,1 0 0 0 1,-1 1,1 0 0 0 -1,-1 z m 0,0.399984 a 0.60000002,0.60000002 0 0 1 0.600016,0.600016 0.60000002,0.60000002 0 0 1 -0.600016,0.600017 0.60000002,0.60000002 0 0 1 -0.600017,-0.600017 0.60000002,0.60000002 0 0 1 0.600017,-0.600016 z" />
    <path
       id="path1494"
       style="fill:#32f800;stroke-width:0.0629921"
       d="m 31.412741,17.399782 a 1,1 0 0 0 -1,1 1,1 0 0 0 1,1 1,1 0 0 0 1,-1 1,1 0 0 0 -1,-1 z m 0,0.399984 a 0.60000002,0.60000002 0 0 1 0.600016,0.600016 0.60000002,0.60000002 0 0 1 -0.600016,0.600017 0.60000002,0.60000002 0 0 1 -0.600017,-0.600017 0.60000002,0.60000002 0 0 1 0.600017,-0.600016 z" />
    <path
       id="path1496"
       style="fill:#32f800;stroke-width:0.0629921"
       d="m 18.381587,29.739992 a 1,1 0 0 0 -1,1 1,1 0 0 0 1,1 1,1 0 0 0 1,-1 1,1 0 0 0 -1,-1 z m 0,0.399984 a 0.60000002,0.60000002 0 0 1 0.600016,0.600016 0.60000002,0.60000002 0 0 1 -0.600016,0.600017 0.60000002,0.60000002 0 0 1 -0.600017,-0.600017 0.60000002,0.60000002 0 0 1 0.600017,-0.600016 z" />
    <path
       id="path1498"
       style="fill:#32f800;stroke-width:0.0629921"
       d="m 21.861059,24.418574 a 1,1 0 0 0 -1,1 1,1 0 0 0 1,1 1,1 0 0 0 1,-1 1,1 0 0 0 -1,-1 z m 0,0.399984 a 0.60000002,0.60000002 0 0 1 0.600016,0.600016 0.60000002,0.60000002 0 0 1 -0.600016,0.600017 0.60000002,0.60000002 0 0 1 -0.600017,-0.600017 0.60000002,0.60000002 0 0 1 0.600017,-0.600016 z" />
    <path
       id="path1500"
       style="fill:#32f800;stroke-width:0.0629921"
       d="m 21.620077,29.64657 a 2,2 0 0 0 -2,2 2,2 0 0 0 2,2 2,2 0 0 0 2,-2 2,2 0 0 0 -2,-2 z m 0,0.400065 a 1.6,1.6 0 0 1 1.600016,1.599935 1.6,1.6 0 0 1 -1.600016,1.600016 1.6,1.6 0 0 1 -1.600016,-1.600016 1.6,1.6 0 0 1 1.600016,-1.599935 z" />
    <path
       id="path1502"
       style="fill:#32f800;stroke-width:0.0629921"
       d="m 41.155431,18.860779 a 1,1 0 0 0 -1,1 1,1 0 0 0 1,1 1,1 0 0 0 1,-1 1,1 0 0 0 -1,-1 z m 0,0.399984 a 0.60000002,0.60000002 0 0 1 0.600016,0.600016 0.60000002,0.60000002 0 0 1 -0.600016,0.600017 0.60000002,0.60000002 0 0 1 -0.600017,-0.600017 0.60000002,0.60000002 0 0 1 0.600017,-0.600016 z" />
    <path
       id="path1504"
       style="fill:#32f800;stroke-width:0.0629921"
       d="m 39.306076,16.449262 a 1,1 0 0 0 -1,1 1,1 0 0 0 1,1 1,1 0 0 0 1,-1 1,1 0 0 0 -1,-1 z m 0,0.399984 a 0.60000002,0.60000002 0 0 1 0.600016,0.600016 0.60000002,0.60000002 0 0 1 -0.600016,0.600017 0.60000002,0.60000002 0 0 1 -0.600017,-0.600017 0.60000002,0.60000002 0 0 1 0.600017,-0.600016 z" />
    <path
       id="path1506"
       style="fill:#32f800;stroke-width:0.0629921"
       d="m 39.318239,12.163409 a 1,1 0 0 0 -1,1 1,1 0 0 0 1,1 1,1 0 0 0 1,-1 1,1 0 0 0 -1,-1 z m 0,0.399984 a 0.60000002,0.60000002 0 0 1 0.600016,0.600016 0.60000002,0.60000002 0 0 1 -0.600016,0.600017 0.60000002,0.60000002 0 0 1 -0.600017,-0.600017 0.60000002,0.60000002 0 0 1 0.600017,-0.600016 z" />
    <path
       id="path1508"
       style="fill:#32f800;stroke-width:0.0629921"
       d="m 37.417661,14.486034 a 1,1 0 0 0 -1,1 1,1 0 0 0 1,1 1,1 0 0 0 1,-1 1,1 0 0 0 -1,-1 z m 0,0.399984 a 0.60000002,0.60000002 0 0 1 0.600016,0.600016 0.60000002,0.60000002 0 0 1 -0.600016,0.600017 0.60000002,0.60000002 0 0 1 -0.600017,-0.600017 0.60000002,0.60000002 0 0 1 0.600017,-0.600016 z" />
    <path
       id="path1510"
       style="fill:#32f800;stroke-width:0.0629921"
       d="m 34.655898,14.907603 a 1,1 0 0 0 -1,1 1,1 0 0 0 1,1 1,1 0 0 0 1,-1 1,1 0 0 0 -1,-1 z m 0,0.399984 a 0.60000002,0.60000002 0 0 1 0.600016,0.600016 0.60000002,0.60000002 0 0 1 -0.600016,0.600017 0.60000002,0.60000002 0 0 1 -0.600017,-0.600017 0.60000002,0.60000002 0 0 1 0.600017,-0.600016 z" />
    <path
       id="path1512"
       style="fill:#32f800;stroke-width:0.0629921"
       d="m 39.541657,5.4421048 a 1,1 0 0 0 -1,1 1,1 0 0 0 1,1 1,1 0 0 0 1,-1 1,1 0 0 0 -1,-1 z m 0,0.399984 a 0.60000002,0.60000002 0 0 1 0.600016,0.600016 0.60000002,0.60000002 0 0 1 -0.600016,0.600017 0.60000002,0.60000002 0 0 1 -0.600017,-0.600017 0.60000002,0.60000002 0 0 1 0.600017,-0.600016 z" />
    <path
       id="path1514"
       style="fill:#32f800;stroke-width:0.0629921"
       d="m 38.372397,3.1528234 a 1,1 0 0 0 -1,1 1,1 0 0 0 1,1 1,1 0 0 0 1,-1 1,1 0 0 0 -1,-1 z m 0,0.399984 a 0.60000002,0.60000002 0 0 1 0.600016,0.600016 0.60000002,0.60000002 0 0 1 -0.600016,0.600017 0.60000002,0.60000002 0 0 1 -0.600017,-0.600017 0.60000002,0.60000002 0 0 1 0.600017,-0.600016 z" />
    <path
       id="path1516"
       style="fill:#32f800;stroke-width:0.0629921"
       d="m 40.388066,1.3505509 a 1,1 0 0 0 -1,1 1,1 0 0 0 1,1 1,1 0 0 0 1,-1 1,1 0 0 0 -1,-1 z m 0,0.399984 a 0.60000002,0.60000002 0 0 1 0.600016,0.600016 0.60000002,0.60000002 0 0 1 -0.600016,0.600017 0.60000002,0.60000002 0 0 1 -0.600017,-0.600017 0.60000002,0.60000002 0 0 1 0.600017,-0.600016 z" />
    <path
       id="path1518"
       style="fill:#32f800;stroke-width:0.0629921"
       d="m 29.397796,0.34040079 a 1,1 0 0 0 -1,0.99999991 1,1 0 0 0 1,1 1,1 0 0 0 1,-1 1,1 0 0 0 -1,-0.99999991 z m 0,0.39998393 a 0.60000002,0.60000002 0 0 1 0.600016,0.60001598 0.60000002,0.60000002 0 0 1 -0.600016,0.600017 0.60000002,0.60000002 0 0 1 -0.600017,-0.600017 0.60000002,0.60000002 0 0 1 0.600017,-0.60001598 z" />
    <path
       id="path1520"
       style="fill:#32f800;stroke-width:0.0629921"
       d="m 14.812597,2.0049166 a 1,1 0 0 0 -1,1 1,1 0 0 0 1,1 1,1 0 0 0 1,-1 1,1 0 0 0 -1,-1 z m 0,0.3999839 a 0.60000002,0.60000002 0 0 1 0.600016,0.6000161 0.60000002,0.60000002 0 0 1 -0.600016,0.600017 0.60000002,0.60000002 0 0 1 -0.600017,-0.600017 0.60000002,0.60000002 0 0 1 0.600017,-0.6000161 z" />
    <path
       id="path1522"
       style="fill:#32f800;stroke-width:0.0629921"
       d="m 50.871669,18.888807 a 1,1 0 0 0 -1,1 1,1 0 0 0 1,1 1,1 0 0 0 1,-1 1,1 0 0 0 -1,-1 z m 0,0.399984 a 0.60000002,0.60000002 0 0 1 0.600016,0.600016 0.60000002,0.60000002 0 0 1 -0.600016,0.600017 0.60000002,0.60000002 0 0 1 -0.600017,-0.600017 0.60000002,0.60000002 0 0 1 0.600017,-0.600016 z" />
    <path
       id="path1524"
       style="fill:#32f800;stroke-width:0.0629921"
       d="m 54.510249,17.179984 a 1,1 0 0 0 -1,1 1,1 0 0 0 1,1 1,1 0 0 0 1,-1 1,1 0 0 0 -1,-1 z m 0,0.399984 a 0.60000002,0.60000002 0 0 1 0.600016,0.600016 0.60000002,0.60000002 0 0 1 -0.600016,0.600017 0.60000002,0.60000002 0 0 1 -0.600017,-0.600017 0.60000002,0.60000002 0 0 1 0.600017,-0.600016 z" />
    <path
       id="path1526"
       style="fill:#32f800;stroke-width:0.0629921"
       d="m 54.515186,14.226124 a 1,1 0 0 0 -1,1 1,1 0 0 0 1,1 1,1 0 0 0 1,-1 1,1 0 0 0 -1,-1 z m 0,0.399984 a 0.60000002,0.60000002 0 0 1 0.600016,0.600016 0.60000002,0.60000002 0 0 1 -0.600016,0.600017 0.60000002,0.60000002 0 0 1 -0.600017,-0.600017 0.60000002,0.60000002 0 0 1 0.600017,-0.600016 z" />
    <path
       id="path1528"
       style="fill:#32f800;stroke-width:0.0629921"
       d="m 53.178668,4.1777908 a 1,1 0 0 0 -1,1 1,1 0 0 0 1,1 1,1 0 0 0 1,-1 1,1 0 0 0 -1,-1 z m 0,0.399984 a 0.60000002,0.60000002 0 0 1 0.600016,0.600016 0.60000002,0.60000002 0 0 1 -0.600016,0.600017 0.60000002,0.60000002 0 0 1 -0.600017,-0.600017 0.60000002,0.60000002 0 0 1 0.600017,-0.600016 z" />
    <path
       id="path1530"
       style="fill:#32f800;stroke-width:0.0629921"
       d="m 50.854068,2.8415256 a 1,1 0 0 0 -1,1 1,1 0 0 0 1,1 1,1 0 0 0 1,-1 1,1 0 0 0 -1,-1 z m 0,0.399984 a 0.60000002,0.60000002 0 0 1 0.600016,0.600016 0.60000002,0.60000002 0 0 1 -0.600016,0.600017 0.60000002,0.60000002 0 0 1 -0.600017,-0.600017 0.60000002,0.60000002 0 0 1 0.600017,-0.600016 z" />
    <path
       id="path1532"
       style="fill:#32f800;stroke-width:0.0629921"
       d="m 50.217936,0.28079955 a 1,1 0 0 0 -1,1.00000005 1,1 0 0 0 1,1 1,1 0 0 0 1,-1 1,1 0 0 0 -1,-1.00000005 z m 0,0.399984 a 0.60000002,0.60000002 0 0 1 0.600016,0.60001605 0.60000002,0.60000002 0 0 1 -0.600016,0.600017 0.60000002,0.60000002 0 0 1 -0.600017,-0.600017 0.60000002,0.60000002 0 0 1 0.600017,-0.60001605 z" />
    <path
       id="path1534"
       style="fill:#32f800;stroke-width:0.0629921"
       d="m 46.248909,8.8338703 a 1,1 0 0 0 -1,1 1,1 0 0 0 1,0.9999997 1,1 0 0 0 1,-0.9999997 1,1 0 0 0 -1,-1 z m 0,0.399984 a 0.60000002,0.60000002 0 0 1 0.600016,0.600016 0.60000002,0.60000002 0 0 1 -0.600016,0.6000167 0.60000002,0.60000002 0 0 1 -0.600017,-0.6000167 0.60000002,0.60000002 0 0 1 0.600017,-0.600016 z" />
    <path
       id="path1536"
       style="fill:#32f800;stroke-width:0.0629921"
       d="m 50.760883,22.122727 a 1,1 0 0 0 -1,1 1,1 0 0 0 1,1 1,1 0 0 0 1,-1 1,1 0 0 0 -1,-1 z m 0,0.399984 a 0.60000002,0.60000002 0 0 1 0.600016,0.600016 0.60000002,0.60000002 0 0 1 -0.600016,0.600017 0.60000002,0.60000002 0 0 1 -0.600017,-0.600017 0.60000002,0.60000002 0 0 1 0.600017,-0.600016 z" />
    <path
       id="path1541"
       style="fill:#32f800;stroke-width:0.0629921"
       d="m 24.568824,0.05689099 a 4,4 0 0 0 -4,4.00000001 4,4 0 0 0 4,4 4,4 0 0 0 3.999999,-4 4,4 0 0 0 -3.999999,-4.00000001 z m 0,0.4000652 A 3.5999999,3.5999999 0 0 1 28.16884,4.056891 3.5999999,3.5999999 0 0 1 24.568824,7.656907 3.5999999,3.5999999 0 0 1 20.968807,4.056891 3.5999999,3.5999999 0 0 1 24.568824,0.45695619 Z" />
    <path
       id="path1543"
       style="fill:#32f800;stroke-width:0.0629921"
       d="m 16.506963,17.619002 a 4,4 0 0 0 -4,4.000001 4,4 0 0 0 4,4 4,4 0 0 0 4,-4 4,4 0 0 0 -4,-4.000001 z m 0,0.400065 a 3.5999999,3.5999999 0 0 1 3.600017,3.599936 3.5999999,3.5999999 0 0 1 -3.600017,3.600016 3.5999999,3.5999999 0 0 1 -3.600016,-3.600016 3.5999999,3.5999999 0 0 1 3.600016,-3.599936 z" />
    <path
       id="path1545"
       style="fill:#32f800;stroke-width:0.0629921"
       d="m 8.2121225,12.943818 a 4,4 0 0 0 -4,4 4,4 0 0 0 4,4 4,4 0 0 0 3.9999995,-4 4,4 0 0 0 -3.9999995,-4 z m 0,0.400065 a 3.5999999,3.5999999 0 0 1 3.6000165,3.599935 3.5999999,3.5999999 0 0 1 -3.6000165,3.600016 3.5999999,3.5999999 0 0 1 -3.6000163,-3.600016 3.5999999,3.5999999 0 0 1 3.6000163,-3.599935 z" />
    <path
       id="path1547"
       style="fill:#32f800;stroke-width:0.0629921"
       d="m 45.346347,0.07759046 a 4,4 0 0 0 -4,4.00000004 4,4 0 0 0 4,4 4,4 0 0 0 3.999999,-4 4,4 0 0 0 -3.999999,-4.00000004 z m 0,0.4000652 a 3.5999999,3.5999999 0 0 1 3.600016,3.59993484 3.5999999,3.5999999 0 0 1 -3.600016,3.600016 3.5999999,3.5999999 0 0 1 -3.600017,-3.600016 3.5999999,3.5999999 0 0 1 3.600017,-3.59993484 z" />
    <path
       id="path1549"
       style="fill:#32f800;stroke-width:0.0629921"
       d="m 51.541629,6.0416339 a 4,4 0 0 0 -4,4.0000001 4,4 0 0 0 4,4 4,4 0 0 0 3.999999,-4 4,4 0 0 0 -3.999999,-4.0000001 z m 0,0.4000652 a 3.5999999,3.5999999 0 0 1 3.600016,3.5999349 3.5999999,3.5999999 0 0 1 -3.600016,3.600016 3.5999999,3.5999999 0 0 1 -3.600017,-3.600016 3.5999999,3.5999999 0 0 1 3.600017,-3.5999349 z" />
    <path
       id="path1551"
       style="fill:#32f800;stroke-width:0.0629921"
       d="m 47.141999,23.286956 a 4,4 0 0 0 -4,4 4,4 0 0 0 4,4 4,4 0 0 0 3.999999,-4 4,4 0 0 0 -3.999999,-4 z m 0,0.400065 a 3.5999999,3.5999999 0 0 1 3.600016,3.599935 3.5999999,3.5999999 0 0 1 -3.600016,3.600016 3.5999999,3.5999999 0 0 1 -3.600017,-3.600016 3.5999999,3.5999999 0 0 1 3.600017,-3.599935 z" />
    <path
       id="path1553"
       style="fill:#32f800;stroke-width:0.0629921"
       d="m 44.159397,11.104967 a 4,4 0 0 0 -4,4 4,4 0 0 0 4,4 4,4 0 0 0 3.999999,-4 4,4 0 0 0 -3.999999,-4 z m 0,0.400066 a 3.5999999,3.5999999 0 0 1 3.600016,3.599934 3.5999999,3.5999999 0 0 1 -3.600016,3.600016 3.5999999,3.5999999 0 0 1 -3.600017,-3.600016 3.5999999,3.5999999 0 0 1 3.600017,-3.599934 z" />
    <path
       id="path1555"
       style="fill:#32f800;stroke-width:0.0629921"
       d="m 35.311915,25.725035 a 4,4 0 0 0 -4,4 4,4 0 0 0 4,4 4,4 0 0 0 3.999999,-4 4,4 0 0 0 -3.999999,-4 z m 0,0.400066 a 3.5999999,3.5999999 0 0 1 3.600016,3.599934 3.5999999,3.5999999 0 0 1 -3.600016,3.600016 3.5999999,3.5999999 0 0 1 -3.600017,-3.600016 3.5999999,3.5999999 0 0 1 3.600017,-3.599934 z" />
    <path
       id="path1557"
       style="fill:#32f800;stroke-width:0.0629921"
       d="m 36.039653,17.441568 a 4,4 0 0 0 -4,4 4,4 0 0 0 4,4 4,4 0 0 0 3.999999,-4 4,4 0 0 0 -3.999999,-4 z m 0,0.400065 a 3.5999999,3.5999999 0 0 1 3.600016,3.599935 3.5999999,3.5999999 0 0 1 -3.600016,3.600016 3.5999999,3.5999999 0 0 1 -3.600017,-3.600016 3.5999999,3.5999999 0 0 1 3.600017,-3.599935 z" />
    <path
       id="path1559"
       style="fill:#32f800;stroke-width:0.0629921"
       d="m 26.905053,23.845945 a 4,4 0 0 0 -4,4 4,4 0 0 0 4,4 4,4 0 0 0 3.999999,-4 4,4 0 0 0 -3.999999,-4 z m 0,0.400065 a 3.5999999,3.5999999 0 0 1 3.600016,3.599935 3.5999999,3.5999999 0 0 1 -3.600016,3.600016 3.5999999,3.5999999 0 0 1 -3.600017,-3.600016 3.5999999,3.5999999 0 0 1 3.600017,-3.599935 z" />
    <path
       id="path1561"
       style="fill:#32f800;stroke-width:0.0629921"
       d="m 35.039885,6.123873 a 4,4 0 0 0 -4,4 4,4 0 0 0 4,4 4,4 0 0 0 3.999999,-4 4,4 0 0 0 -3.999999,-4 z m 0,0.4000652 a 3.5999999,3.5999999 0 0 1 3.600016,3.5999348 3.5999999,3.5999999 0 0 1 -3.600016,3.600016 3.5999999,3.5999999 0 0 1 -3.600017,-3.600016 3.5999999,3.5999999 0 0 1 3.600017,-3.5999348 z" />
    <path
       id="path1563"
       style="fill:#32f800;stroke-width:0.0629921"
       d="m 16.926225,4.4951774 a 4,4 0 0 0 -4,4 4,4 0 0 0 4,3.9999996 4,4 0 0 0 3.999999,-3.9999996 4,4 0 0 0 -3.999999,-4 z m 0,0.4000652 a 3.5999999,3.5999999 0 0 1 3.600016,3.5999348 3.5999999,3.5999999 0 0 1 -3.600016,3.6000156 3.5999999,3.5999999 0 0 1 -3.600017,-3.6000156 3.5999999,3.5999999 0 0 1 3.600017,-3.5999348 z" />
    <path
       id="path1565"
       style="fill:#32f800;stroke-width:0.0629921"
       d="m 24.738961,12.141272 a 4,4 0 0 0 -4,4 4,4 0 0 0 4,4 4,4 0 0 0 3.999999,-4 4,4 0 0 0 -3.999999,-4 z m 0,0.400065 a 3.5999999,3.5999999 0 0 1 3.600016,3.599935 3.5999999,3.5999999 0 0 1 -3.600016,3.600016 3.5999999,3.5999999 0 0 1 -3.600017,-3.600016 3.5999999,3.5999999 0 0 1 3.600017,-3.599935 z" />
    <path
       id="path1567"
       style="fill:#32f800;stroke-width:0.0629921"
       d="m 7.9617528,24.030918 a 4,4 0 0 0 -4,4 4,4 0 0 0 4,4 4,4 0 0 0 3.9999992,-4 4,4 0 0 0 -3.9999992,-4 z m 0,0.400065 a 3.5999999,3.5999999 0 0 1 3.6000162,3.599935 3.5999999,3.5999999 0 0 1 -3.6000162,3.600016 3.5999999,3.5999999 0 0 1 -3.600017,-3.600016 3.5999999,3.5999999 0 0 1 3.600017,-3.599935 z" />
    <path
       id="path1569"
       style="fill:#32f800;stroke-width:0.0629921"
       d="m 23.019903,8.1673535 a 2,2 0 0 0 -2,1.9999995 2,2 0 0 0 2,2 2,2 0 0 0 2,-2 2,2 0 0 0 -2,-1.9999995 z m 0,0.4000647 a 1.6,1.6 0 0 1 1.600016,1.5999348 1.6,1.6 0 0 1 -1.600016,1.600017 1.6,1.6 0 0 1 -1.600016,-1.600017 1.6,1.6 0 0 1 1.600016,-1.5999348 z" />
    <path
       id="path1571"
       style="fill:#32f800;stroke-width:0.0629921"
       d="m 28.394225,6.9131335 a 1,1 0 0 0 -1,1 1,1 0 0 0 1,1.0000005 1,1 0 0 0 1,-1.0000005 1,1 0 0 0 -1,-1 z m 0,0.399984 a 0.60000002,0.60000002 0 0 1 0.600016,0.600016 0.60000002,0.60000002 0 0 1 -0.600016,0.600017 0.60000002,0.60000002 0 0 1 -0.600017,-0.600017 0.60000002,0.60000002 0 0 1 0.600017,-0.600016 z" />
    <path
       id="path1573"
       style="fill:#32f800;stroke-width:0.0629921"
       d="m 32.220188,1.0162198 a 1,1 0 0 0 -1,1 1,1 0 0 0 1,1 1,1 0 0 0 1,-1 1,1 0 0 0 -1,-1 z m 0,0.399984 a 0.60000002,0.60000002 0 0 1 0.600016,0.600016 0.60000002,0.60000002 0 0 1 -0.600016,0.600017 0.60000002,0.60000002 0 0 1 -0.600017,-0.600017 0.60000002,0.60000002 0 0 1 0.600017,-0.600016 z" />
    <path
       id="path1575"
       style="fill:#32f800;stroke-width:0.0629921"
       d="m 37.778272,0.46104449 a 1,1 0 0 0 -1,1.00000001 1,1 0 0 0 1,1 1,1 0 0 0 1,-1 1,1 0 0 0 -1,-1.00000001 z m 0,0.399984 a 0.60000002,0.60000002 0 0 1 0.600016,0.60001601 0.60000002,0.60000002 0 0 1 -0.600016,0.600017 0.60000002,0.60000002 0 0 1 -0.600017,-0.600017 0.60000002,0.60000002 0 0 1 0.600017,-0.60001601 z" />
  </g>
</svg>
