<?xml version="1.0" encoding="UTF-8" standalone="no"?>
<!-- Created with Inkscape (http://www.inkscape.org/) -->

<svg
   width="14in"
   height="8.5in"
   viewBox="0 0 56 34"
   version="1.1"
   id="svg658"
   xml:space="preserve"
   inkscape:version="1.2.2 (b0a8486541, 2022-12-01)"
   sodipodi:docname="Snowflake.svg"
   xmlns:inkscape="http://www.inkscape.org/namespaces/inkscape"
   xmlns:sodipodi="http://sodipodi.sourceforge.net/DTD/sodipodi-0.dtd"
   xmlns="http://www.w3.org/2000/svg"
   xmlns:svg="http://www.w3.org/2000/svg"><sodipodi:namedview
     id="namedview660"
     pagecolor="#ffffff"
     bordercolor="#000000"
     borderopacity="0.25"
     inkscape:showpageshadow="2"
     inkscape:pageopacity="0.0"
     inkscape:pagecheckerboard="false"
     inkscape:deskcolor="#d1d1d1"
     inkscape:document-units="in"
     showgrid="true"
     inkscape:zoom="1.2938725"
     inkscape:cx="807.65301"
     inkscape:cy="338.90512"
     inkscape:window-width="3800"
     inkscape:window-height="2120"
     inkscape:window-x="3840"
     inkscape:window-y="0"
     inkscape:window-maximized="1"
     inkscape:current-layer="svg658"><inkscape:grid
       type="xygrid"
       id="grid779"
       units="in"
       spacingx="0.8"
       originx="0"
       originy="0"
       spacingy="0.8" /></sodipodi:namedview><defs
     id="defs655" /><path
     id="path17068"
     style="fill:#ff6c04;stroke-width:0.629921"
     d="m 36.179096,14 a 3,3 0 0 0 -3,3 3,3 0 0 0 3,3 3,3 0 0 0 3,-3 3,3 0 0 0 -3,-3 z m -0.653564,1.067952 0.653564,1.131999 0.653646,-1.131999 0.69279,0.399984 -0.653646,1.13208 h 1.30721 v 0.799968 h -1.30721 l 0.653646,1.13208 -0.69279,0.399984 -0.653646,-1.132081 -0.653646,1.132081 -0.69279,-0.399984 0.653646,-1.132162 -1.30721,8.2e-5 v -0.799968 l 1.30721,-8.1e-5 -0.653564,-1.131999 z" /><path
     id="path17070"
     style="fill:#ff6c04;stroke-width:0.629921"
     d="m 25.242604,14 a 3,3 0 0 0 -3,3 3,3 0 0 0 3,3.000001 3,3 0 0 0 3,-3.000001 3,3 0 0 0 -3,-3 z m -0.653564,1.067952 0.653564,1.131999 0.653646,-1.131999 0.69279,0.399984 -0.653646,1.13208 h 1.30721 v 0.799968 h -1.30721 l 0.653646,1.132081 -0.69279,0.399984 -0.653646,-1.132082 -0.653646,1.132082 -0.69279,-0.399984 0.653646,-1.132163 -1.30721,8.2e-5 v -0.799968 l 1.30721,-8.1e-5 -0.653564,-1.131999 z" /><path
     id="path17072"
     style="fill:#ff6c04;stroke-width:0.629921"
     d="m 14.306112,14 a 3,3 0 0 0 -3,3 3,3 0 0 0 3,3.000001 3,3 0 0 0 3,-3.000001 3,3 0 0 0 -3,-3 z m -0.653564,1.067952 0.653564,1.131999 0.653646,-1.131999 0.69279,0.399984 -0.653646,1.13208 h 1.30721 v 0.799968 h -1.30721 l 0.653646,1.132081 -0.69279,0.399984 -0.653646,-1.132082 -0.653646,1.132082 -0.69279,-0.399984 0.653646,-1.132163 -1.30721,8.2e-5 v -0.799968 l 1.30721,-8.1e-5 -0.653564,-1.131999 z" /><path
     id="path17074"
     style="fill:#ff6c04;stroke-width:0.629921"
     d="m 3.3696202,14 a 3,3 0 0 0 -3,3 3,3 0 0 0 3,3 3,3 0 0 0 3,-3 3,3 0 0 0 -3,-3 z m -0.653564,1.067952 0.653564,1.131999 0.653646,-1.131999 0.69279,0.399984 -0.653646,1.13208 h 1.30721 v 0.799968 h -1.30721 l 0.653646,1.13208 -0.69279,0.399984 -0.653646,-1.132081 -0.653646,1.132081 -0.69279,-0.399984 0.653646,-1.132162 -1.30721,8.2e-5 v -0.799968 l 1.30721,-8.1e-5 -0.653564,-1.131999 z" /><path
     id="path17076"
     style="fill:#ff6c04;stroke-width:0.629921"
     d="m 47.115588,14 a 3,3 0 0 0 -3,3 3,3 0 0 0 3,3.000001 3,3 0 0 0 3,-3.000001 3,3 0 0 0 -3,-3 z m -0.653564,1.067952 0.653564,1.131999 0.653646,-1.131999 0.69279,0.399984 -0.653646,1.13208 h 1.30721 v 0.799968 h -1.30721 l 0.653646,1.132081 -0.69279,0.399984 -0.653646,-1.132082 -0.653646,1.132082 -0.69279,-0.399984 0.653646,-1.132163 -1.30721,8.2e-5 v -0.799968 l 1.30721,-8.1e-5 -0.653564,-1.131999 z" /><path
     id="path17082"
     style="fill:#ff6c04;stroke-width:0.629921"
     d="m 41.693888,20.431264 a 3,3 0 0 0 -3,3 3,3 0 0 0 3,3 3,3 0 0 0 3,-3 3,3 0 0 0 -3,-3 z m -0.653564,1.067952 0.653564,1.131999 0.653646,-1.131999 0.69279,0.399984 -0.653646,1.13208 h 1.30721 v 0.799968 h -1.30721 l 0.653646,1.13208 -0.69279,0.399984 -0.653646,-1.132081 -0.653646,1.132081 -0.69279,-0.399984 0.653646,-1.132162 -1.30721,8.2e-5 V 23.03128 l 1.30721,-8.1e-5 -0.653564,-1.131999 z" /><path
     id="path17084"
     style="fill:#ff6c04;stroke-width:0.629921"
     d="m 30.757396,20.431264 a 3,3 0 0 0 -3,3 3,3 0 0 0 3,3.000001 3,3 0 0 0 3,-3.000001 3,3 0 0 0 -3,-3 z m -0.653564,1.067952 0.653564,1.131999 0.653646,-1.131999 0.69279,0.399984 -0.653646,1.13208 h 1.30721 v 0.799968 h -1.30721 l 0.653646,1.132081 -0.69279,0.399984 -0.653646,-1.132082 -0.653646,1.132082 -0.69279,-0.399984 0.653646,-1.132163 -1.30721,8.2e-5 V 23.03128 l 1.30721,-8.1e-5 -0.653564,-1.131999 z" /><path
     id="path17086"
     style="fill:#ff6c04;stroke-width:0.629921"
     d="m 19.820904,20.431264 a 3,3 0 0 0 -3,3 3,3 0 0 0 3,3.000001 3,3 0 0 0 3,-3.000001 3,3 0 0 0 -3,-3 z m -0.653564,1.067952 0.653564,1.131999 0.653646,-1.131999 0.69279,0.399984 -0.653646,1.13208 h 1.30721 v 0.799968 h -1.30721 l 0.653646,1.132081 -0.69279,0.399984 -0.653646,-1.132082 -0.653646,1.132082 -0.69279,-0.399984 0.653646,-1.132163 -1.30721,8.2e-5 V 23.03128 l 1.30721,-8.1e-5 L 18.47455,21.8992 Z" /><path
     id="path17088"
     style="fill:#ff6c04;stroke-width:0.629921"
     d="m 8.8844118,20.431264 a 3,3 0 0 0 -3,3 3,3 0 0 0 3,3 3,3 0 0 0 3.0000002,-3 3,3 0 0 0 -3.0000002,-3 z m -0.653564,1.067953 0.653564,1.131999 0.653646,-1.131999 0.6927902,0.399983 -0.6536462,1.13208 h 1.3072102 v 0.799968 H 9.5772018 l 0.6536462,1.13208 -0.6927902,0.399984 -0.653646,-1.132081 -0.653646,1.132081 -0.69279,-0.399984 0.653646,-1.132161 -1.30721,8.1e-5 V 23.03128 l 1.30721,-8.1e-5 -0.653564,-1.131999 z" /><path
     id="path17090"
     style="fill:#ff6c04;stroke-width:0.629921"
     d="m 52.63038,20.431264 a 3,3 0 0 0 -3,3 3,3 0 0 0 3,3.000001 3,3 0 0 0 3,-3.000001 3,3 0 0 0 -3,-3 z m -0.653564,1.067952 0.653564,1.131999 0.653646,-1.131999 0.69279,0.399984 -0.653646,1.13208 h 1.30721 v 0.799968 h -1.30721 l 0.653646,1.132081 -0.69279,0.399984 -0.653646,-1.132081 -0.653646,1.132081 -0.69279,-0.399984 0.653646,-1.132163 -1.30721,8.2e-5 V 23.03128 l 1.30721,-8.1e-5 -0.653564,-1.131999 z" /><path
     id="path17028"
     style="fill:#ff6c04;stroke-width:0.629921"
     d="m 41.699619,7.5687355 a 3,3 0 0 0 -3,2.9999995 3,3 0 0 0 3,3 3,3 0 0 0 3,-3 3,3 0 0 0 -3,-2.9999995 z m -0.653564,1.067952 0.653564,1.131999 0.653646,-1.131999 0.69279,0.399984 -0.653646,1.1320795 h 1.30721 v 0.799968 h -1.30721 l 0.653646,1.13208 -0.69279,0.399984 -0.653646,-1.13208 -0.653646,1.13208 -0.69279,-0.399984 0.653646,-1.132161 -1.30721,8.2e-5 v -0.799968 l 1.30721,-8.1e-5 -0.653564,-1.1319995 z" /><path
     id="path17032"
     style="fill:#ff6c04;stroke-width:0.629921"
     d="m 30.763127,7.5687354 a 3,3 0 0 0 -3,2.9999996 3,3 0 0 0 3,3.000001 3,3 0 0 0 3,-3.000001 3,3 0 0 0 -3,-2.9999996 z m -0.653564,1.067952 0.653564,1.131999 0.653646,-1.131999 0.69279,0.399984 -0.653646,1.1320796 h 1.30721 v 0.799968 h -1.30721 l 0.653646,1.132081 -0.69279,0.399984 -0.653646,-1.132082 -0.653646,1.132082 -0.69279,-0.399984 0.653646,-1.132162 -1.30721,8.2e-5 v -0.799968 l 1.30721,-8.1e-5 -0.653564,-1.1319996 z" /><path
     id="path17036"
     style="fill:#ff6c04;stroke-width:0.629921"
     d="m 19.826635,7.5687354 a 3,3 0 0 0 -3,2.9999996 3,3 0 0 0 3,3.000001 3,3 0 0 0 3,-3.000001 3,3 0 0 0 -3,-2.9999996 z m -0.653564,1.067952 0.653564,1.131999 0.653646,-1.131999 0.69279,0.399984 -0.653646,1.1320796 h 1.30721 v 0.799968 h -1.30721 l 0.653646,1.132081 -0.69279,0.399984 -0.653646,-1.132082 -0.653646,1.132082 -0.69279,-0.399984 0.653646,-1.132163 -1.30721,8.2e-5 v -0.799968 l 1.30721,-8.1e-5 -0.653564,-1.1319986 z" /><path
     id="path17040"
     style="fill:#ff6c04;stroke-width:0.629921"
     d="m 8.8901433,7.5687356 a 3,3 0 0 0 -3,3.0000004 3,3 0 0 0 3,2.999999 3,3 0 0 0 2.9999997,-2.999999 3,3 0 0 0 -2.9999997,-3.0000004 z m -0.653564,1.067952 0.653564,1.131999 0.653646,-1.131999 0.6927897,0.399984 -0.6536457,1.1320804 H 10.890143 V 10.96872 H 9.5829333 l 0.6536457,1.132079 -0.6927897,0.399984 -0.653646,-1.13208 -0.653646,1.13208 -0.69279,-0.399984 0.653646,-1.132161 -1.30721,8.2e-5 v -0.799968 l 1.30721,-8.1e-5 -0.653564,-1.1319994 z" /><path
     id="path17042"
     style="fill:#ff6c04;stroke-width:0.629921"
     d="m 52.636111,7.5687354 a 3,3 0 0 0 -3,2.9999996 3,3 0 0 0 3,3.000001 3,3 0 0 0 3,-3.000001 3,3 0 0 0 -3,-2.9999996 z m -0.653564,1.067952 0.653564,1.131999 0.653646,-1.1319991 0.69279,0.399984 -0.653646,1.1320797 h 1.30721 v 0.799968 h -1.30721 l 0.653646,1.132081 -0.69279,0.399984 -0.653646,-1.132081 -0.653646,1.132081 -0.69279,-0.399984 0.653646,-1.132163 -1.30721,8.2e-5 v -0.799968 l 1.30721,-8.1e-5 -0.653564,-1.1319987 z" /><path
     id="path17110"
     style="fill:#ff6c04;stroke-width:0.629921"
     d="m 36.173365,1.1374709 a 3,3 0 0 0 -3,3 3,3 0 0 0 3,2.9999996 3,3 0 0 0 3,-2.9999996 3,3 0 0 0 -3,-3 z m -0.653564,1.067952 0.653564,1.131999 0.653646,-1.131999 0.69279,0.399984 -0.653646,1.13208 h 1.30721 v 0.799968 h -1.30721 l 0.653646,1.1320796 -0.69279,0.399984 -0.653646,-1.1320806 -0.653646,1.1320806 -0.69279,-0.399984 0.653646,-1.1321616 -1.30721,8.2e-5 v -0.799968 l 1.30721,-8.1e-5 -0.653564,-1.131999 z" /><path
     id="path17112"
     style="fill:#ff6c04;stroke-width:0.629921"
     d="m 25.236873,1.1374708 a 3,3 0 0 0 -3,3 3,3 0 0 0 3,3.0000007 3,3 0 0 0 3,-3.0000007 3,3 0 0 0 -3,-3 z m -0.653564,1.067952 0.653564,1.131999 0.653646,-1.131999 0.69279,0.399984 -0.653646,1.13208 h 1.30721 v 0.799968 h -1.30721 l 0.653646,1.1320807 -0.69279,0.399984 -0.653646,-1.1320817 -0.653646,1.1320817 -0.69279,-0.399984 0.653646,-1.1321626 -1.30721,8.2e-5 v -0.799968 l 1.30721,-8.1e-5 -0.653564,-1.1319991 z" /><path
     id="path17114"
     style="fill:#ff6c04;stroke-width:0.629921"
     d="m 14.300381,1.1374708 a 3,3 0 0 0 -3,3 3,3 0 0 0 3,3.0000007 3,3 0 0 0 3,-3.0000007 3,3 0 0 0 -3,-3 z m -0.653564,1.067952 0.653564,1.131999 0.653646,-1.131999 0.69279,0.399984 -0.653646,1.13208 h 1.30721 v 0.799968 h -1.30721 l 0.653646,1.1320807 -0.69279,0.399984 -0.653646,-1.1320817 -0.653646,1.1320817 -0.69279,-0.399984 0.653646,-1.1321627 -1.30721,8.2e-5 v -0.799968 l 1.30721,-8.1e-5 -0.653564,-1.131999 z" /><path
     id="path17116"
     style="fill:#ff6c04;stroke-width:0.629921"
     d="m 3.3638887,1.137471 a 3,3 0 0 0 -3,3 3,3 0 0 0 3,2.9999995 3,3 0 0 0 3,-2.9999995 3,3 0 0 0 -3,-3 z m -0.653564,1.067952 0.653564,1.131999 0.653646,-1.131999 0.69279,0.399984 -0.653646,1.13208 h 1.30721 v 0.799968 h -1.30721 l 0.653646,1.1320795 -0.69279,0.399984 -0.653646,-1.1320805 -0.653646,1.1320805 -0.69279,-0.399984 0.653646,-1.1321615 -1.30721,8.2e-5 V 3.737487 l 1.30721,-8.1e-5 -0.653564,-1.131999 z" /><path
     id="path17118"
     style="fill:#ff6c04;stroke-width:0.629921"
     d="m 47.109857,1.1374708 a 3,3 0 0 0 -3,2.9999999 3,3 0 0 0 3,3.0000008 3,3 0 0 0 3,-3.0000008 3,3 0 0 0 -3,-2.9999999 z m -0.653564,1.067952 0.653564,1.131999 0.653646,-1.1319991 0.69279,0.399984 -0.653646,1.13208 h 1.30721 v 0.799968 h -1.30721 l 0.653646,1.1320808 -0.69279,0.399984 -0.653646,-1.1320814 -0.653646,1.1320814 -0.69279,-0.399984 0.653646,-1.1321628 -1.30721,8.2e-5 v -0.799968 l 1.30721,-8.09e-5 -0.653564,-1.1319991 z" /><path
     id="path17156"
     style="fill:#ff6c04;stroke-width:0.629921"
     d="m 36.179096,26.862528 a 3,3 0 0 0 -3,3 3,3 0 0 0 3,3 3,3 0 0 0 3,-3 3,3 0 0 0 -3,-3 z m -0.653564,1.067952 0.653564,1.131999 0.653646,-1.131999 0.69279,0.399984 -0.653646,1.13208 h 1.30721 v 0.799968 h -1.30721 l 0.653646,1.13208 -0.69279,0.399984 -0.653646,-1.132081 -0.653646,1.132081 -0.69279,-0.399984 0.653646,-1.132162 -1.30721,8.2e-5 v -0.799968 l 1.30721,-8.1e-5 -0.653564,-1.131999 z" /><path
     id="path17158"
     style="fill:#ff6c04;stroke-width:0.629921"
     d="m 25.242604,26.862528 a 3,3 0 0 0 -3,3 3,3 0 0 0 3,3.000001 3,3 0 0 0 3,-3.000001 3,3 0 0 0 -3,-3 z m -0.653564,1.067952 0.653564,1.131999 0.653646,-1.131999 0.69279,0.399984 -0.653646,1.13208 h 1.30721 v 0.799968 h -1.30721 l 0.653646,1.132081 -0.69279,0.399984 -0.653646,-1.132082 -0.653646,1.132082 -0.69279,-0.399984 0.653646,-1.132163 -1.30721,8.2e-5 v -0.799968 l 1.30721,-8.1e-5 -0.653564,-1.131999 z" /><path
     id="path17160"
     style="fill:#ff6c04;stroke-width:0.629921"
     d="m 14.306112,26.862528 a 3,3 0 0 0 -3,3 3,3 0 0 0 3,3.000001 3,3 0 0 0 3,-3.000001 3,3 0 0 0 -3,-3 z m -0.653564,1.067952 0.653564,1.131999 0.653646,-1.131999 0.69279,0.399984 -0.653646,1.13208 h 1.30721 v 0.799968 h -1.30721 l 0.653646,1.132081 -0.69279,0.399984 -0.653646,-1.132082 -0.653646,1.132082 -0.69279,-0.399984 0.653646,-1.132163 -1.30721,8.2e-5 v -0.799968 l 1.30721,-8.1e-5 -0.653564,-1.131999 z" /><path
     id="path17162"
     style="fill:#ff6c04;stroke-width:0.629921"
     d="m 3.3696202,26.862528 a 3,3 0 0 0 -3,3 3,3 0 0 0 3,3 3,3 0 0 0 3,-3 3,3 0 0 0 -3,-3 z m -0.653564,1.067953 0.653564,1.131999 0.653646,-1.131999 0.69279,0.399983 -0.653646,1.13208 h 1.30721 v 0.799968 h -1.30721 l 0.653646,1.13208 -0.69279,0.399984 -0.653646,-1.132081 -0.653646,1.132081 -0.69279,-0.399984 0.653646,-1.132162 -1.30721,8.2e-5 v -0.799968 l 1.30721,-8.1e-5 -0.653564,-1.131999 z" /><path
     id="path17164"
     style="fill:#ff6c04;stroke-width:0.629921"
     d="m 47.115588,26.862528 a 3,3 0 0 0 -3,3 3,3 0 0 0 3,3.000001 3,3 0 0 0 3,-3.000001 3,3 0 0 0 -3,-3 z m -0.653564,1.067952 0.653564,1.131999 0.653646,-1.131999 0.69279,0.399984 -0.653646,1.13208 h 1.30721 v 0.799968 h -1.30721 l 0.653646,1.132081 -0.69279,0.399984 -0.653646,-1.132081 -0.653646,1.132081 -0.69279,-0.399984 0.653646,-1.132163 -1.30721,8.2e-5 v -0.799968 l 1.30721,-8.1e-5 -0.653564,-1.131999 z" /></svg>
