<?xml version="1.0" encoding="UTF-8" standalone="no"?>
<!-- Created with Inkscape (http://www.inkscape.org/) -->

<svg
   width="14in"
   height="8.5in"
   viewBox="0 0 56 34"
   version="1.1"
   id="svg5"
   inkscape:version="1.2.2 (b0a8486541, 2022-12-01)"
   sodipodi:docname="Open_Circle.svg"
   xmlns:inkscape="http://www.inkscape.org/namespaces/inkscape"
   xmlns:sodipodi="http://sodipodi.sourceforge.net/DTD/sodipodi-0.dtd"
   xmlns="http://www.w3.org/2000/svg"
   xmlns:svg="http://www.w3.org/2000/svg">
  <sodipodi:namedview
     id="namedview7"
     pagecolor="#ffffff"
     bordercolor="#000000"
     borderopacity="0.25"
     inkscape:showpageshadow="2"
     inkscape:pageopacity="0.0"
     inkscape:pagecheckerboard="0"
     inkscape:deskcolor="#d1d1d1"
     inkscape:document-units="mm"
     showgrid="true"
     inkscape:zoom="1.2938725"
     inkscape:cx="329.24419"
     inkscape:cy="481.88675"
     inkscape:window-width="3800"
     inkscape:window-height="2120"
     inkscape:window-x="3840"
     inkscape:window-y="0"
     inkscape:window-maximized="1"
     inkscape:current-layer="layer1">
    <inkscape:grid
       type="xygrid"
       id="grid182"
       units="in"
       spacingx="1"
       spacingy="1"
       empspacing="4"
       dotted="true" />
  </sodipodi:namedview>
  <defs
     id="defs2" />
  <g
     inkscape:label="Layer 1"
     inkscape:groupmode="layer"
     id="layer1">
    <path
       id="path236"
       style="fill:#32f800;stroke-width:0.0517079"
       d="m 41.906804,17.941449 a 6,6 0 0 0 -6,6 6,6 0 0 0 6,6 6,6 0 0 0 6,-6 6,6 0 0 0 -6,-6 z m 0,1 a 5,5 0 0 1 5,5 5,5 0 0 1 -5,5 5,5 0 0 1 -5,-5 5,5 0 0 1 5,-5 z" />
    <path
       id="path412"
       style="fill:#32f800;stroke-width:0.0517079"
       d="m 25.958202,17.941449 a 6,6 0 0 0 -6,6 6,6 0 0 0 6,6 6,6 0 0 0 6,-6 6,6 0 0 0 -6,-6 z m 0,1 a 5,5 0 0 1 5,5 5,5 0 0 1 -5,5 5,5 0 0 1 -5,-5 5,5 0 0 1 5,-5 z" />
    <path
       id="path414"
       style="fill:#32f800;stroke-width:0.0517079"
       d="m 10.0096,17.94145 a 6,6 0 0 0 -6.0000004,6 6,6 0 0 0 6.0000004,5.999999 6,6 0 0 0 6,-5.999999 6,6 0 0 0 -6,-6 z m 0,1 a 5,5 0 0 1 5,5 5,5 0 0 1 -5,4.999999 5,5 0 0 1 -5.0000004,-4.999999 5,5 0 0 1 5.0000004,-5 z" />
    <path
       id="path416"
       style="fill:#32f800;stroke-width:0.0517079"
       d="m 42.011951,4.0258215 a 6,6 0 0 0 -6,5.9999995 6,6 0 0 0 6,6 6,6 0 0 0 6,-6 6,6 0 0 0 -6,-5.9999995 z m 0,1 a 5,5 0 0 1 5,4.9999995 5,5 0 0 1 -5,5 5,5 0 0 1 -5,-5 5,5 0 0 1 5,-4.9999995 z" />
    <path
       id="path418"
       style="fill:#32f800;stroke-width:0.0517079"
       d="m 26.043096,4.0258213 a 6,6 0 0 0 -6,5.9999997 6,6 0 0 0 6,6 6,6 0 0 0 6,-6 6,6 0 0 0 -6,-5.9999997 z m 0,1 a 5,5 0 0 1 5,4.9999997 5,5 0 0 1 -5,5 5,5 0 0 1 -5,-5 5,5 0 0 1 5,-4.9999997 z" />
    <path
       id="path420"
       style="fill:#32f800;stroke-width:0.0517079"
       d="m 10.074242,4.0258213 a 6,6 0 0 0 -6.0000004,5.9999997 6,6 0 0 0 6.0000004,6 6,6 0 0 0 6,-6 6,6 0 0 0 -6,-5.9999997 z m 0,1 a 5,5 0 0 1 5,4.9999997 5,5 0 0 1 -5,5 5,5 0 0 1 -5.0000004,-5 5,5 0 0 1 5.0000004,-4.9999997 z" />
  </g>
</svg>
