<?xml version="1.0" encoding="UTF-8" standalone="no"?>
<!-- Created with Inkscape (http://www.inkscape.org/) -->

<svg
   width="14in"
   height="8.5in"
   viewBox="0 0 56 34"
   version="1.1"
   id="svg5"
   inkscape:version="1.2.2 (b0a8486541, 2022-12-01)"
   sodipodi:docname="Pattern_Open_Circle_array.svg"
   xmlns:inkscape="http://www.inkscape.org/namespaces/inkscape"
   xmlns:sodipodi="http://sodipodi.sourceforge.net/DTD/sodipodi-0.dtd"
   xmlns="http://www.w3.org/2000/svg"
   xmlns:svg="http://www.w3.org/2000/svg">
  <sodipodi:namedview
     id="namedview7"
     pagecolor="#ffffff"
     bordercolor="#000000"
     borderopacity="0.25"
     inkscape:showpageshadow="2"
     inkscape:pageopacity="0.0"
     inkscape:pagecheckerboard="0"
     inkscape:deskcolor="#d1d1d1"
     inkscape:document-units="mm"
     showgrid="true"
     inkscape:zoom="1.829812"
     inkscape:cx="533.11488"
     inkscape:cy="409.05842"
     inkscape:window-width="3800"
     inkscape:window-height="2120"
     inkscape:window-x="3840"
     inkscape:window-y="0"
     inkscape:window-maximized="1"
     inkscape:current-layer="layer1">
    <inkscape:grid
       type="xygrid"
       id="grid182"
       units="in"
       spacingx="1"
       spacingy="1"
       empspacing="4"
       dotted="true" />
  </sodipodi:namedview>
  <defs
     id="defs2" />
  <g
     inkscape:label="Layer 1"
     inkscape:groupmode="layer"
     id="layer1">
    <path
       id="path3947"
       style="fill:#00ff00;stroke-width:0.0629921"
       d="M 1 0.28133138 A 1 1 0 0 0 0 1.2813314 A 1 1 0 0 0 1 2.2813314 A 1 1 0 0 0 2 1.2813314 A 1 1 0 0 0 1 0.28133138 z M 6.6917318 0.28133138 A 1 1 0 0 0 5.6917318 1.2813314 A 1 1 0 0 0 6.6917318 2.2813314 A 1 1 0 0 0 7.6917318 1.2813314 A 1 1 0 0 0 6.6917318 0.28133138 z M 12.383382 0.28133138 A 1 1 0 0 0 11.383382 1.2813314 A 1 1 0 0 0 12.383382 2.2813314 A 1 1 0 0 0 13.383382 1.2813314 A 1 1 0 0 0 12.383382 0.28133138 z M 18.075114 0.28133138 A 1 1 0 0 0 17.075114 1.2813314 A 1 1 0 0 0 18.075114 2.2813314 A 1 1 0 0 0 19.075114 1.2813314 A 1 1 0 0 0 18.075114 0.28133138 z M 23.766764 0.28133138 A 1 1 0 0 0 22.766764 1.2813314 A 1 1 0 0 0 23.766764 2.2813314 A 1 1 0 0 0 24.766764 1.2813314 A 1 1 0 0 0 23.766764 0.28133138 z M 29.458496 0.28133138 A 1 1 0 0 0 28.458496 1.2813314 A 1 1 0 0 0 29.458496 2.2813314 A 1 1 0 0 0 30.458496 1.2813314 A 1 1 0 0 0 29.458496 0.28133138 z M 35.150146 0.28133138 A 1 1 0 0 0 34.150146 1.2813314 A 1 1 0 0 0 35.150146 2.2813314 A 1 1 0 0 0 36.150146 1.2813314 A 1 1 0 0 0 35.150146 0.28133138 z M 40.841878 0.28133138 A 1 1 0 0 0 39.841878 1.2813314 A 1 1 0 0 0 40.841878 2.2813314 A 1 1 0 0 0 41.841878 1.2813314 A 1 1 0 0 0 40.841878 0.28133138 z M 46.533529 0.28133138 A 1 1 0 0 0 45.533529 1.2813314 A 1 1 0 0 0 46.533529 2.2813314 A 1 1 0 0 0 47.533529 1.2813314 A 1 1 0 0 0 46.533529 0.28133138 z M 52.22526 0.28133138 A 1 1 0 0 0 51.22526 1.2813314 A 1 1 0 0 0 52.22526 2.2813314 A 1 1 0 0 0 53.22526 1.2813314 A 1 1 0 0 0 52.22526 0.28133138 z M 1 0.6813151 A 0.60000002 0.60000002 0 0 1 1.6000163 1.2813314 A 0.60000002 0.60000002 0 0 1 1 1.8813477 A 0.60000002 0.60000002 0 0 1 0.39998372 1.2813314 A 0.60000002 0.60000002 0 0 1 1 0.6813151 z M 6.6917318 0.6813151 A 0.60000002 0.60000002 0 0 1 7.291748 1.2813314 A 0.60000002 0.60000002 0 0 1 6.6917318 1.8813477 A 0.60000002 0.60000002 0 0 1 6.0917155 1.2813314 A 0.60000002 0.60000002 0 0 1 6.6917318 0.6813151 z M 12.383382 0.6813151 A 0.60000002 0.60000002 0 0 1 12.983398 1.2813314 A 0.60000002 0.60000002 0 0 1 12.383382 1.8813477 A 0.60000002 0.60000002 0 0 1 11.783366 1.2813314 A 0.60000002 0.60000002 0 0 1 12.383382 0.6813151 z M 18.075114 0.6813151 A 0.60000002 0.60000002 0 0 1 18.67513 1.2813314 A 0.60000002 0.60000002 0 0 1 18.075114 1.8813477 A 0.60000002 0.60000002 0 0 1 17.475098 1.2813314 A 0.60000002 0.60000002 0 0 1 18.075114 0.6813151 z M 23.766764 0.6813151 A 0.60000002 0.60000002 0 0 1 24.366781 1.2813314 A 0.60000002 0.60000002 0 0 1 23.766764 1.8813477 A 0.60000002 0.60000002 0 0 1 23.166748 1.2813314 A 0.60000002 0.60000002 0 0 1 23.766764 0.6813151 z M 29.458496 0.6813151 A 0.60000002 0.60000002 0 0 1 30.058512 1.2813314 A 0.60000002 0.60000002 0 0 1 29.458496 1.8813477 A 0.60000002 0.60000002 0 0 1 28.85848 1.2813314 A 0.60000002 0.60000002 0 0 1 29.458496 0.6813151 z M 35.150146 0.6813151 A 0.60000002 0.60000002 0 0 1 35.750163 1.2813314 A 0.60000002 0.60000002 0 0 1 35.150146 1.8813477 A 0.60000002 0.60000002 0 0 1 34.55013 1.2813314 A 0.60000002 0.60000002 0 0 1 35.150146 0.6813151 z M 40.841878 0.6813151 A 0.60000002 0.60000002 0 0 1 41.441895 1.2813314 A 0.60000002 0.60000002 0 0 1 40.841878 1.8813477 A 0.60000002 0.60000002 0 0 1 40.241862 1.2813314 A 0.60000002 0.60000002 0 0 1 40.841878 0.6813151 z M 46.533529 0.6813151 A 0.60000002 0.60000002 0 0 1 47.133545 1.2813314 A 0.60000002 0.60000002 0 0 1 46.533529 1.8813477 A 0.60000002 0.60000002 0 0 1 45.933512 1.2813314 A 0.60000002 0.60000002 0 0 1 46.533529 0.6813151 z M 52.22526 0.6813151 A 0.60000002 0.60000002 0 0 1 52.825277 1.2813314 A 0.60000002 0.60000002 0 0 1 52.22526 1.8813477 A 0.60000002 0.60000002 0 0 1 51.625244 1.2813314 A 0.60000002 0.60000002 0 0 1 52.22526 0.6813151 z M 3.8458659 2.027832 A 1 1 0 0 0 2.8458659 3.027832 A 1 1 0 0 0 3.8458659 4.027832 A 1 1 0 0 0 4.8458659 3.027832 A 1 1 0 0 0 3.8458659 2.027832 z M 9.5375163 2.027832 A 1 1 0 0 0 8.5375163 3.027832 A 1 1 0 0 0 9.5375163 4.027832 A 1 1 0 0 0 10.537516 3.027832 A 1 1 0 0 0 9.5375163 2.027832 z M 15.229248 2.027832 A 1 1 0 0 0 14.229248 3.027832 A 1 1 0 0 0 15.229248 4.027832 A 1 1 0 0 0 16.229248 3.027832 A 1 1 0 0 0 15.229248 2.027832 z M 20.920898 2.027832 A 1 1 0 0 0 19.920898 3.027832 A 1 1 0 0 0 20.920898 4.027832 A 1 1 0 0 0 21.920898 3.027832 A 1 1 0 0 0 20.920898 2.027832 z M 26.61263 2.027832 A 1 1 0 0 0 25.61263 3.027832 A 1 1 0 0 0 26.61263 4.027832 A 1 1 0 0 0 27.61263 3.027832 A 1 1 0 0 0 26.61263 2.027832 z M 32.304281 2.027832 A 1 1 0 0 0 31.304281 3.027832 A 1 1 0 0 0 32.304281 4.027832 A 1 1 0 0 0 33.304281 3.027832 A 1 1 0 0 0 32.304281 2.027832 z M 37.996012 2.027832 A 1 1 0 0 0 36.996012 3.027832 A 1 1 0 0 0 37.996012 4.027832 A 1 1 0 0 0 38.996012 3.027832 A 1 1 0 0 0 37.996012 2.027832 z M 43.687663 2.027832 A 1 1 0 0 0 42.687663 3.027832 A 1 1 0 0 0 43.687663 4.027832 A 1 1 0 0 0 44.687663 3.027832 A 1 1 0 0 0 43.687663 2.027832 z M 49.379395 2.027832 A 1 1 0 0 0 48.379395 3.027832 A 1 1 0 0 0 49.379395 4.027832 A 1 1 0 0 0 50.379395 3.027832 A 1 1 0 0 0 49.379395 2.027832 z M 55.071045 2.027832 A 1 1 0 0 0 54.071045 3.027832 A 1 1 0 0 0 55.071045 4.027832 A 1 1 0 0 0 56.071045 3.027832 A 1 1 0 0 0 55.071045 2.027832 z M 3.8458659 2.4278158 A 0.60000002 0.60000002 0 0 1 4.4458822 3.027832 A 0.60000002 0.60000002 0 0 1 3.8458659 3.6278483 A 0.60000002 0.60000002 0 0 1 3.2458496 3.027832 A 0.60000002 0.60000002 0 0 1 3.8458659 2.4278158 z M 9.5375163 2.4278158 A 0.60000002 0.60000002 0 0 1 10.137533 3.027832 A 0.60000002 0.60000002 0 0 1 9.5375163 3.6278483 A 0.60000002 0.60000002 0 0 1 8.9375 3.027832 A 0.60000002 0.60000002 0 0 1 9.5375163 2.4278158 z M 15.229248 2.4278158 A 0.60000002 0.60000002 0 0 1 15.829264 3.027832 A 0.60000002 0.60000002 0 0 1 15.229248 3.6278483 A 0.60000002 0.60000002 0 0 1 14.629232 3.027832 A 0.60000002 0.60000002 0 0 1 15.229248 2.4278158 z M 20.920898 2.4278158 A 0.60000002 0.60000002 0 0 1 21.520915 3.027832 A 0.60000002 0.60000002 0 0 1 20.920898 3.6278483 A 0.60000002 0.60000002 0 0 1 20.320882 3.027832 A 0.60000002 0.60000002 0 0 1 20.920898 2.4278158 z M 26.61263 2.4278158 A 0.60000002 0.60000002 0 0 1 27.212646 3.027832 A 0.60000002 0.60000002 0 0 1 26.61263 3.6278483 A 0.60000002 0.60000002 0 0 1 26.012614 3.027832 A 0.60000002 0.60000002 0 0 1 26.61263 2.4278158 z M 32.304281 2.4278158 A 0.60000002 0.60000002 0 0 1 32.904297 3.027832 A 0.60000002 0.60000002 0 0 1 32.304281 3.6278483 A 0.60000002 0.60000002 0 0 1 31.704264 3.027832 A 0.60000002 0.60000002 0 0 1 32.304281 2.4278158 z M 37.996012 2.4278158 A 0.60000002 0.60000002 0 0 1 38.596029 3.027832 A 0.60000002 0.60000002 0 0 1 37.996012 3.6278483 A 0.60000002 0.60000002 0 0 1 37.395996 3.027832 A 0.60000002 0.60000002 0 0 1 37.996012 2.4278158 z M 43.687663 2.4278158 A 0.60000002 0.60000002 0 0 1 44.287679 3.027832 A 0.60000002 0.60000002 0 0 1 43.687663 3.6278483 A 0.60000002 0.60000002 0 0 1 43.087646 3.027832 A 0.60000002 0.60000002 0 0 1 43.687663 2.4278158 z M 49.379395 2.4278158 A 0.60000002 0.60000002 0 0 1 49.979411 3.027832 A 0.60000002 0.60000002 0 0 1 49.379395 3.6278483 A 0.60000002 0.60000002 0 0 1 48.779378 3.027832 A 0.60000002 0.60000002 0 0 1 49.379395 2.4278158 z M 55.071045 2.4278158 A 0.60000002 0.60000002 0 0 1 55.671061 3.027832 A 0.60000002 0.60000002 0 0 1 55.071045 3.6278483 A 0.60000002 0.60000002 0 0 1 54.471029 3.027832 A 0.60000002 0.60000002 0 0 1 55.071045 2.4278158 z M 1 3.7743327 A 1 1 0 0 0 0 4.7743327 A 1 1 0 0 0 1 5.7743327 A 1 1 0 0 0 2 4.7743327 A 1 1 0 0 0 1 3.7743327 z M 6.6917318 3.7743327 A 1 1 0 0 0 5.6917318 4.7743327 A 1 1 0 0 0 6.6917318 5.7743327 A 1 1 0 0 0 7.6917318 4.7743327 A 1 1 0 0 0 6.6917318 3.7743327 z M 12.383382 3.7743327 A 1 1 0 0 0 11.383382 4.7743327 A 1 1 0 0 0 12.383382 5.7743327 A 1 1 0 0 0 13.383382 4.7743327 A 1 1 0 0 0 12.383382 3.7743327 z M 18.075114 3.7743327 A 1 1 0 0 0 17.075114 4.7743327 A 1 1 0 0 0 18.075114 5.7743327 A 1 1 0 0 0 19.075114 4.7743327 A 1 1 0 0 0 18.075114 3.7743327 z M 23.766764 3.7743327 A 1 1 0 0 0 22.766764 4.7743327 A 1 1 0 0 0 23.766764 5.7743327 A 1 1 0 0 0 24.766764 4.7743327 A 1 1 0 0 0 23.766764 3.7743327 z M 29.458496 3.7743327 A 1 1 0 0 0 28.458496 4.7743327 A 1 1 0 0 0 29.458496 5.7743327 A 1 1 0 0 0 30.458496 4.7743327 A 1 1 0 0 0 29.458496 3.7743327 z M 35.150146 3.7743327 A 1 1 0 0 0 34.150146 4.7743327 A 1 1 0 0 0 35.150146 5.7743327 A 1 1 0 0 0 36.150146 4.7743327 A 1 1 0 0 0 35.150146 3.7743327 z M 40.841878 3.7743327 A 1 1 0 0 0 39.841878 4.7743327 A 1 1 0 0 0 40.841878 5.7743327 A 1 1 0 0 0 41.841878 4.7743327 A 1 1 0 0 0 40.841878 3.7743327 z M 46.533529 3.7743327 A 1 1 0 0 0 45.533529 4.7743327 A 1 1 0 0 0 46.533529 5.7743327 A 1 1 0 0 0 47.533529 4.7743327 A 1 1 0 0 0 46.533529 3.7743327 z M 52.22526 3.7743327 A 1 1 0 0 0 51.22526 4.7743327 A 1 1 0 0 0 52.22526 5.7743327 A 1 1 0 0 0 53.22526 4.7743327 A 1 1 0 0 0 52.22526 3.7743327 z M 1 4.1743164 A 0.60000002 0.60000002 0 0 1 1.6000163 4.7743327 A 0.60000002 0.60000002 0 0 1 1 5.374349 A 0.60000002 0.60000002 0 0 1 0.39998372 4.7743327 A 0.60000002 0.60000002 0 0 1 1 4.1743164 z M 6.6917318 4.1743164 A 0.60000002 0.60000002 0 0 1 7.291748 4.7743327 A 0.60000002 0.60000002 0 0 1 6.6917318 5.374349 A 0.60000002 0.60000002 0 0 1 6.0917155 4.7743327 A 0.60000002 0.60000002 0 0 1 6.6917318 4.1743164 z M 12.383382 4.1743164 A 0.60000002 0.60000002 0 0 1 12.983398 4.7743327 A 0.60000002 0.60000002 0 0 1 12.383382 5.374349 A 0.60000002 0.60000002 0 0 1 11.783366 4.7743327 A 0.60000002 0.60000002 0 0 1 12.383382 4.1743164 z M 18.075114 4.1743164 A 0.60000002 0.60000002 0 0 1 18.67513 4.7743327 A 0.60000002 0.60000002 0 0 1 18.075114 5.374349 A 0.60000002 0.60000002 0 0 1 17.475098 4.7743327 A 0.60000002 0.60000002 0 0 1 18.075114 4.1743164 z M 23.766764 4.1743164 A 0.60000002 0.60000002 0 0 1 24.366781 4.7743327 A 0.60000002 0.60000002 0 0 1 23.766764 5.374349 A 0.60000002 0.60000002 0 0 1 23.166748 4.7743327 A 0.60000002 0.60000002 0 0 1 23.766764 4.1743164 z M 29.458496 4.1743164 A 0.60000002 0.60000002 0 0 1 30.058512 4.7743327 A 0.60000002 0.60000002 0 0 1 29.458496 5.374349 A 0.60000002 0.60000002 0 0 1 28.85848 4.7743327 A 0.60000002 0.60000002 0 0 1 29.458496 4.1743164 z M 35.150146 4.1743164 A 0.60000002 0.60000002 0 0 1 35.750163 4.7743327 A 0.60000002 0.60000002 0 0 1 35.150146 5.374349 A 0.60000002 0.60000002 0 0 1 34.55013 4.7743327 A 0.60000002 0.60000002 0 0 1 35.150146 4.1743164 z M 40.841878 4.1743164 A 0.60000002 0.60000002 0 0 1 41.441895 4.7743327 A 0.60000002 0.60000002 0 0 1 40.841878 5.374349 A 0.60000002 0.60000002 0 0 1 40.241862 4.7743327 A 0.60000002 0.60000002 0 0 1 40.841878 4.1743164 z M 46.533529 4.1743164 A 0.60000002 0.60000002 0 0 1 47.133545 4.7743327 A 0.60000002 0.60000002 0 0 1 46.533529 5.374349 A 0.60000002 0.60000002 0 0 1 45.933512 4.7743327 A 0.60000002 0.60000002 0 0 1 46.533529 4.1743164 z M 52.22526 4.1743164 A 0.60000002 0.60000002 0 0 1 52.825277 4.7743327 A 0.60000002 0.60000002 0 0 1 52.22526 5.374349 A 0.60000002 0.60000002 0 0 1 51.625244 4.7743327 A 0.60000002 0.60000002 0 0 1 52.22526 4.1743164 z M 3.8458659 5.5209147 A 1 1 0 0 0 2.8458659 6.5209147 A 1 1 0 0 0 3.8458659 7.5209147 A 1 1 0 0 0 4.8458659 6.5209147 A 1 1 0 0 0 3.8458659 5.5209147 z M 9.5375163 5.5209147 A 1 1 0 0 0 8.5375163 6.5209147 A 1 1 0 0 0 9.5375163 7.5209147 A 1 1 0 0 0 10.537516 6.5209147 A 1 1 0 0 0 9.5375163 5.5209147 z M 15.229248 5.5209147 A 1 1 0 0 0 14.229248 6.5209147 A 1 1 0 0 0 15.229248 7.5209147 A 1 1 0 0 0 16.229248 6.5209147 A 1 1 0 0 0 15.229248 5.5209147 z M 20.920898 5.5209147 A 1 1 0 0 0 19.920898 6.5209147 A 1 1 0 0 0 20.920898 7.5209147 A 1 1 0 0 0 21.920898 6.5209147 A 1 1 0 0 0 20.920898 5.5209147 z M 26.61263 5.5209147 A 1 1 0 0 0 25.61263 6.5209147 A 1 1 0 0 0 26.61263 7.5209147 A 1 1 0 0 0 27.61263 6.5209147 A 1 1 0 0 0 26.61263 5.5209147 z M 32.304281 5.5209147 A 1 1 0 0 0 31.304281 6.5209147 A 1 1 0 0 0 32.304281 7.5209147 A 1 1 0 0 0 33.304281 6.5209147 A 1 1 0 0 0 32.304281 5.5209147 z M 37.996012 5.5209147 A 1 1 0 0 0 36.996012 6.5209147 A 1 1 0 0 0 37.996012 7.5209147 A 1 1 0 0 0 38.996012 6.5209147 A 1 1 0 0 0 37.996012 5.5209147 z M 43.687663 5.5209147 A 1 1 0 0 0 42.687663 6.5209147 A 1 1 0 0 0 43.687663 7.5209147 A 1 1 0 0 0 44.687663 6.5209147 A 1 1 0 0 0 43.687663 5.5209147 z M 49.379395 5.5209147 A 1 1 0 0 0 48.379395 6.5209147 A 1 1 0 0 0 49.379395 7.5209147 A 1 1 0 0 0 50.379395 6.5209147 A 1 1 0 0 0 49.379395 5.5209147 z M 55.071045 5.5209147 A 1 1 0 0 0 54.071045 6.5209147 A 1 1 0 0 0 55.071045 7.5209147 A 1 1 0 0 0 56.071045 6.5209147 A 1 1 0 0 0 55.071045 5.5209147 z M 3.8458659 5.9208984 A 0.60000002 0.60000002 0 0 1 4.4458822 6.5209147 A 0.60000002 0.60000002 0 0 1 3.8458659 7.120931 A 0.60000002 0.60000002 0 0 1 3.2458496 6.5209147 A 0.60000002 0.60000002 0 0 1 3.8458659 5.9208984 z M 9.5375163 5.9208984 A 0.60000002 0.60000002 0 0 1 10.137533 6.5209147 A 0.60000002 0.60000002 0 0 1 9.5375163 7.120931 A 0.60000002 0.60000002 0 0 1 8.9375 6.5209147 A 0.60000002 0.60000002 0 0 1 9.5375163 5.9208984 z M 15.229248 5.9208984 A 0.60000002 0.60000002 0 0 1 15.829264 6.5209147 A 0.60000002 0.60000002 0 0 1 15.229248 7.120931 A 0.60000002 0.60000002 0 0 1 14.629232 6.5209147 A 0.60000002 0.60000002 0 0 1 15.229248 5.9208984 z M 20.920898 5.9208984 A 0.60000002 0.60000002 0 0 1 21.520915 6.5209147 A 0.60000002 0.60000002 0 0 1 20.920898 7.120931 A 0.60000002 0.60000002 0 0 1 20.320882 6.5209147 A 0.60000002 0.60000002 0 0 1 20.920898 5.9208984 z M 26.61263 5.9208984 A 0.60000002 0.60000002 0 0 1 27.212646 6.5209147 A 0.60000002 0.60000002 0 0 1 26.61263 7.120931 A 0.60000002 0.60000002 0 0 1 26.012614 6.5209147 A 0.60000002 0.60000002 0 0 1 26.61263 5.9208984 z M 32.304281 5.9208984 A 0.60000002 0.60000002 0 0 1 32.904297 6.5209147 A 0.60000002 0.60000002 0 0 1 32.304281 7.120931 A 0.60000002 0.60000002 0 0 1 31.704264 6.5209147 A 0.60000002 0.60000002 0 0 1 32.304281 5.9208984 z M 37.996012 5.9208984 A 0.60000002 0.60000002 0 0 1 38.596029 6.5209147 A 0.60000002 0.60000002 0 0 1 37.996012 7.120931 A 0.60000002 0.60000002 0 0 1 37.395996 6.5209147 A 0.60000002 0.60000002 0 0 1 37.996012 5.9208984 z M 43.687663 5.9208984 A 0.60000002 0.60000002 0 0 1 44.287679 6.5209147 A 0.60000002 0.60000002 0 0 1 43.687663 7.120931 A 0.60000002 0.60000002 0 0 1 43.087646 6.5209147 A 0.60000002 0.60000002 0 0 1 43.687663 5.9208984 z M 49.379395 5.9208984 A 0.60000002 0.60000002 0 0 1 49.979411 6.5209147 A 0.60000002 0.60000002 0 0 1 49.379395 7.120931 A 0.60000002 0.60000002 0 0 1 48.779378 6.5209147 A 0.60000002 0.60000002 0 0 1 49.379395 5.9208984 z M 55.071045 5.9208984 A 0.60000002 0.60000002 0 0 1 55.671061 6.5209147 A 0.60000002 0.60000002 0 0 1 55.071045 7.120931 A 0.60000002 0.60000002 0 0 1 54.471029 6.5209147 A 0.60000002 0.60000002 0 0 1 55.071045 5.9208984 z M 1 7.2674154 A 1 1 0 0 0 0 8.2674154 A 1 1 0 0 0 1 9.2674154 A 1 1 0 0 0 2 8.2674154 A 1 1 0 0 0 1 7.2674154 z M 6.6917318 7.2674154 A 1 1 0 0 0 5.6917318 8.2674154 A 1 1 0 0 0 6.6917318 9.2674154 A 1 1 0 0 0 7.6917318 8.2674154 A 1 1 0 0 0 6.6917318 7.2674154 z M 12.383382 7.2674154 A 1 1 0 0 0 11.383382 8.2674154 A 1 1 0 0 0 12.383382 9.2674154 A 1 1 0 0 0 13.383382 8.2674154 A 1 1 0 0 0 12.383382 7.2674154 z M 18.075114 7.2674154 A 1 1 0 0 0 17.075114 8.2674154 A 1 1 0 0 0 18.075114 9.2674154 A 1 1 0 0 0 19.075114 8.2674154 A 1 1 0 0 0 18.075114 7.2674154 z M 23.766764 7.2674154 A 1 1 0 0 0 22.766764 8.2674154 A 1 1 0 0 0 23.766764 9.2674154 A 1 1 0 0 0 24.766764 8.2674154 A 1 1 0 0 0 23.766764 7.2674154 z M 29.458496 7.2674154 A 1 1 0 0 0 28.458496 8.2674154 A 1 1 0 0 0 29.458496 9.2674154 A 1 1 0 0 0 30.458496 8.2674154 A 1 1 0 0 0 29.458496 7.2674154 z M 35.150146 7.2674154 A 1 1 0 0 0 34.150146 8.2674154 A 1 1 0 0 0 35.150146 9.2674154 A 1 1 0 0 0 36.150146 8.2674154 A 1 1 0 0 0 35.150146 7.2674154 z M 40.841878 7.2674154 A 1 1 0 0 0 39.841878 8.2674154 A 1 1 0 0 0 40.841878 9.2674154 A 1 1 0 0 0 41.841878 8.2674154 A 1 1 0 0 0 40.841878 7.2674154 z M 46.533529 7.2674154 A 1 1 0 0 0 45.533529 8.2674154 A 1 1 0 0 0 46.533529 9.2674154 A 1 1 0 0 0 47.533529 8.2674154 A 1 1 0 0 0 46.533529 7.2674154 z M 52.22526 7.2674154 A 1 1 0 0 0 51.22526 8.2674154 A 1 1 0 0 0 52.22526 9.2674154 A 1 1 0 0 0 53.22526 8.2674154 A 1 1 0 0 0 52.22526 7.2674154 z M 1 7.6673991 A 0.60000002 0.60000002 0 0 1 1.6000163 8.2674154 A 0.60000002 0.60000002 0 0 1 1 8.8674316 A 0.60000002 0.60000002 0 0 1 0.39998372 8.2674154 A 0.60000002 0.60000002 0 0 1 1 7.6673991 z M 6.6917318 7.6673991 A 0.60000002 0.60000002 0 0 1 7.291748 8.2674154 A 0.60000002 0.60000002 0 0 1 6.6917318 8.8674316 A 0.60000002 0.60000002 0 0 1 6.0917155 8.2674154 A 0.60000002 0.60000002 0 0 1 6.6917318 7.6673991 z M 12.383382 7.6673991 A 0.60000002 0.60000002 0 0 1 12.983398 8.2674154 A 0.60000002 0.60000002 0 0 1 12.383382 8.8674316 A 0.60000002 0.60000002 0 0 1 11.783366 8.2674154 A 0.60000002 0.60000002 0 0 1 12.383382 7.6673991 z M 18.075114 7.6673991 A 0.60000002 0.60000002 0 0 1 18.67513 8.2674154 A 0.60000002 0.60000002 0 0 1 18.075114 8.8674316 A 0.60000002 0.60000002 0 0 1 17.475098 8.2674154 A 0.60000002 0.60000002 0 0 1 18.075114 7.6673991 z M 23.766764 7.6673991 A 0.60000002 0.60000002 0 0 1 24.366781 8.2674154 A 0.60000002 0.60000002 0 0 1 23.766764 8.8674316 A 0.60000002 0.60000002 0 0 1 23.166748 8.2674154 A 0.60000002 0.60000002 0 0 1 23.766764 7.6673991 z M 29.458496 7.6673991 A 0.60000002 0.60000002 0 0 1 30.058512 8.2674154 A 0.60000002 0.60000002 0 0 1 29.458496 8.8674316 A 0.60000002 0.60000002 0 0 1 28.85848 8.2674154 A 0.60000002 0.60000002 0 0 1 29.458496 7.6673991 z M 35.150146 7.6673991 A 0.60000002 0.60000002 0 0 1 35.750163 8.2674154 A 0.60000002 0.60000002 0 0 1 35.150146 8.8674316 A 0.60000002 0.60000002 0 0 1 34.55013 8.2674154 A 0.60000002 0.60000002 0 0 1 35.150146 7.6673991 z M 40.841878 7.6673991 A 0.60000002 0.60000002 0 0 1 41.441895 8.2674154 A 0.60000002 0.60000002 0 0 1 40.841878 8.8674316 A 0.60000002 0.60000002 0 0 1 40.241862 8.2674154 A 0.60000002 0.60000002 0 0 1 40.841878 7.6673991 z M 46.533529 7.6673991 A 0.60000002 0.60000002 0 0 1 47.133545 8.2674154 A 0.60000002 0.60000002 0 0 1 46.533529 8.8674316 A 0.60000002 0.60000002 0 0 1 45.933512 8.2674154 A 0.60000002 0.60000002 0 0 1 46.533529 7.6673991 z M 52.22526 7.6673991 A 0.60000002 0.60000002 0 0 1 52.825277 8.2674154 A 0.60000002 0.60000002 0 0 1 52.22526 8.8674316 A 0.60000002 0.60000002 0 0 1 51.625244 8.2674154 A 0.60000002 0.60000002 0 0 1 52.22526 7.6673991 z M 3.8458659 9.013916 A 1 1 0 0 0 2.8458659 10.013916 A 1 1 0 0 0 3.8458659 11.013916 A 1 1 0 0 0 4.8458659 10.013916 A 1 1 0 0 0 3.8458659 9.013916 z M 9.5375163 9.013916 A 1 1 0 0 0 8.5375163 10.013916 A 1 1 0 0 0 9.5375163 11.013916 A 1 1 0 0 0 10.537516 10.013916 A 1 1 0 0 0 9.5375163 9.013916 z M 15.229248 9.013916 A 1 1 0 0 0 14.229248 10.013916 A 1 1 0 0 0 15.229248 11.013916 A 1 1 0 0 0 16.229248 10.013916 A 1 1 0 0 0 15.229248 9.013916 z M 20.920898 9.013916 A 1 1 0 0 0 19.920898 10.013916 A 1 1 0 0 0 20.920898 11.013916 A 1 1 0 0 0 21.920898 10.013916 A 1 1 0 0 0 20.920898 9.013916 z M 26.61263 9.013916 A 1 1 0 0 0 25.61263 10.013916 A 1 1 0 0 0 26.61263 11.013916 A 1 1 0 0 0 27.61263 10.013916 A 1 1 0 0 0 26.61263 9.013916 z M 32.304281 9.013916 A 1 1 0 0 0 31.304281 10.013916 A 1 1 0 0 0 32.304281 11.013916 A 1 1 0 0 0 33.304281 10.013916 A 1 1 0 0 0 32.304281 9.013916 z M 37.996012 9.013916 A 1 1 0 0 0 36.996012 10.013916 A 1 1 0 0 0 37.996012 11.013916 A 1 1 0 0 0 38.996012 10.013916 A 1 1 0 0 0 37.996012 9.013916 z M 43.687663 9.013916 A 1 1 0 0 0 42.687663 10.013916 A 1 1 0 0 0 43.687663 11.013916 A 1 1 0 0 0 44.687663 10.013916 A 1 1 0 0 0 43.687663 9.013916 z M 49.379395 9.013916 A 1 1 0 0 0 48.379395 10.013916 A 1 1 0 0 0 49.379395 11.013916 A 1 1 0 0 0 50.379395 10.013916 A 1 1 0 0 0 49.379395 9.013916 z M 55.071045 9.013916 A 1 1 0 0 0 54.071045 10.013916 A 1 1 0 0 0 55.071045 11.013916 A 1 1 0 0 0 56.071045 10.013916 A 1 1 0 0 0 55.071045 9.013916 z M 3.8458659 9.4138997 A 0.60000002 0.60000002 0 0 1 4.4458822 10.013916 A 0.60000002 0.60000002 0 0 1 3.8458659 10.613932 A 0.60000002 0.60000002 0 0 1 3.2458496 10.013916 A 0.60000002 0.60000002 0 0 1 3.8458659 9.4138997 z M 9.5375163 9.4138997 A 0.60000002 0.60000002 0 0 1 10.137533 10.013916 A 0.60000002 0.60000002 0 0 1 9.5375163 10.613932 A 0.60000002 0.60000002 0 0 1 8.9375 10.013916 A 0.60000002 0.60000002 0 0 1 9.5375163 9.4138997 z M 15.229248 9.4138997 A 0.60000002 0.60000002 0 0 1 15.829264 10.013916 A 0.60000002 0.60000002 0 0 1 15.229248 10.613932 A 0.60000002 0.60000002 0 0 1 14.629232 10.013916 A 0.60000002 0.60000002 0 0 1 15.229248 9.4138997 z M 20.920898 9.4138997 A 0.60000002 0.60000002 0 0 1 21.520915 10.013916 A 0.60000002 0.60000002 0 0 1 20.920898 10.613932 A 0.60000002 0.60000002 0 0 1 20.320882 10.013916 A 0.60000002 0.60000002 0 0 1 20.920898 9.4138997 z M 26.61263 9.4138997 A 0.60000002 0.60000002 0 0 1 27.212646 10.013916 A 0.60000002 0.60000002 0 0 1 26.61263 10.613932 A 0.60000002 0.60000002 0 0 1 26.012614 10.013916 A 0.60000002 0.60000002 0 0 1 26.61263 9.4138997 z M 32.304281 9.4138997 A 0.60000002 0.60000002 0 0 1 32.904297 10.013916 A 0.60000002 0.60000002 0 0 1 32.304281 10.613932 A 0.60000002 0.60000002 0 0 1 31.704264 10.013916 A 0.60000002 0.60000002 0 0 1 32.304281 9.4138997 z M 37.996012 9.4138997 A 0.60000002 0.60000002 0 0 1 38.596029 10.013916 A 0.60000002 0.60000002 0 0 1 37.996012 10.613932 A 0.60000002 0.60000002 0 0 1 37.395996 10.013916 A 0.60000002 0.60000002 0 0 1 37.996012 9.4138997 z M 43.687663 9.4138997 A 0.60000002 0.60000002 0 0 1 44.287679 10.013916 A 0.60000002 0.60000002 0 0 1 43.687663 10.613932 A 0.60000002 0.60000002 0 0 1 43.087646 10.013916 A 0.60000002 0.60000002 0 0 1 43.687663 9.4138997 z M 49.379395 9.4138997 A 0.60000002 0.60000002 0 0 1 49.979411 10.013916 A 0.60000002 0.60000002 0 0 1 49.379395 10.613932 A 0.60000002 0.60000002 0 0 1 48.779378 10.013916 A 0.60000002 0.60000002 0 0 1 49.379395 9.4138997 z M 55.071045 9.4138997 A 0.60000002 0.60000002 0 0 1 55.671061 10.013916 A 0.60000002 0.60000002 0 0 1 55.071045 10.613932 A 0.60000002 0.60000002 0 0 1 54.471029 10.013916 A 0.60000002 0.60000002 0 0 1 55.071045 9.4138997 z M 1 10.760417 A 1 1 0 0 0 0 11.760417 A 1 1 0 0 0 1 12.760417 A 1 1 0 0 0 2 11.760417 A 1 1 0 0 0 1 10.760417 z M 6.6917318 10.760417 A 1 1 0 0 0 5.6917318 11.760417 A 1 1 0 0 0 6.6917318 12.760417 A 1 1 0 0 0 7.6917318 11.760417 A 1 1 0 0 0 6.6917318 10.760417 z M 12.383382 10.760417 A 1 1 0 0 0 11.383382 11.760417 A 1 1 0 0 0 12.383382 12.760417 A 1 1 0 0 0 13.383382 11.760417 A 1 1 0 0 0 12.383382 10.760417 z M 18.075114 10.760417 A 1 1 0 0 0 17.075114 11.760417 A 1 1 0 0 0 18.075114 12.760417 A 1 1 0 0 0 19.075114 11.760417 A 1 1 0 0 0 18.075114 10.760417 z M 23.766764 10.760417 A 1 1 0 0 0 22.766764 11.760417 A 1 1 0 0 0 23.766764 12.760417 A 1 1 0 0 0 24.766764 11.760417 A 1 1 0 0 0 23.766764 10.760417 z M 29.458496 10.760417 A 1 1 0 0 0 28.458496 11.760417 A 1 1 0 0 0 29.458496 12.760417 A 1 1 0 0 0 30.458496 11.760417 A 1 1 0 0 0 29.458496 10.760417 z M 35.150146 10.760417 A 1 1 0 0 0 34.150146 11.760417 A 1 1 0 0 0 35.150146 12.760417 A 1 1 0 0 0 36.150146 11.760417 A 1 1 0 0 0 35.150146 10.760417 z M 40.841878 10.760417 A 1 1 0 0 0 39.841878 11.760417 A 1 1 0 0 0 40.841878 12.760417 A 1 1 0 0 0 41.841878 11.760417 A 1 1 0 0 0 40.841878 10.760417 z M 46.533529 10.760417 A 1 1 0 0 0 45.533529 11.760417 A 1 1 0 0 0 46.533529 12.760417 A 1 1 0 0 0 47.533529 11.760417 A 1 1 0 0 0 46.533529 10.760417 z M 52.22526 10.760417 A 1 1 0 0 0 51.22526 11.760417 A 1 1 0 0 0 52.22526 12.760417 A 1 1 0 0 0 53.22526 11.760417 A 1 1 0 0 0 52.22526 10.760417 z M 1 11.1604 A 0.60000002 0.60000002 0 0 1 1.6000163 11.760417 A 0.60000002 0.60000002 0 0 1 1 12.360433 A 0.60000002 0.60000002 0 0 1 0.39998372 11.760417 A 0.60000002 0.60000002 0 0 1 1 11.1604 z M 6.6917318 11.1604 A 0.60000002 0.60000002 0 0 1 7.291748 11.760417 A 0.60000002 0.60000002 0 0 1 6.6917318 12.360433 A 0.60000002 0.60000002 0 0 1 6.0917155 11.760417 A 0.60000002 0.60000002 0 0 1 6.6917318 11.1604 z M 12.383382 11.1604 A 0.60000002 0.60000002 0 0 1 12.983398 11.760417 A 0.60000002 0.60000002 0 0 1 12.383382 12.360433 A 0.60000002 0.60000002 0 0 1 11.783366 11.760417 A 0.60000002 0.60000002 0 0 1 12.383382 11.1604 z M 18.075114 11.1604 A 0.60000002 0.60000002 0 0 1 18.67513 11.760417 A 0.60000002 0.60000002 0 0 1 18.075114 12.360433 A 0.60000002 0.60000002 0 0 1 17.475098 11.760417 A 0.60000002 0.60000002 0 0 1 18.075114 11.1604 z M 23.766764 11.1604 A 0.60000002 0.60000002 0 0 1 24.366781 11.760417 A 0.60000002 0.60000002 0 0 1 23.766764 12.360433 A 0.60000002 0.60000002 0 0 1 23.166748 11.760417 A 0.60000002 0.60000002 0 0 1 23.766764 11.1604 z M 29.458496 11.1604 A 0.60000002 0.60000002 0 0 1 30.058512 11.760417 A 0.60000002 0.60000002 0 0 1 29.458496 12.360433 A 0.60000002 0.60000002 0 0 1 28.85848 11.760417 A 0.60000002 0.60000002 0 0 1 29.458496 11.1604 z M 35.150146 11.1604 A 0.60000002 0.60000002 0 0 1 35.750163 11.760417 A 0.60000002 0.60000002 0 0 1 35.150146 12.360433 A 0.60000002 0.60000002 0 0 1 34.55013 11.760417 A 0.60000002 0.60000002 0 0 1 35.150146 11.1604 z M 40.841878 11.1604 A 0.60000002 0.60000002 0 0 1 41.441895 11.760417 A 0.60000002 0.60000002 0 0 1 40.841878 12.360433 A 0.60000002 0.60000002 0 0 1 40.241862 11.760417 A 0.60000002 0.60000002 0 0 1 40.841878 11.1604 z M 46.533529 11.1604 A 0.60000002 0.60000002 0 0 1 47.133545 11.760417 A 0.60000002 0.60000002 0 0 1 46.533529 12.360433 A 0.60000002 0.60000002 0 0 1 45.933512 11.760417 A 0.60000002 0.60000002 0 0 1 46.533529 11.1604 z M 52.22526 11.1604 A 0.60000002 0.60000002 0 0 1 52.825277 11.760417 A 0.60000002 0.60000002 0 0 1 52.22526 12.360433 A 0.60000002 0.60000002 0 0 1 51.625244 11.760417 A 0.60000002 0.60000002 0 0 1 52.22526 11.1604 z M 3.8458659 12.506999 A 1 1 0 0 0 2.8458659 13.506999 A 1 1 0 0 0 3.8458659 14.506999 A 1 1 0 0 0 4.8458659 13.506999 A 1 1 0 0 0 3.8458659 12.506999 z M 9.5375163 12.506999 A 1 1 0 0 0 8.5375163 13.506999 A 1 1 0 0 0 9.5375163 14.506999 A 1 1 0 0 0 10.537516 13.506999 A 1 1 0 0 0 9.5375163 12.506999 z M 15.229248 12.506999 A 1 1 0 0 0 14.229248 13.506999 A 1 1 0 0 0 15.229248 14.506999 A 1 1 0 0 0 16.229248 13.506999 A 1 1 0 0 0 15.229248 12.506999 z M 20.920898 12.506999 A 1 1 0 0 0 19.920898 13.506999 A 1 1 0 0 0 20.920898 14.506999 A 1 1 0 0 0 21.920898 13.506999 A 1 1 0 0 0 20.920898 12.506999 z M 26.61263 12.506999 A 1 1 0 0 0 25.61263 13.506999 A 1 1 0 0 0 26.61263 14.506999 A 1 1 0 0 0 27.61263 13.506999 A 1 1 0 0 0 26.61263 12.506999 z M 32.304281 12.506999 A 1 1 0 0 0 31.304281 13.506999 A 1 1 0 0 0 32.304281 14.506999 A 1 1 0 0 0 33.304281 13.506999 A 1 1 0 0 0 32.304281 12.506999 z M 37.996012 12.506999 A 1 1 0 0 0 36.996012 13.506999 A 1 1 0 0 0 37.996012 14.506999 A 1 1 0 0 0 38.996012 13.506999 A 1 1 0 0 0 37.996012 12.506999 z M 43.687663 12.506999 A 1 1 0 0 0 42.687663 13.506999 A 1 1 0 0 0 43.687663 14.506999 A 1 1 0 0 0 44.687663 13.506999 A 1 1 0 0 0 43.687663 12.506999 z M 49.379395 12.506999 A 1 1 0 0 0 48.379395 13.506999 A 1 1 0 0 0 49.379395 14.506999 A 1 1 0 0 0 50.379395 13.506999 A 1 1 0 0 0 49.379395 12.506999 z M 55.071045 12.506999 A 1 1 0 0 0 54.071045 13.506999 A 1 1 0 0 0 55.071045 14.506999 A 1 1 0 0 0 56.071045 13.506999 A 1 1 0 0 0 55.071045 12.506999 z M 3.8458659 12.906982 A 0.60000002 0.60000002 0 0 1 4.4458822 13.506999 A 0.60000002 0.60000002 0 0 1 3.8458659 14.107015 A 0.60000002 0.60000002 0 0 1 3.2458496 13.506999 A 0.60000002 0.60000002 0 0 1 3.8458659 12.906982 z M 9.5375163 12.906982 A 0.60000002 0.60000002 0 0 1 10.137533 13.506999 A 0.60000002 0.60000002 0 0 1 9.5375163 14.107015 A 0.60000002 0.60000002 0 0 1 8.9375 13.506999 A 0.60000002 0.60000002 0 0 1 9.5375163 12.906982 z M 15.229248 12.906982 A 0.60000002 0.60000002 0 0 1 15.829264 13.506999 A 0.60000002 0.60000002 0 0 1 15.229248 14.107015 A 0.60000002 0.60000002 0 0 1 14.629232 13.506999 A 0.60000002 0.60000002 0 0 1 15.229248 12.906982 z M 20.920898 12.906982 A 0.60000002 0.60000002 0 0 1 21.520915 13.506999 A 0.60000002 0.60000002 0 0 1 20.920898 14.107015 A 0.60000002 0.60000002 0 0 1 20.320882 13.506999 A 0.60000002 0.60000002 0 0 1 20.920898 12.906982 z M 26.61263 12.906982 A 0.60000002 0.60000002 0 0 1 27.212646 13.506999 A 0.60000002 0.60000002 0 0 1 26.61263 14.107015 A 0.60000002 0.60000002 0 0 1 26.012614 13.506999 A 0.60000002 0.60000002 0 0 1 26.61263 12.906982 z M 32.304281 12.906982 A 0.60000002 0.60000002 0 0 1 32.904297 13.506999 A 0.60000002 0.60000002 0 0 1 32.304281 14.107015 A 0.60000002 0.60000002 0 0 1 31.704264 13.506999 A 0.60000002 0.60000002 0 0 1 32.304281 12.906982 z M 37.996012 12.906982 A 0.60000002 0.60000002 0 0 1 38.596029 13.506999 A 0.60000002 0.60000002 0 0 1 37.996012 14.107015 A 0.60000002 0.60000002 0 0 1 37.395996 13.506999 A 0.60000002 0.60000002 0 0 1 37.996012 12.906982 z M 43.687663 12.906982 A 0.60000002 0.60000002 0 0 1 44.287679 13.506999 A 0.60000002 0.60000002 0 0 1 43.687663 14.107015 A 0.60000002 0.60000002 0 0 1 43.087646 13.506999 A 0.60000002 0.60000002 0 0 1 43.687663 12.906982 z M 49.379395 12.906982 A 0.60000002 0.60000002 0 0 1 49.979411 13.506999 A 0.60000002 0.60000002 0 0 1 49.379395 14.107015 A 0.60000002 0.60000002 0 0 1 48.779378 13.506999 A 0.60000002 0.60000002 0 0 1 49.379395 12.906982 z M 55.071045 12.906982 A 0.60000002 0.60000002 0 0 1 55.671061 13.506999 A 0.60000002 0.60000002 0 0 1 55.071045 14.107015 A 0.60000002 0.60000002 0 0 1 54.471029 13.506999 A 0.60000002 0.60000002 0 0 1 55.071045 12.906982 z M 1 14.253499 A 1 1 0 0 0 0 15.253499 A 1 1 0 0 0 1 16.253499 A 1 1 0 0 0 2 15.253499 A 1 1 0 0 0 1 14.253499 z M 6.6917318 14.253499 A 1 1 0 0 0 5.6917318 15.253499 A 1 1 0 0 0 6.6917318 16.253499 A 1 1 0 0 0 7.6917318 15.253499 A 1 1 0 0 0 6.6917318 14.253499 z M 12.383382 14.253499 A 1 1 0 0 0 11.383382 15.253499 A 1 1 0 0 0 12.383382 16.253499 A 1 1 0 0 0 13.383382 15.253499 A 1 1 0 0 0 12.383382 14.253499 z M 18.075114 14.253499 A 1 1 0 0 0 17.075114 15.253499 A 1 1 0 0 0 18.075114 16.253499 A 1 1 0 0 0 19.075114 15.253499 A 1 1 0 0 0 18.075114 14.253499 z M 23.766764 14.253499 A 1 1 0 0 0 22.766764 15.253499 A 1 1 0 0 0 23.766764 16.253499 A 1 1 0 0 0 24.766764 15.253499 A 1 1 0 0 0 23.766764 14.253499 z M 29.458496 14.253499 A 1 1 0 0 0 28.458496 15.253499 A 1 1 0 0 0 29.458496 16.253499 A 1 1 0 0 0 30.458496 15.253499 A 1 1 0 0 0 29.458496 14.253499 z M 35.150146 14.253499 A 1 1 0 0 0 34.150146 15.253499 A 1 1 0 0 0 35.150146 16.253499 A 1 1 0 0 0 36.150146 15.253499 A 1 1 0 0 0 35.150146 14.253499 z M 40.841878 14.253499 A 1 1 0 0 0 39.841878 15.253499 A 1 1 0 0 0 40.841878 16.253499 A 1 1 0 0 0 41.841878 15.253499 A 1 1 0 0 0 40.841878 14.253499 z M 46.533529 14.253499 A 1 1 0 0 0 45.533529 15.253499 A 1 1 0 0 0 46.533529 16.253499 A 1 1 0 0 0 47.533529 15.253499 A 1 1 0 0 0 46.533529 14.253499 z M 52.22526 14.253499 A 1 1 0 0 0 51.22526 15.253499 A 1 1 0 0 0 52.22526 16.253499 A 1 1 0 0 0 53.22526 15.253499 A 1 1 0 0 0 52.22526 14.253499 z M 1 14.653483 A 0.60000002 0.60000002 0 0 1 1.6000163 15.253499 A 0.60000002 0.60000002 0 0 1 1 15.853516 A 0.60000002 0.60000002 0 0 1 0.39998372 15.253499 A 0.60000002 0.60000002 0 0 1 1 14.653483 z M 6.6917318 14.653483 A 0.60000002 0.60000002 0 0 1 7.291748 15.253499 A 0.60000002 0.60000002 0 0 1 6.6917318 15.853516 A 0.60000002 0.60000002 0 0 1 6.0917155 15.253499 A 0.60000002 0.60000002 0 0 1 6.6917318 14.653483 z M 12.383382 14.653483 A 0.60000002 0.60000002 0 0 1 12.983398 15.253499 A 0.60000002 0.60000002 0 0 1 12.383382 15.853516 A 0.60000002 0.60000002 0 0 1 11.783366 15.253499 A 0.60000002 0.60000002 0 0 1 12.383382 14.653483 z M 18.075114 14.653483 A 0.60000002 0.60000002 0 0 1 18.67513 15.253499 A 0.60000002 0.60000002 0 0 1 18.075114 15.853516 A 0.60000002 0.60000002 0 0 1 17.475098 15.253499 A 0.60000002 0.60000002 0 0 1 18.075114 14.653483 z M 23.766764 14.653483 A 0.60000002 0.60000002 0 0 1 24.366781 15.253499 A 0.60000002 0.60000002 0 0 1 23.766764 15.853516 A 0.60000002 0.60000002 0 0 1 23.166748 15.253499 A 0.60000002 0.60000002 0 0 1 23.766764 14.653483 z M 29.458496 14.653483 A 0.60000002 0.60000002 0 0 1 30.058512 15.253499 A 0.60000002 0.60000002 0 0 1 29.458496 15.853516 A 0.60000002 0.60000002 0 0 1 28.85848 15.253499 A 0.60000002 0.60000002 0 0 1 29.458496 14.653483 z M 35.150146 14.653483 A 0.60000002 0.60000002 0 0 1 35.750163 15.253499 A 0.60000002 0.60000002 0 0 1 35.150146 15.853516 A 0.60000002 0.60000002 0 0 1 34.55013 15.253499 A 0.60000002 0.60000002 0 0 1 35.150146 14.653483 z M 40.841878 14.653483 A 0.60000002 0.60000002 0 0 1 41.441895 15.253499 A 0.60000002 0.60000002 0 0 1 40.841878 15.853516 A 0.60000002 0.60000002 0 0 1 40.241862 15.253499 A 0.60000002 0.60000002 0 0 1 40.841878 14.653483 z M 46.533529 14.653483 A 0.60000002 0.60000002 0 0 1 47.133545 15.253499 A 0.60000002 0.60000002 0 0 1 46.533529 15.853516 A 0.60000002 0.60000002 0 0 1 45.933512 15.253499 A 0.60000002 0.60000002 0 0 1 46.533529 14.653483 z M 52.22526 14.653483 A 0.60000002 0.60000002 0 0 1 52.825277 15.253499 A 0.60000002 0.60000002 0 0 1 52.22526 15.853516 A 0.60000002 0.60000002 0 0 1 51.625244 15.253499 A 0.60000002 0.60000002 0 0 1 52.22526 14.653483 z M 3.8458659 16 A 1 1 0 0 0 2.8458659 17 A 1 1 0 0 0 3.8458659 18 A 1 1 0 0 0 4.8458659 17 A 1 1 0 0 0 3.8458659 16 z M 9.5375163 16 A 1 1 0 0 0 8.5375163 17 A 1 1 0 0 0 9.5375163 18 A 1 1 0 0 0 10.537516 17 A 1 1 0 0 0 9.5375163 16 z M 15.229248 16 A 1 1 0 0 0 14.229248 17 A 1 1 0 0 0 15.229248 18 A 1 1 0 0 0 16.229248 17 A 1 1 0 0 0 15.229248 16 z M 20.920898 16 A 1 1 0 0 0 19.920898 17 A 1 1 0 0 0 20.920898 18 A 1 1 0 0 0 21.920898 17 A 1 1 0 0 0 20.920898 16 z M 26.61263 16 A 1 1 0 0 0 25.61263 17 A 1 1 0 0 0 26.61263 18 A 1 1 0 0 0 27.61263 17 A 1 1 0 0 0 26.61263 16 z M 32.304281 16 A 1 1 0 0 0 31.304281 17 A 1 1 0 0 0 32.304281 18 A 1 1 0 0 0 33.304281 17 A 1 1 0 0 0 32.304281 16 z M 37.996012 16 A 1 1 0 0 0 36.996012 17 A 1 1 0 0 0 37.996012 18 A 1 1 0 0 0 38.996012 17 A 1 1 0 0 0 37.996012 16 z M 43.687663 16 A 1 1 0 0 0 42.687663 17 A 1 1 0 0 0 43.687663 18 A 1 1 0 0 0 44.687663 17 A 1 1 0 0 0 43.687663 16 z M 49.379395 16 A 1 1 0 0 0 48.379395 17 A 1 1 0 0 0 49.379395 18 A 1 1 0 0 0 50.379395 17 A 1 1 0 0 0 49.379395 16 z M 55.071045 16 A 1 1 0 0 0 54.071045 17 A 1 1 0 0 0 55.071045 18 A 1 1 0 0 0 56.071045 17 A 1 1 0 0 0 55.071045 16 z M 3.8458659 16.399984 A 0.60000002 0.60000002 0 0 1 4.4458822 17 A 0.60000002 0.60000002 0 0 1 3.8458659 17.600016 A 0.60000002 0.60000002 0 0 1 3.2458496 17 A 0.60000002 0.60000002 0 0 1 3.8458659 16.399984 z M 9.5375163 16.399984 A 0.60000002 0.60000002 0 0 1 10.137533 17 A 0.60000002 0.60000002 0 0 1 9.5375163 17.600016 A 0.60000002 0.60000002 0 0 1 8.9375 17 A 0.60000002 0.60000002 0 0 1 9.5375163 16.399984 z M 15.229248 16.399984 A 0.60000002 0.60000002 0 0 1 15.829264 17 A 0.60000002 0.60000002 0 0 1 15.229248 17.600016 A 0.60000002 0.60000002 0 0 1 14.629232 17 A 0.60000002 0.60000002 0 0 1 15.229248 16.399984 z M 20.920898 16.399984 A 0.60000002 0.60000002 0 0 1 21.520915 17 A 0.60000002 0.60000002 0 0 1 20.920898 17.600016 A 0.60000002 0.60000002 0 0 1 20.320882 17 A 0.60000002 0.60000002 0 0 1 20.920898 16.399984 z M 26.61263 16.399984 A 0.60000002 0.60000002 0 0 1 27.212646 17 A 0.60000002 0.60000002 0 0 1 26.61263 17.600016 A 0.60000002 0.60000002 0 0 1 26.012614 17 A 0.60000002 0.60000002 0 0 1 26.61263 16.399984 z M 32.304281 16.399984 A 0.60000002 0.60000002 0 0 1 32.904297 17 A 0.60000002 0.60000002 0 0 1 32.304281 17.600016 A 0.60000002 0.60000002 0 0 1 31.704264 17 A 0.60000002 0.60000002 0 0 1 32.304281 16.399984 z M 37.996012 16.399984 A 0.60000002 0.60000002 0 0 1 38.596029 17 A 0.60000002 0.60000002 0 0 1 37.996012 17.600016 A 0.60000002 0.60000002 0 0 1 37.395996 17 A 0.60000002 0.60000002 0 0 1 37.996012 16.399984 z M 43.687663 16.399984 A 0.60000002 0.60000002 0 0 1 44.287679 17 A 0.60000002 0.60000002 0 0 1 43.687663 17.600016 A 0.60000002 0.60000002 0 0 1 43.087646 17 A 0.60000002 0.60000002 0 0 1 43.687663 16.399984 z M 49.379395 16.399984 A 0.60000002 0.60000002 0 0 1 49.979411 17 A 0.60000002 0.60000002 0 0 1 49.379395 17.600016 A 0.60000002 0.60000002 0 0 1 48.779378 17 A 0.60000002 0.60000002 0 0 1 49.379395 16.399984 z M 55.071045 16.399984 A 0.60000002 0.60000002 0 0 1 55.671061 17 A 0.60000002 0.60000002 0 0 1 55.071045 17.600016 A 0.60000002 0.60000002 0 0 1 54.471029 17 A 0.60000002 0.60000002 0 0 1 55.071045 16.399984 z M 1 17.746501 A 1 1 0 0 0 0 18.746501 A 1 1 0 0 0 1 19.746501 A 1 1 0 0 0 2 18.746501 A 1 1 0 0 0 1 17.746501 z M 6.6917318 17.746501 A 1 1 0 0 0 5.6917318 18.746501 A 1 1 0 0 0 6.6917318 19.746501 A 1 1 0 0 0 7.6917318 18.746501 A 1 1 0 0 0 6.6917318 17.746501 z M 12.383382 17.746501 A 1 1 0 0 0 11.383382 18.746501 A 1 1 0 0 0 12.383382 19.746501 A 1 1 0 0 0 13.383382 18.746501 A 1 1 0 0 0 12.383382 17.746501 z M 18.075114 17.746501 A 1 1 0 0 0 17.075114 18.746501 A 1 1 0 0 0 18.075114 19.746501 A 1 1 0 0 0 19.075114 18.746501 A 1 1 0 0 0 18.075114 17.746501 z M 23.766764 17.746501 A 1 1 0 0 0 22.766764 18.746501 A 1 1 0 0 0 23.766764 19.746501 A 1 1 0 0 0 24.766764 18.746501 A 1 1 0 0 0 23.766764 17.746501 z M 29.458496 17.746501 A 1 1 0 0 0 28.458496 18.746501 A 1 1 0 0 0 29.458496 19.746501 A 1 1 0 0 0 30.458496 18.746501 A 1 1 0 0 0 29.458496 17.746501 z M 35.150146 17.746501 A 1 1 0 0 0 34.150146 18.746501 A 1 1 0 0 0 35.150146 19.746501 A 1 1 0 0 0 36.150146 18.746501 A 1 1 0 0 0 35.150146 17.746501 z M 40.841878 17.746501 A 1 1 0 0 0 39.841878 18.746501 A 1 1 0 0 0 40.841878 19.746501 A 1 1 0 0 0 41.841878 18.746501 A 1 1 0 0 0 40.841878 17.746501 z M 46.533529 17.746501 A 1 1 0 0 0 45.533529 18.746501 A 1 1 0 0 0 46.533529 19.746501 A 1 1 0 0 0 47.533529 18.746501 A 1 1 0 0 0 46.533529 17.746501 z M 52.22526 17.746501 A 1 1 0 0 0 51.22526 18.746501 A 1 1 0 0 0 52.22526 19.746501 A 1 1 0 0 0 53.22526 18.746501 A 1 1 0 0 0 52.22526 17.746501 z M 1 18.146484 A 0.60000002 0.60000002 0 0 1 1.6000163 18.746501 A 0.60000002 0.60000002 0 0 1 1 19.346517 A 0.60000002 0.60000002 0 0 1 0.39998372 18.746501 A 0.60000002 0.60000002 0 0 1 1 18.146484 z M 6.6917318 18.146484 A 0.60000002 0.60000002 0 0 1 7.291748 18.746501 A 0.60000002 0.60000002 0 0 1 6.6917318 19.346517 A 0.60000002 0.60000002 0 0 1 6.0917155 18.746501 A 0.60000002 0.60000002 0 0 1 6.6917318 18.146484 z M 12.383382 18.146484 A 0.60000002 0.60000002 0 0 1 12.983398 18.746501 A 0.60000002 0.60000002 0 0 1 12.383382 19.346517 A 0.60000002 0.60000002 0 0 1 11.783366 18.746501 A 0.60000002 0.60000002 0 0 1 12.383382 18.146484 z M 18.075114 18.146484 A 0.60000002 0.60000002 0 0 1 18.67513 18.746501 A 0.60000002 0.60000002 0 0 1 18.075114 19.346517 A 0.60000002 0.60000002 0 0 1 17.475098 18.746501 A 0.60000002 0.60000002 0 0 1 18.075114 18.146484 z M 23.766764 18.146484 A 0.60000002 0.60000002 0 0 1 24.366781 18.746501 A 0.60000002 0.60000002 0 0 1 23.766764 19.346517 A 0.60000002 0.60000002 0 0 1 23.166748 18.746501 A 0.60000002 0.60000002 0 0 1 23.766764 18.146484 z M 29.458496 18.146484 A 0.60000002 0.60000002 0 0 1 30.058512 18.746501 A 0.60000002 0.60000002 0 0 1 29.458496 19.346517 A 0.60000002 0.60000002 0 0 1 28.85848 18.746501 A 0.60000002 0.60000002 0 0 1 29.458496 18.146484 z M 35.150146 18.146484 A 0.60000002 0.60000002 0 0 1 35.750163 18.746501 A 0.60000002 0.60000002 0 0 1 35.150146 19.346517 A 0.60000002 0.60000002 0 0 1 34.55013 18.746501 A 0.60000002 0.60000002 0 0 1 35.150146 18.146484 z M 40.841878 18.146484 A 0.60000002 0.60000002 0 0 1 41.441895 18.746501 A 0.60000002 0.60000002 0 0 1 40.841878 19.346517 A 0.60000002 0.60000002 0 0 1 40.241862 18.746501 A 0.60000002 0.60000002 0 0 1 40.841878 18.146484 z M 46.533529 18.146484 A 0.60000002 0.60000002 0 0 1 47.133545 18.746501 A 0.60000002 0.60000002 0 0 1 46.533529 19.346517 A 0.60000002 0.60000002 0 0 1 45.933512 18.746501 A 0.60000002 0.60000002 0 0 1 46.533529 18.146484 z M 52.22526 18.146484 A 0.60000002 0.60000002 0 0 1 52.825277 18.746501 A 0.60000002 0.60000002 0 0 1 52.22526 19.346517 A 0.60000002 0.60000002 0 0 1 51.625244 18.746501 A 0.60000002 0.60000002 0 0 1 52.22526 18.146484 z M 3.8458659 19.493001 A 1 1 0 0 0 2.8458659 20.493001 A 1 1 0 0 0 3.8458659 21.493001 A 1 1 0 0 0 4.8458659 20.493001 A 1 1 0 0 0 3.8458659 19.493001 z M 9.5375163 19.493001 A 1 1 0 0 0 8.5375163 20.493001 A 1 1 0 0 0 9.5375163 21.493001 A 1 1 0 0 0 10.537516 20.493001 A 1 1 0 0 0 9.5375163 19.493001 z M 15.229248 19.493001 A 1 1 0 0 0 14.229248 20.493001 A 1 1 0 0 0 15.229248 21.493001 A 1 1 0 0 0 16.229248 20.493001 A 1 1 0 0 0 15.229248 19.493001 z M 20.920898 19.493001 A 1 1 0 0 0 19.920898 20.493001 A 1 1 0 0 0 20.920898 21.493001 A 1 1 0 0 0 21.920898 20.493001 A 1 1 0 0 0 20.920898 19.493001 z M 26.61263 19.493001 A 1 1 0 0 0 25.61263 20.493001 A 1 1 0 0 0 26.61263 21.493001 A 1 1 0 0 0 27.61263 20.493001 A 1 1 0 0 0 26.61263 19.493001 z M 32.304281 19.493001 A 1 1 0 0 0 31.304281 20.493001 A 1 1 0 0 0 32.304281 21.493001 A 1 1 0 0 0 33.304281 20.493001 A 1 1 0 0 0 32.304281 19.493001 z M 37.996012 19.493001 A 1 1 0 0 0 36.996012 20.493001 A 1 1 0 0 0 37.996012 21.493001 A 1 1 0 0 0 38.996012 20.493001 A 1 1 0 0 0 37.996012 19.493001 z M 43.687663 19.493001 A 1 1 0 0 0 42.687663 20.493001 A 1 1 0 0 0 43.687663 21.493001 A 1 1 0 0 0 44.687663 20.493001 A 1 1 0 0 0 43.687663 19.493001 z M 49.379395 19.493001 A 1 1 0 0 0 48.379395 20.493001 A 1 1 0 0 0 49.379395 21.493001 A 1 1 0 0 0 50.379395 20.493001 A 1 1 0 0 0 49.379395 19.493001 z M 55.071045 19.493001 A 1 1 0 0 0 54.071045 20.493001 A 1 1 0 0 0 55.071045 21.493001 A 1 1 0 0 0 56.071045 20.493001 A 1 1 0 0 0 55.071045 19.493001 z M 3.8458659 19.892985 A 0.60000002 0.60000002 0 0 1 4.4458822 20.493001 A 0.60000002 0.60000002 0 0 1 3.8458659 21.093018 A 0.60000002 0.60000002 0 0 1 3.2458496 20.493001 A 0.60000002 0.60000002 0 0 1 3.8458659 19.892985 z M 9.5375163 19.892985 A 0.60000002 0.60000002 0 0 1 10.137533 20.493001 A 0.60000002 0.60000002 0 0 1 9.5375163 21.093018 A 0.60000002 0.60000002 0 0 1 8.9375 20.493001 A 0.60000002 0.60000002 0 0 1 9.5375163 19.892985 z M 15.229248 19.892985 A 0.60000002 0.60000002 0 0 1 15.829264 20.493001 A 0.60000002 0.60000002 0 0 1 15.229248 21.093018 A 0.60000002 0.60000002 0 0 1 14.629232 20.493001 A 0.60000002 0.60000002 0 0 1 15.229248 19.892985 z M 20.920898 19.892985 A 0.60000002 0.60000002 0 0 1 21.520915 20.493001 A 0.60000002 0.60000002 0 0 1 20.920898 21.093018 A 0.60000002 0.60000002 0 0 1 20.320882 20.493001 A 0.60000002 0.60000002 0 0 1 20.920898 19.892985 z M 26.61263 19.892985 A 0.60000002 0.60000002 0 0 1 27.212646 20.493001 A 0.60000002 0.60000002 0 0 1 26.61263 21.093018 A 0.60000002 0.60000002 0 0 1 26.012614 20.493001 A 0.60000002 0.60000002 0 0 1 26.61263 19.892985 z M 32.304281 19.892985 A 0.60000002 0.60000002 0 0 1 32.904297 20.493001 A 0.60000002 0.60000002 0 0 1 32.304281 21.093018 A 0.60000002 0.60000002 0 0 1 31.704264 20.493001 A 0.60000002 0.60000002 0 0 1 32.304281 19.892985 z M 37.996012 19.892985 A 0.60000002 0.60000002 0 0 1 38.596029 20.493001 A 0.60000002 0.60000002 0 0 1 37.996012 21.093018 A 0.60000002 0.60000002 0 0 1 37.395996 20.493001 A 0.60000002 0.60000002 0 0 1 37.996012 19.892985 z M 43.687663 19.892985 A 0.60000002 0.60000002 0 0 1 44.287679 20.493001 A 0.60000002 0.60000002 0 0 1 43.687663 21.093018 A 0.60000002 0.60000002 0 0 1 43.087646 20.493001 A 0.60000002 0.60000002 0 0 1 43.687663 19.892985 z M 49.379395 19.892985 A 0.60000002 0.60000002 0 0 1 49.979411 20.493001 A 0.60000002 0.60000002 0 0 1 49.379395 21.093018 A 0.60000002 0.60000002 0 0 1 48.779378 20.493001 A 0.60000002 0.60000002 0 0 1 49.379395 19.892985 z M 55.071045 19.892985 A 0.60000002 0.60000002 0 0 1 55.671061 20.493001 A 0.60000002 0.60000002 0 0 1 55.071045 21.093018 A 0.60000002 0.60000002 0 0 1 54.471029 20.493001 A 0.60000002 0.60000002 0 0 1 55.071045 19.892985 z M 1 21.239583 A 1 1 0 0 0 0 22.239583 A 1 1 0 0 0 1 23.239583 A 1 1 0 0 0 2 22.239583 A 1 1 0 0 0 1 21.239583 z M 6.6917318 21.239583 A 1 1 0 0 0 5.6917318 22.239583 A 1 1 0 0 0 6.6917318 23.239583 A 1 1 0 0 0 7.6917318 22.239583 A 1 1 0 0 0 6.6917318 21.239583 z M 12.383382 21.239583 A 1 1 0 0 0 11.383382 22.239583 A 1 1 0 0 0 12.383382 23.239583 A 1 1 0 0 0 13.383382 22.239583 A 1 1 0 0 0 12.383382 21.239583 z M 18.075114 21.239583 A 1 1 0 0 0 17.075114 22.239583 A 1 1 0 0 0 18.075114 23.239583 A 1 1 0 0 0 19.075114 22.239583 A 1 1 0 0 0 18.075114 21.239583 z M 23.766764 21.239583 A 1 1 0 0 0 22.766764 22.239583 A 1 1 0 0 0 23.766764 23.239583 A 1 1 0 0 0 24.766764 22.239583 A 1 1 0 0 0 23.766764 21.239583 z M 29.458496 21.239583 A 1 1 0 0 0 28.458496 22.239583 A 1 1 0 0 0 29.458496 23.239583 A 1 1 0 0 0 30.458496 22.239583 A 1 1 0 0 0 29.458496 21.239583 z M 35.150146 21.239583 A 1 1 0 0 0 34.150146 22.239583 A 1 1 0 0 0 35.150146 23.239583 A 1 1 0 0 0 36.150146 22.239583 A 1 1 0 0 0 35.150146 21.239583 z M 40.841878 21.239583 A 1 1 0 0 0 39.841878 22.239583 A 1 1 0 0 0 40.841878 23.239583 A 1 1 0 0 0 41.841878 22.239583 A 1 1 0 0 0 40.841878 21.239583 z M 46.533529 21.239583 A 1 1 0 0 0 45.533529 22.239583 A 1 1 0 0 0 46.533529 23.239583 A 1 1 0 0 0 47.533529 22.239583 A 1 1 0 0 0 46.533529 21.239583 z M 52.22526 21.239583 A 1 1 0 0 0 51.22526 22.239583 A 1 1 0 0 0 52.22526 23.239583 A 1 1 0 0 0 53.22526 22.239583 A 1 1 0 0 0 52.22526 21.239583 z M 1 21.639567 A 0.60000002 0.60000002 0 0 1 1.6000163 22.239583 A 0.60000002 0.60000002 0 0 1 1 22.8396 A 0.60000002 0.60000002 0 0 1 0.39998372 22.239583 A 0.60000002 0.60000002 0 0 1 1 21.639567 z M 6.6917318 21.639567 A 0.60000002 0.60000002 0 0 1 7.291748 22.239583 A 0.60000002 0.60000002 0 0 1 6.6917318 22.8396 A 0.60000002 0.60000002 0 0 1 6.0917155 22.239583 A 0.60000002 0.60000002 0 0 1 6.6917318 21.639567 z M 12.383382 21.639567 A 0.60000002 0.60000002 0 0 1 12.983398 22.239583 A 0.60000002 0.60000002 0 0 1 12.383382 22.8396 A 0.60000002 0.60000002 0 0 1 11.783366 22.239583 A 0.60000002 0.60000002 0 0 1 12.383382 21.639567 z M 18.075114 21.639567 A 0.60000002 0.60000002 0 0 1 18.67513 22.239583 A 0.60000002 0.60000002 0 0 1 18.075114 22.8396 A 0.60000002 0.60000002 0 0 1 17.475098 22.239583 A 0.60000002 0.60000002 0 0 1 18.075114 21.639567 z M 23.766764 21.639567 A 0.60000002 0.60000002 0 0 1 24.366781 22.239583 A 0.60000002 0.60000002 0 0 1 23.766764 22.8396 A 0.60000002 0.60000002 0 0 1 23.166748 22.239583 A 0.60000002 0.60000002 0 0 1 23.766764 21.639567 z M 29.458496 21.639567 A 0.60000002 0.60000002 0 0 1 30.058512 22.239583 A 0.60000002 0.60000002 0 0 1 29.458496 22.8396 A 0.60000002 0.60000002 0 0 1 28.85848 22.239583 A 0.60000002 0.60000002 0 0 1 29.458496 21.639567 z M 35.150146 21.639567 A 0.60000002 0.60000002 0 0 1 35.750163 22.239583 A 0.60000002 0.60000002 0 0 1 35.150146 22.8396 A 0.60000002 0.60000002 0 0 1 34.55013 22.239583 A 0.60000002 0.60000002 0 0 1 35.150146 21.639567 z M 40.841878 21.639567 A 0.60000002 0.60000002 0 0 1 41.441895 22.239583 A 0.60000002 0.60000002 0 0 1 40.841878 22.8396 A 0.60000002 0.60000002 0 0 1 40.241862 22.239583 A 0.60000002 0.60000002 0 0 1 40.841878 21.639567 z M 46.533529 21.639567 A 0.60000002 0.60000002 0 0 1 47.133545 22.239583 A 0.60000002 0.60000002 0 0 1 46.533529 22.8396 A 0.60000002 0.60000002 0 0 1 45.933512 22.239583 A 0.60000002 0.60000002 0 0 1 46.533529 21.639567 z M 52.22526 21.639567 A 0.60000002 0.60000002 0 0 1 52.825277 22.239583 A 0.60000002 0.60000002 0 0 1 52.22526 22.8396 A 0.60000002 0.60000002 0 0 1 51.625244 22.239583 A 0.60000002 0.60000002 0 0 1 52.22526 21.639567 z M 3.8458659 22.986084 A 1 1 0 0 0 2.8458659 23.986084 A 1 1 0 0 0 3.8458659 24.986084 A 1 1 0 0 0 4.8458659 23.986084 A 1 1 0 0 0 3.8458659 22.986084 z M 9.5375163 22.986084 A 1 1 0 0 0 8.5375163 23.986084 A 1 1 0 0 0 9.5375163 24.986084 A 1 1 0 0 0 10.537516 23.986084 A 1 1 0 0 0 9.5375163 22.986084 z M 15.229248 22.986084 A 1 1 0 0 0 14.229248 23.986084 A 1 1 0 0 0 15.229248 24.986084 A 1 1 0 0 0 16.229248 23.986084 A 1 1 0 0 0 15.229248 22.986084 z M 20.920898 22.986084 A 1 1 0 0 0 19.920898 23.986084 A 1 1 0 0 0 20.920898 24.986084 A 1 1 0 0 0 21.920898 23.986084 A 1 1 0 0 0 20.920898 22.986084 z M 26.61263 22.986084 A 1 1 0 0 0 25.61263 23.986084 A 1 1 0 0 0 26.61263 24.986084 A 1 1 0 0 0 27.61263 23.986084 A 1 1 0 0 0 26.61263 22.986084 z M 32.304281 22.986084 A 1 1 0 0 0 31.304281 23.986084 A 1 1 0 0 0 32.304281 24.986084 A 1 1 0 0 0 33.304281 23.986084 A 1 1 0 0 0 32.304281 22.986084 z M 37.996012 22.986084 A 1 1 0 0 0 36.996012 23.986084 A 1 1 0 0 0 37.996012 24.986084 A 1 1 0 0 0 38.996012 23.986084 A 1 1 0 0 0 37.996012 22.986084 z M 43.687663 22.986084 A 1 1 0 0 0 42.687663 23.986084 A 1 1 0 0 0 43.687663 24.986084 A 1 1 0 0 0 44.687663 23.986084 A 1 1 0 0 0 43.687663 22.986084 z M 49.379395 22.986084 A 1 1 0 0 0 48.379395 23.986084 A 1 1 0 0 0 49.379395 24.986084 A 1 1 0 0 0 50.379395 23.986084 A 1 1 0 0 0 49.379395 22.986084 z M 55.071045 22.986084 A 1 1 0 0 0 54.071045 23.986084 A 1 1 0 0 0 55.071045 24.986084 A 1 1 0 0 0 56.071045 23.986084 A 1 1 0 0 0 55.071045 22.986084 z M 3.8458659 23.386068 A 0.60000002 0.60000002 0 0 1 4.4458822 23.986084 A 0.60000002 0.60000002 0 0 1 3.8458659 24.5861 A 0.60000002 0.60000002 0 0 1 3.2458496 23.986084 A 0.60000002 0.60000002 0 0 1 3.8458659 23.386068 z M 9.5375163 23.386068 A 0.60000002 0.60000002 0 0 1 10.137533 23.986084 A 0.60000002 0.60000002 0 0 1 9.5375163 24.5861 A 0.60000002 0.60000002 0 0 1 8.9375 23.986084 A 0.60000002 0.60000002 0 0 1 9.5375163 23.386068 z M 15.229248 23.386068 A 0.60000002 0.60000002 0 0 1 15.829264 23.986084 A 0.60000002 0.60000002 0 0 1 15.229248 24.5861 A 0.60000002 0.60000002 0 0 1 14.629232 23.986084 A 0.60000002 0.60000002 0 0 1 15.229248 23.386068 z M 20.920898 23.386068 A 0.60000002 0.60000002 0 0 1 21.520915 23.986084 A 0.60000002 0.60000002 0 0 1 20.920898 24.5861 A 0.60000002 0.60000002 0 0 1 20.320882 23.986084 A 0.60000002 0.60000002 0 0 1 20.920898 23.386068 z M 26.61263 23.386068 A 0.60000002 0.60000002 0 0 1 27.212646 23.986084 A 0.60000002 0.60000002 0 0 1 26.61263 24.5861 A 0.60000002 0.60000002 0 0 1 26.012614 23.986084 A 0.60000002 0.60000002 0 0 1 26.61263 23.386068 z M 32.304281 23.386068 A 0.60000002 0.60000002 0 0 1 32.904297 23.986084 A 0.60000002 0.60000002 0 0 1 32.304281 24.5861 A 0.60000002 0.60000002 0 0 1 31.704264 23.986084 A 0.60000002 0.60000002 0 0 1 32.304281 23.386068 z M 37.996012 23.386068 A 0.60000002 0.60000002 0 0 1 38.596029 23.986084 A 0.60000002 0.60000002 0 0 1 37.996012 24.5861 A 0.60000002 0.60000002 0 0 1 37.395996 23.986084 A 0.60000002 0.60000002 0 0 1 37.996012 23.386068 z M 43.687663 23.386068 A 0.60000002 0.60000002 0 0 1 44.287679 23.986084 A 0.60000002 0.60000002 0 0 1 43.687663 24.5861 A 0.60000002 0.60000002 0 0 1 43.087646 23.986084 A 0.60000002 0.60000002 0 0 1 43.687663 23.386068 z M 49.379395 23.386068 A 0.60000002 0.60000002 0 0 1 49.979411 23.986084 A 0.60000002 0.60000002 0 0 1 49.379395 24.5861 A 0.60000002 0.60000002 0 0 1 48.779378 23.986084 A 0.60000002 0.60000002 0 0 1 49.379395 23.386068 z M 55.071045 23.386068 A 0.60000002 0.60000002 0 0 1 55.671061 23.986084 A 0.60000002 0.60000002 0 0 1 55.071045 24.5861 A 0.60000002 0.60000002 0 0 1 54.471029 23.986084 A 0.60000002 0.60000002 0 0 1 55.071045 23.386068 z M 1 24.732585 A 1 1 0 0 0 0 25.732585 A 1 1 0 0 0 1 26.732585 A 1 1 0 0 0 2 25.732585 A 1 1 0 0 0 1 24.732585 z M 6.6917318 24.732585 A 1 1 0 0 0 5.6917318 25.732585 A 1 1 0 0 0 6.6917318 26.732585 A 1 1 0 0 0 7.6917318 25.732585 A 1 1 0 0 0 6.6917318 24.732585 z M 12.383382 24.732585 A 1 1 0 0 0 11.383382 25.732585 A 1 1 0 0 0 12.383382 26.732585 A 1 1 0 0 0 13.383382 25.732585 A 1 1 0 0 0 12.383382 24.732585 z M 18.075114 24.732585 A 1 1 0 0 0 17.075114 25.732585 A 1 1 0 0 0 18.075114 26.732585 A 1 1 0 0 0 19.075114 25.732585 A 1 1 0 0 0 18.075114 24.732585 z M 23.766764 24.732585 A 1 1 0 0 0 22.766764 25.732585 A 1 1 0 0 0 23.766764 26.732585 A 1 1 0 0 0 24.766764 25.732585 A 1 1 0 0 0 23.766764 24.732585 z M 29.458496 24.732585 A 1 1 0 0 0 28.458496 25.732585 A 1 1 0 0 0 29.458496 26.732585 A 1 1 0 0 0 30.458496 25.732585 A 1 1 0 0 0 29.458496 24.732585 z M 35.150146 24.732585 A 1 1 0 0 0 34.150146 25.732585 A 1 1 0 0 0 35.150146 26.732585 A 1 1 0 0 0 36.150146 25.732585 A 1 1 0 0 0 35.150146 24.732585 z M 40.841878 24.732585 A 1 1 0 0 0 39.841878 25.732585 A 1 1 0 0 0 40.841878 26.732585 A 1 1 0 0 0 41.841878 25.732585 A 1 1 0 0 0 40.841878 24.732585 z M 46.533529 24.732585 A 1 1 0 0 0 45.533529 25.732585 A 1 1 0 0 0 46.533529 26.732585 A 1 1 0 0 0 47.533529 25.732585 A 1 1 0 0 0 46.533529 24.732585 z M 52.22526 24.732585 A 1 1 0 0 0 51.22526 25.732585 A 1 1 0 0 0 52.22526 26.732585 A 1 1 0 0 0 53.22526 25.732585 A 1 1 0 0 0 52.22526 24.732585 z M 1 25.132568 A 0.60000002 0.60000002 0 0 1 1.6000163 25.732585 A 0.60000002 0.60000002 0 0 1 1 26.332601 A 0.60000002 0.60000002 0 0 1 0.39998372 25.732585 A 0.60000002 0.60000002 0 0 1 1 25.132568 z M 6.6917318 25.132568 A 0.60000002 0.60000002 0 0 1 7.291748 25.732585 A 0.60000002 0.60000002 0 0 1 6.6917318 26.332601 A 0.60000002 0.60000002 0 0 1 6.0917155 25.732585 A 0.60000002 0.60000002 0 0 1 6.6917318 25.132568 z M 12.383382 25.132568 A 0.60000002 0.60000002 0 0 1 12.983398 25.732585 A 0.60000002 0.60000002 0 0 1 12.383382 26.332601 A 0.60000002 0.60000002 0 0 1 11.783366 25.732585 A 0.60000002 0.60000002 0 0 1 12.383382 25.132568 z M 18.075114 25.132568 A 0.60000002 0.60000002 0 0 1 18.67513 25.732585 A 0.60000002 0.60000002 0 0 1 18.075114 26.332601 A 0.60000002 0.60000002 0 0 1 17.475098 25.732585 A 0.60000002 0.60000002 0 0 1 18.075114 25.132568 z M 23.766764 25.132568 A 0.60000002 0.60000002 0 0 1 24.366781 25.732585 A 0.60000002 0.60000002 0 0 1 23.766764 26.332601 A 0.60000002 0.60000002 0 0 1 23.166748 25.732585 A 0.60000002 0.60000002 0 0 1 23.766764 25.132568 z M 29.458496 25.132568 A 0.60000002 0.60000002 0 0 1 30.058512 25.732585 A 0.60000002 0.60000002 0 0 1 29.458496 26.332601 A 0.60000002 0.60000002 0 0 1 28.85848 25.732585 A 0.60000002 0.60000002 0 0 1 29.458496 25.132568 z M 35.150146 25.132568 A 0.60000002 0.60000002 0 0 1 35.750163 25.732585 A 0.60000002 0.60000002 0 0 1 35.150146 26.332601 A 0.60000002 0.60000002 0 0 1 34.55013 25.732585 A 0.60000002 0.60000002 0 0 1 35.150146 25.132568 z M 40.841878 25.132568 A 0.60000002 0.60000002 0 0 1 41.441895 25.732585 A 0.60000002 0.60000002 0 0 1 40.841878 26.332601 A 0.60000002 0.60000002 0 0 1 40.241862 25.732585 A 0.60000002 0.60000002 0 0 1 40.841878 25.132568 z M 46.533529 25.132568 A 0.60000002 0.60000002 0 0 1 47.133545 25.732585 A 0.60000002 0.60000002 0 0 1 46.533529 26.332601 A 0.60000002 0.60000002 0 0 1 45.933512 25.732585 A 0.60000002 0.60000002 0 0 1 46.533529 25.132568 z M 52.22526 25.132568 A 0.60000002 0.60000002 0 0 1 52.825277 25.732585 A 0.60000002 0.60000002 0 0 1 52.22526 26.332601 A 0.60000002 0.60000002 0 0 1 51.625244 25.732585 A 0.60000002 0.60000002 0 0 1 52.22526 25.132568 z M 3.8458659 26.479085 A 1 1 0 0 0 2.8458659 27.479085 A 1 1 0 0 0 3.8458659 28.479085 A 1 1 0 0 0 4.8458659 27.479085 A 1 1 0 0 0 3.8458659 26.479085 z M 9.5375163 26.479085 A 1 1 0 0 0 8.5375163 27.479085 A 1 1 0 0 0 9.5375163 28.479085 A 1 1 0 0 0 10.537516 27.479085 A 1 1 0 0 0 9.5375163 26.479085 z M 15.229248 26.479085 A 1 1 0 0 0 14.229248 27.479085 A 1 1 0 0 0 15.229248 28.479085 A 1 1 0 0 0 16.229248 27.479085 A 1 1 0 0 0 15.229248 26.479085 z M 20.920898 26.479085 A 1 1 0 0 0 19.920898 27.479085 A 1 1 0 0 0 20.920898 28.479085 A 1 1 0 0 0 21.920898 27.479085 A 1 1 0 0 0 20.920898 26.479085 z M 26.61263 26.479085 A 1 1 0 0 0 25.61263 27.479085 A 1 1 0 0 0 26.61263 28.479085 A 1 1 0 0 0 27.61263 27.479085 A 1 1 0 0 0 26.61263 26.479085 z M 32.304281 26.479085 A 1 1 0 0 0 31.304281 27.479085 A 1 1 0 0 0 32.304281 28.479085 A 1 1 0 0 0 33.304281 27.479085 A 1 1 0 0 0 32.304281 26.479085 z M 37.996012 26.479085 A 1 1 0 0 0 36.996012 27.479085 A 1 1 0 0 0 37.996012 28.479085 A 1 1 0 0 0 38.996012 27.479085 A 1 1 0 0 0 37.996012 26.479085 z M 43.687663 26.479085 A 1 1 0 0 0 42.687663 27.479085 A 1 1 0 0 0 43.687663 28.479085 A 1 1 0 0 0 44.687663 27.479085 A 1 1 0 0 0 43.687663 26.479085 z M 49.379395 26.479085 A 1 1 0 0 0 48.379395 27.479085 A 1 1 0 0 0 49.379395 28.479085 A 1 1 0 0 0 50.379395 27.479085 A 1 1 0 0 0 49.379395 26.479085 z M 55.071045 26.479085 A 1 1 0 0 0 54.071045 27.479085 A 1 1 0 0 0 55.071045 28.479085 A 1 1 0 0 0 56.071045 27.479085 A 1 1 0 0 0 55.071045 26.479085 z M 3.8458659 26.879069 A 0.60000002 0.60000002 0 0 1 4.4458822 27.479085 A 0.60000002 0.60000002 0 0 1 3.8458659 28.079102 A 0.60000002 0.60000002 0 0 1 3.2458496 27.479085 A 0.60000002 0.60000002 0 0 1 3.8458659 26.879069 z M 9.5375163 26.879069 A 0.60000002 0.60000002 0 0 1 10.137533 27.479085 A 0.60000002 0.60000002 0 0 1 9.5375163 28.079102 A 0.60000002 0.60000002 0 0 1 8.9375 27.479085 A 0.60000002 0.60000002 0 0 1 9.5375163 26.879069 z M 15.229248 26.879069 A 0.60000002 0.60000002 0 0 1 15.829264 27.479085 A 0.60000002 0.60000002 0 0 1 15.229248 28.079102 A 0.60000002 0.60000002 0 0 1 14.629232 27.479085 A 0.60000002 0.60000002 0 0 1 15.229248 26.879069 z M 20.920898 26.879069 A 0.60000002 0.60000002 0 0 1 21.520915 27.479085 A 0.60000002 0.60000002 0 0 1 20.920898 28.079102 A 0.60000002 0.60000002 0 0 1 20.320882 27.479085 A 0.60000002 0.60000002 0 0 1 20.920898 26.879069 z M 26.61263 26.879069 A 0.60000002 0.60000002 0 0 1 27.212646 27.479085 A 0.60000002 0.60000002 0 0 1 26.61263 28.079102 A 0.60000002 0.60000002 0 0 1 26.012614 27.479085 A 0.60000002 0.60000002 0 0 1 26.61263 26.879069 z M 32.304281 26.879069 A 0.60000002 0.60000002 0 0 1 32.904297 27.479085 A 0.60000002 0.60000002 0 0 1 32.304281 28.079102 A 0.60000002 0.60000002 0 0 1 31.704264 27.479085 A 0.60000002 0.60000002 0 0 1 32.304281 26.879069 z M 37.996012 26.879069 A 0.60000002 0.60000002 0 0 1 38.596029 27.479085 A 0.60000002 0.60000002 0 0 1 37.996012 28.079102 A 0.60000002 0.60000002 0 0 1 37.395996 27.479085 A 0.60000002 0.60000002 0 0 1 37.996012 26.879069 z M 43.687663 26.879069 A 0.60000002 0.60000002 0 0 1 44.287679 27.479085 A 0.60000002 0.60000002 0 0 1 43.687663 28.079102 A 0.60000002 0.60000002 0 0 1 43.087646 27.479085 A 0.60000002 0.60000002 0 0 1 43.687663 26.879069 z M 49.379395 26.879069 A 0.60000002 0.60000002 0 0 1 49.979411 27.479085 A 0.60000002 0.60000002 0 0 1 49.379395 28.079102 A 0.60000002 0.60000002 0 0 1 48.779378 27.479085 A 0.60000002 0.60000002 0 0 1 49.379395 26.879069 z M 55.071045 26.879069 A 0.60000002 0.60000002 0 0 1 55.671061 27.479085 A 0.60000002 0.60000002 0 0 1 55.071045 28.079102 A 0.60000002 0.60000002 0 0 1 54.471029 27.479085 A 0.60000002 0.60000002 0 0 1 55.071045 26.879069 z M 1 28.225667 A 1 1 0 0 0 0 29.225667 A 1 1 0 0 0 1 30.225667 A 1 1 0 0 0 2 29.225667 A 1 1 0 0 0 1 28.225667 z M 6.6917318 28.225667 A 1 1 0 0 0 5.6917318 29.225667 A 1 1 0 0 0 6.6917318 30.225667 A 1 1 0 0 0 7.6917318 29.225667 A 1 1 0 0 0 6.6917318 28.225667 z M 12.383382 28.225667 A 1 1 0 0 0 11.383382 29.225667 A 1 1 0 0 0 12.383382 30.225667 A 1 1 0 0 0 13.383382 29.225667 A 1 1 0 0 0 12.383382 28.225667 z M 18.075114 28.225667 A 1 1 0 0 0 17.075114 29.225667 A 1 1 0 0 0 18.075114 30.225667 A 1 1 0 0 0 19.075114 29.225667 A 1 1 0 0 0 18.075114 28.225667 z M 23.766764 28.225667 A 1 1 0 0 0 22.766764 29.225667 A 1 1 0 0 0 23.766764 30.225667 A 1 1 0 0 0 24.766764 29.225667 A 1 1 0 0 0 23.766764 28.225667 z M 29.458496 28.225667 A 1 1 0 0 0 28.458496 29.225667 A 1 1 0 0 0 29.458496 30.225667 A 1 1 0 0 0 30.458496 29.225667 A 1 1 0 0 0 29.458496 28.225667 z M 35.150146 28.225667 A 1 1 0 0 0 34.150146 29.225667 A 1 1 0 0 0 35.150146 30.225667 A 1 1 0 0 0 36.150146 29.225667 A 1 1 0 0 0 35.150146 28.225667 z M 40.841878 28.225667 A 1 1 0 0 0 39.841878 29.225667 A 1 1 0 0 0 40.841878 30.225667 A 1 1 0 0 0 41.841878 29.225667 A 1 1 0 0 0 40.841878 28.225667 z M 46.533529 28.225667 A 1 1 0 0 0 45.533529 29.225667 A 1 1 0 0 0 46.533529 30.225667 A 1 1 0 0 0 47.533529 29.225667 A 1 1 0 0 0 46.533529 28.225667 z M 52.22526 28.225667 A 1 1 0 0 0 51.22526 29.225667 A 1 1 0 0 0 52.22526 30.225667 A 1 1 0 0 0 53.22526 29.225667 A 1 1 0 0 0 52.22526 28.225667 z M 1 28.625651 A 0.60000002 0.60000002 0 0 1 1.6000163 29.225667 A 0.60000002 0.60000002 0 0 1 1 29.825684 A 0.60000002 0.60000002 0 0 1 0.39998372 29.225667 A 0.60000002 0.60000002 0 0 1 1 28.625651 z M 6.6917318 28.625651 A 0.60000002 0.60000002 0 0 1 7.291748 29.225667 A 0.60000002 0.60000002 0 0 1 6.6917318 29.825684 A 0.60000002 0.60000002 0 0 1 6.0917155 29.225667 A 0.60000002 0.60000002 0 0 1 6.6917318 28.625651 z M 12.383382 28.625651 A 0.60000002 0.60000002 0 0 1 12.983398 29.225667 A 0.60000002 0.60000002 0 0 1 12.383382 29.825684 A 0.60000002 0.60000002 0 0 1 11.783366 29.225667 A 0.60000002 0.60000002 0 0 1 12.383382 28.625651 z M 18.075114 28.625651 A 0.60000002 0.60000002 0 0 1 18.67513 29.225667 A 0.60000002 0.60000002 0 0 1 18.075114 29.825684 A 0.60000002 0.60000002 0 0 1 17.475098 29.225667 A 0.60000002 0.60000002 0 0 1 18.075114 28.625651 z M 23.766764 28.625651 A 0.60000002 0.60000002 0 0 1 24.366781 29.225667 A 0.60000002 0.60000002 0 0 1 23.766764 29.825684 A 0.60000002 0.60000002 0 0 1 23.166748 29.225667 A 0.60000002 0.60000002 0 0 1 23.766764 28.625651 z M 29.458496 28.625651 A 0.60000002 0.60000002 0 0 1 30.058512 29.225667 A 0.60000002 0.60000002 0 0 1 29.458496 29.825684 A 0.60000002 0.60000002 0 0 1 28.85848 29.225667 A 0.60000002 0.60000002 0 0 1 29.458496 28.625651 z M 35.150146 28.625651 A 0.60000002 0.60000002 0 0 1 35.750163 29.225667 A 0.60000002 0.60000002 0 0 1 35.150146 29.825684 A 0.60000002 0.60000002 0 0 1 34.55013 29.225667 A 0.60000002 0.60000002 0 0 1 35.150146 28.625651 z M 40.841878 28.625651 A 0.60000002 0.60000002 0 0 1 41.441895 29.225667 A 0.60000002 0.60000002 0 0 1 40.841878 29.825684 A 0.60000002 0.60000002 0 0 1 40.241862 29.225667 A 0.60000002 0.60000002 0 0 1 40.841878 28.625651 z M 46.533529 28.625651 A 0.60000002 0.60000002 0 0 1 47.133545 29.225667 A 0.60000002 0.60000002 0 0 1 46.533529 29.825684 A 0.60000002 0.60000002 0 0 1 45.933512 29.225667 A 0.60000002 0.60000002 0 0 1 46.533529 28.625651 z M 52.22526 28.625651 A 0.60000002 0.60000002 0 0 1 52.825277 29.225667 A 0.60000002 0.60000002 0 0 1 52.22526 29.825684 A 0.60000002 0.60000002 0 0 1 51.625244 29.225667 A 0.60000002 0.60000002 0 0 1 52.22526 28.625651 z M 3.8458659 29.972168 A 1 1 0 0 0 2.8458659 30.972168 A 1 1 0 0 0 3.8458659 31.972168 A 1 1 0 0 0 4.8458659 30.972168 A 1 1 0 0 0 3.8458659 29.972168 z M 9.5375163 29.972168 A 1 1 0 0 0 8.5375163 30.972168 A 1 1 0 0 0 9.5375163 31.972168 A 1 1 0 0 0 10.537516 30.972168 A 1 1 0 0 0 9.5375163 29.972168 z M 15.229248 29.972168 A 1 1 0 0 0 14.229248 30.972168 A 1 1 0 0 0 15.229248 31.972168 A 1 1 0 0 0 16.229248 30.972168 A 1 1 0 0 0 15.229248 29.972168 z M 20.920898 29.972168 A 1 1 0 0 0 19.920898 30.972168 A 1 1 0 0 0 20.920898 31.972168 A 1 1 0 0 0 21.920898 30.972168 A 1 1 0 0 0 20.920898 29.972168 z M 26.61263 29.972168 A 1 1 0 0 0 25.61263 30.972168 A 1 1 0 0 0 26.61263 31.972168 A 1 1 0 0 0 27.61263 30.972168 A 1 1 0 0 0 26.61263 29.972168 z M 32.304281 29.972168 A 1 1 0 0 0 31.304281 30.972168 A 1 1 0 0 0 32.304281 31.972168 A 1 1 0 0 0 33.304281 30.972168 A 1 1 0 0 0 32.304281 29.972168 z M 37.996012 29.972168 A 1 1 0 0 0 36.996012 30.972168 A 1 1 0 0 0 37.996012 31.972168 A 1 1 0 0 0 38.996012 30.972168 A 1 1 0 0 0 37.996012 29.972168 z M 43.687663 29.972168 A 1 1 0 0 0 42.687663 30.972168 A 1 1 0 0 0 43.687663 31.972168 A 1 1 0 0 0 44.687663 30.972168 A 1 1 0 0 0 43.687663 29.972168 z M 49.379395 29.972168 A 1 1 0 0 0 48.379395 30.972168 A 1 1 0 0 0 49.379395 31.972168 A 1 1 0 0 0 50.379395 30.972168 A 1 1 0 0 0 49.379395 29.972168 z M 55.071045 29.972168 A 1 1 0 0 0 54.071045 30.972168 A 1 1 0 0 0 55.071045 31.972168 A 1 1 0 0 0 56.071045 30.972168 A 1 1 0 0 0 55.071045 29.972168 z M 3.8458659 30.372152 A 0.60000002 0.60000002 0 0 1 4.4458822 30.972168 A 0.60000002 0.60000002 0 0 1 3.8458659 31.572184 A 0.60000002 0.60000002 0 0 1 3.2458496 30.972168 A 0.60000002 0.60000002 0 0 1 3.8458659 30.372152 z M 9.5375163 30.372152 A 0.60000002 0.60000002 0 0 1 10.137533 30.972168 A 0.60000002 0.60000002 0 0 1 9.5375163 31.572184 A 0.60000002 0.60000002 0 0 1 8.9375 30.972168 A 0.60000002 0.60000002 0 0 1 9.5375163 30.372152 z M 15.229248 30.372152 A 0.60000002 0.60000002 0 0 1 15.829264 30.972168 A 0.60000002 0.60000002 0 0 1 15.229248 31.572184 A 0.60000002 0.60000002 0 0 1 14.629232 30.972168 A 0.60000002 0.60000002 0 0 1 15.229248 30.372152 z M 20.920898 30.372152 A 0.60000002 0.60000002 0 0 1 21.520915 30.972168 A 0.60000002 0.60000002 0 0 1 20.920898 31.572184 A 0.60000002 0.60000002 0 0 1 20.320882 30.972168 A 0.60000002 0.60000002 0 0 1 20.920898 30.372152 z M 26.61263 30.372152 A 0.60000002 0.60000002 0 0 1 27.212646 30.972168 A 0.60000002 0.60000002 0 0 1 26.61263 31.572184 A 0.60000002 0.60000002 0 0 1 26.012614 30.972168 A 0.60000002 0.60000002 0 0 1 26.61263 30.372152 z M 32.304281 30.372152 A 0.60000002 0.60000002 0 0 1 32.904297 30.972168 A 0.60000002 0.60000002 0 0 1 32.304281 31.572184 A 0.60000002 0.60000002 0 0 1 31.704264 30.972168 A 0.60000002 0.60000002 0 0 1 32.304281 30.372152 z M 37.996012 30.372152 A 0.60000002 0.60000002 0 0 1 38.596029 30.972168 A 0.60000002 0.60000002 0 0 1 37.996012 31.572184 A 0.60000002 0.60000002 0 0 1 37.395996 30.972168 A 0.60000002 0.60000002 0 0 1 37.996012 30.372152 z M 43.687663 30.372152 A 0.60000002 0.60000002 0 0 1 44.287679 30.972168 A 0.60000002 0.60000002 0 0 1 43.687663 31.572184 A 0.60000002 0.60000002 0 0 1 43.087646 30.972168 A 0.60000002 0.60000002 0 0 1 43.687663 30.372152 z M 49.379395 30.372152 A 0.60000002 0.60000002 0 0 1 49.979411 30.972168 A 0.60000002 0.60000002 0 0 1 49.379395 31.572184 A 0.60000002 0.60000002 0 0 1 48.779378 30.972168 A 0.60000002 0.60000002 0 0 1 49.379395 30.372152 z M 55.071045 30.372152 A 0.60000002 0.60000002 0 0 1 55.671061 30.972168 A 0.60000002 0.60000002 0 0 1 55.071045 31.572184 A 0.60000002 0.60000002 0 0 1 54.471029 30.972168 A 0.60000002 0.60000002 0 0 1 55.071045 30.372152 z M 1 31.718669 A 1 1 0 0 0 0 32.718669 A 1 1 0 0 0 1 33.718669 A 1 1 0 0 0 2 32.718669 A 1 1 0 0 0 1 31.718669 z M 6.6917318 31.718669 A 1 1 0 0 0 5.6917318 32.718669 A 1 1 0 0 0 6.6917318 33.718669 A 1 1 0 0 0 7.6917318 32.718669 A 1 1 0 0 0 6.6917318 31.718669 z M 12.383382 31.718669 A 1 1 0 0 0 11.383382 32.718669 A 1 1 0 0 0 12.383382 33.718669 A 1 1 0 0 0 13.383382 32.718669 A 1 1 0 0 0 12.383382 31.718669 z M 18.075114 31.718669 A 1 1 0 0 0 17.075114 32.718669 A 1 1 0 0 0 18.075114 33.718669 A 1 1 0 0 0 19.075114 32.718669 A 1 1 0 0 0 18.075114 31.718669 z M 23.766764 31.718669 A 1 1 0 0 0 22.766764 32.718669 A 1 1 0 0 0 23.766764 33.718669 A 1 1 0 0 0 24.766764 32.718669 A 1 1 0 0 0 23.766764 31.718669 z M 29.458496 31.718669 A 1 1 0 0 0 28.458496 32.718669 A 1 1 0 0 0 29.458496 33.718669 A 1 1 0 0 0 30.458496 32.718669 A 1 1 0 0 0 29.458496 31.718669 z M 35.150146 31.718669 A 1 1 0 0 0 34.150146 32.718669 A 1 1 0 0 0 35.150146 33.718669 A 1 1 0 0 0 36.150146 32.718669 A 1 1 0 0 0 35.150146 31.718669 z M 40.841878 31.718669 A 1 1 0 0 0 39.841878 32.718669 A 1 1 0 0 0 40.841878 33.718669 A 1 1 0 0 0 41.841878 32.718669 A 1 1 0 0 0 40.841878 31.718669 z M 46.533529 31.718669 A 1 1 0 0 0 45.533529 32.718669 A 1 1 0 0 0 46.533529 33.718669 A 1 1 0 0 0 47.533529 32.718669 A 1 1 0 0 0 46.533529 31.718669 z M 52.22526 31.718669 A 1 1 0 0 0 51.22526 32.718669 A 1 1 0 0 0 52.22526 33.718669 A 1 1 0 0 0 53.22526 32.718669 A 1 1 0 0 0 52.22526 31.718669 z M 1 32.118652 A 0.60000002 0.60000002 0 0 1 1.6000163 32.718669 A 0.60000002 0.60000002 0 0 1 1 33.318685 A 0.60000002 0.60000002 0 0 1 0.39998372 32.718669 A 0.60000002 0.60000002 0 0 1 1 32.118652 z M 6.6917318 32.118652 A 0.60000002 0.60000002 0 0 1 7.291748 32.718669 A 0.60000002 0.60000002 0 0 1 6.6917318 33.318685 A 0.60000002 0.60000002 0 0 1 6.0917155 32.718669 A 0.60000002 0.60000002 0 0 1 6.6917318 32.118652 z M 12.383382 32.118652 A 0.60000002 0.60000002 0 0 1 12.983398 32.718669 A 0.60000002 0.60000002 0 0 1 12.383382 33.318685 A 0.60000002 0.60000002 0 0 1 11.783366 32.718669 A 0.60000002 0.60000002 0 0 1 12.383382 32.118652 z M 18.075114 32.118652 A 0.60000002 0.60000002 0 0 1 18.67513 32.718669 A 0.60000002 0.60000002 0 0 1 18.075114 33.318685 A 0.60000002 0.60000002 0 0 1 17.475098 32.718669 A 0.60000002 0.60000002 0 0 1 18.075114 32.118652 z M 23.766764 32.118652 A 0.60000002 0.60000002 0 0 1 24.366781 32.718669 A 0.60000002 0.60000002 0 0 1 23.766764 33.318685 A 0.60000002 0.60000002 0 0 1 23.166748 32.718669 A 0.60000002 0.60000002 0 0 1 23.766764 32.118652 z M 29.458496 32.118652 A 0.60000002 0.60000002 0 0 1 30.058512 32.718669 A 0.60000002 0.60000002 0 0 1 29.458496 33.318685 A 0.60000002 0.60000002 0 0 1 28.85848 32.718669 A 0.60000002 0.60000002 0 0 1 29.458496 32.118652 z M 35.150146 32.118652 A 0.60000002 0.60000002 0 0 1 35.750163 32.718669 A 0.60000002 0.60000002 0 0 1 35.150146 33.318685 A 0.60000002 0.60000002 0 0 1 34.55013 32.718669 A 0.60000002 0.60000002 0 0 1 35.150146 32.118652 z M 40.841878 32.118652 A 0.60000002 0.60000002 0 0 1 41.441895 32.718669 A 0.60000002 0.60000002 0 0 1 40.841878 33.318685 A 0.60000002 0.60000002 0 0 1 40.241862 32.718669 A 0.60000002 0.60000002 0 0 1 40.841878 32.118652 z M 46.533529 32.118652 A 0.60000002 0.60000002 0 0 1 47.133545 32.718669 A 0.60000002 0.60000002 0 0 1 46.533529 33.318685 A 0.60000002 0.60000002 0 0 1 45.933512 32.718669 A 0.60000002 0.60000002 0 0 1 46.533529 32.118652 z M 52.22526 32.118652 A 0.60000002 0.60000002 0 0 1 52.825277 32.718669 A 0.60000002 0.60000002 0 0 1 52.22526 33.318685 A 0.60000002 0.60000002 0 0 1 51.625244 32.718669 A 0.60000002 0.60000002 0 0 1 52.22526 32.118652 z " />
  </g>
</svg>
